<?xml version="1.0" encoding="utf-8"?>
<!-- Generator: Adobe Illustrator 16.0.0, SVG Export Plug-In . SVG Version: 6.00 Build 0)  -->
<!DOCTYPE svg PUBLIC "-//W3C//DTD SVG 1.1//EN" "http://www.w3.org/Graphics/SVG/1.1/DTD/svg11.dtd">
<svg version="1.1" id="Capa_1" xmlns="http://www.w3.org/2000/svg" xmlns:xlink="http://www.w3.org/1999/xlink" x="0px" y="0px"
	 width="300px" height="300px" viewBox="0 0 300 300" enable-background="new 0 0 300 300" xml:space="preserve">
<g>
	<defs>
		<rect id="SVGID_11_" width="300" height="300"/>
	</defs>
	<clipPath id="SVGID_2_">
		<use xlink:href="#SVGID_11_"  overflow="visible"/>
	</clipPath>
	<g clip-path="url(#SVGID_2_)">
		<path fill="#BAD9D3" d="M0,0v300h300V0H0z M270.843,128.068l-0.031,0.15l-2.866,14.294c-0.449,2.247-2.637,3.703-4.882,3.253
			c-0.227-0.047-0.441-0.113-0.651-0.192c-0.905,2.87-2.076,6.16-3.606,9.757c-1.347,3.041-2.898,6.325-4.867,9.673
			c-1.963,3.351-4.315,6.785-7.341,10.056c-3.057,3.18-6.855,6.423-12.134,7.927c-1.307,0.357-2.683,0.616-4.099,0.646
			c-0.705,0.014-1.416,0.011-2.121-0.066c-0.353-0.03-0.706-0.067-1.053-0.133l-0.521-0.089l-0.261-0.046
			c0.031,0.002-0.105-0.024-0.149-0.034c-2.101-0.453-4.251-0.947-6.278-1.279c-4.113-0.757-8.335-1.32-12.455-1.588
			c-4.13-0.287-8.198-0.313-12.127-0.111c-1.596,0.085-3.161,0.223-4.707,0.387c0.146,1.317,0.208,3.143,0.077,5.283
			c-0.126,1.142-0.213,2.397-0.485,3.691c-0.152,0.932-0.387,1.895-0.661,2.865c0.025,0.084,0.041,0.168,0.076,0.25
			c0.141,0.37,0.282,0.768,0.42,1.193c0.382,0.869,0.789,1.834,1.348,2.841c0.269,0.506,0.556,1.023,0.869,1.559
			c0.313,0.541,0.631,1.089,0.948,1.64c0.321,0.574,0.646,1.136,0.946,1.745c0.313,0.581,0.579,1.233,0.825,1.847
			c0.225,0.66,0.426,1.29,0.513,1.969c0.08,0.364,0.085,0.744,0.069,1.115l2.709,5.998l2.685,13.369l-11.617,23.756l-34.906,13.141
			l-53.499-7.215l-39.237-19.707l12.582-45.95c-1.482-1.301-3-2.735-4.499-4.357c-1.453-1.622-2.888-3.428-4.135-5.526
			c-1.238-2.091-2.298-4.509-2.741-7.244c-0.479-2.711-0.138-5.752,0.853-8.422c0.836-2.266,1.289-4.537,1.676-7.06
			c0.753-4.979,1.161-10.324,1.466-15.781c0.303-5.46,0.679-11.05,1.056-16.659c0.357-5.614,0.971-11.24,1.735-16.782
			c0.748-5.544,1.788-11.004,3.266-16.209c1.435-5.21,3.292-10.207,5.827-14.624c0.571-1.105,1.37-2.214,2.034-3.283
			c0.351-0.473,0.699-0.94,1.043-1.404l0.515-0.688c0.266-0.376,0.412-0.492,0.623-0.748c0.788-0.886,1.519-1.793,2.326-2.599
			c0.822-0.789,1.627-1.563,2.415-2.322c3.244-2.933,6.562-5.171,9.641-6.838c3.067-1.694,5.885-2.844,8.244-3.636
			c1.947-0.681,3.567-1.078,4.812-1.34c3.384-3.306,6.851-6.364,9.979-9.515c1.027-0.97,1.949-2.015,2.864-3
			c0.407-0.495,0.833-0.968,1.253-1.448c0.413-0.439,0.882-1.134,1.322-1.688l0.669-0.881l0.738-0.91
			c0.617-0.685,1.096-1.419,1.849-2.041c0.743-0.618,1.415-1.287,2.249-1.825c0.882-0.494,1.701-1.084,2.673-1.429
			c1.916-0.736,4.021-1.171,6.02-1.041c2.034,0.006,3.874,0.577,5.611,1.181c1.674,0.698,3.266,1.501,4.66,2.501
			c1.438,1.017,2.657,1.969,4.015,3.367l-0.315-0.282c0.223,0.195,0.439,0.398,0.661,0.594c2.596,0.702,5.173,1.452,7.738,2.229
			l0.187,0.085l9.602,3.697c1.578,0.599,3.185,1.161,4.671,1.645c0.367,0.115,0.729,0.222,1.053,0.302
			c0.038,0.009,0.069,0.014,0.106,0.023l0.061-0.023l1.148-0.416c3.193-1.216,6.51-2.431,9.846-3.551
			c3.362-1.086,6.74-2.141,10.353-2.92c1.852-0.387,3.593-0.755,6.036-0.772c0.656,0.026,1.325,0.018,2.465,0.355
			c0.313,0.108,0.614,0.217,1.021,0.445c0.17,0.09,0.39,0.23,0.612,0.406l0.313,0.261c0.12,0.106,0.318,0.316,0.456,0.49
			c0.149,0.186,0.285,0.384,0.403,0.586l0.082,0.147l0.018,0.038l0.233,0.524l0.02,0.091c0.194,0.513,0.578,1.29,0.948,1.997
			c1.547,2.918,3.257,5.925,4.976,8.883c1.704,2.985,3.477,5.933,5.239,8.899c0.904,1.467,1.827,2.918,2.773,4.36
			c0.154,0.216,0.307,0.436,0.458,0.654c3.102,1.089,6.184,2.247,9.229,3.548c4.233,1.838,8.458,3.814,12.461,6.392
			c2.009,1.272,3.973,2.687,5.847,4.321c1.855,1.663,3.666,3.533,5.075,5.986c0.354,0.607,0.678,1.257,0.948,1.947
			c0.139,0.343,0.275,0.688,0.379,1.057l0.28,0.952l0.876,3.284c0.597,2.137,1.202,4.231,1.875,6.36
			c1.325,4.239,2.826,8.396,4.457,12.581c0.818,2.104,1.625,4.209,2.403,6.494c0.729,2.276,1.602,4.799,1.481,8.2
			C270.882,127.813,270.868,127.941,270.843,128.068z"/>
		<path fill="none" d="M164.307,282.163l1.025,4.837c0.353,1.596,0.672,3.208,1.058,4.788c0.336,1.461,0.705,2.904,1.176,4.266
			c0.772-2.957,1.511-5.929,2.267-8.885c0.975-3.896,1.949-7.76,2.855-11.656c0.891-3.897,1.696-7.792,2.334-11.723
			c0.32-1.966,0.522-3.931,0.589-5.896c0.033-0.991,0.017-1.966-0.134-2.922c-0.017-0.169-0.051-0.336-0.084-0.521
			c-0.57,0.202-1.125,0.388-1.714,0.538c-2.552,0.705-5.173,0.924-7.741,0.891c-0.035,0.116-0.051,0.251-0.067,0.369
			c-0.169,0.622-0.403,1.276-0.858,1.965c-0.469,0.654-1.276,1.327-2.267,1.494c-0.471,0.084-0.94,0.084-1.36,0.017
			c-0.438-0.084-0.756-0.151-1.277-0.402c-0.049-0.034-0.117-0.066-0.167-0.118l-0.151-0.134l-0.252-0.202
			c1.394,6.147,2.586,12.312,3.795,18.426L164.307,282.163z"/>
		<path fill="none" d="M198.217,223.565c-0.387,1.696-0.824,3.376-1.361,5.039c-0.889,2.821-1.947,5.593-3.257,8.296
			c-1.311,2.688-2.839,5.323-4.753,7.727c-0.387,0.52-0.823,1.023-1.259,1.511c5.055,1.277,10.295,2.938,13.25,4.82
			C202.65,245.448,206.144,231.46,198.217,223.565z"/>
		<path fill="none" d="M112.931,264.965l7.221,11.438c3.981,6.449,7.894,12.949,11.74,19.481l3.612-15.636
			c0.754-3.292,1.478-6.583,2.132-9.894c0.336-1.661,0.589-3.324,0.856-4.987c0.134-0.958,0.252-1.931,0.32-2.904
			c-0.067,0.016-0.151,0.032-0.234,0.049c-1.025,0.135-2.067,0.034-3.041-0.202c-0.991-0.218-1.914-0.67-2.737-1.208
			c-0.42-0.27-0.789-0.604-1.16-0.907c-0.334-0.353-0.687-0.689-0.991-1.058c-0.234-0.337-0.487-0.673-0.722-1.025
			c-0.403,0.605-1.074,1.025-1.865,1.076h-0.017l-0.218,0.016c-4.183,0.235-8.449,0.168-12.664-0.52
			c-2.116-0.336-4.232-0.739-6.298-1.361c-0.437-0.135-0.873-0.285-1.311-0.42l1.647,2.401L112.931,264.965z"/>
		<path fill="none" d="M132.716,258.919c0.336,0.202,0.654,0.437,1.007,0.622c0.705,0.336,1.445,0.57,2.201,0.638
			c0.754,0.084,1.528,0.051,2.234-0.135c0.722-0.185,1.411-0.436,1.947-0.855c0.169-0.135,0.689-0.521,0.907-0.757
			c0.269-0.252,0.521-0.486,0.823-0.823c1.176-1.243,2.419-2.636,3.98-3.846c1.529-1.209,3.577-2.199,5.795-2.283
			c0.554-0.067,1.074,0.017,1.612,0.084l0.806,0.1l0.74,0.236c1.025,0.268,1.914,0.722,2.805,1.174
			c0.874,0.471,1.628,1.06,2.419,1.612l1.898,1.647c0.1,0.032,0.234,0.067,0.251,0.051c0.051,0,0.085,0,0.236-0.135
			c0.151-0.186,0.302-0.487,0.42-0.84c0.049-0.15,0.083-0.304,0.135-0.471c-0.202-0.285-0.32-0.638-0.32-1.007
			c0.067-2.016,0.1-4.082,0.067-6.114c-0.051-2.049-0.083-4.098-0.252-6.13c-0.116-1.596-0.285-3.175-0.536-4.753l-0.638,0.688
			c-0.438,0.537-1.092,0.924-1.68,1.377c-0.605,0.454-1.21,0.874-1.881,1.159c-0.656,0.318-1.294,0.722-1.983,0.958l-2.065,0.738
			c-0.688,0.218-1.41,0.368-2.116,0.554c-0.705,0.186-1.428,0.27-2.15,0.369c-0.722,0.102-1.445,0.218-2.167,0.253
			c-1.208,0.118-2.436,0.118-3.644,0.118l-1.495-0.051c-1.176-0.051-2.352-0.151-3.511-0.302c-0.722-0.067-1.427-0.236-2.132-0.354
			c-0.705-0.134-1.411-0.286-2.1-0.471c-1.008-0.252-1.999-0.554-2.99-0.855c-0.302,1.158-0.538,2.366-0.705,3.559
			c-0.302,1.967-0.386,3.98-0.437,5.964c-0.034,1.007-0.034,1.998,0,2.988l0.067,1.496l0.083,1.158l0.622,0.906
			c0.269,0.337,0.555,0.622,0.823,0.924C132.094,258.399,132.414,258.65,132.716,258.919z"/>
		<path fill="#000100" d="M237.683,118.573c0,0,2.519-14.696,0-15.956c-2.52-1.259-18.895-13.855-21.834-13.436
			c-2.939,0.42,7.978,10.907,7.978,14.69C223.827,107.656,237.683,100.519,237.683,118.573z"/>
		<path fill="#000100" d="M187.556,88.508c0,0-0.291-0.104-0.625-0.506c-21.207-25.522-41.268-31.075-48.803-28.772
			c-8.15,2.489-16.51,8.509-16.51,8.509s10.989-2.103,13.092-0.789c2.103,1.315-16.985,4.207-6.521,30.761
			c0,0,0.474-13.67,4.943-13.67c0,0,0.791,14.724,16.828,10.254c16.036-4.471,10.204-7.63,21.27-5.786
			C182.299,90.35,189.895,90.381,187.556,88.508z"/>
		<path fill="#000100" d="M127.458,195.243c0,0,0.768,1.688,1.919,4.222c0.577,1.249,1.266,2.682,2.025,4.191
			c0.807,1.479,1.605,3.086,2.616,4.533c0.444,0.771,0.978,1.461,1.499,2.148c0.5,0.71,1.099,1.286,1.622,1.921
			c0.572,0.57,1.166,1.072,1.704,1.603c0.615,0.399,1.186,0.814,1.724,1.21c0.589,0.268,1.128,0.545,1.619,0.799
			c0.483,0.278,0.962,0.321,1.338,0.473c0.766,0.241,1.227,0.406,1.227,0.406s-0.456,0.05-1.292,0.089
			c-0.412-0.015-0.955,0.113-1.521-0.036c-0.576-0.106-1.238-0.234-1.963-0.41c-0.673-0.28-1.411-0.597-2.182-0.971
			c-0.687-0.478-1.473-0.94-2.17-1.542c-0.635-0.649-1.435-1.226-1.989-2.003c-0.604-0.742-1.224-1.495-1.727-2.315
			c-0.533-0.807-0.986-1.651-1.414-2.488c-0.471-0.82-0.75-1.704-1.114-2.516c-0.631-1.663-1.089-3.254-1.369-4.642
			C127.415,197.149,127.458,195.243,127.458,195.243z"/>
		<path fill="#FFFFFF" d="M146.684,69.597c-4.937-1.252-6.4,4.408-6.4,8.233c0,4.348,5.636,6.736,11.698,6.736
			c6.063,0,13.395-2.066,11.33-5.894C160.909,74.219,150.979,70.686,146.684,69.597z"/>
		<path fill="#000100" d="M178.617,46.191c0.012,0.004,0.061,0.007-0.093-0.015c-0.021-0.003-0.042,0-0.063-0.002
			c0.053,0.01,0.11,0.021,0.118,0.017H178.617z"/>
		<path fill="#000100" d="M204.2,44.73l-0.041-0.07l-0.02-0.035c-0.011-0.022-0.021-0.036,0.038,0.081
			c0.018,0.036,0.046,0.066,0.066,0.102l-0.176-0.381l-0.021-0.046c0.028,0.064,0.077,0.174,0.164,0.367L204.2,44.73z"/>
		<path fill="#000100" d="M237.683,118.573c0,0,2.519-14.696,0-15.956c-2.52-1.259-18.895-13.855-21.834-13.436
			c-2.939,0.42,7.978,10.907,7.978,14.69C223.827,107.656,237.683,100.519,237.683,118.573z"/>
		<path fill="#000100" d="M187.556,88.508c0,0-0.291-0.104-0.625-0.506c-21.207-25.522-41.268-31.075-48.803-28.772
			c-8.15,2.489-16.51,8.509-16.51,8.509s10.989-2.103,13.092-0.789c2.103,1.315-16.985,4.207-6.521,30.761
			c0,0,0.474-13.67,4.943-13.67c0,0,0.791,14.724,16.828,10.254c16.036-4.471,10.204-7.63,21.27-5.786
			C182.299,90.35,189.895,90.381,187.556,88.508z"/>
		<path fill="#000100" d="M127.458,195.243c0,0,0.768,1.688,1.919,4.222c0.577,1.249,1.266,2.682,2.025,4.191
			c0.807,1.479,1.605,3.086,2.616,4.533c0.444,0.771,0.978,1.461,1.499,2.148c0.5,0.71,1.099,1.286,1.622,1.921
			c0.572,0.57,1.166,1.072,1.704,1.603c0.615,0.399,1.186,0.814,1.724,1.21c0.589,0.268,1.128,0.545,1.619,0.799
			c0.483,0.278,0.962,0.321,1.338,0.473c0.766,0.241,1.227,0.406,1.227,0.406s-0.456,0.05-1.292,0.089
			c-0.412-0.015-0.955,0.113-1.521-0.036c-0.576-0.106-1.238-0.234-1.963-0.41c-0.673-0.28-1.411-0.597-2.182-0.971
			c-0.687-0.478-1.473-0.94-2.17-1.542c-0.635-0.649-1.435-1.226-1.989-2.003c-0.604-0.742-1.224-1.495-1.727-2.315
			c-0.533-0.807-0.986-1.651-1.414-2.488c-0.471-0.82-0.75-1.704-1.114-2.516c-0.631-1.663-1.089-3.254-1.369-4.642
			C127.415,197.149,127.458,195.243,127.458,195.243z"/>
		<path fill="#FFFFFF" d="M146.684,69.597c-4.937-1.252-6.4,4.408-6.4,8.233c0,4.348,5.636,6.736,11.698,6.736
			c6.063,0,13.395-2.066,11.33-5.894C160.909,74.219,150.979,70.686,146.684,69.597z"/>
		<path fill="#000100" d="M269.405,119.48c-0.778-2.285-1.584-4.39-2.403-6.494c-1.63-4.186-3.131-8.342-4.457-12.581
			c-0.672-2.129-1.277-4.224-1.875-6.36l-0.876-3.284l-0.28-0.952c-0.104-0.369-0.24-0.714-0.379-1.057
			c-0.271-0.69-0.594-1.34-0.948-1.947c-1.409-2.453-3.22-4.323-5.075-5.986c-1.875-1.635-3.838-3.049-5.847-4.321
			c-4.003-2.577-8.229-4.554-12.461-6.392c-3.046-1.301-6.128-2.459-9.229-3.548c-0.151-0.219-0.303-0.438-0.458-0.654
			c-0.946-1.442-1.87-2.894-2.773-4.36c-1.762-2.967-3.535-5.914-5.239-8.899c-1.719-2.958-3.429-5.965-4.976-8.883
			c-0.371-0.707-0.754-1.484-0.948-1.997l-0.02-0.091l-0.233-0.524l-0.018-0.038l-0.082-0.147c-0.118-0.202-0.254-0.4-0.403-0.586
			c-0.138-0.174-0.336-0.384-0.456-0.49l-0.313-0.261c-0.222-0.176-0.441-0.316-0.612-0.406c-0.407-0.229-0.707-0.337-1.021-0.445
			c-1.14-0.338-1.809-0.329-2.465-0.355c-2.442,0.018-4.184,0.386-6.036,0.772c-3.613,0.779-6.991,1.834-10.353,2.92
			c-3.336,1.12-6.652,2.335-9.846,3.551l-1.148,0.416l-0.061,0.023c-0.038-0.01-0.069-0.015-0.106-0.023
			c-0.323-0.08-0.686-0.187-1.053-0.302c-1.486-0.483-3.093-1.046-4.671-1.645l-9.602-3.697l-0.187-0.085
			c-2.565-0.777-5.142-1.527-7.738-2.229c-0.222-0.195-0.438-0.398-0.661-0.594l0.315,0.282c-1.358-1.398-2.577-2.351-4.015-3.367
			c-1.394-1-2.985-1.803-4.66-2.501c-1.737-0.604-3.577-1.175-5.611-1.181c-1.998-0.13-4.104,0.305-6.02,1.041
			c-0.973,0.345-1.791,0.935-2.673,1.429c-0.833,0.538-1.506,1.207-2.249,1.825c-0.753,0.622-1.232,1.356-1.849,2.041l-0.738,0.91
			l-0.669,0.881c-0.439,0.554-0.909,1.248-1.322,1.688c-0.42,0.48-0.847,0.953-1.253,1.448c-0.915,0.985-1.837,2.03-2.864,3
			c-3.127,3.15-6.595,6.209-9.979,9.515c-1.245,0.262-2.865,0.659-4.812,1.34c-2.359,0.792-5.176,1.941-8.244,3.636
			c-3.079,1.667-6.396,3.905-9.641,6.838c-0.788,0.76-1.593,1.533-2.415,2.322c-0.807,0.806-1.538,1.713-2.326,2.599
			c-0.211,0.256-0.357,0.372-0.623,0.748l-0.515,0.688c-0.344,0.464-0.692,0.932-1.043,1.404c-0.665,1.069-1.463,2.178-2.034,3.283
			c-2.536,4.417-4.392,9.414-5.827,14.624c-1.478,5.205-2.518,10.665-3.266,16.209c-0.764,5.542-1.378,11.168-1.735,16.782
			c-0.377,5.609-0.753,11.199-1.056,16.659c-0.305,5.457-0.713,10.802-1.466,15.781c-0.387,2.522-0.84,4.794-1.676,7.06
			c-0.991,2.67-1.332,5.711-0.853,8.422c0.443,2.735,1.502,5.153,2.741,7.244c1.247,2.099,2.682,3.904,4.135,5.526
			c1.5,1.622,3.017,3.057,4.499,4.357l-12.582,45.95l39.237,19.707l53.499,7.215l34.906-13.141l11.617-23.756l-2.685-13.369
			l-2.709-5.998c0.017-0.371,0.011-0.751-0.069-1.115c-0.087-0.679-0.289-1.309-0.513-1.969c-0.246-0.613-0.512-1.266-0.825-1.847
			c-0.3-0.609-0.625-1.171-0.946-1.745c-0.317-0.551-0.635-1.099-0.948-1.64c-0.313-0.535-0.6-1.053-0.869-1.559
			c-0.559-1.007-0.966-1.972-1.348-2.841c-0.138-0.426-0.279-0.823-0.42-1.193c-0.035-0.082-0.051-0.166-0.076-0.25
			c0.274-0.971,0.509-1.934,0.661-2.865c0.272-1.294,0.359-2.55,0.485-3.691c0.131-2.141,0.069-3.966-0.077-5.283
			c1.546-0.164,3.111-0.302,4.707-0.387c3.93-0.202,7.998-0.176,12.127,0.111c4.12,0.268,8.342,0.831,12.455,1.588
			c2.027,0.332,4.177,0.826,6.278,1.279c0.044,0.01,0.181,0.036,0.149,0.034l0.261,0.046l0.521,0.089
			c0.348,0.065,0.701,0.103,1.053,0.133c0.705,0.077,1.416,0.08,2.121,0.066c1.416-0.029,2.792-0.288,4.099-0.646
			c5.278-1.504,9.077-4.747,12.134-7.927c3.026-3.271,5.378-6.705,7.341-10.056c1.968-3.348,3.52-6.632,4.867-9.673
			c1.53-3.597,2.701-6.887,3.606-9.757c0.21,0.079,0.425,0.146,0.651,0.192c2.245,0.45,4.433-1.006,4.882-3.253l2.866-14.294
			l0.031-0.15c0.024-0.127,0.039-0.255,0.042-0.388C271.007,124.279,270.134,121.757,269.405,119.48z M204.067,44.427l0.176,0.381
			c-0.02-0.035-0.048-0.065-0.066-0.102c-0.059-0.117-0.049-0.104-0.038-0.081l0.02,0.035l0.041,0.07l0.01,0.018
			c-0.087-0.193-0.136-0.303-0.164-0.367L204.067,44.427z M178.524,46.177c0.154,0.021,0.105,0.019,0.093,0.015h-0.038
			c-0.008,0.005-0.065-0.007-0.118-0.017C178.481,46.177,178.502,46.174,178.524,46.177z M260.904,135.467
			c-1.094-0.422-2.2-0.799-3.321-1.101c-2.975-0.804-6.029-1.175-9.06-1.202c-6.075-0.034-11.983,1.397-17.352,3.667
			c-2.746,1.211-5.025,2.438-7.462,3.601c-2.388,1.157-4.802,2.309-7.22,3.382c-2.416,1.099-4.845,2.093-7.277,3.029
			c-2.427,0.922-4.856,1.758-7.279,2.36c-2.417,0.602-4.825,0.951-7.095,0.821c-1.13-0.08-2.249-0.211-3.298-0.56l-0.4-0.112
			l-0.1-0.028l-0.051-0.015l-0.024-0.007c-0.04-0.015,0.249,0.105,0.113,0.05l-0.235-0.099l-0.935-0.389
			c-0.341-0.127-0.597-0.255-0.819-0.377l-0.725-0.369c-2.085-1.129-4.206-2.698-6.208-4.347c-2.018-1.661-3.963-3.464-5.888-5.311
			c-1.94-1.836-3.83-3.738-5.757-5.662c-1.939-1.952-4.038-3.843-6.402-5.392c-2.357-1.545-4.982-2.732-7.735-3.288
			c-2.765-0.494-5.583-0.348-8.196,0.369c2.698-0.309,5.404-0.005,7.875,0.845c2.473,0.862,4.71,2.232,6.679,3.922
			c0.567,0.496,1.091,1.048,1.63,1.579c-0.143,0.059-0.289,0.104-0.428,0.182c0,0-0.166,0.091-0.476,0.261
			c-0.33,0.173-0.813,0.424-1.43,0.743c-1.25,0.633-3.067,1.518-5.293,2.493c-4.441,1.947-10.549,4.265-16.867,5.447
			c-1.576,0.271-3.166,0.5-4.727,0.584c-1.566,0.119-3.097,0.066-4.569-0.076c-1.463-0.169-2.867-0.462-4.12-0.944
			c-0.63-0.239-1.243-0.482-1.781-0.816c-0.577-0.281-1.073-0.64-1.539-1.008c-0.505-0.329-0.882-0.758-1.272-1.143
			c-0.414-0.369-0.707-0.801-1-1.199c-0.218-0.261-0.392-0.526-0.549-0.791c0.028-0.049,0.049-0.106,0.08-0.153l0.489-0.977
			l0.551-0.903c0.331-0.635,0.758-1.144,1.115-1.719c0.413-0.501,0.777-1.06,1.207-1.491c0.403-0.478,0.828-0.888,1.243-1.276
			c0.423-0.358,0.823-0.747,1.219-1.017c0.392-0.287,0.753-0.536,1.069-0.739c0.628-0.383,1.055-0.594,1.055-0.594
			s-0.41-0.231-1.219-0.389c-0.397-0.058-0.904-0.148-1.475-0.11c-0.582-0.008-1.23,0.084-1.935,0.243
			c-0.695,0.18-1.445,0.435-2.182,0.826c-0.761,0.356-1.463,0.886-2.181,1.445c-0.653,0.608-1.378,1.239-1.904,2.006
			c-0.277,0.375-0.583,0.743-0.838,1.138l-0.679,1.224c-0.462,0.822-0.781,1.678-1.06,2.534c-0.332,0.843-0.494,1.703-0.633,2.531
			c-0.144,0.828-0.279,1.628-0.272,2.393c-0.017,0.765-0.007,1.482,0.021,2.144c0.003,0.658,0.164,1.268,0.25,1.801
			c0.083,0.533,0.211,0.997,0.305,1.376c0.195,0.76,0.366,1.188,0.366,1.188s0.267-0.396,0.631-1.084
			c0.179-0.343,0.407-0.754,0.608-1.229c0.233-0.467,0.428-1.009,0.718-1.564c0.272-0.563,0.543-1.168,0.804-1.806
			c0.23-0.649,0.571-1.283,0.854-1.952c0.281-0.672,0.563-1.361,0.899-2.016c0.184-0.372,0.351-0.754,0.526-1.128
			c0.079,0.165,0.156,0.331,0.256,0.498c0.243,0.466,0.486,0.978,0.861,1.44c0.353,0.479,0.697,1.015,1.184,1.461
			c0.451,0.485,0.943,0.975,1.529,1.388c0.551,0.471,1.184,0.85,1.848,1.23c1.329,0.766,2.841,1.345,4.438,1.791
			c1.601,0.418,3.293,0.741,5.009,0.882c1.722,0.179,3.467,0.204,5.211,0.179c6.972-0.193,13.764-1.62,18.762-2.926
			c2.504-0.654,4.573-1.282,6.026-1.75c0.728-0.244,1.302-0.437,1.693-0.565c0.405-0.145,0.622-0.222,0.622-0.222
			c0.198-0.074,0.421-0.171,0.612-0.275c0.697-0.384,1.228-0.941,1.601-1.583c1.202,1.497,2.416,2.998,3.67,4.479
			c1.786,2.083,3.654,4.113,5.647,6.076c2.012,1.96,4.089,3.837,6.625,5.521c0.656,0.394,1.448,0.927,2.016,1.188l0.909,0.451
			l0.228,0.111l0.207,0.087l0.069,0.025l0.141,0.052l0.563,0.204c1.489,0.585,3.064,0.892,4.614,1.094
			c3.12,0.372,6.147,0.087,9.006-0.43c5.737-1.05,10.987-2.978,16.095-5.04c2.563-1.023,5.071-2.106,7.589-3.213
			c2.483-1.075,5.025-2.3,7.264-3.179c4.604-1.858,9.436-2.938,14.189-2.848c2.372,0.054,4.72,0.371,6.958,1.009
			c1.117,0.314,2.211,0.7,3.249,1.163c0.018,0.008,0.036,0.018,0.054,0.026c-0.266,0.445-0.535,0.898-0.817,1.371
			c-1.384,2.224-2.876,4.749-4.635,7.401c-1.698,2.684-3.643,5.503-5.767,8.358c-2.137,2.841-4.468,5.734-7.082,8.294
			c-2.577,2.563-5.475,4.834-8.386,5.884c-0.727,0.254-1.455,0.444-2.181,0.536c-0.363,0.038-0.73,0.082-1.096,0.072
			c-0.184,0.007-0.367,0.008-0.551-0.014l-0.279-0.018l-0.139-0.007l-0.25-0.029c-2.152-0.213-4.264-0.459-6.531-0.643
			c-4.457-0.369-8.855-0.622-13.245-0.612c-4.376,0.02-8.701,0.255-12.837,0.863c-4.135,0.585-8.086,1.437-11.72,2.397
			c-3.64,0.961-6.966,1.998-10.03,2.573c-3.062,0.617-5.88,0.669-8.379,0.333c-2.501-0.329-4.64-1.041-6.382-1.678
			c-1.742-0.642-3.083-1.265-3.982-1.709c-0.023-0.012-0.039-0.02-0.062-0.031c0.791-0.326,1.568-0.63,2.321-0.891
			c2.627-0.874,5.101-1.299,7.164-1.67c4.145-0.657,6.544-1.105,6.544-1.105s-0.602-0.077-1.729-0.221
			c-1.128-0.123-2.775-0.354-4.899-0.496c-2.117-0.169-4.758-0.316-7.835,0.089c-3.088,0.35-6.438,1.335-9.908,2.562
			c-3.487,1.214-7.133,2.725-10.924,4.396c-3.805,1.659-7.758,3.49-11.811,5.42c-3.779,1.805-7.817,3.272-11.493,3.333
			c-3.67,0.104-6.501-1.368-8.954-4.435c-2.416-3.063-4.21-7.245-5.785-11.514c-1.653-4.291-2.988-8.762-5.209-13.227
			c-0.281-0.56-0.59-1.122-0.912-1.682c-0.382-0.662-0.733-1.136-0.987-1.543c-0.426-0.613-0.813-1.342-1.104-2.167
			c-0.605-1.628-0.958-3.501-1.163-5.376c-0.369-3.772-0.282-7.574,0.01-11.063c0.328-3.494,0.679-6.74,1.132-9.602
			c0.461-2.86,0.841-5.38,1.24-7.437c0.754-4.129,1.251-6.5,1.251-6.5s-1.143,2.136-2.777,6.047c-0.797,1.962-1.781,4.35-2.7,7.164
			c-0.932,2.812-1.948,6.019-2.726,9.628c-0.765,3.611-1.529,7.594-1.524,12.059c-0.001,2.232,0.163,4.596,0.848,7.097
			c0.325,1.247,0.823,2.537,1.538,3.812l0.706,1.319c0.203,0.421,0.405,0.854,0.597,1.315c1.522,3.715,2.689,8.224,4.195,12.817
			c1.575,4.579,3.307,9.488,6.808,14.025c1.744,2.241,4.045,4.372,6.88,5.743c2.825,1.388,5.997,1.919,8.883,1.801
			c5.81-0.321,10.608-2.457,14.786-4.709c7.874-4.334,15.091-8.598,21.277-11.978c1.798-0.971,3.502-1.81,5.137-2.53
			c0.19,0.122,0.408,0.264,0.682,0.44c0.856,0.56,2.139,1.352,3.859,2.229c1.714,0.884,3.889,1.858,6.577,2.498
			c2.675,0.649,5.873,0.908,9.234,0.578c3.369-0.29,6.862-0.998,10.489-1.579c1.722-0.299,3.483-0.558,5.278-0.774
			c-0.313,1.211-0.725,2.797-1.213,4.687c-0.345,1.048-0.605,2.199-0.996,3.387c-0.379,1.19-0.742,2.447-1.173,3.733
			c-0.351,1.312-0.848,2.614-1.25,3.988c-0.515,1.318-0.992,2.7-1.655,3.982c-0.592,1.328-1.345,2.556-2.073,3.782
			c-0.351,0.623-0.809,1.158-1.202,1.735c-0.41,0.564-0.791,1.148-1.263,1.63c-0.45,0.509-0.893,1.008-1.325,1.496
			c-0.44,0.485-0.947,0.873-1.395,1.309c-0.88,0.893-1.865,1.542-2.76,2.172c-0.863,0.692-1.809,1.05-2.588,1.492
			c-0.779,0.453-1.514,0.712-2.126,0.919c-1.222,0.439-1.919,0.692-1.919,0.692l-0.023,0.006c-0.079,0.03-0.126,0.112-0.106,0.194
			c0.02,0.092,0.11,0.147,0.198,0.127c0,0,0.737-0.163,2.026-0.452c0.325-0.072,0.684-0.154,1.074-0.243
			c0.389-0.098,0.781-0.288,1.217-0.445c0.848-0.364,1.886-0.644,2.857-1.26c1.005-0.555,2.122-1.135,3.15-1.972
			c0.523-0.4,1.105-0.774,1.611-1.25c0.505-0.479,1.02-0.968,1.543-1.466c0.549-0.482,1.002-1.06,1.491-1.621
			c0.469-0.574,1.009-1.118,1.435-1.741c0.884-1.233,1.798-2.487,2.544-3.835c0.846-1.299,1.468-2.706,2.196-4.048
			c0.238-0.541,0.48-1.078,0.717-1.614c0.1,0.55,0.182,1.146,0.384,1.703c0.192,0.649,0.43,1.302,0.725,1.922
			c0.269,0.649,0.614,1.227,0.934,1.834c0.679,1.168,1.384,2.243,1.999,3.211c0.272,0.479,0.574,0.941,0.766,1.371
			c0.257,0.439,0.357,0.84,0.519,1.247c0.039,0.39,0.205,0.794,0.157,1.147c-0.013,0.357,0.033,0.719-0.054,0.987
			c-0.105,0.562-0.159,0.938-0.159,0.938s0.277-0.193,0.755-0.637c0.216-0.17,0.396-0.442,0.583-0.761l1.785,3.927l2.554,12.718
			l-11.076,22.644l-33.885,12.758l-52.673-7.057l-37.881-19.027l12.011-43.869c0.948,0.794,1.883,1.557,2.773,2.261
			c2.719,2.108,5.157,3.817,7.113,5.284c1.968,1.446,3.479,2.624,4.42,3.526c0.959,0.882,1.345,1.479,1.345,1.479
			s-0.279-0.656-1.104-1.699c-0.82-1.047-2.153-2.467-3.925-4.176c-1.771-1.689-3.923-3.74-6.39-6.09
			c-2.427-2.354-5.101-5.08-7.538-8.313c-2.417-3.182-4.704-7.036-5.032-11.164c-0.167-2.056,0.134-4.069,1.023-6.085
			c1.092-2.41,1.881-5.172,2.47-7.796c1.18-5.336,1.742-10.804,2.326-16.318c0.567-5.519,0.897-11.097,1.394-16.639
			c0.507-5.542,0.948-11.059,1.624-16.435c0.683-5.375,1.558-10.602,2.673-15.559c1.127-4.956,2.68-9.578,4.591-13.692
			c0.455-1.07,1.009-1.924,1.491-2.888c0.312-0.49,0.62-0.978,0.925-1.46l0.464-0.724c0.044-0.103,0.292-0.401,0.426-0.592
			c0.653-0.856,1.263-1.729,1.909-2.549c0.671-0.804,1.332-1.591,1.978-2.361c2.695-3.007,5.562-5.421,8.221-7.422
			c2.685-1.969,5.201-3.482,7.326-4.644c1.185-0.637,2.234-1.151,3.152-1.579c-0.536,0.538-1.081,1.061-1.609,1.615
			c-1.046,1.107-2.062,2.25-3.033,3.454c-0.49,0.586-0.939,1.23-1.387,1.865c-0.453,0.63-0.902,1.253-1.291,1.943
			c-0.853,1.297-1.478,2.769-2.027,4.209c-0.221,0.752-0.448,1.492-0.599,2.24c-0.088,0.775-0.17,1.531-0.218,2.273l1.032-1.97
			l1.235-1.776c0.894-1.124,1.87-2.141,2.908-3.108c0.485-0.5,1.043-0.951,1.594-1.4c0.548-0.455,1.083-0.907,1.676-1.32
			c1.115-0.88,2.296-1.703,3.469-2.536c4.735-3.309,9.734-6.476,14.478-10.437c1.194-0.973,2.321-2.053,3.49-3.146l1.733-1.813
			c0.607-0.625,0.982-1.148,1.484-1.727l0.708-0.85l0.182-0.23l0.074-0.076l0.145-0.156l0.285-0.314
			c0.387-0.391,0.708-0.932,1.125-1.219c0.41-0.296,0.778-0.702,1.188-0.943c0.423-0.184,0.801-0.504,1.221-0.643
			c0.826-0.301,1.656-0.557,2.611-0.486c0.925-0.03,1.965,0.217,3.021,0.516c1.055,0.405,2.142,0.859,3.208,1.496
			c1.03,0.587,2.171,1.423,2.951,2.053l0.316,0.284c4.642,3.364,9.385,6.602,14.227,9.716c2.419,1.557,4.894,3.048,7.373,4.53
			c1.229,0.756,2.514,1.44,3.769,2.163c1.261,0.714,2.55,1.395,3.854,2.056c-0.935-1.125-1.886-2.229-2.864-3.3
			c-0.984-1.062-1.939-2.16-2.949-3.19c-1.92-2.003-3.848-3.995-5.821-5.933c0.791,0.427,1.57,0.868,2.376,1.277
			c1.599,0.798,3.187,1.604,4.961,2.31c0.45,0.179,0.909,0.354,1.417,0.526c0.264,0.086,0.512,0.171,0.827,0.253
			c0.154,0.043,0.287,0.082,0.49,0.123l0.284,0.058c0.095,0.018,0.151,0.036,0.415,0.063c0.215,0.023,0.431,0.035,0.648,0.038
			l0.408-0.007l0.082-0.001l0.041-0.002h0.02l0.466-0.067l0.382-0.084l0.835-0.225l1.32-0.411l9.849-3.239
			c3.231-1.083,6.48-2.124,9.614-2.988c1.276-0.335,2.633-0.66,3.654-0.809c0.264,0.425,0.523,0.813,0.789,1.217
			c2.041,3.029,4.223,5.776,6.503,8.492c2.31,2.684,4.68,5.312,7.299,7.733c0.467,0.444,0.951,0.878,1.434,1.309
			c-4.091-1.311-8.196-2.532-12.349-3.57c-4.411-1.145-8.865-2.11-13.338-2.933c4.281,1.528,8.5,3.202,12.708,4.86
			c4.192,1.709,8.37,3.419,12.472,5.274c4.094,1.871,8.153,3.782,12.084,5.877c3.925,2.094,7.724,4.396,11.222,6.909
			c1.745,1.264,3.385,2.618,4.842,4.057c1.43,1.443,2.688,2.993,3.431,4.541c0.195,0.384,0.351,0.767,0.466,1.141
			c0.062,0.187,0.126,0.372,0.157,0.554l0.156,0.689l0.736,3.319c0.538,2.25,1.105,4.533,1.716,6.751
			c1.214,4.461,2.631,8.893,4.128,13.21c0.723,2.158,1.537,4.287,2.188,6.305c0.643,1.924,1.04,3.749,1.005,4.914L260.904,135.467z"
			/>
		<g id="XMLID_11_">
			<g>
				<path fill="#5A6064" d="M200.462,222.335c8.229,8.162,4.602,22.64,2.704,28.333c-3.057-1.948-8.481-3.661-13.738-4.988
					c0.453-0.521,0.89-1.041,1.31-1.562c1.981-2.469,3.543-5.224,4.921-7.995c1.36-2.771,2.469-5.659,3.393-8.565
					C199.606,225.828,200.076,224.099,200.462,222.335z"/>
				<path fill="#5A6064" d="M202.394,265.515c0.302,0.874-0.084,2.419-0.37,3.763c-0.319,1.394-0.739,2.788-1.176,4.182
					l-2.704,8.432c-0.47,1.394-0.957,2.805-1.478,4.198c-0.537,1.377-1.058,2.788-1.679,4.132c-1.226,2.704-2.704,5.308-4.434,7.709
					c-0.856,1.192-1.814,2.334-2.872,3.309c-0.991,0.924-2.149,1.78-3.191,1.948c-2.469-0.269-4.921-0.521-7.39-0.739
					c-1.797-0.151-3.611-0.269-5.425-0.403c1.058-3.594,2.083-7.205,2.922-10.866c1.041-4.3,1.897-8.649,2.603-13.033
					c0.688-4.383,1.26-8.8,1.394-13.284c0.067-2.234,0.084-4.468-0.168-6.719c-0.134-1.125-0.319-2.25-0.638-3.342
					c-0.067-0.252-0.151-0.521-0.252-0.772c2.217-0.823,4.316-1.932,6.248-3.275c0.974-0.688,1.915-1.411,2.771-2.184
					c1.612,1.311,3.208,2.637,4.753,4.015c2.217,1.981,4.4,3.997,6.416,6.13c1.008,1.075,1.965,2.184,2.788,3.325
					C201.319,263.181,202.125,264.39,202.394,265.515z"/>
				<path fill="#5A6064" d="M202.209,254.128c0.168,0.722,0.79,1.26,1.545,1.327c0.05,0.017,0.101,0.017,0.151,0.017
					c0.689,0,1.327-0.42,1.596-1.059c0.269-0.604,3.678-8.767,3.678-17.752c1.982,4.266,3.879,8.901,5.291,13.57
					c2.385,7.776,3.611,17.249,4.803,26.419c1.293,9.959,2.52,19.448,5.139,25.897l-36.378,0.605
					c0.269-0.286,0.537-0.571,0.789-0.84c0.991-1.21,1.864-2.452,2.704-3.729c1.646-2.536,3.107-5.173,4.602-7.793
					c1.478-2.62,2.956-5.257,4.283-7.978c1.36-2.722,2.536-5.526,3.426-8.448c0.437-1.461,0.823-2.939,1.125-4.468
					c0.151-0.772,0.269-1.562,0.336-2.385l0.017-0.639c0-0.269,0-0.486-0.017-0.654c-0.05-0.521-0.118-1.008-0.269-1.444
					c-0.554-1.764-1.512-3.057-2.502-4.283c-1.008-1.226-2.1-2.317-3.208-3.359c-2.25-2.082-4.635-3.946-7.087-5.693
					c-1.142-0.789-2.268-1.562-3.426-2.317C195.676,250.903,201.521,253.104,202.209,254.128z"/>
				<path fill="#DEEEFC" d="M175.001,254.833c0.588-0.168,1.192-0.336,1.764-0.537c0.05,0.235,0.084,0.453,0.117,0.688
					c0.135,1.059,0.151,2.133,0.118,3.208c-0.084,2.166-0.302,4.333-0.621,6.482c-0.672,4.3-1.512,8.583-2.452,12.865
					c-0.924,4.267-1.948,8.532-2.956,12.798c-0.79,3.242-1.545,6.517-2.334,9.758c-0.084-0.269-0.168-0.521-0.252-0.789
					c-0.504-1.629-0.823-3.358-1.209-5.055l-1.058-5.174l-1.024-5.189l-0.974-5.223l-1.948-10.464
					c-0.487-2.569-1.024-5.122-1.562-7.692c0.017,0,0.017,0,0.017,0c0.101-0.033,0.235-0.067,0.336-0.117
					c1.276-0.521,2.368-1.327,3.225-2.352c0.588-0.705,1.058-1.512,1.427-2.334C168.703,255.892,171.911,255.673,175.001,254.833z"
					/>
				<path fill="#C63235" d="M164,247.964c0.017,0.034,0.017,0.067,0.017,0.101L164,247.964z"/>
				<path fill="#C63235" d="M160.355,238.341c0.605-0.454,1.192-0.891,1.73-1.428c0.269-0.235,0.487-0.471,0.706-0.739
					c0.185-0.185,0.37-0.403,0.537-0.604c0.034,2.032,0.135,4.048,0.235,6.08c0.118,2.099,0.269,4.215,0.437,6.314
					c-0.05,1.344-0.168,2.704-0.437,3.947c-0.151,0.604-0.336,1.176-0.571,1.729c-0.655,1.696-1.864,2.905-3.309,3.443
					c-0.873,0.302-1.881,0.554-2.855,0.772c-0.974,0.185-1.965,0.403-2.973,0.554c-1.008,0.168-2.032,0.252-3.04,0.37
					c-1.024,0.134-2.066,0.201-3.09,0.252c-2.049,0.101-4.148,0.084-6.214,0l-3.174-0.151c-1.058-0.033-2.1-0.084-3.09-0.168
					c-1.965-0.185-3.863-0.688-5.224-2.032c-0.017,0-0.033-0.017-0.05-0.033c-0.688-0.655-1.176-1.528-1.478-2.469
					c-0.319-0.958-0.42-1.948-0.437-2.956v-0.018c0.437-1.981,0.907-3.963,1.428-5.929c0.437-1.612,0.923-3.225,1.36-4.837
					c0.067,0.051,0.134,0.067,0.185,0.067c1.024,0.336,2.049,0.639,3.107,0.873c1.445,0.37,2.906,0.655,4.384,0.857
					c1.209,0.134,2.418,0.285,3.661,0.336c0.269,0,0.538,0.017,0.823,0.017c0.235,0.017,0.504,0.017,0.739,0.017
					c1.26,0,2.502-0.017,3.762-0.135c3.006-0.218,6.013-0.822,8.834-1.965c0.705-0.285,1.394-0.621,2.065-0.974
					C159.079,239.197,159.717,238.761,160.355,238.341z"/>
				<path fill="#C63235" d="M159.785,260.813c0.101,2.553,0.218,5.105,0.42,7.658c0.285,3.561,0.655,7.104,1.125,10.632
					c0.218,1.78,0.487,3.544,0.773,5.307c0.302,1.764,0.571,3.527,0.957,5.291c0.706,3.51,1.629,7.003,3.006,10.43
					c0.37,0.856,0.739,1.713,1.276,2.569c0.151,0.235,0.319,0.471,0.504,0.706c0,0.033-0.017,0.05-0.017,0.066l-20.675,0.353
					c-1.377-0.117-2.738-0.218-4.098-0.302l-8.499-0.403c0.739-2.989,1.411-5.979,2.016-8.985c0.706-3.694,1.36-7.406,1.881-11.152
					c0.538-3.729,0.958-7.49,1.176-11.286c0.101-1.881,0.218-3.778,0.168-5.677c-0.034-1.394-0.084-2.788-0.269-4.165
					c0.554,0.101,1.142,0.185,1.73,0.252c2.167,0.235,4.35,0.336,6.533,0.387c2.2,0,4.417-0.084,6.617-0.42
					c1.092-0.168,2.184-0.353,3.292-0.622c0.688-0.201,1.377-0.386,2.065-0.638C159.785,260.813,159.785,260.813,159.785,260.813z"
					/>
				<path fill="#DEEEFC" d="M199.438,209.369c-0.588,2.838-1.327,5.677-2.15,8.431c-1.663,5.543-3.594,10.984-6.315,15.922
					c-1.344,2.469-2.922,4.787-4.619,6.953c-1.73,2.133-3.645,4.048-5.761,5.693c-2.133,1.612-4.501,2.923-7.037,3.83
					c-1.982,0.688-4.081,1.158-6.197,1.377c-0.135-1.479-0.302-2.923-0.454-4.384c-0.269-2.184-0.604-4.333-1.042-6.466
					c-0.42-2.15-1.007-4.267-1.747-6.349c-0.403-1.041-0.84-2.066-1.394-3.04c-0.302-0.487-0.638-0.957-1.008-1.377
					c-0.369-0.454-0.856-0.807-1.377-1.075c-0.118-0.051-0.252-0.033-0.319,0.067c-0.101,0.101-0.084,0.269,0.034,0.369l0.017,0.017
					c0.386,0.303,0.739,0.672,0.974,1.126c0.269,0.42,0.453,0.89,0.671,1.36c0.353,0.94,0.622,1.965,0.823,3.006
					c0.067,0.219,0.084,0.437,0.134,0.672c-0.386,0.235-0.756,0.487-1.142,0.688c-0.588,0.387-1.26,0.688-1.864,0.991
					c-1.293,0.571-2.637,1.024-3.98,1.377c-0.185,0.051-0.37,0.084-0.571,0.135c0.185-1.143,0.521-2.2,0.839-3.325l1.092-3.645
					l1.965-6.063c0.722,0.067,1.461,0.135,2.2,0.185l3.292,0.084c2.184-0.05,4.384-0.185,6.584-0.47
					c2.183-0.319,4.383-0.773,6.516-1.411c1.075-0.303,2.133-0.705,3.174-1.108c1.042-0.403,2.049-0.891,3.04-1.428
					c1.008-0.537,1.965-1.143,2.872-1.78c0.94-0.621,1.831-1.327,2.67-2.049c0.856-0.756,1.663-1.512,2.435-2.318
					c0.756-0.806,1.478-1.646,2.184-2.502c0.672-0.856,1.327-1.764,1.948-2.671c0.604-0.89,1.176-1.83,1.713-2.788
					c0.555-0.94,1.058-1.914,1.478-2.905c0.235-0.521,0.47-1.024,0.672-1.545c0.302,0.688,0.437,1.461,0.319,2.184
					C200.009,206.446,199.707,207.958,199.438,209.369z"/>
				<path fill="#000100" d="M154.528,238.71c-0.034-0.537-0.017-1.108,0.017-1.663c0.034-0.638,0.101-1.293,0.168-1.931
					c0.168-1.26,0.319-2.536,0.538-3.796c0.386-2.536,0.823-5.039,1.36-7.541c0.134-0.571,0.622-0.991,1.176-1.042l0.252-0.017
					c1.041-0.084,2.083-0.185,3.107-0.269l3.107-0.319l3.074-0.437c0.991-0.218,2.015-0.353,3.006-0.588
					c2.015-0.386,3.98-0.89,5.895-1.512c0.958-0.302,1.915-0.621,2.855-0.974c0.924-0.387,1.864-0.705,2.788-1.108
					c0.924-0.387,1.831-0.823,2.738-1.26c0.907-0.437,1.78-0.94,2.67-1.428c1.73-1.041,3.426-2.2,4.938-3.594
					c0.756-0.688,1.478-1.411,2.15-2.218c0.622-0.806,1.293-1.578,1.831-2.469c0.554-0.89,1.058-1.763,1.495-2.704l1.427,0.655
					c-0.42,0.991-0.923,1.965-1.478,2.905c-0.537,0.958-1.108,1.898-1.713,2.788c-0.622,0.907-1.276,1.814-1.948,2.671
					c-0.706,0.856-1.428,1.696-2.184,2.502c-0.772,0.807-1.579,1.563-2.435,2.318c-0.84,0.722-1.73,1.428-2.67,2.049
					c-0.907,0.638-1.864,1.243-2.872,1.78c-0.991,0.537-1.999,1.024-3.04,1.428c-1.041,0.403-2.099,0.806-3.174,1.108
					c-2.133,0.638-4.333,1.092-6.516,1.411c-2.2,0.285-4.4,0.42-6.584,0.47l-3.292-0.084c-0.739-0.05-1.478-0.117-2.2-0.185
					l-1.965,6.063l-1.092,3.645c-0.319,1.125-0.655,2.183-0.839,3.325L154.528,238.71z"/>
				<path fill="#DEEEFC" d="M108.106,259.67l-1.864-2.872c0.487,0.168,0.991,0.303,1.478,0.454c2.15,0.638,4.35,1.041,6.517,1.41
					c4.4,0.706,8.817,0.79,13.15,0.521h0.252c0.722-0.051,1.344-0.403,1.764-0.924c1.495,1.494,3.527,2.301,5.425,2.788
					c1.108,0.269,2.2,0.453,3.241,0.588c0.252,0.05,0.521,0.084,0.79,0.117c-0.084,1.394-0.202,2.788-0.42,4.182
					c-0.286,1.848-0.538,3.679-0.89,5.509c-0.706,3.679-1.461,7.34-2.234,10.984l-2.385,10.967l-1.344,6.383
					c-3.963-7.139-7.995-14.242-12.109-21.313l-7.49-12.579L108.106,259.67z"/>
				<path fill="#5A6064" d="M84.727,248.064c1.142-0.604,2.318-1.192,3.494-1.746c0.571,0.521,1.142,1.041,1.747,1.545
					c3.426,2.889,7.306,5.29,11.42,7.104c1.26,0.554,2.536,1.041,3.83,1.478c0.084,0.168,0.185,0.353,0.285,0.521l1.713,3.208
					l3.359,6.5l6.701,12.999l12.277,23.581l-3.426,0.319l-6.013,0.654l-0.252,0.034l-14.427,0.234
					c-1.024-0.588-2.032-1.293-3.023-2.032c-1.999-1.562-3.98-3.225-5.878-4.987c-1.898-1.764-3.729-3.595-5.542-5.476
					c-1.78-1.897-3.477-3.88-5.139-5.878c-1.646-2.032-3.225-4.099-4.736-6.231l-4.4-6.466c-1.444-2.15-2.855-4.351-4.35-6.483
					c-1.36-1.981-2.771-3.946-4.182-5.878c0.134-0.739,0.521-1.528,1.075-2.284c0.672-0.907,1.528-1.78,2.452-2.604
					c1.881-1.596,4.014-3.023,6.214-4.366C80.125,250.5,82.409,249.257,84.727,248.064z"/>
				<path fill="#000100" d="M138.808,224.283c0.789,0.05,1.394,0.604,1.562,1.31c0.89,3.493,1.646,7.021,2.334,10.548
					c0.201,0.957,0.369,1.931,0.504,2.905l-2.049,0.319c-0.302-0.856-0.588-1.73-0.873-2.587l-3.057-8.633
					c-1.192,0.118-2.401,0.202-3.594,0.252l-5.005,0.101c-1.679-0.017-3.359-0.134-5.021-0.201c-1.68-0.168-3.359-0.285-5.039-0.487
					c-1.663-0.302-3.326-0.47-4.988-0.856c-1.663-0.369-3.309-0.722-4.955-1.209c-1.646-0.437-3.258-1.041-4.871-1.612
					c-1.562-0.688-3.141-1.327-4.669-2.149c-1.528-0.756-2.973-1.696-4.417-2.62c-1.411-0.975-2.805-1.966-4.098-3.091
					c-1.31-1.108-2.586-2.25-3.745-3.51c-1.193-1.21-2.284-2.486-3.342-3.813c-1.058-1.327-1.999-2.721-2.939-4.115
					c-0.907-1.411-1.747-2.872-2.502-4.35c-0.772-1.495-1.495-3.007-2.083-4.568v-0.017l1.948-0.739
					c0.588,1.461,1.276,2.905,2.083,4.249c0.773,1.395,1.747,2.653,2.688,3.913c0.974,1.243,2.032,2.419,3.191,3.494
					c1.108,1.091,2.318,2.116,3.561,3.057c1.26,0.94,2.57,1.797,3.896,2.603c1.327,0.807,2.704,1.528,4.081,2.251
					c1.411,0.638,2.788,1.327,4.232,1.897c1.394,0.639,2.889,1.108,4.316,1.68c1.495,0.471,2.939,1.041,4.434,1.444
					c1.478,0.487,2.989,0.873,4.535,1.227c1.495,0.437,3.057,0.672,4.602,1.008c1.545,0.318,3.107,0.554,4.669,0.839l4.719,0.605
					l4.787,0.47c1.596,0.084,3.208,0.235,4.804,0.353L138.808,224.283z"/>
				<path fill="#DEEEFC" d="M138.892,239.163c-1.411-0.117-2.822-0.302-4.232-0.486c-0.958-0.118-1.965-0.27-2.922-0.42
					c0.353-0.94,0.806-1.831,1.36-2.671c0.302-0.403,0.622-0.806,0.94-1.176c0.353-0.369,0.756-0.688,1.176-0.99l0.017-0.018
					c0.118-0.084,0.168-0.269,0.101-0.42c-0.067-0.168-0.252-0.269-0.454-0.185c-0.521,0.202-1.042,0.437-1.528,0.756
					c-0.47,0.319-0.958,0.639-1.36,1.041c-0.857,0.79-1.579,1.68-2.234,2.638c-1.226,1.948-2.15,4.03-2.805,6.163
					c-0.672,2.167-1.192,4.333-1.528,6.533c-0.202,1.092-0.336,2.184-0.454,3.292l-0.05,0.487c-1.209-0.084-2.402-0.201-3.578-0.369
					c-1.981-0.319-3.93-0.605-5.845-1.075c-3.846-0.924-7.541-2.233-11.018-3.913c-3.51-1.68-6.751-3.813-9.758-6.215
					c-3.023-2.418-5.811-5.173-8.247-8.263c-4.971-6.13-8.582-13.402-11.521-20.943c-1.444-3.796-2.67-7.727-3.459-11.689
					c-0.101-0.487-0.168-1.024-0.218-1.428c-0.067-0.453-0.051-0.672,0.033-1.092c0.168-0.789,0.571-1.663,1.075-2.469
					c0.739-1.108,1.595-2.217,2.553-3.241c0.302,1.007,0.638,1.948,1.024,2.889v0.017c0.588,1.562,1.31,3.073,2.083,4.568
					c0.756,1.478,1.596,2.938,2.502,4.35c0.941,1.395,1.881,2.788,2.939,4.115c1.058,1.326,2.149,2.603,3.342,3.813
					c1.159,1.26,2.435,2.401,3.745,3.51c1.293,1.125,2.687,2.116,4.098,3.091c1.444,0.924,2.889,1.864,4.417,2.62
					c1.528,0.822,3.107,1.461,4.669,2.149c1.612,0.571,3.225,1.176,4.871,1.612c1.646,0.487,3.292,0.84,4.955,1.209
					c1.663,0.387,3.326,0.555,4.988,0.856c1.68,0.202,3.359,0.319,5.039,0.487c1.663,0.067,3.342,0.185,5.021,0.201l5.005-0.101
					c1.192-0.05,2.401-0.134,3.594-0.252l3.057,8.633c0.285,0.856,0.571,1.73,0.873,2.587
					C140.403,239.314,139.647,239.23,138.892,239.163z"/>
				<path fill="#5A6064" d="M68.839,206.614c0.319,2.587,0.806,5.156,1.411,7.726c1.948,8.397,5.56,16.477,10.682,23.698
					c1.075,1.478,2.234,2.939,3.426,4.316l0.017,0.017c-8.532,1.276-17.702,7.071-20.994,9.321
					c-4.887-5.089-11.824-13.318-12.361-16.728c0.017-1.108,2.184-6.164,3.342-8.885c1.344-3.124,2.032-4.787,2.184-5.627
					c1.142-6.953,8.868-11.94,12.277-13.839C68.822,206.614,68.822,206.614,68.839,206.614z"/>
				<path fill="#5A6064" d="M64.204,255.371c0.151-0.118,13.402-9.759,23.194-9.809c-1.092,0.369-2.183,0.739-3.275,1.125
					c-2.486,0.907-4.921,1.932-7.306,3.124c-2.385,1.192-4.719,2.536-6.886,4.232c-1.075,0.856-2.133,1.797-3.04,2.956
					c-0.89,1.159-1.696,2.62-1.814,4.384c-0.034,0.302,0.05,0.621,0.235,0.89l0.017,0.051c1.478,2.183,2.99,4.299,4.585,6.398
					c1.579,2.083,3.258,4.081,4.955,6.097c1.68,1.999,3.393,3.98,5.123,5.963c1.713,1.981,3.376,3.98,5.056,5.995l4.971,6.063
					c1.646,2.049,3.325,4.064,5.072,6.046c1.747,1.965,3.527,3.931,5.576,5.693l-61.084,0.991
					c5.979-11.118,14.881-44.087,17.803-55.239c2.217,2.485,4.047,4.367,4.535,4.854c0.336,0.336,0.789,0.521,1.243,0.521
					C63.532,255.707,63.884,255.589,64.204,255.371z"/>
				<path fill="#000100" d="M54.361,226.08c-1.159,2.721-3.325,7.776-3.342,8.885c0.538,3.409,7.474,11.639,12.361,16.728
					c3.292-2.25,12.462-8.045,20.994-9.321l-0.017-0.017c-1.192-1.377-2.351-2.839-3.426-4.316
					c-5.122-7.222-8.733-15.301-10.682-23.698c-0.604-2.569-1.091-5.139-1.411-7.726c-0.017,0-0.017,0-0.017,0
					c-3.41,1.898-11.135,6.886-12.277,13.839C56.394,221.293,55.705,222.956,54.361,226.08z M90.018,292.841l-4.971-6.063
					c-1.68-2.015-3.342-4.014-5.056-5.995c-1.73-1.982-3.443-3.964-5.123-5.963c-1.696-2.016-3.375-4.014-4.955-6.097
					c-1.595-2.1-3.107-4.216-4.585-6.398l-0.017-0.051c-0.185-0.269-0.269-0.588-0.235-0.89c0.118-1.764,0.924-3.225,1.814-4.384
					c0.907-1.159,1.965-2.1,3.04-2.956c2.167-1.696,4.501-3.04,6.886-4.232c2.385-1.192,4.82-2.217,7.306-3.124
					c1.092-0.386,2.183-0.756,3.275-1.125c-9.792,0.05-23.043,9.69-23.194,9.809c-0.319,0.218-0.672,0.336-1.042,0.336
					c-0.454,0-0.907-0.186-1.243-0.521c-0.487-0.486-2.318-2.368-4.535-4.854c-2.922,11.152-11.824,44.121-17.803,55.239
					l61.084-0.991c-2.049-1.763-3.829-3.729-5.576-5.693C93.343,296.905,91.664,294.89,90.018,292.841z M105.436,304.496
					l14.427-0.234l0.252-0.034l6.013-0.654l3.426-0.319l-12.277-23.581l-6.701-12.999l-3.359-6.5l-1.713-3.208
					c-0.101-0.168-0.201-0.353-0.285-0.521c-1.293-0.437-2.57-0.924-3.83-1.478c-4.115-1.814-7.994-4.216-11.42-7.104
					c-0.605-0.504-1.176-1.024-1.747-1.545c-1.176,0.554-2.352,1.142-3.494,1.746c-2.318,1.192-4.602,2.436-6.802,3.746
					c-2.2,1.343-4.333,2.771-6.214,4.366c-0.924,0.823-1.78,1.696-2.452,2.604c-0.554,0.756-0.94,1.545-1.075,2.284
					c1.411,1.932,2.821,3.896,4.182,5.878c1.495,2.133,2.906,4.333,4.35,6.483l4.4,6.466c1.512,2.133,3.09,4.199,4.736,6.231
					c1.663,1.998,3.359,3.98,5.139,5.878c1.814,1.881,3.645,3.712,5.542,5.476c1.898,1.763,3.879,3.426,5.878,4.987
					C103.403,303.203,104.411,303.908,105.436,304.496z M160.607,260.51c0.538,2.57,1.075,5.123,1.562,7.692l1.948,10.464
					l0.974,5.223l1.024,5.189l1.058,5.174c0.386,1.696,0.706,3.426,1.209,5.055c0.084,0.269,0.168,0.521,0.252,0.789
					c0.789-3.241,1.545-6.516,2.334-9.758c1.008-4.266,2.032-8.531,2.956-12.798c0.94-4.282,1.78-8.565,2.452-12.865
					c0.319-2.149,0.537-4.316,0.621-6.482c0.034-1.075,0.017-2.149-0.118-3.208c-0.033-0.235-0.067-0.453-0.117-0.688
					c-0.571,0.201-1.176,0.369-1.764,0.537c-3.09,0.84-6.298,1.059-9.389,0.874c-0.369,0.822-0.839,1.629-1.427,2.334
					c-0.857,1.024-1.948,1.831-3.225,2.352c-0.101,0.05-0.235,0.084-0.336,0.117C160.625,260.51,160.625,260.51,160.607,260.51z
					 M160.205,268.471c-0.202-2.553-0.319-5.105-0.42-7.658c0,0,0,0-0.017,0c-0.688,0.252-1.377,0.437-2.065,0.638
					c-1.108,0.27-2.2,0.454-3.292,0.622c-2.2,0.336-4.417,0.42-6.617,0.42c-2.184-0.051-4.367-0.151-6.533-0.387
					c-0.588-0.067-1.176-0.151-1.73-0.252c0.185,1.377,0.235,2.771,0.269,4.165c0.05,1.898-0.067,3.796-0.168,5.677
					c-0.218,3.796-0.638,7.558-1.176,11.286c-0.521,3.746-1.175,7.458-1.881,11.152c-0.604,3.007-1.276,5.996-2.016,8.985
					l8.499,0.403c1.36,0.084,2.721,0.185,4.098,0.302l20.675-0.353c0-0.017,0.017-0.033,0.017-0.066
					c-0.185-0.235-0.353-0.471-0.504-0.706c-0.537-0.856-0.907-1.713-1.276-2.569c-1.377-3.427-2.301-6.92-3.006-10.43
					c-0.386-1.764-0.655-3.527-0.957-5.291c-0.286-1.763-0.555-3.526-0.773-5.307C160.859,275.575,160.49,272.031,160.205,268.471z
					 M198.145,281.891l2.704-8.432c0.437-1.394,0.856-2.788,1.176-4.182c0.286-1.344,0.672-2.889,0.37-3.763
					c-0.269-1.125-1.075-2.334-1.881-3.477c-0.823-1.142-1.78-2.25-2.788-3.325c-2.015-2.133-4.199-4.148-6.416-6.13
					c-1.545-1.378-3.141-2.704-4.753-4.015c-0.856,0.772-1.797,1.495-2.771,2.184c-1.931,1.344-4.031,2.452-6.248,3.275
					c0.101,0.252,0.185,0.521,0.252,0.772c0.319,1.092,0.504,2.217,0.638,3.342c0.252,2.251,0.235,4.484,0.168,6.719
					c-0.134,4.484-0.706,8.901-1.394,13.284c-0.706,4.384-1.562,8.733-2.603,13.033c-0.84,3.661-1.864,7.272-2.922,10.866
					c1.813,0.135,3.627,0.252,5.425,0.403c2.469,0.219,4.921,0.471,7.39,0.739c1.042-0.168,2.2-1.024,3.191-1.948
					c1.058-0.975,2.016-2.116,2.872-3.309c1.73-2.401,3.208-5.005,4.434-7.709c0.621-1.344,1.142-2.755,1.679-4.132
					C197.188,284.695,197.674,283.284,198.145,281.891z M202.209,254.128c-0.688-1.024-6.533-3.225-13.402-5.005
					c1.159,0.756,2.284,1.528,3.426,2.317c2.452,1.747,4.837,3.611,7.087,5.693c1.108,1.042,2.2,2.134,3.208,3.359
					c0.991,1.227,1.948,2.52,2.502,4.283c0.151,0.437,0.218,0.924,0.269,1.444c0.017,0.168,0.017,0.386,0.017,0.654l-0.017,0.639
					c-0.067,0.823-0.185,1.612-0.336,2.385c-0.302,1.528-0.688,3.007-1.125,4.468c-0.89,2.922-2.066,5.727-3.426,8.448
					c-1.327,2.721-2.805,5.357-4.283,7.978c-1.495,2.62-2.956,5.257-4.602,7.793c-0.84,1.276-1.713,2.519-2.704,3.729
					c-0.252,0.269-0.521,0.554-0.789,0.84l36.378-0.605c-2.62-6.449-3.846-15.938-5.139-25.897
					c-1.192-9.17-2.418-18.643-4.803-26.419c-1.411-4.669-3.309-9.305-5.291-13.57c0,8.985-3.41,17.147-3.678,17.752
					c-0.269,0.639-0.907,1.059-1.596,1.059c-0.05,0-0.101,0-0.151-0.017C202.999,255.388,202.377,254.85,202.209,254.128z
					 M189.428,245.68c5.257,1.327,10.682,3.04,13.738,4.988c1.898-5.693,5.525-20.171-2.704-28.333
					c-0.386,1.764-0.856,3.493-1.411,5.223c-0.924,2.906-2.032,5.795-3.393,8.565c-1.377,2.771-2.939,5.526-4.921,7.995
					C190.318,244.639,189.881,245.159,189.428,245.68z M131.585,299.777l1.344-6.383l2.385-10.967
					c0.772-3.645,1.528-7.306,2.234-10.984c0.353-1.83,0.604-3.661,0.89-5.509c0.218-1.394,0.336-2.788,0.42-4.182
					c-0.269-0.033-0.538-0.067-0.79-0.117c-1.041-0.135-2.133-0.319-3.241-0.588c-1.898-0.487-3.93-1.294-5.425-2.788
					c-0.42,0.521-1.042,0.873-1.764,0.924h-0.252c-4.333,0.269-8.75,0.185-13.15-0.521c-2.167-0.369-4.367-0.772-6.517-1.41
					c-0.487-0.151-0.991-0.286-1.478-0.454l1.864,2.872l3.88,6.215l7.49,12.579C123.591,285.535,127.622,292.639,131.585,299.777z
					 M133.097,235.586c-0.554,0.84-1.008,1.73-1.36,2.671c0.957,0.15,1.965,0.302,2.922,0.42c1.411,0.185,2.821,0.369,4.232,0.486
					c0.755,0.067,1.511,0.151,2.267,0.202l2.049-0.319c0.033,0.151,0.067,0.319,0.084,0.487c1.343,0.066,2.704,0.101,4.064,0.066
					c2.419-0.05,4.82-0.269,7.172-0.772c0-0.033,0-0.084,0-0.117l0.588-0.017c0.201-0.051,0.386-0.084,0.571-0.135
					c1.344-0.353,2.688-0.806,3.98-1.377c0.604-0.303,1.276-0.604,1.864-0.991c0.386-0.201,0.756-0.453,1.142-0.688
					c-0.05-0.235-0.067-0.453-0.134-0.672c-0.202-1.041-0.47-2.065-0.823-3.006c-0.218-0.471-0.403-0.94-0.671-1.36
					c-0.235-0.454-0.588-0.823-0.974-1.126l-0.017-0.017c-0.118-0.101-0.134-0.269-0.034-0.369c0.067-0.101,0.202-0.118,0.319-0.067
					c0.521,0.269,1.008,0.621,1.377,1.075c0.37,0.42,0.706,0.89,1.008,1.377c0.554,0.974,0.991,1.999,1.394,3.04
					c0.739,2.082,1.327,4.198,1.747,6.349c0.437,2.133,0.773,4.282,1.042,6.466c0.151,1.461,0.319,2.905,0.454,4.384
					c2.116-0.219,4.215-0.688,6.197-1.377c2.536-0.907,4.904-2.218,7.037-3.83c2.116-1.646,4.031-3.561,5.761-5.693
					c1.696-2.166,3.275-4.484,4.619-6.953c2.721-4.938,4.652-10.379,6.315-15.922c0.823-2.754,1.562-5.593,2.15-8.431
					c0.269-1.411,0.571-2.923,0.672-4.232c0.118-0.723-0.017-1.495-0.319-2.184c-0.202,0.521-0.437,1.024-0.672,1.545l-1.427-0.655
					c0.42-0.923,0.789-1.931,1.024-2.854v-0.034c0.118-0.437,0.554-0.688,0.991-0.57c0.101,0.033,0.235,0.084,0.319,0.15
					c1.411,1.192,2.167,2.822,2.334,4.586c0.017,1.662-0.034,3.073-0.134,4.602c-0.134,2.032-0.319,4.048-0.588,6.063v0.018
					c1.646,2.485,11.336,17.567,16.174,33.422c2.452,8.045,3.711,17.669,4.921,26.973c1.427,11.035,2.788,21.448,5.929,27.226
					c0.285,0.521,0.285,1.176-0.017,1.696c-0.319,0.521-0.873,0.856-1.478,0.856l-104.717,1.729l-1.932,0.202l-12.059,1.058
					l-0.084,0.017c-0.117,0-0.252,0-0.353-0.017c-1.024-0.218-1.881-0.571-2.654-0.991l-69.028,1.126c-0.017,0-0.017,0-0.034,0
					c-0.688,0-1.327-0.403-1.596-1.042c-0.285-0.654-0.134-1.41,0.37-1.914c4.316-4.35,13.957-37.353,19.55-59.035
					c-3.326-4.03-6.584-8.649-7.054-11.706c-0.235-1.444,0.739-4.048,3.578-10.682c0.823-1.915,1.847-4.3,1.948-4.837
					c0.806-4.82,3.947-8.717,7.238-11.605c3.292-2.872,6.735-4.72,8.079-5.392c-0.067-0.437-0.084-0.84-0.118-1.26
					c-0.017-0.57-0.05-1.074-0.067-1.696c-0.017-0.604,0.101-1.41,0.319-1.998c0.42-1.227,1.075-2.2,1.73-3.107
					c1.344-1.813,2.872-3.292,4.518-4.77c0.453-0.403,1.125-0.37,1.528,0.084c0.134,0.15,0.218,0.336,0.252,0.521l0.017,0.033
					c0.269,1.444,0.756,3.007,1.31,4.468l-1.948,0.739c-0.386-0.94-0.722-1.882-1.024-2.889c-0.958,1.024-1.814,2.133-2.553,3.241
					c-0.504,0.806-0.907,1.68-1.075,2.469c-0.084,0.42-0.101,0.639-0.033,1.092c0.05,0.403,0.117,0.94,0.218,1.428
					c0.789,3.963,2.015,7.894,3.459,11.689c2.939,7.541,6.55,14.813,11.521,20.943c2.436,3.09,5.224,5.845,8.247,8.263
					c3.006,2.402,6.248,4.535,9.758,6.215c3.477,1.68,7.172,2.989,11.018,3.913c1.915,0.47,3.863,0.756,5.845,1.075
					c1.176,0.168,2.368,0.285,3.578,0.369l0.05-0.487c0.118-1.108,0.252-2.2,0.454-3.292c0.336-2.2,0.856-4.366,1.528-6.533
					c0.655-2.133,1.579-4.215,2.805-6.163c0.655-0.958,1.377-1.848,2.234-2.638c0.403-0.402,0.89-0.722,1.36-1.041
					c0.487-0.319,1.008-0.554,1.528-0.756c0.202-0.084,0.386,0.017,0.454,0.185c0.067,0.151,0.017,0.336-0.101,0.42l-0.017,0.018
					c-0.42,0.302-0.823,0.621-1.176,0.99C133.719,234.78,133.399,235.183,133.097,235.586z M134.138,241.38
					c-1.058-0.234-2.083-0.537-3.107-0.873c-0.05,0-0.118-0.017-0.185-0.067c-0.437,1.612-0.924,3.225-1.36,4.837
					c-0.521,1.966-0.991,3.947-1.428,5.929v0.018c0.017,1.008,0.118,1.998,0.437,2.956c0.302,0.94,0.79,1.813,1.478,2.469
					c0.017,0.017,0.034,0.033,0.05,0.033c1.36,1.344,3.258,1.848,5.224,2.032c0.991,0.084,2.032,0.135,3.09,0.168l3.174,0.151
					c2.066,0.084,4.166,0.101,6.214,0c1.024-0.051,2.066-0.118,3.09-0.252c1.008-0.118,2.032-0.202,3.04-0.37
					c1.008-0.15,1.999-0.369,2.973-0.554c0.974-0.219,1.982-0.471,2.855-0.772c1.445-0.538,2.654-1.747,3.309-3.443
					c0.235-0.554,0.419-1.125,0.571-1.729c0.269-1.243,0.386-2.604,0.437-3.947l0.017,0.101c0-0.033,0-0.066-0.017-0.101
					c-0.168-2.1-0.319-4.216-0.437-6.314c-0.101-2.032-0.202-4.048-0.235-6.08c-0.167,0.201-0.353,0.42-0.537,0.604
					c-0.218,0.269-0.437,0.504-0.706,0.739c-0.538,0.537-1.125,0.974-1.73,1.428c-0.638,0.42-1.276,0.856-1.948,1.192
					c-0.672,0.353-1.36,0.688-2.065,0.974c-2.822,1.143-5.828,1.747-8.834,1.965c-1.26,0.118-2.502,0.135-3.762,0.135
					c-0.235,0-0.504,0-0.739-0.017c-0.286,0-0.554-0.017-0.823-0.017c-1.243-0.051-2.452-0.202-3.661-0.336
					C137.044,242.035,135.583,241.75,134.138,241.38z"/>
			</g>
		</g>
		<g>
			
				<linearGradient id="SVGID_4_" gradientUnits="userSpaceOnUse" x1="152.4668" y1="-664.8604" x2="164.0703" y2="-664.8604" gradientTransform="matrix(0.8554 -0.518 0.518 0.8554 285.6286 690.3441)">
				<stop  offset="0" style="stop-color:#D26F31"/>
				<stop  offset="0.1426" style="stop-color:#D4772F"/>
				<stop  offset="0.3788" style="stop-color:#DA8B27"/>
				<stop  offset="0.5521" style="stop-color:#E09D1B"/>
				<stop  offset="0.8652" style="stop-color:#E5C51C"/>
				<stop  offset="0.9944" style="stop-color:#BF7022"/>
			</linearGradient>
			<path fill="url(#SVGID_4_)" d="M81.878,48.112c1.799-1.12,1.594-8.322,1.594-8.322l-7.581-4.197
				c0.548-0.995,0.565-2.242-0.066-3.285c-0.938-1.548-2.952-2.044-4.499-1.107c-1.55,0.94-2.045,2.956-1.108,4.503
				c0.645,1.063,1.792,1.627,2.951,1.576l0.377,8.521C73.546,45.8,80.04,49.25,81.878,48.112z"/>
			<path fill="#000100" d="M82.137,48.559c-2.003,1.214-7.712-1.704-8.835-2.3c-0.161-0.085-0.264-0.253-0.272-0.437l-0.356-8.038
				c-1.19-0.106-2.271-0.774-2.9-1.811c-1.082-1.793-0.508-4.13,1.285-5.218c1.788-1.082,4.128-0.508,5.21,1.283
				c0.61,1.009,0.715,2.243,0.295,3.331l7.161,3.964c0.158,0.09,0.258,0.26,0.268,0.439c0.033,1.253,0.115,7.563-1.844,8.778
				L82.137,48.559z M74.049,45.479c2.59,1.339,6.485,2.839,7.551,2.194l0.269,0.441l-0.266-0.444
				c1.028-0.642,1.406-4.71,1.356-7.572l-7.322-4.055c-0.249-0.138-0.341-0.451-0.202-0.702c0.478-0.866,0.456-1.926-0.052-2.767
				c-0.788-1.301-2.492-1.719-3.791-0.932c-1.304,0.789-1.721,2.491-0.932,3.79c0.521,0.863,1.473,1.375,2.481,1.329
				c0.287-0.012,0.528,0.21,0.542,0.495L74.049,45.479z"/>
			
				<linearGradient id="SVGID_6_" gradientUnits="userSpaceOnUse" x1="185.9727" y1="-664.8599" x2="197.5776" y2="-664.8599" gradientTransform="matrix(0.8554 -0.518 0.518 0.8554 285.6286 690.3441)">
				<stop  offset="0" style="stop-color:#D26F31"/>
				<stop  offset="0.1426" style="stop-color:#D4772F"/>
				<stop  offset="0.3788" style="stop-color:#DA8B27"/>
				<stop  offset="0.5521" style="stop-color:#E09D1B"/>
				<stop  offset="0.8652" style="stop-color:#E5C51C"/>
				<stop  offset="0.9944" style="stop-color:#BF7022"/>
			</linearGradient>
			<path fill="url(#SVGID_6_)" d="M110.318,30.888c1.865-1.101,1.814-8.457,1.814-8.457l-7.374-4.28
				c0.581-1.003,0.611-2.283-0.03-3.345c-0.938-1.547-2.957-2.042-4.504-1.104c-1.551,0.938-2.045,2.953-1.107,4.5
				c0.631,1.042,1.749,1.603,2.883,1.578l0.205,8.663C102.206,28.443,108.494,31.963,110.318,30.888z"/>
			<path fill="#000100" d="M110.597,31.323c-0.002,0-0.012,0.007-0.015,0.01c-1.983,1.17-7.535-1.825-8.627-2.437
				c-0.163-0.089-0.264-0.256-0.268-0.439l-0.195-8.184c-1.158-0.131-2.209-0.793-2.819-1.802c-1.084-1.791-0.509-4.13,1.281-5.214
				c1.794-1.086,4.13-0.511,5.216,1.28c0.628,1.04,0.717,2.303,0.264,3.405l6.959,4.041c0.157,0.092,0.257,0.263,0.259,0.446
				C112.659,23.7,112.6,30.11,110.597,31.323z M102.718,28.135c2.511,1.37,6.293,2.923,7.34,2.305l0.272,0.441l-0.269-0.444
				c1.066-0.645,1.54-4.791,1.553-7.704l-7.117-4.133c-0.25-0.145-0.333-0.461-0.187-0.709c0.506-0.874,0.495-1.951-0.026-2.816
				c-0.791-1.3-2.492-1.717-3.794-0.93c-1.299,0.787-1.715,2.488-0.928,3.789c0.508,0.84,1.44,1.348,2.426,1.328
				c0.286-0.005,0.521,0.22,0.53,0.506L102.718,28.135z"/>
			
				<linearGradient id="SVGID_8_" gradientUnits="userSpaceOnUse" x1="137.936" y1="-664.6055" x2="212.1089" y2="-664.6055" gradientTransform="matrix(0.8554 -0.518 0.518 0.8554 285.6286 690.3441)">
				<stop  offset="0" style="stop-color:#D26F31"/>
				<stop  offset="0.1426" style="stop-color:#D4772F"/>
				<stop  offset="0.3788" style="stop-color:#DA8B27"/>
				<stop  offset="0.5521" style="stop-color:#E09D1B"/>
				<stop  offset="0.8652" style="stop-color:#E5C51C"/>
				<stop  offset="0.9944" style="stop-color:#BF7022"/>
			</linearGradient>
			<path fill="url(#SVGID_8_)" d="M114.299,8.122c-1.502,0.246-3.069-0.417-3.903-1.798c-1.099-1.813-0.52-4.172,1.294-5.27
				c1.814-1.099,4.174-0.519,5.27,1.294c1.098,1.814,0.519,4.171-1.295,5.27c0,0,10.271,24.109,9.719,30.489l-22.042,13.349
				L81.297,64.808C75.39,62.336,58.78,42.066,58.78,42.066c-1.813,1.099-4.171,0.519-5.267-1.296
				c-1.099-1.812-0.52-4.171,1.294-5.27c1.813-1.097,4.173-0.519,5.27,1.296c0.835,1.379,0.695,3.078-0.217,4.292l0.338,0.188
				c2.561,1.509,19.339,11.193,23.53,8.653c4.663-2.824-0.835-30.079-0.835-30.079l-0.015-0.044
				c-2.125,0.698-4.532-0.128-5.741-2.124c-1.409-2.324-0.663-5.347,1.662-6.756c2.319-1.405,5.344-0.663,6.751,1.663
				c1.209,1.996,0.828,4.509-0.779,6.07l0.035,0.034c0,0,21.603,17.501,26.267,14.678c4.138-2.508,3.408-21.383,3.244-24.738
				L114.299,8.122z"/>
			<path fill="#000100" d="M125.654,38.55l-44.087,26.7c-0.143,0.087-0.316,0.101-0.471,0.034
				c-5.611-2.345-20.194-19.836-22.447-22.559c-1.989,0.938-4.415,0.24-5.582-1.686c-1.245-2.054-0.585-4.737,1.468-5.98
				c2.057-1.244,4.738-0.587,5.985,1.468c0.823,1.36,0.838,3.026,0.075,4.383c7.063,4.145,19.659,10.519,22.866,8.576
				c3.144-1.902,1.167-18.212-0.976-29.035c-2.253,0.488-4.573-0.487-5.792-2.5c-1.553-2.563-0.731-5.912,1.837-7.468
				c2.559-1.551,5.911-0.728,7.463,1.838c1.22,2.011,1.012,4.52-0.467,6.288c8.598,6.915,22.134,16.223,25.278,14.318
				c2.801-1.696,3.524-13.391,2.997-24.238c-1.558,0.049-3.026-0.734-3.848-2.096c-1.249-2.054-0.587-4.737,1.464-5.982
				c2.059-1.244,4.738-0.585,5.985,1.469c1.163,1.925,0.663,4.4-1.096,5.727c1.375,3.258,10.117,24.288,9.595,30.347
				C125.885,38.317,125.793,38.467,125.654,38.55z M81.261,64.224l43.622-26.418c0.246-6.558-9.593-29.749-9.695-29.983
				c-0.102-0.238-0.015-0.514,0.207-0.646c1.566-0.948,2.066-2.993,1.12-4.559c-0.948-1.565-2.992-2.069-4.558-1.121
				c-1.563,0.949-2.068,2.995-1.12,4.56c0.707,1.166,2.032,1.774,3.38,1.555c0.145-0.024,0.298,0.015,0.412,0.108
				c0.115,0.097,0.186,0.236,0.19,0.387l0.018,0.509c0.254,5.257,0.763,22.621-3.497,25.201
				c-4.833,2.927-24.622-12.903-26.862-14.718c-0.015-0.017-0.031-0.029-0.044-0.044l-0.034-0.034
				c-0.2-0.204-0.195-0.531,0.011-0.731c1.478-1.434,1.763-3.668,0.696-5.431c-1.258-2.075-3.966-2.741-6.038-1.486
				c-2.076,1.258-2.742,3.968-1.488,6.041c1.07,1.765,3.181,2.545,5.136,1.902c0.133-0.044,0.275-0.033,0.4,0.029
				c0.122,0.064,0.215,0.174,0.258,0.307l0.011,0.043c0.006,0.018,0.012,0.036,0.017,0.054c0.569,2.826,5.43,27.697,0.595,30.625
				c-4.288,2.599-19.505-5.96-24.064-8.646l-0.326-0.184c-0.131-0.072-0.222-0.198-0.256-0.345c-0.026-0.147,0.003-0.299,0.095-0.42
				c0.818-1.089,0.892-2.547,0.185-3.713c-0.946-1.565-2.99-2.066-4.556-1.12c-1.568,0.949-2.068,2.993-1.12,4.561
				c0.944,1.562,2.991,2.067,4.558,1.119c0.222-0.133,0.507-0.086,0.671,0.114C59.347,41.936,75.335,61.404,81.261,64.224z"/>
			
				<linearGradient id="SVGID_10_" gradientUnits="userSpaceOnUse" x1="149.0615" y1="-637.9321" x2="201.3691" y2="-637.9321" gradientTransform="matrix(0.8554 -0.518 0.518 0.8554 285.6286 690.3441)">
				<stop  offset="0" style="stop-color:#D26F31"/>
				<stop  offset="0.1426" style="stop-color:#D4772F"/>
				<stop  offset="0.3788" style="stop-color:#DA8B27"/>
				<stop  offset="0.5521" style="stop-color:#E09D1B"/>
				<stop  offset="0.8652" style="stop-color:#E5C51C"/>
				<stop  offset="0.9944" style="stop-color:#BF7022"/>
			</linearGradient>
			<path fill="url(#SVGID_10_)" d="M128.835,42.693c0.307,0.507,0.146,1.166-0.361,1.473L85.567,70.151
				c-0.507,0.307-1.168,0.144-1.475-0.363l-2.824-4.664c-0.307-0.505-0.148-1.165,0.359-1.473l42.911-25.985
				c0.507-0.307,1.165-0.146,1.471,0.361L128.835,42.693z"/>
			<path fill="#000100" d="M128.742,44.61L85.834,70.594c-0.751,0.454-1.73,0.215-2.185-0.536l-2.828-4.665
				c-0.455-0.751-0.211-1.731,0.54-2.187l42.91-25.984c0.748-0.454,1.729-0.213,2.183,0.536l2.826,4.666
				C129.734,43.174,129.493,44.156,128.742,44.61z M81.899,64.094c-0.261,0.157-0.348,0.499-0.187,0.761l2.826,4.665
				c0.158,0.263,0.5,0.348,0.76,0.19l42.91-25.987c0.259-0.157,0.343-0.5,0.185-0.762l-2.826-4.665
				c-0.161-0.261-0.499-0.343-0.76-0.187L81.899,64.094z"/>
		</g>
	</g>
</g>
</svg>
