<?xml version="1.0" encoding="utf-8"?>
<!-- Generator: Adobe Illustrator 16.0.0, SVG Export Plug-In . SVG Version: 6.00 Build 0)  -->
<!DOCTYPE svg PUBLIC "-//W3C//DTD SVG 1.1//EN" "http://www.w3.org/Graphics/SVG/1.1/DTD/svg11.dtd">
<svg version="1.1" id="Capa_1" xmlns="http://www.w3.org/2000/svg" xmlns:xlink="http://www.w3.org/1999/xlink" x="0px" y="0px"
	 width="300px" height="300px" viewBox="0 0 300 300" enable-background="new 0 0 300 300" xml:space="preserve">
<pattern  x="-320" y="-320" width="45.033" height="44.192" patternUnits="userSpaceOnUse" id="Nueva_muestra_de_motivo_4" viewBox="0 -44.192 45.033 44.192" overflow="visible">
	<g>
		<polygon fill="none" points="0,0 45.033,0 45.033,-44.192 0,-44.192 		"/>
		<polygon fill="#C63337" points="45.033,0 0,0 0,-44.192 45.033,-44.192 		"/>
		<g>
			<polygon fill="#D5793C" points="5.433,-32.542 11.752,-32.542 11.752,-38.861 5.433,-38.861 			"/>
			<polygon fill="#D5793C" points="13.115,-32.542 19.435,-32.542 19.435,-38.861 13.115,-38.861 			"/>
			<polygon fill="#D5793C" points="5.433,-24.831 11.752,-24.831 11.752,-31.15 5.433,-31.15 			"/>
			<polygon fill="#D5793C" points="13.115,-24.831 19.435,-24.831 19.435,-31.15 13.115,-31.15 			"/>
		</g>
		<g>
			<polygon fill="#D5793C" points="25.599,-32.542 31.918,-32.542 31.918,-38.861 25.599,-38.861 			"/>
			<polygon fill="#D5793C" points="33.281,-32.542 39.601,-32.542 39.601,-38.861 33.281,-38.861 			"/>
			<polygon fill="#D5793C" points="25.599,-24.831 31.918,-24.831 31.918,-31.15 25.599,-31.15 			"/>
			<polygon fill="#D5793C" points="33.281,-24.831 39.601,-24.831 39.601,-31.15 33.281,-31.15 			"/>
		</g>
		<g>
			<polygon fill="#D5793C" points="5.433,-13.042 11.752,-13.042 11.752,-19.361 5.433,-19.361 			"/>
			<polygon fill="#D5793C" points="13.115,-13.042 19.435,-13.042 19.435,-19.361 13.115,-19.361 			"/>
			<polygon fill="#D5793C" points="5.433,-5.331 11.752,-5.331 11.752,-11.65 5.433,-11.65 			"/>
			<polygon fill="#D5793C" points="13.115,-5.331 19.435,-5.331 19.435,-11.65 13.115,-11.65 			"/>
		</g>
		<g>
			<polygon fill="#D5793C" points="25.599,-13.042 31.918,-13.042 31.918,-19.361 25.599,-19.361 			"/>
			<polygon fill="#D5793C" points="33.281,-13.042 39.601,-13.042 39.601,-19.361 33.281,-19.361 			"/>
			<polygon fill="#D5793C" points="25.599,-5.331 31.918,-5.331 31.918,-11.65 25.599,-11.65 			"/>
			<polygon fill="#D5793C" points="33.281,-5.331 39.601,-5.331 39.601,-11.65 33.281,-11.65 			"/>
		</g>
	</g>
</pattern>
<g>
	<defs>
		<rect id="SVGID_17_" width="300" height="300"/>
	</defs>
	<clipPath id="SVGID_2_">
		<use xlink:href="#SVGID_17_"  overflow="visible"/>
	</clipPath>
	<g clip-path="url(#SVGID_2_)">
		<path fill="#BAD9D3" d="M0,0v300h300V0H0z M269.511,63.179c-0.067,0.487-0.185,0.84-0.287,1.158
			c-0.436,1.277-0.922,2.117-1.427,3.006c-1.981,3.427-4.265,6.282-6.617,9.138c-1.159,1.378-2.47,2.872-3.595,4.08
			c-1.244,1.445-2.1,2.57-3.14,4.048c-2.034,2.821-3.982,5.812-5.862,8.834l-5.644,9.138l-2.821,4.603
			c-0.638,0.974-1.208,1.98-1.881,2.988c0.487,1.412,0.824,2.755,1.158,4.131c0.705,2.958,1.276,5.997,1.73,9.054
			c0.471,3.056,0.805,6.13,0.958,9.237c0.1,3.123,0.202,6.215-0.939,9.59c-0.22,0.622-0.522,1.276-0.942,1.931
			c0.102,0.135,0.184,0.285,0.286,0.438c0.471,0.754,0.907,1.511,1.311,2.267c0.42,0.756,0.74,1.545,1.091,2.284
			c0.436,0.975,0.823,1.931,1.141,2.821c0.269-0.017,0.555-0.033,0.893-0.051c1.108-0.033,2.099,0.521,2.67,1.378l0.151,0.218
			c0.689,1.042,1.292,1.981,1.898,2.99c0.589,0.99,1.16,1.981,1.714,2.99c1.125,1.997,2.182,4.046,3.139,6.146
			c1.965,4.166,3.645,8.499,4.955,13c0.654,2.25,1.176,4.551,1.596,6.903c0.403,2.334,0.706,4.719,0.772,7.154
			c0.067,1.209,0.035,2.452-0.018,3.679c-0.049,1.226-0.151,2.469-0.334,3.712c-0.202,1.225-0.403,2.468-0.756,3.693
			c-0.285,1.227-0.723,2.436-1.159,3.645c-0.738,2.066-3.005,3.141-5.071,2.419c-0.151-0.067-0.286-0.118-0.437-0.186l-0.085-0.049
			l-2.972-1.496l-1.142-0.554c-0.991,1.024-2.067,2.117-3.293,3.242c-1.611,1.478-3.359,3.09-5.424,4.601
			c-1.025,0.774-2.082,1.547-3.259,2.301c-1.125,0.724-2.568,1.462-3.761,2.083c-2.603,1.294-5.375,2.251-8.297,2.872
			c-2.905,0.622-5.911,0.84-8.883,0.958c-1.102,0.036-2.199,0.029-3.296,0.023l-0.706,7.877l-22.273,16.835l-28.267,12.929
			l-0.312-0.103l-56.221-18.551l-4.669-28.06c-0.044-0.082-0.1-0.152-0.143-0.236c-0.479-1.07-0.842-2.253-0.9-3.48
			c-0.044-1.217,0.113-2.432,0.483-3.527c0.363-1.095,0.901-2.07,1.47-2.939c1.076-1.581,2.324-2.783,3.507-3.697
			c-0.658,0.03-1.319,0.036-1.991-0.013c-0.318-0.033-0.638-0.151-0.873-0.353c-0.471-0.387-0.823-0.705-1.194-1.058
			c-0.386-0.354-0.722-0.722-1.057-1.093c-0.672-0.756-1.312-1.528-1.883-2.334c-0.587-0.807-1.125-1.663-1.627-2.52
			c-0.489-0.874-0.941-1.763-1.329-2.67c-0.234-0.454-0.385-0.941-0.571-1.395c-0.167-0.471-0.353-0.941-0.487-1.41
			c-0.302-0.958-0.571-1.932-0.756-2.906c-0.234-0.975-0.318-1.965-0.469-2.955c-0.051-0.337-0.069-0.689-0.085-1.042
			c-1.342-0.051-2.703-0.067-4.03-0.067c-0.958,0-1.983,0.051-2.958,0.084l-0.754,0.017l-0.302,0.018l-0.354,0.017l-1.459,0.135
			c-1.981,0.185-3.982,0.369-6.013,0.471c-2.05,0.116-4.081,0.184-6.282-0.019c-0.555-0.049-1.109-0.116-1.73-0.234
			c-0.605-0.135-1.242-0.269-2.065-0.722c-0.236-0.151-0.42-0.236-0.706-0.487c-0.319-0.252-0.705-0.79-0.705-0.823l-0.051-0.067
			l-0.035-0.051l-0.184-0.369v-0.017l-0.016-0.034l-0.085-0.218l-0.167-0.471c-0.185-0.62-0.336-1.26-0.403-1.863
			c-0.302-2.469,0.067-4.702,0.554-6.785c0.504-2.1,1.176-4.064,1.881-5.962c0.638-1.747,1.343-3.494,1.831-5.057
			c0-0.017,0-0.033-0.017-0.05c-0.034-0.102-0.1-0.236-0.218-0.387c-0.185-0.302-0.605-0.638-1.041-0.958l-0.773-0.469l-0.873-0.403
			c-0.64-0.219-1.259-0.487-1.983-0.654c-0.688-0.186-1.376-0.371-2.117-0.487c-0.722-0.151-1.46-0.27-2.182-0.337
			c-0.74-0.102-1.445-0.201-2.285-0.252l-2.436-0.168c-2.014-0.201-3.628-0.654-5.324-1.192c-0.84-0.285-1.663-0.589-2.552-0.99
			c-0.22-0.102-0.471-0.236-0.705-0.353c-0.286-0.169-0.758-0.454-0.824-0.521l-0.436-0.336l-0.438-0.286
			c-0.654-0.42-1.58-0.99-2.468-1.981c-0.941-0.974-1.578-2.603-1.612-3.997c-0.035-1.394,0.302-2.486,0.638-3.493
			c0.202-0.471,0.404-0.939,0.604-1.378l0.688-1.26c0.051-0.083,0.102-0.15,0.151-0.234l0.085-0.102
			c1.712-2.148,3.408-4.383,4.988-6.616c0.789-1.125,1.563-2.25,2.252-3.375c0.469-0.757,0.938-1.58,1.276-2.269
			c-0.185-0.135-0.371-0.251-0.554-0.369c-1.076-0.673-2.285-1.327-3.477-1.933l-0.891-0.452l-0.117-0.051l-0.285-0.151
			l-0.236-0.134l-0.469-0.27l-1.848-1.074l-3.712-2.183c-1.227-0.757-2.452-1.513-3.677-2.336c-1.243-0.821-2.437-1.595-3.813-2.805
			c-0.286-0.234-0.993-0.956-1.311-1.545c-0.302-0.555-0.604-1.176-0.755-1.998c-0.152-0.79-0.134-1.73,0.117-2.52
			c0.218-0.772,0.571-1.428,0.907-1.897c0.705-1.009,1.361-1.579,1.981-2.134l1.73-1.444l6.282-5.476l3.661-3.225
			c-2.554-2.4-5.055-4.853-7.507-7.49c-0.823-0.891-1.63-1.798-2.452-2.821c-0.403-0.503-0.805-1.041-1.225-1.73
			c-0.118-0.201-0.22-0.336-0.338-0.587c-0.116-0.252-0.216-0.353-0.42-0.992c-0.065-0.218-0.151-0.62-0.167-0.705l-0.033-0.218
			l-0.035-0.453V78.73l0.018-0.15v-0.302c0.049-0.84,0.184-1.73,0.52-2.654c0.32-0.907,0.84-1.83,1.51-2.587
			c1.378-1.545,3.108-2.268,4.586-2.704l0.184-0.033l0.069-0.018c1.394-0.285,2.87-0.622,4.281-0.956
			c1.446-0.353,2.857-0.724,4.251-1.144c1.376-0.401,2.736-0.856,3.963-1.359c0.252-0.102,0.521-0.219,0.756-0.337l-0.503-0.855
			l-2.034-3.241c-1.376-2.201-2.805-4.419-4.199-6.736c-0.688-1.157-1.36-2.35-2.014-3.66c-0.318-0.673-0.64-1.344-0.941-2.251
			l-0.118-0.387l-0.133-0.555l-0.051-0.267l-0.017-0.118v-0.135l-0.017-0.051c0-0.084-0.034-0.336-0.016-0.353
			c-0.069-1.059,0.334-2.15,0.805-2.855c1.009-1.411,2.049-1.914,2.905-2.334c0.874-0.42,1.68-0.654,2.47-0.84
			c1.578-0.386,3.057-0.521,4.517-0.587c2.923-0.118,5.728,0.15,8.5,0.621c0.654,0.116,1.443,0.268,2.048,0.402l1.898,0.42
			c1.158,0.252,2.301,0.419,3.257,0.454c0.303,0,0.607-0.017,0.807-0.035c0.017-0.353,0-0.889-0.049-1.51
			c-0.053-0.639-0.118-1.361-0.118-2.201l0.016-0.722l0.033-0.521c0.016-0.151,0.034-0.437,0.034-0.738
			c0.017-1.26-0.018-2.705,0.202-4.333c0.135-0.84,0.302-1.713,0.738-2.737c0.236-0.522,0.538-1.059,0.991-1.612
			c0.472-0.538,1.076-1.076,1.814-1.411c1.479-0.739,2.939-0.638,3.948-0.42c0.991,0.184,2.1,0.671,2.536,0.889l3.61,1.865
			c1.161,0.587,2.287,1.16,3.412,1.714c2.267,1.074,4.533,2.032,6.7,2.568c1.058,0.253,2.099,0.388,2.905,0.32
			c0.203,0,0.387-0.034,0.554-0.067c0.169-0.051,0.338-0.084,0.338-0.084s0.065-0.034,0.134-0.051
			c0.017-0.017,0.017-0.034,0.033-0.051c0.469-0.756,1.075-2.049,1.798-3.308c0.369-0.639,0.789-1.327,1.394-2.049
			c0.62-0.688,1.376-1.596,2.972-2.117c0.167-0.067,0.503-0.135,0.754-0.168l0.203-0.032h0.2l0.051-0.019h0.353l0.354,0.035
			l0.334,0.049l0.236,0.051c0.334,0.067,0.587,0.151,0.805,0.218c0.235,0.086,0.42,0.169,0.622,0.253
			c0.754,0.318,1.378,0.638,1.998,0.958l3.477,1.88c2.234,1.21,4.484,2.368,6.634,3.107c1.042,0.337,2.134,0.605,2.888,0.571
			c0.387,0.016,0.656-0.051,0.807-0.118c0.065-0.017,0.049-0.017,0,0.018c-0.017,0.033-0.069,0.101,0.118-0.067l0.151-0.118h0.016
			l0.049-0.051l0.035-0.032c0.016-0.017,0.034-0.034,0.051-0.034v-0.017c0.016-0.017,0.033-0.017,0.033-0.017l0.353-0.336
			c1.26-1.142,3.039-2.133,4.971-2.369c1.932-0.234,3.73,0.169,5.189,0.74c2.939,1.142,5.141,2.754,7.341,4.231
			c2.182,1.496,4.181,2.889,6.38,4.082c0.538,0.318,1.092,0.604,1.614,0.873c0.167,0.084,0.351,0.167,0.52,0.252
			c0.017-0.018,0.035-0.034,0.051-0.051c0.974-0.874,2.116-1.243,2.956-1.394c0.907-0.167,1.663-0.202,2.486-0.202
			c0.571,0,1.595,0.017,2.434,0.219c1.73,0.387,3.192,1.176,4.435,2.066c2.485,1.813,4.265,3.98,5.911,6.129
			c0.823,1.076,1.596,2.167,2.352,3.208c0.754,1.025,1.529,2.1,2.183,2.788c0.016,0.017,0.051,0.052,0.067,0.067
			c0.672-0.1,1.276-0.134,1.897-0.167c1.411-0.051,2.805,0,4.199,0.133c1.411,0.135,2.823,0.354,4.299,0.823
			c0.74,0.236,1.512,0.538,2.303,1.058c0.42,0.286,0.754,0.522,1.225,1.093c0.32,0.403,0.202,0.269,0.455,0.673l0.251,0.486
			c0.52,1.023,1.008,2.015,1.494,2.973c0.202-0.202,0.42-0.388,0.64-0.588c3.004-2.419,6.314-3.931,10.024-4.804
			c0.941-0.201,1.916-0.353,3.092-0.369c0.605,0.017,1.26,0.017,2.25,0.335c0.536,0.22,1.159,0.42,1.948,1.294
			c0.369,0.437,0.705,1.025,0.822,1.646c0.085,0.319,0.118,0.604,0.102,0.857c0.017,0.251-0.016,0.587-0.049,0.756
			c-0.252,1.059-0.287,0.905-0.371,1.158l-0.218,0.57l-0.487,1.177l-0.941,2.25l-3.71,8.801c-0.135,0.353-0.286,0.722-0.438,1.074
			c1.208,0.689,2.352,1.596,3.243,2.756c0.974,1.241,1.61,2.703,1.93,4.164c0.671,2.923,0.202,5.778,0.1,8.18
			c0,0.319-0.016,0.437,0.035,0.823c0,0,0.034,0.202,0.134,0.369c0.202,0.387,0.571,0.823,0.974,1.243
			c0.84,0.823,1.831,1.612,2.855,2.334c1.494,1.058,3.058,2.05,4.668,2.955c0.605-0.722,1.21-1.443,1.831-2.165l7.003-8.214
			l7.138-8.096c2.403-2.719,4.753-5.391,7.291-8.061c1.343-1.344,2.501-2.754,4.115-4.048c1.529-1.242,3.074-2.334,4.668-3.376
			c3.225-2.049,6.534-3.896,10.513-5.071c1.009-0.285,2.067-0.538,3.259-0.656c1.176-0.1,2.537-0.135,4.131,0.438
			c0.403,0.184,0.807,0.334,1.192,0.604l0.304,0.201l0.15,0.102c0.269,0.235,0.386,0.353,0.437,0.402l0.033,0.034
			c0.069,0.084-0.033-0.084,0.371,0.437c0.253,0.369,0.504,0.923,0.571,1.227c0.118,0.437,0.167,0.956,0.151,1.226
			C269.595,62.708,269.562,62.961,269.511,63.179z"/>
		<path fill="#FFFFFF" d="M157.391,119.544l23.652-39.469l8.539-15.815l11.757-6.018l3.359,2.798l-5.458,12.737l-3.221,11.195
			l-1.817,9.799l-2.099,11.756l-2.1,6.577l-0.98,6.439l-2.088,8.817C186.933,128.361,175.901,134.917,157.391,119.544z"/>
		<polygon fill="#FFFFFF" points="236.677,144.473 238.986,128.711 236.677,113.49 236.047,110.608 231.849,112.336 
			228.174,119.158 223.451,124.407 221.466,126.114 220.128,127.366 218.384,128.75 216.15,130.494 212.934,133.531 213.469,135.05 
			216.464,137.642 223.344,140.813 228.08,143.003 		"/>
		<path fill="#FFFFFF" d="M198.098,120.975l29.762-32.362l14.276-16.795l12.806-8.397l9.657-1.68v5.248l-9.447,11.337
			l-15.746,27.292l-5.878,4.991l-4.724,7.501c0,0-5.294,6.831-7.63,8.859c-1.679,1.46-15.77,0.178-18.238-0.923
			C202.936,126.046,198.114,122.726,198.098,120.975z"/>
		<g id="XMLID_10_">
			<g>
				<path fill="url(#Nueva_muestra_de_motivo_4)" d="M246.839,305.208h-23.564c0.309-13.185-6.305-65.972-8.066-77.46
					c5.192,3.544,18.28,13.353,21.958,24.034c2.194,6.399,3.461,14.578,4.682,22.506
					C243.177,282.887,244.444,299.648,246.839,305.208z"/>
				<path fill="#413833" d="M211.793,235.575c0.371-0.924,0.726-1.848,1.051-2.788c2.349,15.737,7.695,61.42,7.355,72.421H198.18
					c-0.263-14.276-3.06-43.517-4.002-50.05c0.649-0.285,1.298-0.588,1.947-0.907c1.19-0.655,2.364-1.36,3.461-2.184
					c1.097-0.822,2.163-1.696,3.152-2.67c1.004-0.94,1.932-1.982,2.813-3.04c0.881-1.075,1.669-2.233,2.426-3.393
					c0.742-1.176,1.437-2.385,2.086-3.611C210.696,238.128,211.268,236.852,211.793,235.575z"/>
				<path fill="url(#Nueva_muestra_de_motivo_4)" d="M174.77,232.148l4.729-0.353c1.916-0.201,3.801-0.537,5.702-0.722l2.813-0.571
					c0.231-0.051,0.463-0.101,0.695-0.135c0.711-0.134,1.421-0.234,2.117-0.47l2.797-0.756c0.927-0.235,1.824-0.622,2.75-0.94
					c0.912-0.319,1.823-0.639,2.704-1.092c0.881-0.42,1.808-0.772,2.658-1.26l2.581-1.512c0.819-0.588,1.653-1.159,2.473-1.78
					c0.757-0.688,1.576-1.31,2.302-2.065c0.711-0.739,1.453-1.479,2.086-2.335c0.325-0.403,0.634-0.806,0.943-1.242
					c-0.108,0.621-0.216,1.276-0.309,1.881c-0.448,2.519-1.066,5.021-1.792,7.457c-0.742,2.452-1.592,4.837-2.611,7.121
					c-0.51,1.142-1.082,2.233-1.638,3.342c-0.587,1.092-1.19,2.15-1.854,3.175c-0.665,1.008-1.36,1.998-2.102,2.938
					s-1.499,1.864-2.333,2.688c-0.803,0.856-1.684,1.629-2.596,2.352c-0.896,0.739-1.87,1.344-2.843,1.998
					c-0.989,0.555-1.994,1.126-3.06,1.546c-0.525,0.252-1.066,0.453-1.607,0.621c-0.557,0.168-1.082,0.403-1.653,0.537l-1.685,0.438
					c-0.556,0.117-1.128,0.185-1.7,0.302c-0.649,0.135-1.298,0.185-1.962,0.235c-0.093-1.209-0.232-2.419-0.386-3.611
					c-0.232-1.83-0.556-3.661-0.958-5.492c-0.417-1.813-0.943-3.61-1.653-5.341c-0.371-0.856-0.788-1.713-1.329-2.485
					c-0.263-0.387-0.572-0.756-0.927-1.058c-0.34-0.336-0.772-0.605-1.143-0.756h-0.016c-0.093-0.051-0.216-0.018-0.278,0.084
					l-1.483-0.438L174.77,232.148z"/>
				<path fill="#000100" d="M179.499,231.796l-4.729,0.353l-0.572,2.301l-1.561,6.198l-1.144,4.635
					c-0.216,0.772-0.355,1.512-0.525,2.268c-0.062,0.353-0.201,0.807-0.216,1.041c-0.031,0.286-0.093,0.555-0.139,0.823
					l-0.108,0.504c-0.17,0.807-0.726,1.411-1.406,1.629c-2.194,0.688-4.419,1.327-6.629,1.948c-1.762,0.504-3.508,1.024-5.269,1.479
					c0.015,1.764,0.046,3.526,0.031,5.307c-0.031,2.335-0.016,4.652-0.077,6.987c-0.078,4.669-0.248,9.338-0.572,14.007
					c0,0.135-0.124,0.235-0.248,0.235c-0.108-0.017-0.201-0.101-0.216-0.219c-0.68-4.635-1.189-9.271-1.622-13.906
					c-0.248-2.317-0.402-4.636-0.603-6.953c-0.201-2.317-0.324-4.652-0.479-6.97c-0.077-0.924,0.464-1.747,1.236-2.016l0.139-0.051
					c1.73-0.604,3.477-1.158,5.223-1.713l0.68-0.218c0.231-0.067,0.448-0.151,0.68-0.219c1.777-0.571,3.569-1.142,5.362-1.663
					c0.093-0.453,0.186-0.738,0.278-1.125c0.216-0.806,0.433-1.629,0.68-2.401c0.464-1.563,0.974-3.091,1.53-4.602
					c1.066-3.058,2.225-6.03,3.399-9.036l0.031-0.101c0.201-0.521,0.68-0.823,1.159-0.79l5.594,0.252
					c0.942,0,1.87-0.084,2.797-0.134c0.942-0.051,1.87-0.101,2.797-0.185l2.766-0.471c0.232-0.051,0.464-0.084,0.696-0.117
					l0.247,1.494c-0.232,0.034-0.464,0.084-0.695,0.135l-2.813,0.571C183.3,231.259,181.415,231.595,179.499,231.796z"/>
				<path fill="url(#Nueva_muestra_de_motivo_4)" d="M117.736,255.695c1.73,0.823,3.492,1.579,5.3,2.167
					c1.792,0.672,3.647,1.058,5.47,1.528c1.839,0.336,3.678,0.705,5.532,0.84c1.854,0.235,3.693,0.336,5.547,0.353
					c1.839,0.05,3.678-0.101,5.501-0.151h0.248c1.251-0.117,2.194-1.293,2.101-2.653l-0.092-1.243l-0.046-1.31
					c-0.031-0.874-0.031-1.747,0-2.62c0.077-1.764,0.201-3.511,0.51-5.224c0.324-1.68,0.726-3.376,1.453-4.888
					c0.695-1.528,1.73-2.871,3.137-3.829l0.015-0.017c0.108-0.067,0.17-0.235,0.124-0.369c-0.031-0.151-0.155-0.252-0.294-0.252
					l-0.216-3.359c0.819-0.051,1.653-0.101,2.473-0.185c0.927,2.317,1.87,4.669,2.75,7.004c0.525,1.394,1.082,2.787,1.561,4.182
					c0.232,0.705,0.495,1.411,0.711,2.116c0.201,0.638,0.355,1.226,0.494,1.897c-1.746,0.555-3.492,1.108-5.223,1.713l-0.139,0.051
					c-0.772,0.269-1.313,1.092-1.236,2.016c0.155,2.317,0.278,4.652,0.479,6.97c0.201,2.317,0.355,4.636,0.603,6.953
					c0.433,4.636,0.942,9.271,1.622,13.906c0.016,0.118,0.108,0.202,0.216,0.219c0.124,0,0.248-0.101,0.248-0.235
					c0.324-4.669,0.494-9.338,0.572-14.007c0.062-2.335,0.046-4.652,0.077-6.987c0.016-1.78-0.016-3.543-0.031-5.307
					c1.761-0.454,3.507-0.975,5.269-1.479c2.209-0.621,4.435-1.26,6.629-1.948c0.68-0.218,1.236-0.822,1.406-1.629l0.108-0.504
					c0.046-0.269,0.108-0.537,0.139-0.823c0.016-0.234,0.155-0.688,0.216-1.041c0.17-0.756,0.309-1.495,0.525-2.268l1.144-4.635
					l1.561-6.198l1.483,0.438c-0.077,0.117-0.046,0.269,0.062,0.353c0.371,0.269,0.633,0.537,0.865,0.873
					c0.247,0.319,0.448,0.688,0.618,1.075c0.371,0.756,0.633,1.596,0.834,2.436c0.417,1.696,0.633,3.459,0.803,5.239
					c0.17,1.764,0.232,3.561,0.278,5.341s0.046,3.595-0.016,5.324l-0.015,0.084c0,0.975,0.726,1.764,1.623,1.764h0.077
					c1.282,0,2.581,0.117,3.878-0.017c0.649-0.051,1.298-0.084,1.947-0.168l1.947-0.303c0.649-0.084,1.282-0.318,1.931-0.47
					c0.232-0.051,0.464-0.118,0.696-0.185c0.989,6.986,3.616,35.27,3.878,48.975h-73.97c-0.34-6.248-1.684-37.403-4.311-50
					L117.736,255.695z"/>
				<path fill="url(#Nueva_muestra_de_motivo_4)" d="M146.786,234.887c1.468-0.067,2.952-0.067,4.419-0.151
					c0.278-0.017,0.541-0.034,0.819-0.067l0.216,3.359c-0.031,0-0.046,0-0.077,0.017c-0.865,0.252-1.715,0.655-2.472,1.226
					c-0.773,0.555-1.453,1.26-2.055,2.016c-1.19,1.545-2.086,3.325-2.75,5.156s-1.174,3.729-1.499,5.644
					c-0.17,0.957-0.324,1.914-0.433,2.889l-0.016,0.15c-1.02-0.066-2.024-0.168-3.028-0.318c-1.7-0.252-3.399-0.437-5.068-0.807
					c-1.685-0.285-3.307-0.806-4.945-1.192c-1.607-0.537-3.245-0.991-4.79-1.646c-1.592-0.555-3.106-1.327-4.636-2.032l-2.225-1.176
					l-2.163-1.311c-1.422-0.924-2.828-1.864-4.157-2.938c-0.695-0.504-1.329-1.075-1.962-1.646
					c-0.665-0.554-1.283-1.158-1.885-1.764c-0.633-0.587-1.221-1.226-1.792-1.881c-0.603-0.621-1.159-1.31-1.715-1.981
					c-1.112-1.36-2.132-2.805-3.121-4.283c-0.989-1.478-1.87-3.057-2.75-4.618c-0.865-1.596-1.684-3.225-2.426-4.888
					c-1.514-3.342-2.766-6.886-3.584-10.48c-0.093-0.437-0.186-0.923-0.248-1.276c-0.077-0.537-0.093-0.604-0.031-0.94
					c0.139-0.638,0.495-1.344,1.004-2.082c0.726-1.008,1.607-1.982,2.55-2.855c0.34,1.058,0.772,2.032,1.236,3.023
					c0.155,0.336,0.325,0.688,0.51,1.024c0.541,1.074,1.159,2.116,1.792,3.157c1.684,2.671,3.646,5.14,5.825,7.39
					c1.097,1.108,2.225,2.184,3.415,3.208c1.174,1.024,2.411,1.948,3.678,2.855c1.282,0.873,2.58,1.729,3.94,2.452
					c1.329,0.772,2.704,1.444,4.11,2.065c1.406,0.588,2.813,1.176,4.265,1.612c1.422,0.504,2.89,0.84,4.342,1.227
					c1.468,0.336,2.936,0.588,4.419,0.873c1.468,0.201,2.951,0.42,4.419,0.571c1.483,0.117,2.967,0.269,4.435,0.302
					C143.835,234.803,145.303,234.92,146.786,234.887z"/>
				<path fill="#000100" d="M146.987,229.948c1.421,0.151,2.843,0.319,4.265,0.42c1.421,0.084,2.843,0.219,4.28,0.353l0.263,0.018
					c0.649,0.05,1.174,0.537,1.344,1.176c0.834,2.922,1.561,5.861,2.225,8.834c0.34,1.478,0.618,2.973,0.881,4.484
					c0.124,0.756,0.247,1.512,0.324,2.301c0.078,0.621,0.124,1.293,0.124,1.932l-0.68,0.218c-0.139-0.672-0.293-1.26-0.494-1.897
					c-0.216-0.705-0.479-1.411-0.711-2.116c-0.479-1.395-1.035-2.788-1.561-4.182c-0.881-2.335-1.824-4.687-2.75-7.004
					c-0.819,0.084-1.654,0.134-2.473,0.185c-0.278,0.033-0.541,0.051-0.819,0.067c-1.468,0.084-2.951,0.084-4.419,0.151
					c-1.483,0.033-2.951-0.084-4.435-0.118c-1.468-0.033-2.952-0.185-4.435-0.302c-1.468-0.151-2.951-0.37-4.419-0.571
					c-1.483-0.285-2.952-0.537-4.419-0.873c-1.453-0.387-2.92-0.723-4.342-1.227c-1.452-0.437-2.858-1.024-4.265-1.612
					c-1.406-0.621-2.781-1.293-4.11-2.065c-1.36-0.723-2.658-1.579-3.94-2.452c-1.267-0.907-2.503-1.831-3.678-2.855
					c-1.19-1.024-2.318-2.1-3.415-3.208c-2.179-2.25-4.141-4.719-5.825-7.39c-0.634-1.041-1.252-2.083-1.792-3.157l1.638-0.94
					c0.51,0.99,1.097,1.948,1.73,2.854c0.834,1.227,1.808,2.335,2.797,3.393c0.51,0.538,1.036,1.042,1.561,1.546
					c0.556,0.453,1.097,0.94,1.668,1.377c1.128,0.89,2.318,1.713,3.539,2.436c1.221,0.738,2.473,1.394,3.74,2.015
					c1.282,0.588,2.565,1.159,3.878,1.663c1.298,0.537,2.642,0.94,3.956,1.411c1.329,0.42,2.658,0.856,4.018,1.209
					c1.329,0.42,2.688,0.739,4.048,1.092c2.72,0.688,5.486,1.243,8.283,1.696c1.391,0.218,2.781,0.487,4.188,0.655L146.987,229.948z
					"/>
				<path fill="url(#Nueva_muestra_de_motivo_4)" d="M83.201,226.354c3.971,8.465,10.43,63.502,9.766,78.854H42.345
					c0.85-3.158,1.437-17.669,1.885-28.502l0.093-1.914c0.185-3.729,4.064-26.134,12.037-37.252
					c5.393-7.524,14.123-10.044,20.319-10.833c0.155-0.033,0.309-0.051,0.464-0.067C79.894,226.304,82.088,226.304,83.201,226.354z"
					/>
				<path fill="#413833" d="M84.066,222.223c1.391-0.185,3.013-0.269,4.775-0.269c1.066,0,1.993,0.033,2.688,0.067
					c0.201,0.806,0.433,1.612,0.665,2.401c0.541,1.915,1.283,3.779,2.024,5.627c0.772,1.847,1.668,3.627,2.642,5.374
					c0.989,1.729,2.055,3.426,3.214,5.038c0.572,0.807,1.159,1.612,1.808,2.368c0.618,0.772,1.236,1.546,1.916,2.268
					c0.665,0.739,1.344,1.461,2.055,2.133c0.711,0.688,1.421,1.378,2.179,1.999c1.468,1.31,3.044,2.502,4.667,3.577
					c0.139,0.084,0.278,0.168,0.417,0.269c2.951,10.766,4.527,45.146,4.898,52.133H96.057c0.587-16.124-5.902-73.697-10.646-81.373
					c-0.015-0.033-0.031-0.05-0.046-0.084c-0.031-0.05-0.077-0.117-0.124-0.168C84.87,223.012,84.452,222.559,84.066,222.223z"/>
				<path fill="#000100" d="M44.323,274.792l-0.093,1.914c-0.448,10.833-1.036,25.344-1.885,28.502h50.621
					c0.665-15.352-5.794-70.389-9.766-78.854c-1.113-0.051-3.307-0.051-6.057,0.285c-0.155,0.017-0.309,0.034-0.464,0.067
					c-6.196,0.789-14.927,3.309-20.319,10.833C48.387,248.658,44.508,271.063,44.323,274.792z M246.839,305.208
					c-2.395-5.56-3.662-22.321-4.991-30.92c-1.221-7.928-2.488-16.106-4.682-22.506c-3.678-10.682-16.766-20.49-21.958-24.034
					c1.761,11.488,8.375,64.275,8.066,77.46H246.839z M198.18,305.208h22.019c0.34-11.001-5.006-56.684-7.355-72.421
					c-0.325,0.94-0.68,1.864-1.051,2.788c-0.525,1.276-1.097,2.553-1.73,3.778c-0.649,1.227-1.345,2.436-2.086,3.611
					c-0.757,1.159-1.545,2.317-2.426,3.393c-0.881,1.058-1.808,2.1-2.813,3.04c-0.989,0.974-2.055,1.848-3.152,2.67
					c-1.097,0.823-2.271,1.528-3.461,2.184c-0.649,0.319-1.298,0.622-1.947,0.907C195.121,261.691,197.917,290.932,198.18,305.208z
					 M118.014,305.208c-0.371-6.987-1.947-41.367-4.898-52.133c-0.139-0.101-0.278-0.185-0.417-0.269
					c-1.623-1.075-3.199-2.268-4.667-3.577c-0.757-0.621-1.468-1.311-2.179-1.999c-0.711-0.672-1.391-1.394-2.055-2.133
					c-0.68-0.722-1.298-1.495-1.916-2.268c-0.649-0.756-1.236-1.562-1.808-2.368c-1.159-1.612-2.225-3.309-3.214-5.038
					c-0.974-1.747-1.87-3.527-2.642-5.374c-0.742-1.848-1.483-3.712-2.024-5.627c-0.232-0.789-0.463-1.596-0.665-2.401
					c-0.695-0.034-1.623-0.067-2.688-0.067c-1.762,0-3.384,0.084-4.775,0.269c0.386,0.336,0.804,0.789,1.174,1.36
					c0.046,0.051,0.093,0.118,0.124,0.168c0.016,0.034,0.031,0.051,0.046,0.084c4.744,7.676,11.234,65.249,10.646,81.373H118.014z
					 M149.691,239.27c0.757-0.57,1.607-0.974,2.472-1.226c0.031-0.017,0.046-0.017,0.077-0.017c0.139,0,0.263,0.101,0.294,0.252
					c0.046,0.134-0.016,0.302-0.124,0.369l-0.015,0.017c-1.406,0.958-2.441,2.301-3.137,3.829c-0.727,1.512-1.128,3.208-1.453,4.888
					c-0.309,1.713-0.433,3.46-0.51,5.224c-0.031,0.873-0.031,1.746,0,2.62l0.046,1.31l0.092,1.243
					c0.093,1.36-0.85,2.536-2.101,2.653h-0.248c-1.823,0.051-3.662,0.201-5.501,0.151c-1.854-0.017-3.693-0.117-5.547-0.353
					c-1.854-0.135-3.693-0.504-5.532-0.84c-1.823-0.471-3.678-0.856-5.47-1.528c-1.808-0.588-3.569-1.344-5.3-2.167l-0.927-0.487
					c2.627,12.597,3.971,43.752,4.311,50h73.97c-0.263-13.705-2.89-41.988-3.878-48.975c-0.232,0.066-0.464,0.134-0.696,0.185
					c-0.649,0.151-1.282,0.386-1.931,0.47l-1.947,0.303c-0.649,0.084-1.298,0.117-1.947,0.168c-1.298,0.134-2.596,0.017-3.878,0.017
					h-0.077c-0.896,0-1.623-0.789-1.623-1.764l0.015-0.084c0.062-1.729,0.062-3.544,0.016-5.324s-0.108-3.577-0.278-5.341
					c-0.17-1.78-0.386-3.543-0.803-5.239c-0.201-0.84-0.464-1.68-0.834-2.436c-0.17-0.387-0.371-0.756-0.618-1.075
					c-0.232-0.336-0.495-0.604-0.865-0.873c-0.108-0.084-0.139-0.235-0.062-0.353c0.062-0.102,0.186-0.135,0.278-0.084h0.016
					c0.371,0.15,0.803,0.42,1.143,0.756c0.355,0.302,0.665,0.671,0.927,1.058c0.541,0.772,0.958,1.629,1.329,2.485
					c0.71,1.73,1.236,3.527,1.653,5.341c0.402,1.831,0.726,3.662,0.958,5.492c0.154,1.192,0.293,2.402,0.386,3.611
					c0.665-0.051,1.313-0.101,1.962-0.235c0.572-0.117,1.144-0.185,1.7-0.302l1.685-0.438c0.571-0.134,1.097-0.369,1.653-0.537
					c0.541-0.168,1.082-0.369,1.607-0.621c1.066-0.42,2.07-0.991,3.06-1.546c0.973-0.654,1.947-1.259,2.843-1.998
					c0.912-0.723,1.792-1.495,2.596-2.352c0.834-0.823,1.592-1.747,2.333-2.688s1.437-1.931,2.102-2.938
					c0.664-1.024,1.267-2.083,1.854-3.175c0.556-1.108,1.128-2.2,1.638-3.342c1.02-2.284,1.87-4.669,2.611-7.121
					c0.726-2.436,1.344-4.938,1.792-7.457c0.093-0.604,0.201-1.26,0.309-1.881c-0.309,0.437-0.618,0.839-0.943,1.242
					c-0.633,0.856-1.375,1.596-2.086,2.335c-0.726,0.756-1.545,1.377-2.302,2.065c-0.819,0.621-1.653,1.192-2.473,1.78l-2.581,1.512
					c-0.85,0.487-1.777,0.84-2.658,1.26c-0.881,0.453-1.792,0.772-2.704,1.092c-0.927,0.318-1.823,0.705-2.75,0.94l-2.797,0.756
					c-0.695,0.235-1.406,0.336-2.117,0.47l-0.247-1.494c0.695-0.118,1.375-0.235,2.055-0.471l2.689-0.789
					c0.912-0.235,1.746-0.706,2.611-1.042c0.865-0.353,1.73-0.705,2.534-1.192c0.819-0.486,1.653-0.89,2.426-1.444
					c0.773-0.554,1.545-1.074,2.271-1.662c0.711-0.639,1.422-1.243,2.102-1.881c0.618-0.706,1.298-1.344,1.87-2.1
					c0.572-0.739,1.159-1.461,1.638-2.284c0.51-0.756,0.927-1.596,1.344-2.419c0.371-0.789,0.757-1.746,0.912-2.401
					c0.263-1.059,1.267-1.696,2.256-1.411c0.201,0.051,0.402,0.151,0.557,0.269c0.525,0.387,0.788,0.639,1.112,1.025
					c0.309,0.353,0.587,0.755,0.804,1.209c0.216,0.403,0.433,0.99,0.556,1.612c0.077,0.336,0.046,0.386,0.093,0.588l0.016,0.252
					l0.015,0.05v0.034l0.016,0.252v0.185c-0.062,1.612-0.186,2.889-0.371,4.3c-0.201,1.427-0.433,2.854-0.726,4.266
					c3.585,2.301,20.289,13.57,24.816,26.788c2.302,6.701,3.584,15.049,4.836,23.127c1.499,9.708,2.92,18.878,5.841,23.664
					c0.324,0.504,0.355,9.741,0.077,10.279c-0.263,0.554-0.788,0.89-1.36,0.89H39.502c-0.85,0-1.545-0.756-1.545-1.68
					c0-0.738,0.448-9.942,1.066-10.161c0.665-1.142,1.53-5.677,2.132-20.171l0.077-1.931c0.201-4.064,4.142-27.242,12.687-39.167
					c5.825-8.111,14.803-11.018,21.479-12.008c0.17-0.588,0.463-1.143,0.881-1.63c1.823-2.133,6.042-3.225,12.563-3.225
					c0.695,0,1.344,0.018,1.9,0.034c-0.386-1.965-0.695-3.947-0.896-5.963c-0.031-0.521-0.077-0.974-0.108-1.595
					c-0.046-0.42-0.015-1.327,0.216-1.932c0.402-1.21,1.082-2.1,1.7-2.872c1.298-1.545,2.72-2.771,4.234-3.964
					c0.448-0.336,1.066-0.235,1.375,0.252c0.077,0.117,0.124,0.235,0.154,0.369l0.016,0.034c0.278,1.344,0.819,2.805,1.421,4.148
					c0.155,0.336,0.325,0.672,0.495,1.008l-1.638,0.94c-0.186-0.336-0.355-0.688-0.51-1.024c-0.463-0.991-0.896-1.966-1.236-3.023
					c-0.943,0.873-1.824,1.848-2.55,2.855c-0.51,0.738-0.865,1.444-1.004,2.082c-0.062,0.336-0.046,0.403,0.031,0.94
					c0.062,0.354,0.155,0.84,0.248,1.276c0.819,3.595,2.07,7.139,3.584,10.48c0.742,1.663,1.561,3.292,2.426,4.888
					c0.881,1.562,1.762,3.141,2.75,4.618c0.989,1.479,2.009,2.923,3.121,4.283c0.557,0.672,1.113,1.36,1.715,1.981
					c0.572,0.655,1.159,1.294,1.792,1.881c0.603,0.605,1.221,1.21,1.885,1.764c0.633,0.571,1.267,1.143,1.962,1.646
					c1.329,1.074,2.735,2.015,4.157,2.938l2.163,1.311l2.225,1.176c1.53,0.705,3.044,1.478,4.636,2.032
					c1.545,0.654,3.183,1.108,4.79,1.646c1.638,0.387,3.26,0.907,4.945,1.192c1.669,0.37,3.369,0.555,5.068,0.807
					c1.004,0.15,2.009,0.252,3.028,0.318l0.016-0.15c0.108-0.975,0.263-1.932,0.433-2.889c0.325-1.915,0.834-3.813,1.499-5.644
					s1.561-3.611,2.75-5.156C148.239,240.529,148.918,239.824,149.691,239.27z"/>
			</g>
		</g>
		<path fill="#808080" stroke="#000100" stroke-width="0.5" stroke-miterlimit="10" d="M116.353,278.438H96.841
			c-3.667,0-6.654,3.346-6.654,7.458v0.43c0,4.111,2.987,7.458,6.654,7.458h19.512c3.669,0,6.654-3.347,6.654-7.458v-0.43
			C123.006,281.784,120.021,278.438,116.353,278.438z M120.398,286.326c0,2.504-1.812,4.535-4.046,4.535H96.841
			c-2.233,0-4.046-2.031-4.046-4.535v-0.43c0-2.505,1.813-4.533,4.046-4.533h19.512c2.234,0,4.046,2.028,4.046,4.533V286.326z"/>
		<path fill="#808080" stroke="#000100" stroke-width="0.5" stroke-miterlimit="10" d="M218.335,278.438h-19.51
			c-3.667,0-6.654,3.346-6.654,7.458v0.43c0,4.111,2.987,7.458,6.654,7.458h19.51c3.67,0,6.656-3.347,6.656-7.458v-0.43
			C224.991,281.784,222.006,278.438,218.335,278.438z M222.383,286.326c0,2.504-1.813,4.535-4.048,4.535h-19.51
			c-2.234,0-4.046-2.031-4.046-4.535v-0.43c0-2.505,1.813-4.533,4.046-4.533h19.51c2.235,0,4.048,2.028,4.048,4.533V286.326z"/>
		<ellipse fill="#4E4D4D" cx="163.062" cy="263.985" rx="3.464" ry="4.845"/>
		<g>
			<path fill="#000100" d="M166.526,263.992c0,0,0,0.398-0.071,1.087c-0.069,0.342-0.12,0.765-0.277,1.226
				c-0.058,0.239-0.153,0.479-0.279,0.722c-0.106,0.254-0.246,0.507-0.425,0.753c-0.325,0.512-0.85,0.992-1.545,1.207
				c-0.195,0.036-0.313,0.11-0.59,0.11l-0.49-0.023c-0.341-0.072-0.86-0.231-1.151-0.482c-0.712-0.451-1.24-1.188-1.568-1.999
				c-0.392-0.802-0.467-1.714-0.531-2.6c0.049-0.536,0.03-0.782,0.138-1.287c0.082-0.471,0.199-0.922,0.391-1.314
				c0.328-0.812,0.854-1.552,1.568-2.002c0.669-0.468,1.555-0.655,2.219-0.397c0.29,0.055,0.681,0.311,0.932,0.494
				c0.236,0.241,0.482,0.442,0.631,0.718c0.18,0.246,0.316,0.5,0.423,0.755c0.128,0.242,0.222,0.482,0.279,0.722
				c0.157,0.461,0.208,0.882,0.277,1.224C166.526,263.594,166.526,263.992,166.526,263.992z M166.526,263.992
				c0,0-0.015-0.4-0.11-1.081c-0.079-0.336-0.141-0.756-0.356-1.179c-0.077-0.225-0.195-0.443-0.341-0.658
				c-0.12-0.232-0.298-0.435-0.497-0.62c-0.397-0.406-0.856-0.664-1.406-0.717c-0.569-0.088-1.076,0.188-1.481,0.599
				c-0.412,0.407-0.702,1.006-0.896,1.639c-0.106,0.323-0.161,0.637-0.215,0.943c-0.074,0.263-0.054,0.823-0.085,1.074
				c0.018,1.363,0.371,2.814,1.192,3.661c0.218,0.251,0.371,0.321,0.638,0.477l0.478,0.127c0.042,0.018,0.238-0.005,0.353-0.002
				c0.533-0.041,1.051-0.326,1.423-0.724c0.2-0.185,0.377-0.387,0.497-0.621c0.146-0.214,0.263-0.434,0.341-0.656
				c0.213-0.427,0.274-0.845,0.353-1.18C166.511,264.391,166.526,263.992,166.526,263.992z"/>
		</g>
		<path fill="#FFFFFF" d="M157.391,119.544l23.652-39.469l8.539-15.815l11.757-6.018l3.359,2.798l-5.458,12.737l-3.221,11.195
			l-1.817,9.799l-2.099,11.756l-2.1,6.577l-0.98,6.439l-2.088,8.817C186.933,128.361,175.901,134.917,157.391,119.544z"/>
		<path fill="#000100" d="M206.939,161.46c1.56-1.074,6.307-3.736,9.644-2.262c3.784,1.671-1.86,8.337-4.619,7.285
			c-3.623-1.381-8.386-1.33-9.098-1.12C201.148,165.872,205.778,162.26,206.939,161.46z"/>
		<g>
			<path fill="#000100" d="M180.671,142.928c-7.455-3.55-25.752-10.357-33.031,0c-7.277,10.357,8.119,21.511,11.757,23.072
				c0,0-4.199-6.556-3.638-9.915c0,0,7.277,7.695,14.835,4.758c3.292-1.279,10.079-8.415,4.758-13.305c0,0,3.5-2.232,10.917,0
				C188.86,148.317,183.198,144.132,180.671,142.928z"/>
			<path fill="#FFFFFF" d="M160.097,144.537c-3.31-0.443-3.856,1.461-3.856,3.971c0,2.852,3.234,6.525,7.21,6.525
				c3.976,0,8.288-4.985,6.933-7.495C168.808,144.617,163.006,144.926,160.097,144.537z"/>
		</g>
		<path fill="#000100" d="M79.144,85.853c0,0,5.639,3.301,13.685,8.784c4.04,2.721,8.685,5.983,13.592,9.567
			c1.225,0.896,2.472,1.811,3.731,2.733c0.688,0.514,1.122,0.809,1.808,1.235c0.663,0.43,1.329,0.862,1.995,1.298
			c2.709,1.796,5.493,3.665,8.055,6.233c1.215,1.352,2.55,2.79,3.161,5.291c0.282,1.247,0.098,2.892-0.643,4.071
			c-0.71,1.205-1.653,1.929-2.521,2.483c-1.763,1.087-3.462,1.564-5.114,1.956c-1.648,0.376-3.252,0.609-4.821,0.788
			c-1.568,0.17-3.095,0.303-4.59,0.346c-1.356,0.038-2.861,0.154-4.229,0.225c-2.78,0.179-5.414,0.29-7.848,0.381
			c-9.729,0.41-16.26,0.234-16.26,0.234s6.355-1.519,15.958-3.123c2.401-0.415,5.001-0.848,7.758-1.246
			c1.404-0.2,2.739-0.437,4.297-0.624c1.417-0.184,2.864-0.343,4.304-0.594c1.438-0.242,2.883-0.537,4.264-0.933
			c1.358-0.407,2.716-0.902,3.664-1.513c0.466-0.3,0.794-0.633,0.884-0.833c0.104-0.2,0.1-0.264,0.051-0.59
			c-0.136-0.678-0.959-1.849-1.945-2.826c-1.978-2.071-4.553-3.925-7.125-5.684c-0.663-0.447-1.319-0.892-1.975-1.335
			c-0.638-0.438-1.469-1.077-2.004-1.537c-1.21-0.992-2.403-1.971-3.577-2.936c-4.693-3.861-9.004-7.55-12.644-10.785
			C83.743,90.492,79.144,85.853,79.144,85.853z"/>
		<path fill="#000100" d="M133.649,54.405c-0.002,0,3.293,5.493,7.601,14.017c1.069,2.136,2.26,4.436,3.421,6.91
			c1.164,2.475,2.457,5.059,3.654,7.798c0.602,1.372,1.214,2.77,1.834,4.182c0.305,0.724,0.608,1.452,0.915,2.184
			c0.151,0.374,0.302,0.722,0.459,1.195l0.228,0.671l0.156,0.572c0.81,3.111,1.591,6.411,1.43,10.113
			c-0.115,1.83-0.466,3.954-2,5.87c-0.754,0.938-1.819,1.694-2.911,2.112c-1.096,0.43-2.178,0.563-3.177,0.579
			c-3.966-0.08-6.983-1.461-9.8-2.821c-2.798-1.405-5.304-2.969-7.569-4.446c-2.283-1.511-4.469-2.895-6.429-4.274
			c-3.945-2.716-7.145-5.137-9.29-6.957c-1.089-0.884-1.897-1.644-2.436-2.175c-0.544-0.519-0.833-0.796-0.833-0.796
			s0.354,0.188,1.02,0.54c0.656,0.359,1.634,0.851,2.877,1.48c2.486,1.24,6.039,3.012,10.3,5.139
			c2.142,1.042,4.412,2.261,6.851,3.489c2.465,1.241,4.886,2.677,7.487,3.792c2.559,1.089,5.399,2.148,7.733,2.109
			c1.166-0.046,1.858-0.352,2.292-0.921c0.466-0.584,0.809-1.729,0.902-3.035c0.174-2.664-0.398-5.667-1.128-8.593l-0.143-0.56
			l-0.135-0.441c-0.069-0.271-0.202-0.645-0.323-0.997c-0.256-0.712-0.509-1.422-0.761-2.126c-0.535-1.425-1.064-2.832-1.584-4.217
			c-1.083-2.762-2.034-5.479-3.001-8.03c-0.973-2.549-1.814-4.992-2.624-7.236C135.447,60.551,133.649,54.405,133.649,54.405z"/>
		<path fill="#000100" d="M98.178,144.219c0,0,0.9-0.405,2.488-1.023c1.587-0.62,3.864-1.468,6.61-2.38
			c2.736-0.943,5.963-1.911,9.372-2.979c1.727-0.504,3.448-1.064,5.188-1.609c0.48-0.13,0.751-0.287,1.114-0.423l1.574-0.605
			c-0.169,0.012,0.916-0.248,1.607-0.053c0.426,0.091,0.533,0.173,0.725,0.261c0.18,0.094,0.356,0.197,0.521,0.309
			c0.52,0.394,0.873,0.82,1.083,1.142c0.484,0.707,0.697,1.279,0.93,1.868c0.75,2.276,0.94,4.369,0.934,6.459
			c-0.013,2.075-0.287,4.096-0.758,6.001c-0.951,3.809-2.803,7.142-4.998,9.382c-1.053,1.156-2.208,2.02-3.266,2.675
			c-1.05,0.673-2.043,1.104-2.864,1.402c-0.813,0.323-1.484,0.468-1.935,0.569c-0.45,0.097-0.691,0.147-0.691,0.147
			s0.199-0.144,0.573-0.413c0.384-0.246,0.914-0.651,1.558-1.174c0.648-0.516,1.375-1.208,2.135-2.022
			c0.751-0.827,1.512-1.816,2.205-2.959c0.689-1.146,1.295-2.449,1.814-3.867c0.499-1.428,0.846-2.99,1.086-4.617
			c0.233-1.632,0.308-3.34,0.252-5.05c-0.081-1.687-0.307-3.471-0.791-4.844c-0.112-0.305-0.254-0.638-0.322-0.72
			c-0.039-0.091-0.028-0.014,0.125,0.077c0.062,0.052,0.134,0.097,0.211,0.129c0.087,0.031,0.095,0.036,0.398,0.128
			c0.455,0.174,1.296-0.18,0.904-0.049l-0.172,0.051c0.21-0.087-0.495,0.207,0.463-0.195l-0.026,0.01l-0.051,0.02l-0.1,0.041
			l-0.409,0.161l-0.818,0.305c-0.535,0.188-1.131,0.427-1.574,0.519c-1.896,0.504-3.766,0.946-5.549,1.27
			c-1.79,0.374-3.531,0.616-5.178,0.867c-1.64,0.276-3.208,0.443-4.655,0.601c-2.887,0.336-5.317,0.473-7.023,0.543
			C99.164,144.241,98.178,144.219,98.178,144.219z"/>
		<polygon fill="#FFFFFF" points="236.677,144.473 238.986,128.711 236.677,113.49 236.047,110.608 231.849,112.336 
			228.174,119.158 223.451,124.407 221.466,126.114 220.128,127.366 218.384,128.75 216.15,130.494 212.934,133.531 213.469,135.05 
			216.464,137.642 223.344,140.813 228.08,143.003 		"/>
		<path fill="#FFFFFF" d="M198.098,120.975l29.762-32.362l14.276-16.795l12.806-8.397l9.657-1.68v5.248l-9.447,11.337
			l-15.746,27.292l-5.878,4.991l-4.724,7.501c0,0-5.294,6.831-7.63,8.859c-1.679,1.46-15.77,0.178-18.238-0.923
			C202.936,126.046,198.114,122.726,198.098,120.975z"/>
		<path fill="#C7B299" d="M203.156,191.484c0,0-2.267-3.963,1.105-6.81c3.375-2.848,8.627-7.166,11.158-7.743
			c2.531-0.578,7.612-0.982,8.593-3.782c0.978-2.8,11.055-15.116,11.055-15.116l8.119-3l4.76,4.819l6.157,14.695l4.478,16.937
			l-2.237,12.177l-1.961,1.538l-27.292-12.035L203.156,191.484z"/>
		<path fill="#C7B299" d="M203.156,191.484c0,0-5.596,1.12-9.936,16.795v7.697l4.968,3.64l13.366,1.399l14.407-2.239l14.984-5.6
			l5.74-4.758l4.058-5.739l-32.895-10.164L203.156,191.484z"/>
		<path fill="#000100" d="M269.444,61.13c-0.067-0.304-0.318-0.857-0.571-1.227c-0.403-0.521-0.302-0.353-0.371-0.437l-0.033-0.034
			c-0.051-0.05-0.167-0.167-0.437-0.402l-0.15-0.102l-0.304-0.201c-0.385-0.27-0.789-0.42-1.192-0.604
			c-1.594-0.573-2.956-0.538-4.131-0.438c-1.192,0.118-2.25,0.371-3.259,0.656c-3.979,1.176-7.289,3.022-10.513,5.071
			c-1.594,1.042-3.139,2.134-4.668,3.376c-1.614,1.294-2.772,2.704-4.115,4.048c-2.537,2.67-4.888,5.342-7.291,8.061l-7.138,8.096
			l-7.003,8.214c-0.62,0.722-1.225,1.443-1.831,2.165c-1.61-0.905-3.174-1.897-4.668-2.955c-1.025-0.722-2.016-1.511-2.855-2.334
			c-0.403-0.42-0.772-0.856-0.974-1.243c-0.1-0.167-0.134-0.369-0.134-0.369c-0.051-0.387-0.035-0.504-0.035-0.823
			c0.102-2.401,0.571-5.257-0.1-8.18c-0.32-1.461-0.956-2.923-1.93-4.164c-0.891-1.16-2.034-2.066-3.243-2.756
			c0.152-0.353,0.303-0.722,0.438-1.074l3.71-8.801l0.941-2.25l0.487-1.177l0.218-0.57c0.084-0.253,0.118-0.1,0.371-1.158
			c0.033-0.169,0.066-0.505,0.049-0.756c0.017-0.253-0.016-0.538-0.102-0.857c-0.117-0.62-0.453-1.209-0.822-1.646
			c-0.789-0.874-1.412-1.074-1.948-1.294c-0.991-0.318-1.646-0.318-2.25-0.335c-1.176,0.017-2.15,0.168-3.092,0.369
			c-3.71,0.873-7.02,2.385-10.024,4.804c-0.22,0.2-0.438,0.386-0.64,0.588c-0.486-0.958-0.974-1.949-1.494-2.973l-0.251-0.486
			c-0.253-0.404-0.135-0.27-0.455-0.673c-0.471-0.57-0.805-0.807-1.225-1.093c-0.791-0.52-1.563-0.821-2.303-1.058
			c-1.476-0.469-2.888-0.688-4.299-0.823c-1.394-0.133-2.788-0.184-4.199-0.133c-0.622,0.033-1.225,0.067-1.897,0.167
			c-0.017-0.016-0.051-0.051-0.067-0.067c-0.654-0.688-1.429-1.763-2.183-2.788c-0.756-1.041-1.529-2.132-2.352-3.208
			c-1.646-2.148-3.426-4.315-5.911-6.129c-1.243-0.891-2.705-1.68-4.435-2.066c-0.839-0.202-1.863-0.219-2.434-0.219
			c-0.823,0-1.579,0.035-2.486,0.202c-0.84,0.15-1.981,0.52-2.956,1.394c-0.016,0.017-0.034,0.033-0.051,0.051
			c-0.169-0.085-0.353-0.168-0.52-0.252c-0.521-0.27-1.076-0.555-1.614-0.873c-2.199-1.193-4.199-2.586-6.38-4.082
			c-2.201-1.478-4.402-3.09-7.341-4.231c-1.459-0.571-3.257-0.975-5.189-0.74c-1.932,0.236-3.711,1.228-4.971,2.369l-0.353,0.336
			c0,0-0.017,0-0.033,0.017v0.017c-0.017,0-0.035,0.018-0.051,0.034l-0.035,0.032l-0.049,0.051h-0.016l-0.151,0.118
			c-0.187,0.168-0.135,0.101-0.118,0.067c0.049-0.034,0.065-0.034,0-0.018c-0.151,0.067-0.42,0.134-0.807,0.118
			c-0.754,0.034-1.847-0.234-2.888-0.571c-2.15-0.739-4.4-1.897-6.634-3.107l-3.477-1.88c-0.62-0.32-1.244-0.64-1.998-0.958
			c-0.202-0.084-0.387-0.167-0.622-0.253c-0.218-0.066-0.471-0.15-0.805-0.218l-0.236-0.051l-0.334-0.049l-0.354-0.035h-0.353
			l-0.051,0.019h-0.2l-0.203,0.032c-0.251,0.033-0.587,0.101-0.754,0.168c-1.596,0.521-2.352,1.429-2.972,2.117
			c-0.605,0.722-1.025,1.41-1.394,2.049c-0.723,1.259-1.329,2.552-1.798,3.308c-0.016,0.017-0.016,0.034-0.033,0.051
			c-0.069,0.017-0.134,0.051-0.134,0.051s-0.169,0.033-0.338,0.084c-0.167,0.033-0.351,0.067-0.554,0.067
			c-0.806,0.067-1.847-0.067-2.905-0.32c-2.167-0.536-4.434-1.494-6.7-2.568c-1.125-0.554-2.25-1.127-3.412-1.714l-3.61-1.865
			c-0.436-0.218-1.545-0.705-2.536-0.889c-1.009-0.218-2.468-0.319-3.948,0.42c-0.738,0.335-1.342,0.873-1.814,1.411
			c-0.453,0.554-0.754,1.09-0.991,1.612c-0.437,1.024-0.604,1.897-0.738,2.737c-0.22,1.628-0.185,3.073-0.202,4.333
			c0,0.302-0.018,0.587-0.034,0.738l-0.033,0.521l-0.016,0.722c0,0.84,0.065,1.563,0.118,2.201c0.049,0.621,0.065,1.157,0.049,1.51
			c-0.2,0.019-0.503,0.035-0.807,0.035c-0.957-0.035-2.1-0.202-3.257-0.454l-1.898-0.42c-0.605-0.135-1.394-0.286-2.048-0.402
			c-2.772-0.471-5.577-0.739-8.5-0.621c-1.459,0.066-2.939,0.201-4.517,0.587c-0.791,0.186-1.596,0.42-2.47,0.84
			c-0.856,0.42-1.896,0.923-2.905,2.334c-0.471,0.705-0.874,1.797-0.805,2.855c-0.018,0.017,0.016,0.269,0.016,0.353l0.017,0.051
			v0.135l0.017,0.118l0.051,0.267l0.133,0.555l0.118,0.387c0.302,0.907,0.623,1.578,0.941,2.251c0.654,1.311,1.327,2.503,2.014,3.66
			c1.394,2.317,2.823,4.535,4.199,6.736l2.034,3.241l0.503,0.855c-0.234,0.118-0.503,0.235-0.756,0.337
			c-1.227,0.503-2.586,0.958-3.963,1.359c-1.394,0.42-2.805,0.791-4.251,1.144c-1.411,0.334-2.887,0.671-4.281,0.956L39.819,70.3
			l-0.184,0.033c-1.478,0.437-3.208,1.159-4.586,2.704c-0.67,0.757-1.19,1.68-1.51,2.587c-0.336,0.924-0.471,1.814-0.52,2.654v0.302
			l-0.018,0.15v0.118l0.035,0.453l0.033,0.218c0.016,0.085,0.102,0.487,0.167,0.705c0.204,0.64,0.304,0.74,0.42,0.992
			c0.118,0.251,0.22,0.386,0.338,0.587c0.42,0.689,0.822,1.228,1.225,1.73c0.822,1.023,1.629,1.931,2.452,2.821
			c2.452,2.638,4.953,5.09,7.507,7.49l-3.661,3.225l-6.282,5.476l-1.73,1.444c-0.62,0.555-1.276,1.125-1.981,2.134
			c-0.336,0.47-0.689,1.125-0.907,1.897c-0.251,0.789-0.269,1.729-0.117,2.52c0.151,0.822,0.453,1.443,0.755,1.998
			c0.318,0.589,1.025,1.311,1.311,1.545c1.376,1.21,2.57,1.983,3.813,2.805c1.225,0.823,2.451,1.579,3.677,2.336l3.712,2.183
			l1.848,1.074l0.469,0.27l0.236,0.134l0.285,0.151l0.117,0.051l0.891,0.452c1.192,0.605,2.401,1.26,3.477,1.933
			c0.184,0.118,0.369,0.234,0.554,0.369c-0.338,0.688-0.807,1.512-1.276,2.269c-0.689,1.125-1.463,2.25-2.252,3.375
			c-1.58,2.233-3.275,4.468-4.988,6.616l-0.085,0.102c-0.049,0.084-0.1,0.151-0.151,0.234l-0.688,1.26
			c-0.2,0.438-0.402,0.907-0.604,1.378c-0.336,1.007-0.672,2.1-0.638,3.493c0.034,1.395,0.671,3.023,1.612,3.997
			c0.889,0.991,1.814,1.562,2.468,1.981l0.438,0.286l0.436,0.336c0.066,0.067,0.538,0.353,0.824,0.521
			c0.234,0.116,0.485,0.251,0.705,0.353c0.889,0.401,1.712,0.705,2.552,0.99c1.696,0.538,3.31,0.991,5.324,1.192l2.436,0.168
			c0.84,0.051,1.545,0.15,2.285,0.252c0.722,0.067,1.46,0.186,2.182,0.337c0.741,0.116,1.429,0.302,2.117,0.487
			c0.724,0.167,1.343,0.436,1.983,0.654l0.873,0.403l0.773,0.469c0.436,0.32,0.856,0.656,1.041,0.958
			c0.118,0.15,0.184,0.285,0.218,0.387c0.017,0.017,0.017,0.033,0.017,0.05c-0.487,1.563-1.192,3.31-1.831,5.057
			c-0.705,1.897-1.377,3.862-1.881,5.962c-0.487,2.083-0.856,4.316-0.554,6.785c0.067,0.604,0.218,1.243,0.403,1.863l0.167,0.471
			l0.085,0.218l0.016,0.034v0.017l0.184,0.369l0.035,0.051l0.051,0.067c0,0.033,0.386,0.571,0.705,0.823
			c0.286,0.251,0.469,0.336,0.706,0.487c0.823,0.453,1.459,0.587,2.065,0.722c0.622,0.118,1.176,0.186,1.73,0.234
			c2.201,0.202,4.231,0.135,6.282,0.019c2.03-0.102,4.031-0.286,6.013-0.471l1.459-0.135l0.354-0.017l0.302-0.018l0.754-0.017
			c0.974-0.033,2-0.084,2.958-0.084c1.327,0,2.688,0.017,4.03,0.067c0.016,0.353,0.034,0.705,0.085,1.042
			c0.151,0.99,0.235,1.98,0.469,2.955c0.186,0.975,0.454,1.948,0.756,2.906c0.134,0.469,0.32,0.939,0.487,1.41
			c0.186,0.453,0.336,0.94,0.571,1.395c0.387,0.907,0.84,1.796,1.329,2.67c0.502,0.856,1.04,1.713,1.627,2.52
			c0.571,0.806,1.21,1.578,1.883,2.334c0.335,0.371,0.671,0.739,1.057,1.093c0.371,0.353,0.723,0.671,1.194,1.058
			c0.234,0.201,0.554,0.319,0.873,0.353c0.672,0.049,1.333,0.043,1.991,0.013c-1.183,0.914-2.431,2.116-3.507,3.697
			c-0.569,0.869-1.107,1.845-1.47,2.939c-0.371,1.096-0.528,2.311-0.483,3.527c0.059,1.228,0.421,2.41,0.9,3.48
			c0.523,1.042,1.195,1.96,1.917,2.72c0.696,0.797,1.496,1.396,2.246,1.94c0.756,0.536,1.504,0.973,2.222,1.309
			c0.689,0.386,1.375,0.623,1.967,0.853c0.582,0.246,1.122,0.388,1.562,0.507c0.879,0.236,1.387,0.338,1.387,0.338
			s-0.389-0.359-1.078-0.93c-0.693-0.558-1.66-1.385-2.753-2.363c-0.556-0.484-1.104-1.048-1.68-1.622
			c-0.553-0.596-1.104-1.238-1.594-1.916c-0.521-0.667-0.869-1.432-1.222-2.168c-0.259-0.767-0.504-1.534-0.522-2.334
			c-0.038-0.794,0.044-1.604,0.25-2.411c0.233-0.801,0.5-1.614,0.894-2.372c0.41-0.744,0.798-1.5,1.266-2.175
			c0.461-0.672,0.914-1.32,1.363-1.902c0.41-0.526,0.797-1.005,1.158-1.443c0.351-0.063,0.704-0.129,1.048-0.206
			c1.863-0.438,3.645-1.06,5.357-1.766c1.73-0.705,3.394-1.526,5.005-2.417c0.604-0.32,1.192-0.656,1.763-1.009
			c-0.503,1.697-0.874,3.645-0.805,5.829c0.033,1.461,0.269,3.022,0.823,4.584c0.52,1.58,1.427,3.09,2.569,4.451
			c2.417,2.771,5.375,4.45,8.414,6.013c3.058,1.529,6.298,2.805,9.641,3.896c3.342,1.093,6.785,1.983,10.261,2.722
			c3.494,0.705,7.005,1.294,10.497,1.612c3.493,0.37,6.954,0.505,10.33,0.403c3.375-0.084,6.652-0.487,9.742-1.177
			c3.106-0.67,6.013-1.729,8.463-3.324c0.723-0.454,1.394-0.975,1.983-1.528c0.587,0.587,1.26,1.058,1.931,1.478
			c1.276,0.789,2.621,1.344,3.999,1.814c2.754,0.939,5.642,1.394,8.581,1.679c2.939,0.253,5.911,0.302,8.903,0.202
			c2.972-0.118,5.979-0.336,8.883-0.958c2.923-0.621,5.694-1.578,8.297-2.872c1.192-0.621,2.636-1.359,3.761-2.083
			c1.178-0.754,2.234-1.526,3.259-2.301c2.065-1.511,3.813-3.123,5.424-4.601c1.227-1.125,2.303-2.218,3.293-3.242l1.142,0.554
			l2.972,1.496l0.085,0.049c0.151,0.067,0.285,0.118,0.437,0.186c2.066,0.722,4.333-0.353,5.071-2.419
			c0.436-1.209,0.874-2.418,1.159-3.645c0.353-1.226,0.555-2.469,0.756-3.693c0.184-1.243,0.286-2.486,0.334-3.712
			c0.053-1.227,0.085-2.47,0.018-3.679c-0.067-2.436-0.369-4.82-0.772-7.154c-0.42-2.353-0.941-4.653-1.596-6.903
			c-1.311-4.501-2.99-8.834-4.955-13c-0.958-2.1-2.014-4.148-3.139-6.146c-0.554-1.009-1.125-2-1.714-2.99
			c-0.605-1.009-1.209-1.948-1.898-2.99l-0.151-0.218c-0.571-0.856-1.562-1.411-2.67-1.378c-0.338,0.018-0.624,0.034-0.893,0.051
			c-0.318-0.891-0.705-1.847-1.141-2.821c-0.351-0.739-0.671-1.528-1.091-2.284c-0.404-0.756-0.84-1.513-1.311-2.267
			c-0.102-0.153-0.184-0.304-0.286-0.438c0.42-0.654,0.722-1.309,0.942-1.931c1.141-3.375,1.04-6.467,0.939-9.59
			c-0.152-3.107-0.487-6.182-0.958-9.237c-0.455-3.057-1.025-6.096-1.73-9.054c-0.334-1.376-0.671-2.719-1.158-4.131
			c0.673-1.008,1.244-2.015,1.881-2.988l2.821-4.603l5.644-9.138c1.88-3.022,3.828-6.013,5.862-8.834
			c1.04-1.478,1.896-2.603,3.14-4.048c1.125-1.208,2.436-2.702,3.595-4.08c2.352-2.855,4.635-5.711,6.617-9.138
			c0.505-0.889,0.991-1.729,1.427-3.006c0.102-0.318,0.22-0.671,0.287-1.158c0.051-0.218,0.083-0.471,0.083-0.823
			C269.611,62.086,269.562,61.566,269.444,61.13z M256.377,72.65c-1.074,1.429-2.082,2.705-3.325,4.183
			c-1.06,1.311-2.335,3.09-3.293,4.603c-1.981,3.141-3.744,6.314-5.475,9.506c-1.729,3.174-3.392,6.382-4.988,9.623l-2.403,4.82
			c-0.402,0.789-0.787,1.596-1.207,2.385c-0.151,0-0.286,0.017-0.403,0.051c-0.437,0.1-0.74,0.269-0.975,0.42
			c-0.925,0.621-1.377,1.225-1.881,1.847c-0.958,1.243-1.697,2.486-2.368,3.746c-0.638,1.226-1.225,2.301-1.914,3.392
			c-0.035,0.035-0.051,0.084-0.085,0.118l-0.873,1.311c-1.092,1.562-2.234,2.988-3.359,4.299c-2.956,3.41-5.895,5.862-7.978,7.507
			c-1.023,0.84-1.863,1.479-2.385,1.983c-0.521,0.487-0.738,0.872-0.738,0.872v0.017c0-0.032-0.338,0.555,0.065,1.311
			c0.354,0.722,1.142,1.478,2.15,2.385c1.025,0.891,2.351,1.897,3.896,2.99c1.563,1.091,3.359,2.283,5.426,3.426
			c2.083,1.125,4.418,2.216,7.223,2.889c1.427,0.336,2.886,0.621,4.92,0.336c0.387-0.067,0.772-0.15,1.227-0.336
			c0.017,0,0.017,0.017,0.017,0.017c0.905,1.41,1.796,2.822,2.654,4.149c0.42,0.654,0.822,1.276,1.225,1.863
			c-0.269,0.051-0.536,0.118-0.789,0.186c-1.294,0.336-2.536,0.805-3.729,1.359c-2.401,1.093-4.603,2.587-6.433,4.417
			c-1.847,1.813-3.375,3.881-4.55,6.098c-1.178,2.184-1.983,4.518-2.554,6.835c0,0.017,0,0.017,0,0.034
			c-0.772,1.897-2,3.526-3.93,4.468c-0.993,0.469-2.118,0.772-3.275,1.007l-1.798,0.353c-0.302,0.067-0.604,0.151-0.889,0.27
			c-0.286,0.118-0.589,0.302-0.74,0.57c0.471-0.403,1.108-0.353,1.679-0.353l1.814,0.084c1.225,0.084,2.501,0.034,3.795-0.285
			c1.278-0.318,2.554-0.907,3.628-1.78c1.091-0.857,1.931-1.965,2.636-3.107l0.085-0.219c0.453-0.99,0.941-1.981,1.478-2.904
			c0.555-0.941,1.125-1.832,1.763-2.688c1.227-1.695,2.705-3.174,4.317-4.382c1.629-1.192,3.408-2.1,5.275-2.739
			c0.922-0.302,1.879-0.536,2.837-0.688c0.234-0.034,0.469-0.085,0.706-0.118l0.554,1.108c0.487,0.957,0.958,1.931,1.411,2.905
			c0.907,1.948,1.763,3.93,2.568,5.913c0.823,1.98,1.546,3.996,2.234,6.013c0.705,1.997,1.312,4.029,1.848,6.08
			c0.52,2.032,1.009,4.063,1.327,6.112c0.184,1.025,0.302,2.032,0.42,3.058c0.102,1.007,0.202,2.032,0.236,3.022
			c0.065,1.007,0.049,2.016,0.033,3.007l-0.085,1.478l-0.151,1.461c-0.065,0.47-0.117,0.924-0.2,1.395l-1.965-0.84
			c-2.15-0.891-4.333-1.73-6.534-2.537c-4.399-1.612-8.867-3.023-13.42-4.199c-4.533-1.192-9.187-2.048-13.889-2.586
			c-1.192-0.133-2.369-0.2-3.561-0.251s-2.385-0.067-3.577-0.017c-1.176,0.017-2.385,0.1-3.561,0.251
			c-1.009,0.135-2,0.319-2.974,0.555c-0.033-0.067-0.049-0.135-0.082-0.185c-0.134-0.269-0.252-0.537-0.354-0.823
			c-0.2-0.57-0.334-1.143-0.351-1.746c0-0.286,0.016-0.589,0.065-0.891c0.017-0.151,0.085-0.286,0.118-0.437
			c0.049-0.135,0.083-0.285,0.167-0.42c0.118-0.285,0.286-0.555,0.489-0.807c0.167-0.27,0.419-0.47,0.636-0.722
			c-0.269,0.185-0.571,0.319-0.824,0.554c-0.267,0.202-0.501,0.437-0.721,0.722c-0.118,0.135-0.2,0.27-0.286,0.437
			c-0.083,0.152-0.184,0.304-0.252,0.454c-0.135,0.337-0.233,0.673-0.318,1.025c-0.134,0.705-0.134,1.427-0.049,2.132
			c0.049,0.353,0.117,0.706,0.217,1.042c0.102,0.353,0.185,0.672,0.371,1.058c0.118,0.27,0.369,0.454,0.689,0.437h0.184
			c1.125-0.033,2.234,0,3.343,0.085c1.108,0.116,2.217,0.2,3.326,0.386c1.091,0.15,2.199,0.369,3.29,0.605
			c1.092,0.234,2.168,0.536,3.259,0.788c4.352,1.093,8.583,2.62,12.798,4.183c4.215,1.612,8.381,3.359,12.513,5.189l4.417,2.032
			c-0.738,0.487-1.529,0.991-2.335,1.513c-1.78,1.125-3.727,2.317-5.76,3.476c-1.04,0.554-2.1,1.143-3.174,1.628
			c-0.538,0.27-1.074,0.506-1.612,0.724c-0.269,0.1-0.538,0.234-0.807,0.318l-0.905,0.303c-2.335,0.738-4.855,1.428-7.391,2.1
			c-2.57,0.654-5.189,1.36-7.894,1.796c-5.358,0.891-10.951,0.958-15.77-0.032c-1.865-0.388-3.661-1.042-4.838-1.981
			c-0.318-0.236-0.571-0.487-0.789-0.772c-0.267-0.32-0.436-0.656-0.553-1.025c-0.018-0.102-0.052-0.201-0.069-0.285
			c0-0.034-0.016-0.118-0.016-0.118l-0.017-0.218c-0.016-0.186-0.033-0.369-0.033-0.555c-0.018-0.1-0.018-0.202-0.018-0.302
			c-0.035-0.958,0.067-2.083,0.186-3.073c0.184-1.411,0.453-2.738,0.754-3.948c0.085-0.335,0.169-0.654,0.252-0.956
			c0.521-1.916,1.109-3.545,1.612-4.837c0.438-1.144,0.858-2.016,1.16-2.604c0.302-0.588,0.469-0.889,0.469-0.889l-0.554-0.388
			c0,0-0.216,0.304-0.62,0.856c-0.387,0.555-0.941,1.394-1.561,2.503c-1.243,2.201-2.823,5.493-3.966,9.792
			c-0.251,1.108-0.502,2.2-0.62,3.527c-0.033,0.318-0.033,0.587-0.051,0.889l-0.017,0.219v0.336
			c0.017,0.202,0.017,0.403,0.051,0.589c0.049,0.369,0.135,0.738,0.251,1.091c-0.571,0.403-1.209,0.756-1.914,1.076
			c-2.116,0.905-4.669,1.427-7.423,1.763c-2.772,0.285-5.778,0.285-8.885,0.151c-6.214-0.286-12.899-1.243-19.483-2.621
			c-6.567-1.376-13.116-3.157-18.809-5.44c-2.805-1.176-5.56-2.452-7.223-4.031c-1.763-1.646-2.821-3.745-3.241-5.997
			c-0.403-2.25-0.269-4.5,0.033-6.498c0.052-0.287,0.102-0.572,0.151-0.84c0-0.018,0.018-0.018,0.018-0.034
			c0.067-0.453,0.169-0.907,0.269-1.327c0-0.017,0-0.017,0-0.032c0.234-1.093,0.52-2.067,0.789-2.939
			c0.823-2.621,1.529-4.183,1.647-4.419c-0.236,0.236-1.378,1.496-2.855,3.864c-0.504,0.822-1.042,1.764-1.547,2.854h-0.017
			c-1.427,0.906-2.956,1.765-4.517,2.519c-1.562,0.774-3.175,1.479-4.803,2.083c-3.057,1.109-6.298,1.897-9.29,1.696
			c-0.167-0.167-0.368-0.353-0.537-0.521c-0.303-0.302-0.588-0.638-0.874-0.957c-0.554-0.654-1.091-1.344-1.578-2.065
			c-0.487-0.722-0.925-1.478-1.345-2.233c-0.42-0.772-0.787-1.562-1.107-2.369c-0.186-0.385-0.303-0.805-0.454-1.225
			c-0.135-0.403-0.302-0.807-0.404-1.243c-0.234-0.823-0.453-1.68-0.587-2.536c-0.184-0.84-0.235-1.714-0.335-2.586
			c-0.069-0.438-0.034-0.875-0.069-1.311l-0.033-1.311v-0.051c-0.033-1.023-0.84-1.863-1.881-1.931
			c-2.016-0.135-4.03-0.186-6.096-0.236c-1.007-0.017-1.981,0.019-2.99,0.019l-0.74,0.016l-0.821,0.017l-1.511,0.084
			c-1.983,0.102-3.948,0.201-5.878,0.236c-1.932,0.032-3.864,0.016-5.627-0.186c-0.438-0.051-0.858-0.118-1.208-0.202
			c-0.169-0.032-0.32-0.083-0.455-0.116c-0.067-0.319-0.151-0.64-0.185-0.992c-0.167-1.494,0.118-3.258,0.571-5.004
			c0.454-1.764,1.108-3.545,1.814-5.358c0.723-1.814,1.512-3.594,2.201-5.728l0.016-0.033c0.033-0.067,0.051-0.134,0.051-0.201
			c0.117-0.772,0.067-0.991,0.051-1.427c-0.069-0.354-0.118-0.724-0.236-1.042c-0.2-0.673-0.486-1.26-0.84-1.763
			c-0.689-1.076-1.529-1.766-2.369-2.403c-0.419-0.285-0.856-0.555-1.276-0.806l-1.292-0.638c-0.856-0.336-1.73-0.705-2.586-0.925
			c-0.858-0.251-1.714-0.504-2.554-0.654c-0.84-0.186-1.696-0.353-2.568-0.453c-0.875-0.135-1.749-0.269-2.52-0.319l-2.368-0.219
			c-1.194-0.134-2.687-0.554-4.048-1.007c-0.672-0.236-1.361-0.505-1.932-0.772c-0.151-0.067-0.252-0.135-0.369-0.186
			c-0.051-0.051,0.051,0.051-0.186-0.134l-0.049-0.035H49.26l-0.018-0.017c-0.034-0.016-0.051-0.032-0.051-0.032l-0.049-0.051
			l-0.354-0.253l-0.571-0.401c-0.689-0.438-1.109-0.772-1.276-0.991c-0.167-0.201-0.118-0.169-0.151-0.387
			c-0.016-0.234,0.102-0.705,0.286-1.209l0.371-0.823l0.403-0.705c1.796-2.184,3.492-4.385,5.137-6.667
			c0.858-1.177,1.697-2.385,2.503-3.645c0.807-1.327,1.597-2.503,2.285-4.419c0.152-0.536,0.369-1.023,0.336-2.199
			c-0.033-0.302-0.067-0.654-0.236-1.109c-0.033-0.134-0.251-0.604-0.469-0.891l-0.186-0.218l-0.034-0.049l-0.251-0.253
			l-0.017-0.017l-0.034-0.034l-0.065-0.049l-0.135-0.118l-0.269-0.219c-0.371-0.319-0.722-0.589-1.042-0.79
			c-0.336-0.234-0.672-0.487-0.992-0.671c-1.309-0.856-2.601-1.545-3.914-2.25l-0.991-0.522l-0.738-0.419l-1.814-1.075l-3.561-2.166
			c-1.176-0.74-2.333-1.478-3.459-2.25c-1.025-0.689-2.099-1.462-2.839-2.1c0.169-0.186,0.42-0.42,0.689-0.656l1.528-1.276
			l6.533-5.625l6.349-5.577c0.083-0.067,0.169-0.15,0.251-0.234c0.589-0.621,0.874-1.429,0.874-2.218
			c0-0.891-0.353-1.763-1.058-2.419c-3.326-3.09-6.686-6.314-9.708-9.59c-0.756-0.822-1.478-1.646-2.116-2.452
			c-0.285-0.386-0.57-0.755-0.756-1.058v-0.017c0.067-0.504,0.202-0.756,0.353-0.924c0.152-0.201,0.589-0.454,1.225-0.655
			c1.547-0.318,3.024-0.639,4.521-0.991c1.51-0.369,3.021-0.772,4.55-1.209c1.528-0.452,3.057-0.939,4.635-1.579
			c0.807-0.318,1.598-0.688,2.487-1.192c0.436-0.251,0.907-0.57,1.427-1.007c0.505-0.521,1.21-1.025,1.696-2.553
			c0.187-0.588,0.204-1.227-0.016-1.832l-0.017-0.032c-0.387-1.16-0.738-1.73-1.092-2.401c-0.351-0.656-0.705-1.227-1.056-1.814
			l-2.116-3.393c-1.413-2.216-2.823-4.383-4.133-6.55c-0.654-1.075-1.276-2.15-1.78-3.191c-0.1-0.186-0.185-0.387-0.269-0.571
			c0.235-0.083,0.487-0.169,0.772-0.235c0.958-0.235,2.1-0.369,3.241-0.42c2.301-0.101,4.72,0.102,7.105,0.505
			c0.62,0.1,1.125,0.202,1.798,0.353l1.93,0.42c1.395,0.285,2.823,0.52,4.484,0.57c0.858,0,1.747-0.034,2.839-0.319
			c1.058-0.269,2.503-0.975,3.425-2.317c0.909-1.311,1.06-2.619,1.127-3.543c0.034-0.941-0.035-1.714-0.084-2.387
			c-0.051-0.654-0.102-1.241-0.102-1.712v-0.234l0.033-0.471c0.035-0.487,0.035-0.856,0.053-1.209c0-1.361-0.018-2.52,0.116-3.478
			c0.035-0.285,0.084-0.538,0.151-0.722c0.169,0.05,0.386,0.117,0.858,0.335l3.375,1.697c1.174,0.588,2.385,1.175,3.612,1.764
			c2.466,1.125,5.02,2.218,7.959,2.904c1.461,0.32,3.056,0.572,4.853,0.42c0.455-0.049,0.909-0.116,1.378-0.218
			c0.471-0.116,0.925-0.251,1.529-0.504c0.334-0.15,0.387-0.186,0.554-0.269l0.102-0.067l0.065-0.017
			c0.302-0.167,0.186-0.118,0.302-0.186c0.269-0.167,0.454-0.334,0.605-0.469c0.622-0.589,0.858-1.009,1.127-1.395
			c0.889-1.461,1.325-2.569,1.912-3.577c0.269-0.486,0.538-0.925,0.774-1.21l0.016-0.017c0.437,0.169,0.975,0.42,1.496,0.688
			l3.441,1.814c2.352,1.226,4.788,2.469,7.592,3.41c1.429,0.42,2.921,0.84,4.788,0.821c0.905-0.017,1.947-0.167,3.005-0.621
			c0.236-0.101,0.538-0.251,0.856-0.47c0.32-0.185,0.64-0.436,0.689-0.487l0.521-0.471l0.252-0.234
			c0.671-0.604,1.292-0.906,1.949-1.024c0.671-0.101,1.527,0,2.501,0.353c1.949,0.688,4.099,2.099,6.248,3.493
			c2.134,1.41,4.484,2.956,6.903,4.215c0.589,0.32,1.192,0.639,1.849,0.941c0.705,0.302,1.259,0.622,2.519,0.89
			c0.368,0.051,0.771,0.118,1.427-0.017c0.62-0.084,1.343-0.52,1.663-0.856c0.62-0.654,0.587-0.688,0.636-0.705
			c0,0,0.134-0.135,0.554-0.218c0.387-0.084,0.941-0.135,1.411-0.135c0.741,0,1.027-0.017,1.463,0.084
			c0.84,0.15,1.745,0.57,2.638,1.192c1.778,1.227,3.441,3.073,5.004,5.021c0.789,0.991,1.545,2.016,2.334,3.074
			c0.823,1.058,1.562,2.115,2.755,3.291c0.318,0.286,0.671,0.622,1.276,0.957c0.335,0.152,0.673,0.336,1.343,0.42
			c0.202,0.018,0.52,0,0.605-0.017l0.318-0.05l0.151-0.034c0.489-0.1,1.092-0.15,1.679-0.201c1.194-0.084,2.419-0.084,3.612,0
			c2.301,0.134,5.055,0.722,5.256,1.746c0.724,1.344,1.478,2.788,2.285,4.216c-0.085,0.102-0.167,0.218-0.253,0.319
			c-1.058,1.344-2.014,2.705-2.956,4.081c-3.711,5.475-6.869,11.169-9.877,16.93c-1.51,2.871-2.939,5.778-4.297,8.75
			c-0.236,0.504-0.455,1.009-0.689,1.512c-0.403-0.823-0.858-1.663-1.312-2.519c-0.62-1.144-1.226-2.336-1.913-3.511
			c-0.672-1.176-1.361-2.385-2.066-3.576c-0.722-1.194-1.445-2.369-2.15-3.528c-0.705-1.176-1.478-2.267-2.167-3.359
			c-1.427-2.183-2.821-4.164-4.064-5.827c-2.283-3.125-4.081-5.141-4.35-5.426c0.102,0.304,1.023,2.872,2.687,6.416
			c0.891,1.898,1.965,4.064,3.192,6.365c0.622,1.126,1.227,2.334,1.932,3.511c0.67,1.176,1.359,2.385,2.048,3.577
			c0.722,1.176,1.445,2.352,2.167,3.527c0.706,1.158,1.46,2.267,2.165,3.359c0.875,1.327,1.749,2.603,2.572,3.761
			c-0.689,1.462-1.377,2.906-2.134,4.333c-1.429,2.823-2.939,5.609-4.568,8.349c-1.614,2.737-3.275,5.475-4.989,8.146l-0.118,0.15
			c-0.318,0.504-0.251,1.16,0.169,1.596c0.689,0.673,1.311,1.209,2,1.764c0.672,0.554,1.377,1.076,2.083,1.562
			c1.427,0.992,2.939,1.832,4.5,2.569c0.772,0.388,1.562,0.689,2.368,1.009c0.806,0.268,1.611,0.555,2.451,0.738
			c0.823,0.218,1.663,0.387,2.519,0.487c0.823,0.169,1.663,0.135,2.503,0.201c-0.805-0.218-1.645-0.353-2.434-0.621
			c-0.791-0.234-1.562-0.52-2.319-0.856c-0.386-0.15-0.755-0.336-1.125-0.521c-0.351-0.176-0.704-0.323-1.056-0.512l3.172-8.707
			l-4.645,7.857c-0.233-0.141-0.466-0.278-0.696-0.435c-0.594-0.391-1.171-0.807-1.742-1.233l7.957-17.413l-10.33,15.468
			c-0.52-0.469-1.032-0.946-1.527-1.439c-0.269-0.286-0.554-0.571-0.807-0.856c1.83-2.252,3.579-4.535,5.24-6.887
			c1.914-2.638,3.728-5.341,5.442-8.129c0.455-0.74,0.891-1.494,1.327-2.25c0.252-0.455,0.52-0.907,0.772-1.378
			c0.923-1.646,1.812-3.309,2.687-4.888l4.719-8.279c1.614-2.754,3.242-5.475,4.957-8.163c1.696-2.67,3.359-5.357,5.155-7.911
			c0.538-0.756,1.091-1.51,1.629-2.25c0.371-0.487,0.74-0.974,1.108-1.427c0.453-0.555,0.925-1.108,1.395-1.612
			c0.487-0.555,0.974-1.025,1.41-1.395c1.696-1.394,3.914-2.554,6.098-3.242l-0.185,0.438c-1.192,2.905-2.352,5.845-3.427,8.851
			c-0.033,0.067-0.051,0.151-0.085,0.219c-0.402,1.143-0.787,2.284-1.174,3.442c-0.656,1.982-1.26,4.031-1.696,6.281
			c-0.102,0.42-0.151,0.958-0.22,1.429l-0.135,1.142l-0.334,2.199l-0.824,4.721l-1.747,9.472l-1.679,9.49
			c-0.589,3.157-1.075,6.349-1.629,9.522c-0.538,3.106-1.007,6.247-1.496,9.355c-0.318,0.218-0.689,0.453-1.075,0.638v-5.878
			l-0.978,6.246c-0.152,0.051-0.29,0.126-0.451,0.169c-0.975,0.285-2.031,0.336-3.09,0.185c1.009,0.337,2.1,0.471,3.192,0.354
			c0.554-0.052,1.092-0.151,1.63-0.303c0.536-0.168,1.04-0.353,1.578-0.655c0.084-0.05,0.167-0.135,0.202-0.235l0.017-0.083
			c0.974-3.074,1.965-6.147,2.872-9.237c0.925-3.09,1.881-6.164,2.737-9.271c1.763-6.197,3.477-12.396,5.039-18.677l1.16-4.719
			c0.184-0.823,0.387-1.73,0.538-2.536l0.2-1.243c0.069-0.319,0.085-0.587,0.186-0.939c0.32-1.395,0.789-2.855,1.311-4.333
			c1.679,1.007,2.854,2.501,3.342,4.433c0.62,2.184,0.351,4.619,0.318,7.424c0,0.319,0.049,0.856,0.083,1.125
			c0.118,0.638,0.304,1.058,0.538,1.445c0.455,0.756,0.974,1.275,1.494,1.779c1.06,0.975,2.167,1.763,3.293,2.503
			c1.493,0.975,3.005,1.847,4.566,2.67c-1.208,1.429-2.401,2.855-3.576,4.301c-2.285,2.786-4.602,5.542-6.853,8.363
			c-0.437,0.554-0.891,1.125-1.345,1.68c-0.049-0.118-0.118-0.251-0.2-0.369c-0.253-0.455-0.489-0.975-0.758-1.513
			c-0.233-0.57-0.604-1.091-0.856-1.747c-0.269-0.621-0.571-1.259-0.738-1.965c-0.186-0.688-0.437-1.359-0.555-2.083
			c-0.15-0.705-0.285-1.392-0.436-2.064c-0.22-1.361-0.436-2.654-0.605-3.763c-0.218-2.218-0.437-3.712-0.437-3.712l-0.336-0.016
			c0,0-0.184,1.494-0.419,3.762c-0.067,1.142-0.135,2.469-0.167,3.914c0.033,0.722,0.049,1.459,0.083,2.216
			c0,0.772,0.151,1.545,0.234,2.317c0.067,0.79,0.236,1.579,0.387,2.368c0.1,0.789,0.404,1.563,0.689,2.285
			c0.351,0.722,0.771,1.394,1.309,1.965c0.269,0.285,0.555,0.554,0.824,0.789c0.016,0.016,0.033,0.016,0.049,0.034
			c-1.158,1.443-2.316,2.888-3.441,4.35l-0.085,0.118c-0.118,0.167-0.167,0.385-0.118,0.587c0.085,0.318,0.169,0.538,0.269,0.772
			c0.085,0.234,0.203,0.453,0.32,0.673c0.251,0.42,0.52,0.821,0.84,1.192c0.622,0.738,1.359,1.359,2.167,1.83
			c0.42,0.218,0.84,0.437,1.276,0.587c0.42,0.186,0.873,0.286,1.311,0.403c0.891,0.202,1.779,0.286,2.67,0.318
			c-0.874-0.184-1.747-0.42-2.536-0.754c-0.156-0.072-0.308-0.143-0.46-0.214l2.165-2.728l-2.847,2.36
			c-0.005-0.003-0.01-0.005-0.016-0.008c-0.369-0.202-0.706-0.47-1.04-0.705c-0.32-0.271-0.613-0.553-0.881-0.852l8.379-9.43
			l-9.129,8.434c-0.234-0.353-0.403-0.723-0.538-1.075c-0.065-0.2-0.134-0.386-0.184-0.571c0-0.032-0.017-0.049-0.017-0.083
			c1.427-1.36,2.854-2.738,4.265-4.132c0.489-0.487,0.974-0.958,1.479-1.462c0.571-0.537,1.142-1.108,1.712-1.663
			c2.586-2.501,5.089-5.087,7.643-7.625c1.292-1.275,2.585-2.586,3.861-3.879l1.529-1.579c0.722-0.738,1.445-1.478,2.168-2.216
			l7.523-7.727l14.865-15.501c1.207-1.177,2.367-2.536,3.61-3.461c1.26-1.023,2.67-1.981,4.099-2.889
			c2.854-1.763,5.928-3.358,8.834-4.282c0.369-0.118,0.722-0.218,1.074-0.285C260.407,67.159,258.409,69.98,256.377,72.65z
			 M235.45,141.562c-0.218,0.051-0.487,0.084-0.789,0.1c-0.366,0-0.782-0.027-1.215-0.065c1.406-4.787,0.922-13.654,0.922-13.654
			s-0.229,8.508-3.098,13.346c-1.222-0.21-2.422-0.449-3.608-0.722c1.36-2.231,2.392-6.455,2.392-6.455s-1.399,4.21-3.56,6.184
			c-0.297-0.072-0.611-0.138-0.902-0.21c-2.15-0.538-4.131-1.144-5.844-1.781c-1.696-0.654-3.141-1.344-4.233-2.032
			c-1.107-0.671-1.847-1.395-2.183-1.931c-0.318-0.504-0.151-0.739-0.167-0.756c0.016-0.017,0.134-0.32,0.636-0.808
			c0.505-0.486,1.278-1.174,2.335-1.98c1.058-0.806,2.335-1.78,3.812-2.889c1.479-1.125,3.159-2.403,4.904-3.913
			c0.925-0.808,1.867-1.68,2.788-2.638l2.419-2.788c0.823-1.042,1.612-2.267,2.301-3.427c0.672-1.106,1.443-2.25,2.301-3.206
			c0.186-0.22,0.386-0.438,0.587-0.622c0.185,0.671,0.353,1.395,0.503,2.133c0.102,0.503,0.204,1.024,0.286,1.545
			c0.505,2.89,0.874,5.861,1.125,8.817c0.236,2.974,0.371,5.945,0.269,8.817c-0.1,2.301-0.335,4.653-0.823,6.534l-0.1,0.318
			c0,0.034,0,0.067-0.017,0.102c-0.083,0.285-0.169,0.536-0.251,0.789c-0.187,0.487-0.403,0.872-0.554,1.074
			c-0.018,0.017-0.035,0.051-0.035,0.051l-0.018,0.017h-0.016l-0.049,0.051c0.017-0.017,0.017-0.034,0.033-0.051
			C235.568,141.527,235.518,141.545,235.45,141.562z"/>
		<g>
			
				<linearGradient id="SVGID_4_" gradientUnits="userSpaceOnUse" x1="91.6406" y1="-302.377" x2="104.4399" y2="-302.377" gradientTransform="matrix(0.8689 -0.4951 0.4951 0.8689 102.0212 522.2081)">
				<stop  offset="0" style="stop-color:#D26F31"/>
				<stop  offset="0.1426" style="stop-color:#D4772F"/>
				<stop  offset="0.3788" style="stop-color:#DA8B27"/>
				<stop  offset="0.5521" style="stop-color:#E09D1B"/>
				<stop  offset="0.8652" style="stop-color:#E5C51C"/>
				<stop  offset="0.9944" style="stop-color:#BF7022"/>
			</linearGradient>
			<path fill="url(#SVGID_4_)" d="M43.075,220.43c2.014-1.18,2.003-9.129,2.003-9.129l-8.242-4.852
				c0.635-1.081,0.694-2.459,0.031-3.625c-0.989-1.733-3.196-2.339-4.932-1.35c-1.735,0.987-2.342,3.196-1.354,4.93
				c0.678,1.191,1.927,1.846,3.208,1.828l0.166,9.402C33.956,217.635,41.019,221.634,43.075,220.43z"/>
			<path fill="#000100" d="M43.346,220.934c-2.242,1.277-8.448-2.109-9.672-2.799c-0.179-0.097-0.289-0.283-0.292-0.486
				l-0.154-8.874c-1.308-0.155-2.48-0.92-3.145-2.084c-1.142-2.006-0.439-4.569,1.57-5.711c2.007-1.144,4.568-0.443,5.711,1.562
				c0.643,1.13,0.72,2.498,0.225,3.685l7.783,4.583c0.167,0.1,0.279,0.289,0.279,0.492c0.001,1.381-0.099,8.344-2.288,9.623
				C43.361,220.929,43.349,220.932,43.346,220.934z M34.523,217.297c2.812,1.554,7.063,3.321,8.253,2.641l0.285,0.5l-0.275-0.502
				c1.153-0.677,1.689-5.152,1.719-8.309l-7.953-4.683c-0.277-0.162-0.366-0.512-0.205-0.784c0.548-0.941,0.561-2.109,0.023-3.052
				c-0.832-1.458-2.696-1.969-4.154-1.137c-1.458,0.83-1.97,2.693-1.137,4.152c0.551,0.967,1.584,1.559,2.702,1.532
				c0.316-0.002,0.576,0.253,0.579,0.565L34.523,217.297z"/>
			
				<linearGradient id="SVGID_6_" gradientUnits="userSpaceOnUse" x1="128.604" y1="-302.3774" x2="141.4043" y2="-302.3774" gradientTransform="matrix(0.8689 -0.4951 0.4951 0.8689 102.0212 522.2081)">
				<stop  offset="0" style="stop-color:#D26F31"/>
				<stop  offset="0.1426" style="stop-color:#D4772F"/>
				<stop  offset="0.3788" style="stop-color:#DA8B27"/>
				<stop  offset="0.5521" style="stop-color:#E09D1B"/>
				<stop  offset="0.8652" style="stop-color:#E5C51C"/>
				<stop  offset="0.9944" style="stop-color:#BF7022"/>
			</linearGradient>
			<path fill="url(#SVGID_6_)" d="M74.947,202.271c2.083-1.156,2.249-9.27,2.249-9.27l-8.009-4.938
				c0.669-1.087,0.74-2.501,0.064-3.691c-0.986-1.732-3.197-2.338-4.934-1.351c-1.739,0.989-2.339,3.198-1.353,4.934
				c0.666,1.165,1.881,1.817,3.133,1.822l-0.023,9.56C66.073,199.338,72.9,203.403,74.947,202.271z"/>
			<path fill="#000100" d="M75.24,202.762c-0.001,0-0.011,0.004-0.018,0.007c-2.217,1.231-8.256-2.232-9.444-2.935
				c-0.177-0.104-0.28-0.298-0.28-0.498l0.024-9.027c-1.273-0.181-2.411-0.941-3.052-2.068c-1.146-2.011-0.443-4.569,1.566-5.713
				c2.004-1.143,4.568-0.444,5.709,1.563c0.665,1.164,0.727,2.56,0.192,3.766l7.555,4.658c0.172,0.106,0.274,0.295,0.274,0.495
				C77.733,194.417,77.481,201.482,75.24,202.762z M66.641,199.013c2.729,1.583,6.857,3.408,8.027,2.759l0.289,0.495l-0.285-0.5
				c1.194-0.679,1.843-5.239,1.943-8.452l-7.727-4.763c-0.274-0.164-0.354-0.52-0.187-0.787c0.584-0.95,0.604-2.139,0.049-3.11
				c-0.826-1.453-2.689-1.966-4.148-1.135c-1.461,0.832-1.97,2.695-1.145,4.154c0.538,0.943,1.553,1.525,2.641,1.532
				c0.316,0.003,0.572,0.259,0.571,0.577L66.641,199.013z"/>
			
				<linearGradient id="SVGID_8_" gradientUnits="userSpaceOnUse" x1="75.6035" y1="-302.0977" x2="157.4336" y2="-302.0977" gradientTransform="matrix(0.8689 -0.4951 0.4951 0.8689 102.0212 522.2081)">
				<stop  offset="0" style="stop-color:#D26F31"/>
				<stop  offset="0.1426" style="stop-color:#D4772F"/>
				<stop  offset="0.3788" style="stop-color:#DA8B27"/>
				<stop  offset="0.5521" style="stop-color:#E09D1B"/>
				<stop  offset="0.8652" style="stop-color:#E5C51C"/>
				<stop  offset="0.9944" style="stop-color:#BF7022"/>
			</linearGradient>
			<path fill="url(#SVGID_8_)" d="M80.001,177.284c-1.66,0.228-3.37-0.548-4.254-2.098c-1.156-2.027-0.451-4.612,1.584-5.773
				c2.032-1.156,4.62-0.453,5.773,1.582c1.158,2.032,0.449,4.619-1.583,5.773c0,0,10.617,26.893,9.823,33.91L66.643,224.75
				l-24.697,14.072c-6.442-2.895-24.16-25.732-24.16-25.732c-2.035,1.155-4.62,0.446-5.778-1.582
				c-1.156-2.036-0.448-4.619,1.583-5.777c2.032-1.159,4.617-0.449,5.78,1.583c0.877,1.547,0.671,3.411-0.369,4.73l0.366,0.216
				c2.782,1.737,20.996,12.91,25.696,10.233c5.226-2.979-0.038-33.198-0.038-33.198l-0.015-0.05
				c-2.365,0.716-4.994-0.273-6.271-2.508c-1.481-2.6-0.574-5.916,2.029-7.403c2.605-1.482,5.921-0.57,7.397,2.032
				c1.274,2.237,0.782,4.998-1.037,6.671l0.038,0.041c0,0,23.308,19.936,28.537,16.955c4.635-2.642,4.386-23.479,4.304-27.184
				L80.001,177.284z"/>
			<path fill="#000100" d="M91.63,211.175l-49.398,28.149c-0.164,0.089-0.356,0.097-0.521,0.023
				c-6.121-2.753-21.691-22.467-24.089-25.543c-2.227,0.982-4.881,0.139-6.113-2.016c-1.311-2.306-0.502-5.243,1.799-6.554
				c2.303-1.311,5.242-0.509,6.554,1.793c0.868,1.525,0.838,3.365-0.044,4.84c7.665,4.772,21.368,12.173,24.966,10.125
				c3.518-2.005,1.817-20.05-0.229-32.051c-2.498,0.478-5.024-0.671-6.306-2.923c-1.64-2.878-0.637-6.542,2.24-8.178
				c2.872-1.642,6.538-0.633,8.176,2.24c1.284,2.259,0.978,5.016-0.699,6.922c9.278,7.879,23.933,18.54,27.456,16.533
				c3.141-1.79,4.277-14.663,4.015-26.643c-1.724,0.01-3.316-0.904-4.19-2.426c-1.308-2.3-0.502-5.237,1.801-6.553
				c2.301-1.311,5.242-0.509,6.556,1.794c1.225,2.158,0.6,4.873-1.378,6.288c1.42,3.629,10.441,27.078,9.69,33.745
				C91.895,210.924,91.786,211.081,91.63,211.175z M41.92,238.181l48.883-27.854c0.464-7.22-9.71-33.082-9.814-33.346
				c-0.105-0.264,0.003-0.569,0.249-0.709c1.755-1,2.368-3.239,1.371-4.994c-1-1.755-3.241-2.366-4.996-1.369
				c-1.753,1-2.37,3.241-1.366,4.996c0.741,1.306,2.186,2.018,3.679,1.813c0.161-0.023,0.326,0.025,0.453,0.133
				c0.121,0.109,0.195,0.266,0.193,0.428l0.007,0.567c0.128,5.8,0.179,24.97-4.593,27.686c-5.419,3.087-26.777-14.954-29.193-17.02
				c-0.02-0.015-0.036-0.033-0.049-0.046l-0.031-0.041c-0.218-0.229-0.202-0.594,0.03-0.806c1.676-1.538,2.052-3.995,0.928-5.97
				c-1.327-2.326-4.294-3.136-6.618-1.817c-2.326,1.328-3.137,4.297-1.812,6.621c1.124,1.974,3.429,2.901,5.606,2.245
				c0.147-0.042,0.305-0.024,0.439,0.047c0.133,0.073,0.233,0.194,0.274,0.346l0.015,0.049c0.008,0.019,0.012,0.041,0.015,0.06
				c0.541,3.129,5.174,30.703-0.246,33.792c-4.801,2.734-21.329-7.149-26.28-10.246l-0.356-0.213
				c-0.141-0.084-0.241-0.224-0.271-0.388c-0.03-0.16,0.013-0.331,0.115-0.457c0.937-1.18,1.06-2.784,0.312-4.091
				c-0.994-1.754-3.232-2.365-4.989-1.366c-1.753,0.997-2.37,3.234-1.366,4.991c0.999,1.753,3.238,2.366,4.989,1.369
				c0.25-0.145,0.564-0.08,0.736,0.146C18.407,212.961,35.475,234.899,41.92,238.181z"/>
			
				<linearGradient id="SVGID_10_" gradientUnits="userSpaceOnUse" x1="87.8804" y1="-272.6699" x2="145.5874" y2="-272.6699" gradientTransform="matrix(0.8689 -0.4951 0.4951 0.8689 102.0212 522.2081)">
				<stop  offset="0" style="stop-color:#D26F31"/>
				<stop  offset="0.1426" style="stop-color:#D4772F"/>
				<stop  offset="0.3788" style="stop-color:#DA8B27"/>
				<stop  offset="0.5521" style="stop-color:#E09D1B"/>
				<stop  offset="0.8652" style="stop-color:#E5C51C"/>
				<stop  offset="0.9944" style="stop-color:#BF7022"/>
			</linearGradient>
			<path fill="url(#SVGID_10_)" d="M95.019,215.834c0.323,0.567,0.125,1.293-0.443,1.615l-48.08,27.396
				c-0.567,0.323-1.292,0.123-1.616-0.444l-2.981-5.229c-0.323-0.564-0.12-1.288,0.449-1.612l48.076-27.394
				c0.572-0.325,1.291-0.123,1.614,0.44L95.019,215.834z"/>
			<path fill="#000100" d="M94.858,217.945L46.779,245.34c-0.843,0.479-1.914,0.186-2.393-0.655l-2.983-5.228
				c-0.472-0.84-0.182-1.916,0.658-2.393l48.081-27.397c0.841-0.48,1.917-0.182,2.393,0.653l2.981,5.229
				C95.997,216.394,95.698,217.466,94.858,217.945z M42.624,238.058c-0.287,0.164-0.389,0.542-0.226,0.83l2.98,5.23
				c0.167,0.292,0.54,0.396,0.833,0.229l48.079-27.396c0.293-0.168,0.399-0.54,0.23-0.828l-2.977-5.232
				c-0.167-0.292-0.543-0.396-0.833-0.229L42.624,238.058z"/>
		</g>
	</g>
</g>
</svg>
