<?xml version="1.0" encoding="utf-8"?>
<!-- Generator: Adobe Illustrator 16.0.0, SVG Export Plug-In . SVG Version: 6.00 Build 0)  -->
<!DOCTYPE svg PUBLIC "-//W3C//DTD SVG 1.1//EN" "http://www.w3.org/Graphics/SVG/1.1/DTD/svg11.dtd">
<svg version="1.1" id="Capa_1" xmlns="http://www.w3.org/2000/svg" xmlns:xlink="http://www.w3.org/1999/xlink" x="0px" y="0px"
	 width="300px" height="300px" viewBox="0 0 300 300" enable-background="new 0 0 300 300" xml:space="preserve">
<g>
	<defs>
		<rect id="SVGID_7_" y="-320" width="300" height="299.999"/>
	</defs>
	<clipPath id="SVGID_2_">
		<use xlink:href="#SVGID_7_"  overflow="visible"/>
	</clipPath>
	<g clip-path="url(#SVGID_2_)">
		<g>
			<path fill="#000100" d="M291.158-21.537c-3.93-1.73-9.977-25.578-13.553-47.665v-1.596c0-0.789-0.555-1.478-1.328-1.629
				c-0.57-0.118-1.176-0.42-1.797-0.839c0.471-0.169,0.941-0.42,1.361-0.824c0.504-0.52,0.756-1.311,0.721-1.998
				c-0.016-0.707-0.217-1.345-0.451-1.932c-1.061-2.301-2.654-4.099-4.268-5.811c-1.629-1.714-3.377-3.241-5.156-4.753
				c-1.797-1.478-3.627-2.923-5.508-4.283c-3.729-2.737-7.76-5.055-11.758-7.339c-2.016-1.16-4.047-2.25-6.029-3.41
				c-1.98-1.158-3.963-2.334-5.928-3.542l-0.084-0.051l-0.102-0.017c-2.098-0.403-4.197-0.84-6.281-1.311l-6.281-1.461l-3.023-0.705
				l2.133,2.401l4.855,5.493c-3.141-2.604-6.734-4.519-10.33-6.282c-4.854-2.285-9.824-4.233-14.965-5.878l-0.738-0.234
				l-0.486,0.722c-2.318,3.477-4.604,6.969-6.836,10.48c-1.277,0.604-2.553,1.242-3.879,1.763c-1.598,0.638-3.193,1.311-4.855,1.831
				c-1.629,0.554-3.293,1.041-4.971,1.461c-1.662,0.437-3.359,0.789-5.057,1.091c-3.408,0.554-6.852,0.925-10.277,1.109
				c-1.713,0.051-3.428,0.151-5.156,0.102c-1.713,0.033-3.426-0.016-5.139-0.067c-1.697-0.067-3.41-0.118-5.123-0.269
				c-1.715-0.1-3.41-0.285-5.123-0.471c-3.393-0.403-6.803-0.923-10.162-1.645c-1.68-0.336-3.357-0.705-5.037-1.125
				c-1.662-0.438-3.342-0.858-4.988-1.361c-2.838-0.805-5.643-1.747-8.414-2.821l-1.461-2.269c-1.125-1.696-2.268-3.392-3.443-5.088
				c-1.191-1.679-2.385-3.359-3.846-5.039c-0.354-0.419-0.756-0.856-1.227-1.294l-0.387-0.336c-0.168-0.133-0.42-0.302-0.621-0.437
				c-0.135-0.083-0.135-0.083-0.201-0.116l-0.336-0.169l-0.402-0.167c-1.076-0.471-2.252-0.791-3.461-0.974
				c-1.209-0.169-2.469-0.186-3.711,0.051c-0.623,0.1-1.244,0.267-1.848,0.487c-0.639,0.25-1.125,0.453-1.896,0.99l-0.27,0.184
				l-0.201,0.269c-1.043,1.512-2.068,3.041-3.092,4.568c-0.654,0.287-1.393,0.622-2.148,0.993c0.117-0.186,0.252-0.353,0.367-0.538
				l1.211-1.696l-1.998,0.083l-7.021,0.302c-2.352,0.118-4.686,0.151-7.037,0.185h-0.1l-0.068,0.017
				c-2.469,0.923-4.904,1.881-7.34,2.855c-2.418,0.974-4.871,1.914-7.287,2.939c-2.42,1.025-4.82,2.132-7.174,3.325
				c-1.191,0.573-2.334,1.243-3.492,1.899c-1.143,0.654-2.25,1.376-3.359,2.132c-1.109,0.705-2.166,1.545-3.225,2.352
				c-1.041,0.822-2.084,1.68-3.074,2.587c-0.975,0.907-1.93,1.847-2.82,2.888c-0.908,0.991-1.748,2.083-2.504,3.208
				c-0.352,0.587-0.721,1.158-1.057,1.763c-0.303,0.622-0.605,1.243-0.891,1.865l-0.654,1.981c-0.119,0.689-0.27,1.36-0.369,2.048
				c-0.02,0.689-0.068,1.378-0.035,2.067c0.102,0.638,0.15,1.292,0.27,1.897c0.016,0.049,0.016,0.083,0.033,0.135
				c0.201,0.654,0.369,1.309,0.604,1.93l0.018,0.035h-3.107c-0.922,0-1.68,0.756-1.68,1.679v1.612
				c-1.512,11.37-6.768,41.954-12.982,48.689c-0.15,0.151-0.268,0.334-0.334,0.52l-1.311,3.375
				c-0.068,0.202-0.119,0.403-0.119,0.605V0.363c0,0.453,0.186,0.873,0.504,1.193c0.32,0.318,0.74,0.486,1.176,0.486
				c0.018,0,0.018,0,0.035,0l271.693-3.779c0.74-0.016,1.377-0.486,1.596-1.191l5.039-16.578
				C292.334-20.329,291.947-21.201,291.158-21.537z M227.605-107.596l3.141,0.42c2.082,0.285,4.199,0.589,6.266,0.958
				c-0.035-0.016-0.051-0.034-0.084-0.051l0.168,0.067c-0.033,0-0.051-0.017-0.084-0.017c1.947,1.125,3.879,2.334,5.76,3.594
				c1.916,1.26,3.762,2.637,5.627,3.997c1.848,1.361,3.678,2.739,5.508,4.131c1.814,1.378,3.662,2.739,5.51,4.066
				c3.695,2.687,7.373,5.374,10.781,8.331c1.664,1.478,3.359,3.023,4.469,4.786c0.453,0.773,0.789,1.562,0.555,2.25
				c-0.018-0.318-0.119-0.604-0.254-0.823c-0.789-1.411-1.98-2.2-3.123-3.006c-1.176-0.772-2.334-1.443-3.492-2.149
				c-0.186-0.118-0.387-0.236-0.57-0.336c-0.707-0.437-1.395-0.856-2.1-1.26c-0.02,0-0.02,0-0.02,0
				c-0.25-0.167-0.52-0.32-0.787-0.471c-4.652-2.737-9.355-5.375-14.059-7.994l-7.07-3.879c-2.369-1.26-4.754-2.537-6.971-3.897
				c-0.303-0.169-0.52-0.336-0.789-0.503l-0.369-0.252c-0.135-0.1-0.117-0.1-0.201-0.151l-0.084-0.051h-0.018l-0.102-0.134
				l-0.082-0.083l-0.338-0.386l-0.688-0.756c-0.857-1.009-1.881-1.983-2.854-2.957C230.023-105.362,228.832-106.487,227.605-107.596
				z M273.977-74.14c-0.1,0.085-0.201,0.169-0.318,0.236c-1.242-1.025-2.502-2.486-3.596-3.98c0.32,0.134,0.639,0.285,0.943,0.436
				c1.105,0.605,2.35,1.209,3.039,2.083C274.363-74.929,274.432-74.542,273.977-74.14z M196.014-99.214
				c2.504-4.484,5.039-8.969,7.625-13.402c4.77,1.26,9.49,2.939,14.023,4.988c2.385,1.108,4.705,2.317,6.92,3.695
				c2.166,1.443,4.215,3.055,5.861,4.971l1.109,1.527c0.336,0.538,0.672,1.127,0.99,1.698c0.623,1.141,1.244,2.317,1.814,3.493
				c1.176,2.351,2.25,4.753,3.209,7.206c0.939,2.452,1.813,4.92,2.502,7.423c0.334,1.242,0.639,2.501,0.789,3.712
				c0.084,0.604,0.117,1.208,0.1,1.729c-0.033,0.202-0.049,0.387-0.084,0.521c0.135,0.017,0.135,0.033,0.135,0.033
				c-0.051,0-0.066,0.051-0.135,0.051c-0.031,0.034-0.051,0.051-0.051,0.051c0-0.017,0.02-0.017,0.02-0.035
				c0.016-0.033,0.016-0.067,0.031-0.1l-0.973-0.185l-1.965-0.385l-3.914-0.724l-7.859-1.394c-5.24-0.873-10.498-1.68-15.789-2.417
				c-2.635-0.369-5.273-0.74-7.943-1.007c-1.344-0.134-2.688-0.252-4.047-0.354l-2.066-0.117c-0.738-0.016-1.461-0.016-2.25,0.017
				c-0.555,0.067-1.125,0.185-1.664,0.32c-0.016,0-0.334,0.167-0.469,0.218l-0.035,0.033l-0.051,0.034
				c-0.1,0.067-0.318,0.235-0.451,0.386c-0.707,0.772-0.707,1.243-0.789,1.763c-0.02,0.772,0.166,1.243,0.285,1.528
				c0.268,0.638,0.504,0.991,0.756,1.343c0.234,0.353,0.469,0.656,0.705,0.941c0.939,1.158,1.898,2.132,2.854,3.106
				c1.916,1.949,3.881,3.763,5.846,5.577l11.756,10.699c1.814,1.645,3.645,3.343,5.174,5.022c-0.605,0.318-1.244,0.62-1.865,0.907
				c-4.734,2.216-9.623,4.282-14.494,6.331l-14.629,6.198l-14.66,6.213c-4.889,2.067-9.742,4.217-14.611,6.333
				c-4.855,2.132-9.742,4.215-14.563,6.449l-7.24,3.359c-1.98,0.958-3.945,1.898-5.877,2.99c3.291-3.711,6.5-7.49,9.725-11.252
				c1.762-2.049,3.492-4.132,5.223-6.215l0.807-0.974l0.018-0.016l0.016-0.017l0.033-0.035l4.301-5.222
				c1.479-1.814,2.955-3.645,4.434-5.458l0.016-0.018c1.932-2.385,3.846-4.77,5.744-7.187c3.359-4.25,6.736-8.499,10.012-12.814
				c3.273-4.317,6.584-8.617,9.74-13.05c0.789-1.093,1.563-2.234,2.352-3.359c0.789-1.092,1.563-2.234,2.301-3.426
				c0.369-0.622,0.738-1.125,1.107-1.83l1.025-2.049c0.555-1.21,1.041-2.554,1.645-3.662l1.73-3.494l1.883-3.559
				C193.395-94.496,194.738-96.846,196.014-99.214z M149.273-56.403c-2.504-3.09-4.871-6.315-7.17-9.606
				c-2.27-3.31-4.553-6.618-6.754-9.994l-3.996-6.249c1.227,0.656,2.469,1.21,3.746,1.68c3.424,1.278,7.02,1.983,10.596,2.335
				c3.594,0.302,7.189,0.269,10.732-0.067c3.545-0.32,7.055-0.875,10.516-1.58c5.793-1.209,11.436-2.921,16.91-5.071
				c-0.301,0.638-0.586,1.26-0.889,1.897l-0.117,0.218c-0.035,0.067-0.035,0.118-0.051,0.134c0,0-0.018,0-0.018,0.017v0.017
				l-0.033,0.051l-0.051,0.083l-0.201,0.336l-0.387,0.688c-0.27,0.471-0.723,1.075-1.059,1.596
				c-1.443,2.167-3.057,4.382-4.602,6.549L166.875-60.3l-9.338,12.664l-0.219-0.186C154.395-50.324,151.76-53.313,149.273-56.403z
				 M120.201-102.137c1.578,0.756,3.174,1.512,4.803,2.15c3.26,1.327,6.617,2.419,10.01,3.327c1.697,0.453,3.426,0.839,5.156,1.208
				c1.713,0.353,3.459,0.654,5.207,0.891c1.746,0.234,3.512,0.453,5.273,0.587c1.748,0.151,3.527,0.185,5.291,0.234
				c1.764,0,3.527-0.033,5.291-0.151c1.762-0.1,3.525-0.336,5.271-0.538c1.748-0.267,3.479-0.503,5.209-0.873
				c1.729-0.302,3.441-0.74,5.139-1.142c1.695-0.471,3.408-0.874,5.072-1.394c1.68-0.521,3.359-0.991,5.004-1.612
				c1.664-0.538,3.291-1.176,4.92-1.797c0.775-0.302,1.547-0.605,2.301-0.94c-0.301,0.436-0.586,0.889-0.871,1.343
				c-1.445,2.301-2.924,4.568-4.318,6.902l-2.115,3.511l-1.73,3.023c-2.838,0.923-5.744,1.663-8.631,2.385
				c-3.344,0.84-6.734,1.494-10.111,2.083c-3.393,0.587-6.803,0.991-10.195,1.192c-3.408,0.167-6.801,0.218-10.16-0.085
				c-3.359-0.251-6.668-0.821-9.826-1.863c-3.141-1.009-6.113-2.52-8.682-4.586l-0.018-0.017l-5.172-8.145l-4.484-6.919
				C118.605-102.926,119.395-102.523,120.201-102.137z M97.006-115.439c0,0,0-0.017,0.018-0.017c0.168-0.083,0.42-0.185,0.605-0.234
				c0.352-0.102,0.721-0.202,1.107-0.236c0.758-0.1,1.545-0.067,2.318,0.084c0.789,0.152,1.596,0.371,2.369,0.74l0.166,0.067
				l0.119,0.067h0.016c0.035,0.033,0.119,0.067,0.119,0.083v0.017l0.166,0.169c0.27,0.269,0.555,0.571,0.84,0.923
				c1.16,1.427,2.301,3.09,3.395,4.737c1.09,1.662,2.166,3.359,3.24,5.071l6.332,10.346c2.117,3.459,4.283,6.885,6.467,10.33
				c2.166,3.442,4.432,6.818,6.734,10.193c2.301,3.359,4.635,6.718,7.121,9.977c2.469,3.257,5.021,6.482,7.775,9.574
				c2.586,2.888,5.324,5.709,8.48,8.178c0,0.134-0.016,0.252-0.031,0.403c-0.051,0.42-0.17,0.907-0.305,1.378
				c-0.133,0.436-0.285,0.873-0.451,1.31l-5.979,8.112l-4.771,6.565l-2.064,2.89c-1.244-0.941-2.604-1.698-3.949-2.436
				c-1.846-1.025-3.744-1.949-5.625-2.872c-3.795-1.848-7.643-3.51-11.488-5.173l-11.588-4.872
				c-3.848-1.594-7.709-3.19-11.453-4.904c-1.85-0.873-3.746-1.729-5.359-2.703c-0.186-0.118-0.369-0.236-0.537-0.353l0.018-0.018
				c0.268-0.369,0.57-0.754,0.873-1.125c1.26-1.529,2.688-3.023,4.08-4.535c1.428-1.51,2.871-2.988,4.334-4.466l8.75-8.936
				c2.922-2.974,5.877-5.946,8.834-8.885l2.771-2.737l-3.779,0.083c-4.029,0.083-7.895,0.689-11.723,1.343l-11.438,2.066
				c-3.795,0.622-7.607,1.26-11.42,1.443c-1.883,0.085-3.797,0.085-5.559-0.285c-0.875-0.184-1.715-0.487-2.27-0.974
				c-0.535-0.487-0.756-1.142-0.688-1.931c0.051-0.336,0.102-0.958,0.219-1.311c0.1-0.42,0.234-0.84,0.385-1.292
				c0.287-0.874,0.639-1.747,1.025-2.604c0.789-1.729,1.68-3.408,2.619-5.071c1.865-3.343,3.914-6.583,6.049-9.775
				c2.131-3.208,4.35-6.347,6.6-9.472C92.625-109.51,94.773-112.516,97.006-115.439z M32.279-82.301
				c0.168-0.589,0.369-1.176,0.537-1.747l0.773-1.679l0.939-1.58c0.352-0.52,0.738-1.007,1.092-1.511
				c0.789-0.958,1.596-1.916,2.486-2.805c0.873-0.907,1.83-1.73,2.787-2.554c0.957-0.839,1.947-1.612,2.973-2.385
				c1.043-0.74,2.066-1.494,3.123-2.199c1.041-0.756,2.15-1.412,3.209-2.134l3.258-2.083c2.168-1.376,4.4-2.687,6.684-3.946
				c1.125-0.638,2.27-1.243,3.428-1.849c1.143-0.62,2.334-1.158,3.51-1.712c1.158-0.555,2.367-1.042,3.578-1.545
				c1.158-0.487,2.35-0.924,3.525-1.344h-0.066l0.168-0.034c-0.033,0.017-0.066,0.017-0.102,0.034
				c2.334,0.017,4.637,0.067,6.971,0.167l4.938,0.218c-1.074,1.243-2.133,2.486-3.174,3.746l-4.064,4.955
				c0.15-0.051,0.285-0.085,0.438-0.134l-0.758,0.52l0.32-0.386c-2.268,0.688-4.484,1.411-6.701,2.149
				c-2.369,0.756-4.719,1.579-7.07,2.436c-2.334,0.874-4.67,1.73-7.004,2.621L51.24-94.16l-0.1,0.051
				c-0.305,0.017-0.605,0.135-0.857,0.336c-0.018,0.016-0.051,0.051-0.117,0.1l-5.727,2.536l-3.41,1.747
				c-1.092,0.656-2.199,1.26-3.242,2l-1.561,1.125c-0.521,0.403-0.992,0.84-1.496,1.26c-0.906,0.823-1.746,1.73-2.469,2.788
				C32.279-82.252,32.279-82.269,32.279-82.301z M31.977-78.708c0.234-0.907,0.789-1.73,1.377-2.485
				c0.738-0.874,1.629-1.663,2.588-2.352c0.486-0.336,0.955-0.689,1.477-1.007l1.563-0.891c1.041-0.589,2.166-1.042,3.225-1.596
				l0.051-0.017c-3.309,2.923-7.055,6.533-10.027,10.11c-0.117-0.554-0.168-1.125-0.252-1.661V-78.708z M284.205-5.078L15.416-1.332
				V-19.69l1.092-2.787c8.113-9.39,13.42-48.706,13.639-50.385c0.016-0.085,0.016-0.153,0.016-0.236l2.486-0.033
				c0.504,0,0.992-0.236,1.309-0.638c5.863-7.39,16.09-15.553,18.039-17.081c0.018,0,0.018,0,0.018-0.018l0.502-0.184l6.92-2.721
				c2.301-0.84,4.604-1.73,6.904-2.586c2.301-0.907,4.584-1.831,6.902-2.654c2.318-0.856,4.635-1.73,6.953-2.52l0.486-0.167
				l0.254-0.354l4.045-5.591c0.488-0.64,0.941-1.311,1.395-1.966c0.756-0.486,1.664-0.991,2.639-1.478
				c-2.654,4.099-5.225,8.247-7.658,12.48c-1.934,3.375-3.848,6.767-5.561,10.279c-0.855,1.763-1.68,3.542-2.385,5.391
				c-0.354,0.923-0.705,1.847-0.99,2.821c-0.135,0.471-0.27,0.974-0.369,1.512c-0.135,0.57-0.152,0.905-0.221,1.545
				c-0.1,1.125,0.387,2.501,1.361,3.257c0.939,0.756,1.998,1.092,3.008,1.294c2.031,0.402,4.012,0.353,5.977,0.251
				c3.914-0.234,7.76-0.756,11.59-1.327c3.846-0.504,7.658-1.109,11.488-1.478c2.436-0.234,4.887-0.471,7.305-0.538
				c-2.148,1.881-4.283,3.763-6.414,5.66c-1.58,1.394-3.125,2.805-4.654,4.25c-1.527,1.445-3.055,2.889-4.566,4.366
				c-2.973,3.006-5.945,5.929-8.699,9.339c-0.354,0.437-0.689,0.891-1.043,1.378c-0.168,0.251-0.336,0.503-0.521,0.805
				c-0.15,0.286-0.352,0.571-0.57,1.26l-0.033,0.102v0.049l-0.018,0.018c-0.066,0.318-0.033,0.167-0.049,0.285
				c-0.051,0.386-0.018,0.755,0.049,1.04c0.17,0.572,0.387,0.874,0.555,1.109c0.371,0.487,0.656,0.705,0.941,0.958
				c0.555,0.437,1.059,0.74,1.561,1.042c2,1.142,3.93,1.998,5.895,2.838c7.844,3.242,15.756,5.945,23.648,8.717l11.824,4.148
				c1.965,0.705,3.912,1.445,5.828,2.25c1.359,0.605,2.771,1.16,4.064,1.881L138.121-21c-3.123,4.417-6.314,8.8-9.371,13.267
				l-0.521,0.74l0.84-0.369c4.787-2.1,9.859-3.813,14.83-5.644l14.949-5.442c4.986-1.831,9.992-3.594,14.963-5.475l14.898-5.609
				c4.953-1.898,9.924-3.795,14.863-5.762c4.938-1.998,9.842-3.979,14.779-6.18c1.26-0.555,2.451-1.091,3.795-1.863
				c0.17-0.102,0.336-0.202,0.555-0.336l0.152-0.102c0.049-0.033,0.084-0.049,0.25-0.184c0.287-0.218,0.539-0.487,0.74-0.74
				l0.084-0.1c0,0,0.016,0,0.016-0.018c0,0,0-0.017,0.018-0.033v-0.017c0.051-0.085,0.135-0.236,0.285-0.538
				c0.051-0.151,0.102-0.32,0.135-0.504c0.033-0.169,0.051-0.336,0.066-0.521c0-0.151,0-0.218-0.016-0.334
				c-0.018-0.202-0.051-0.42-0.1-0.589c-0.152-0.538-0.32-0.856-0.455-1.109c-0.57-0.939-1.059-1.461-1.545-2.032
				c-1.949-2.148-3.914-3.93-5.895-5.744c-3.947-3.628-8.029-7.02-11.975-10.513c-1.965-1.747-3.93-3.51-5.795-5.291
				c-0.486-0.469-0.975-0.957-1.445-1.443l0.891,0.016c1.275,0.084,2.586,0.167,3.879,0.269l7.879,0.738
				c5.24,0.538,10.496,1.16,15.752,1.814l7.895,0.941l3.93,0.503l1.965,0.269l0.99,0.134c0.17,0.017,0.572,0.033,0.859,0.033
				c0.369-0.084,0.721-0.118,1.074-0.369c0.721-0.437,0.973-1.092,1.156-1.596c0.119-0.487,0.17-0.924,0.186-1.343
				c0-0.789-0.1-1.529-0.217-2.234c-0.254-1.395-0.639-2.721-1.059-4.014c-0.855-2.57-1.865-5.073-2.955-7.509
				c-1.125-2.434-2.285-4.853-3.529-7.221c-0.621-1.176-1.275-2.351-1.965-3.51l-0.451-0.756c0.066,0.067,0.135,0.134,0.184,0.169
				l0.453,0.334c0.285,0.202,0.588,0.455,0.873,0.622c2.336,1.563,4.652,2.939,6.986,4.301c1.178,0.705,2.369,1.327,3.563,1.998
				c1.176,0.638,2.352,1.311,3.561,1.916c4.803,2.501,9.641,4.904,14.545,7.171l0.855,0.403c0,0.067,0.033,0.118,0.066,0.184
				c0.504,0.925,4.703,8.516,9.658,10.649v0.504c0,0.083,0,0.184,0.016,0.269c1.193,7.373,7.223,42.677,14.275,49.444L284.205-5.078
				z"/>
		</g>
	</g>
</g>
<g>
	<defs>
		<rect id="SVGID_29_" width="300" height="300"/>
	</defs>
	<clipPath id="SVGID_4_">
		<use xlink:href="#SVGID_29_"  overflow="visible"/>
	</clipPath>
	<g clip-path="url(#SVGID_4_)">
		<path fill="#BAD9D3" d="M0,0v300h300V0H0z M265.704,175.747c-0.923,2.136-2.642,4.01-4.577,5.267
			c-0.751,0.515-1.549,0.925-2.341,1.284c-6.153,5.611-26.126,22.029-52.542,25.566l10.83,14.364l-26.896,32.188l-0.217,0.077
			l-53.382,18.87l-0.367-0.512l-30.551-42.367l-1.887-27.909c-0.092-0.054-0.19-0.098-0.282-0.152
			c-3.066-1.782-5.943-3.892-8.645-6.175c-0.563-0.468-1.126-0.97-1.67-1.472c-1.616,0.35-3.233,0.683-4.847,0.996
			c-2.518,0.502-5.03,0.938-7.562,1.371c-2.528,0.433-5.057,0.833-7.597,1.146c-2.542,0.333-5.064,0.632-7.67,0.894l-0.051,0.014
			c-1.336,0.128-2.511-0.845-2.641-2.18c-0.044-0.391,0.01-0.789,0.148-1.136c1.794-4.512,3.588-9.038,5.434-13.529l5.533-13.507
			c0.33-0.805,0.676-1.61,1.022-2.416c-1.773-5.093-3.053-10.312-3.806-15.581c-0.503-3.392-0.823-6.792-0.956-10.197
			c-0.07-2.391-0.077-4.748,0.039-7.146c-11.422-3.688-51.642-36.5-56.68-46.77c-1.483-3.04-0.804-5.021,0.051-6.153
			c1.507-2.02,3.812-5.105,40.951-1.475c13.187,1.277,26.213,2.966,31.89,3.729c0.495-1.367,0.988-2.383,1.572-3.513
			c0.601-1.146,1.25-2.269,1.965-3.323c1.428-2.124,3.021-4.158,4.819-5.977c1.813-1.817,3.727-3.564,5.842-5.013
			c1.019-0.802,2.147-1.43,3.229-2.127c1.111-0.646,2.253-1.238,3.395-1.815c2.314-1.084,4.689-2.065,7.133-2.788
			c2.446-0.742,4.934-1.295,7.429-1.713l3.744-0.485l3.765-0.231c1.251-0.116,2.487-0.015,3.734-0.013l1.866,0.018l1.858,0.135
			c1.224,0.1,2.466,0.15,3.684,0.319l3.656,0.519c2.436,0.337,4.809,0.938,7.186,1.437c2.354,0.651,4.727,1.235,7.005,2
			c2.295,0.799,4.612,1.514,6.831,2.442c0.214,0.097,0.443,0.175,0.658,0.271c0.659-0.401,1.321-0.785,1.997-1.169l6.021-3.371
			c1.04-0.549,1.979-1.102,3.104-1.646c1.307-0.551,2.45-0.841,3.675-1.111c2.416-0.507,4.863-0.658,7.315-0.576
			c4.92,0.154,9.859,1.499,14.282,3.963c0.163,0.093,0.325,0.186,0.487,0.297C248.325,48.342,248.97,51,249.6,53.608
			c0.479,1.994-0.697,5.361-5.311,16.799c-2.43,5.989-5.173,12.803-5.821,15.996c-0.09,0.449-0.298,0.859-0.567,1.181
			c0.096,0.089,0.174,0.193,0.271,0.284c2.51,2.709,4.856,5.579,6.995,8.624c1.044,1.52,2.068,3.073,3.007,4.674l0.708,1.214
			l0.368,0.659l0.319,0.591l1.233,2.355c0.786,1.623,1.617,3.368,2.314,5.071c0.338,0.86,0.695,1.704,1.019,2.58l0.881,2.639
			c0.524,1.794,1.017,3.587,1.354,5.422c0.353,1.836,0.587,3.699,0.701,5.588c0.101,1.873,0.081,3.772-0.124,5.646
			c-0.169,1.875-0.594,3.786-1.057,5.477l-0.043,0.2c-0.051,0.212-0.157,0.384-0.285,0.543c0.268,0.536,0.533,1.088,0.669,1.311
			c0.376,0.541,0.777,1.186,1.156,1.931c0.83,1.475,1.721,3.307,2.682,5.429c0.941,2.137,1.985,4.566,3.002,7.244
			c0.48,1.34,1.011,2.731,1.537,4.155c0.264,0.722,0.51,1.458,0.789,2.197c0.237,0.871,0.498,1.642,0.72,2.511
			c0.428,1.706,0.766,3.542,0.825,5.529C266.982,171.445,266.66,173.63,265.704,175.747z"/>
		<g>
			<path fill="#FFFFFF" d="M71.82,130.915c0,0,8.622-4.599,10.883-8.112c3.189-3.491,6.895-17.775,7.57-20.748l-1.149-15.497
				l-24.03-2.814l-40.435-2.215l-8.574,1.406l7.08,11.072l39.239,32.018L71.82,130.915z"/>
			<path fill="#FFFFFF" d="M87.755,141.537c0,0,4.553-1.913,11.097,1.41c6.545,3.323,2.077,1.053,2.077,1.053
				s12.304,7.105,17.584,13.041c5.279,5.936,6.769,11.035,6.769,11.035l1.893,8.385l-1.2,4.058l-2.225,2.988l-58.77,13.321
				L87.755,141.537z"/>
			<polygon fill="#FFFFFF" points="201.65,62.286 247.28,54.318 234.978,89.985 			"/>
			<path fill="#C7B299" d="M183.355,164.143l34.522-15.482l11.719-9.575l6.466-0.214l5.284,3.217l2.688-0.104l4.182-2.996
				l2.645-2.959l2.778,1.395c0,0,3.077,2.773,4.489,8.685c1.412,5.909,6.18,18.581,6.18,18.581l-1.634,11.7l-8.644,5.979l-8.26,8.11
				c0,0-30.852,14.942-44.528,15.435c-13.679,0.491-17.397,0.413-17.397,0.413l-6.197-22.803c0,0-0.27-6.433-0.151-8.572
				C177.497,174.951,178.607,167.233,183.355,164.143z"/>
			<g>
				<path fill="#000100" d="M161.957,132.742c-0.145,0.161-0.804,0.848-1.854,1.901c-0.607,0.621-1.4,1.284-2.334,2.042
					c-0.9,0.809-2.003,1.589-3.243,2.412c-0.613,0.455-1.306,0.803-2.001,1.219c-0.693,0.4-1.423,0.815-2.231,1.156
					c-1.556,0.74-3.274,1.402-5.116,1.873c-1.858,0.454-3.816,0.868-5.834,0.893c-2.027,0.106-4.082-0.106-6.117-0.42
					c-2.01-0.463-3.999-1.009-5.84-1.815c-1.856-0.776-3.568-1.762-5.143-2.805c-1.593-1.014-2.992-2.2-4.274-3.346
					c-1.267-1.146-2.38-2.318-3.359-3.448c-1.946-2.243-3.297-4.316-4.176-5.796c-0.753-1.286-1.144-2.148-1.233-2.354
					c0.111,0.123,0.729,0.846,1.776,1.963c1.159,1.24,2.851,2.947,5.001,4.832c2.168,1.868,4.781,3.912,7.832,5.644
					c1.498,0.889,3.141,1.617,4.802,2.298c1.677,0.715,3.452,1.146,5.232,1.514c1.799,0.316,3.619,0.552,5.407,0.482
					c1.801-0.02,3.56-0.193,5.259-0.521c1.686-0.36,3.322-0.775,4.848-1.313c0.771-0.229,1.479-0.576,2.185-0.856
					c0.706-0.299,1.407-0.546,2.032-0.881c1.281-0.637,2.472-1.178,3.48-1.778c1.023-0.583,1.94-1.054,2.64-1.536
					C160.966,133.328,161.765,132.851,161.957,132.742z"/>
			</g>
			<g>
				<g>
					<path fill="#000100" d="M230.442,131.294c-0.016,0,0.076,0.156,0.043,0.475c-0.018,0.319-0.128,0.802-0.427,1.321
						c-0.563,1.063-1.71,2.346-3.434,3.446c-0.89,0.539-1.908,1.021-3.169,1.34c-1.224,0.253-2.85,0.433-4.631-0.521
						c-0.864-0.485-1.644-1.318-2.066-2.183c-0.439-0.883-0.647-1.701-0.715-2.647l-0.031-0.338l-0.003-0.219l-0.009-0.454
						l0.002-0.353l0.029-0.234l0.028-0.487c0.036-0.652,0.104-1.306,0.188-1.957c0.208-1.335,0.483-2.665,1.026-3.998
						c0.562-1.314,1.293-2.703,2.629-3.775c0.653-0.535,1.464-0.945,2.3-1.151c0.835-0.189,1.66-0.18,2.374-0.038
						c1.447,0.299,2.486,0.994,3.308,1.661c0.804,0.699,1.385,1.455,1.834,2.136c0.451,0.697,0.717,1.368,0.887,1.932
						c0.171,0.564,0.195,1.039,0.178,1.355c-0.034,0.319-0.108,0.449-0.11,0.466c0,0-0.041-0.171-0.177-0.43
						c-0.106-0.225-0.392-0.545-0.741-0.917c-0.702-0.694-1.916-1.568-3.381-2.136c-0.727-0.275-1.523-0.438-2.166-0.37
						c-0.661,0.063-0.994,0.314-1.371,0.766c-0.361,0.451-0.738,1.222-0.993,2.132c-0.283,0.909-0.459,1.977-0.62,3.061
						c-0.045,0.536-0.127,1.088-0.175,1.657l-0.058,0.72l-0.036,0.671l0.012,0.1c-0.013,0.253,0.067,0.627,0.108,0.799
						c0.039,0.203,0.085,0.272,0.18,0.379c0.171,0.263,0.899,0.502,1.705,0.514c0.823,0.029,1.686-0.075,2.487-0.251
						c1.614-0.331,2.99-0.861,3.843-1.37c0.436-0.262,0.75-0.498,0.914-0.723C230.384,131.46,230.442,131.294,230.442,131.294z"/>
				</g>
				<g>
					<path fill="#000100" d="M250.19,131.938c0,0-0.222,0.023-0.589-0.017c-0.352-0.051-0.888-0.097-1.429-0.348
						c-0.575-0.215-1.195-0.568-1.771-1.138c-0.304-0.253-0.536-0.618-0.785-0.986c-0.268-0.351-0.393-0.828-0.555-1.239
						c-0.108-0.461-0.217-0.937-0.192-1.407c0.01-0.487,0.086-0.938,0.225-1.352c0.123-0.414,0.347-0.787,0.532-1.098
						c0.235-0.321,0.467-0.579,0.715-0.784c0.463-0.446,0.963-0.671,1.306-0.787c0.359-0.114,0.577-0.119,0.577-0.119
						s-0.028,0.216-0.063,0.567c-0.053,0.334-0.113,0.802-0.156,1.287c-0.07,1.006,0.029,1.919,0.271,2.757
						c0.105,0.225,0.11,0.443,0.231,0.668c0.123,0.227,0.16,0.48,0.299,0.724c0.121,0.242,0.189,0.498,0.328,0.742
						c0.121,0.241,0.226,0.499,0.331,0.74c0.208,0.483,0.42,0.898,0.536,1.24C250.116,131.716,250.19,131.938,250.19,131.938z"/>
				</g>
				<g>
					<g>
						<path fill="#000100" d="M168.799,124.793c0,0-1.382,2.547-10.623-3.813c-5.105-3.526-2.77,15.273-25.6,10.12
							c-16.248-3.666-17.732-16.193-17.732-16.193c-4.462-0.244-6.545,6.152-6.545,6.152c-5.379-20.9,11.079-21.699,9.056-23.121
							c-2.024-1.438-13.125,0.072-13.125,0.072s8.682-5.563,16.95-7.601c7.656-1.885,27.602-1.854,46.704,25.299
							C171.006,120.135,168.799,124.793,168.799,124.793z"/>
					</g>
					<g>
						<path fill="#FFFFFF" d="M126.213,116.804c-0.256,4.611,0.984,4.999,10.907,6.759c9.923,1.758,10.749-5.972,8.637-8.03
							c-13.297-12.964-18.525-1.607-18.525-1.607L126.213,116.804z"/>
					</g>
				</g>
				<path fill="#000100" d="M266.941,169.457c-0.06-1.987-0.397-3.823-0.825-5.529c-0.222-0.869-0.482-1.64-0.72-2.511
					c-0.279-0.739-0.525-1.476-0.789-2.197c-0.526-1.424-1.057-2.815-1.537-4.155c-1.017-2.678-2.061-5.107-3.002-7.244
					c-0.961-2.122-1.852-3.954-2.682-5.429c-0.379-0.745-0.78-1.39-1.156-1.931c-0.136-0.223-0.401-0.774-0.669-1.311
					c0.128-0.159,0.234-0.331,0.285-0.543l0.043-0.2c0.463-1.69,0.888-3.602,1.057-5.477c0.205-1.873,0.225-3.772,0.124-5.646
					c-0.114-1.889-0.349-3.752-0.701-5.588c-0.337-1.835-0.829-3.628-1.354-5.422l-0.881-2.639c-0.323-0.876-0.681-1.72-1.019-2.58
					c-0.697-1.703-1.528-3.448-2.314-5.071l-1.233-2.355l-0.319-0.591l-0.368-0.659l-0.708-1.214
					c-0.938-1.601-1.963-3.154-3.007-4.674c-2.139-3.045-4.485-5.915-6.995-8.624c-0.097-0.091-0.175-0.195-0.271-0.284
					c0.27-0.321,0.478-0.731,0.567-1.181c0.648-3.193,3.392-10.007,5.821-15.996c4.613-11.438,5.79-14.805,5.311-16.799
					c-0.63-2.608-1.274-5.267-46.908,5.759c-0.162-0.111-0.324-0.204-0.487-0.297c-4.423-2.464-9.362-3.809-14.282-3.963
					c-2.452-0.082-4.899,0.069-7.315,0.576c-1.225,0.271-2.368,0.561-3.675,1.111c-1.124,0.545-2.063,1.098-3.104,1.646
					l-6.021,3.371c-0.676,0.384-1.338,0.768-1.997,1.169c-0.215-0.097-0.444-0.175-0.658-0.271
					c-2.219-0.929-4.536-1.644-6.831-2.442c-2.278-0.765-4.651-1.349-7.005-2c-2.377-0.498-4.75-1.1-7.186-1.437l-3.656-0.519
					c-1.218-0.169-2.46-0.22-3.684-0.319l-1.858-0.135l-1.866-0.018c-1.247-0.002-2.483-0.104-3.734,0.013l-3.765,0.231
					l-3.744,0.485c-2.495,0.418-4.982,0.971-7.429,1.713c-2.443,0.723-4.818,1.704-7.133,2.788
					c-1.142,0.577-2.283,1.169-3.395,1.815c-1.081,0.697-2.21,1.325-3.229,2.127c-2.115,1.448-4.028,3.195-5.842,5.013
					c-1.798,1.818-3.392,3.853-4.819,5.977c-0.715,1.055-1.364,2.178-1.965,3.323c-0.584,1.13-1.077,2.146-1.572,3.513
					c-5.677-0.764-18.703-2.452-31.89-3.729c-37.14-3.631-39.444-0.545-40.951,1.475c-0.854,1.132-1.534,3.113-0.051,6.153
					c5.038,10.27,45.258,43.082,56.68,46.77c-0.116,2.397-0.109,4.755-0.039,7.146c0.133,3.405,0.453,6.806,0.956,10.197
					c0.753,5.27,2.032,10.488,3.806,15.581c-0.347,0.806-0.692,1.611-1.022,2.416l-5.533,13.507
					c-1.846,4.491-3.64,9.018-5.434,13.529c-0.139,0.347-0.192,0.745-0.148,1.136c0.13,1.335,1.305,2.308,2.641,2.18l0.051-0.014
					c2.605-0.262,5.128-0.561,7.67-0.894c2.54-0.313,5.068-0.714,7.597-1.146c2.531-0.433,5.044-0.869,7.562-1.371
					c1.613-0.313,3.23-0.646,4.847-0.996c0.544,0.502,1.106,1.004,1.67,1.472c2.701,2.283,5.578,4.393,8.645,6.175
					c3.063,1.8,6.241,3.353,9.517,4.677c3.271,1.321,6.633,2.347,10.033,3.188c3.385,0.892,6.837,1.402,10.275,1.876
					c3.444,0.407,6.895,0.663,10.322,0.698c3.446,0.089,6.883-0.025,10.293-0.244c3.412-0.266,6.795-0.585,10.152-1.091
					c3.373-0.505,6.703-1.097,10.02-1.772l4.955-1.093l4.625-1.21c0.017,0.02,0.017,0.02,0.032,0.001
					c2.882,0.53,5.691,0.835,8.476,0.987c33.255,1.821,59.388-19.575,66.593-26.144c0.792-0.359,1.59-0.77,2.341-1.284
					c1.936-1.257,3.654-3.131,4.577-5.267C266.66,173.63,266.982,171.445,266.941,169.457z M243.549,56.285
					c-0.465,0.095-1.145,0.246-1.961,0.461c-0.779,0.217-1.689,0.464-2.643,0.787c-0.943,0.354-1.95,0.733-2.955,1.11
					c-4.033,1.486-8.042,3.043-8.042,3.043l0.029,0.08c0,0,4.134-1.211,8.24-2.49c1.028-0.314,2.059-0.626,3.022-0.92
					c0.955-0.326,1.826-0.684,2.574-0.984c1.351-0.568,2.226-1.021,2.381-1.105c-0.193,0.144-0.596,0.451-1.081,0.906
					c-0.327,0.326-0.718,0.701-1.087,1.145c-0.356,0.451-0.71,0.954-1.074,1.448c-1.486,1.958-2.913,3.961-2.913,3.961l0.067,0.053
					c0,0,1.714-1.771,3.372-3.594c0.421-0.448,0.853-0.888,1.231-1.322c0.367-0.442,0.664-0.894,0.926-1.274
					c0.187-0.29,0.327-0.539,0.445-0.754c-0.943,2.947-2.916,7.819-4.466,11.684c-2.237,5.563-4.553,11.273-5.639,15.116
					c-1.247-1.178-2.517-2.29-3.835-3.372c-2.851-2.343-5.77-4.59-8.875-6.541c-1.547-0.976-3.124-1.938-4.74-2.834
					c-1.338-0.763-2.661-1.475-4.119-2.177c-0.481-0.75-1.03-1.47-1.598-2.189c-0.786-0.984-1.641-1.94-2.551-2.848
					c-0.128-0.125-0.272-0.251-0.4-0.359C222.428,59.88,237.495,56.805,243.549,56.285z M91.876,84.937
					c-0.02,0.051-0.056,0.101-0.075,0.147l-0.003-0.269C91.83,84.852,91.863,84.886,91.876,84.937z M185.213,202.609
					c-0.135-0.293-0.271-0.604-0.405-0.915l-0.924-2.185c-0.608-1.481-1.183-2.977-1.706-4.467c-1.08-3.003-2.058-6.05-2.76-9.168
					c-0.689-3.099-1.224-6.239-1.253-9.421c0.011-0.789,0.021-1.579,0.112-2.363c0.062-0.806,0.189-1.59,0.352-2.37
					c0.159-0.782,0.401-1.544,0.695-2.285l0.482-1.117l0.597-1.059c-0.539,0.609-1.079,1.251-1.504,1.97
					c-0.427,0.698-0.82,1.451-1.132,2.224c-0.312,0.774-0.592,1.583-0.787,2.396c-0.213,0.813-0.359,1.646-0.507,2.479
					c-0.469,3.339-0.451,6.721-0.095,10.054c0.338,3.333,0.933,6.628,1.714,9.867c0.398,1.619,0.831,3.241,1.316,4.832l0.512,1.676
					c-2.288,0.345-4.56,0.676-6.831,0.989c-3.251,0.41-6.5,0.755-9.744,0.997c-3.257,0.224-6.496,0.4-9.732,0.476
					c-3.246,0.009-6.476-0.001-9.677-0.193c-3.205-0.159-6.396-0.502-9.551-0.943c-3.138-0.474-6.269-1.065-9.319-1.854
					c-6.104-1.563-11.963-3.886-17.362-6.973c-1.566-0.896-3.079-1.868-4.534-2.923c0.051-0.016,0.103-0.029,0.153-0.042
					c2.491-0.639,4.938-1.412,7.4-2.136c2.453-0.84,4.9-1.632,7.29-2.595c1.204-0.473,2.421-0.894,3.596-1.434l3.547-1.538
					l0.105-0.046c0.121-0.062,0.225-0.123,0.331-0.233c0.64-0.605,1.25-1.296,1.678-2.062c0.461-0.748,0.741-1.574,0.972-2.387
					c0.444-1.642,0.431-3.273,0.281-4.828c-0.353-3.097-1.441-5.933-2.742-8.576c-1.336-2.647-2.967-5.126-4.864-7.349
					c-1.878-2.24-4.038-4.275-6.531-5.74c2.257,1.789,4.051,4.058,5.638,6.415c0.7,1.069,1.346,2.17,1.946,3.291l-20.546,12.703
					l22.114-9.431c0.129,0.312,0.273,0.62,0.398,0.934c0.5,1.289,0.932,2.626,1.245,3.971c0.112,0.502,0.201,1.01,0.287,1.516
					l-10.726,5.932l11.011-2.737c-0.015,1.064-0.145,2.1-0.458,3.033c-0.215,0.543-0.447,1.086-0.79,1.521
					c-0.24,0.39-0.562,0.71-0.896,1.01l-3.313,1.216c-1.168,0.457-2.367,0.797-3.564,1.184c-2.366,0.813-4.804,1.419-7.215,2.129
					c-2.438,0.624-4.848,1.298-7.299,1.837c-1.21,0.304-2.436,0.573-3.662,0.827c-1.226,0.268-2.465,0.52-3.71,0.789
					c-1.938,0.38-3.859,0.78-5.796,1.128c-0.547,0.122-1.091,0.225-1.633,0.313c-2.465,0.473-4.959,0.873-7.454,1.274l-7.463,1.122
					c-1.151,0.155-2.322,0.326-3.474,0.466c1.255-3.261,2.494-6.524,3.7-9.805l4.419-11.903l0.65-1.729l2.748-7.486l2.271-6.184
					l4.832-13.577c0,0,0-0.02,0.016-0.018c0.091-0.111,0.287-0.304,0.463-0.428c0.227-0.174,0.52-0.325,0.813-0.46
					c0.622-0.252,1.302-0.399,2.028-0.444c0.306-0.056,0.632-0.024,0.953-0.013l-3.73,10.487l6.926-10.048
					c0.111,0.022,0.222,0.049,0.331,0.07c0.743,0.243,1.509,0.402,2.232,0.712c0.741,0.275,1.484,0.535,2.206,0.859
					c0.72,0.343,1.481,0.62,2.184,0.996l2.127,1.092l-1.96-1.404c-0.646-0.472-1.349-0.864-2.03-1.305
					c-0.665-0.456-1.402-0.783-2.123-1.177c-0.701-0.39-1.476-0.667-2.232-1.014c-0.775-0.261-1.548-0.589-2.379-0.752
					c-0.417-0.072-0.814-0.195-1.249-0.236c-0.418-0.04-0.851-0.13-1.289-0.104c-0.874-0.031-1.786,0.054-2.675,0.323
					c-0.446,0.146-0.912,0.321-1.327,0.567c-0.456,0.295-0.802,0.493-1.27,1.074c-0.018,0.033-0.056,0.065-0.058,0.113l-0.055,0.1
					l-5.896,13.318c-0.328,0.772-0.672,1.543-1,2.315c-0.883-2.604-1.647-5.253-2.326-7.932c-0.785-3.138-1.417-6.334-1.881-9.556
					c-0.347-2.257-0.64-4.577-0.801-6.855c-0.067-0.643-0.099-1.282-0.114-1.924c0.396-0.162,0.777-0.345,1.156-0.543l0.71-0.381
					l0.382-0.198c0.362-0.182,0.699-0.449,1.047-0.666c0.331-0.234,0.697-0.433,1.014-0.7l0.949-0.772
					c0.335-0.251,0.62-0.555,0.922-0.825c0.3-0.271,0.586-0.556,0.853-0.862c0.569-0.572,1.06-1.221,1.565-1.847
					c0.457-0.666,0.896-1.315,1.287-2.016c0.781-1.37,1.434-2.831,1.837-4.34c-0.987,1.93-2.296,3.659-3.792,5.161l-14.435-6.879
					l12.595,8.539c-0.063,0.051-0.12,0.111-0.184,0.16c-0.282,0.236-0.598,0.455-0.911,0.656c-0.314,0.202-0.595,0.439-0.927,0.623
					l-4.391-1.966l2.62,2.902c-0.063,0.028-0.125,0.055-0.185,0.082c-0.327,0.151-0.643,0.335-1,0.449l-0.19,0.074
					c0,0-2.494-0.862-2.363-0.835c-5.957-1.588-46.857-33.162-52.189-42.723c7.894-1.603,40.065,1.303,68.021,5.255
					c0.128,0.429,0.222,0.854,0.299,1.278c0.09,0.43,0.159,0.855,0.227,1.285L64.789,90.3l24.112,5.575
					c0.051,0.55,0.088,1.103,0.113,1.655l-9.792-0.535l9.828,3.813c-0.006,0.085,0,0.171-0.009,0.256
					c-0.061,1.123-0.092,2.267-0.236,3.401c-0.065,0.567-0.097,1.139-0.211,1.704l-0.279,1.701c-0.179,1.151-0.51,2.276-0.725,3.442
					c0.594-1.028,1.204-2.037,1.7-3.121l0.743-1.624c0.251-0.541,0.434-1.104,0.646-1.663c0.433-1.12,0.766-2.263,1.081-3.438
					c0.167-0.579,0.251-1.182,0.384-1.78c0.114-0.582,0.249-1.181,0.331-1.781c0.186-1.202,0.318-2.421,0.403-3.646
					c0.067-1.223,0.065-2.452,0.017-3.681c-0.033-1.231-0.152-2.465-0.316-3.719c-0.102-0.611-0.169-1.238-0.302-1.866
					c-0.041-0.205-0.081-0.392-0.12-0.58c0.353-0.62,0.796-1.317,1.216-1.918c0.62-0.874,1.255-1.748,1.956-2.583
					c1.37-1.658,2.884-3.206,4.493-4.634c1.656-1.389,3.346-2.707,5.171-3.838c1.814-1.161,3.733-2.115,5.684-3.018
					c1.98-0.852,4.021-1.563,6.09-2.173c2.086-0.608,4.228-1.03,6.383-1.401l3.254-0.459l3.312-0.239
					c1.1-0.092,2.208-0.065,3.32-0.105l1.666-0.042l1.678,0.075c1.124,0.061,2.251,0.072,3.376,0.133l3.363,0.304
					c2.261,0.19,4.511,0.549,6.765,0.857c2.245,0.458,4.521,0.717,6.761,1.262c2.242,0.526,4.525,0.903,6.762,1.546
					c2.239,0.56,4.516,1.057,6.75,1.75c2.215,0.692,4.523,1.24,6.735,1.967l3.359,1.058c1.125,0.332,2.269,0.646,3.389,1.044
					c2.248,0.763,4.512,1.476,6.798,2.156c-1.98-1.338-3.979-2.626-5.996-3.879c-1.999-1.27-4.143-2.361-6.232-3.52
					c-2.088-1.19-4.271-2.185-6.436-3.195c-1.278-0.625-2.575-1.184-3.891-1.726l7.174-2.637c1.048-0.379,2.166-0.856,3.159-1.173
					c0.836-0.224,1.94-0.397,2.97-0.476c2.095-0.154,4.243-0.087,6.346,0.213c4.189,0.633,8.216,2.047,11.571,4.35
					c1.687,1.137,3.229,2.466,4.593,3.97c0.664,0.761,1.294,1.551,1.888,2.375l0.84,1.272l0.768,1.32
					c0.325,0.539,0.787,0.985,1.376,1.287l0.099,0.055c1.374,0.698,2.924,1.591,4.372,2.46c1.45,0.889,2.896,1.825,4.306,2.795
					c2.819,1.968,5.603,3.956,8.242,6.136c2.622,2.194,5.189,4.455,7.613,6.859c2.407,2.417,4.675,4.965,6.729,7.667
					c1.021,1.351,2.003,2.733,2.936,4.148l0.681,1.079l0.292,0.487l0.34,0.572l1.335,2.311c0.859,1.527,1.641,2.933,2.38,4.488
					c0.74,1.538,1.445,3.088,2.102,4.656c0.618,1.581,1.188,3.175,1.673,4.784c0.498,1.609,0.879,3.244,1.159,4.907
					c0.28,1.646,0.423,3.304,0.434,4.986c0,0.908-0.066,1.796-0.164,2.699c-0.164-0.077-0.348-0.138-0.528-0.182
					c-0.613-0.168-1.368-0.227-2.07-0.012c-0.733,0.212-1.313,0.651-1.726,1.101c-0.213,0.239-0.394,0.482-0.541,0.709l-0.333,0.521
					c-0.201,0.308-0.454,0.63-0.722,0.918c-0.521,0.577-1.105,1.119-1.748,1.521c-1.274,0.838-2.758,1.211-4.185,0.813
					c-1.425-0.364-2.75-1.379-3.877-2.568l-0.019-0.017c-0.078-0.089-0.175-0.16-0.29-0.201c-1.231-0.557-2.621-1.018-4.138-0.934
					c-1.501,0.069-2.915,0.715-4.019,1.512c-2.242,1.611-3.892,3.489-5.771,4.95c-0.95,0.772-1.887,1.276-3.033,1.919
					c-1.105,0.563-2.108,1.079-3.245,1.571c-2.259,0.987-4.563,1.902-6.897,2.769l-7.003,2.561l-7.035,2.524
					c-2.365,0.813-4.671,1.746-7.021,2.593c-2.109,0.76-4.208,1.603-6.286,2.38c-2.184-0.371-4.414-0.796-6.611-1.204
					c-2.483-0.438-4.964-0.91-7.443-1.398l-3.692-0.774c-1.229-0.218-2.462-0.487-3.674-0.772c-1.214-0.285-2.462-0.521-3.652-0.854
					l-3.637-0.924l-0.18-0.059c-0.517-0.097-0.936-0.138-1.402-0.195c-0.47-0.043-0.922-0.085-1.373-0.11
					c-0.922-0.051-1.83-0.065-2.759,0.002c-1.842,0.133-3.759,0.482-5.513,1.463c-0.433,0.246-0.869,0.525-1.241,0.858
					c-0.389,0.331-0.746,0.715-1.038,1.137c-0.292,0.421-0.535,0.879-0.711,1.341c-0.179,0.478-0.29,0.96-0.382,1.424
					c-0.12,0.953-0.068,1.897,0.082,2.782c0.154,0.881,0.412,1.736,0.7,2.56c0.043,0.154,0.207,0.246,0.359,0.222
					c0.186-0.022,0.313-0.184,0.29-0.37l0.002-0.017c-0.125-0.832-0.213-1.678-0.186-2.483c0.012-0.823,0.14-1.605,0.347-2.336
					c0.24-0.71,0.613-1.345,1.092-1.825c0.234-0.256,0.514-0.476,0.809-0.645c0.28-0.186,0.608-0.336,0.936-0.469
					c1.34-0.516,2.909-0.615,4.485-0.512c0.787,0.042,1.573,0.136,2.356,0.262c0.4,0.074,0.783,0.146,1.182,0.234
					c0.351,0.069,0.731,0.158,1.029,0.258l3.525,1.37c1.217,0.471,2.441,0.823,3.68,1.244c2.446,0.823,4.913,1.547,7.383,2.221
					c2.488,0.642,4.975,1.3,7.466,1.89c2.491,0.591,4.986,1.098,7.53,1.622c0.466,0.094,0.954,0.07,1.435-0.104l0.069-0.014
					c1.303-0.451,2.604-0.9,3.892-1.367c0.67,0.389,1.484,0.854,2.447,1.396c2.887,1.637,7.086,3.901,12.234,6.354
					c2.556,1.25,5.359,2.565,8.384,3.84c3.009,1.276,6.197,2.628,9.597,3.84c3.398,1.212,6.934,2.416,10.842,3.234
					c0.963,0.203,2.063,0.382,3.049,0.487l2.793,0.319c1.906,0.188,3.83,0.379,5.792,0.504c1.746,0.078,3.524,0.124,5.328,0.056
					C236.006,193.447,212.419,207.043,185.213,202.609z M260.365,173.118c-1.128,2.141-3.587,3.418-6.749,4.069
					c-3.144,0.602-6.729,0.625-10.334,0.41c-1.813-0.099-3.653-0.251-5.51-0.42l-2.795-0.253c-0.887-0.084-1.64-0.174-2.506-0.323
					c-3.38-0.621-6.879-1.555-10.225-2.493c-3.346-0.974-6.606-1.927-9.682-2.885c-3.095-0.96-6.021-1.878-8.716-2.715
					c-5.408-1.709-9.942-3.066-13.138-4c-0.695-0.205-1.323-0.391-1.887-0.556c0.737-0.265,1.46-0.527,2.182-0.806
					c2.354-0.934,4.722-1.776,7.033-2.812c2.324-1,4.648-1.982,6.93-3.085c2.279-1.087,4.562-2.189,6.795-3.396
					c2.252-1.155,4.487-2.395,6.697-3.722c1.079-0.647,2.262-1.373,3.31-2.088l1.576-1.125c0.529-0.427,1.04-0.868,1.519-1.313
					c0.975-0.89,1.851-1.834,2.708-2.744c0.873-0.896,1.68-1.811,2.59-2.483c0.913-0.673,1.878-1.123,2.89-1.188
					c0.966-0.097,1.995,0.161,2.98,0.601c1.24,1.313,2.737,2.522,4.658,3.063c1.989,0.581,4.246,0.184,5.95-0.852
					c0.867-0.49,1.645-1.12,2.336-1.806c0.339-0.351,0.664-0.703,0.987-1.089l0.435-0.565c0.106-0.113,0.196-0.226,0.303-0.32
					c0.422-0.312,0.571-0.304,1.018-0.162c0.231,0.095,0.492,0.244,0.749,0.444c0.225,0.181,0.53,0.466,0.671,0.659
					c0.205,0.246,0.479,0.446,0.813,0.531c0.398,0.106,0.785,0.061,1.116-0.139l0.024-0.017c-0.003,0.003-0.003,0.015-0.006,0.017
					c0.133,0.344,0.277,0.772,0.418,1.249c0.203,0.619,0.435,1.305,0.643,2.106c0.486,1.572,0.917,3.531,1.483,5.749
					c0.519,2.231,1.087,4.736,1.727,7.495c0.294,1.379,0.603,2.824,0.925,4.321c0.178,0.752,0.354,1.52,0.53,2.285
					c0.116,0.662,0.29,1.445,0.387,2.157C261.627,167.854,261.559,170.978,260.365,173.118z"/>
			</g>
		</g>
		<g>
			<path fill="#333334" d="M288.539,300.646l-4.334,14.275l-268.789,3.746V300.31l1.092-2.786
				c8.112-9.39,13.42-48.706,13.638-50.386c0.017-0.085,0.017-0.152,0.017-0.236l2.486-0.032c0.504,0,0.991-0.236,1.31-0.639
				c5.861-7.39,16.09-15.553,18.038-17.08c0.017,0,0.017,0,0.017-0.018l0.503-0.185l6.92-2.721c2.302-0.84,4.603-1.73,6.903-2.586
				c2.302-0.907,4.585-1.831,6.903-2.654c2.318-0.856,4.636-1.73,6.953-2.52l0.487-0.167l0.252-0.354l4.047-5.591
				c0.487-0.64,0.941-1.311,1.394-1.967c0.756-0.485,1.663-0.99,2.638-1.478c-2.653,4.099-5.224,8.246-7.658,12.479
				c-1.932,3.376-3.846,6.768-5.56,10.279c-0.856,1.763-1.68,3.543-2.385,5.391c-0.353,0.924-0.705,1.847-0.991,2.821
				c-0.134,0.471-0.269,0.975-0.369,1.513c-0.134,0.57-0.152,0.905-0.22,1.545c-0.1,1.125,0.388,2.501,1.361,3.257
				c0.94,0.757,1.998,1.093,3.007,1.294c2.032,0.402,4.014,0.353,5.979,0.251c3.913-0.234,7.759-0.756,11.589-1.326
				c3.847-0.504,7.658-1.109,11.488-1.479c2.436-0.234,4.887-0.471,7.305-0.538c-2.148,1.882-4.282,3.763-6.415,5.66
				c-1.579,1.395-3.124,2.805-4.652,4.25c-1.529,1.445-3.056,2.889-4.568,4.366c-2.972,3.007-5.945,5.929-8.699,9.339
				c-0.353,0.437-0.688,0.891-1.042,1.378c-0.168,0.251-0.336,0.503-0.521,0.806c-0.15,0.285-0.353,0.57-0.57,1.259l-0.033,0.103
				v0.049l-0.018,0.018c-0.065,0.318-0.033,0.168-0.049,0.286c-0.051,0.385-0.017,0.754,0.049,1.039
				c0.169,0.573,0.387,0.875,0.555,1.109c0.37,0.487,0.655,0.705,0.941,0.958c0.554,0.436,1.058,0.739,1.561,1.041
				c2,1.142,3.931,1.998,5.896,2.838c7.843,3.242,15.755,5.945,23.647,8.717l11.824,4.148c1.965,0.705,3.913,1.444,5.829,2.25
				c1.359,0.605,2.77,1.16,4.063,1.881l-2.233,3.108c-3.124,4.417-6.316,8.8-9.372,13.268l-0.521,0.739l0.84-0.369
				c4.787-2.099,9.859-3.813,14.83-5.644l14.948-5.442c4.988-1.83,9.993-3.593,14.965-5.475l14.897-5.609
				c4.953-1.897,9.925-3.795,14.863-5.762c4.938-1.997,9.843-3.979,14.779-6.18c1.26-0.555,2.452-1.091,3.795-1.863
				c0.169-0.102,0.337-0.202,0.555-0.336l0.152-0.103c0.05-0.032,0.084-0.049,0.251-0.184c0.286-0.218,0.538-0.487,0.74-0.739
				l0.083-0.101c0,0,0.017,0,0.017-0.018c0,0,0-0.017,0.017-0.033v-0.016c0.051-0.086,0.135-0.236,0.285-0.538
				c0.051-0.151,0.102-0.32,0.135-0.504c0.034-0.169,0.051-0.336,0.067-0.521c0-0.15,0-0.218-0.017-0.335
				c-0.017-0.201-0.051-0.42-0.1-0.589c-0.153-0.537-0.32-0.855-0.455-1.108c-0.57-0.939-1.058-1.461-1.545-2.032
				c-1.948-2.148-3.913-3.93-5.895-5.744c-3.947-3.628-8.028-7.02-11.975-10.513c-1.965-1.747-3.93-3.51-5.795-5.291
				c-0.487-0.47-0.974-0.956-1.445-1.443l0.891,0.017c1.276,0.083,2.587,0.167,3.88,0.269l7.877,0.738
				c5.24,0.538,10.497,1.159,15.754,1.813l7.894,0.941l3.931,0.504l1.965,0.269l0.99,0.135c0.169,0.017,0.571,0.033,0.858,0.033
				c0.368-0.084,0.721-0.118,1.074-0.369c0.722-0.437,0.974-1.093,1.157-1.596c0.118-0.487,0.169-0.924,0.186-1.344
				c0-0.789-0.1-1.528-0.218-2.233c-0.253-1.395-0.639-2.722-1.059-4.014c-0.855-2.57-1.864-5.073-2.955-7.509
				c-1.125-2.434-2.285-4.854-3.528-7.222c-0.621-1.176-1.275-2.351-1.965-3.51l-0.452-0.756c0.067,0.067,0.135,0.134,0.184,0.169
				l0.454,0.334c0.285,0.202,0.587,0.455,0.872,0.622c2.336,1.563,4.653,2.939,6.987,4.301c1.177,0.705,2.368,1.326,3.562,1.997
				c1.176,0.638,2.352,1.311,3.561,1.916c4.804,2.501,9.641,4.904,14.545,7.171l0.855,0.403c0,0.067,0.033,0.118,0.067,0.184
				c0.504,0.925,4.702,8.516,9.657,10.649v0.504c0,0.083,0,0.184,0.017,0.269C275.455,258.574,281.484,293.879,288.539,300.646z"/>
			<g>
				<path fill="#000100" d="M150.164,287.799l-4.301,5.223c0.371-0.386,0.74-0.772,1.093-1.177c1.562-1.712,3.106-3.424,4.551-5.256
					c1.075-1.376,2.116-2.771,3.091-4.248C153.119,284.154,151.642,285.985,150.164,287.799z"/>
			</g>
			<g>
				<path fill="#000100" d="M36.507,249.209c0,0,0.703,0.486,1.862,1.395c1.165,0.904,2.782,2.229,4.646,3.887
					c3.774,3.272,8.438,7.95,12.909,12.779c2.205,2.45,4.404,4.888,6.389,7.254c0.985,1.188,1.938,2.336,2.841,3.423
					c0.905,1.084,1.73,2.144,2.489,3.128c0.771,0.975,1.442,1.904,2.084,2.67c0.639,0.772,1.166,1.489,1.61,2.073
					c0.882,1.175,1.359,1.899,1.359,1.899s-0.751-0.381-2.018-1.142c-1.241-0.774-3.129-1.847-5.06-3.433
					c-1.986-1.533-4.291-3.377-6.538-5.532c-1.135-1.069-2.303-2.182-3.454-3.345c-1.176-1.143-2.276-2.38-3.413-3.588
					c-2.243-2.445-4.4-4.969-6.322-7.415c-1.94-2.433-3.653-4.788-5.04-6.873c-1.424-2.053-2.497-3.864-3.236-5.135
					C36.879,249.979,36.507,249.209,36.507,249.209z"/>
			</g>
			<g>
				<path fill="#000100" d="M272.342,250.934c0,0-0.271,0.703-0.833,1.873c-0.561,1.168-1.394,2.814-2.511,4.698
					c-2.174,3.817-5.481,8.593-9.157,13.084c-3.686,4.482-7.74,8.682-11.189,11.476c-1.694,1.423-3.237,2.492-4.389,3.151
					c-0.569,0.339-1.066,0.543-1.404,0.666c-0.355,0.109-0.544,0.102-0.539,0.111c0,0,0.162-0.12,0.386-0.356
					c0.23-0.247,0.515-0.657,0.887-1.164c0.704-1.051,1.711-2.554,2.92-4.354c2.385-3.625,5.781-8.27,9.436-12.725
					c3.662-4.448,7.579-8.701,10.794-11.678c1.577-1.512,2.981-2.704,3.983-3.526C271.726,251.369,272.342,250.934,272.342,250.934z
					"/>
			</g>
			<path fill="#000100" d="M291.159,298.463c-3.931-1.73-9.977-25.578-13.554-47.664v-1.596c0-0.789-0.555-1.479-1.327-1.629
				c-0.57-0.118-1.176-0.42-1.798-0.84c0.471-0.169,0.941-0.42,1.361-0.823c0.504-0.52,0.757-1.311,0.722-1.998
				c-0.016-0.707-0.218-1.345-0.452-1.932c-1.06-2.302-2.654-4.099-4.267-5.812c-1.63-1.714-3.377-3.24-5.156-4.753
				c-1.798-1.478-3.628-2.923-5.509-4.282c-3.729-2.737-7.76-5.055-11.757-7.34c-2.016-1.159-4.048-2.25-6.029-3.41
				c-1.981-1.157-3.964-2.334-5.93-3.542l-0.083-0.051l-0.101-0.017c-2.099-0.403-4.198-0.84-6.281-1.311l-6.282-1.462l-3.022-0.705
				l2.132,2.401l4.855,5.493c-3.142-2.604-6.734-4.519-10.33-6.282c-4.854-2.284-9.824-4.233-14.965-5.878l-0.738-0.234
				l-0.486,0.722c-2.318,3.477-4.603,6.969-6.837,10.48c-1.275,0.604-2.552,1.241-3.879,1.763c-1.596,0.638-3.191,1.311-4.854,1.831
				c-1.629,0.554-3.292,1.041-4.972,1.461c-1.661,0.437-3.358,0.789-5.055,1.091c-3.41,0.554-6.853,0.925-10.278,1.108
				c-1.713,0.051-3.427,0.151-5.155,0.102c-1.714,0.033-3.427-0.016-5.141-0.067c-1.695-0.066-3.409-0.118-5.122-0.269
				c-1.714-0.1-3.41-0.285-5.122-0.471c-3.394-0.403-6.804-0.924-10.162-1.646c-1.68-0.336-3.359-0.705-5.039-1.125
				c-1.661-0.438-3.341-0.857-4.987-1.361c-2.838-0.805-5.643-1.746-8.414-2.821l-1.461-2.268c-1.126-1.696-2.268-3.393-3.443-5.088
				c-1.192-1.68-2.385-3.359-3.846-5.039c-0.353-0.42-0.756-0.855-1.227-1.294l-0.386-0.336c-0.169-0.133-0.42-0.302-0.622-0.437
				c-0.135-0.083-0.135-0.083-0.201-0.116l-0.337-0.169l-0.401-0.167c-1.076-0.471-2.252-0.791-3.461-0.975
				c-1.209-0.169-2.469-0.186-3.712,0.051c-0.621,0.101-1.243,0.268-1.847,0.487c-0.638,0.251-1.125,0.453-1.897,0.99l-0.269,0.184
				l-0.202,0.27c-1.042,1.512-2.066,3.041-3.09,4.567c-0.656,0.287-1.395,0.622-2.15,0.992c0.118-0.185,0.253-0.353,0.369-0.537
				l1.21-1.696l-1.999,0.084l-7.02,0.302c-2.353,0.118-4.687,0.15-7.038,0.185h-0.101l-0.067,0.017
				c-2.47,0.924-4.903,1.882-7.339,2.855c-2.419,0.975-4.871,1.914-7.289,2.939c-2.419,1.025-4.82,2.132-7.173,3.324
				c-1.192,0.573-2.334,1.243-3.493,1.899c-1.142,0.654-2.25,1.376-3.359,2.133c-1.108,0.705-2.166,1.545-3.224,2.352
				c-1.042,0.821-2.084,1.68-3.074,2.587c-0.975,0.906-1.931,1.847-2.821,2.888c-0.906,0.991-1.746,2.083-2.503,3.208
				c-0.353,0.588-0.722,1.158-1.058,1.764c-0.302,0.621-0.605,1.243-0.891,1.864l-0.654,1.981c-0.118,0.689-0.269,1.36-0.369,2.049
				c-0.018,0.688-0.067,1.378-0.034,2.066c0.102,0.638,0.15,1.293,0.269,1.897c0.017,0.05,0.017,0.084,0.035,0.135
				c0.199,0.654,0.368,1.309,0.604,1.931l0.016,0.034h-3.106c-0.923,0-1.679,0.756-1.679,1.68v1.612
				c-1.513,11.369-6.77,41.953-12.983,48.689c-0.151,0.151-0.268,0.335-0.335,0.52l-1.311,3.376
				c-0.067,0.201-0.118,0.403-0.118,0.605v20.372c0,0.452,0.186,0.872,0.504,1.192c0.319,0.319,0.739,0.487,1.176,0.487
				c0.018,0,0.018,0,0.034,0l271.694-3.779c0.74-0.017,1.378-0.487,1.596-1.192l5.039-16.577
				C292.334,299.672,291.948,298.8,291.159,298.463z M227.605,212.404l3.141,0.42c2.083,0.285,4.199,0.589,6.266,0.958
				c-0.034-0.017-0.051-0.034-0.084-0.051l0.168,0.067c-0.033,0-0.051-0.017-0.084-0.017c1.948,1.125,3.879,2.334,5.76,3.594
				c1.916,1.26,3.763,2.637,5.628,3.997c1.847,1.361,3.677,2.739,5.508,4.131c1.813,1.378,3.662,2.739,5.509,4.066
				c3.695,2.687,7.373,5.373,10.782,8.33c1.663,1.479,3.359,3.023,4.468,4.786c0.453,0.772,0.789,1.562,0.555,2.25
				c-0.017-0.317-0.118-0.604-0.253-0.823c-0.789-1.41-1.981-2.199-3.123-3.006c-1.176-0.772-2.335-1.443-3.493-2.148
				c-0.186-0.118-0.387-0.236-0.57-0.337c-0.707-0.437-1.395-0.856-2.1-1.26c-0.019,0-0.019,0-0.019,0
				c-0.251-0.167-0.52-0.319-0.788-0.471c-4.652-2.737-9.355-5.374-14.059-7.994l-7.07-3.879c-2.368-1.26-4.753-2.537-6.971-3.896
				c-0.302-0.169-0.52-0.337-0.789-0.504l-0.369-0.252c-0.134-0.101-0.118-0.101-0.201-0.151l-0.084-0.051h-0.017l-0.102-0.135
				l-0.083-0.083l-0.337-0.386l-0.688-0.756c-0.856-1.009-1.882-1.983-2.854-2.957C230.024,214.639,228.832,213.514,227.605,212.404
				z M273.978,245.86c-0.101,0.085-0.202,0.169-0.318,0.236c-1.243-1.025-2.503-2.486-3.595-3.98
				c0.319,0.134,0.638,0.285,0.941,0.436c1.106,0.605,2.35,1.209,3.039,2.083C274.364,245.071,274.432,245.458,273.978,245.86z
				 M196.015,220.785c2.503-4.483,5.038-8.968,7.625-13.401c4.77,1.26,9.489,2.939,14.023,4.988
				c2.385,1.108,4.704,2.317,6.919,3.695c2.167,1.442,4.216,3.056,5.862,4.971l1.108,1.527c0.337,0.538,0.671,1.127,0.991,1.697
				c0.621,1.142,1.243,2.317,1.813,3.493c1.177,2.351,2.251,4.754,3.209,7.206c0.939,2.451,1.813,4.92,2.502,7.423
				c0.335,1.241,0.639,2.501,0.789,3.712c0.084,0.604,0.117,1.209,0.101,1.729c-0.033,0.202-0.05,0.387-0.084,0.521
				c0.135,0.017,0.135,0.033,0.135,0.033c-0.051,0-0.067,0.051-0.135,0.051c-0.032,0.034-0.051,0.051-0.051,0.051
				c0-0.017,0.019-0.017,0.019-0.034c0.016-0.033,0.016-0.067,0.032-0.101l-0.974-0.186l-1.965-0.385l-3.914-0.724l-7.859-1.395
				c-5.24-0.872-10.497-1.68-15.788-2.417c-2.636-0.369-5.273-0.74-7.943-1.007c-1.345-0.135-2.688-0.253-4.048-0.354l-2.066-0.116
				c-0.738-0.017-1.462-0.017-2.25,0.016c-0.555,0.067-1.126,0.186-1.664,0.32c-0.016,0-0.334,0.167-0.469,0.218l-0.034,0.033
				l-0.051,0.034c-0.101,0.067-0.318,0.234-0.453,0.386c-0.705,0.772-0.705,1.243-0.789,1.763c-0.018,0.772,0.168,1.243,0.286,1.529
				c0.269,0.638,0.503,0.99,0.756,1.343c0.234,0.353,0.469,0.656,0.705,0.941c0.939,1.158,1.897,2.132,2.854,3.106
				c1.916,1.948,3.881,3.763,5.846,5.576l11.757,10.699c1.813,1.645,3.645,3.343,5.173,5.022c-0.605,0.317-1.243,0.619-1.865,0.906
				c-4.734,2.216-9.622,4.283-14.493,6.331l-14.629,6.198l-14.661,6.213c-4.888,2.066-9.742,4.217-14.612,6.333
				c-4.854,2.132-9.741,4.215-14.562,6.449l-7.239,3.358c-1.981,0.958-3.946,1.897-5.878,2.99c3.291-3.712,6.5-7.49,9.725-11.253
				c1.763-2.049,3.493-4.132,5.224-6.215l0.805-0.974l0.019-0.017l0.017-0.017l0.032-0.034l4.301-5.223
				c1.478-1.813,2.955-3.645,4.434-5.458l0.016-0.019c1.933-2.385,3.847-4.77,5.744-7.187c3.359-4.25,6.736-8.5,10.012-12.815
				c3.273-4.316,6.583-8.617,9.74-13.05c0.789-1.093,1.562-2.234,2.351-3.359c0.791-1.093,1.563-2.233,2.302-3.427
				c0.369-0.621,0.739-1.125,1.108-1.83l1.025-2.049c0.554-1.21,1.041-2.554,1.645-3.662l1.73-3.493l1.882-3.56
				C193.395,225.504,194.738,223.154,196.015,220.785z M149.273,263.597c-2.503-3.09-4.871-6.314-7.171-9.606
				c-2.269-3.31-4.552-6.618-6.753-9.993l-3.996-6.249c1.227,0.656,2.468,1.211,3.746,1.68c3.424,1.277,7.02,1.982,10.597,2.336
				c3.594,0.301,7.188,0.269,10.731-0.067c3.544-0.32,7.055-0.875,10.515-1.58c5.793-1.209,11.438-2.921,16.912-5.071
				c-0.302,0.639-0.587,1.26-0.89,1.897l-0.117,0.219c-0.035,0.067-0.035,0.118-0.051,0.134c0,0-0.017,0-0.017,0.017v0.017
				l-0.034,0.051l-0.05,0.084l-0.202,0.336l-0.387,0.689c-0.269,0.471-0.722,1.074-1.058,1.596
				c-1.443,2.166-3.058,4.382-4.603,6.549l-9.572,13.067l-9.339,12.663l-0.218-0.186
				C154.396,269.677,151.76,266.687,149.273,263.597z M120.201,217.863c1.578,0.756,3.174,1.512,4.803,2.149
				c3.259,1.327,6.618,2.42,10.01,3.327c1.697,0.452,3.427,0.839,5.157,1.208c1.712,0.353,3.459,0.654,5.205,0.891
				c1.747,0.234,3.512,0.453,5.275,0.588c1.746,0.15,3.526,0.185,5.289,0.234c1.765,0,3.528-0.033,5.291-0.151
				c1.764-0.1,3.526-0.336,5.273-0.538c1.747-0.267,3.478-0.503,5.207-0.872c1.729-0.302,3.443-0.74,5.139-1.142
				c1.696-0.471,3.41-0.874,5.073-1.395c1.68-0.521,3.359-0.99,5.004-1.612c1.663-0.538,3.292-1.176,4.921-1.797
				c0.774-0.302,1.546-0.605,2.301-0.94c-0.302,0.437-0.587,0.89-0.872,1.344c-1.445,2.301-2.923,4.567-4.317,6.901l-2.115,3.512
				l-1.73,3.022c-2.838,0.924-5.744,1.663-8.633,2.385c-3.343,0.84-6.734,1.494-10.111,2.083c-3.392,0.588-6.802,0.991-10.193,1.192
				c-3.41,0.168-6.802,0.219-10.161-0.085c-3.358-0.251-6.668-0.821-9.826-1.863c-3.141-1.009-6.112-2.52-8.683-4.586l-0.017-0.017
				l-5.173-8.145l-4.484-6.92C118.605,217.074,119.395,217.478,120.201,217.863z M97.007,204.562c0,0,0-0.017,0.017-0.017
				c0.169-0.084,0.42-0.186,0.604-0.234c0.353-0.102,0.722-0.202,1.109-0.236c0.756-0.1,1.545-0.067,2.317,0.084
				c0.789,0.152,1.596,0.37,2.368,0.739l0.167,0.067l0.118,0.067h0.017c0.034,0.032,0.118,0.067,0.118,0.083v0.017l0.167,0.169
				c0.27,0.27,0.555,0.571,0.84,0.924c1.16,1.427,2.302,3.09,3.394,4.736c1.091,1.662,2.167,3.359,3.241,5.071l6.332,10.347
				c2.116,3.459,4.283,6.885,6.466,10.329c2.167,3.442,4.434,6.818,6.734,10.193c2.302,3.359,4.636,6.719,7.122,9.978
				c2.468,3.257,5.021,6.481,7.775,9.573c2.587,2.889,5.324,5.71,8.481,8.178c0,0.135-0.017,0.253-0.032,0.403
				c-0.052,0.42-0.17,0.907-0.304,1.378c-0.133,0.437-0.286,0.873-0.453,1.311l-5.979,8.112l-4.771,6.565l-2.065,2.89
				c-1.243-0.941-2.603-1.697-3.947-2.436c-1.847-1.024-3.745-1.948-5.626-2.871c-3.795-1.849-7.642-3.511-11.488-5.174
				l-11.589-4.871c-3.846-1.594-7.709-3.189-11.453-4.904c-1.849-0.872-3.746-1.729-5.358-2.702
				c-0.186-0.118-0.369-0.236-0.538-0.353l0.019-0.019c0.267-0.369,0.57-0.755,0.872-1.125c1.26-1.528,2.688-3.022,4.081-4.535
				c1.429-1.511,2.872-2.988,4.333-4.466l8.75-8.936c2.923-2.974,5.879-5.945,8.836-8.885l2.771-2.737l-3.779,0.083
				c-4.03,0.084-7.895,0.689-11.723,1.344l-11.438,2.066c-3.796,0.622-7.607,1.26-11.421,1.443
				c-1.881,0.085-3.795,0.085-5.559-0.285c-0.874-0.184-1.714-0.487-2.269-0.975c-0.536-0.487-0.756-1.142-0.688-1.931
				c0.051-0.336,0.102-0.958,0.22-1.311c0.1-0.42,0.234-0.839,0.386-1.292c0.285-0.874,0.638-1.747,1.024-2.604
				c0.789-1.729,1.68-3.408,2.62-5.071c1.864-3.343,3.913-6.584,6.047-9.775c2.132-3.208,4.35-6.348,6.6-9.472
				C92.624,210.49,94.772,207.484,97.007,204.562z M32.278,237.699c0.169-0.589,0.37-1.177,0.538-1.747l0.772-1.68l0.939-1.579
				c0.353-0.521,0.74-1.007,1.093-1.511c0.789-0.958,1.596-1.916,2.486-2.805c0.872-0.907,1.83-1.73,2.786-2.554
				c0.958-0.84,1.949-1.612,2.974-2.385c1.042-0.74,2.065-1.494,3.123-2.199c1.042-0.757,2.15-1.412,3.208-2.134l3.259-2.083
				c2.167-1.376,4.4-2.687,6.684-3.946c1.126-0.639,2.269-1.243,3.427-1.849c1.144-0.62,2.335-1.158,3.512-1.712
				c1.157-0.555,2.366-1.042,3.577-1.546c1.158-0.486,2.35-0.923,3.526-1.343h-0.067l0.167-0.034
				c-0.032,0.016-0.065,0.016-0.1,0.034c2.334,0.017,4.635,0.067,6.971,0.167l4.937,0.219c-1.074,1.243-2.132,2.486-3.174,3.746
				l-4.064,4.954c0.151-0.051,0.285-0.085,0.437-0.134l-0.756,0.52l0.319-0.386c-2.268,0.688-4.484,1.411-6.701,2.149
				c-2.368,0.756-4.719,1.579-7.071,2.436c-2.334,0.874-4.669,1.73-7.003,2.621l-6.836,2.921l-0.101,0.051
				c-0.304,0.017-0.604,0.135-0.856,0.336c-0.018,0.017-0.051,0.051-0.117,0.101l-5.728,2.535l-3.41,1.747
				c-1.091,0.656-2.199,1.26-3.241,1.999l-1.562,1.125c-0.521,0.403-0.992,0.84-1.495,1.26c-0.907,0.823-1.747,1.73-2.469,2.788
				C32.278,237.748,32.278,237.731,32.278,237.699z M31.977,241.292c0.234-0.906,0.789-1.729,1.378-2.484
				c0.737-0.874,1.628-1.663,2.586-2.352c0.487-0.337,0.956-0.689,1.478-1.008l1.562-0.891c1.042-0.589,2.167-1.041,3.225-1.596
				l0.051-0.017c-3.308,2.923-7.054,6.533-10.026,10.11c-0.117-0.555-0.169-1.125-0.252-1.661V241.292z M284.205,314.922
				l-268.789,3.746V300.31l1.092-2.786c8.112-9.39,13.42-48.706,13.638-50.386c0.017-0.085,0.017-0.152,0.017-0.236l2.486-0.032
				c0.504,0,0.991-0.236,1.31-0.639c5.861-7.39,16.09-15.553,18.038-17.08c0.017,0,0.017,0,0.017-0.018l0.503-0.185l6.92-2.721
				c2.302-0.84,4.603-1.73,6.903-2.586c2.302-0.907,4.585-1.831,6.903-2.654c2.318-0.856,4.636-1.73,6.953-2.52l0.487-0.167
				l0.252-0.354l4.047-5.591c0.487-0.64,0.941-1.311,1.394-1.967c0.756-0.485,1.663-0.99,2.638-1.478
				c-2.653,4.099-5.224,8.246-7.658,12.479c-1.932,3.376-3.846,6.768-5.56,10.279c-0.856,1.763-1.68,3.543-2.385,5.391
				c-0.353,0.924-0.705,1.847-0.991,2.821c-0.134,0.471-0.269,0.975-0.369,1.513c-0.134,0.57-0.152,0.905-0.22,1.545
				c-0.1,1.125,0.388,2.501,1.361,3.257c0.94,0.757,1.998,1.093,3.007,1.294c2.032,0.402,4.014,0.353,5.979,0.251
				c3.913-0.234,7.759-0.756,11.589-1.326c3.847-0.504,7.658-1.109,11.488-1.479c2.436-0.234,4.887-0.471,7.305-0.538
				c-2.148,1.882-4.282,3.763-6.415,5.66c-1.579,1.395-3.124,2.805-4.652,4.25c-1.529,1.445-3.056,2.889-4.568,4.366
				c-2.972,3.007-5.945,5.929-8.699,9.339c-0.353,0.437-0.688,0.891-1.042,1.378c-0.168,0.251-0.336,0.503-0.521,0.806
				c-0.15,0.285-0.353,0.57-0.57,1.259l-0.033,0.103v0.049l-0.018,0.018c-0.065,0.318-0.033,0.168-0.049,0.286
				c-0.051,0.385-0.017,0.754,0.049,1.039c0.169,0.573,0.387,0.875,0.555,1.109c0.37,0.487,0.655,0.705,0.941,0.958
				c0.554,0.436,1.058,0.739,1.561,1.041c2,1.142,3.931,1.998,5.896,2.838c7.843,3.242,15.755,5.945,23.647,8.717l11.824,4.148
				c1.965,0.705,3.913,1.444,5.829,2.25c1.359,0.605,2.77,1.16,4.063,1.881l-2.233,3.108c-3.124,4.417-6.316,8.8-9.372,13.268
				l-0.521,0.739l0.84-0.369c4.787-2.099,9.859-3.813,14.83-5.644l14.948-5.442c4.988-1.83,9.993-3.593,14.965-5.475l14.897-5.609
				c4.953-1.897,9.925-3.795,14.863-5.762c4.938-1.997,9.843-3.979,14.779-6.18c1.26-0.555,2.452-1.091,3.795-1.863
				c0.169-0.102,0.337-0.202,0.555-0.336l0.152-0.103c0.05-0.032,0.084-0.049,0.251-0.184c0.286-0.218,0.538-0.487,0.74-0.739
				l0.083-0.101c0,0,0.017,0,0.017-0.018c0,0,0-0.017,0.017-0.033v-0.016c0.051-0.086,0.135-0.236,0.285-0.538
				c0.051-0.151,0.102-0.32,0.135-0.504c0.034-0.169,0.051-0.336,0.067-0.521c0-0.15,0-0.218-0.017-0.335
				c-0.017-0.201-0.051-0.42-0.1-0.589c-0.153-0.537-0.32-0.855-0.455-1.108c-0.57-0.939-1.058-1.461-1.545-2.032
				c-1.948-2.148-3.913-3.93-5.895-5.744c-3.947-3.628-8.028-7.02-11.975-10.513c-1.965-1.747-3.93-3.51-5.795-5.291
				c-0.487-0.47-0.974-0.956-1.445-1.443l0.891,0.017c1.276,0.083,2.587,0.167,3.88,0.269l7.877,0.738
				c5.24,0.538,10.497,1.159,15.754,1.813l7.894,0.941l3.931,0.504l1.965,0.269l0.99,0.135c0.169,0.017,0.571,0.033,0.858,0.033
				c0.368-0.084,0.721-0.118,1.074-0.369c0.722-0.437,0.974-1.093,1.157-1.596c0.118-0.487,0.169-0.924,0.186-1.344
				c0-0.789-0.1-1.528-0.218-2.233c-0.253-1.395-0.639-2.722-1.059-4.014c-0.855-2.57-1.864-5.073-2.955-7.509
				c-1.125-2.434-2.285-4.854-3.528-7.222c-0.621-1.176-1.275-2.351-1.965-3.51l-0.452-0.756c0.067,0.067,0.135,0.134,0.184,0.169
				l0.454,0.334c0.285,0.202,0.587,0.455,0.872,0.622c2.336,1.563,4.653,2.939,6.987,4.301c1.177,0.705,2.368,1.326,3.562,1.997
				c1.176,0.638,2.352,1.311,3.561,1.916c4.804,2.501,9.641,4.904,14.545,7.171l0.855,0.403c0,0.067,0.033,0.118,0.067,0.184
				c0.504,0.925,4.702,8.516,9.657,10.649v0.504c0,0.083,0,0.184,0.017,0.269c1.192,7.372,7.222,42.677,14.276,49.444
				L284.205,314.922z"/>
			<path fill="#333334" d="M275.221,244.937c-0.017-0.317-0.118-0.604-0.253-0.823c-0.789-1.41-1.981-2.199-3.123-3.006
				c-1.176-0.772-2.335-1.443-3.493-2.148c-0.186-0.118-0.387-0.236-0.57-0.337c-0.707-0.437-1.395-0.856-2.1-1.26
				c-0.019,0-0.019,0-0.019,0c-0.251-0.167-0.52-0.319-0.788-0.471c-4.652-2.737-9.355-5.374-14.059-7.994l-7.07-3.879
				c-2.368-1.26-4.753-2.537-6.971-3.896c-0.302-0.169-0.52-0.337-0.789-0.504l-0.369-0.252c-0.134-0.101-0.118-0.101-0.201-0.151
				l-0.084-0.051h-0.017l-0.102-0.135l-0.083-0.083l-0.337-0.386l-0.688-0.756c-0.856-1.009-1.882-1.983-2.854-2.957
				c-1.227-1.209-2.419-2.334-3.646-3.443l3.141,0.42c2.083,0.285,4.199,0.589,6.266,0.958c1.948,1.125,3.879,2.334,5.76,3.594
				c1.916,1.26,3.763,2.637,5.628,3.997c1.847,1.361,3.677,2.739,5.508,4.131c1.813,1.378,3.662,2.739,5.509,4.066
				c3.695,2.687,7.373,5.373,10.782,8.33c1.663,1.479,3.359,3.023,4.468,4.786C275.119,243.459,275.455,244.248,275.221,244.937z"/>
			<path fill="#333334" d="M86.09,207.014c-1.074,1.243-2.132,2.486-3.174,3.746l-4.064,4.954c-2.268,0.688-4.484,1.411-6.701,2.149
				c-2.368,0.756-4.719,1.579-7.071,2.436c-2.334,0.874-4.669,1.73-7.003,2.621l-6.836,2.921l-0.101,0.051
				c-0.304,0.017-0.604,0.135-0.856,0.336c-0.018,0.017-0.051,0.051-0.117,0.101l-5.728,2.535l-3.41,1.747
				c-1.091,0.656-2.199,1.26-3.241,1.999l-1.562,1.125c-0.521,0.403-0.992,0.84-1.495,1.26c-0.907,0.823-1.747,1.73-2.469,2.788
				c0.017-0.034,0.017-0.051,0.017-0.083c0.169-0.589,0.37-1.177,0.538-1.747l0.772-1.68l0.939-1.579
				c0.353-0.521,0.74-1.007,1.093-1.511c0.789-0.958,1.596-1.916,2.486-2.805c0.872-0.907,1.83-1.73,2.786-2.554
				c0.958-0.84,1.949-1.612,2.974-2.385c1.042-0.74,2.065-1.494,3.123-2.199c1.042-0.757,2.15-1.412,3.208-2.134l3.259-2.083
				c2.167-1.376,4.4-2.687,6.684-3.946c1.126-0.639,2.269-1.243,3.427-1.849c1.144-0.62,2.335-1.158,3.512-1.712
				c1.157-0.555,2.366-1.042,3.577-1.546c1.158-0.486,2.35-0.923,3.526-1.343c2.334,0.017,4.635,0.067,6.971,0.167L86.09,207.014z"
				/>
			<path fill="#333334" d="M154.396,274.63c0,0.135-0.017,0.253-0.032,0.403c-0.052,0.42-0.17,0.907-0.304,1.378
				c-0.133,0.437-0.286,0.873-0.453,1.311l-5.979,8.112l-4.771,6.565l-2.065,2.89c-1.243-0.941-2.603-1.697-3.947-2.436
				c-1.847-1.024-3.745-1.948-5.626-2.871c-3.795-1.849-7.642-3.511-11.488-5.174l-11.589-4.871
				c-3.846-1.594-7.709-3.189-11.453-4.904c-1.849-0.872-3.746-1.729-5.358-2.702c-0.186-0.118-0.369-0.236-0.538-0.353l0.019-0.019
				c0.267-0.369,0.57-0.755,0.872-1.125c1.26-1.528,2.688-3.022,4.081-4.535c1.429-1.511,2.872-2.988,4.333-4.466l8.75-8.936
				c2.923-2.974,5.879-5.945,8.836-8.885l2.771-2.737l-3.779,0.083c-4.03,0.084-7.895,0.689-11.723,1.344l-11.438,2.066
				c-3.796,0.622-7.607,1.26-11.421,1.443c-1.881,0.085-3.795,0.085-5.559-0.285c-0.874-0.184-1.714-0.487-2.269-0.975
				c-0.536-0.487-0.756-1.142-0.688-1.931c0.051-0.336,0.102-0.958,0.22-1.311c0.1-0.42,0.234-0.839,0.386-1.292
				c0.285-0.874,0.638-1.747,1.024-2.604c0.789-1.729,1.68-3.408,2.62-5.071c1.864-3.343,3.913-6.584,6.047-9.775
				c2.132-3.208,4.35-6.348,6.6-9.472c2.15-3.007,4.299-6.013,6.533-8.936c0,0,0-0.017,0.017-0.017
				c0.169-0.084,0.42-0.186,0.604-0.234c0.353-0.102,0.722-0.202,1.109-0.236c0.756-0.1,1.545-0.067,2.317,0.084
				c0.789,0.152,1.596,0.37,2.368,0.739l0.167,0.067l0.118,0.067h0.017c0.034,0.032,0.118,0.067,0.118,0.083v0.017l0.167,0.169
				c0.27,0.27,0.555,0.571,0.84,0.924c1.16,1.427,2.302,3.09,3.394,4.736c1.091,1.662,2.167,3.359,3.241,5.071l6.332,10.347
				c2.116,3.459,4.283,6.885,6.466,10.329c2.167,3.442,4.434,6.818,6.734,10.193c2.302,3.359,4.636,6.719,7.122,9.978
				c2.468,3.257,5.021,6.481,7.775,9.573C148.501,269.341,151.238,272.162,154.396,274.63z"/>
			<path fill="#333334" d="M240.958,247.825c-0.033,0.202-0.05,0.387-0.084,0.521l-0.974-0.186l-1.965-0.385l-3.914-0.724
				l-7.859-1.395c-5.24-0.872-10.497-1.68-15.788-2.417c-2.636-0.369-5.273-0.74-7.943-1.007c-1.345-0.135-2.688-0.253-4.048-0.354
				l-2.066-0.116c-0.738-0.017-1.462-0.017-2.25,0.016c-0.555,0.067-1.126,0.186-1.664,0.32c-0.016,0-0.334,0.167-0.469,0.218
				l-0.034,0.033l-0.051,0.034c-0.101,0.067-0.318,0.234-0.453,0.386c-0.705,0.772-0.705,1.243-0.789,1.763
				c-0.018,0.772,0.168,1.243,0.286,1.529c0.269,0.638,0.503,0.99,0.756,1.343c0.234,0.353,0.469,0.656,0.705,0.941
				c0.939,1.158,1.897,2.132,2.854,3.106c1.916,1.948,3.881,3.763,5.846,5.576l11.757,10.699c1.813,1.645,3.645,3.343,5.173,5.022
				c-0.605,0.317-1.243,0.619-1.865,0.906c-4.734,2.216-9.622,4.283-14.493,6.331l-14.629,6.198l-14.661,6.213
				c-4.888,2.066-9.742,4.217-14.612,6.333c-4.854,2.132-9.741,4.215-14.562,6.449l-7.239,3.358
				c-1.981,0.958-3.946,1.897-5.878,2.99c3.291-3.712,6.5-7.49,9.725-11.253c1.763-2.049,3.493-4.132,5.224-6.215l0.805-0.974
				l0.019-0.017l0.017-0.017l0.032-0.034l4.301-5.223c1.478-1.813,2.955-3.645,4.434-5.458l0.016-0.019
				c1.933-2.385,3.847-4.77,5.744-7.187c3.359-4.25,6.736-8.5,10.012-12.815c3.273-4.316,6.583-8.617,9.74-13.05
				c0.789-1.093,1.562-2.234,2.351-3.359c0.791-1.093,1.563-2.233,2.302-3.427c0.369-0.621,0.739-1.125,1.108-1.83l1.025-2.049
				c0.554-1.21,1.041-2.554,1.645-3.662l1.73-3.493l1.882-3.56c1.242-2.387,2.586-4.736,3.862-7.105
				c2.503-4.483,5.038-8.968,7.625-13.401c4.77,1.26,9.489,2.939,14.023,4.988c2.385,1.108,4.704,2.317,6.919,3.695
				c2.167,1.442,4.216,3.056,5.862,4.971l1.108,1.527c0.337,0.538,0.671,1.127,0.991,1.697c0.621,1.142,1.243,2.317,1.813,3.493
				c1.177,2.351,2.251,4.754,3.209,7.206c0.939,2.451,1.813,4.92,2.502,7.423c0.335,1.241,0.639,2.501,0.789,3.712
				C240.941,246.7,240.975,247.306,240.958,247.825z"/>
			<path fill="#38889A" d="M194.149,217.813c-0.302,0.437-0.587,0.89-0.872,1.344c-1.445,2.301-2.923,4.567-4.317,6.901
				l-2.115,3.512l-1.73,3.022c-2.838,0.924-5.744,1.663-8.633,2.385c-3.343,0.84-6.734,1.494-10.111,2.083
				c-3.392,0.588-6.802,0.991-10.193,1.192c-3.41,0.168-6.802,0.219-10.161-0.085c-3.358-0.251-6.668-0.821-9.826-1.863
				c-3.141-1.009-6.112-2.52-8.683-4.586l-0.017-0.017l-5.173-8.145l-4.484-6.92c0.772,0.437,1.562,0.84,2.368,1.226
				c1.578,0.756,3.174,1.512,4.803,2.149c3.259,1.327,6.618,2.42,10.01,3.327c1.697,0.452,3.427,0.839,5.157,1.208
				c1.712,0.353,3.459,0.654,5.205,0.891c1.747,0.234,3.512,0.453,5.275,0.588c1.746,0.15,3.526,0.185,5.289,0.234
				c1.765,0,3.528-0.033,5.291-0.151c1.764-0.1,3.526-0.336,5.273-0.538c1.747-0.267,3.478-0.503,5.207-0.872
				c1.729-0.302,3.443-0.74,5.139-1.142c1.696-0.471,3.41-0.874,5.073-1.395c1.68-0.521,3.359-0.99,5.004-1.612
				c1.663-0.538,3.292-1.176,4.921-1.797C192.623,218.452,193.395,218.148,194.149,217.813z"/>
			<path fill="#2F7482" d="M183.854,235.045c-0.302,0.639-0.587,1.26-0.89,1.897l-0.117,0.219c-0.035,0.067-0.035,0.118-0.051,0.134
				c0,0-0.017,0-0.017,0.017v0.017l-0.034,0.051l-0.05,0.084l-0.202,0.336l-0.387,0.689c-0.269,0.471-0.722,1.074-1.058,1.596
				c-1.443,2.166-3.058,4.382-4.603,6.549l-9.572,13.067l-9.339,12.663l-0.218-0.186c-2.923-2.501-5.559-5.491-8.045-8.581
				c-2.503-3.09-4.871-6.314-7.171-9.606c-2.269-3.31-4.552-6.618-6.753-9.993l-3.996-6.249c1.227,0.656,2.468,1.211,3.746,1.68
				c3.424,1.277,7.02,1.982,10.597,2.336c3.594,0.301,7.188,0.269,10.731-0.067c3.544-0.32,7.055-0.875,10.515-1.58
				C172.735,238.907,178.38,237.195,183.854,235.045z"/>
			<g>
				<ellipse fill="#B3B3B3" cx="200.632" cy="270.821" rx="8.336" ry="5.461"/>
				<path fill="#000100" d="M208.969,270.821c0,0-0.012,0.171-0.034,0.491c-0.046,0.315-0.143,0.786-0.428,1.316
					c-0.272,0.534-0.729,1.122-1.374,1.661c-0.642,0.542-1.472,1.022-2.433,1.414c-0.964,0.388-2.069,0.663-3.263,0.773
					c-0.602,0.05-1.219,0.072-1.837,0.043c-0.64-0.037-1.285-0.1-1.931-0.243c-1.296-0.257-2.613-0.767-3.765-1.633
					c-1.13-0.854-2.097-2.227-2.108-3.822l0.043-0.55c0.026-0.185,0.083-0.397,0.129-0.593c0.118-0.379,0.264-0.728,0.463-1.051
					c0.386-0.65,0.903-1.191,1.472-1.631c1.151-0.867,2.468-1.379,3.765-1.635c2.594-0.527,5.104-0.2,7.031,0.574
					c1.938,0.761,3.277,1.993,3.807,3.076c0.286,0.531,0.383,1.001,0.429,1.316C208.957,270.65,208.969,270.821,208.969,270.821z
					 M208.969,270.821c0,0-0.015-0.171-0.041-0.49c-0.05-0.314-0.153-0.781-0.444-1.305c-0.277-0.527-0.738-1.109-1.402-1.61
					c-0.656-0.505-1.487-0.961-2.457-1.27c-1.922-0.629-4.381-0.766-6.791-0.103c-1.198,0.329-2.374,0.884-3.356,1.673
					c-0.954,0.813-1.692,1.891-1.681,3.105c-0.017,1.201,0.729,2.3,1.68,3.107c0.983,0.788,2.158,1.346,3.357,1.673
					c0.597,0.177,1.209,0.277,1.798,0.353c0.613,0.07,1.205,0.088,1.779,0.079c1.156-0.028,2.249-0.222,3.215-0.536
					c0.97-0.309,1.801-0.766,2.457-1.271c0.664-0.5,1.125-1.083,1.401-1.61c0.291-0.523,0.395-0.989,0.444-1.305
					C208.954,270.992,208.969,270.821,208.969,270.821z"/>
			</g>
			<g>
				<ellipse fill="#B3B3B3" cx="106.484" cy="269.008" rx="9.176" ry="6.011"/>
				<path fill="#000100" d="M115.66,269.008c0,0-0.014,0.188-0.038,0.54c-0.05,0.348-0.157,0.865-0.472,1.449
					c-0.3,0.588-0.804,1.234-1.514,1.825c-0.707,0.596-1.621,1.123-2.679,1.55c-1.061,0.423-2.277,0.722-3.589,0.839
					c-0.66,0.053-1.339,0.075-2.019,0.041c-0.702-0.042-1.41-0.112-2.119-0.272c-1.422-0.286-2.864-0.85-4.123-1.799
					c-1.234-0.938-2.287-2.436-2.299-4.172l0.047-0.602c0.029-0.2,0.091-0.431,0.14-0.643c0.129-0.411,0.287-0.792,0.504-1.146
					c0.421-0.709,0.985-1.301,1.606-1.784c1.259-0.949,2.701-1.516,4.123-1.801c2.846-0.587,5.606-0.236,7.728,0.608
					c1.059,0.428,1.972,0.956,2.68,1.551c0.71,0.591,1.213,1.238,1.514,1.825c0.314,0.584,0.422,1.102,0.472,1.449
					C115.646,268.82,115.66,269.008,115.66,269.008z M115.66,269.008c0,0-0.016-0.188-0.045-0.539
					c-0.055-0.347-0.168-0.861-0.488-1.438c-0.305-0.58-0.813-1.222-1.542-1.774c-0.722-0.559-1.637-1.062-2.703-1.404
					c-2.115-0.7-4.825-0.86-7.487-0.138c-1.324,0.358-2.625,0.967-3.715,1.84c-1.059,0.896-1.883,2.099-1.871,3.454
					c-0.018,1.343,0.815,2.565,1.87,3.456c1.091,0.872,2.392,1.482,3.716,1.84c0.66,0.193,1.335,0.301,1.985,0.382
					c0.676,0.075,1.329,0.094,1.962,0.082c1.275-0.036,2.478-0.253,3.541-0.603c1.066-0.344,1.981-0.848,2.703-1.406
					c0.729-0.553,1.236-1.194,1.541-1.775c0.32-0.577,0.434-1.09,0.488-1.437C115.645,269.195,115.66,269.008,115.66,269.008z"/>
			</g>
			<g>
				
					<ellipse transform="matrix(0.9025 -0.4308 0.4308 0.9025 -93.2501 60.4755)" fill="#B3B3B3" cx="86.917" cy="236.153" rx="8.15" ry="5.339"/>
				<path fill="#000100" d="M94.272,232.643c0,0,0.062,0.155,0.177,0.447c0.093,0.298,0.205,0.754,0.177,1.342
					c-0.012,1.18-0.673,2.831-2.061,4.32c-0.687,0.748-1.546,1.458-2.552,2.06c-0.51,0.298-1.046,0.578-1.604,0.813
					c-0.58,0.238-1.176,0.455-1.807,0.602c-1.253,0.321-2.631,0.426-4.014,0.146c-1.358-0.279-2.795-1.085-3.478-2.492l-0.193-0.505
					c-0.054-0.174-0.094-0.387-0.136-0.579c-0.055-0.385-0.074-0.754-0.034-1.124c0.065-0.738,0.298-1.434,0.614-2.062
					c0.652-1.251,1.602-2.256,2.638-3.028c2.067-1.557,4.421-2.324,6.448-2.452c1.014-0.059,1.948,0.016,2.743,0.225
					c0.795,0.205,1.446,0.531,1.911,0.888c0.476,0.348,0.759,0.722,0.932,0.981C94.19,232.497,94.272,232.643,94.272,232.643z
					 M94.272,232.643c0,0-0.085-0.145-0.243-0.415c-0.176-0.257-0.464-0.625-0.941-0.965c-0.466-0.348-1.118-0.668-1.914-0.829
					c-0.793-0.169-1.718-0.223-2.703-0.085c-1.96,0.255-4.186,1.171-6.031,2.772c-0.919,0.795-1.719,1.78-2.254,2.889
					c-0.495,1.119-0.693,2.377-0.172,3.439c0.49,1.063,1.606,1.717,2.783,2.027c1.197,0.281,2.467,0.276,3.662,0.063
					c0.601-0.095,1.182-0.264,1.732-0.444c0.571-0.195,1.102-0.428,1.604-0.677c1.008-0.511,1.891-1.14,2.61-1.823
					c0.727-0.68,1.268-1.432,1.635-2.154c0.375-0.721,0.536-1.429,0.559-2.011c0.036-0.584-0.068-1.039-0.157-1.338
					C94.332,232.799,94.272,232.643,94.272,232.643z"/>
			</g>
			<g>
				
					<ellipse transform="matrix(0.9447 0.328 -0.328 0.9447 91.3896 -62.4017)" fill="#B3B3B3" cx="230.683" cy="239.721" rx="6.26" ry="4.101"/>
				<path fill="#000100" d="M236.597,241.774c0,0-0.05,0.118-0.145,0.34c-0.109,0.213-0.294,0.524-0.626,0.831
					c-0.643,0.639-1.893,1.19-3.46,1.269c-0.781,0.047-1.639-0.021-2.521-0.229c-0.443-0.108-0.892-0.241-1.325-0.41
					c-0.452-0.182-0.899-0.382-1.33-0.641c-0.87-0.497-1.697-1.184-2.317-2.098c-0.61-0.896-0.973-2.15-0.575-3.332
					c0.411-1.164,1.486-1.941,2.516-2.262c1.053-0.333,2.128-0.361,3.12-0.211c1.985,0.289,3.684,1.163,4.855,2.205
					c1.181,1.033,1.819,2.241,1.928,3.141c0.071,0.447,0.023,0.805-0.022,1.04C236.631,241.65,236.597,241.774,236.597,241.774z
					 M236.597,241.774c0,0,0.031-0.124,0.091-0.358c0.042-0.235,0.082-0.592,0.004-1.034c-0.114-0.892-0.814-2.071-2.043-2.972
					c-1.213-0.902-2.926-1.581-4.783-1.681c-0.922-0.05-1.878,0.065-2.746,0.381c-0.855,0.345-1.604,0.9-1.878,1.722
					c-0.295,0.801-0.051,1.723,0.405,2.517c0.486,0.785,1.164,1.47,1.92,2.002c0.373,0.274,0.777,0.499,1.169,0.7
					c0.415,0.206,0.826,0.368,1.23,0.507c0.819,0.272,1.638,0.413,2.397,0.437c1.523,0.053,2.803-0.438,3.445-1.068
					c0.336-0.299,0.524-0.604,0.638-0.814C236.544,241.892,236.597,241.774,236.597,241.774z"/>
			</g>
			<g>
				
					<ellipse transform="matrix(0.9061 0.423 -0.423 0.9061 113.8401 -80.6259)" fill="#B3B3B3" cx="238.568" cy="216.166" rx="5.852" ry="2.51"/>
				<path fill="#000100" d="M243.917,218.659l-0.003,0.009c0,0-0.043,0.096-0.164,0.263c-0.134,0.175-0.384,0.359-0.743,0.51
					c-0.724,0.291-1.854,0.381-3.166,0.183c-0.656-0.095-1.36-0.266-2.069-0.54c-0.36-0.134-0.723-0.301-1.06-0.471
					c-0.363-0.188-0.723-0.391-1.074-0.612c-0.69-0.468-1.375-1.013-1.956-1.706c-0.289-0.349-0.555-0.736-0.743-1.192
					c-0.184-0.443-0.292-1.033-0.036-1.579c0.115-0.18,0.103-0.187,0.225-0.326c0.107-0.116,0.226-0.235,0.335-0.295
					c0.221-0.155,0.46-0.245,0.691-0.307c0.468-0.125,0.927-0.15,1.37-0.131c0.887,0.044,1.721,0.244,2.5,0.498
					c1.555,0.515,2.887,1.291,3.893,2.118c1.002,0.826,1.693,1.688,1.971,2.401c0.136,0.357,0.156,0.669,0.119,0.875
					C243.964,218.557,243.918,218.657,243.917,218.659z M243.825,218.619c-0.021,0.01,0.246-0.397-0.032-1.102
					c-0.246-0.699-1.01-1.501-2.053-2.203c-1.048-0.697-2.383-1.362-3.888-1.799c-0.751-0.209-1.549-0.359-2.345-0.364
					c-0.766-0.01-1.656,0.194-1.88,0.709c-0.204,0.513,0.243,1.267,0.762,1.813c0.537,0.563,1.169,1.046,1.815,1.454
					c0.32,0.212,0.645,0.403,0.96,0.577c0.335,0.168,0.663,0.333,0.982,0.493c0.643,0.297,1.262,0.559,1.851,0.758
					c1.174,0.39,2.253,0.525,2.948,0.31c0.348-0.097,0.583-0.271,0.706-0.403C243.771,218.719,243.822,218.626,243.825,218.619z"/>
			</g>
			<g>
				<path fill="#B3B3B3" d="M78.397,211.052c0.32,1.351-1.968,3.047-5.112,3.793c-3.145,0.747-5.954,0.26-6.275-1.089
					c-0.318-1.35,1.972-3.049,5.116-3.794C75.27,209.215,78.076,209.703,78.397,211.052z"/>
				<path fill="#000100" d="M78.445,211.037l0.002,0.009c0,0,0.026,0.103,0.034,0.308c0.005,0.22-0.077,0.521-0.266,0.86
					c-0.386,0.678-1.218,1.45-2.368,2.109c-0.574,0.333-1.232,0.636-1.958,0.861c-0.365,0.119-0.753,0.213-1.123,0.288
					c-0.401,0.079-0.809,0.144-1.222,0.188c-0.832,0.063-1.707,0.061-2.594-0.123c-0.442-0.093-0.891-0.233-1.322-0.473
					c-0.419-0.234-0.87-0.63-1.008-1.217c-0.021-0.213-0.036-0.209-0.027-0.395c0.012-0.158,0.032-0.325,0.081-0.439
					c0.076-0.259,0.208-0.478,0.352-0.67c0.288-0.388,0.633-0.692,0.992-0.952c0.723-0.516,1.501-0.878,2.269-1.162
					c1.539-0.563,3.065-0.781,4.366-0.758c1.3,0.025,2.376,0.271,3.037,0.659c0.327,0.196,0.537,0.428,0.636,0.612
					C78.417,210.928,78.444,211.035,78.445,211.037z M78.348,211.063c-0.012,0.021-0.054-0.464-0.709-0.844
					c-0.627-0.396-1.724-0.55-2.977-0.453c-1.255,0.104-2.714,0.412-4.164,1.005c-0.719,0.302-1.438,0.68-2.064,1.17
					c-0.606,0.468-1.178,1.183-1.035,1.723c0.159,0.529,0.978,0.843,1.723,0.949c0.771,0.107,1.565,0.094,2.325,0.012
					c0.384-0.032,0.756-0.084,1.112-0.144c0.367-0.076,0.726-0.15,1.075-0.224c0.688-0.166,1.336-0.346,1.923-0.555
					c1.161-0.425,2.091-0.987,2.503-1.588c0.212-0.292,0.289-0.574,0.303-0.754C78.367,211.174,78.35,211.07,78.348,211.063z"/>
			</g>
		</g>
		<path fill="#000100" d="M91.876,84.937c-0.013-0.051-0.046-0.085-0.078-0.121l0.003,0.269
			C91.82,85.037,91.856,84.987,91.876,84.937z"/>
		<g>
			
				<linearGradient id="SVGID_6_" gradientUnits="userSpaceOnUse" x1="154.459" y1="-6.9805" x2="167.3535" y2="-6.9805" gradientTransform="matrix(0.9914 -0.131 0.131 0.9914 -55.8425 60.4261)">
				<stop  offset="0" style="stop-color:#D26F31"/>
				<stop  offset="0.1426" style="stop-color:#D4772F"/>
				<stop  offset="0.3788" style="stop-color:#DA8B27"/>
				<stop  offset="0.5521" style="stop-color:#E09D1B"/>
				<stop  offset="0.8652" style="stop-color:#E5C51C"/>
				<stop  offset="0.9944" style="stop-color:#BF7022"/>
			</linearGradient>
			<path fill="url(#SVGID_6_)" d="M104.354,43.391c2.329-0.337,5.335-7.76,5.335-7.76l-5.844-7.658
				c1.003-0.765,1.578-2.027,1.401-3.369c-0.263-1.994-2.093-3.398-4.089-3.134c-1.993,0.263-3.397,2.095-3.133,4.087
				c0.181,1.368,1.096,2.457,2.299,2.921l-3.418,8.843C96.906,37.32,101.977,43.729,104.354,43.391z"/>
			<path fill="#000100" d="M104.417,43.961c-2.577,0.34-7.087-5.176-7.963-6.283c-0.128-0.161-0.161-0.377-0.085-0.567l3.221-8.339
				c-1.159-0.642-1.963-1.801-2.139-3.138c-0.305-2.306,1.325-4.429,3.633-4.733c2.305-0.305,4.43,1.322,4.733,3.628
				c0.173,1.301-0.275,2.602-1.188,3.523l5.519,7.227c0.125,0.164,0.154,0.379,0.075,0.567c-0.521,1.292-3.256,7.748-5.784,8.112
				C104.437,43.958,104.42,43.959,104.417,43.961z M97.563,37.219c2.035,2.516,5.331,5.779,6.703,5.599l0.076,0.574l-0.069-0.575
				c1.335-0.188,3.533-4.166,4.76-7.099l-5.644-7.391c-0.193-0.256-0.145-0.617,0.108-0.809c0.869-0.668,1.323-1.755,1.179-2.839
				c-0.221-1.675-1.765-2.86-3.442-2.64c-1.677,0.222-2.858,1.767-2.638,3.441c0.146,1.113,0.888,2.055,1.934,2.459
				c0.297,0.116,0.446,0.449,0.332,0.746L97.563,37.219z"/>
			
				<linearGradient id="SVGID_8_" gradientUnits="userSpaceOnUse" x1="191.6943" y1="-6.9814" x2="204.5918" y2="-6.9814" gradientTransform="matrix(0.9914 -0.131 0.131 0.9914 -55.8425 60.4261)">
				<stop  offset="0" style="stop-color:#D26F31"/>
				<stop  offset="0.1426" style="stop-color:#D4772F"/>
				<stop  offset="0.3788" style="stop-color:#DA8B27"/>
				<stop  offset="0.5521" style="stop-color:#E09D1B"/>
				<stop  offset="0.8652" style="stop-color:#E5C51C"/>
				<stop  offset="0.9944" style="stop-color:#BF7022"/>
			</linearGradient>
			<path fill="url(#SVGID_8_)" d="M140.989,38.55c2.385-0.288,5.617-7.797,5.617-7.797l-5.598-7.649
				c1.038-0.762,1.644-2.051,1.463-3.418c-0.264-1.993-2.096-3.397-4.091-3.135c-1.994,0.264-3.395,2.095-3.133,4.089
				c0.178,1.342,1.063,2.413,2.227,2.89l-3.654,8.913C133.82,32.442,138.65,38.83,140.989,38.55z"/>
			<path fill="#000100" d="M141.077,39.117c-0.001,0-0.016,0.002-0.02,0.002c-2.539,0.305-6.855-5.219-7.697-6.329
				c-0.123-0.164-0.15-0.377-0.072-0.569l3.451-8.412c-1.12-0.653-1.893-1.795-2.064-3.094c-0.304-2.306,1.325-4.428,3.631-4.733
				c2.306-0.305,4.432,1.322,4.737,3.628c0.177,1.337-0.297,2.666-1.252,3.587l5.279,7.216c0.122,0.164,0.145,0.382,0.064,0.568
				C146.575,32.278,143.654,38.776,141.077,39.117z M134.478,32.355c1.948,2.514,5.103,5.783,6.444,5.619l0.08,0.574l-0.077-0.574
				c1.375-0.183,3.705-4.189,5.021-7.149l-5.4-7.381c-0.19-0.259-0.132-0.618,0.123-0.807c0.906-0.661,1.379-1.765,1.231-2.877
				c-0.222-1.675-1.767-2.86-3.442-2.64c-1.677,0.222-2.861,1.769-2.64,3.443c0.145,1.084,0.863,2.016,1.878,2.436
				c0.294,0.121,0.434,0.456,0.313,0.753L134.478,32.355z"/>
			
				<linearGradient id="SVGID_10_" gradientUnits="userSpaceOnUse" x1="138.3076" y1="-6.6982" x2="220.7393" y2="-6.6982" gradientTransform="matrix(0.9914 -0.131 0.131 0.9914 -55.8425 60.4261)">
				<stop  offset="0" style="stop-color:#D26F31"/>
				<stop  offset="0.1426" style="stop-color:#D4772F"/>
				<stop  offset="0.3788" style="stop-color:#DA8B27"/>
				<stop  offset="0.5521" style="stop-color:#E09D1B"/>
				<stop  offset="0.8652" style="stop-color:#E5C51C"/>
				<stop  offset="0.9944" style="stop-color:#BF7022"/>
			</linearGradient>
			<path fill="url(#SVGID_10_)" d="M155.197,17.152c-1.637-0.42-2.938-1.791-3.174-3.573c-0.308-2.331,1.334-4.477,3.67-4.784
				c2.335-0.309,4.478,1.335,4.785,3.667c0.309,2.337-1.331,4.479-3.669,4.787c0,0-0.305,29.121-3.71,35.37l-28.393,3.751
				l-28.395,3.753c-4.91-5.151-12.77-33.193-12.77-33.193c-2.336,0.309-4.478-1.334-4.786-3.671
				c-0.309-2.33,1.333-4.476,3.669-4.784c2.337-0.309,4.479,1.335,4.787,3.667c0.236,1.781-0.664,3.444-2.135,4.276l0.257,0.343
				c1.936,2.68,14.692,20.018,20.093,19.305c6.008-0.794,12.571-30.987,12.571-30.987l0.007-0.051
				c-2.481-0.236-4.56-2.152-4.899-4.724c-0.397-2.993,1.711-5.739,4.704-6.135c2.991-0.395,5.737,1.709,6.133,4.702
				c0.339,2.572-1.17,4.962-3.501,5.833l0.019,0.049c0,0,14.178,27.453,20.188,26.659c5.329-0.705,13.007-20.242,14.337-23.731
				L155.197,17.152z"/>
			<path fill="#000100" d="M153.176,53.19l-56.787,7.503c-0.183,0.023-0.364-0.039-0.494-0.175
				c-4.661-4.888-11.702-29.2-12.775-32.978c-2.45,0.069-4.605-1.727-4.934-4.207c-0.349-2.646,1.521-5.081,4.165-5.43
				c2.648-0.35,5.086,1.517,5.436,4.162c0.23,1.757-0.499,3.456-1.882,4.497c5.341,7.368,15.317,19.478,19.447,18.931
				c4.052-0.534,9.316-18.017,11.964-29.988c-2.512-0.507-4.437-2.534-4.78-5.127c-0.436-3.304,1.896-6.344,5.199-6.78
				c3.301-0.437,6.343,1.896,6.779,5.197c0.343,2.594-0.989,5.05-3.283,6.193c5.666,10.873,15.292,26.387,19.344,25.853
				c3.608-0.478,9.557-12.057,13.86-23.333c-1.608-0.646-2.75-2.098-2.981-3.854c-0.35-2.646,1.518-5.081,4.164-5.431
				c2.646-0.35,5.085,1.518,5.434,4.163c0.327,2.479-1.29,4.774-3.672,5.344c-0.054,3.926-0.539,29.232-3.773,35.163
				C153.515,53.058,153.355,53.167,153.176,53.19z M96.536,59.513l56.188-7.425c3.177-6.563,3.506-34.558,3.508-34.845
				c0.007-0.286,0.219-0.526,0.502-0.564c2.016-0.266,3.439-2.124,3.174-4.142c-0.266-2.014-2.124-3.438-4.14-3.172
				c-2.018,0.266-3.441,2.124-3.174,4.138c0.198,1.503,1.276,2.715,2.745,3.092c0.161,0.043,0.294,0.149,0.369,0.296
				c0.076,0.148,0.086,0.321,0.025,0.477l-0.212,0.527c-2.085,5.463-9.316,23.365-14.798,24.09
				c-6.229,0.823-19.308-24.121-20.777-26.967c-0.012-0.021-0.021-0.043-0.027-0.066l-0.017-0.047
				c-0.113-0.297,0.039-0.629,0.336-0.74c2.144-0.8,3.432-2.945,3.131-5.217c-0.353-2.674-2.815-4.56-5.484-4.207
				c-2.672,0.353-4.558,2.814-4.204,5.487c0.299,2.272,2.099,4.009,4.376,4.226c0.153,0.013,0.296,0.09,0.393,0.208
				c0.097,0.121,0.145,0.274,0.128,0.429l-0.009,0.049c0,0.021-0.005,0.043-0.008,0.063c-0.681,3.129-6.831,30.613-13.059,31.437
				c-5.521,0.729-17.189-14.772-20.635-19.541l-0.249-0.333c-0.103-0.131-0.14-0.3-0.105-0.466c0.033-0.16,0.138-0.3,0.282-0.382
				c1.32-0.746,2.045-2.196,1.847-3.698c-0.266-2.015-2.124-3.439-4.142-3.172c-2.016,0.266-3.439,2.124-3.172,4.138
				c0.266,2.018,2.122,3.442,4.138,3.176c0.287-0.038,0.555,0.141,0.632,0.414C84.176,27.05,91.765,53.999,96.536,59.513z"/>
			
				<linearGradient id="SVGID_12_" gradientUnits="userSpaceOnUse" x1="150.6758" y1="22.9453" x2="208.8037" y2="22.9453" gradientTransform="matrix(0.9914 -0.131 0.131 0.9914 -55.8425 60.4261)">
				<stop  offset="0" style="stop-color:#D26F31"/>
				<stop  offset="0.1426" style="stop-color:#D4772F"/>
				<stop  offset="0.3788" style="stop-color:#DA8B27"/>
				<stop  offset="0.5521" style="stop-color:#E09D1B"/>
				<stop  offset="0.8652" style="stop-color:#E5C51C"/>
				<stop  offset="0.9944" style="stop-color:#BF7022"/>
			</linearGradient>
			<path fill="url(#SVGID_12_)" d="M154.564,58.827c0.087,0.653-0.371,1.252-1.023,1.339l-55.265,7.302
				c-0.654,0.085-1.252-0.372-1.339-1.027l-0.794-6.009c-0.087-0.653,0.373-1.25,1.025-1.337l55.267-7.302
				c0.651-0.086,1.25,0.372,1.335,1.024L154.564,58.827z"/>
			<path fill="#000100" d="M153.616,60.736l-55.265,7.302c-0.968,0.127-1.858-0.556-1.986-1.521l-0.794-6.01
				c-0.128-0.966,0.555-1.856,1.522-1.984l55.265-7.302c0.966-0.128,1.858,0.556,1.984,1.521l0.796,6.01
				C155.265,59.718,154.582,60.608,153.616,60.736z M97.244,59.665c-0.338,0.045-0.575,0.354-0.531,0.69l0.794,6.01
				c0.044,0.335,0.356,0.576,0.694,0.531l55.265-7.302c0.334-0.044,0.574-0.357,0.528-0.692l-0.794-6.009
				c-0.045-0.338-0.354-0.574-0.689-0.53L97.244,59.665z"/>
		</g>
	</g>
</g>
</svg>
