<?xml version="1.0" encoding="utf-8"?>
<!-- Generator: Adobe Illustrator 16.0.0, SVG Export Plug-In . SVG Version: 6.00 Build 0)  -->
<!DOCTYPE svg PUBLIC "-//W3C//DTD SVG 1.1//EN" "http://www.w3.org/Graphics/SVG/1.1/DTD/svg11.dtd">
<svg version="1.1" id="Capa_1" xmlns="http://www.w3.org/2000/svg" xmlns:xlink="http://www.w3.org/1999/xlink" x="0px" y="0px"
	 width="261px" height="269px" viewBox="0 0 261 269" enable-background="new 0 0 261 269" xml:space="preserve">
<g>
	<g>
		<path fill="#FFFFFF" d="M70.784,157.789c0.79,4.036,1.682,7.743,3.145,11.051h113.145c1.464-3.308,2.356-7.015,3.146-11.051
			H70.784z"/>
		<path fill="#FFFFFF" d="M62.95,135.691c2.025,3.246,4.053,7.066,5.411,11.049h124.279c1.358-3.982,3.386-7.803,5.411-11.049H62.95
			z"/>
		<path fill="#FFFFFF" d="M206.33,124.64c10.385-12.806,10.403-20.709,8.678-25.035c0.211-0.398,0.436-0.82,0.678-1.27
			c5.564-10.334,1.281-20.121,1.281-20.121s-10.965,1.066-17.715,10.723c-1.132,1.617-2.017,2.839-2.712,3.759
			c-1.661,0.211-3.381,0.605-5.12,1.257c-2.998,1.328-8.563,9.373-9.924,9.373s-11.09,7.393-12.84,14.477
			c-0.745,3.012-1.912,5.244-3.188,6.838H206.33z"/>
		<path fill="#FFFFFF" d="M84.163,179.888c0.07,0.038,0.135,0.078,0.206,0.115c11.284,5.998,15.564,6.373,25.488,16.496
			c3.696,4.875,13.035,8.727,20.643,8.727c7.744,0,16.949-3.852,20.645-8.727c9.924-10.123,14.203-10.498,25.488-16.496
			c0.07-0.038,0.137-0.077,0.206-0.115H84.163z"/>
		<path fill="#FFFFFF" d="M107.134,120.574c0.038,1.711-0.103,3.037-0.367,4.066h47.469c-0.265-1.03-0.404-2.355-0.366-4.066
			c0.193-8.813-0.973-34.494-2.141-41.619s1.752-13.498-0.584-17.248c-1.572-2.526-4.912-10.578-9.304-15.968
			c-0.175-1.359-0.362-3.455-0.552-6.66C140.512,25.956,130.5,18.832,130.5,18.832s-10.01,7.124-10.787,20.247
			c-0.191,3.206-0.378,5.302-0.553,6.661c-0.327,0.401-0.649,0.813-0.964,1.241v0c-3.915,5.314-6.883,12.388-8.339,14.726
			c-2.335,3.75,0.584,10.123-0.584,17.248S106.938,111.761,107.134,120.574z"/>
		<path fill="#FFFFFF" d="M45.994,99.604c-1.726,4.325-1.707,12.229,8.678,25.036h40.862c-1.274-1.594-2.442-3.826-3.187-6.838
			c-1.752-7.084-11.479-14.477-12.842-14.477c-1.361,0-6.925-8.045-9.922-9.373c-1.739-0.652-3.459-1.046-5.121-1.257
			c-0.695-0.92-1.581-2.142-2.712-3.759c-6.749-9.656-17.716-10.723-17.716-10.723s-4.282,9.787,1.282,20.121
			C45.559,98.785,45.783,99.207,45.994,99.604z"/>
	</g>
	<g>
		<path fill="#FFFFFF" d="M24.422,230.385c0-3.403,1.207-6.292,3.622-8.666c2.415-2.376,5.363-3.563,8.845-3.563
			c2.567,0,4.855,0.71,6.863,2.132v-1.905h5.809v31.785h-5.809v-9.619c-2.042,1.393-4.333,2.094-6.874,2.111
			c-3.434,0-6.367-1.203-8.803-3.606C25.64,236.646,24.422,233.758,24.422,230.385z M32.053,225.599
			c-1.366,1.358-2.05,2.957-2.05,4.786c0,1.831,0.684,3.426,2.05,4.787c1.366,1.362,2.976,2.043,4.825,2.043
			s3.457-0.681,4.824-2.043c1.367-1.36,2.05-2.956,2.05-4.787c0-1.829-0.683-3.428-2.05-4.786c-1.367-1.362-2.975-2.043-4.824-2.043
			S33.419,224.237,32.053,225.599z"/>
		<path fill="#FFFFFF" d="M52.419,230.839v-12.456h5.809v10.967c0,2.718,0.343,4.669,1.032,5.848
			c0.688,1.177,2.068,1.768,4.141,1.768c1.604,0,2.87-0.48,3.8-1.44c0.931-0.959,1.396-2.292,1.396-4v-13.143h5.808v23.755h-5.808
			v-1.915c-1.679,1.427-3.812,2.142-6.398,2.142C55.679,242.365,52.419,238.522,52.419,230.839z"/>
		<path fill="#FFFFFF" d="M76.536,230.385c0-3.403,1.206-6.292,3.619-8.666c2.412-2.376,5.357-3.563,8.837-3.563
			c3.66,0,6.647,1.224,8.961,3.675c2.314,2.451,3.472,5.423,3.472,8.917c0,0.379-0.03,0.908-0.09,1.588H82.48
			c0.499,1.543,1.342,2.743,2.53,3.597c1.188,0.853,2.665,1.281,4.436,1.281c1.451,0,2.666-0.243,3.642-0.727
			s1.849-1.248,2.62-2.293l4.899,2.702c-2.541,3.842-6.261,5.763-11.161,5.763c-3.722,0-6.804-1.165-9.246-3.494
			S76.536,233.909,76.536,230.385z M82.616,227.731h12.639c-1.181-2.783-3.268-4.175-6.263-4.175c-1.392,0-2.662,0.385-3.812,1.156
			S83.176,226.491,82.616,227.731z"/>
		<path fill="#FFFFFF" d="M102.174,242.139v-5.15l12.592-13.409h-12.002v-5.196h19.671v5.196l-12.593,13.409h13.408v5.15H102.174z"
			/>
		<path fill="#FFFFFF" d="M123.432,230.385c0-3.403,1.208-6.292,3.622-8.666c2.415-2.376,5.365-3.563,8.846-3.563
			c2.566,0,4.855,0.71,6.863,2.132v-1.905h5.81v23.755h-5.81v-1.59c-2.041,1.393-4.334,2.094-6.874,2.111
			c-3.436,0-6.369-1.203-8.804-3.606C124.649,236.646,123.432,233.758,123.432,230.385z M131.063,225.599
			c-1.367,1.358-2.05,2.957-2.05,4.786c0,1.831,0.683,3.426,2.05,4.787c1.366,1.362,2.975,2.043,4.825,2.043
			s3.456-0.681,4.823-2.043c1.367-1.36,2.051-2.956,2.051-4.787c0-1.829-0.684-3.428-2.051-4.786
			c-1.367-1.362-2.973-2.043-4.823-2.043S132.43,224.237,131.063,225.599z"/>
		<path fill="#FFFFFF" d="M151.429,230.839v-12.456h5.809v10.967c0,2.718,0.343,4.669,1.033,5.848
			c0.687,1.177,2.068,1.768,4.141,1.768c1.603,0,2.869-0.48,3.8-1.44c0.929-0.959,1.396-2.292,1.396-4v-13.143h5.807v23.755h-5.807
			v-1.915c-1.68,1.427-3.813,2.142-6.399,2.142C154.688,242.365,151.429,238.522,151.429,230.839z"/>
		<path fill="#FFFFFF" d="M176.386,242.139v-23.755h5.854v2.283c1.648-1.644,3.984-2.479,7.011-2.51l-0.387,6.171
			c-2.57,0-4.318,0.446-5.24,1.34c-0.923,0.896-1.384,2.354-1.384,4.384v12.087H176.386z"/>
		<path fill="#FFFFFF" d="M191.179,230.839v-12.456h5.807v10.967c0,2.718,0.345,4.669,1.033,5.848
			c0.688,1.177,2.068,1.768,4.141,1.768c1.603,0,2.871-0.48,3.802-1.44c0.929-0.959,1.393-2.292,1.393-4v-13.143h5.811v23.755
			h-5.811v-1.915c-1.676,1.427-3.81,2.142-6.397,2.142C194.437,242.365,191.179,238.522,191.179,230.839z"/>
		<path fill="#FFFFFF" d="M215.204,234.515h6.172c0.091,1.028,0.525,1.876,1.305,2.542c0.78,0.664,1.924,0.996,3.438,0.996
			c1.179,0,2.115-0.242,2.813-0.726c0.696-0.483,1.045-1.068,1.045-1.748c0-0.439-0.126-0.803-0.375-1.091
			c-0.249-0.286-0.647-0.518-1.191-0.691c-0.545-0.176-0.981-0.286-1.312-0.33c-0.328-0.046-0.771-0.107-1.329-0.183
			c-1.496-0.231-2.244-0.347-2.244-0.347s-0.729-0.202-2.187-0.606c-1.458-0.404-2.504-0.837-3.138-1.299
			c-0.636-0.461-1.204-1.142-1.703-2.041c-0.498-0.901-0.746-1.941-0.746-3.12c0-2.33,0.868-4.198,2.607-5.604
			c1.74-1.408,4.137-2.109,7.193-2.109c3.008,0,5.395,0.7,7.156,2.098c1.764,1.399,2.742,3.286,2.938,5.662h-5.944
			c-0.061-0.591-0.17-1.087-0.329-1.487c-0.158-0.399-0.549-0.776-1.169-1.135c-0.618-0.354-1.459-0.532-2.518-0.532
			c-1.119,0-2.001,0.183-2.643,0.551c-0.643,0.367-0.965,0.858-0.965,1.473c0,0.208,0.03,0.4,0.093,0.571
			c0.06,0.172,0.167,0.327,0.318,0.462c0.153,0.134,0.312,0.259,0.469,0.371c0.163,0.112,0.385,0.211,0.666,0.299
			c0.281,0.09,0.521,0.165,0.716,0.225c0.195,0.061,0.461,0.134,0.796,0.219c0.337,0.083,0.61,0.145,0.815,0.182
			c0.208,0.036,0.495,0.087,0.866,0.15l0.819,0.145c1.361,0.212,2.509,0.466,3.438,0.759c0.931,0.296,1.854,0.709,2.769,1.239
			c0.914,0.529,1.6,1.24,2.054,2.134c0.452,0.894,0.681,1.976,0.681,3.246c0,2.604-0.962,4.565-2.883,5.889
			c-1.922,1.321-4.477,1.985-7.668,1.985c-3.343,0-5.952-0.715-7.827-2.144C216.324,239.084,215.325,237.086,215.204,234.515z"/>
	</g>
</g>
</svg>
