<?xml version="1.0" encoding="utf-8"?>
<!-- Generator: Adobe Illustrator 16.0.0, SVG Export Plug-In . SVG Version: 6.00 Build 0)  -->
<!DOCTYPE svg PUBLIC "-//W3C//DTD SVG 1.1//EN" "http://www.w3.org/Graphics/SVG/1.1/DTD/svg11.dtd">
<svg version="1.1" id="Capa_1" xmlns="http://www.w3.org/2000/svg" xmlns:xlink="http://www.w3.org/1999/xlink" x="0px" y="0px"
	 width="261px" height="269px" viewBox="0 0 261 269" enable-background="new 0 0 261 269" xml:space="preserve">
<g>
	<path fill="#FFFFFF" d="M52.261,194.452c1.035,5.288,2.204,10.145,4.121,14.479h148.238c1.918-4.334,3.087-9.19,4.122-14.479
		H52.261z"/>
	<path fill="#FFFFFF" d="M229.848,151.022c13.605-16.777,13.63-27.133,11.37-32.8c0.276-0.521,0.57-1.074,0.888-1.663
		c7.29-13.539,1.679-26.362,1.679-26.362s-14.366,1.397-23.209,14.049c-1.483,2.118-2.643,3.719-3.553,4.925
		c-2.177,0.275-4.43,0.792-6.709,1.646c-3.929,1.74-11.219,12.28-13.002,12.28s-14.529,9.685-16.822,18.966
		c-0.976,3.946-2.505,6.871-4.176,8.959H229.848z"/>
	<path fill="#FFFFFF" d="M41.998,165.501c2.653,4.252,5.31,9.258,7.089,14.476h162.826c1.779-5.218,4.436-10.224,7.09-14.476H41.998
		z"/>
	<path fill="#FFFFFF" d="M69.79,223.406c0.091,0.05,0.177,0.102,0.27,0.151c14.784,7.857,20.392,8.35,33.394,21.612
		c4.843,6.387,17.078,11.434,27.045,11.434c10.146,0,22.206-5.047,27.048-11.434c13.002-13.263,18.607-13.755,33.394-21.612
		c0.092-0.05,0.179-0.102,0.27-0.151H69.79z"/>
	<path fill="#FFFFFF" d="M99.885,145.695c0.049,2.241-0.134,3.979-0.481,5.327h62.191c-0.346-1.349-0.529-3.086-0.479-5.327
		c0.253-11.546-1.274-45.193-2.805-54.528s2.296-17.685-0.765-22.597c-2.061-3.311-6.437-13.859-12.19-20.921
		c-0.229-1.78-0.475-4.526-0.722-8.726c-1.02-17.193-14.136-26.527-14.136-26.527s-13.115,9.334-14.133,26.527
		c-0.25,4.2-0.496,6.945-0.724,8.727c-0.428,0.525-0.851,1.065-1.263,1.625v0.001c-5.128,6.962-9.018,16.23-10.925,19.294
		c-3.059,4.912,0.765,13.262-0.765,22.597C101.159,100.502,99.629,134.149,99.885,145.695z"/>
	<path fill="#FFFFFF" d="M19.782,118.222c-2.261,5.667-2.236,16.022,11.37,32.801h53.536c-1.67-2.088-3.2-5.013-4.175-8.959
		c-2.295-9.281-15.04-18.966-16.825-18.966c-1.784,0-9.073-10.54-12.999-12.28c-2.279-0.854-4.532-1.371-6.709-1.646
		c-0.911-1.206-2.071-2.807-3.554-4.925c-8.842-12.651-23.21-14.049-23.21-14.049s-5.61,12.823,1.68,26.362
		C19.212,117.148,19.506,117.701,19.782,118.222z"/>
</g>
</svg>
