<?xml version="1.0" encoding="utf-8"?>
<!-- Generator: Adobe Illustrator 16.0.0, SVG Export Plug-In . SVG Version: 6.00 Build 0)  -->
<!DOCTYPE svg PUBLIC "-//W3C//DTD SVG 1.1//EN" "http://www.w3.org/Graphics/SVG/1.1/DTD/svg11.dtd">
<svg version="1.1" id="Capa_1" xmlns="http://www.w3.org/2000/svg" xmlns:xlink="http://www.w3.org/1999/xlink" x="0px" y="0px"
	 width="300px" height="300px" viewBox="0 0 300 300" enable-background="new 0 0 300 300" xml:space="preserve">
<g>
	<defs>
		<rect id="SVGID_1_" y="0" width="300" height="299.999"/>
	</defs>
	<clipPath id="SVGID_2_">
		<use xlink:href="#SVGID_1_"  overflow="visible"/>
	</clipPath>
	<g clip-path="url(#SVGID_2_)">
		<path fill="none" d="M164.307,282.163l1.025,4.837c0.353,1.596,0.672,3.208,1.058,4.788c0.336,1.461,0.705,2.904,1.176,4.266
			c0.772-2.957,1.511-5.929,2.267-8.884c0.975-3.897,1.949-7.76,2.855-11.657c0.891-3.897,1.696-7.792,2.334-11.722
			c0.32-1.966,0.522-3.932,0.589-5.896c0.033-0.991,0.017-1.965-0.134-2.921c-0.017-0.169-0.051-0.336-0.084-0.521
			c-0.57,0.202-1.125,0.387-1.714,0.538c-2.552,0.706-5.173,0.924-7.741,0.891c-0.035,0.117-0.051,0.251-0.067,0.369
			c-0.169,0.622-0.403,1.276-0.858,1.965c-0.469,0.655-1.276,1.327-2.267,1.494c-0.471,0.084-0.94,0.084-1.36,0.017
			c-0.438-0.083-0.756-0.151-1.277-0.402c-0.049-0.035-0.117-0.067-0.167-0.118l-0.151-0.134l-0.252-0.202
			c1.394,6.147,2.586,12.311,3.795,18.425L164.307,282.163z"/>
		<path fill="none" d="M198.217,223.565c-0.387,1.696-0.824,3.375-1.361,5.039c-0.889,2.821-1.947,5.593-3.257,8.296
			c-1.311,2.688-2.839,5.324-4.753,7.727c-0.387,0.52-0.823,1.023-1.259,1.511c5.055,1.277,10.295,2.939,13.25,4.82
			C202.65,245.448,206.144,231.459,198.217,223.565z"/>
		<path fill="none" d="M112.931,264.964l7.221,11.438c3.981,6.449,7.894,12.949,11.74,19.481l3.612-15.635
			c0.754-3.292,1.478-6.583,2.132-9.894c0.336-1.661,0.589-3.325,0.856-4.988c0.134-0.958,0.252-1.93,0.32-2.904
			c-0.067,0.016-0.151,0.033-0.234,0.049c-1.025,0.135-2.067,0.035-3.041-0.202c-0.991-0.218-1.914-0.671-2.737-1.208
			c-0.42-0.269-0.789-0.604-1.16-0.907c-0.334-0.353-0.687-0.689-0.991-1.058c-0.234-0.336-0.487-0.673-0.722-1.025
			c-0.403,0.605-1.074,1.025-1.865,1.076h-0.017l-0.218,0.016c-4.183,0.235-8.449,0.167-12.664-0.52
			c-2.116-0.336-4.232-0.74-6.298-1.361c-0.437-0.134-0.873-0.285-1.311-0.42l1.647,2.401L112.931,264.964z"/>
		<path fill="none" d="M132.716,258.919c0.336,0.202,0.654,0.436,1.007,0.622c0.705,0.336,1.445,0.571,2.201,0.638
			c0.754,0.084,1.528,0.051,2.234-0.134c0.722-0.186,1.411-0.436,1.947-0.856c0.169-0.135,0.689-0.522,0.907-0.756
			c0.269-0.252,0.521-0.487,0.823-0.823c1.176-1.243,2.419-2.636,3.98-3.846c1.529-1.209,3.577-2.2,5.795-2.283
			c0.554-0.067,1.074,0.017,1.612,0.083l0.806,0.1l0.74,0.236c1.025,0.268,1.914,0.722,2.805,1.174
			c0.874,0.471,1.628,1.06,2.419,1.612l1.898,1.647c0.1,0.033,0.234,0.067,0.251,0.051c0.051,0,0.085,0,0.236-0.135
			c0.151-0.185,0.302-0.487,0.42-0.84c0.049-0.151,0.083-0.303,0.135-0.471c-0.202-0.285-0.32-0.638-0.32-1.007
			c0.067-2.016,0.1-4.083,0.067-6.115c-0.051-2.048-0.083-4.097-0.252-6.129c-0.116-1.596-0.285-3.175-0.536-4.753l-0.638,0.689
			c-0.438,0.537-1.092,0.923-1.68,1.376c-0.605,0.455-1.21,0.875-1.881,1.16c-0.656,0.318-1.294,0.722-1.983,0.958l-2.065,0.738
			c-0.688,0.218-1.41,0.369-2.116,0.555c-0.705,0.185-1.428,0.269-2.15,0.369c-0.722,0.102-1.445,0.218-2.167,0.252
			c-1.208,0.118-2.436,0.118-3.644,0.118l-1.495-0.051c-1.176-0.051-2.352-0.151-3.511-0.302c-0.722-0.067-1.427-0.236-2.132-0.353
			c-0.705-0.134-1.411-0.287-2.1-0.471c-1.008-0.252-1.999-0.554-2.99-0.856c-0.302,1.158-0.538,2.367-0.705,3.559
			c-0.302,1.966-0.386,3.98-0.437,5.963c-0.034,1.007-0.034,1.998,0,2.988l0.067,1.496l0.083,1.158l0.622,0.907
			c0.269,0.336,0.555,0.622,0.823,0.923C132.094,258.399,132.414,258.65,132.716,258.919z"/>
		<path fill="#000100" d="M237.683,118.573c0,0,2.519-14.696,0-15.956c-2.52-1.259-18.895-13.856-21.834-13.436
			c-2.939,0.42,7.978,10.907,7.978,14.691S237.683,100.518,237.683,118.573z"/>
		<path fill="#000100" d="M187.556,88.507c0,0-0.291-0.104-0.625-0.505c-21.207-25.522-41.268-31.076-48.803-28.773
			c-8.15,2.49-16.51,8.509-16.51,8.509s10.989-2.103,13.092-0.789c2.103,1.315-16.985,4.207-6.521,30.761
			c0,0,0.474-13.67,4.943-13.67c0,0,0.791,14.724,16.828,10.254c16.036-4.471,10.204-7.63,21.27-5.786
			C182.299,90.349,189.895,90.38,187.556,88.507z"/>
		<path fill="#000100" d="M127.458,195.243c0,0,0.768,1.688,1.919,4.222c0.577,1.249,1.266,2.682,2.025,4.191
			c0.807,1.479,1.605,3.086,2.616,4.533c0.444,0.771,0.978,1.461,1.499,2.148c0.5,0.71,1.099,1.286,1.622,1.921
			c0.572,0.571,1.166,1.072,1.704,1.602c0.615,0.4,1.186,0.815,1.724,1.21c0.589,0.268,1.128,0.545,1.619,0.799
			c0.483,0.279,0.962,0.322,1.338,0.473c0.766,0.241,1.227,0.407,1.227,0.407s-0.456,0.049-1.292,0.088
			c-0.412-0.015-0.955,0.113-1.521-0.036c-0.576-0.106-1.238-0.234-1.963-0.41c-0.673-0.28-1.411-0.597-2.182-0.971
			c-0.687-0.478-1.473-0.94-2.17-1.542c-0.635-0.649-1.435-1.225-1.989-2.002c-0.604-0.743-1.224-1.496-1.727-2.316
			c-0.533-0.807-0.986-1.651-1.414-2.488c-0.471-0.82-0.75-1.704-1.114-2.516c-0.631-1.663-1.089-3.254-1.369-4.642
			C127.415,197.149,127.458,195.243,127.458,195.243z"/>
		<path fill="#FFFFFF" d="M146.684,69.596c-4.937-1.251-6.4,4.409-6.4,8.233c0,4.348,5.636,6.736,11.698,6.736
			c6.063,0,13.395-2.067,11.33-5.893C160.909,74.218,150.979,70.685,146.684,69.596z"/>
		<path fill="#000100" d="M178.617,46.191c0.012,0.003,0.061,0.006-0.093-0.015c-0.021-0.003-0.042,0-0.063-0.001
			c0.053,0.01,0.11,0.021,0.118,0.017H178.617z"/>
		<path fill="#000100" d="M204.2,44.73l-0.041-0.071l-0.02-0.034c-0.011-0.023-0.021-0.036,0.038,0.08
			c0.018,0.036,0.046,0.067,0.066,0.102l-0.176-0.381l-0.021-0.046c0.028,0.064,0.077,0.174,0.164,0.368L204.2,44.73z"/>
		<path fill="#BAD9D3" d="M0,0V300h300V0H0z M270.843,128.067l-0.031,0.151l-2.866,14.294c-0.449,2.247-2.637,3.704-4.882,3.252
			c-0.227-0.046-0.441-0.113-0.651-0.192c-0.905,2.871-2.076,6.161-3.606,9.757c-1.347,3.041-2.898,6.325-4.867,9.672
			c-1.963,3.351-4.315,6.786-7.341,10.056c-3.057,3.18-6.855,6.423-12.134,7.927c-1.307,0.357-2.683,0.617-4.099,0.646
			c-0.705,0.013-1.416,0.01-2.121-0.067c-0.353-0.03-0.706-0.067-1.053-0.133l-0.521-0.088l-0.261-0.046
			c0.031,0.001-0.105-0.024-0.149-0.035c-2.101-0.453-4.251-0.946-6.278-1.279c-4.113-0.756-8.335-1.32-12.455-1.587
			c-4.13-0.287-8.198-0.313-12.127-0.112c-1.596,0.085-3.161,0.223-4.707,0.387c0.146,1.317,0.208,3.143,0.077,5.283
			c-0.126,1.141-0.213,2.397-0.485,3.692c-0.152,0.932-0.387,1.894-0.661,2.865c0.025,0.083,0.041,0.167,0.076,0.25
			c0.141,0.371,0.282,0.768,0.42,1.194c0.382,0.869,0.789,1.833,1.348,2.841c0.269,0.505,0.556,1.023,0.869,1.558
			c0.313,0.541,0.631,1.089,0.948,1.64c0.321,0.574,0.646,1.135,0.946,1.745c0.313,0.581,0.579,1.233,0.825,1.847
			c0.225,0.66,0.426,1.289,0.513,1.968c0.08,0.364,0.085,0.745,0.069,1.115l2.709,5.998l2.685,13.369l-11.617,23.756l-34.906,13.141
			l-53.499-7.215l-39.237-19.707l12.582-45.95c-1.482-1.301-3-2.736-4.499-4.358c-1.453-1.622-2.888-3.428-4.135-5.526
			c-1.238-2.091-2.298-4.509-2.741-7.245c-0.479-2.711-0.138-5.752,0.853-8.422c0.836-2.265,1.289-4.537,1.676-7.06
			c0.753-4.979,1.161-10.325,1.466-15.781c0.303-5.46,0.679-11.05,1.056-16.659c0.357-5.614,0.971-11.24,1.735-16.782
			c0.748-5.544,1.788-11.004,3.266-16.21c1.435-5.209,3.292-10.207,5.827-14.624c0.571-1.105,1.37-2.214,2.034-3.284
			c0.351-0.472,0.699-0.939,1.043-1.404l0.515-0.689c0.266-0.375,0.412-0.492,0.623-0.748c0.788-0.886,1.519-1.793,2.326-2.598
			c0.822-0.789,1.627-1.563,2.415-2.323c3.244-2.932,6.562-5.171,9.641-6.837c3.067-1.694,5.885-2.844,8.244-3.636
			c1.947-0.681,3.567-1.078,4.812-1.34c3.384-3.305,6.851-6.364,9.979-9.514c1.027-0.97,1.949-2.014,2.864-3
			c0.407-0.495,0.833-0.968,1.253-1.448c0.413-0.439,0.882-1.133,1.322-1.688l0.669-0.881l0.738-0.911
			c0.617-0.684,1.096-1.418,1.849-2.04c0.743-0.619,1.415-1.287,2.249-1.826c0.882-0.493,1.701-1.083,2.673-1.428
			c1.916-0.736,4.021-1.171,6.02-1.042c2.034,0.006,3.874,0.578,5.611,1.181c1.674,0.699,3.266,1.502,4.66,2.502
			c1.438,1.017,2.657,1.968,4.015,3.367l-0.315-0.282c0.223,0.195,0.439,0.398,0.661,0.594c2.596,0.702,5.173,1.452,7.738,2.229
			l0.187,0.085l9.602,3.697c1.578,0.599,3.185,1.161,4.671,1.645c0.367,0.115,0.729,0.221,1.053,0.302
			c0.038,0.008,0.069,0.013,0.106,0.023l0.061-0.023l1.148-0.417c3.193-1.215,6.51-2.431,9.846-3.551
			c3.362-1.085,6.74-2.14,10.353-2.919c1.852-0.387,3.593-0.754,6.036-0.772c0.656,0.026,1.325,0.018,2.465,0.356
			c0.313,0.108,0.614,0.217,1.021,0.444c0.17,0.09,0.39,0.231,0.612,0.407l0.313,0.261c0.12,0.106,0.318,0.316,0.456,0.49
			c0.149,0.185,0.285,0.384,0.403,0.585l0.082,0.147l0.018,0.038l0.233,0.525l0.02,0.09c0.194,0.514,0.578,1.291,0.948,1.998
			c1.547,2.917,3.257,5.924,4.976,8.883c1.704,2.985,3.477,5.933,5.239,8.899c0.904,1.466,1.827,2.918,2.773,4.359
			c0.154,0.217,0.307,0.437,0.458,0.655c3.102,1.089,6.184,2.247,9.229,3.547c4.233,1.839,8.458,3.815,12.461,6.392
			c2.009,1.273,3.973,2.687,5.847,4.322c1.855,1.664,3.666,3.533,5.075,5.987c0.354,0.607,0.678,1.256,0.948,1.947
			c0.139,0.343,0.275,0.688,0.379,1.056l0.28,0.953l0.876,3.284c0.597,2.137,1.202,4.231,1.875,6.36
			c1.325,4.24,2.826,8.396,4.457,12.582c0.818,2.104,1.625,4.208,2.403,6.494c0.729,2.276,1.602,4.799,1.481,8.201
			C270.882,127.813,270.868,127.941,270.843,128.067z"/>
		<path fill="#000100" d="M237.683,118.573c0,0,2.519-14.696,0-15.956c-2.52-1.259-18.895-13.856-21.834-13.436
			c-2.939,0.42,7.978,10.907,7.978,14.691S237.683,100.518,237.683,118.573z"/>
		<path fill="#000100" d="M187.556,88.507c0,0-0.291-0.104-0.625-0.505c-21.207-25.522-41.268-31.076-48.803-28.773
			c-8.15,2.49-16.51,8.509-16.51,8.509s10.989-2.103,13.092-0.789c2.103,1.315-16.985,4.207-6.521,30.761
			c0,0,0.474-13.67,4.943-13.67c0,0,0.791,14.724,16.828,10.254c16.036-4.471,10.204-7.63,21.27-5.786
			C182.299,90.349,189.895,90.38,187.556,88.507z"/>
		<path fill="#000100" d="M127.458,195.243c0,0,0.768,1.688,1.919,4.222c0.577,1.249,1.266,2.682,2.025,4.191
			c0.807,1.479,1.605,3.086,2.616,4.533c0.444,0.771,0.978,1.461,1.499,2.148c0.5,0.71,1.099,1.286,1.622,1.921
			c0.572,0.571,1.166,1.072,1.704,1.602c0.615,0.4,1.186,0.815,1.724,1.21c0.589,0.268,1.128,0.545,1.619,0.799
			c0.483,0.279,0.962,0.322,1.338,0.473c0.766,0.241,1.227,0.407,1.227,0.407s-0.456,0.049-1.292,0.088
			c-0.412-0.015-0.955,0.113-1.521-0.036c-0.576-0.106-1.238-0.234-1.963-0.41c-0.673-0.28-1.411-0.597-2.182-0.971
			c-0.687-0.478-1.473-0.94-2.17-1.542c-0.635-0.649-1.435-1.225-1.989-2.002c-0.604-0.743-1.224-1.496-1.727-2.316
			c-0.533-0.807-0.986-1.651-1.414-2.488c-0.471-0.82-0.75-1.704-1.114-2.516c-0.631-1.663-1.089-3.254-1.369-4.642
			C127.415,197.149,127.458,195.243,127.458,195.243z"/>
		<path fill="#FFFFFF" d="M146.684,69.596c-4.937-1.251-6.4,4.409-6.4,8.233c0,4.348,5.636,6.736,11.698,6.736
			c6.063,0,13.395-2.067,11.33-5.893C160.909,74.218,150.979,70.685,146.684,69.596z"/>
		<path fill="#000100" d="M269.405,119.48c-0.778-2.285-1.584-4.389-2.403-6.494c-1.63-4.186-3.131-8.342-4.457-12.582
			c-0.672-2.129-1.277-4.224-1.875-6.36l-0.876-3.284l-0.28-0.953c-0.104-0.369-0.24-0.713-0.379-1.056
			c-0.271-0.69-0.594-1.34-0.948-1.947c-1.409-2.454-3.22-4.323-5.075-5.987c-1.875-1.635-3.838-3.049-5.847-4.322
			c-4.003-2.577-8.229-4.553-12.461-6.392c-3.046-1.3-6.128-2.458-9.229-3.547c-0.151-0.218-0.303-0.438-0.458-0.655
			c-0.946-1.441-1.87-2.893-2.773-4.359c-1.762-2.967-3.535-5.914-5.239-8.899c-1.719-2.959-3.429-5.965-4.976-8.883
			c-0.371-0.707-0.754-1.484-0.948-1.998l-0.02-0.09l-0.233-0.525l-0.018-0.038l-0.082-0.147c-0.118-0.202-0.254-0.4-0.403-0.585
			c-0.138-0.174-0.336-0.384-0.456-0.49l-0.313-0.261c-0.222-0.175-0.441-0.316-0.612-0.407c-0.407-0.228-0.707-0.336-1.021-0.444
			c-1.14-0.338-1.809-0.33-2.465-0.356c-2.442,0.018-4.184,0.386-6.036,0.772c-3.613,0.779-6.991,1.834-10.353,2.919
			c-3.336,1.121-6.652,2.336-9.846,3.551l-1.148,0.417l-0.061,0.023c-0.038-0.01-0.069-0.015-0.106-0.023
			c-0.323-0.081-0.686-0.187-1.053-0.302c-1.486-0.484-3.093-1.046-4.671-1.645l-9.602-3.697l-0.187-0.085
			c-2.565-0.777-5.142-1.527-7.738-2.229c-0.222-0.195-0.438-0.398-0.661-0.594l0.315,0.282c-1.358-1.399-2.577-2.351-4.015-3.367
			c-1.394-1-2.985-1.804-4.66-2.502c-1.737-0.603-3.577-1.174-5.611-1.181c-1.998-0.129-4.104,0.307-6.02,1.042
			c-0.973,0.344-1.791,0.935-2.673,1.428c-0.833,0.54-1.506,1.208-2.249,1.826c-0.753,0.622-1.232,1.356-1.849,2.04l-0.738,0.911
			l-0.669,0.881c-0.439,0.554-0.909,1.248-1.322,1.688c-0.42,0.48-0.847,0.953-1.253,1.448c-0.915,0.986-1.837,2.03-2.864,3
			c-3.127,3.15-6.595,6.209-9.979,9.514c-1.245,0.263-2.865,0.66-4.812,1.34c-2.359,0.792-5.176,1.942-8.244,3.636
			c-3.079,1.666-6.396,3.905-9.641,6.837c-0.788,0.76-1.593,1.534-2.415,2.323c-0.807,0.805-1.538,1.712-2.326,2.598
			c-0.211,0.256-0.357,0.372-0.623,0.748l-0.515,0.689c-0.344,0.464-0.692,0.932-1.043,1.404c-0.665,1.07-1.463,2.178-2.034,3.284
			c-2.536,4.417-4.392,9.415-5.827,14.624c-1.478,5.206-2.518,10.666-3.266,16.21c-0.764,5.542-1.378,11.167-1.735,16.782
			c-0.377,5.609-0.753,11.199-1.056,16.659c-0.305,5.457-0.713,10.802-1.466,15.781c-0.387,2.523-0.84,4.794-1.676,7.06
			c-0.991,2.67-1.332,5.711-0.853,8.422c0.443,2.736,1.502,5.153,2.741,7.245c1.247,2.098,2.682,3.904,4.135,5.526
			c1.5,1.622,3.017,3.057,4.499,4.358l-12.582,45.95l39.237,19.707l53.499,7.215l34.906-13.141l11.617-23.756l-2.685-13.369
			l-2.709-5.998c0.017-0.371,0.011-0.751-0.069-1.115c-0.087-0.679-0.289-1.309-0.513-1.968c-0.246-0.613-0.512-1.266-0.825-1.847
			c-0.3-0.61-0.625-1.171-0.946-1.745c-0.317-0.551-0.635-1.099-0.948-1.64c-0.313-0.535-0.6-1.053-0.869-1.558
			c-0.559-1.007-0.966-1.972-1.348-2.841c-0.138-0.426-0.279-0.823-0.42-1.194c-0.035-0.082-0.051-0.166-0.076-0.25
			c0.274-0.971,0.509-1.934,0.661-2.865c0.272-1.294,0.359-2.551,0.485-3.692c0.131-2.141,0.069-3.966-0.077-5.283
			c1.546-0.164,3.111-0.302,4.707-0.387c3.93-0.202,7.998-0.175,12.127,0.112c4.12,0.267,8.342,0.832,12.455,1.587
			c2.027,0.333,4.177,0.827,6.278,1.279c0.044,0.01,0.181,0.036,0.149,0.035l0.261,0.046l0.521,0.088
			c0.348,0.066,0.701,0.104,1.053,0.133c0.705,0.077,1.416,0.08,2.121,0.067c1.416-0.029,2.792-0.289,4.099-0.646
			c5.278-1.504,9.077-4.747,12.134-7.927c3.026-3.271,5.378-6.705,7.341-10.056c1.968-3.347,3.52-6.631,4.867-9.672
			c1.53-3.597,2.701-6.887,3.606-9.757c0.21,0.079,0.425,0.146,0.651,0.192c2.245,0.451,4.433-1.005,4.882-3.252l2.866-14.294
			l0.031-0.151c0.024-0.126,0.039-0.254,0.042-0.387C271.007,124.279,270.134,121.756,269.405,119.48z M204.067,44.426l0.176,0.381
			c-0.02-0.035-0.048-0.066-0.066-0.102c-0.059-0.116-0.049-0.103-0.038-0.08l0.02,0.034l0.041,0.071l0.01,0.018
			c-0.087-0.194-0.136-0.304-0.164-0.368L204.067,44.426z M178.524,46.176c0.154,0.021,0.105,0.018,0.093,0.015h-0.038
			c-0.008,0.005-0.065-0.007-0.118-0.017C178.481,46.176,178.502,46.173,178.524,46.176z M260.904,135.466
			c-1.094-0.421-2.2-0.799-3.321-1.101c-2.975-0.804-6.029-1.174-9.06-1.202c-6.075-0.035-11.983,1.397-17.352,3.667
			c-2.746,1.21-5.025,2.437-7.462,3.6c-2.388,1.158-4.802,2.309-7.22,3.382c-2.416,1.099-4.845,2.093-7.277,3.029
			c-2.427,0.922-4.856,1.758-7.279,2.36c-2.417,0.602-4.825,0.951-7.095,0.822c-1.13-0.081-2.249-0.212-3.298-0.56l-0.4-0.113
			l-0.1-0.028l-0.051-0.015l-0.024-0.006c-0.04-0.015,0.249,0.105,0.113,0.049l-0.235-0.099l-0.935-0.389
			c-0.341-0.126-0.597-0.254-0.819-0.377l-0.725-0.369c-2.085-1.129-4.206-2.698-6.208-4.347c-2.018-1.662-3.963-3.464-5.888-5.311
			c-1.94-1.835-3.83-3.738-5.757-5.662c-1.939-1.952-4.038-3.843-6.402-5.391c-2.357-1.545-4.982-2.732-7.735-3.289
			c-2.765-0.494-5.583-0.348-8.196,0.369c2.698-0.309,5.404-0.005,7.875,0.845c2.473,0.863,4.71,2.232,6.679,3.921
			c0.567,0.497,1.091,1.048,1.63,1.58c-0.143,0.059-0.289,0.105-0.428,0.182c0,0-0.166,0.09-0.476,0.261
			c-0.33,0.172-0.813,0.423-1.43,0.743c-1.25,0.633-3.067,1.517-5.293,2.493c-4.441,1.947-10.549,4.265-16.867,5.447
			c-1.576,0.271-3.166,0.5-4.727,0.584c-1.566,0.12-3.097,0.067-4.569-0.076c-1.463-0.169-2.867-0.462-4.12-0.945
			c-0.63-0.239-1.243-0.482-1.781-0.817c-0.577-0.28-1.073-0.64-1.539-1.007c-0.505-0.33-0.882-0.758-1.272-1.143
			c-0.414-0.369-0.707-0.801-1-1.199c-0.218-0.261-0.392-0.526-0.549-0.791c0.028-0.049,0.049-0.106,0.08-0.154l0.489-0.976
			l0.551-0.904c0.331-0.635,0.758-1.143,1.115-1.719c0.413-0.5,0.777-1.06,1.207-1.491c0.403-0.477,0.828-0.887,1.243-1.276
			c0.423-0.359,0.823-0.748,1.219-1.017c0.392-0.287,0.753-0.536,1.069-0.739c0.628-0.382,1.055-0.594,1.055-0.594
			s-0.41-0.231-1.219-0.389c-0.397-0.058-0.904-0.148-1.475-0.11c-0.582-0.008-1.23,0.084-1.935,0.243
			c-0.695,0.18-1.445,0.435-2.182,0.827c-0.761,0.355-1.463,0.885-2.181,1.445c-0.653,0.608-1.378,1.24-1.904,2.006
			c-0.277,0.375-0.583,0.743-0.838,1.138l-0.679,1.224c-0.462,0.822-0.781,1.678-1.06,2.534c-0.332,0.843-0.494,1.702-0.633,2.531
			c-0.144,0.828-0.279,1.628-0.272,2.393c-0.017,0.765-0.007,1.483,0.021,2.144c0.003,0.658,0.164,1.268,0.25,1.801
			c0.083,0.533,0.211,0.997,0.305,1.376c0.195,0.759,0.366,1.188,0.366,1.188s0.267-0.397,0.631-1.084
			c0.179-0.343,0.407-0.754,0.608-1.229c0.233-0.467,0.428-1.009,0.718-1.565c0.272-0.563,0.543-1.167,0.804-1.806
			c0.23-0.649,0.571-1.283,0.854-1.952c0.281-0.672,0.563-1.361,0.899-2.016c0.184-0.373,0.351-0.755,0.526-1.128
			c0.079,0.166,0.156,0.331,0.256,0.499c0.243,0.466,0.486,0.978,0.861,1.44c0.353,0.479,0.697,1.015,1.184,1.461
			c0.451,0.485,0.943,0.974,1.529,1.388c0.551,0.471,1.184,0.849,1.848,1.23c1.329,0.766,2.841,1.345,4.438,1.791
			c1.601,0.418,3.293,0.741,5.009,0.882c1.722,0.179,3.467,0.204,5.211,0.179c6.972-0.193,13.764-1.621,18.762-2.926
			c2.504-0.655,4.573-1.283,6.026-1.75c0.728-0.245,1.302-0.437,1.693-0.566c0.405-0.145,0.622-0.222,0.622-0.222
			c0.198-0.074,0.421-0.17,0.612-0.275c0.697-0.384,1.228-0.941,1.601-1.583c1.202,1.498,2.416,2.999,3.67,4.479
			c1.786,2.083,3.654,4.113,5.647,6.077c2.012,1.96,4.089,3.836,6.625,5.521c0.656,0.394,1.448,0.927,2.016,1.189l0.909,0.451
			l0.228,0.111l0.207,0.087l0.069,0.025l0.141,0.052l0.563,0.204c1.489,0.585,3.064,0.892,4.614,1.094
			c3.12,0.372,6.147,0.087,9.006-0.43c5.737-1.05,10.987-2.977,16.095-5.04c2.563-1.023,5.071-2.106,7.589-3.213
			c2.483-1.074,5.025-2.299,7.264-3.178c4.604-1.858,9.436-2.938,14.189-2.848c2.372,0.054,4.72,0.371,6.958,1.009
			c1.117,0.315,2.211,0.7,3.249,1.163c0.018,0.008,0.036,0.018,0.054,0.026c-0.266,0.446-0.535,0.899-0.817,1.371
			c-1.384,2.224-2.876,4.75-4.635,7.402c-1.698,2.683-3.643,5.502-5.767,8.358c-2.137,2.841-4.468,5.734-7.082,8.294
			c-2.577,2.562-5.475,4.833-8.386,5.883c-0.727,0.254-1.455,0.444-2.181,0.536c-0.363,0.038-0.73,0.082-1.096,0.072
			c-0.184,0.006-0.367,0.008-0.551-0.013l-0.279-0.018l-0.139-0.006l-0.25-0.03c-2.152-0.213-4.264-0.459-6.531-0.643
			c-4.457-0.369-8.855-0.622-13.245-0.612c-4.376,0.02-8.701,0.254-12.837,0.863c-4.135,0.585-8.086,1.437-11.72,2.397
			c-3.64,0.961-6.966,1.998-10.03,2.574c-3.062,0.617-5.88,0.669-8.379,0.333c-2.501-0.33-4.64-1.042-6.382-1.678
			c-1.742-0.641-3.083-1.265-3.982-1.709c-0.023-0.011-0.039-0.02-0.062-0.031c0.791-0.326,1.568-0.63,2.321-0.891
			c2.627-0.874,5.101-1.299,7.164-1.669c4.145-0.658,6.544-1.105,6.544-1.105s-0.602-0.077-1.729-0.222
			c-1.128-0.123-2.775-0.353-4.899-0.495c-2.117-0.169-4.758-0.316-7.835,0.088c-3.088,0.35-6.438,1.335-9.908,2.562
			c-3.487,1.214-7.133,2.725-10.924,4.396c-3.805,1.66-7.758,3.49-11.811,5.421c-3.779,1.804-7.817,3.272-11.493,3.333
			c-3.67,0.103-6.501-1.368-8.954-4.435c-2.416-3.063-4.21-7.245-5.785-11.514c-1.653-4.291-2.988-8.762-5.209-13.226
			c-0.281-0.559-0.59-1.122-0.912-1.681c-0.382-0.663-0.733-1.137-0.987-1.543c-0.426-0.613-0.813-1.341-1.104-2.167
			c-0.605-1.628-0.958-3.501-1.163-5.376c-0.369-3.772-0.282-7.574,0.01-11.063c0.328-3.494,0.679-6.74,1.132-9.602
			c0.461-2.86,0.841-5.38,1.24-7.437c0.754-4.128,1.251-6.5,1.251-6.5s-1.143,2.136-2.777,6.047c-0.797,1.961-1.781,4.35-2.7,7.164
			c-0.932,2.811-1.948,6.018-2.726,9.628c-0.765,3.611-1.529,7.594-1.524,12.058c-0.001,2.232,0.163,4.596,0.848,7.097
			c0.325,1.247,0.823,2.537,1.538,3.812l0.706,1.319c0.203,0.421,0.405,0.854,0.597,1.315c1.522,3.715,2.689,8.224,4.195,12.817
			c1.575,4.58,3.307,9.488,6.808,14.025c1.744,2.242,4.045,4.373,6.88,5.744c2.825,1.388,5.997,1.919,8.883,1.801
			c5.81-0.321,10.608-2.457,14.786-4.709c7.874-4.335,15.091-8.598,21.277-11.978c1.798-0.971,3.502-1.809,5.137-2.531
			c0.19,0.123,0.408,0.264,0.682,0.441c0.856,0.559,2.139,1.352,3.859,2.229c1.714,0.884,3.889,1.858,6.577,2.498
			c2.675,0.649,5.873,0.908,9.234,0.579c3.369-0.29,6.862-0.999,10.489-1.579c1.722-0.299,3.483-0.558,5.278-0.774
			c-0.313,1.21-0.725,2.796-1.213,4.686c-0.345,1.048-0.605,2.199-0.996,3.387c-0.379,1.191-0.742,2.447-1.173,3.733
			c-0.351,1.313-0.848,2.615-1.25,3.989c-0.515,1.318-0.992,2.7-1.655,3.982c-0.592,1.329-1.345,2.556-2.073,3.782
			c-0.351,0.624-0.809,1.158-1.202,1.735c-0.41,0.564-0.791,1.148-1.263,1.63c-0.45,0.508-0.893,1.007-1.325,1.496
			c-0.44,0.486-0.947,0.873-1.395,1.309c-0.88,0.892-1.865,1.542-2.76,2.171c-0.863,0.692-1.809,1.05-2.588,1.493
			c-0.779,0.453-1.514,0.712-2.126,0.918c-1.222,0.439-1.919,0.692-1.919,0.692l-0.023,0.006c-0.079,0.029-0.126,0.111-0.106,0.193
			c0.02,0.092,0.11,0.148,0.198,0.128c0,0,0.737-0.164,2.026-0.453c0.325-0.072,0.684-0.154,1.074-0.243
			c0.389-0.098,0.781-0.289,1.217-0.446c0.848-0.364,1.886-0.643,2.857-1.259c1.005-0.555,2.122-1.135,3.15-1.972
			c0.523-0.4,1.105-0.774,1.611-1.25c0.505-0.479,1.02-0.968,1.543-1.466c0.549-0.482,1.002-1.06,1.491-1.621
			c0.469-0.574,1.009-1.119,1.435-1.742c0.884-1.233,1.798-2.487,2.544-3.835c0.846-1.299,1.468-2.706,2.196-4.048
			c0.238-0.541,0.48-1.078,0.717-1.614c0.1,0.549,0.182,1.146,0.384,1.702c0.192,0.65,0.43,1.303,0.725,1.922
			c0.269,0.649,0.614,1.227,0.934,1.834c0.679,1.167,1.384,2.244,1.999,3.211c0.272,0.479,0.574,0.941,0.766,1.371
			c0.257,0.439,0.357,0.84,0.519,1.247c0.039,0.39,0.205,0.793,0.157,1.148c-0.013,0.357,0.033,0.718-0.054,0.987
			c-0.105,0.561-0.159,0.938-0.159,0.938s0.277-0.193,0.755-0.636c0.216-0.17,0.396-0.443,0.583-0.761l1.785,3.926l2.554,12.718
			l-11.076,22.644l-33.885,12.757l-52.673-7.056l-37.881-19.027l12.011-43.869c0.948,0.793,1.883,1.556,2.773,2.26
			c2.719,2.109,5.157,3.818,7.113,5.285c1.968,1.447,3.479,2.625,4.42,3.526c0.959,0.882,1.345,1.479,1.345,1.479
			s-0.279-0.656-1.104-1.699c-0.82-1.046-2.153-2.467-3.925-4.176c-1.771-1.689-3.923-3.74-6.39-6.09
			c-2.427-2.354-5.101-5.08-7.538-8.313c-2.417-3.182-4.704-7.036-5.032-11.165c-0.167-2.055,0.134-4.069,1.023-6.085
			c1.092-2.409,1.881-5.171,2.47-7.795c1.18-5.335,1.742-10.804,2.326-16.318c0.567-5.519,0.897-11.097,1.394-16.639
			c0.507-5.542,0.948-11.058,1.624-16.435c0.683-5.375,1.558-10.602,2.673-15.559c1.127-4.957,2.68-9.578,4.591-13.692
			c0.455-1.071,1.009-1.924,1.491-2.888c0.312-0.49,0.62-0.978,0.925-1.46l0.464-0.723c0.044-0.104,0.292-0.402,0.426-0.592
			c0.653-0.856,1.263-1.729,1.909-2.548c0.671-0.804,1.332-1.591,1.978-2.362c2.695-3.007,5.562-5.421,8.221-7.422
			c2.685-1.968,5.201-3.482,7.326-4.643c1.185-0.637,2.234-1.152,3.152-1.58c-0.536,0.538-1.081,1.061-1.609,1.615
			c-1.046,1.107-2.062,2.25-3.033,3.455c-0.49,0.585-0.939,1.23-1.387,1.865c-0.453,0.63-0.902,1.253-1.291,1.943
			c-0.853,1.297-1.478,2.769-2.027,4.208c-0.221,0.753-0.448,1.493-0.599,2.241c-0.088,0.776-0.17,1.532-0.218,2.273l1.032-1.97
			l1.235-1.776c0.894-1.124,1.87-2.141,2.908-3.108c0.485-0.5,1.043-0.951,1.594-1.4c0.548-0.455,1.083-0.907,1.676-1.32
			c1.115-0.879,2.296-1.703,3.469-2.536c4.735-3.308,9.734-6.475,14.478-10.436c1.194-0.973,2.321-2.054,3.49-3.146l1.733-1.812
			c0.607-0.625,0.982-1.148,1.484-1.727l0.708-0.85l0.182-0.23l0.074-0.077l0.145-0.156l0.285-0.315
			c0.387-0.39,0.708-0.932,1.125-1.218c0.41-0.295,0.778-0.702,1.188-0.943c0.423-0.184,0.801-0.503,1.221-0.643
			c0.826-0.3,1.656-0.556,2.611-0.485c0.925-0.031,1.965,0.217,3.021,0.515c1.055,0.405,2.142,0.859,3.208,1.496
			c1.03,0.587,2.171,1.424,2.951,2.054l0.316,0.284c4.642,3.364,9.385,6.602,14.227,9.716c2.419,1.557,4.894,3.047,7.373,4.53
			c1.229,0.756,2.514,1.44,3.769,2.164c1.261,0.713,2.55,1.394,3.854,2.055c-0.935-1.125-1.886-2.229-2.864-3.3
			c-0.984-1.062-1.939-2.16-2.949-3.19c-1.92-2.002-3.848-3.995-5.821-5.932c0.791,0.426,1.57,0.868,2.376,1.277
			c1.599,0.797,3.187,1.604,4.961,2.31c0.45,0.179,0.909,0.354,1.417,0.526c0.264,0.085,0.512,0.17,0.827,0.252
			c0.154,0.043,0.287,0.082,0.49,0.123l0.284,0.058c0.095,0.018,0.151,0.036,0.415,0.064c0.215,0.023,0.431,0.034,0.648,0.038
			l0.408-0.006l0.082-0.002l0.041-0.001h0.02l0.466-0.067l0.382-0.083l0.835-0.225l1.32-0.412l9.849-3.239
			c3.231-1.083,6.48-2.124,9.614-2.989c1.276-0.334,2.633-0.659,3.654-0.809c0.264,0.425,0.523,0.813,0.789,1.217
			c2.041,3.029,4.223,5.776,6.503,8.493c2.31,2.683,4.68,5.311,7.299,7.733c0.467,0.444,0.951,0.877,1.434,1.309
			c-4.091-1.311-8.196-2.532-12.349-3.57c-4.411-1.145-8.865-2.111-13.338-2.933c4.281,1.528,8.5,3.201,12.708,4.859
			c4.192,1.709,8.37,3.42,12.472,5.275c4.094,1.872,8.153,3.782,12.084,5.876c3.925,2.095,7.724,4.396,11.222,6.91
			c1.745,1.263,3.385,2.618,4.842,4.056c1.43,1.443,2.688,2.993,3.431,4.542c0.195,0.384,0.351,0.766,0.466,1.14
			c0.062,0.187,0.126,0.372,0.157,0.554l0.156,0.689l0.736,3.319c0.538,2.25,1.105,4.534,1.716,6.751
			c1.214,4.461,2.631,8.893,4.128,13.21c0.723,2.158,1.537,4.287,2.188,6.305c0.643,1.924,1.04,3.75,1.005,4.914L260.904,135.466z"
			/>
		<g id="XMLID_2_">
			<g>
				<path fill="#000100" d="M164,247.963c-0.168-2.099-0.319-4.215-0.437-6.315c-0.101-2.032-0.202-4.048-0.235-6.08
					c-0.167,0.202-0.353,0.42-0.537,0.605c-0.218,0.269-0.437,0.504-0.706,0.739c-0.538,0.538-1.125,0.974-1.73,1.428
					c-0.638,0.42-1.276,0.856-1.948,1.192c-0.672,0.353-1.36,0.688-2.065,0.974c-2.822,1.142-5.828,1.747-8.834,1.965
					c-1.26,0.118-2.502,0.135-3.762,0.135c-0.235,0-0.504,0-0.739-0.017c-0.286,0-0.554-0.017-0.823-0.017
					c-1.243-0.05-2.452-0.202-3.661-0.336c-1.478-0.202-2.939-0.487-4.384-0.856c-1.058-0.235-2.083-0.538-3.107-0.874
					c-0.05,0-0.118-0.017-0.185-0.067c-0.437,1.613-0.924,3.225-1.36,4.837c-0.521,1.965-0.991,3.947-1.428,5.929v0.017
					c0.017,1.008,0.118,1.999,0.437,2.956c0.302,0.94,0.79,1.814,1.478,2.469c0.017,0.017,0.034,0.034,0.05,0.034
					c1.36,1.344,3.258,1.847,5.224,2.032c0.991,0.084,2.032,0.134,3.09,0.168l3.174,0.151c2.066,0.084,4.166,0.101,6.214,0
					c1.024-0.05,2.066-0.117,3.09-0.252c1.008-0.117,2.032-0.201,3.04-0.369c1.008-0.151,1.999-0.37,2.973-0.554
					c0.974-0.219,1.982-0.471,2.855-0.773c1.445-0.537,2.654-1.747,3.309-3.443c0.235-0.554,0.419-1.125,0.571-1.73
					C163.832,250.667,163.95,249.307,164,247.963z M228.662,303.421c0.285,0.521,0.285,1.176-0.017,1.696
					c-0.319,0.521-0.873,0.856-1.478,0.856l-104.717,1.73l-1.932,0.202l-12.059,1.058l-0.084,0.017c-0.117,0-0.252,0-0.353-0.017
					c-1.024-0.218-1.881-0.571-2.654-0.991l-69.028,1.125c-0.017,0-0.017,0-0.034,0c-0.688,0-1.327-0.403-1.596-1.041
					c-0.285-0.655-0.134-1.411,0.37-1.915c4.316-4.35,13.957-37.352,19.55-59.035c-3.326-4.031-6.584-8.649-7.054-11.706
					c-0.235-1.445,0.739-4.048,3.578-10.682c0.823-1.915,1.847-4.299,1.948-4.837c0.806-4.82,3.947-8.717,7.238-11.605
					c3.292-2.872,6.735-4.719,8.079-5.391c-0.067-0.437-0.084-0.84-0.118-1.26c-0.017-0.571-0.05-1.075-0.067-1.696
					c-0.017-0.604,0.101-1.411,0.319-1.999c0.42-1.226,1.075-2.2,1.73-3.107c1.344-1.814,2.872-3.292,4.518-4.77
					c0.453-0.403,1.125-0.37,1.528,0.084c0.134,0.151,0.218,0.336,0.252,0.521l0.017,0.034c0.269,1.444,0.756,3.006,1.31,4.468
					l-1.948,0.739c-0.386-0.94-0.722-1.881-1.024-2.889c-0.958,1.024-1.814,2.133-2.553,3.241c-0.504,0.806-0.907,1.68-1.075,2.469
					c-0.084,0.42-0.101,0.638-0.033,1.091c0.05,0.403,0.117,0.941,0.218,1.428c0.789,3.964,2.015,7.894,3.459,11.689
					c2.939,7.541,6.55,14.813,11.521,20.943c2.436,3.09,5.224,5.845,8.247,8.263c3.006,2.402,6.248,4.535,9.758,6.214
					c3.477,1.68,7.172,2.99,11.018,3.914c1.915,0.47,3.863,0.755,5.845,1.075c1.176,0.168,2.368,0.286,3.578,0.37l0.05-0.487
					c0.118-1.108,0.252-2.2,0.454-3.292c0.336-2.2,0.856-4.367,1.528-6.533c0.655-2.133,1.579-4.215,2.805-6.164
					c0.655-0.958,1.377-1.848,2.234-2.637c0.403-0.403,0.89-0.722,1.36-1.041c0.487-0.319,1.008-0.554,1.528-0.756
					c0.202-0.084,0.386,0.017,0.454,0.185c0.067,0.151,0.017,0.336-0.101,0.42l-0.017,0.017c-0.42,0.302-0.823,0.621-1.176,0.991
					c-0.319,0.37-0.638,0.772-0.94,1.176c-0.554,0.84-1.008,1.73-1.36,2.67c0.957,0.151,1.965,0.302,2.922,0.42
					c1.411,0.185,2.821,0.37,4.232,0.487c0.755,0.067,1.511,0.151,2.267,0.202l2.049-0.319c0.033,0.151,0.067,0.319,0.084,0.487
					c1.343,0.067,2.704,0.101,4.064,0.067c2.419-0.051,4.82-0.269,7.172-0.773c0-0.033,0-0.084,0-0.117l0.588-0.017
					c0.201-0.05,0.386-0.084,0.571-0.134c1.344-0.353,2.688-0.806,3.98-1.377c0.604-0.303,1.276-0.605,1.864-0.991
					c0.386-0.202,0.756-0.454,1.142-0.688c-0.05-0.235-0.067-0.454-0.134-0.672c-0.202-1.042-0.47-2.066-0.823-3.006
					c-0.218-0.47-0.403-0.94-0.671-1.36c-0.235-0.454-0.588-0.823-0.974-1.125l-0.017-0.017c-0.118-0.101-0.134-0.269-0.034-0.37
					c0.067-0.101,0.202-0.118,0.319-0.067c0.521,0.269,1.008,0.621,1.377,1.075c0.37,0.42,0.706,0.89,1.008,1.377
					c0.554,0.974,0.991,1.999,1.394,3.04c0.739,2.083,1.327,4.199,1.747,6.349c0.437,2.133,0.773,4.283,1.042,6.466
					c0.151,1.461,0.319,2.905,0.454,4.383c2.116-0.218,4.215-0.688,6.197-1.377c2.536-0.907,4.904-2.217,7.037-3.83
					c2.116-1.646,4.031-3.561,5.761-5.693c1.696-2.167,3.275-4.484,4.619-6.953c2.721-4.938,4.652-10.379,6.315-15.922
					c0.823-2.754,1.562-5.593,2.15-8.431c0.269-1.411,0.571-2.922,0.672-4.232c0.118-0.722-0.017-1.495-0.319-2.183
					c-0.202,0.521-0.437,1.024-0.672,1.545l-1.427-0.655c0.42-0.924,0.789-1.932,1.024-2.855v-0.034
					c0.118-0.437,0.554-0.688,0.991-0.571c0.101,0.034,0.235,0.084,0.319,0.151c1.411,1.193,2.167,2.822,2.334,4.585
					c0.017,1.663-0.034,3.073-0.134,4.602c-0.134,2.032-0.319,4.048-0.588,6.063v0.017c1.646,2.486,11.336,17.568,16.174,33.422
					c2.452,8.045,3.711,17.668,4.921,26.973C224.16,287.23,225.521,297.644,228.662,303.421z M188.034,303.152l36.378-0.604
					c-2.62-6.45-3.846-15.939-5.139-25.898c-1.192-9.17-2.418-18.643-4.803-26.418c-1.411-4.669-3.309-9.305-5.291-13.571
					c0,8.985-3.41,17.148-3.678,17.752c-0.269,0.638-0.907,1.058-1.596,1.058c-0.05,0-0.101,0-0.151-0.017
					c-0.756-0.067-1.377-0.604-1.545-1.327c-0.688-1.025-6.533-3.225-13.402-5.005c1.159,0.756,2.284,1.528,3.426,2.318
					c2.452,1.747,4.837,3.611,7.087,5.694c1.108,1.041,2.2,2.133,3.208,3.359c0.991,1.226,1.948,2.519,2.502,4.283
					c0.151,0.437,0.218,0.924,0.269,1.444c0.017,0.168,0.017,0.386,0.017,0.655l-0.017,0.639c-0.067,0.823-0.185,1.612-0.336,2.385
					c-0.302,1.528-0.688,3.006-1.125,4.467c-0.89,2.922-2.066,5.727-3.426,8.448c-1.327,2.721-2.805,5.357-4.283,7.978
					c-1.495,2.62-2.956,5.257-4.602,7.793c-0.84,1.276-1.713,2.519-2.704,3.729C188.571,302.581,188.303,302.867,188.034,303.152z
					 M203.167,250.667c1.898-5.694,5.525-20.171-2.704-28.333c-0.386,1.764-0.856,3.494-1.411,5.223
					c-0.924,2.906-2.032,5.794-3.393,8.566c-1.377,2.771-2.939,5.525-4.921,7.994c-0.42,0.521-0.857,1.042-1.31,1.562
					C194.685,247.006,200.11,248.719,203.167,250.667z M202.024,269.276c0.286-1.344,0.672-2.889,0.37-3.762
					c-0.269-1.125-1.075-2.334-1.881-3.477c-0.823-1.142-1.78-2.25-2.788-3.325c-2.015-2.133-4.199-4.148-6.416-6.13
					c-1.545-1.377-3.141-2.704-4.753-4.014c-0.856,0.773-1.797,1.495-2.771,2.184c-1.931,1.344-4.031,2.452-6.248,3.275
					c0.101,0.252,0.185,0.521,0.252,0.772c0.319,1.092,0.504,2.217,0.638,3.342c0.252,2.25,0.235,4.484,0.168,6.718
					c-0.134,4.484-0.706,8.901-1.394,13.285c-0.706,4.384-1.562,8.734-2.603,13.033c-0.84,3.662-1.864,7.272-2.922,10.867
					c1.813,0.134,3.627,0.252,5.425,0.403c2.469,0.218,4.921,0.47,7.39,0.739c1.042-0.168,2.2-1.025,3.191-1.948
					c1.058-0.974,2.016-2.116,2.872-3.309c1.73-2.402,3.208-5.005,4.434-7.709c0.621-1.344,1.142-2.754,1.679-4.132
					c0.521-1.394,1.008-2.805,1.478-4.199l2.704-8.431C201.285,272.064,201.705,270.67,202.024,269.276z M177,258.192
					c0.034-1.075,0.017-2.15-0.118-3.208c-0.033-0.235-0.067-0.454-0.117-0.688c-0.571,0.201-1.176,0.369-1.764,0.537
					c-3.09,0.84-6.298,1.058-9.389,0.874c-0.369,0.823-0.839,1.629-1.427,2.334c-0.857,1.024-1.948,1.831-3.225,2.351
					c-0.101,0.051-0.235,0.084-0.336,0.118c0,0,0,0-0.017,0c0.538,2.57,1.075,5.123,1.562,7.692l1.948,10.463l0.974,5.223
					l1.024,5.19l1.058,5.173c0.386,1.696,0.706,3.426,1.209,5.055c0.084,0.269,0.168,0.521,0.252,0.79
					c0.789-3.242,1.545-6.517,2.334-9.758c1.008-4.266,2.032-8.532,2.956-12.798c0.94-4.283,1.78-8.565,2.452-12.865
					C176.697,262.525,176.916,260.358,177,258.192z M167.846,303.404c-0.185-0.235-0.353-0.47-0.504-0.706
					c-0.537-0.856-0.907-1.713-1.276-2.57c-1.377-3.426-2.301-6.919-3.006-10.43c-0.386-1.763-0.655-3.527-0.957-5.291
					c-0.286-1.763-0.555-3.527-0.773-5.307c-0.47-3.527-0.84-7.071-1.125-10.631c-0.202-2.553-0.319-5.105-0.42-7.659
					c0,0,0,0-0.017,0c-0.688,0.252-1.377,0.437-2.065,0.638c-1.108,0.269-2.2,0.454-3.292,0.622c-2.2,0.336-4.417,0.42-6.617,0.42
					c-2.184-0.05-4.367-0.151-6.533-0.386c-0.588-0.067-1.176-0.151-1.73-0.252c0.185,1.377,0.235,2.771,0.269,4.165
					c0.05,1.898-0.067,3.796-0.168,5.677c-0.218,3.796-0.638,7.558-1.176,11.287c-0.521,3.745-1.175,7.457-1.881,11.152
					c-0.604,3.006-1.276,5.996-2.016,8.985l8.499,0.403c1.36,0.084,2.721,0.185,4.098,0.302l20.675-0.353
					C167.83,303.455,167.846,303.438,167.846,303.404z M138.858,261.752c-0.269-0.034-0.538-0.067-0.79-0.118
					c-1.041-0.134-2.133-0.319-3.241-0.588c-1.898-0.487-3.93-1.293-5.425-2.788c-0.42,0.521-1.042,0.874-1.764,0.924h-0.252
					c-4.333,0.269-8.75,0.185-13.15-0.521c-2.167-0.37-4.367-0.773-6.517-1.411c-0.487-0.151-0.991-0.285-1.478-0.453l1.864,2.872
					l3.88,6.214l7.49,12.58c4.115,7.071,8.146,14.175,12.109,21.313l1.344-6.382l2.385-10.967c0.772-3.645,1.528-7.306,2.234-10.984
					c0.353-1.831,0.604-3.661,0.89-5.509C138.656,264.54,138.774,263.146,138.858,261.752z M129.553,303.253l-12.277-23.58
					l-6.701-13l-3.359-6.5l-1.713-3.208c-0.101-0.168-0.201-0.353-0.285-0.521c-1.293-0.437-2.57-0.924-3.83-1.478
					c-4.115-1.813-7.994-4.215-11.42-7.104c-0.605-0.504-1.176-1.025-1.747-1.545c-1.176,0.554-2.352,1.142-3.494,1.747
					c-2.318,1.193-4.602,2.436-6.802,3.746c-2.2,1.344-4.333,2.771-6.214,4.367c-0.924,0.823-1.78,1.696-2.452,2.603
					c-0.554,0.756-0.94,1.545-1.075,2.284c1.411,1.932,2.821,3.896,4.182,5.878c1.495,2.133,2.906,4.333,4.35,6.483l4.4,6.466
					c1.512,2.133,3.09,4.199,4.736,6.231c1.663,1.999,3.359,3.98,5.139,5.878c1.814,1.881,3.645,3.711,5.542,5.475
					c1.898,1.763,3.879,3.426,5.878,4.988c0.991,0.739,1.999,1.444,3.023,2.032l14.427-0.235l0.252-0.034l6.013-0.655
					L129.553,303.253z M39.582,305.571l61.084-0.991c-2.049-1.764-3.829-3.729-5.576-5.694c-1.747-1.982-3.426-3.997-5.072-6.046
					l-4.971-6.063c-1.68-2.015-3.342-4.014-5.056-5.996c-1.73-1.982-3.443-3.964-5.123-5.962c-1.696-2.016-3.375-4.014-4.955-6.097
					c-1.595-2.099-3.107-4.215-4.585-6.399l-0.017-0.05c-0.185-0.269-0.269-0.588-0.235-0.89c0.118-1.764,0.924-3.225,1.814-4.384
					c0.907-1.159,1.965-2.099,3.04-2.956c2.167-1.696,4.501-3.04,6.886-4.232c2.385-1.192,4.82-2.217,7.306-3.124
					c1.092-0.386,2.183-0.756,3.275-1.125c-9.792,0.051-23.043,9.691-23.194,9.809c-0.319,0.218-0.672,0.336-1.042,0.336
					c-0.454,0-0.907-0.185-1.243-0.521c-0.487-0.487-2.318-2.368-4.535-4.854C54.462,261.483,45.561,294.452,39.582,305.571z
					 M84.375,242.371l-0.017-0.017c-1.192-1.377-2.351-2.838-3.426-4.316c-5.122-7.222-8.733-15.3-10.682-23.698
					c-0.604-2.569-1.091-5.139-1.411-7.726c-0.017,0-0.017,0-0.017,0c-3.41,1.898-11.135,6.886-12.277,13.839
					c-0.151,0.839-0.84,2.502-2.184,5.626c-1.159,2.721-3.325,7.776-3.342,8.885c0.538,3.41,7.474,11.639,12.361,16.728
					C66.672,249.441,75.842,243.647,84.375,242.371z"/>
				<path fill="#5A6064" d="M224.412,302.548l-36.378,0.604c0.269-0.286,0.537-0.571,0.789-0.84
					c0.991-1.209,1.864-2.452,2.704-3.729c1.646-2.536,3.107-5.173,4.602-7.793c1.478-2.62,2.956-5.257,4.283-7.978
					c1.36-2.721,2.536-5.526,3.426-8.448c0.437-1.461,0.823-2.939,1.125-4.467c0.151-0.772,0.269-1.562,0.336-2.385l0.017-0.639
					c0-0.269,0-0.487-0.017-0.655c-0.05-0.521-0.118-1.008-0.269-1.444c-0.554-1.764-1.512-3.057-2.502-4.283
					c-1.008-1.226-2.1-2.318-3.208-3.359c-2.25-2.083-4.635-3.947-7.087-5.694c-1.142-0.79-2.268-1.562-3.426-2.318
					c6.869,1.78,12.714,3.98,13.402,5.005c0.168,0.722,0.79,1.259,1.545,1.327c0.05,0.017,0.101,0.017,0.151,0.017
					c0.689,0,1.327-0.42,1.596-1.058c0.269-0.604,3.678-8.767,3.678-17.752c1.982,4.266,3.879,8.901,5.291,13.571
					c2.385,7.776,3.611,17.249,4.803,26.418C220.566,286.609,221.792,296.098,224.412,302.548z"/>
				<path fill="#5A6064" d="M200.462,222.334c8.229,8.163,4.602,22.64,2.704,28.333c-3.057-1.948-8.481-3.662-13.738-4.988
					c0.453-0.521,0.89-1.041,1.31-1.562c1.981-2.469,3.543-5.223,4.921-7.994c1.36-2.771,2.469-5.66,3.393-8.566
					C199.606,225.828,200.076,224.098,200.462,222.334z"/>
				<path fill="#5A6064" d="M202.394,265.514c0.302,0.874-0.084,2.418-0.37,3.762c-0.319,1.394-0.739,2.788-1.176,4.182
					l-2.704,8.431c-0.47,1.394-0.957,2.805-1.478,4.199c-0.537,1.377-1.058,2.788-1.679,4.132c-1.226,2.704-2.704,5.307-4.434,7.709
					c-0.856,1.192-1.814,2.334-2.872,3.309c-0.991,0.923-2.149,1.78-3.191,1.948c-2.469-0.269-4.921-0.521-7.39-0.739
					c-1.797-0.151-3.611-0.269-5.425-0.403c1.058-3.594,2.083-7.205,2.922-10.867c1.041-4.299,1.897-8.649,2.603-13.033
					c0.688-4.383,1.26-8.8,1.394-13.285c0.067-2.234,0.084-4.468-0.168-6.718c-0.134-1.125-0.319-2.25-0.638-3.342
					c-0.067-0.252-0.151-0.521-0.252-0.772c2.217-0.823,4.316-1.931,6.248-3.275c0.974-0.688,1.915-1.411,2.771-2.184
					c1.612,1.31,3.208,2.637,4.753,4.014c2.217,1.982,4.4,3.997,6.416,6.13c1.008,1.075,1.965,2.183,2.788,3.325
					C201.319,263.18,202.125,264.389,202.394,265.514z"/>
				<path fill="#DEEEFC" d="M199.791,202.953c0.302,0.688,0.437,1.461,0.319,2.183c-0.101,1.31-0.403,2.822-0.672,4.232
					c-0.588,2.838-1.327,5.677-2.15,8.431c-1.663,5.542-3.594,10.984-6.315,15.922c-1.344,2.469-2.922,4.787-4.619,6.953
					c-1.73,2.133-3.645,4.048-5.761,5.693c-2.133,1.612-4.501,2.922-7.037,3.83c-1.982,0.688-4.081,1.159-6.197,1.377
					c-0.135-1.478-0.302-2.922-0.454-4.383c-0.269-2.184-0.604-4.333-1.042-6.466c-0.42-2.15-1.007-4.266-1.747-6.349
					c-0.403-1.041-0.84-2.065-1.394-3.04c-0.302-0.487-0.638-0.958-1.008-1.377c-0.369-0.454-0.856-0.806-1.377-1.075
					c-0.118-0.051-0.252-0.034-0.319,0.067c-0.101,0.101-0.084,0.269,0.034,0.37l0.017,0.017c0.386,0.303,0.739,0.672,0.974,1.125
					c0.269,0.42,0.453,0.89,0.671,1.36c0.353,0.94,0.622,1.965,0.823,3.006c0.067,0.218,0.084,0.437,0.134,0.672
					c-0.386,0.235-0.756,0.487-1.142,0.688c-0.588,0.386-1.26,0.688-1.864,0.991c-1.293,0.571-2.637,1.024-3.98,1.377
					c-0.185,0.05-0.37,0.084-0.571,0.134c0.185-1.142,0.521-2.2,0.839-3.325l1.092-3.645l1.965-6.063
					c0.722,0.067,1.461,0.134,2.2,0.185l3.292,0.084c2.184-0.05,4.384-0.185,6.584-0.47c2.183-0.319,4.383-0.772,6.516-1.411
					c1.075-0.303,2.133-0.706,3.174-1.109c1.042-0.403,2.049-0.89,3.04-1.427c1.008-0.538,1.965-1.142,2.872-1.78
					c0.94-0.622,1.831-1.327,2.67-2.049c0.856-0.756,1.663-1.511,2.435-2.317c0.756-0.806,1.478-1.646,2.184-2.503
					c0.672-0.856,1.327-1.763,1.948-2.67c0.604-0.89,1.176-1.831,1.713-2.788c0.555-0.941,1.058-1.915,1.478-2.906
					C199.354,203.977,199.589,203.473,199.791,202.953z"/>
				<path fill="#000100" d="M197.691,203.843l1.427,0.655c-0.42,0.991-0.923,1.965-1.478,2.906
					c-0.537,0.957-1.108,1.897-1.713,2.788c-0.622,0.907-1.276,1.814-1.948,2.67c-0.706,0.857-1.428,1.697-2.184,2.503
					c-0.772,0.806-1.579,1.562-2.435,2.317c-0.84,0.722-1.73,1.428-2.67,2.049c-0.907,0.638-1.864,1.243-2.872,1.78
					c-0.991,0.537-1.999,1.024-3.04,1.427c-1.041,0.403-2.099,0.806-3.174,1.109c-2.133,0.638-4.333,1.091-6.516,1.411
					c-2.2,0.286-4.4,0.42-6.584,0.47l-3.292-0.084c-0.739-0.05-1.478-0.118-2.2-0.185l-1.965,6.063l-1.092,3.645
					c-0.319,1.125-0.655,2.183-0.839,3.325l-0.588,0.017c-0.034-0.538-0.017-1.109,0.017-1.663c0.034-0.638,0.101-1.293,0.168-1.931
					c0.168-1.26,0.319-2.536,0.538-3.796c0.386-2.536,0.823-5.039,1.36-7.541c0.134-0.571,0.622-0.991,1.176-1.041l0.252-0.017
					c1.041-0.084,2.083-0.185,3.107-0.269l3.107-0.319l3.074-0.437c0.991-0.218,2.015-0.353,3.006-0.588
					c2.015-0.386,3.98-0.89,5.895-1.512c0.958-0.302,1.915-0.621,2.855-0.974c0.924-0.386,1.864-0.705,2.788-1.108
					c0.924-0.386,1.831-0.823,2.738-1.259c0.907-0.437,1.78-0.941,2.67-1.428c1.73-1.042,3.426-2.2,4.938-3.594
					c0.756-0.688,1.478-1.411,2.15-2.217c0.622-0.806,1.293-1.579,1.831-2.469C196.75,205.656,197.254,204.783,197.691,203.843z"/>
				<path fill="#DEEEFC" d="M176.882,254.984c0.135,1.058,0.151,2.133,0.118,3.208c-0.084,2.167-0.302,4.333-0.621,6.483
					c-0.672,4.299-1.512,8.582-2.452,12.865c-0.924,4.266-1.948,8.532-2.956,12.798c-0.79,3.242-1.545,6.517-2.334,9.758
					c-0.084-0.269-0.168-0.521-0.252-0.79c-0.504-1.629-0.823-3.359-1.209-5.055l-1.058-5.173l-1.024-5.19l-0.974-5.223
					l-1.948-10.463c-0.487-2.57-1.024-5.123-1.562-7.692c0.017,0,0.017,0,0.017,0c0.101-0.034,0.235-0.067,0.336-0.118
					c1.276-0.521,2.368-1.327,3.225-2.351c0.588-0.706,1.058-1.512,1.427-2.334c3.09,0.185,6.298-0.034,9.389-0.874
					c0.588-0.168,1.192-0.336,1.764-0.537C176.815,254.53,176.849,254.749,176.882,254.984z"/>
				<path fill="#C63235" d="M167.342,302.699c0.151,0.235,0.319,0.47,0.504,0.706c0,0.034-0.017,0.05-0.017,0.067l-20.675,0.353
					c-1.377-0.118-2.738-0.218-4.098-0.302l-8.499-0.403c0.739-2.99,1.411-5.979,2.016-8.985c0.706-3.695,1.36-7.407,1.881-11.152
					c0.538-3.729,0.958-7.491,1.176-11.287c0.101-1.881,0.218-3.779,0.168-5.677c-0.034-1.394-0.084-2.788-0.269-4.165
					c0.554,0.101,1.142,0.185,1.73,0.252c2.167,0.235,4.35,0.336,6.533,0.386c2.2,0,4.417-0.084,6.617-0.42
					c1.092-0.168,2.184-0.353,3.292-0.622c0.688-0.201,1.377-0.386,2.065-0.638c0.017,0,0.017,0,0.017,0
					c0.101,2.553,0.218,5.106,0.42,7.659c0.285,3.561,0.655,7.104,1.125,10.631c0.218,1.78,0.487,3.544,0.773,5.307
					c0.302,1.764,0.571,3.527,0.957,5.291c0.706,3.51,1.629,7.004,3.006,10.43C166.436,300.986,166.805,301.842,167.342,302.699z"/>
				<path fill="#C63235" d="M163.563,241.648c0.118,2.1,0.269,4.216,0.437,6.315c-0.05,1.344-0.168,2.704-0.437,3.947
					c-0.151,0.604-0.336,1.176-0.571,1.73c-0.655,1.696-1.864,2.906-3.309,3.443c-0.873,0.302-1.881,0.554-2.855,0.773
					c-0.974,0.185-1.965,0.403-2.973,0.554c-1.008,0.168-2.032,0.252-3.04,0.369c-1.024,0.135-2.066,0.202-3.09,0.252
					c-2.049,0.101-4.148,0.084-6.214,0l-3.174-0.151c-1.058-0.034-2.1-0.084-3.09-0.168c-1.965-0.185-3.863-0.688-5.224-2.032
					c-0.017,0-0.033-0.017-0.05-0.034c-0.688-0.655-1.176-1.528-1.478-2.469c-0.319-0.958-0.42-1.948-0.437-2.956v-0.017
					c0.437-1.982,0.907-3.964,1.428-5.929c0.437-1.612,0.923-3.225,1.36-4.837c0.067,0.051,0.134,0.067,0.185,0.067
					c1.024,0.336,2.049,0.638,3.107,0.874c1.445,0.369,2.906,0.655,4.384,0.856c1.209,0.134,2.418,0.286,3.661,0.336
					c0.269,0,0.538,0.017,0.823,0.017c0.235,0.017,0.504,0.017,0.739,0.017c1.26,0,2.502-0.017,3.762-0.135
					c3.006-0.218,6.013-0.823,8.834-1.965c0.705-0.286,1.394-0.622,2.065-0.974c0.672-0.336,1.31-0.772,1.948-1.192
					c0.605-0.454,1.192-0.89,1.73-1.428c0.269-0.235,0.487-0.47,0.706-0.739c0.185-0.185,0.37-0.403,0.537-0.605
					C163.362,237.601,163.463,239.616,163.563,241.648z"/>
				<path fill="#000100" d="M143.208,239.045l-2.049,0.319c-0.302-0.856-0.588-1.73-0.873-2.586l-3.057-8.633
					c-1.192,0.118-2.401,0.202-3.594,0.252l-5.005,0.101c-1.679-0.017-3.359-0.135-5.021-0.202c-1.68-0.168-3.359-0.286-5.039-0.487
					c-1.663-0.302-3.326-0.47-4.988-0.856c-1.663-0.37-3.309-0.722-4.955-1.209c-1.646-0.437-3.258-1.042-4.871-1.613
					c-1.562-0.688-3.141-1.327-4.669-2.149c-1.528-0.756-2.973-1.696-4.417-2.62c-1.411-0.974-2.805-1.965-4.098-3.09
					c-1.31-1.108-2.586-2.25-3.745-3.51c-1.193-1.209-2.284-2.486-3.342-3.813s-1.999-2.721-2.939-4.115
					c-0.907-1.411-1.747-2.872-2.502-4.35c-0.772-1.495-1.495-3.006-2.083-4.568v-0.017l1.948-0.739
					c0.588,1.461,1.276,2.905,2.083,4.249c0.773,1.394,1.747,2.654,2.688,3.913c0.974,1.243,2.032,2.418,3.191,3.494
					c1.108,1.092,2.318,2.116,3.561,3.057c1.26,0.94,2.57,1.797,3.896,2.603s2.704,1.528,4.081,2.25
					c1.411,0.639,2.788,1.327,4.232,1.898c1.394,0.638,2.889,1.108,4.316,1.68c1.495,0.47,2.939,1.041,4.434,1.444
					c1.478,0.487,2.989,0.874,4.535,1.226c1.495,0.437,3.057,0.672,4.602,1.008c1.545,0.319,3.107,0.554,4.669,0.84l4.719,0.604
					l4.787,0.47c1.596,0.084,3.208,0.235,4.804,0.353l0.302,0.034c0.789,0.05,1.394,0.604,1.562,1.31
					c0.89,3.493,1.646,7.021,2.334,10.547C142.905,237.097,143.073,238.071,143.208,239.045z"/>
				<path fill="#DEEEFC" d="M140.286,236.778c0.285,0.856,0.571,1.73,0.873,2.586c-0.756-0.05-1.512-0.134-2.267-0.202
					c-1.411-0.117-2.822-0.302-4.232-0.487c-0.958-0.118-1.965-0.269-2.922-0.42c0.353-0.94,0.806-1.831,1.36-2.67
					c0.302-0.403,0.622-0.806,0.94-1.176c0.353-0.37,0.756-0.688,1.176-0.991l0.017-0.017c0.118-0.084,0.168-0.269,0.101-0.42
					c-0.067-0.168-0.252-0.269-0.454-0.185c-0.521,0.202-1.042,0.437-1.528,0.756c-0.47,0.319-0.958,0.638-1.36,1.041
					c-0.857,0.79-1.579,1.68-2.234,2.637c-1.226,1.948-2.15,4.031-2.805,6.164c-0.672,2.167-1.192,4.333-1.528,6.533
					c-0.202,1.092-0.336,2.184-0.454,3.292l-0.05,0.487c-1.209-0.084-2.402-0.202-3.578-0.37c-1.981-0.319-3.93-0.604-5.845-1.075
					c-3.846-0.924-7.541-2.234-11.018-3.914c-3.51-1.679-6.751-3.813-9.758-6.214c-3.023-2.418-5.811-5.173-8.247-8.263
					c-4.971-6.13-8.582-13.402-11.521-20.943c-1.444-3.796-2.67-7.726-3.459-11.689c-0.101-0.487-0.168-1.024-0.218-1.428
					c-0.067-0.453-0.051-0.671,0.033-1.091c0.168-0.79,0.571-1.663,1.075-2.469c0.739-1.108,1.595-2.217,2.553-3.241
					c0.302,1.008,0.638,1.948,1.024,2.889v0.017c0.588,1.562,1.31,3.074,2.083,4.568c0.756,1.478,1.596,2.939,2.502,4.35
					c0.941,1.394,1.881,2.788,2.939,4.115s2.149,2.604,3.342,3.813c1.159,1.26,2.435,2.402,3.745,3.51
					c1.293,1.125,2.687,2.116,4.098,3.09c1.444,0.924,2.889,1.864,4.417,2.62c1.528,0.823,3.107,1.461,4.669,2.149
					c1.612,0.571,3.225,1.176,4.871,1.613c1.646,0.487,3.292,0.839,4.955,1.209c1.663,0.386,3.326,0.554,4.988,0.856
					c1.68,0.202,3.359,0.319,5.039,0.487c1.663,0.067,3.342,0.185,5.021,0.202l5.005-0.101c1.192-0.05,2.401-0.134,3.594-0.252
					L140.286,236.778z"/>
				<path fill="#DEEEFC" d="M138.068,261.635c0.252,0.05,0.521,0.084,0.79,0.118c-0.084,1.394-0.202,2.788-0.42,4.182
					c-0.286,1.848-0.538,3.678-0.89,5.509c-0.706,3.678-1.461,7.34-2.234,10.984l-2.385,10.967l-1.344,6.382
					c-3.963-7.138-7.995-14.242-12.109-21.313l-7.49-12.58l-3.88-6.214l-1.864-2.872c0.487,0.168,0.991,0.302,1.478,0.453
					c2.15,0.638,4.35,1.042,6.517,1.411c4.4,0.705,8.817,0.789,13.15,0.521h0.252c0.722-0.05,1.344-0.403,1.764-0.924
					c1.495,1.495,3.527,2.301,5.425,2.788C135.936,261.315,137.027,261.5,138.068,261.635z"/>
				<path fill="#5A6064" d="M117.276,279.673l12.277,23.58l-3.426,0.319l-6.013,0.655l-0.252,0.034l-14.427,0.235
					c-1.024-0.588-2.032-1.293-3.023-2.032c-1.999-1.562-3.98-3.225-5.878-4.988c-1.898-1.764-3.729-3.594-5.542-5.475
					c-1.78-1.898-3.477-3.88-5.139-5.878c-1.646-2.032-3.225-4.098-4.736-6.231l-4.4-6.466c-1.444-2.15-2.855-4.35-4.35-6.483
					c-1.36-1.982-2.771-3.947-4.182-5.878c0.134-0.739,0.521-1.528,1.075-2.284c0.672-0.907,1.528-1.78,2.452-2.603
					c1.881-1.596,4.014-3.023,6.214-4.367c2.2-1.31,4.484-2.553,6.802-3.746c1.142-0.604,2.318-1.192,3.494-1.747
					c0.571,0.521,1.142,1.042,1.747,1.545c3.426,2.889,7.306,5.291,11.42,7.104c1.26,0.554,2.536,1.042,3.83,1.478
					c0.084,0.168,0.185,0.353,0.285,0.521l1.713,3.208l3.359,6.5L117.276,279.673z"/>
				<path fill="#5A6064" d="M100.666,304.58l-61.084,0.991c5.979-11.119,14.881-44.087,17.803-55.239
					c2.217,2.486,4.047,4.367,4.535,4.854c0.336,0.335,0.789,0.521,1.243,0.521c0.37,0,0.722-0.118,1.042-0.336
					c0.151-0.118,13.402-9.758,23.194-9.809c-1.092,0.37-2.183,0.739-3.275,1.125c-2.486,0.907-4.921,1.932-7.306,3.124
					c-2.385,1.192-4.719,2.536-6.886,4.232c-1.075,0.856-2.133,1.797-3.04,2.956c-0.89,1.159-1.696,2.62-1.814,4.384
					c-0.034,0.302,0.05,0.621,0.235,0.89l0.017,0.05c1.478,2.184,2.99,4.3,4.585,6.399c1.579,2.083,3.258,4.081,4.955,6.097
					c1.68,1.999,3.393,3.98,5.123,5.962c1.713,1.982,3.376,3.98,5.056,5.996l4.971,6.063c1.646,2.049,3.325,4.064,5.072,6.046
					C96.836,300.852,98.617,302.816,100.666,304.58z"/>
				<path fill="#5A6064" d="M84.357,242.354l0.017,0.017c-8.532,1.276-17.702,7.071-20.994,9.321
					c-4.887-5.089-11.824-13.318-12.361-16.728c0.017-1.108,2.184-6.164,3.342-8.885c1.344-3.124,2.032-4.787,2.184-5.626
					c1.142-6.953,8.868-11.941,12.277-13.839c0,0,0,0,0.017,0c0.319,2.586,0.806,5.156,1.411,7.726
					c1.948,8.398,5.56,16.476,10.682,23.698C82.006,239.516,83.165,240.977,84.357,242.354z"/>
			</g>
		</g>
	</g>
</g>
</svg>
