<?xml version="1.0" encoding="utf-8"?>
<!-- Generator: Adobe Illustrator 16.0.0, SVG Export Plug-In . SVG Version: 6.00 Build 0)  -->
<!DOCTYPE svg PUBLIC "-//W3C//DTD SVG 1.1//EN" "http://www.w3.org/Graphics/SVG/1.1/DTD/svg11.dtd">
<svg version="1.1" id="Capa_1" xmlns="http://www.w3.org/2000/svg" xmlns:xlink="http://www.w3.org/1999/xlink" x="0px" y="0px"
	 width="300px" height="300px" viewBox="0 0 300 300" enable-background="new 0 0 300 300" xml:space="preserve">
<g>
	<defs>
		<rect id="SVGID_5_" y="0.001" width="300" height="299.998"/>
	</defs>
	<clipPath id="SVGID_2_">
		<use xlink:href="#SVGID_5_"  overflow="visible"/>
	</clipPath>
	<g clip-path="url(#SVGID_2_)">
		<path fill="#BAD9D3" d="M300,0.001H0v270.715c0.292-1.192,0.576-2.364,0.876-3.57c-0.059-0.09-0.099-0.152-0.099-0.152
			l0.156-0.082c0.625-2.511,1.261-5.04,1.922-7.604c0.523-2.039,1.05-4.096,1.58-6.167c0.609-2.05,1.224-4.115,1.84-6.191
			c1.227-4.158,2.483-8.363,3.809-12.583c0.652-2.113,1.309-4.235,1.968-6.362c0.654-2.129,1.463-4.216,2.191-6.333
			c1.492-4.224,2.995-8.463,4.494-12.701l2.322-6.331c0.856-2.078,1.713-4.152,2.567-6.226c1.707-4.142,3.409-8.269,5.099-12.363
			c1.61-4.125,3.633-8.042,5.455-11.981c1.887-3.913,3.632-7.83,5.561-11.585c3.933-7.472,7.602-14.754,11.654-21.357
			c1.986-3.321,3.807-6.609,5.769-9.677c1.996-3.043,3.927-5.983,5.778-8.806c1.808-2.846,3.753-5.44,5.537-7.943
			c1.817-2.481,3.488-4.866,5.223-6.997c1.702-2.15,3.26-4.183,4.76-6.016c1.55-1.795,2.974-3.443,4.259-4.931
			c1.255-1.508,2.503-2.756,3.545-3.867c1.043-1.112,1.948-2.042,2.709-2.771c0.978-0.978,5.554-6.9,8.581-10.854
			c-0.298,0.29-0.459,0.449-0.459,0.449s1.086-1.473,3.171-4.002c0.003-0.003,0.006-0.01,0.013-0.018
			c-0.002,0.003-0.005,0.006-0.007,0.008c0.005-0.005,0.026-0.034,0.026-0.034s-0.012,0.015-0.02,0.026
			c0.912-1.105,1.994-2.392,3.292-3.879c4.28-4.896,10.621-11.723,18.957-19.2c4.166-3.739,8.797-7.682,14.034-11.478
			c5.262-3.78,10.894-7.659,17.788-10.485c0.918-0.384,1.736-0.669,2.554-0.953c0.874-0.273,1.753-0.549,2.634-0.826
			c1.721-0.54,3.479-1.012,5.248-1.481c3.541-0.941,7.195-1.68,10.915-2.211c7.436-1.081,15.175-1.384,22.865-0.517
			c7.672,0.941,15.266,3.036,22.161,6.391c6.932,3.285,13.039,7.927,18.078,13.148c5.077,5.213,8.955,11.163,11.76,17.147
			c2.834,5.985,4.5,12.085,5.176,17.809c0.695,5.732,0.325,11.083-0.98,15.667c-0.154,0.586-0.338,1.078-0.502,1.609
			c-0.233,0.6-0.423,1.097-0.656,1.627c-0.495,1.023-1.05,1.982-1.726,2.791c-1.315,1.662-2.824,2.763-4.044,3.781
			c-1.237,1.015-2.228,1.996-3.002,2.953c-0.748,0.967-1.315,1.875-1.676,2.646c-0.322,0.593-0.516,1.071-0.67,1.467
			c-1.371,3.085-2.431,9.675-2.65,11c-0.275,1.624-0.538,3.234-0.62,4.834c-0.098,1.596-0.025,3.172,0.21,4.659
			c0.25,1.491,0.742,2.879,1.46,4.086c0.735,1.199,1.683,2.216,2.795,3.07c0.289,0.203,0.555,0.427,0.866,0.606l0.449,0.284
			l0.591,0.396c0.302,0.174,0.823,0.626,1.21,0.944c0.345,0.328,0.725,0.649,1.04,0.996c2.604,2.729,4.461,5.885,5.77,9.291
			c1.28,3.405,2.058,7.058,2.09,10.799c0.096,3.738-0.702,7.526-2.093,11.036c-0.719,1.747-1.581,3.438-2.614,5.001
			c-1.004,1.59-2.168,3.041-3.386,4.44c-1.243,1.362-2.578,2.624-3.969,3.798c-0.709,0.562-1.41,1.142-2.132,1.683l-2.201,1.556
			l-0.521,0.367l-0.709,0.169c-3.333,0.794-6.025,0.263-8.463-0.29c-1.135-0.282-2.214-0.622-3.268-0.987
			c-0.256,0.751-0.623,1.569-1.197,2.417c-1.188,1.866-3.218,3.715-5.81,5.262c-2.63,1.581-5.589,2.889-9.352,3.976
			c-2.201,0.449-4.205,0.359-6.242,0.202c-2.031-0.176-4.045-0.547-6.089-0.962c-4.078-0.87-8.244-2.069-12.472-3.484
			c-4.229-1.413-8.522-3.031-12.816-4.822c-4.306-1.769-8.598-3.731-12.86-5.766c-4.24-2.079-8.448-4.222-12.513-6.532
			c-2.041-1.142-4.047-2.321-6.01-3.569c-0.082-0.053-0.161-0.104-0.243-0.155c-0.613,1.253-1.49,3.047-2.604,5.325
			c-1.151,2.344-2.455,5.242-4.02,8.511c-1.481,3.318-3.213,7.017-4.981,11.107c-1.83,4.059-3.631,8.535-5.624,13.218
			c-1.021,2.329-1.937,4.781-2.897,7.273c-0.977,2.483-1.972,5.021-2.985,7.603c-1.814,5.24-3.992,10.536-5.766,16.071
			c-0.927,2.754-1.861,5.529-2.8,8.314c-0.993,2.767-1.722,5.629-2.598,8.445c-0.859,2.82-1.719,5.642-2.575,8.451
			c-0.748,2.839-1.492,5.667-2.23,8.473c-0.374,1.402-0.744,2.8-1.115,4.191c-0.386,1.386-0.78,2.764-1.058,4.157
			c-0.623,2.777-1.238,5.52-1.844,8.216c-0.495,2.25-1.036,4.451-1.489,6.639H300V0.001z"/>
		<path fill="#000100" d="M220.23,103.507c0,0,5.56-4.287,6.892-3.01c1.332,1.283-3.251,11.457-5.8,11.697
			C218.81,112.433,210.625,110.937,220.23,103.507z"/>
		<path fill="#000100" d="M236.894,111.728c0,0,0.577-4.391-0.413-3.93c-0.99,0.466-4.717,8.45-4.137,9.327
			C232.915,117.996,235.884,119.333,236.894,111.728z"/>
		<path fill="#000100" d="M178.445,114.55c-5.056-4.143-15.29-8.586-13.32-18.653c0.943-4.815-1.234-7.848-2.901-8.926
			c-3.165-2.043-1.05-6.377,5.964-9.257c4.858-2.942,30.892-4.249,25.453,21.335C192.337,104.192,185.559,120.381,178.445,114.55z"
			/>
		<path fill="#FFFFFF" d="M183.307,98.98c-1.545,1.263-3.688-1.127-6.57-4.58c-2.877-3.452-5.485-5.371-3.875-6.561
			c1.032-0.761,6.315-2.007,8.939,0.23C185.322,91.069,188.381,94.83,183.307,98.98z"/>
		<path fill="#000100" d="M196.704,143.039c0,0,0.193-0.461,0.479-1.272c0.099-0.432,0.417-0.843,0.649-1.325
			c0.21-0.479,0.633-0.975,1.001-1.527c0.351-0.559,0.938-1.048,1.384-1.64c0.594-0.502,1.115-1.093,1.791-1.595
			c0.325-0.257,0.656-0.52,0.991-0.785c0.363-0.233,0.725-0.471,1.079-0.727c0.718-0.492,1.502-0.934,2.273-1.371
			c1.57-0.852,3.211-1.565,4.795-2.144c0.804-0.235,1.578-0.519,2.329-0.706c0.755-0.141,1.477-0.382,2.148-0.447
			c0.68-0.102,1.31-0.218,1.873-0.225c0.562-0.021,1.08-0.108,1.486-0.058c0.83,0.031,1.349,0.028,1.349,0.028
			s-0.407-0.26-1.194-0.678c-0.387-0.234-0.896-0.391-1.489-0.569c-0.594-0.217-1.279-0.345-2.044-0.428
			c-0.768-0.146-1.591-0.12-2.477-0.106c-0.879,0.036-1.808,0.144-2.749,0.331c-0.922,0.239-1.915,0.411-2.844,0.807
			c-0.964,0.312-1.873,0.787-2.791,1.245c-0.883,0.52-1.775,1.04-2.565,1.678c-0.813,0.608-1.542,1.299-2.201,2.015
			c-0.715,0.649-1.197,1.507-1.732,2.202c-0.43,0.801-0.882,1.506-1.108,2.271c-0.259,0.742-0.488,1.403-0.535,2.076
			c-0.078,0.643-0.163,1.184-0.078,1.603C196.618,142.547,196.704,143.039,196.704,143.039z"/>
		<path fill="#000100" d="M142.677,74.032c1.036-1.798,2.457-3.505,4.051-5.02c3.217-3.01,6.98-5.523,11.045-7.059l0.029-0.012
			l0.397-0.205c0.932-0.478,2.549-0.913,4.084-1.224c1.567-0.318,3.208-0.529,4.859-0.676c3.312-0.277,6.677-0.292,10.003-0.032
			c1.667,0.104,3.316,0.331,4.957,0.58c1.63,0.294,3.261,0.589,4.838,1.033c1.595,0.408,3.126,0.953,4.648,1.511
			c1.489,0.617,2.966,1.277,4.32,2.107c1.398,0.781,2.635,1.757,3.842,2.763c1.148,1.06,2.293,2.149,3.198,3.436
			c0.975,1.236,1.716,2.643,2.401,4.086l0.869,2.166c0.151,0.54,0.177,0.564,0.229,0.943c0.053,0.316,0.065,0.658,0.063,1.012
			c-0.013,1.428-0.452,3.053-0.941,4.699l-1.535,5.104c-0.978,3.471-1.538,7.215-0.925,10.748c0.19-1.776,0.59-3.484,1.128-5.131
			c0.531-1.653,1.264-3.22,2.001-4.791l2.382-4.748c0.774-1.644,1.535-3.384,1.886-5.484c0.079-0.525,0.135-1.069,0.128-1.636
			c0.026-0.503-0.095-1.354-0.15-1.674c-0.253-1.095-0.453-1.919-0.755-2.877c-0.652-1.822-1.413-3.642-2.47-5.301
			c-0.987-1.708-2.26-3.225-3.596-4.673c-1.423-1.349-2.912-2.645-4.546-3.695c-1.604-1.107-3.314-2.001-5.046-2.831
			c-1.745-0.782-3.528-1.484-5.349-1.996c-3.626-1.108-7.34-1.732-11.055-2.032c-3.718-0.314-7.446-0.243-11.173,0.13
			c-1.864,0.218-3.728,0.512-5.61,0.947c-1.903,0.468-3.735,0.982-5.895,2.236l0.426-0.215c-4.801,2.153-9.119,5.189-12.551,9.103
			c-1.725,1.946-3.257,4.092-4.418,6.563c-0.577,1.242-1.047,2.587-1.227,4.118c-0.171,1.481-0.033,3.444,1.275,4.998
			c0.338,0.369,0.634,0.681,1.109,0.978c0.203,0.13,0.496,0.313,0.636,0.37l0.417,0.173l0.507,0.203l0.365,0.138
			c0.253,0.082,0.473,0.21,0.712,0.312c0.929,0.446,1.773,1.022,2.532,1.716c1.525,1.388,2.585,3.372,3.342,5.55
			c0.763,2.181,1.33,4.524,2.021,6.859c0.694,2.313,1.631,4.711,3.309,6.476c-1.292-2.059-1.742-4.405-2.078-6.749
			c-0.348-2.351-0.499-4.765-1.036-7.21c-0.522-2.426-1.431-4.984-3.224-7.107c-0.877-1.061-1.966-1.956-3.138-2.667
			c-0.297-0.169-0.587-0.363-0.894-0.503l-0.457-0.227l-0.23-0.111l-0.056-0.028l-0.029-0.015l-0.015-0.007
			c0.053,0.023-0.136-0.061,0.113,0.05l-0.099-0.055l-0.394-0.22c-0.128-0.075-0.064-0.092-0.111-0.123
			c-0.033-0.024-0.142-0.179-0.19-0.257c-0.213-0.361-0.266-1.011-0.063-1.863C141.765,75.85,142.171,74.928,142.677,74.032z"/>
		<g>
			<g id="XMLID_6_">
				<g>
					<path fill="#000100" d="M126.808,201.549l-1.461-0.307c0.244-0.082,0.504-0.165,0.748-0.247
						C126.336,201.168,126.58,201.358,126.808,201.549z"/>
					<path fill="#000100" d="M117.951,226.301l1.307,0.833l-0.769-0.055C118.306,226.832,118.12,226.568,117.951,226.301z"/>
					<path fill="#000100" d="M103.397,198.618l0.019,0.014C103.399,198.634,103.397,198.618,103.397,198.618z"/>
					<path fill="#000100" d="M101.552,196.345c0.129,0.085,0.261,0.187,0.392,0.289l-0.894-0.243L101.552,196.345z"/>
					<path fill="#000100" d="M100.854,223.096c-0.239,0.25-0.498,0.486-0.76,0.688l-0.883-0.159L100.854,223.096z"/>
					<path fill="#C1282E" d="M67.049,172.758c0.252,0.12,0.638,0.359,0.946,0.523c1.282,0.769,2.623,1.463,3.87,2.355
						c2.548,1.675,4.994,3.482,7.442,5.306c2.432,1.826,4.821,3.724,7.211,5.623c4.736,3.854,9.383,7.803,14.018,11.788l0.321,0.264
						l0.587-0.04l0.587-0.041l0.286-0.019l0.394,0.035l0.686,0.066c0,0,0.002,0.017,0.019,0.014l0.017-0.002l0.017-0.002
						l0.019,0.015c0.036,0.012,0.069,0.008,0.052,0.01l0.069,0.008l0.191,0.043l0.384,0.087l3.096,0.658l6.193,1.316l6.22,1.262
						l1.544,0.296c0.488,0.107,1.125,0.196,1.444,0.308c0.4,0.085,0.777,0.257,1.14,0.449c0.363,0.191,0.684,0.455,1.003,0.703
						l0.682,0.574l0.781-0.251l16.418-5.241l4.123-1.266c1.368-0.427,2.734-0.871,4.106-1.264l4.132-1.199l4.098-1.06
						c1.368-0.292,2.905-0.587,4.182-0.8c0.617-0.078,1.176,0.055,1.682,0.313c0.492,0.276,0.859,0.771,1.184,1.323
						c0.57,1.164,0.797,2.557,0.872,3.953c0.077,1.412,0.019,2.825-0.14,4.25c-0.338,2.819-0.982,5.626-1.874,8.346
						c-0.471,1.363-0.996,2.699-1.63,3.981c-0.326,0.634-0.671,1.253-1.089,1.831c-0.42,0.561-0.809,1.101-1.498,1.272
						c-0.4,0.051-0.735,0.347-0.895,0.689c-0.144,0.34-0.201,0.686-0.26,1.031c-0.065,0.686-0.048,1.36-0.03,2.036
						c0.068,1.346,0.188,2.685,0.287,4.01c0.183,2.651,0.272,5.366-0.287,7.908c-0.279,1.271-0.784,2.503-1.595,3.452
						c-0.773,0.978-1.897,1.594-3.098,1.881c-0.605,0.161-1.21,0.204-1.813,0.246l-1.017-0.007l-0.24-0.021l-0.221-0.006
						l-0.498-0.056c-1.3-0.106-2.61-0.296-3.908-0.521c-5.183-0.953-10.195-2.707-14.848-5.098c-1.157-0.582-2.287-1.218-3.39-1.908
						c-1.086-0.692-2.16-1.42-3.174-2.206c-1.011-0.77-1.962-1.597-2.82-2.488c-0.874-0.888-1.573-1.866-2.189-2.855l-0.449-0.739
						l-0.839-0.08l-1.269-0.127l-1.059-0.205L114.741,223l-4.949-0.983l-9.91-1.93l-0.936-0.169l-0.705,0.715
						c-1.772,1.782-4.443,3.017-7.182,3.854c-2.755,0.839-5.67,1.343-8.614,1.631c-2.947,0.254-5.924,0.275-8.893,0.091
						c-2.948-0.152-5.919-0.623-8.776-1.26c-0.717-0.181-1.411-0.313-2.132-0.526l-2.199-0.653
						c-1.257-0.434-2.533-1.017-3.429-1.818c-0.933-0.813-1.55-1.818-1.758-3.062c-0.223-1.225-0.091-2.595,0.209-3.971
						c0.648-2.773,1.946-5.494,3.242-8.231c0.636-1.401,1.344-2.76,1.85-4.381c0.116-0.421,0.232-0.842,0.265-1.388l0.016-0.408
						c-0.002-0.152-0.04-0.317-0.078-0.481c0.037-0.242-0.487-1.039-0.646-1.086l-0.112-0.087l-0.056-0.043l-0.021-0.031
						l-0.202-0.127c-0.004-0.033-0.004-0.033-0.021-0.031c-0.031,0.021-0.103-0.139-0.161-0.2c-0.127-0.204-0.263-0.475-0.355-0.801
						c-0.772-2.628-0.764-5.778-0.614-8.742c0.181-2.986,0.596-6,1.365-8.891c0.394-1.438,0.892-2.855,1.557-4.158
						c0.667-1.286,1.54-2.548,2.716-3.153c0.556-0.291,1.234-0.41,1.829-0.265C66.311,172.411,66.711,172.631,67.049,172.758z"/>
					<polygon fill="#000100" points="58.639,200.5 58.657,200.515 58.641,200.517 					"/>
					<path fill="#000100" d="M58.582,200.457c0,0,0.017-0.002,0.019,0.015l-0.017,0.002
						C58.584,200.474,58.584,200.474,58.582,200.457z"/>
					<path fill="#000100" d="M58.582,200.457c0.002,0.017,0.002,0.017,0.002,0.017l-0.019-0.015L58.582,200.457z"/>
					<path fill="#000100" d="M58.795,200.667C58.813,200.682,58.828,200.663,58.795,200.667c-0.021-0.031-0.021-0.031-0.04-0.046
						l-0.077-0.075c0.002,0.017,0.004,0.033,0.023,0.048C58.722,200.625,58.778,200.669,58.795,200.667z M87.334,185.514
						c4.796,3.524,9.52,7.143,14.218,10.832l-0.502,0.046l0.894,0.243c-0.131-0.102-0.263-0.204-0.392-0.289l0.483-0.061
						l0.485-0.044l0.394,0.035l0.802,0.051l0.881,0.143l3.129,0.518l6.243,1.04l6.251,1.105l1.559,0.277
						c0.54,0.118,0.95,0.151,1.633,0.335c0.644,0.139,1.238,0.419,1.818,0.718c0.308,0.164,0.583,0.333,0.863,0.534
						c-0.244,0.082-0.504,0.165-0.748,0.247l1.461,0.307c-0.228-0.191-0.471-0.381-0.713-0.553c2.488-0.806,4.996-1.597,7.509-2.337
						c2.755-0.839,5.533-1.63,8.332-2.391c2.784-0.741,5.585-1.485,8.4-2.112l4.246-0.96l4.313-0.833
						c1.464-0.202,2.776-0.402,4.349-0.55c0.823-0.053,1.715,0.173,2.468,0.636c0.738,0.482,1.22,1.217,1.564,1.935
						c0.625,1.461,0.75,2.986,0.75,4.459c-0.017,1.475-0.171,2.934-0.412,4.369c-0.434,2.865-1.196,5.67-2.172,8.4
						c-0.487,1.365-1.029,2.703-1.696,3.99c-0.324,0.65-0.702,1.273-1.116,1.884c-0.234,0.284-0.451,0.582-0.742,0.822
						c-0.254,0.269-0.666,0.49-0.995,0.566l-0.033,0.004c-0.548,0.086-0.764,0.791-0.818,1.424c-0.054,0.65-0.038,1.309-0.004,1.981
						c0.083,1.327,0.235,2.662,0.352,3.984c0.22,2.681,0.444,5.395-0.043,8.098c-0.269,1.354-0.707,2.713-1.56,3.871
						c-0.831,1.188-2.132,2.013-3.5,2.44c-0.683,0.222-1.416,0.314-2.133,0.405l-1.01,0.043l-0.253,0.015l-0.289-0.014l-0.511-0.02
						c-1.358-0.031-2.71-0.148-4.064-0.282c-5.415-0.653-10.744-2.095-15.78-4.303c-1.255-0.552-2.485-1.176-3.702-1.834
						c-1.188-0.696-2.396-1.407-3.532-2.229c-1.136-0.821-2.246-1.697-3.272-2.718c-0.826-0.776-1.567-1.681-2.25-2.661l0.769,0.055
						l-1.307-0.833c0.169,0.267,0.355,0.531,0.539,0.778l-0.496-0.039l-0.068-0.008l-0.258-0.035l-0.157-0.031l-0.293-0.047
						l-0.625-0.124l-2.495-0.447l-4.955-0.897l-9.048-1.667c0.262-0.202,0.521-0.438,0.76-0.688l-1.643,0.529l0.883,0.159
						c-2.407,2.116-5.226,3.251-7.977,4.124c-3.098,0.933-6.235,1.431-9.386,1.677c-3.137,0.228-6.291,0.186-9.418-0.045
						c-3.127-0.231-6.209-0.772-9.297-1.5c-0.771-0.207-1.573-0.394-2.313-0.622l-2.186-0.688c-1.613-0.575-3.179-1.308-4.537-2.542
						s-2.329-3.024-2.573-4.821c-0.261-1.795-0.005-3.521,0.387-5.11c0.852-3.172,2.311-5.963,3.71-8.68
						c0.694-1.34,1.436-2.704,1.903-3.965c0.112-0.319,0.191-0.633,0.213-0.856l0.029-0.173c-0.019-0.015-0.023-0.048-0.008-0.067
						l0.017-0.002l-0.019-0.015c-0.019-0.015-0.021-0.031-0.038-0.029c-0.002-0.017-0.019-0.015-0.019-0.015
						c-0.019-0.015-0.021-0.031-0.038-0.029c-0.094-0.073-0.169-0.131-0.263-0.204c-0.302-0.25-0.363-0.462-0.544-0.693
						c-0.245-0.46-0.418-0.896-0.521-1.306c-0.465-1.668-0.511-3.236-0.54-4.807c-0.013-1.573,0.079-3.125,0.223-4.667
						c0.32-3.088,0.848-6.151,1.774-9.129c0.473-1.482,1.015-2.956,1.75-4.369c0.759-1.366,1.677-2.802,3.27-3.596
						c0.797-0.389,1.707-0.554,2.616-0.331c0.5,0.072,0.777,0.257,1.15,0.396c0.434,0.216,0.694,0.403,1.042,0.613
						c1.32,0.798,2.683,1.54,3.933,2.449l3.797,2.584l3.727,2.694C82.421,181.869,84.9,183.671,87.334,185.514z M102.318,198.517
						l-0.286,0.019l-0.587,0.041l-0.587,0.04l-0.321-0.264c-4.635-3.985-9.281-7.934-14.018-11.788
						c-2.39-1.899-4.78-3.797-7.211-5.623c-2.448-1.823-4.895-3.63-7.442-5.306c-1.247-0.892-2.587-1.586-3.87-2.355
						c-0.309-0.164-0.694-0.403-0.946-0.523c-0.338-0.127-0.738-0.347-1.009-0.347c-0.594-0.145-1.273-0.025-1.829,0.265
						c-1.176,0.605-2.049,1.867-2.716,3.153c-0.665,1.303-1.163,2.72-1.557,4.158c-0.769,2.891-1.184,5.905-1.365,8.891
						c-0.15,2.964-0.158,6.114,0.614,8.742c0.092,0.327,0.228,0.597,0.355,0.801c0.058,0.061,0.129,0.221,0.161,0.2
						c0.017-0.002,0.017-0.002,0.021,0.031l0.202,0.127l0.021,0.031l0.056,0.043l0.112,0.087c0.159,0.048,0.683,0.845,0.646,1.086
						c0.038,0.165,0.075,0.329,0.078,0.481l-0.016,0.408c-0.033,0.546-0.148,0.967-0.265,1.388c-0.506,1.622-1.214,2.98-1.85,4.381
						c-1.296,2.737-2.594,5.458-3.242,8.231c-0.3,1.375-0.432,2.746-0.209,3.971c0.208,1.244,0.826,2.249,1.758,3.062
						c0.896,0.801,2.172,1.384,3.429,1.818l2.199,0.653c0.721,0.213,1.415,0.346,2.132,0.526c2.857,0.637,5.828,1.108,8.776,1.26
						c2.969,0.184,5.946,0.163,8.893-0.091c2.943-0.288,5.859-0.792,8.614-1.631c2.738-0.837,5.409-2.072,7.182-3.854l0.705-0.715
						l0.936,0.169l9.91,1.93l4.949,0.983l2.481,0.482l1.059,0.205l1.269,0.127l0.839,0.08l0.449,0.739
						c0.616,0.989,1.315,1.967,2.189,2.855c0.857,0.891,1.809,1.718,2.82,2.488c1.014,0.786,2.087,1.514,3.174,2.206
						c1.103,0.69,2.233,1.326,3.39,1.908c4.653,2.391,9.665,4.145,14.848,5.098c1.298,0.225,2.608,0.415,3.908,0.521l0.498,0.056
						l0.221,0.006l0.24,0.021l1.017,0.007c0.604-0.042,1.208-0.085,1.813-0.246c1.2-0.287,2.324-0.903,3.098-1.881
						c0.811-0.949,1.315-2.181,1.595-3.452c0.56-2.542,0.47-5.256,0.287-7.908c-0.1-1.325-0.219-2.664-0.287-4.01
						c-0.018-0.675-0.035-1.35,0.03-2.036c0.059-0.346,0.116-0.691,0.26-1.031c0.159-0.342,0.494-0.638,0.895-0.689
						c0.689-0.171,1.078-0.712,1.498-1.272c0.418-0.578,0.763-1.197,1.089-1.831c0.634-1.282,1.159-2.618,1.63-3.981
						c0.892-2.72,1.536-5.526,1.874-8.346c0.158-1.425,0.217-2.837,0.14-4.25c-0.075-1.396-0.302-2.789-0.872-3.953
						c-0.324-0.552-0.691-1.047-1.184-1.323c-0.506-0.258-1.064-0.391-1.682-0.313c-1.276,0.212-2.813,0.508-4.182,0.8l-4.098,1.06
						l-4.132,1.199c-1.372,0.394-2.738,0.837-4.106,1.264l-4.123,1.266l-16.418,5.241l-0.781,0.251l-0.682-0.574
						c-0.319-0.248-0.64-0.512-1.003-0.703c-0.363-0.191-0.74-0.364-1.14-0.449c-0.319-0.112-0.957-0.201-1.444-0.308l-1.544-0.296
						l-6.22-1.262l-6.193-1.316l-3.096-0.658l-0.384-0.087l-0.191-0.043l-0.069-0.008c0.017-0.002-0.017,0.002-0.052-0.01
						l-0.019-0.015l-0.017,0.002l-0.017,0.002l-0.019-0.014l-0.686-0.066L102.318,198.517z"/>
				</g>
			</g>
			<path fill="#FFFFFF" d="M95.868,205.73c0-0.002-1.301-0.087-3.182-0.529c-0.929-0.23-2.024-0.521-3.155-0.938
				c-1.124-0.443-2.3-0.975-3.448-1.554c-2.311-1.135-4.526-2.494-5.965-3.805c-0.388-0.295-0.669-0.652-0.948-0.922
				c-0.283-0.271-0.497-0.539-0.654-0.779c-0.338-0.444-0.526-0.705-0.526-0.705l0.085-0.061c0,0,0.21,0.239,0.579,0.657
				c0.174,0.214,0.4,0.455,0.702,0.697c0.3,0.246,0.597,0.566,0.995,0.823c1.516,1.137,3.748,2.348,6.087,3.312
				c1.166,0.49,2.367,0.895,3.48,1.294c1.104,0.427,2.139,0.83,3.026,1.172c1.77,0.708,2.948,1.229,2.952,1.229L95.868,205.73z"/>
			<path fill="#FFFFFF" d="M93.609,208.035c0,0-0.394,0.19-0.974,0.272c-0.289,0.024-0.623,0.088-0.978-0.005
				c-0.356-0.094-0.727-0.243-1.094-0.371c-1.498-0.473-2.918-1.026-2.918-1.025l0.031-0.102c0,0.002,1.54,0.096,3.008,0.279
				c0.37,0.031,0.739,0.051,1.079,0.111c0.343,0.097,0.668,0.188,0.939,0.269c0.555,0.2,0.912,0.465,0.912,0.465L93.609,208.035z"/>
			<path fill="#FFFFFF" d="M94.907,210.336c0,0-0.867,0.651-2.305,1.366c-0.727,0.338-1.576,0.731-2.532,1.033
				c-0.963,0.284-2.003,0.535-3.056,0.724c-1.046,0.222-2.109,0.359-3.109,0.449c-1.002,0.087-1.943,0.072-2.744,0.005
				c-0.797-0.1-1.463-0.186-1.904-0.343c-0.449-0.131-0.702-0.208-0.702-0.208l0.033-0.099c0,0,0.258,0.043,0.712,0.13
				c0.437,0.108,1.101,0.128,1.878,0.146c1.564-0.015,3.631-0.343,5.641-0.91c1.004-0.277,1.982-0.64,2.912-0.949
				c0.931-0.299,1.812-0.538,2.564-0.77c1.519-0.432,2.566-0.673,2.566-0.673L94.907,210.336z"/>
			<path fill="#000100" d="M124.563,212.872c0,0,0.089,0.939,0.121,2.363c0.051,1.424-0.065,3.322-0.409,5.25
				c-0.169,0.961-0.379,1.95-0.776,2.853c-0.273,0.431-0.478,0.859-0.854,1.195c-0.351,0.346-0.672,0.661-1.11,0.845
				c-0.2,0.104-0.394,0.184-0.577,0.258c-0.213,0.029-0.4,0.066-0.582,0.073c-0.359,0.051-0.656,0.019-0.891-0.1
				c-0.468-0.159-0.676-0.291-0.676-0.291l0.036-0.211c0,0,0.264-0.118,0.616-0.251c0.181-0.046,0.366-0.178,0.54-0.337
				c0.093-0.081,0.188-0.143,0.277-0.204c0.085-0.11,0.16-0.229,0.249-0.325c0.184-0.169,0.316-0.469,0.49-0.731
				c0.166-0.258,0.302-0.628,0.495-0.934c0.361-0.682,0.813-1.439,1.117-2.289c0.622-1.687,1.002-3.51,1.308-4.873
				c0.286-1.369,0.413-2.296,0.413-2.296L124.563,212.872z"/>
			<path fill="#000100" d="M99.824,200.707c0,0-0.039,0.946-0.184,2.344c-0.147,1.397-0.369,3.251-0.651,5.083
				c-0.262,1.837-0.58,3.664-0.729,5.038c-0.055,0.69-0.113,1.26-0.089,1.66c0.048,0.394,0.089,0.638,0.089,0.638
				s-0.126-0.197-0.292-0.596c-0.111-0.401-0.27-0.993-0.309-1.71c-0.109-1.431-0.005-3.325,0.271-5.188
				c0.275-1.859,0.731-3.687,1.125-5.038C99.454,201.581,99.824,200.707,99.824,200.707z"/>
			<path fill="#FFFFFF" d="M130.72,212.588c0,0,1.189-0.271,2.981-0.529c0.897-0.115,1.938-0.258,3.05-0.368
				c1.123-0.082,2.317-0.167,3.51-0.249c1.2-0.084,2.376-0.287,3.496-0.425c1.105-0.143,2.119-0.4,3.01-0.555
				c0.883-0.162,1.57-0.467,2.075-0.6c0.502-0.163,0.79-0.253,0.79-0.253l0.043,0.099c0,0-0.277,0.113-0.761,0.318
				c-0.494,0.182-1.178,0.551-2.049,0.799c-0.874,0.232-1.888,0.587-2.998,0.804c-1.115,0.211-2.298,0.498-3.495,0.657
				c-1.195,0.198-2.388,0.407-3.52,0.515c-1.127,0.107-2.189,0.105-3.096,0.104c-1.811-0.029-3.029-0.208-3.029-0.208
				L130.72,212.588z"/>
			<path fill="#FFFFFF" d="M130.273,218.911c0,0,0.396,0.633,0.893,1.567c0.234,0.479,0.543,1.006,0.815,1.591
				c0.278,0.589,0.549,1.233,0.901,1.824c0.345,0.605,0.771,1.144,1.221,1.599c0.452,0.458,0.941,0.789,1.405,1.03
				c0.231,0.102,0.464,0.159,0.664,0.233c0.199,0.09,0.386,0.063,0.54,0.09c0.305,0.031,0.483,0.048,0.483,0.048l0.009,0.108
				c0,0-0.181,0.01-0.502,0.025c-0.156-0.006-0.361,0.046-0.576-0.008c-0.223-0.044-0.483-0.074-0.751-0.147
				c-0.534-0.181-1.14-0.463-1.681-0.917c-0.545-0.437-1.076-0.979-1.515-1.574c-0.472-0.586-0.87-1.209-1.2-1.824
				c-0.292-0.628-0.476-1.25-0.61-1.783c-0.244-1.077-0.2-1.838-0.2-1.838L130.273,218.911z"/>
			<path fill="#FFFFFF" d="M130.722,216.37c0,0,0.396-0.02,0.871,0.067c0.23,0.061,0.503,0.114,0.766,0.231
				c0.247,0.15,0.512,0.312,0.774,0.472c0.548,0.302,1.118,0.501,1.564,0.646c0.441,0.092,0.77,0.126,0.77,0.126l0.015,0.105
				c0,0-0.315,0.079-0.818,0.143c-0.509,0.029-1.185-0.054-1.829-0.222c-0.321-0.077-0.663-0.138-0.948-0.261
				c-0.282-0.133-0.51-0.326-0.695-0.498c-0.367-0.356-0.52-0.719-0.52-0.719L130.722,216.37z"/>
		</g>
		<path fill="#000100" d="M139.556,164.825c0.006,0.034,0.011,0.046-0.021-0.118c-0.004-0.017-0.01-0.037-0.015-0.056
			c0.011,0.082,0.024,0.159,0.037,0.239l0.015,0.087c-0.018-0.119-0.036-0.244-0.027-0.201L139.556,164.825z"/>
		<path fill="#000100" d="M139.585,165.076c0.021,0.145,0.013,0.092,0-0.007V165.076z"/>
		<g>
			<path fill="#000100" d="M220.23,103.507c0,0,5.56-4.287,6.892-3.01c1.332,1.283-3.251,11.457-5.8,11.697
				C218.81,112.433,210.625,110.937,220.23,103.507z"/>
			<path fill="#000100" d="M236.894,111.728c0,0,0.577-4.391-0.413-3.93c-0.99,0.466-4.717,8.45-4.137,9.327
				C232.915,117.996,235.884,119.333,236.894,111.728z"/>
			<path fill="#000100" d="M178.445,114.55c-5.056-4.143-15.29-8.586-13.32-18.653c0.943-4.815-1.234-7.848-2.901-8.926
				c-3.165-2.043-1.05-6.377,5.964-9.257c4.858-2.942,30.892-4.249,25.453,21.335C192.337,104.192,185.559,120.381,178.445,114.55z"
				/>
			<path fill="#FFFFFF" d="M183.307,98.98c-1.545,1.263-3.688-1.127-6.57-4.58c-2.877-3.452-5.485-5.371-3.875-6.561
				c1.032-0.761,6.315-2.007,8.939,0.23C185.322,91.069,188.381,94.83,183.307,98.98z"/>
			<g>
				<path fill="#000100" d="M247.837,140.576c-0.315-0.347-0.695-0.668-1.04-0.996c-0.387-0.318-0.908-0.771-1.21-0.944
					l-0.591-0.396l-0.449-0.284c-0.312-0.18-0.577-0.403-0.866-0.606c-1.112-0.854-2.06-1.871-2.795-3.07
					c-0.718-1.207-1.21-2.595-1.46-4.086c-0.235-1.487-0.308-3.063-0.21-4.659c0.082-1.6,0.345-3.21,0.62-4.834
					c0.27-1.625,0.653-3.249,0.893-4.9c-1.303,3.051-2.746,6.065-3.553,9.419c-0.416,1.667-0.698,3.413-0.666,5.221
					c0.02,1.805,0.342,3.671,1.053,5.447c0.729,1.762,1.821,3.428,3.199,4.748c0.348,0.321,0.686,0.668,1.056,0.955l0.552,0.447
					c0.013,0.028,0.275,0.239,0.399,0.35c0.378,0.298,0.43,0.449,0.666,0.671c0.22,0.275,0.453,0.512,0.659,0.809
					c1.726,2.281,2.949,5.112,3.799,7.938c1.656,5.736,1.23,11.806-1.19,16.903c-0.634,1.266-1.313,2.513-2.162,3.67
					c-0.81,1.176-1.771,2.264-2.765,3.321l-1.592,1.518c-0.567,0.474-1.111,0.971-1.695,1.434l-1.795,1.342l-1.164,0.777
					c-0.978,0.09-2.424-0.04-3.907-0.439c-1.771-0.456-3.631-1.15-5.472-1.964c-3.713-1.594-7.387-3.64-11.008-5.791
					c-3.628-2.152-7.181-4.496-10.717-6.886c-3.514-2.414-7.007-4.893-10.406-7.466c-1.681-1.289-3.415-2.573-4.965-3.876
					l-0.92-0.802l-1.081-1.204c-0.769-0.838-1.55-1.647-2.34-2.446c-3.151-3.205-6.616-6.072-10.27-8.682
					c-3.641-2.619-7.643-4.789-11.85-6.387c-3.075-1.103-6.345-1.837-9.572-1.875c0.082-0.083,0.147-0.177,0.236-0.256
					c0.748-0.807,1.61-1.517,2.428-2.209c0.843-0.661,1.659-1.291,2.397-1.824c1.555-1.094,2.59-1.822,2.59-1.822
					s-1.354-0.341-3.321,0.048c-1.967,0.321-4.548,1.443-6.487,3.451c-0.493,0.483-0.935,1.019-1.313,1.591
					c-0.423,0.533-0.698,1.158-0.984,1.735c-0.312,0.565-0.445,1.19-0.616,1.747c-0.188,0.556-0.229,1.115-0.272,1.622
					c-0.141,0.998-0.012,1.845,0.084,2.421c0.097,0.577,0.186,0.896,0.186,0.896s0.193-0.294,0.474-0.788
					c0.136-0.249,0.307-0.543,0.464-0.881c0.154-0.337,0.434-0.682,0.635-1.074c0.225-0.387,0.454-0.802,0.755-1.2
					c0.293-0.403,0.52-0.857,0.873-1.256c0.329-0.41,0.618-0.856,0.998-1.25c0.072-0.086,0.156-0.163,0.229-0.248
					c3.249,0.686,6.288,1.986,9.093,3.615c3.679,2.057,6.956,4.743,10.087,7.548c3.121,2.829,5.947,5.984,8.663,9.183
					c0.669,0.808,1.327,1.624,1.957,2.446l0.983,1.313c0.609,0.723,0.952,1.04,1.393,1.489c1.658,1.624,3.275,3.104,4.967,4.55
					c6.723,5.753,13.76,11.058,21.321,15.819c3.788,2.37,7.722,4.564,11.966,6.452c0.82,0.351,1.667,0.672,2.52,0.99
					c-0.391,0.569-0.859,1.16-1.47,1.74c-1.354,1.35-3.428,2.476-5.928,3.439c-1.256,0.471-2.65,0.874-4.13,1.219
					c-0.757,0.143-1.446,0.341-2.279,0.495c-0.413,0.079-0.83,0.159-1.253,0.239l-0.637,0.122l-0.406,0.032
					c-1.273,0.07-2.942-0.188-4.626-0.587c-1.699-0.403-3.493-0.907-5.323-1.519c-3.668-1.204-7.526-2.716-11.493-4.354
					c-3.968-1.648-8.042-3.454-12.175-5.324c-4.119-1.893-8.306-3.83-12.444-5.86c-4.159-1.986-8.272-4.067-12.283-6.136
					c-1.996-1.05-3.966-2.103-5.87-3.159c-1.878-1.051-3.777-2.181-5.242-3.214c-0.128-0.087-0.254-0.186-0.365-0.274v-0.002
					c-0.233-1.256-0.551-2.402-0.925-3.513c-0.738-2.216-1.644-4.271-2.693-6.182c-1.058-1.906-2.228-3.679-3.507-5.281
					c-0.63-0.782-1.345-1.575-2.042-2.313c-0.326-0.32-0.651-0.635-0.971-0.946l-0.377-0.374c-0.104-0.082-0.189-0.184-0.268-0.294
					c-0.702-0.815-1.071-2.144-1.199-3.507c-0.155-1.371-0.09-2.791,0.07-4.126c0.352-2.679,0.929-5.071,1.479-7.016
					c1.129-3.895,2.001-6.103,2.001-6.103s-0.375,0.458-1.01,1.366c-0.62,0.915-1.555,2.257-2.558,4.084
					c-1.009,1.824-2.189,4.091-3.095,6.962c-0.456,1.438-0.857,3.026-1.007,4.849c-0.118,1.793-0.003,3.946,1.19,6.104
					c0.142,0.27,0.302,0.531,0.495,0.779l0.479,0.647c0.272,0.356,0.546,0.714,0.823,1.076c0.458,0.669,0.9,1.327,1.352,2.09
					c0.897,1.479,1.722,3.073,2.416,4.774c0.702,1.692,1.312,3.485,1.727,5.319c0.207,0.911,0.388,1.84,0.479,2.707
					c0.036,0.225,0.032,0.419,0.054,0.629l0.005,0.078l0.004,0.038l0.057,0.4l0.009,0.051l0.047,0.215
					c0.066,0.272,0.195,0.616,0.287,0.805c0.261,0.54,0.48,0.822,0.666,1.068c0.726,0.887,1.207,1.266,1.726,1.724
					c1.759,1.47,3.451,2.578,5.187,3.691c-0.874,1.1-2.1,2.688-3.596,4.754c-1.545,2.127-3.382,4.741-5.386,7.809
					c-1.969,3.087-4.262,6.544-6.463,10.479c-1.118,1.959-2.349,3.97-3.51,6.108c-1.162,2.137-2.301,4.381-3.508,6.67
					c-2.403,4.586-4.706,9.539-7.081,14.67c-1.096,2.605-2.207,5.255-3.334,7.937c-0.56,1.343-1.122,2.694-1.688,4.055
					c-0.541,1.367-1.018,2.769-1.532,4.161c-1.007,2.794-2.023,5.612-3.042,8.439c-1.039,2.823-1.813,5.747-2.731,8.622
					c-0.857,2.896-1.714,5.79-2.568,8.675c-0.707,2.925-1.412,5.838-2.112,8.729c-0.663,2.897-1.456,5.74-1.936,8.619
					c-0.504,2.871-1,5.707-1.489,8.497c-0.236,1.396-0.469,2.78-0.702,4.149c-0.239,1.37-0.479,2.725-0.58,4.088
					c-0.272,2.712-0.542,5.364-0.803,7.947c-0.254,2.579-0.5,5.087-0.739,7.513c-0.125,2.438-0.135,4.801-0.203,7.061
					c-0.111,4.521-0.214,8.656-0.138,12.321c0.189,3.67,0.445,6.86,0.636,9.482c0.394,5.242,0.717,8.214,0.717,8.214
					s0.408-2.996,0.953-8.197c0.266-2.6,0.61-5.75,0.905-9.354c0.516-3.584,1.096-7.627,1.729-12.037
					c0.322-2.199,0.593-4.494,0.984-6.853c0.441-2.352,0.897-4.784,1.364-7.284c0.463-2.494,0.936-5.058,1.421-7.679
					c0.478-2.618,1.176-5.257,1.77-7.958c0.605-2.696,1.221-5.438,1.844-8.216c0.277-1.394,0.672-2.771,1.058-4.157
					c0.371-1.392,0.741-2.789,1.115-4.191c0.738-2.806,1.482-5.634,2.23-8.473c0.856-2.81,1.716-5.631,2.575-8.451
					c0.876-2.816,1.604-5.679,2.598-8.445c0.938-2.785,1.873-5.561,2.8-8.314c1.773-5.535,3.951-10.831,5.766-16.071
					c1.014-2.582,2.009-5.119,2.985-7.603c0.961-2.492,1.876-4.944,2.897-7.273c1.993-4.683,3.794-9.159,5.624-13.218
					c1.769-4.091,3.5-7.789,4.981-11.107c1.564-3.269,2.868-6.167,4.02-8.511c1.114-2.278,1.991-4.072,2.604-5.325
					c0.082,0.051,0.161,0.103,0.243,0.155c1.963,1.248,3.969,2.428,6.01,3.569c4.064,2.311,8.272,4.453,12.513,6.532
					c4.263,2.034,8.555,3.997,12.86,5.766c4.294,1.791,8.588,3.409,12.816,4.822c4.228,1.415,8.394,2.614,12.472,3.484
					c2.044,0.415,4.058,0.786,6.089,0.962c2.037,0.157,4.041,0.247,6.242-0.202c3.763-1.087,6.722-2.395,9.352-3.976
					c2.592-1.547,4.622-3.396,5.81-5.262c0.574-0.848,0.941-1.666,1.197-2.417c1.054,0.365,2.133,0.705,3.268,0.987
					c2.438,0.553,5.13,1.084,8.463,0.29l0.709-0.169l0.521-0.367l2.201-1.556c0.722-0.541,1.423-1.121,2.132-1.683
					c1.391-1.174,2.726-2.436,3.969-3.798c1.218-1.399,2.382-2.851,3.386-4.44c1.033-1.563,1.896-3.254,2.614-5.001
					c1.391-3.51,2.188-7.298,2.093-11.036c-0.032-3.741-0.81-7.394-2.09-10.799C252.298,146.461,250.441,143.305,247.837,140.576z
					 M139.585,165.076l-0.009-0.063l-0.02-0.123c-0.013-0.08-0.026-0.157-0.037-0.239c0.005,0.019,0.011,0.039,0.015,0.056
					c0.032,0.164,0.027,0.152,0.021,0.118l-0.012-0.049C139.527,164.683,139.634,165.416,139.585,165.076z"/>
				<path fill="#000100" d="M196.704,143.039c0,0,0.193-0.461,0.479-1.272c0.099-0.432,0.417-0.843,0.649-1.325
					c0.21-0.479,0.633-0.975,1.001-1.527c0.351-0.559,0.938-1.048,1.384-1.64c0.594-0.502,1.115-1.093,1.791-1.595
					c0.325-0.257,0.656-0.52,0.991-0.785c0.363-0.233,0.725-0.471,1.079-0.727c0.718-0.492,1.502-0.934,2.273-1.371
					c1.57-0.852,3.211-1.565,4.795-2.144c0.804-0.235,1.578-0.519,2.329-0.706c0.755-0.141,1.477-0.382,2.148-0.447
					c0.68-0.102,1.31-0.218,1.873-0.225c0.562-0.021,1.08-0.108,1.486-0.058c0.83,0.031,1.349,0.028,1.349,0.028
					s-0.407-0.26-1.194-0.678c-0.387-0.234-0.896-0.391-1.489-0.569c-0.594-0.217-1.279-0.345-2.044-0.428
					c-0.768-0.146-1.591-0.12-2.477-0.106c-0.879,0.036-1.808,0.144-2.749,0.331c-0.922,0.239-1.915,0.411-2.844,0.807
					c-0.964,0.312-1.873,0.787-2.791,1.245c-0.883,0.52-1.775,1.04-2.565,1.678c-0.813,0.608-1.542,1.299-2.201,2.015
					c-0.715,0.649-1.197,1.507-1.732,2.202c-0.43,0.801-0.882,1.506-1.108,2.271c-0.259,0.742-0.488,1.403-0.535,2.076
					c-0.078,0.643-0.163,1.184-0.078,1.603C196.618,142.547,196.704,143.039,196.704,143.039z"/>
				<path fill="#000100" d="M142.677,74.032c1.036-1.798,2.457-3.505,4.051-5.02c3.217-3.01,6.98-5.523,11.045-7.059l0.029-0.012
					l0.397-0.205c0.932-0.478,2.549-0.913,4.084-1.224c1.567-0.318,3.208-0.529,4.859-0.676c3.312-0.277,6.677-0.292,10.003-0.032
					c1.667,0.104,3.316,0.331,4.957,0.58c1.63,0.294,3.261,0.589,4.838,1.033c1.595,0.408,3.126,0.953,4.648,1.511
					c1.489,0.617,2.966,1.277,4.32,2.107c1.398,0.781,2.635,1.757,3.842,2.763c1.148,1.06,2.293,2.149,3.198,3.436
					c0.975,1.236,1.716,2.643,2.401,4.086l0.869,2.166c0.151,0.54,0.177,0.564,0.229,0.943c0.053,0.316,0.065,0.658,0.063,1.012
					c-0.013,1.428-0.452,3.053-0.941,4.699l-1.535,5.104c-0.978,3.471-1.538,7.215-0.925,10.748c0.19-1.776,0.59-3.484,1.128-5.131
					c0.531-1.653,1.264-3.22,2.001-4.791l2.382-4.748c0.774-1.644,1.535-3.384,1.886-5.484c0.079-0.525,0.135-1.069,0.128-1.636
					c0.026-0.503-0.095-1.354-0.15-1.674c-0.253-1.095-0.453-1.919-0.755-2.877c-0.652-1.822-1.413-3.642-2.47-5.301
					c-0.987-1.708-2.26-3.225-3.596-4.673c-1.423-1.349-2.912-2.645-4.546-3.695c-1.604-1.107-3.314-2.001-5.046-2.831
					c-1.745-0.782-3.528-1.484-5.349-1.996c-3.626-1.108-7.34-1.732-11.055-2.032c-3.718-0.314-7.446-0.243-11.173,0.13
					c-1.864,0.218-3.728,0.512-5.61,0.947c-1.903,0.468-3.735,0.982-5.895,2.236l0.426-0.215c-4.801,2.153-9.119,5.189-12.551,9.103
					c-1.725,1.946-3.257,4.092-4.418,6.563c-0.577,1.242-1.047,2.587-1.227,4.118c-0.171,1.481-0.033,3.444,1.275,4.998
					c0.338,0.369,0.634,0.681,1.109,0.978c0.203,0.13,0.496,0.313,0.636,0.37l0.417,0.173l0.507,0.203l0.365,0.138
					c0.253,0.082,0.473,0.21,0.712,0.312c0.929,0.446,1.773,1.022,2.532,1.716c1.525,1.388,2.585,3.372,3.342,5.55
					c0.763,2.181,1.33,4.524,2.021,6.859c0.694,2.313,1.631,4.711,3.309,6.476c-1.292-2.059-1.742-4.405-2.078-6.749
					c-0.348-2.351-0.499-4.765-1.036-7.21c-0.522-2.426-1.431-4.984-3.224-7.107c-0.877-1.061-1.966-1.956-3.138-2.667
					c-0.297-0.169-0.587-0.363-0.894-0.503l-0.457-0.227l-0.23-0.111l-0.056-0.028l-0.029-0.015l-0.015-0.007
					c0.053,0.023-0.136-0.061,0.113,0.05l-0.099-0.055l-0.394-0.22c-0.128-0.075-0.064-0.092-0.111-0.123
					c-0.033-0.024-0.142-0.179-0.19-0.257c-0.213-0.361-0.266-1.011-0.063-1.863C141.765,75.85,142.171,74.928,142.677,74.032z"/>
				<path fill="#000100" d="M124.985,53.563c4.366-3.363,9.19-6.877,14.419-10.317c5.224-3.383,10.995-6.774,17.026-9.073
					c0.689-0.271,1.522-0.535,2.368-0.799c0.801-0.222,1.606-0.444,2.415-0.67c1.656-0.464,3.344-0.857,5.038-1.248
					c3.392-0.772,6.855-1.366,10.346-1.854c6.987-0.941,14.166-1.134,21.188-0.265c7.02,0.789,13.908,2.615,20.161,5.573
					c6.242,2.944,11.949,6.813,16.667,11.457c4.724,4.623,8.594,9.837,11.475,15.224c2.863,5.395,4.821,10.912,5.849,16.157
					c1,5.235,1.111,10.241,0.341,14.444c-0.079,0.517-0.229,1.084-0.341,1.609c-0.142,0.476-0.282,0.944-0.42,1.403
					c-0.352,0.904-0.719,1.767-1.217,2.523c-0.948,1.54-2.234,2.747-3.376,3.933c-2.382,2.331-3.563,4.789-4.106,6.436
					c-0.309,0.829-0.446,1.477-0.558,1.913c-0.108,0.436-0.164,0.66-0.164,0.66s0.085-0.215,0.252-0.631
					c0.168-0.415,0.397-1.048,0.808-1.805c0.36-0.771,0.928-1.679,1.676-2.646c0.774-0.957,1.765-1.938,3.002-2.953
					c1.22-1.019,2.729-2.119,4.044-3.781c0.676-0.809,1.23-1.768,1.726-2.791c0.233-0.53,0.423-1.027,0.656-1.627
					c0.164-0.531,0.348-1.023,0.502-1.609c1.306-4.584,1.676-9.935,0.98-15.667c-0.676-5.724-2.342-11.823-5.176-17.809
					c-2.805-5.984-6.683-11.935-11.76-17.147c-5.039-5.222-11.146-9.863-18.078-13.148c-6.896-3.354-14.489-5.449-22.161-6.391
					c-7.69-0.867-15.43-0.564-22.865,0.517c-3.72,0.531-7.374,1.27-10.915,2.211c-1.77,0.47-3.527,0.941-5.248,1.481
					c-0.881,0.277-1.76,0.553-2.634,0.826c-0.817,0.284-1.636,0.569-2.554,0.953c-6.895,2.826-12.526,6.705-17.788,10.485
					c-5.237,3.796-9.868,7.738-14.034,11.478c-8.336,7.478-14.677,14.304-18.957,19.2c-4.277,4.902-6.476,7.898-6.476,7.898
					s2.639-2.616,7.425-6.969C109.311,66.397,116.275,60.323,124.985,53.563z"/>
				<path fill="#000100" d="M75.637,108.889c0.014-0.118,0.026-0.215,0.04-0.313c0.22-0.347,0.437-0.695,0.659-1.03
					c1.456-2.288,2.819-4.43,4.081-6.411c1.314-1.945,2.525-3.731,3.618-5.346c2.24-3.187,3.993-5.719,5.281-7.367
					c1.259-1.676,1.98-2.534,1.98-2.534s-0.834,0.746-2.322,2.232c-0.761,0.729-1.666,1.658-2.709,2.771
					c-1.042,1.111-2.29,2.359-3.545,3.867c-1.285,1.487-2.709,3.136-4.259,4.931c-1.5,1.833-3.058,3.865-4.76,6.016
					c-1.734,2.131-3.405,4.516-5.223,6.997c-1.784,2.503-3.729,5.098-5.537,7.943c-1.852,2.822-3.782,5.763-5.778,8.806
					c-1.962,3.067-3.782,6.355-5.769,9.677c-4.053,6.604-7.722,13.886-11.654,21.357c-1.929,3.755-3.674,7.672-5.561,11.585
					c-1.822,3.939-3.845,7.856-5.455,11.981c-1.689,4.095-3.392,8.222-5.099,12.363c-0.854,2.073-1.711,4.147-2.567,6.226
					l-2.322,6.331c-1.499,4.238-3.002,8.478-4.494,12.701c-0.729,2.117-1.537,4.204-2.191,6.333
					c-0.659,2.127-1.315,4.249-1.968,6.362c-1.325,4.22-2.582,8.425-3.809,12.583c-0.616,2.076-1.23,4.142-1.84,6.191
					c-0.53,2.071-1.057,4.128-1.58,6.167c-0.661,2.563-1.297,5.093-1.922,7.604l-0.156,0.082c0,0,0.04,0.063,0.099,0.152
					c-1.342,5.392-2.607,10.658-3.821,15.725c-1.554,7.572-2.908,14.748-4.156,21.361c-0.62,3.305-1.215,6.472-1.781,9.484
					c-0.427,3.028-0.831,5.9-1.21,8.6c-0.77,5.395-1.351,10.115-1.851,13.999c-0.517,3.88-0.828,6.945-1.081,9.028
					c-0.242,2.087-0.37,3.198-0.37,3.198s0.282-1.082,0.814-3.112c0.521-2.034,1.342-5.005,2.269-8.808
					c0.945-3.799,2.117-8.409,3.361-13.715c0.636-2.649,1.316-5.469,2.033-8.44c0.799-2.94,1.639-6.033,2.516-9.259
					c1.747-6.449,3.637-13.425,5.515-20.821c0.147-0.501,0.305-1.016,0.454-1.518c0.081,0.12,0.151,0.254,0.234,0.367
					c0.456,0.64,1.014,1.13,1.52,1.479c0.261,0.162,0.527,0.27,0.742,0.381c0.21,0.124,0.438,0.134,0.603,0.186
					c0.331,0.075,0.521,0.119,0.521,0.119s-0.171-0.092-0.469-0.254c-0.142-0.092-0.338-0.147-0.502-0.321
					c-0.168-0.158-0.373-0.309-0.558-0.511c-0.354-0.43-0.697-0.959-0.932-1.599c-0.235-0.637-0.41-1.337-0.484-2.065
					c-0.002-0.011-0.002-0.021-0.002-0.032c0.653-2.18,1.315-4.385,1.988-6.625c0.886,0.912,1.82,1.836,2.87,2.66
					c0.613,0.511,1.257,0.986,1.936,1.399c0.637,0.459,1.354,0.789,2.022,1.127c0.654,0.364,1.393,0.517,2.025,0.759
					c0.663,0.183,1.323,0.231,1.902,0.338c0.594,0.036,1.146-0.032,1.621-0.042c0.481,0.021,0.877-0.178,1.208-0.241
					c0.655-0.181,1.028-0.282,1.028-0.282s-0.384,0.051-1.054,0.14c-0.335,0.02-0.729,0.16-1.196,0.073
					c-0.462-0.056-0.984-0.059-1.531-0.167c-0.542-0.181-1.137-0.304-1.725-0.555c-0.565-0.316-1.205-0.529-1.771-0.956
					c-0.575-0.4-1.182-0.779-1.72-1.292c-0.569-0.463-1.103-0.984-1.611-1.537c-1.039-1.072-1.941-2.28-2.765-3.416
					c-0.157-0.233-0.292-0.451-0.443-0.68c0.588-1.968,1.175-3.959,1.759-5.97c0.201,0.318,0.411,0.636,0.641,0.944
					c0.479,0.675,1.059,1.294,1.657,1.798c0.597,0.51,1.255,0.854,1.828,1.072c0.292,0.096,0.578,0.135,0.813,0.19
					c0.233,0.072,0.456,0.026,0.627,0.036c0.343-0.005,0.538-0.008,0.538-0.008s-0.188-0.05-0.519-0.135
					c-0.157-0.054-0.36-0.063-0.561-0.191c-0.204-0.113-0.438-0.21-0.666-0.363c-0.446-0.331-0.907-0.764-1.286-1.33
					c-0.382-0.559-0.718-1.198-0.966-1.888c-0.523-1.356-0.786-2.817-0.917-3.905c-0.012-0.09-0.017-0.16-0.026-0.244
					c0.584-1.999,1.171-4.017,1.764-6.047c0.669-2.008,1.343-4.028,2.021-6.063c1.365-4.064,2.733-8.181,4.052-12.349
					c0.669-2.079,1.342-4.169,2.014-6.266c0.67-2.096,1.491-4.145,2.23-6.228c1.522-4.15,3.048-8.318,4.573-12.486l2.232-6.269
					c0.821-2.057,1.644-4.111,2.463-6.163c0.979-2.451,1.949-4.878,2.922-7.313c0.321,0.424,0.646,0.849,1,1.289
					c0.975,1.141,2.032,2.336,3.237,3.394c0.588,0.543,1.204,1.054,1.857,1.504c0.611,0.494,1.309,0.861,1.958,1.235
					c0.633,0.398,1.363,0.591,1.981,0.869c0.652,0.217,1.309,0.304,1.883,0.439c0.59,0.069,1.145,0.03,1.62,0.046
					c0.479,0.048,0.884-0.128,1.219-0.175c0.663-0.143,1.042-0.225,1.042-0.225s-0.386,0.029-1.06,0.082
					c-0.335,0.001-0.735,0.119-1.197,0.008c-0.46-0.08-0.979-0.111-1.522-0.249c-0.528-0.21-1.118-0.366-1.691-0.649
					c-0.548-0.347-1.176-0.594-1.717-1.05c-0.553-0.432-1.139-0.844-1.646-1.386c-0.543-0.492-1.048-1.042-1.524-1.622
					c-0.979-1.127-1.815-2.382-2.574-3.562c-0.639-1.064-1.192-2.063-1.655-2.981c0.253-0.63,0.509-1.271,0.761-1.901
					c0.455-1.188,0.945-2.359,1.447-3.521c0.184,0.286,0.362,0.573,0.563,0.851c0.562,0.808,1.242,1.547,1.945,2.152
					c0.332,0.319,0.748,0.536,1.084,0.782c0.364,0.217,0.75,0.355,1.076,0.51c0.347,0.118,0.685,0.167,0.966,0.236
					c0.279,0.089,0.545,0.038,0.748,0.051c0.41,0,0.645-0.002,0.645-0.002s-0.228-0.051-0.625-0.141
					c-0.193-0.06-0.44-0.061-0.686-0.207c-0.249-0.128-0.537-0.236-0.819-0.41c-0.265-0.213-0.567-0.403-0.84-0.662
					c-0.25-0.295-0.555-0.54-0.781-0.894c-0.487-0.663-0.925-1.426-1.253-2.249c-0.374-0.871-0.651-1.776-0.864-2.634
					c0.768-1.771,1.53-3.533,2.291-5.288c0.275,0.602,0.596,1.185,0.963,1.688c0.458,0.64,1.014,1.13,1.519,1.479
					c0.261,0.162,0.528,0.27,0.743,0.381c0.21,0.124,0.439,0.134,0.603,0.186c0.333,0.075,0.522,0.119,0.522,0.119
					s-0.17-0.092-0.469-0.254c-0.143-0.092-0.338-0.147-0.502-0.321c-0.169-0.158-0.374-0.309-0.558-0.511
					c-0.354-0.43-0.698-0.959-0.932-1.599c-0.236-0.637-0.41-1.337-0.485-2.065c-0.092-0.718-0.113-1.444-0.095-2.13
					c1.32-3.064,2.61-6.118,4.002-9.063c1.789-3.751,3.604-7.414,5.281-11.052c1.642-3.657,3.45-7.126,5.212-10.508
					c1.762-3.379,3.421-6.704,5.127-9.859c1.735-3.143,3.412-6.18,5.021-9.095c0.009-0.013,0.015-0.026,0.021-0.039
					c0.157,0.538,0.335,1.084,0.561,1.622c0.304,0.77,0.717,1.511,1.178,2.142c0.458,0.64,1.014,1.13,1.519,1.479
					c0.263,0.164,0.528,0.27,0.745,0.381c0.21,0.125,0.437,0.135,0.601,0.186c0.333,0.075,0.522,0.119,0.522,0.119
					s-0.17-0.092-0.471-0.254c-0.141-0.092-0.336-0.147-0.5-0.321c-0.169-0.157-0.372-0.309-0.56-0.511
					c-0.353-0.43-0.695-0.959-0.93-1.599c-0.234-0.637-0.408-1.337-0.483-2.065c-0.184-1.441-0.089-2.922,0.044-4.01
					c0.063-0.545,0.142-0.994,0.198-1.301c0.015-0.068,0.023-0.104,0.033-0.16c0.806-1.334,1.604-2.631,2.349-3.92
					c0.312-0.527,0.615-1.047,0.918-1.563c0.098,0.743,0.214,1.521,0.354,2.334c0.297,1.468,0.644,3.026,1.185,4.536
					c0.249,0.76,0.541,1.505,0.896,2.215c0.295,0.728,0.729,1.389,1.113,2.03c0.362,0.656,0.907,1.178,1.314,1.721
					c0.462,0.505,0.997,0.898,1.43,1.297c0.485,0.347,0.987,0.581,1.396,0.825c0.396,0.274,0.835,0.316,1.153,0.438
					c0.647,0.196,1.019,0.308,1.019,0.308s-0.353-0.16-0.966-0.442c-0.296-0.161-0.702-0.251-1.053-0.572
					c-0.361-0.292-0.801-0.573-1.209-0.957c-0.361-0.439-0.801-0.86-1.165-1.387c-0.312-0.569-0.739-1.09-0.992-1.75
					c-0.275-0.646-0.587-1.29-0.77-2.011c-0.235-0.694-0.411-1.419-0.546-2.157c-0.31-1.461-0.433-2.964-0.524-4.363
					c-0.05-1.408-0.053-2.721,0.008-3.846C75.475,110.465,75.566,109.533,75.637,108.889z"/>
			</g>
		</g>
		<g>
			<g id="XMLID_7_">
				<g>
					<path fill="#000100" d="M126.808,201.549l-1.461-0.307c0.244-0.082,0.504-0.165,0.748-0.247
						C126.336,201.168,126.58,201.358,126.808,201.549z"/>
					<path fill="#000100" d="M117.951,226.301l1.307,0.833l-0.769-0.055C118.306,226.832,118.12,226.568,117.951,226.301z"/>
					<path fill="#000100" d="M103.397,198.618l0.019,0.014C103.399,198.634,103.397,198.618,103.397,198.618z"/>
					<path fill="#000100" d="M101.552,196.345c0.129,0.085,0.261,0.187,0.392,0.289l-0.894-0.243L101.552,196.345z"/>
					<path fill="#000100" d="M100.854,223.096c-0.239,0.25-0.498,0.486-0.76,0.688l-0.883-0.159L100.854,223.096z"/>
					<path fill="#C1282E" d="M64.212,172.676c0.556-0.291,1.234-0.41,1.829-0.265c0.271,0,0.671,0.22,1.009,0.347
						c0.252,0.12,0.638,0.359,0.946,0.523c1.282,0.769,2.623,1.463,3.87,2.355c2.548,1.675,4.994,3.482,7.442,5.306
						c2.432,1.826,4.821,3.724,7.211,5.623c4.736,3.854,9.383,7.803,14.018,11.788l0.321,0.264l0.587-0.04l0.587-0.041l0.286-0.019
						l0.394,0.035l0.686,0.066c0,0,0.002,0.017,0.019,0.014l0.017-0.002l0.017-0.002l0.019,0.015
						c0.036,0.012,0.069,0.008,0.052,0.01l0.069,0.008l0.191,0.043l0.384,0.087l3.096,0.658l6.193,1.316l6.22,1.262l1.544,0.296
						c0.488,0.107,1.125,0.196,1.444,0.308c0.4,0.085,0.777,0.257,1.14,0.449c0.363,0.191,0.684,0.455,1.003,0.703l0.682,0.574
						l0.781-0.251l16.418-5.241l4.123-1.266c1.368-0.427,2.734-0.871,4.106-1.264l4.132-1.199l4.098-1.06
						c1.368-0.292,2.905-0.587,4.182-0.8c0.617-0.078,1.176,0.055,1.682,0.313c0.492,0.276,0.859,0.771,1.184,1.323
						c0.57,1.164,0.797,2.557,0.872,3.953c0.077,1.412,0.019,2.825-0.14,4.25c-0.338,2.819-0.982,5.626-1.874,8.346
						c-0.471,1.363-0.996,2.699-1.63,3.981c-0.326,0.634-0.671,1.253-1.089,1.831c-0.42,0.561-0.809,1.101-1.498,1.272
						c-0.4,0.051-0.735,0.347-0.895,0.689c-0.144,0.34-0.201,0.686-0.26,1.031c-0.065,0.686-0.048,1.36-0.03,2.036
						c0.068,1.346,0.188,2.685,0.287,4.01c0.183,2.651,0.272,5.366-0.287,7.908c-0.279,1.271-0.784,2.503-1.595,3.452
						c-0.773,0.978-1.897,1.594-3.098,1.881c-0.605,0.161-1.21,0.204-1.813,0.246l-1.017-0.007l-0.24-0.021l-0.221-0.006
						l-0.498-0.056c-1.3-0.106-2.61-0.296-3.908-0.521c-5.183-0.953-10.195-2.707-14.848-5.098c-1.157-0.582-2.287-1.218-3.39-1.908
						c-1.086-0.692-2.16-1.42-3.174-2.206c-1.011-0.77-1.962-1.597-2.82-2.488c-0.874-0.888-1.573-1.866-2.189-2.855l-0.449-0.739
						l-0.839-0.08l-1.269-0.127l-1.059-0.205L114.741,223l-4.949-0.983l-9.91-1.93l-0.936-0.169l-0.705,0.715
						c-1.772,1.782-4.443,3.017-7.182,3.854c-2.755,0.839-5.67,1.343-8.614,1.631c-2.947,0.254-5.924,0.275-8.893,0.091
						c-2.948-0.152-5.919-0.623-8.776-1.26c-0.717-0.181-1.411-0.313-2.132-0.526l-2.199-0.653
						c-1.257-0.434-2.533-1.017-3.429-1.818c-0.933-0.813-1.55-1.818-1.758-3.062c-0.223-1.225-0.091-2.595,0.209-3.971
						c0.648-2.773,1.946-5.494,3.242-8.231c0.636-1.401,1.344-2.76,1.85-4.381c0.116-0.421,0.232-0.842,0.265-1.388l0.016-0.408
						c-0.002-0.152-0.04-0.317-0.078-0.481c0.037-0.242-0.487-1.039-0.646-1.086l-0.112-0.087l-0.056-0.043l-0.021-0.031
						l-0.202-0.127c-0.004-0.033-0.004-0.033-0.021-0.031c-0.031,0.021-0.103-0.139-0.161-0.2c-0.127-0.204-0.263-0.475-0.355-0.801
						c-0.772-2.628-0.764-5.778-0.614-8.742c0.181-2.986,0.596-6,1.365-8.891c0.394-1.438,0.892-2.855,1.557-4.158
						C62.163,174.543,63.036,173.282,64.212,172.676z"/>
					<polygon fill="#000100" points="58.639,200.5 58.657,200.515 58.641,200.517 					"/>
					<path fill="#000100" d="M58.582,200.457c0,0,0.017-0.002,0.019,0.015l-0.017,0.002
						C58.584,200.474,58.584,200.474,58.582,200.457z"/>
					<path fill="#000100" d="M58.582,200.457c0.002,0.017,0.002,0.017,0.002,0.017l-0.019-0.015L58.582,200.457z"/>
					<path fill="#000100" d="M60.763,200.029c0.038,0.165,0.075,0.329,0.078,0.481l-0.016,0.408
						c-0.033,0.546-0.148,0.967-0.265,1.388c-0.506,1.622-1.214,2.98-1.85,4.381c-1.296,2.737-2.594,5.458-3.242,8.231
						c-0.3,1.375-0.432,2.746-0.209,3.971c0.208,1.244,0.826,2.249,1.758,3.062c0.896,0.801,2.172,1.384,3.429,1.818l2.199,0.653
						c0.721,0.213,1.415,0.346,2.132,0.526c2.857,0.637,5.828,1.108,8.776,1.26c2.969,0.184,5.946,0.163,8.893-0.091
						c2.943-0.288,5.859-0.792,8.614-1.631c2.738-0.837,5.409-2.072,7.182-3.854l0.705-0.715l0.936,0.169l9.91,1.93l4.949,0.983
						l2.481,0.482l1.059,0.205l1.269,0.127l0.839,0.08l0.449,0.739c0.616,0.989,1.315,1.967,2.189,2.855
						c0.857,0.891,1.809,1.718,2.82,2.488c1.014,0.786,2.087,1.514,3.174,2.206c1.103,0.69,2.233,1.326,3.39,1.908
						c4.653,2.391,9.665,4.145,14.848,5.098c1.298,0.225,2.608,0.415,3.908,0.521l0.498,0.056l0.221,0.006l0.24,0.021l1.017,0.007
						c0.604-0.042,1.208-0.085,1.813-0.246c1.2-0.287,2.324-0.903,3.098-1.881c0.811-0.949,1.315-2.181,1.595-3.452
						c0.56-2.542,0.47-5.256,0.287-7.908c-0.1-1.325-0.219-2.664-0.287-4.01c-0.018-0.675-0.035-1.35,0.03-2.036
						c0.059-0.346,0.116-0.691,0.26-1.031c0.159-0.342,0.494-0.638,0.895-0.689c0.689-0.171,1.078-0.712,1.498-1.272
						c0.418-0.578,0.763-1.197,1.089-1.831c0.634-1.282,1.159-2.618,1.63-3.981c0.892-2.72,1.536-5.526,1.874-8.346
						c0.158-1.425,0.217-2.837,0.14-4.25c-0.075-1.396-0.302-2.789-0.872-3.953c-0.324-0.552-0.691-1.047-1.184-1.323
						c-0.506-0.258-1.064-0.391-1.682-0.313c-1.276,0.212-2.813,0.508-4.182,0.8l-4.098,1.06l-4.132,1.199
						c-1.372,0.394-2.738,0.837-4.106,1.264l-4.123,1.266l-16.418,5.241l-0.781,0.251l-0.682-0.574
						c-0.319-0.248-0.64-0.512-1.003-0.703c-0.363-0.191-0.74-0.364-1.14-0.449c-0.319-0.112-0.957-0.201-1.444-0.308l-1.544-0.296
						l-6.22-1.262l-6.193-1.316l-3.096-0.658l-0.384-0.087l-0.191-0.043l-0.069-0.008c0.017-0.002-0.017,0.002-0.052-0.01
						l-0.019-0.015l-0.017,0.002l-0.017,0.002l-0.019-0.014l-0.686-0.066l-0.394-0.035l-0.286,0.019l-0.587,0.041l-0.587,0.04
						l-0.321-0.264c-4.635-3.985-9.281-7.934-14.018-11.788c-2.39-1.899-4.78-3.797-7.211-5.623
						c-2.448-1.823-4.895-3.63-7.442-5.306c-1.247-0.892-2.587-1.586-3.87-2.355c-0.309-0.164-0.694-0.403-0.946-0.523
						c-0.338-0.127-0.738-0.347-1.009-0.347c-0.594-0.145-1.273-0.025-1.829,0.265c-1.176,0.605-2.049,1.867-2.716,3.153
						c-0.665,1.303-1.163,2.72-1.557,4.158c-0.769,2.891-1.184,5.905-1.365,8.891c-0.15,2.964-0.158,6.114,0.614,8.742
						c0.092,0.327,0.228,0.597,0.355,0.801c0.058,0.061,0.129,0.221,0.161,0.2c0.017-0.002,0.017-0.002,0.021,0.031l0.202,0.127
						l0.021,0.031l0.056,0.043l0.112,0.087C60.276,198.99,60.8,199.787,60.763,200.029z M60.424,175.254
						c0.759-1.366,1.677-2.802,3.27-3.596c0.797-0.389,1.707-0.554,2.616-0.331c0.5,0.072,0.777,0.257,1.15,0.396
						c0.434,0.216,0.694,0.403,1.042,0.613c1.32,0.798,2.683,1.54,3.933,2.449l3.797,2.584l3.727,2.694
						c2.462,1.805,4.942,3.607,7.375,5.45c4.796,3.524,9.52,7.143,14.218,10.832l-0.502,0.046l0.894,0.243
						c-0.131-0.102-0.263-0.204-0.392-0.289l0.483-0.061l0.485-0.044l0.394,0.035l0.802,0.051l0.881,0.143l3.129,0.518l6.243,1.04
						l6.251,1.105l1.559,0.277c0.54,0.118,0.95,0.151,1.633,0.335c0.644,0.139,1.238,0.419,1.818,0.718
						c0.308,0.164,0.583,0.333,0.863,0.534c-0.244,0.082-0.504,0.165-0.748,0.247l1.461,0.307c-0.228-0.191-0.471-0.381-0.713-0.553
						c2.488-0.806,4.996-1.597,7.509-2.337c2.755-0.839,5.533-1.63,8.332-2.391c2.784-0.741,5.585-1.485,8.4-2.112l4.246-0.96
						l4.313-0.833c1.464-0.202,2.776-0.402,4.349-0.55c0.823-0.053,1.715,0.173,2.468,0.636c0.738,0.482,1.22,1.217,1.564,1.935
						c0.625,1.461,0.75,2.986,0.75,4.459c-0.017,1.475-0.171,2.934-0.412,4.369c-0.434,2.865-1.196,5.67-2.172,8.4
						c-0.487,1.365-1.029,2.703-1.696,3.99c-0.324,0.65-0.702,1.273-1.116,1.884c-0.234,0.284-0.451,0.582-0.742,0.822
						c-0.254,0.269-0.666,0.49-0.995,0.566l-0.033,0.004c-0.548,0.086-0.764,0.791-0.818,1.424c-0.054,0.65-0.038,1.309-0.004,1.981
						c0.083,1.327,0.235,2.662,0.352,3.984c0.22,2.681,0.444,5.395-0.043,8.098c-0.269,1.354-0.707,2.713-1.56,3.871
						c-0.831,1.188-2.132,2.013-3.5,2.44c-0.683,0.222-1.416,0.314-2.133,0.405l-1.01,0.043l-0.253,0.015l-0.289-0.014l-0.511-0.02
						c-1.358-0.031-2.71-0.148-4.064-0.282c-5.415-0.653-10.744-2.095-15.78-4.303c-1.255-0.552-2.485-1.176-3.702-1.834
						c-1.188-0.696-2.396-1.407-3.532-2.229c-1.136-0.821-2.246-1.697-3.272-2.718c-0.826-0.776-1.567-1.681-2.25-2.661l0.769,0.055
						l-1.307-0.833c0.169,0.267,0.355,0.531,0.539,0.778l-0.496-0.039l-0.068-0.008l-0.258-0.035l-0.157-0.031l-0.293-0.047
						l-0.625-0.124l-2.495-0.447l-4.955-0.897l-9.048-1.667c0.262-0.202,0.521-0.438,0.76-0.688l-1.643,0.529l0.883,0.159
						c-2.407,2.116-5.226,3.251-7.977,4.124c-3.098,0.933-6.235,1.431-9.386,1.677c-3.137,0.228-6.291,0.186-9.418-0.045
						c-3.127-0.231-6.209-0.772-9.297-1.5c-0.771-0.207-1.573-0.394-2.313-0.622l-2.186-0.688c-1.613-0.575-3.179-1.308-4.537-2.542
						s-2.329-3.024-2.573-4.821c-0.261-1.795-0.005-3.521,0.387-5.11c0.852-3.172,2.311-5.963,3.71-8.68
						c0.694-1.34,1.436-2.704,1.903-3.965c0.112-0.319,0.191-0.633,0.213-0.856l0.029-0.173c-0.019-0.015-0.023-0.048-0.008-0.067
						l0.017-0.002l-0.019-0.015c-0.019-0.015-0.021-0.031-0.038-0.029c-0.002-0.017-0.019-0.015-0.019-0.015
						c-0.019-0.015-0.021-0.031-0.038-0.029c-0.094-0.073-0.169-0.131-0.263-0.204c-0.302-0.25-0.363-0.462-0.544-0.693
						c-0.245-0.46-0.418-0.896-0.521-1.306c-0.465-1.668-0.511-3.236-0.54-4.807c-0.013-1.573,0.079-3.125,0.223-4.667
						c0.32-3.088,0.848-6.151,1.774-9.129C59.147,178.141,59.688,176.667,60.424,175.254z M58.755,200.621l-0.077-0.075
						c0.002,0.017,0.004,0.033,0.023,0.048c0.021,0.031,0.077,0.075,0.094,0.073c0.019,0.015,0.033-0.004,0,0
						C58.774,200.636,58.774,200.636,58.755,200.621z"/>
				</g>
			</g>
			<path fill="#FFFFFF" d="M95.868,205.73c0-0.002-1.301-0.087-3.182-0.529c-0.929-0.23-2.024-0.521-3.155-0.938
				c-1.124-0.443-2.3-0.975-3.448-1.554c-2.311-1.135-4.526-2.494-5.965-3.805c-0.388-0.295-0.669-0.652-0.948-0.922
				c-0.283-0.271-0.497-0.539-0.654-0.779c-0.338-0.444-0.526-0.705-0.526-0.705l0.085-0.061c0,0,0.21,0.239,0.579,0.657
				c0.174,0.214,0.4,0.455,0.702,0.697c0.3,0.246,0.597,0.566,0.995,0.823c1.516,1.137,3.748,2.348,6.087,3.312
				c1.166,0.49,2.367,0.895,3.48,1.294c1.104,0.427,2.139,0.83,3.026,1.172c1.77,0.708,2.948,1.229,2.952,1.229L95.868,205.73z"/>
			<path fill="#FFFFFF" d="M93.609,208.035c0,0-0.394,0.19-0.974,0.272c-0.289,0.024-0.623,0.088-0.978-0.005
				c-0.356-0.094-0.727-0.243-1.094-0.371c-1.498-0.473-2.918-1.026-2.918-1.025l0.031-0.102c0,0.002,1.54,0.096,3.008,0.279
				c0.37,0.031,0.739,0.051,1.079,0.111c0.343,0.097,0.668,0.188,0.939,0.269c0.555,0.2,0.912,0.465,0.912,0.465L93.609,208.035z"/>
			<path fill="#FFFFFF" d="M94.907,210.336c0,0-0.867,0.651-2.305,1.366c-0.727,0.338-1.576,0.731-2.532,1.033
				c-0.963,0.284-2.003,0.535-3.056,0.724c-1.046,0.222-2.109,0.359-3.109,0.449c-1.002,0.087-1.943,0.072-2.744,0.005
				c-0.797-0.1-1.463-0.186-1.904-0.343c-0.449-0.131-0.702-0.208-0.702-0.208l0.033-0.099c0,0,0.258,0.043,0.712,0.13
				c0.437,0.108,1.101,0.128,1.878,0.146c1.564-0.015,3.631-0.343,5.641-0.91c1.004-0.277,1.982-0.64,2.912-0.949
				c0.931-0.299,1.812-0.538,2.564-0.77c1.519-0.432,2.566-0.673,2.566-0.673L94.907,210.336z"/>
			<path fill="#000100" d="M124.563,212.872c0,0,0.089,0.939,0.121,2.363c0.051,1.424-0.065,3.322-0.409,5.25
				c-0.169,0.961-0.379,1.95-0.776,2.853c-0.273,0.431-0.478,0.859-0.854,1.195c-0.351,0.346-0.672,0.661-1.11,0.845
				c-0.2,0.104-0.394,0.184-0.577,0.258c-0.213,0.029-0.4,0.066-0.582,0.073c-0.359,0.051-0.656,0.019-0.891-0.1
				c-0.468-0.159-0.676-0.291-0.676-0.291l0.036-0.211c0,0,0.264-0.118,0.616-0.251c0.181-0.046,0.366-0.178,0.54-0.337
				c0.093-0.081,0.188-0.143,0.277-0.204c0.085-0.11,0.16-0.229,0.249-0.325c0.184-0.169,0.316-0.469,0.49-0.731
				c0.166-0.258,0.302-0.628,0.495-0.934c0.361-0.682,0.813-1.439,1.117-2.289c0.622-1.687,1.002-3.51,1.308-4.873
				c0.286-1.369,0.413-2.296,0.413-2.296L124.563,212.872z"/>
			<path fill="#000100" d="M99.824,200.707c0,0-0.039,0.946-0.184,2.344c-0.147,1.397-0.369,3.251-0.651,5.083
				c-0.262,1.837-0.58,3.664-0.729,5.038c-0.055,0.69-0.113,1.26-0.089,1.66c0.048,0.394,0.089,0.638,0.089,0.638
				s-0.126-0.197-0.292-0.596c-0.111-0.401-0.27-0.993-0.309-1.71c-0.109-1.431-0.005-3.325,0.271-5.188
				c0.275-1.859,0.731-3.687,1.125-5.038C99.454,201.581,99.824,200.707,99.824,200.707z"/>
			<path fill="#FFFFFF" d="M130.72,212.588c0,0,1.189-0.271,2.981-0.529c0.897-0.115,1.938-0.258,3.05-0.368
				c1.123-0.082,2.317-0.167,3.51-0.249c1.2-0.084,2.376-0.287,3.496-0.425c1.105-0.143,2.119-0.4,3.01-0.555
				c0.883-0.162,1.57-0.467,2.075-0.6c0.502-0.163,0.79-0.253,0.79-0.253l0.043,0.099c0,0-0.277,0.113-0.761,0.318
				c-0.494,0.182-1.178,0.551-2.049,0.799c-0.874,0.232-1.888,0.587-2.998,0.804c-1.115,0.211-2.298,0.498-3.495,0.657
				c-1.195,0.198-2.388,0.407-3.52,0.515c-1.127,0.107-2.189,0.105-3.096,0.104c-1.811-0.029-3.029-0.208-3.029-0.208
				L130.72,212.588z"/>
			<path fill="#FFFFFF" d="M130.273,218.911c0,0,0.396,0.633,0.893,1.567c0.234,0.479,0.543,1.006,0.815,1.591
				c0.278,0.589,0.549,1.233,0.901,1.824c0.345,0.605,0.771,1.144,1.221,1.599c0.452,0.458,0.941,0.789,1.405,1.03
				c0.231,0.102,0.464,0.159,0.664,0.233c0.199,0.09,0.386,0.063,0.54,0.09c0.305,0.031,0.483,0.048,0.483,0.048l0.009,0.108
				c0,0-0.181,0.01-0.502,0.025c-0.156-0.006-0.361,0.046-0.576-0.008c-0.223-0.044-0.483-0.074-0.751-0.147
				c-0.534-0.181-1.14-0.463-1.681-0.917c-0.545-0.437-1.076-0.979-1.515-1.574c-0.472-0.586-0.87-1.209-1.2-1.824
				c-0.292-0.628-0.476-1.25-0.61-1.783c-0.244-1.077-0.2-1.838-0.2-1.838L130.273,218.911z"/>
			<path fill="#FFFFFF" d="M130.722,216.37c0,0,0.396-0.02,0.871,0.067c0.23,0.061,0.503,0.114,0.766,0.231
				c0.247,0.15,0.512,0.312,0.774,0.472c0.548,0.302,1.118,0.501,1.564,0.646c0.441,0.092,0.77,0.126,0.77,0.126l0.015,0.105
				c0,0-0.315,0.079-0.818,0.143c-0.509,0.029-1.185-0.054-1.829-0.222c-0.321-0.077-0.663-0.138-0.948-0.261
				c-0.282-0.133-0.51-0.326-0.695-0.498c-0.367-0.356-0.52-0.719-0.52-0.719L130.722,216.37z"/>
		</g>
	</g>
</g>
</svg>
