<?xml version="1.0" encoding="utf-8"?>
<!-- Generator: Adobe Illustrator 16.0.0, SVG Export Plug-In . SVG Version: 6.00 Build 0)  -->
<!DOCTYPE svg PUBLIC "-//W3C//DTD SVG 1.1//EN" "http://www.w3.org/Graphics/SVG/1.1/DTD/svg11.dtd">
<svg version="1.1" id="Capa_1" xmlns="http://www.w3.org/2000/svg" xmlns:xlink="http://www.w3.org/1999/xlink" x="0px" y="0px"
	 width="300px" height="300px" viewBox="0 0 300 300" enable-background="new 0 0 300 300" xml:space="preserve">
<g>
	<defs>
		<rect id="SVGID_7_" y="0" width="300" height="299.999"/>
	</defs>
	<clipPath id="SVGID_2_">
		<use xlink:href="#SVGID_7_"  overflow="visible"/>
	</clipPath>
	<g clip-path="url(#SVGID_2_)">
		<path fill="#BAD9D3" d="M0,0V300h300V0H0z M265.703,175.747c-0.922,2.135-2.641,4.01-4.576,5.267
			c-0.752,0.515-1.549,0.925-2.342,1.284c-6.152,5.611-26.125,22.029-52.541,25.566l10.83,14.364l-26.896,32.188l-0.215,0.077
			l-53.383,18.87l-0.367-0.512l-30.551-42.367l-1.887-27.909c-0.092-0.054-0.189-0.099-0.281-0.153
			c-3.068-1.783-5.945-3.892-8.646-6.175c-0.563-0.468-1.125-0.97-1.67-1.471c-1.615,0.349-3.232,0.682-4.846,0.995
			c-2.518,0.502-5.031,0.938-7.561,1.372c-2.529,0.433-5.057,0.833-7.598,1.146c-2.543,0.333-5.064,0.631-7.67,0.894l-0.051,0.013
			c-1.336,0.128-2.51-0.845-2.641-2.18c-0.043-0.39,0.01-0.789,0.148-1.135c1.795-4.512,3.588-9.039,5.434-13.53l5.533-13.507
			c0.33-0.805,0.676-1.61,1.021-2.416c-1.771-5.093-3.051-10.312-3.805-15.582c-0.504-3.392-0.822-6.792-0.955-10.197
			c-0.07-2.392-0.078-4.748,0.039-7.146c-11.422-3.687-51.643-36.5-56.68-46.769c-1.484-3.041-0.805-5.022,0.051-6.154
			c1.506-2.019,3.811-5.105,40.951-1.474c13.186,1.277,26.213,2.965,31.889,3.729c0.496-1.368,0.988-2.383,1.572-3.513
			c0.602-1.145,1.25-2.269,1.965-3.323c1.428-2.124,3.021-4.158,4.818-5.977c1.814-1.817,3.727-3.564,5.844-5.012
			c1.018-0.802,2.146-1.43,3.227-2.127c1.113-0.646,2.254-1.238,3.396-1.815c2.314-1.084,4.688-2.065,7.133-2.788
			c2.445-0.742,4.934-1.294,7.428-1.712l3.744-0.485l3.764-0.231c1.252-0.116,2.488-0.015,3.734-0.013l1.867,0.018l1.859,0.135
			c1.223,0.1,2.465,0.151,3.684,0.32l3.654,0.518c2.436,0.336,4.811,0.938,7.186,1.437c2.354,0.651,4.729,1.235,7.006,2
			c2.295,0.799,4.611,1.514,6.832,2.442c0.213,0.097,0.441,0.175,0.656,0.272c0.66-0.402,1.322-0.786,1.998-1.169l6.021-3.37
			c1.039-0.55,1.979-1.103,3.104-1.647c1.307-0.551,2.449-0.841,3.676-1.112c2.416-0.507,4.861-0.658,7.314-0.576
			c4.92,0.154,9.859,1.499,14.281,3.962c0.164,0.093,0.326,0.186,0.488,0.297c45.633-11.025,46.277-8.366,46.908-5.758
			c0.479,1.994-0.697,5.361-5.311,16.798c-2.43,5.99-5.174,12.803-5.822,15.996c-0.09,0.449-0.297,0.859-0.566,1.181
			c0.096,0.088,0.174,0.193,0.27,0.284c2.51,2.709,4.857,5.58,6.996,8.624c1.043,1.521,2.068,3.074,3.006,4.675l0.709,1.213
			l0.367,0.66l0.32,0.59l1.232,2.355c0.787,1.624,1.617,3.369,2.314,5.071c0.338,0.861,0.695,1.704,1.02,2.58l0.881,2.639
			c0.523,1.794,1.016,3.587,1.354,5.422c0.352,1.835,0.586,3.698,0.701,5.588c0.1,1.873,0.08,3.772-0.125,5.646
			c-0.168,1.875-0.594,3.785-1.057,5.476l-0.043,0.2c-0.051,0.212-0.156,0.384-0.285,0.543c0.268,0.537,0.533,1.087,0.67,1.311
			c0.375,0.541,0.777,1.186,1.156,1.93c0.83,1.475,1.721,3.307,2.682,5.429c0.941,2.137,1.984,4.566,3.002,7.245
			c0.48,1.34,1.01,2.73,1.537,4.154c0.264,0.722,0.51,1.458,0.789,2.198c0.236,0.871,0.498,1.642,0.719,2.511
			c0.428,1.706,0.766,3.541,0.826,5.529C266.982,171.445,266.66,173.629,265.703,175.747z"/>
		<g>
			<path fill="#FFFFFF" d="M71.82,130.915c0,0,8.623-4.599,10.883-8.112c3.189-3.492,6.895-17.776,7.57-20.748l-1.148-15.498
				l-24.031-2.814L24.66,81.529l-8.574,1.406l7.08,11.072l39.238,32.018L71.82,130.915z"/>
			<path fill="#FFFFFF" d="M87.754,141.537c0,0,4.555-1.912,11.098,1.411c6.545,3.323,2.076,1.053,2.076,1.053
				s12.305,7.105,17.584,13.041c5.281,5.936,6.77,11.035,6.77,11.035l1.893,8.384l-1.201,4.058l-2.223,2.988l-58.77,13.321
				L87.754,141.537z"/>
			<polygon fill="#FFFFFF" points="201.65,62.287 247.279,54.319 234.977,89.985 			"/>
			<path fill="#C7B299" d="M183.355,164.143l34.521-15.483l11.719-9.575l6.467-0.213l5.283,3.216l2.689-0.104l4.182-2.996
				l2.645-2.959l2.777,1.394c0,0,3.078,2.773,4.49,8.685c1.412,5.91,6.18,18.581,6.18,18.581l-1.635,11.701l-8.643,5.978
				l-8.26,8.111c0,0-30.852,14.941-44.529,15.434s-17.396,0.413-17.396,0.413l-6.197-22.803c0,0-0.27-6.433-0.152-8.571
				C177.496,174.952,178.607,167.233,183.355,164.143z"/>
			<g>
				<path fill="#000100" d="M161.957,132.742c-0.145,0.161-0.805,0.848-1.854,1.901c-0.607,0.622-1.4,1.285-2.334,2.042
					c-0.9,0.809-2.002,1.589-3.242,2.413c-0.613,0.454-1.307,0.802-2.002,1.218c-0.693,0.4-1.424,0.815-2.232,1.156
					c-1.555,0.74-3.273,1.402-5.115,1.873c-1.857,0.455-3.816,0.868-5.834,0.893c-2.027,0.106-4.082-0.107-6.117-0.42
					c-2.01-0.462-4-1.009-5.84-1.816c-1.855-0.775-3.568-1.761-5.143-2.805c-1.594-1.013-2.992-2.199-4.275-3.346
					c-1.266-1.146-2.379-2.317-3.357-3.448c-1.947-2.244-3.297-4.316-4.176-5.796c-0.754-1.286-1.145-2.149-1.234-2.354
					c0.111,0.123,0.729,0.847,1.777,1.963c1.158,1.24,2.85,2.947,5,4.832c2.168,1.868,4.781,3.912,7.832,5.644
					c1.498,0.889,3.141,1.617,4.803,2.298c1.676,0.715,3.451,1.146,5.23,1.514c1.801,0.316,3.621,0.551,5.408,0.482
					c1.801-0.02,3.559-0.193,5.258-0.521c1.688-0.361,3.324-0.776,4.85-1.314c0.77-0.228,1.479-0.576,2.184-0.856
					c0.705-0.298,1.408-0.546,2.033-0.881c1.279-0.636,2.471-1.178,3.48-1.778c1.023-0.584,1.939-1.055,2.639-1.537
					C160.967,133.328,161.766,132.851,161.957,132.742z"/>
			</g>
			<g>
				<g>
					<path fill="#000100" d="M230.443,131.294c-0.018,0,0.074,0.156,0.041,0.474c-0.018,0.32-0.127,0.802-0.426,1.322
						c-0.563,1.063-1.711,2.345-3.434,3.446c-0.891,0.54-1.908,1.022-3.17,1.34c-1.223,0.252-2.848,0.433-4.629-0.521
						c-0.865-0.485-1.645-1.319-2.068-2.183c-0.439-0.882-0.646-1.701-0.715-2.647l-0.031-0.338l-0.002-0.218l-0.008-0.454v-0.353
						l0.029-0.234l0.029-0.487c0.035-0.653,0.104-1.305,0.188-1.957c0.209-1.335,0.484-2.665,1.027-3.999
						c0.561-1.314,1.293-2.703,2.629-3.776c0.652-0.535,1.463-0.944,2.299-1.151c0.836-0.188,1.66-0.179,2.375-0.038
						c1.447,0.298,2.486,0.994,3.307,1.662c0.805,0.699,1.385,1.455,1.834,2.135c0.451,0.697,0.717,1.368,0.889,1.932
						c0.17,0.564,0.193,1.038,0.176,1.355c-0.033,0.32-0.107,0.449-0.109,0.466c0,0-0.041-0.171-0.178-0.43
						c-0.105-0.225-0.391-0.544-0.74-0.917c-0.703-0.694-1.916-1.568-3.381-2.136c-0.727-0.275-1.523-0.438-2.166-0.371
						c-0.662,0.064-0.994,0.315-1.371,0.766c-0.361,0.451-0.738,1.222-0.992,2.132c-0.285,0.909-0.461,1.976-0.621,3.061
						c-0.045,0.536-0.127,1.087-0.176,1.656l-0.057,0.72l-0.037,0.671l0.012,0.1c-0.012,0.252,0.068,0.626,0.109,0.798
						c0.039,0.204,0.084,0.272,0.18,0.379c0.17,0.263,0.898,0.502,1.705,0.514c0.822,0.029,1.686-0.076,2.486-0.251
						c1.615-0.332,2.99-0.861,3.844-1.37c0.436-0.263,0.75-0.499,0.914-0.723C230.383,131.46,230.443,131.294,230.443,131.294z"/>
				</g>
				<g>
					<path fill="#000100" d="M250.189,131.939c0,0-0.221,0.023-0.588-0.017c-0.352-0.051-0.889-0.097-1.43-0.348
						c-0.574-0.215-1.195-0.569-1.771-1.138c-0.303-0.253-0.535-0.619-0.785-0.986c-0.268-0.351-0.393-0.828-0.555-1.24
						c-0.107-0.46-0.217-0.937-0.191-1.407c0.01-0.487,0.086-0.938,0.225-1.351c0.123-0.414,0.346-0.788,0.531-1.098
						c0.236-0.321,0.467-0.579,0.715-0.784c0.463-0.446,0.963-0.671,1.307-0.788c0.359-0.115,0.576-0.12,0.576-0.12
						s-0.027,0.217-0.063,0.567c-0.053,0.335-0.113,0.802-0.156,1.288c-0.07,1.005,0.029,1.919,0.27,2.757
						c0.105,0.225,0.111,0.443,0.232,0.667c0.123,0.226,0.16,0.48,0.299,0.723c0.121,0.243,0.189,0.499,0.328,0.743
						c0.121,0.241,0.225,0.499,0.33,0.74c0.209,0.484,0.42,0.899,0.537,1.24C250.115,131.716,250.189,131.939,250.189,131.939z"/>
				</g>
				<g>
					<g>
						<path fill="#000100" d="M168.799,124.792c0,0-1.383,2.547-10.623-3.812c-5.105-3.526-2.77,15.273-25.6,10.12
							c-16.248-3.666-17.732-16.193-17.732-16.193c-4.461-0.244-6.545,6.152-6.545,6.152c-5.379-20.9,11.08-21.699,9.055-23.121
							c-2.023-1.438-13.123,0.072-13.123,0.072s8.682-5.563,16.949-7.601c7.656-1.884,27.602-1.854,46.705,25.299
							C171.006,120.135,168.799,124.792,168.799,124.792z"/>
					</g>
					<g>
						<path fill="#FFFFFF" d="M126.213,116.803c-0.256,4.612,0.984,5,10.906,6.759c9.924,1.758,10.75-5.972,8.637-8.03
							c-13.295-12.963-18.525-1.607-18.525-1.607L126.213,116.803z"/>
					</g>
				</g>
				<path fill="#000100" d="M266.941,169.457c-0.061-1.988-0.398-3.823-0.826-5.529c-0.221-0.869-0.482-1.64-0.719-2.511
					c-0.279-0.74-0.525-1.476-0.789-2.198c-0.527-1.424-1.057-2.814-1.537-4.154c-1.018-2.679-2.061-5.107-3.002-7.245
					c-0.961-2.123-1.852-3.955-2.682-5.429c-0.379-0.744-0.781-1.389-1.156-1.93c-0.137-0.223-0.402-0.774-0.67-1.311
					c0.129-0.159,0.234-0.331,0.285-0.543l0.043-0.2c0.463-1.691,0.889-3.602,1.057-5.476c0.205-1.873,0.225-3.772,0.125-5.646
					c-0.115-1.89-0.35-3.752-0.701-5.588c-0.338-1.835-0.83-3.628-1.354-5.422l-0.881-2.639c-0.324-0.876-0.682-1.719-1.02-2.58
					c-0.697-1.702-1.527-3.447-2.314-5.071l-1.232-2.355l-0.32-0.59l-0.367-0.66l-0.709-1.213c-0.938-1.601-1.963-3.154-3.006-4.675
					c-2.139-3.044-4.486-5.914-6.996-8.624c-0.096-0.09-0.174-0.195-0.27-0.284c0.27-0.322,0.477-0.732,0.566-1.181
					c0.648-3.193,3.393-10.006,5.822-15.996c4.613-11.437,5.789-14.804,5.311-16.798c-0.631-2.608-1.275-5.267-46.908,5.758
					c-0.162-0.111-0.324-0.204-0.488-0.297c-4.422-2.463-9.361-3.809-14.281-3.962c-2.453-0.082-4.898,0.069-7.314,0.576
					c-1.227,0.271-2.369,0.561-3.676,1.112c-1.125,0.544-2.064,1.097-3.104,1.647l-6.021,3.37c-0.676,0.384-1.338,0.768-1.998,1.169
					c-0.215-0.097-0.443-0.175-0.656-0.272c-2.221-0.929-4.537-1.644-6.832-2.442c-2.277-0.764-4.652-1.348-7.006-2
					c-2.375-0.499-4.75-1.1-7.186-1.437l-3.654-0.518c-1.219-0.169-2.461-0.22-3.684-0.32l-1.859-0.135l-1.867-0.018
					c-1.246-0.001-2.482-0.103-3.734,0.013l-3.764,0.231l-3.744,0.485c-2.494,0.418-4.982,0.971-7.428,1.712
					c-2.445,0.723-4.818,1.704-7.133,2.788c-1.143,0.577-2.283,1.169-3.396,1.815c-1.08,0.697-2.209,1.326-3.227,2.127
					c-2.117,1.448-4.029,3.195-5.844,5.012c-1.797,1.819-3.391,3.853-4.818,5.977c-0.715,1.054-1.363,2.178-1.965,3.323
					c-0.584,1.13-1.076,2.145-1.572,3.513c-5.676-0.764-18.703-2.452-31.889-3.729C17.41,75.479,15.105,78.565,13.6,80.584
					c-0.855,1.132-1.535,3.113-0.051,6.154c5.037,10.269,45.258,43.082,56.68,46.769c-0.117,2.398-0.109,4.754-0.039,7.146
					c0.133,3.405,0.451,6.805,0.955,10.197c0.754,5.27,2.033,10.489,3.805,15.582c-0.346,0.805-0.691,1.61-1.021,2.416
					l-5.533,13.507c-1.846,4.491-3.639,9.018-5.434,13.53c-0.139,0.346-0.191,0.745-0.148,1.135c0.131,1.335,1.305,2.308,2.641,2.18
					l0.051-0.013c2.605-0.262,5.127-0.561,7.67-0.894c2.541-0.313,5.068-0.714,7.598-1.146c2.529-0.433,5.043-0.87,7.561-1.372
					c1.613-0.313,3.23-0.646,4.846-0.995c0.545,0.501,1.107,1.003,1.67,1.471c2.701,2.283,5.578,4.392,8.646,6.175
					c3.063,1.799,6.24,3.353,9.516,4.676c3.271,1.322,6.633,2.347,10.033,3.188c3.385,0.892,6.838,1.402,10.275,1.876
					c3.443,0.407,6.895,0.663,10.322,0.699c3.447,0.089,6.883-0.026,10.293-0.244c3.412-0.266,6.795-0.585,10.152-1.091
					c3.373-0.505,6.703-1.097,10.02-1.773l4.955-1.092l4.625-1.21c0.016,0.02,0.016,0.02,0.033,0.001
					c2.881,0.53,5.691,0.835,8.475,0.988c33.254,1.82,59.387-19.575,66.592-26.144c0.793-0.359,1.59-0.77,2.342-1.284
					c1.936-1.256,3.654-3.131,4.576-5.267C266.66,173.629,266.982,171.445,266.941,169.457z M243.549,56.285
					c-0.465,0.095-1.145,0.246-1.961,0.461c-0.779,0.217-1.689,0.464-2.643,0.788c-0.943,0.354-1.951,0.733-2.955,1.11
					c-4.033,1.486-8.043,3.042-8.043,3.042l0.029,0.08c0,0,4.135-1.21,8.24-2.49c1.029-0.315,2.059-0.626,3.023-0.92
					c0.955-0.327,1.826-0.684,2.574-0.984c1.352-0.569,2.225-1.021,2.381-1.105c-0.193,0.143-0.596,0.451-1.082,0.906
					c-0.326,0.326-0.717,0.702-1.086,1.145c-0.355,0.451-0.711,0.955-1.074,1.448c-1.486,1.958-2.914,3.961-2.914,3.961l0.068,0.053
					c0,0,1.713-1.771,3.371-3.594c0.422-0.448,0.854-0.887,1.232-1.322c0.367-0.443,0.664-0.894,0.926-1.274
					c0.186-0.291,0.326-0.54,0.445-0.754c-0.943,2.947-2.916,7.82-4.467,11.684c-2.236,5.563-4.553,11.273-5.639,15.116
					c-1.246-1.178-2.516-2.29-3.834-3.372c-2.852-2.342-5.77-4.589-8.875-6.541c-1.547-0.976-3.125-1.937-4.74-2.834
					c-1.338-0.763-2.662-1.475-4.119-2.177c-0.48-0.75-1.031-1.469-1.598-2.189c-0.787-0.984-1.641-1.94-2.551-2.847
					c-0.129-0.125-0.273-0.251-0.4-0.359C222.428,59.88,237.494,56.805,243.549,56.285z M91.877,84.937
					c-0.02,0.051-0.057,0.1-0.076,0.147l-0.004-0.269C91.83,84.852,91.863,84.886,91.877,84.937z M185.213,202.609
					c-0.135-0.293-0.271-0.604-0.406-0.915l-0.924-2.185c-0.607-1.481-1.182-2.977-1.705-4.466c-1.08-3.003-2.059-6.051-2.76-9.168
					c-0.689-3.098-1.225-6.239-1.254-9.421c0.012-0.789,0.021-1.58,0.113-2.364c0.061-0.805,0.189-1.589,0.352-2.37
					c0.158-0.782,0.402-1.543,0.695-2.285l0.482-1.117l0.596-1.06c-0.539,0.61-1.078,1.251-1.504,1.97
					c-0.426,0.699-0.818,1.452-1.131,2.224c-0.313,0.774-0.592,1.583-0.787,2.396c-0.213,0.814-0.359,1.647-0.508,2.479
					c-0.469,3.339-0.451,6.721-0.094,10.054c0.338,3.333,0.934,6.628,1.713,9.867c0.398,1.619,0.832,3.241,1.318,4.832l0.512,1.676
					c-2.289,0.345-4.561,0.676-6.832,0.989c-3.25,0.41-6.5,0.754-9.744,0.997c-3.258,0.223-6.496,0.4-9.732,0.476
					c-3.246,0.008-6.475-0.001-9.678-0.193c-3.205-0.159-6.396-0.502-9.551-0.943c-3.137-0.474-6.268-1.066-9.318-1.855
					c-6.105-1.563-11.963-3.885-17.363-6.972c-1.566-0.896-3.078-1.868-4.533-2.923c0.051-0.016,0.102-0.029,0.152-0.042
					c2.492-0.638,4.939-1.412,7.4-2.136c2.455-0.839,4.902-1.632,7.291-2.595c1.203-0.472,2.422-0.894,3.596-1.433l3.547-1.539
					l0.105-0.046c0.121-0.061,0.225-0.123,0.332-0.233c0.639-0.605,1.248-1.296,1.678-2.062c0.461-0.748,0.74-1.575,0.971-2.387
					c0.443-1.642,0.432-3.273,0.281-4.829c-0.352-3.097-1.441-5.932-2.742-8.576c-1.336-2.647-2.967-5.125-4.865-7.348
					c-1.877-2.241-4.037-4.276-6.529-5.741c2.256,1.79,4.051,4.058,5.637,6.415c0.699,1.069,1.346,2.17,1.947,3.292l-20.547,12.703
					l22.113-9.431c0.131,0.312,0.275,0.62,0.398,0.933c0.502,1.289,0.932,2.626,1.246,3.971c0.113,0.502,0.201,1.011,0.287,1.516
					l-10.725,5.933l11.01-2.737c-0.016,1.064-0.145,2.099-0.457,3.032c-0.215,0.543-0.449,1.086-0.791,1.521
					c-0.24,0.391-0.561,0.71-0.896,1.01l-3.313,1.215c-1.168,0.458-2.367,0.797-3.564,1.185c-2.367,0.812-4.803,1.418-7.215,2.129
					c-2.439,0.623-4.848,1.297-7.299,1.837c-1.211,0.303-2.436,0.572-3.662,0.827c-1.225,0.267-2.465,0.52-3.709,0.789
					c-1.939,0.381-3.859,0.781-5.797,1.128c-0.547,0.122-1.092,0.225-1.633,0.313c-2.465,0.472-4.959,0.873-7.453,1.274
					l-7.463,1.122c-1.152,0.156-2.322,0.327-3.475,0.466c1.256-3.26,2.494-6.524,3.701-9.805l4.418-11.902l0.65-1.73l2.748-7.486
					l2.271-6.183l4.832-13.577c0,0,0-0.02,0.016-0.018c0.09-0.111,0.287-0.303,0.463-0.428c0.227-0.174,0.52-0.325,0.814-0.459
					c0.621-0.252,1.301-0.4,2.027-0.444c0.307-0.056,0.633-0.025,0.953-0.013l-3.73,10.487l6.926-10.047
					c0.111,0.023,0.221,0.049,0.332,0.07c0.742,0.243,1.508,0.402,2.232,0.712c0.74,0.275,1.484,0.535,2.205,0.859
					c0.721,0.343,1.48,0.62,2.184,0.996l2.127,1.092l-1.961-1.404c-0.645-0.472-1.348-0.864-2.029-1.306
					c-0.664-0.456-1.402-0.782-2.123-1.176c-0.701-0.391-1.477-0.667-2.232-1.014c-0.775-0.261-1.547-0.589-2.379-0.753
					c-0.416-0.072-0.814-0.195-1.248-0.236c-0.418-0.039-0.852-0.129-1.289-0.103c-0.875-0.031-1.787,0.054-2.676,0.323
					c-0.445,0.146-0.912,0.322-1.326,0.568c-0.457,0.295-0.803,0.494-1.27,1.074c-0.02,0.033-0.057,0.065-0.059,0.113l-0.055,0.1
					l-5.895,13.318c-0.328,0.772-0.674,1.543-1.002,2.316c-0.881-2.604-1.646-5.253-2.324-7.932
					c-0.787-3.138-1.418-6.334-1.883-9.556c-0.346-2.257-0.639-4.578-0.799-6.856c-0.068-0.643-0.1-1.283-0.115-1.924
					c0.396-0.163,0.777-0.344,1.156-0.543l0.711-0.38l0.381-0.199c0.363-0.182,0.699-0.449,1.047-0.666
					c0.332-0.235,0.697-0.433,1.014-0.701l0.949-0.772c0.334-0.251,0.621-0.554,0.922-0.825c0.301-0.271,0.586-0.556,0.854-0.863
					c0.568-0.572,1.059-1.22,1.564-1.847c0.457-0.666,0.896-1.315,1.287-2.016c0.781-1.369,1.434-2.831,1.838-4.34
					c-0.988,1.931-2.297,3.659-3.793,5.162l-14.436-6.878l12.596,8.539c-0.063,0.051-0.119,0.111-0.184,0.161
					c-0.283,0.236-0.598,0.454-0.91,0.656c-0.314,0.202-0.596,0.44-0.928,0.624l-4.391-1.967l2.619,2.903
					c-0.063,0.028-0.123,0.054-0.184,0.082c-0.328,0.151-0.643,0.334-1,0.449l-0.189,0.074c0,0-2.496-0.863-2.363-0.834
					c-5.957-1.588-46.857-33.162-52.189-42.723c7.893-1.603,40.064,1.302,68.021,5.255c0.127,0.428,0.221,0.853,0.299,1.278
					c0.09,0.43,0.158,0.856,0.225,1.286L64.789,90.3L88.9,95.875c0.051,0.55,0.09,1.103,0.113,1.655l-9.791-0.535l9.828,3.813
					c-0.006,0.085,0,0.171-0.008,0.256c-0.061,1.124-0.092,2.267-0.236,3.402c-0.066,0.567-0.098,1.138-0.213,1.704l-0.277,1.701
					c-0.18,1.151-0.512,2.277-0.727,3.443c0.594-1.028,1.205-2.037,1.701-3.121l0.744-1.624c0.25-0.541,0.432-1.104,0.646-1.663
					c0.432-1.12,0.766-2.263,1.08-3.439c0.168-0.579,0.25-1.181,0.383-1.779c0.115-0.583,0.25-1.181,0.332-1.781
					c0.186-1.202,0.318-2.421,0.404-3.646c0.066-1.222,0.064-2.452,0.016-3.681c-0.033-1.231-0.152-2.465-0.316-3.718
					c-0.102-0.612-0.17-1.238-0.303-1.866c-0.041-0.205-0.08-0.392-0.119-0.581c0.354-0.62,0.795-1.317,1.215-1.917
					c0.621-0.874,1.256-1.749,1.957-2.583c1.369-1.658,2.885-3.206,4.492-4.633c1.656-1.389,3.346-2.708,5.172-3.838
					c1.814-1.161,3.732-2.116,5.684-3.018c1.98-0.852,4.021-1.563,6.09-2.173c2.086-0.608,4.229-1.03,6.383-1.401l3.254-0.459
					l3.313-0.24c1.098-0.092,2.207-0.065,3.318-0.105l1.668-0.042l1.678,0.075c1.123,0.061,2.25,0.072,3.375,0.133l3.363,0.303
					c2.26,0.19,4.51,0.549,6.764,0.858c2.246,0.458,4.521,0.717,6.762,1.261c2.242,0.526,4.525,0.904,6.762,1.546
					c2.238,0.56,4.516,1.057,6.75,1.75c2.215,0.692,4.523,1.24,6.736,1.967l3.357,1.058c1.125,0.332,2.27,0.646,3.389,1.043
					c2.25,0.763,4.512,1.476,6.799,2.157c-1.98-1.338-3.979-2.626-5.996-3.879c-2-1.27-4.143-2.362-6.232-3.52
					c-2.088-1.19-4.271-2.185-6.436-3.195c-1.277-0.625-2.576-1.184-3.891-1.726l7.174-2.637c1.047-0.379,2.166-0.856,3.158-1.173
					c0.838-0.223,1.941-0.397,2.971-0.476c2.094-0.154,4.242-0.087,6.346,0.213c4.189,0.633,8.215,2.047,11.572,4.35
					c1.686,1.137,3.229,2.465,4.592,3.969c0.664,0.761,1.293,1.551,1.887,2.375l0.84,1.272l0.768,1.32
					c0.326,0.54,0.787,0.986,1.377,1.288l0.098,0.054c1.375,0.699,2.926,1.591,4.373,2.46c1.449,0.889,2.895,1.825,4.305,2.794
					c2.82,1.968,5.604,3.956,8.242,6.136c2.623,2.195,5.189,4.455,7.613,6.859c2.408,2.417,4.676,4.965,6.73,7.667
					c1.02,1.35,2.002,2.732,2.936,4.148l0.682,1.079l0.291,0.487l0.34,0.572l1.334,2.311c0.859,1.527,1.641,2.933,2.381,4.487
					c0.74,1.539,1.445,3.088,2.102,4.657c0.617,1.581,1.188,3.175,1.672,4.784c0.498,1.609,0.879,3.244,1.16,4.907
					c0.279,1.647,0.422,3.303,0.434,4.986c0,0.908-0.066,1.796-0.164,2.699c-0.164-0.077-0.348-0.138-0.529-0.182
					c-0.613-0.167-1.367-0.227-2.07-0.012c-0.732,0.211-1.313,0.651-1.725,1.101c-0.213,0.239-0.395,0.482-0.541,0.708l-0.334,0.521
					c-0.201,0.309-0.453,0.63-0.721,0.918c-0.521,0.578-1.105,1.119-1.748,1.521c-1.275,0.838-2.758,1.21-4.186,0.813
					c-1.424-0.364-2.75-1.379-3.877-2.568l-0.018-0.017c-0.078-0.088-0.176-0.161-0.291-0.202c-1.23-0.556-2.619-1.017-4.137-0.933
					c-1.502,0.069-2.916,0.715-4.02,1.512c-2.242,1.611-3.891,3.489-5.771,4.95c-0.949,0.772-1.885,1.276-3.031,1.919
					c-1.105,0.563-2.109,1.079-3.246,1.571c-2.26,0.987-4.564,1.902-6.898,2.769l-7.002,2.56l-7.035,2.524
					c-2.365,0.814-4.672,1.747-7.021,2.593c-2.109,0.759-4.209,1.603-6.287,2.38c-2.182-0.371-4.414-0.795-6.611-1.204
					c-2.482-0.438-4.963-0.911-7.443-1.399l-3.691-0.774c-1.23-0.218-2.461-0.487-3.674-0.772c-1.213-0.286-2.461-0.521-3.652-0.854
					l-3.637-0.923l-0.18-0.059c-0.518-0.097-0.936-0.138-1.402-0.195c-0.469-0.042-0.922-0.085-1.373-0.11
					c-0.922-0.051-1.83-0.066-2.76,0.001c-1.842,0.133-3.758,0.482-5.512,1.463c-0.434,0.246-0.869,0.525-1.242,0.858
					c-0.389,0.332-0.746,0.715-1.037,1.137c-0.293,0.421-0.535,0.879-0.711,1.342c-0.178,0.477-0.289,0.959-0.381,1.423
					c-0.121,0.953-0.07,1.898,0.082,2.782c0.152,0.881,0.41,1.737,0.699,2.561c0.043,0.154,0.207,0.246,0.359,0.221
					c0.186-0.023,0.313-0.184,0.291-0.371v-0.017c-0.123-0.832-0.213-1.678-0.184-2.483c0.01-0.823,0.139-1.606,0.346-2.335
					c0.24-0.71,0.613-1.345,1.092-1.826c0.234-0.256,0.514-0.476,0.809-0.645c0.281-0.186,0.609-0.336,0.936-0.469
					c1.34-0.515,2.908-0.615,4.484-0.512c0.789,0.043,1.574,0.136,2.357,0.263c0.4,0.074,0.783,0.146,1.182,0.234
					c0.352,0.069,0.73,0.157,1.029,0.257l3.525,1.37c1.217,0.471,2.441,0.823,3.68,1.245c2.445,0.823,4.912,1.546,7.383,2.221
					c2.488,0.641,4.975,1.299,7.467,1.889c2.49,0.591,4.984,1.097,7.529,1.622c0.465,0.094,0.955,0.071,1.436-0.105l0.068-0.013
					c1.303-0.451,2.604-0.901,3.893-1.368c0.668,0.389,1.484,0.854,2.447,1.396c2.885,1.637,7.084,3.902,12.232,6.354
					c2.557,1.25,5.361,2.565,8.385,3.84c3.008,1.276,6.197,2.627,9.596,3.839c3.398,1.212,6.934,2.416,10.842,3.234
					c0.963,0.204,2.064,0.382,3.049,0.487l2.793,0.32c1.906,0.188,3.83,0.379,5.793,0.503c1.746,0.079,3.523,0.125,5.328,0.056
					C236.006,193.447,212.418,207.042,185.213,202.609z M260.365,173.118c-1.129,2.141-3.588,3.418-6.75,4.069
					c-3.143,0.602-6.729,0.625-10.334,0.41c-1.813-0.099-3.652-0.251-5.51-0.42l-2.795-0.252c-0.887-0.084-1.639-0.174-2.506-0.323
					c-3.379-0.622-6.879-1.555-10.225-2.493c-3.346-0.974-6.605-1.927-9.682-2.885c-3.094-0.959-6.021-1.878-8.715-2.714
					c-5.408-1.709-9.943-3.067-13.139-4c-0.695-0.205-1.322-0.391-1.885-0.556c0.736-0.264,1.459-0.526,2.18-0.805
					c2.355-0.933,4.723-1.776,7.033-2.811c2.324-1,4.648-1.983,6.93-3.085c2.281-1.087,4.563-2.189,6.795-3.396
					c2.252-1.155,4.488-2.395,6.697-3.722c1.08-0.648,2.262-1.373,3.311-2.088l1.576-1.125c0.529-0.427,1.039-0.868,1.518-1.314
					c0.975-0.889,1.852-1.833,2.709-2.744c0.873-0.896,1.68-1.811,2.59-2.483c0.914-0.672,1.877-1.124,2.889-1.188
					c0.967-0.097,1.996,0.161,2.98,0.6c1.24,1.314,2.738,2.523,4.658,3.064c1.99,0.581,4.246,0.184,5.951-0.851
					c0.867-0.491,1.645-1.12,2.336-1.806c0.338-0.351,0.664-0.704,0.986-1.089l0.436-0.566c0.105-0.113,0.195-0.225,0.303-0.32
					c0.422-0.312,0.57-0.303,1.018-0.162c0.23,0.095,0.492,0.244,0.748,0.444c0.225,0.18,0.531,0.466,0.672,0.659
					c0.205,0.246,0.479,0.446,0.813,0.532c0.398,0.106,0.785,0.061,1.115-0.14l0.025-0.016c-0.004,0.003-0.004,0.015-0.006,0.016
					c0.133,0.345,0.277,0.772,0.418,1.25c0.203,0.618,0.434,1.304,0.643,2.106c0.486,1.573,0.916,3.531,1.482,5.749
					c0.52,2.232,1.088,4.737,1.727,7.496c0.295,1.379,0.604,2.824,0.926,4.322c0.178,0.751,0.354,1.519,0.529,2.285
					c0.117,0.663,0.291,1.445,0.387,2.157C261.627,167.854,261.559,170.978,260.365,173.118z"/>
			</g>
		</g>
		<g>
			<path fill="#333334" d="M288.537,300.646l-4.332,14.276l-268.789,3.746V300.31l1.092-2.787
				c8.113-9.39,13.42-48.706,13.639-50.385c0.016-0.085,0.016-0.153,0.016-0.236l2.486-0.033c0.504,0,0.992-0.236,1.309-0.638
				c5.863-7.39,16.09-15.553,18.039-17.081c0.018,0,0.018,0,0.018-0.018l0.502-0.184l6.92-2.721c2.301-0.84,4.604-1.73,6.904-2.586
				c2.301-0.907,4.584-1.831,6.902-2.654c2.318-0.856,4.635-1.73,6.953-2.52l0.486-0.167l0.254-0.354l4.045-5.591
				c0.488-0.64,0.941-1.311,1.395-1.966c0.756-0.486,1.664-0.991,2.639-1.478c-2.654,4.099-5.225,8.247-7.658,12.48
				c-1.934,3.375-3.848,6.767-5.561,10.279c-0.855,1.763-1.68,3.542-2.385,5.391c-0.354,0.923-0.705,1.847-0.99,2.821
				c-0.135,0.471-0.27,0.974-0.369,1.512c-0.135,0.57-0.152,0.905-0.221,1.545c-0.1,1.125,0.387,2.501,1.361,3.257
				c0.939,0.756,1.998,1.092,3.008,1.294c2.031,0.402,4.012,0.353,5.977,0.251c3.914-0.234,7.76-0.756,11.59-1.327
				c3.846-0.504,7.658-1.109,11.488-1.478c2.436-0.234,4.887-0.471,7.305-0.538c-2.148,1.881-4.283,3.763-6.414,5.66
				c-1.58,1.394-3.125,2.805-4.654,4.25c-1.527,1.445-3.055,2.889-4.566,4.366c-2.973,3.006-5.945,5.929-8.699,9.339
				c-0.354,0.437-0.689,0.891-1.043,1.378c-0.168,0.251-0.336,0.503-0.521,0.805c-0.15,0.286-0.352,0.571-0.57,1.26l-0.033,0.102
				v0.049l-0.018,0.018c-0.066,0.318-0.033,0.167-0.049,0.285c-0.051,0.386-0.018,0.755,0.049,1.04
				c0.17,0.572,0.387,0.874,0.555,1.109c0.371,0.487,0.656,0.705,0.941,0.958c0.555,0.437,1.059,0.74,1.561,1.042
				c2,1.142,3.93,1.998,5.895,2.838c7.844,3.242,15.756,5.945,23.648,8.717l11.824,4.148c1.965,0.705,3.912,1.445,5.828,2.25
				c1.359,0.605,2.771,1.16,4.064,1.881L138.121,299c-3.123,4.417-6.314,8.8-9.371,13.267l-0.521,0.74l0.84-0.369
				c4.787-2.1,9.859-3.813,14.83-5.644l14.949-5.442c4.986-1.831,9.992-3.594,14.963-5.475l14.898-5.609
				c4.953-1.898,9.924-3.795,14.863-5.762c4.938-1.998,9.842-3.979,14.779-6.18c1.26-0.555,2.451-1.091,3.795-1.863
				c0.17-0.102,0.336-0.202,0.555-0.336l0.152-0.102c0.049-0.033,0.084-0.049,0.25-0.184c0.287-0.218,0.539-0.487,0.74-0.74
				l0.084-0.1c0,0,0.016,0,0.016-0.018c0,0,0-0.017,0.018-0.033v-0.017c0.051-0.085,0.135-0.236,0.285-0.538
				c0.051-0.151,0.102-0.32,0.135-0.504c0.033-0.169,0.051-0.336,0.066-0.521c0-0.151,0-0.218-0.016-0.334
				c-0.018-0.202-0.051-0.42-0.1-0.589c-0.152-0.538-0.32-0.856-0.455-1.109c-0.57-0.939-1.059-1.461-1.545-2.032
				c-1.949-2.148-3.914-3.93-5.895-5.744c-3.947-3.628-8.029-7.02-11.975-10.513c-1.965-1.747-3.93-3.51-5.795-5.291
				c-0.486-0.469-0.975-0.957-1.445-1.443l0.891,0.016c1.275,0.084,2.586,0.167,3.879,0.269l7.879,0.738
				c5.24,0.538,10.496,1.16,15.752,1.814l7.895,0.941l3.93,0.503l1.965,0.269l0.99,0.134c0.17,0.017,0.572,0.033,0.859,0.033
				c0.369-0.084,0.721-0.118,1.074-0.369c0.721-0.437,0.973-1.092,1.156-1.596c0.119-0.487,0.17-0.924,0.186-1.343
				c0-0.789-0.1-1.529-0.217-2.234c-0.254-1.395-0.639-2.721-1.059-4.014c-0.855-2.57-1.865-5.073-2.955-7.509
				c-1.125-2.434-2.285-4.853-3.529-7.221c-0.621-1.176-1.275-2.351-1.965-3.51l-0.451-0.756c0.066,0.067,0.135,0.134,0.184,0.169
				l0.453,0.334c0.285,0.202,0.588,0.455,0.873,0.622c2.336,1.563,4.652,2.939,6.986,4.301c1.178,0.705,2.369,1.327,3.563,1.998
				c1.176,0.638,2.352,1.311,3.561,1.916c4.803,2.501,9.641,4.904,14.545,7.171l0.855,0.403c0,0.067,0.033,0.118,0.066,0.184
				c0.504,0.925,4.703,8.516,9.658,10.649v0.504c0,0.083,0,0.184,0.016,0.269C275.455,258.574,281.484,293.878,288.537,300.646z"/>
			<g>
				<path fill="#000100" d="M150.164,287.798l-4.301,5.222c0.371-0.385,0.74-0.772,1.092-1.176c1.563-1.712,3.107-3.425,4.553-5.257
					c1.074-1.376,2.115-2.77,3.09-4.248C153.119,284.154,151.643,285.984,150.164,287.798z"/>
			</g>
			<g>
				<path fill="#000100" d="M36.506,249.209c0,0,0.705,0.486,1.863,1.394c1.166,0.904,2.783,2.229,4.646,3.887
					c3.773,3.272,8.438,7.95,12.908,12.778c2.205,2.451,4.404,4.888,6.389,7.254c0.986,1.188,1.939,2.336,2.842,3.423
					c0.904,1.084,1.73,2.144,2.488,3.127c0.771,0.975,1.441,1.904,2.084,2.67c0.639,0.772,1.166,1.489,1.609,2.073
					c0.883,1.174,1.361,1.899,1.361,1.899s-0.752-0.38-2.018-1.142c-1.242-0.774-3.131-1.847-5.061-3.433
					c-1.986-1.534-4.291-3.377-6.537-5.532c-1.135-1.069-2.303-2.181-3.455-3.344c-1.176-1.143-2.275-2.38-3.412-3.588
					c-2.244-2.446-4.4-4.968-6.322-7.416c-1.941-2.432-3.654-4.788-5.041-6.872c-1.424-2.053-2.496-3.864-3.236-5.135
					C36.879,249.979,36.506,249.209,36.506,249.209z"/>
			</g>
			<g>
				<path fill="#000100" d="M272.342,250.933c0,0-0.271,0.704-0.834,1.873c-0.561,1.167-1.393,2.814-2.51,4.699
					c-2.174,3.817-5.482,8.593-9.158,13.083c-3.686,4.482-7.74,8.681-11.189,11.476c-1.693,1.422-3.236,2.492-4.389,3.151
					c-0.568,0.339-1.066,0.543-1.404,0.666c-0.355,0.11-0.543,0.102-0.539,0.111c0,0,0.162-0.12,0.387-0.356
					c0.23-0.248,0.514-0.658,0.887-1.165c0.703-1.051,1.711-2.554,2.92-4.354c2.385-3.625,5.781-8.27,9.436-12.724
					c3.662-4.448,7.578-8.701,10.793-11.678c1.578-1.512,2.982-2.704,3.984-3.526C271.725,251.369,272.342,250.933,272.342,250.933z
					"/>
			</g>
			<path fill="#000100" d="M291.158,298.463c-3.93-1.73-9.977-25.578-13.553-47.665v-1.596c0-0.789-0.555-1.478-1.328-1.629
				c-0.57-0.118-1.176-0.42-1.797-0.839c0.471-0.169,0.941-0.42,1.361-0.824c0.504-0.52,0.756-1.311,0.721-1.998
				c-0.016-0.707-0.217-1.345-0.451-1.932c-1.061-2.301-2.654-4.099-4.268-5.811c-1.629-1.714-3.377-3.241-5.156-4.753
				c-1.797-1.478-3.627-2.923-5.508-4.283c-3.729-2.737-7.76-5.055-11.758-7.339c-2.016-1.16-4.047-2.25-6.029-3.41
				c-1.98-1.158-3.963-2.334-5.928-3.542l-0.084-0.051l-0.102-0.017c-2.098-0.403-4.197-0.84-6.281-1.311l-6.281-1.461l-3.023-0.705
				l2.133,2.401l4.855,5.493c-3.141-2.604-6.734-4.519-10.33-6.282c-4.854-2.285-9.824-4.233-14.965-5.878l-0.738-0.234
				l-0.486,0.722c-2.318,3.477-4.604,6.969-6.836,10.48c-1.277,0.604-2.553,1.242-3.879,1.763c-1.598,0.638-3.193,1.311-4.855,1.831
				c-1.629,0.554-3.293,1.041-4.971,1.461c-1.662,0.437-3.359,0.789-5.057,1.091c-3.408,0.554-6.852,0.925-10.277,1.109
				c-1.713,0.051-3.428,0.151-5.156,0.102c-1.713,0.033-3.426-0.016-5.139-0.067c-1.697-0.067-3.41-0.118-5.123-0.269
				c-1.715-0.1-3.41-0.285-5.123-0.471c-3.393-0.403-6.803-0.923-10.162-1.645c-1.68-0.336-3.357-0.705-5.037-1.125
				c-1.662-0.438-3.342-0.858-4.988-1.361c-2.838-0.805-5.643-1.747-8.414-2.821l-1.461-2.269c-1.125-1.696-2.268-3.392-3.443-5.088
				c-1.191-1.679-2.385-3.359-3.846-5.039c-0.354-0.419-0.756-0.856-1.227-1.294l-0.387-0.336c-0.168-0.133-0.42-0.302-0.621-0.437
				c-0.135-0.083-0.135-0.083-0.201-0.116l-0.336-0.169l-0.402-0.167c-1.076-0.471-2.252-0.791-3.461-0.974
				c-1.209-0.169-2.469-0.186-3.711,0.051c-0.623,0.1-1.244,0.267-1.848,0.487c-0.639,0.25-1.125,0.453-1.896,0.99l-0.27,0.184
				l-0.201,0.269c-1.043,1.512-2.068,3.041-3.092,4.568c-0.654,0.287-1.393,0.622-2.148,0.993c0.117-0.186,0.252-0.353,0.367-0.538
				l1.211-1.696l-1.998,0.083l-7.021,0.302c-2.352,0.118-4.686,0.151-7.037,0.185h-0.1l-0.068,0.017
				c-2.469,0.923-4.904,1.881-7.34,2.855c-2.418,0.974-4.871,1.914-7.287,2.939c-2.42,1.025-4.82,2.132-7.174,3.325
				c-1.191,0.573-2.334,1.243-3.492,1.899c-1.143,0.654-2.25,1.376-3.359,2.132c-1.109,0.705-2.166,1.545-3.225,2.352
				c-1.041,0.822-2.084,1.68-3.074,2.587c-0.975,0.907-1.93,1.847-2.82,2.888c-0.908,0.991-1.748,2.083-2.504,3.208
				c-0.352,0.587-0.721,1.158-1.057,1.763c-0.303,0.622-0.605,1.243-0.891,1.865l-0.654,1.981c-0.119,0.689-0.27,1.36-0.369,2.048
				c-0.02,0.689-0.068,1.378-0.035,2.067c0.102,0.638,0.15,1.292,0.27,1.897c0.016,0.049,0.016,0.083,0.033,0.135
				c0.201,0.654,0.369,1.309,0.604,1.93l0.018,0.035h-3.107c-0.922,0-1.68,0.756-1.68,1.679v1.612
				c-1.512,11.37-6.768,41.954-12.982,48.689c-0.15,0.151-0.268,0.334-0.334,0.52l-1.311,3.375
				c-0.068,0.202-0.119,0.403-0.119,0.605v20.372c0,0.453,0.186,0.873,0.504,1.193c0.32,0.318,0.74,0.486,1.176,0.486
				c0.018,0,0.018,0,0.035,0l271.693-3.779c0.74-0.016,1.377-0.486,1.596-1.191l5.039-16.578
				C292.334,299.671,291.947,298.799,291.158,298.463z M227.605,212.404l3.141,0.42c2.082,0.285,4.199,0.589,6.266,0.958
				c-0.035-0.016-0.051-0.034-0.084-0.051l0.168,0.067c-0.033,0-0.051-0.017-0.084-0.017c1.947,1.125,3.879,2.334,5.76,3.594
				c1.916,1.26,3.762,2.637,5.627,3.997c1.848,1.361,3.678,2.739,5.508,4.131c1.814,1.378,3.662,2.739,5.51,4.066
				c3.695,2.687,7.373,5.374,10.781,8.331c1.664,1.478,3.359,3.023,4.469,4.786c0.453,0.773,0.789,1.562,0.555,2.25
				c-0.018-0.318-0.119-0.604-0.254-0.823c-0.789-1.411-1.98-2.2-3.123-3.006c-1.176-0.772-2.334-1.443-3.492-2.149
				c-0.186-0.118-0.387-0.236-0.57-0.336c-0.707-0.437-1.395-0.856-2.1-1.26c-0.02,0-0.02,0-0.02,0
				c-0.25-0.167-0.52-0.32-0.787-0.471c-4.652-2.737-9.355-5.375-14.059-7.994l-7.07-3.879c-2.369-1.26-4.754-2.537-6.971-3.897
				c-0.303-0.169-0.52-0.336-0.789-0.503l-0.369-0.252c-0.135-0.1-0.117-0.1-0.201-0.151l-0.084-0.051h-0.018l-0.102-0.134
				l-0.082-0.083l-0.338-0.386l-0.688-0.756c-0.857-1.009-1.881-1.983-2.854-2.957C230.023,214.638,228.832,213.513,227.605,212.404
				z M273.977,245.86c-0.1,0.085-0.201,0.169-0.318,0.236c-1.242-1.025-2.502-2.486-3.596-3.98c0.32,0.134,0.639,0.285,0.943,0.436
				c1.105,0.605,2.35,1.209,3.039,2.083C274.363,245.071,274.432,245.458,273.977,245.86z M196.014,220.786
				c2.504-4.484,5.039-8.969,7.625-13.402c4.77,1.26,9.49,2.939,14.023,4.988c2.385,1.108,4.705,2.317,6.92,3.695
				c2.166,1.443,4.215,3.055,5.861,4.971l1.109,1.527c0.336,0.538,0.672,1.127,0.99,1.698c0.623,1.141,1.244,2.317,1.814,3.493
				c1.176,2.351,2.25,4.753,3.209,7.206c0.939,2.452,1.813,4.92,2.502,7.423c0.334,1.242,0.639,2.501,0.789,3.712
				c0.084,0.604,0.117,1.208,0.1,1.729c-0.033,0.202-0.049,0.387-0.084,0.521c0.135,0.017,0.135,0.033,0.135,0.033
				c-0.051,0-0.066,0.051-0.135,0.051c-0.031,0.034-0.051,0.051-0.051,0.051c0-0.017,0.02-0.017,0.02-0.035
				c0.016-0.033,0.016-0.067,0.031-0.1l-0.973-0.185l-1.965-0.385l-3.914-0.724l-7.859-1.394c-5.24-0.873-10.498-1.68-15.789-2.417
				c-2.635-0.369-5.273-0.74-7.943-1.007c-1.344-0.134-2.688-0.252-4.047-0.354l-2.066-0.117c-0.738-0.016-1.461-0.016-2.25,0.017
				c-0.555,0.067-1.125,0.185-1.664,0.32c-0.016,0-0.334,0.167-0.469,0.218l-0.035,0.033l-0.051,0.034
				c-0.1,0.067-0.318,0.235-0.451,0.386c-0.707,0.772-0.707,1.243-0.789,1.763c-0.02,0.772,0.166,1.243,0.285,1.528
				c0.268,0.638,0.504,0.991,0.756,1.343c0.234,0.353,0.469,0.656,0.705,0.941c0.939,1.158,1.898,2.132,2.854,3.106
				c1.916,1.949,3.881,3.763,5.846,5.577l11.756,10.699c1.814,1.645,3.645,3.343,5.174,5.022c-0.605,0.318-1.244,0.62-1.865,0.907
				c-4.734,2.216-9.623,4.282-14.494,6.331l-14.629,6.198l-14.66,6.213c-4.889,2.067-9.742,4.217-14.611,6.333
				c-4.855,2.132-9.742,4.215-14.563,6.449l-7.24,3.359c-1.98,0.958-3.945,1.898-5.877,2.99c3.291-3.711,6.5-7.49,9.725-11.252
				c1.762-2.049,3.492-4.132,5.223-6.215l0.807-0.974l0.018-0.016l0.016-0.017l0.033-0.035l4.301-5.222
				c1.479-1.814,2.955-3.645,4.434-5.458l0.016-0.018c1.932-2.385,3.846-4.77,5.744-7.187c3.359-4.25,6.736-8.499,10.012-12.814
				c3.273-4.317,6.584-8.617,9.74-13.05c0.789-1.093,1.563-2.234,2.352-3.359c0.789-1.092,1.563-2.234,2.301-3.426
				c0.369-0.622,0.738-1.125,1.107-1.83l1.025-2.049c0.555-1.21,1.041-2.554,1.645-3.662l1.73-3.494l1.883-3.559
				C193.395,225.504,194.738,223.154,196.014,220.786z M149.273,263.597c-2.504-3.09-4.871-6.315-7.17-9.606
				c-2.27-3.31-4.553-6.618-6.754-9.994l-3.996-6.249c1.227,0.656,2.469,1.21,3.746,1.68c3.424,1.278,7.02,1.983,10.596,2.335
				c3.594,0.302,7.189,0.269,10.732-0.067c3.545-0.32,7.055-0.875,10.516-1.58c5.793-1.209,11.436-2.921,16.91-5.071
				c-0.301,0.638-0.586,1.26-0.889,1.897l-0.117,0.218c-0.035,0.067-0.035,0.118-0.051,0.134c0,0-0.018,0-0.018,0.017v0.017
				l-0.033,0.051l-0.051,0.083l-0.201,0.336l-0.387,0.688c-0.27,0.471-0.723,1.075-1.059,1.596
				c-1.443,2.167-3.057,4.382-4.602,6.549l-9.572,13.067l-9.338,12.664l-0.219-0.186
				C154.395,269.676,151.76,266.687,149.273,263.597z M120.201,217.863c1.578,0.756,3.174,1.512,4.803,2.15
				c3.26,1.327,6.617,2.419,10.01,3.327c1.697,0.453,3.426,0.839,5.156,1.208c1.713,0.353,3.459,0.654,5.207,0.891
				c1.746,0.234,3.512,0.453,5.273,0.587c1.748,0.151,3.527,0.185,5.291,0.234c1.764,0,3.527-0.033,5.291-0.151
				c1.762-0.1,3.525-0.336,5.271-0.538c1.748-0.267,3.479-0.503,5.209-0.873c1.729-0.302,3.441-0.74,5.139-1.142
				c1.695-0.471,3.408-0.874,5.072-1.394c1.68-0.521,3.359-0.991,5.004-1.612c1.664-0.538,3.291-1.176,4.92-1.797
				c0.775-0.302,1.547-0.605,2.301-0.94c-0.301,0.436-0.586,0.889-0.871,1.343c-1.445,2.301-2.924,4.568-4.318,6.902l-2.115,3.511
				l-1.73,3.023c-2.838,0.923-5.744,1.663-8.631,2.385c-3.344,0.84-6.734,1.494-10.111,2.083c-3.393,0.587-6.803,0.991-10.195,1.192
				c-3.408,0.167-6.801,0.218-10.16-0.085c-3.359-0.251-6.668-0.821-9.826-1.863c-3.141-1.009-6.113-2.52-8.682-4.586l-0.018-0.017
				l-5.172-8.145l-4.484-6.919C118.605,217.074,119.395,217.477,120.201,217.863z M97.006,204.561c0,0,0-0.017,0.018-0.017
				c0.168-0.083,0.42-0.185,0.605-0.234c0.352-0.102,0.721-0.202,1.107-0.236c0.758-0.1,1.545-0.067,2.318,0.084
				c0.789,0.152,1.596,0.371,2.369,0.74l0.166,0.067l0.119,0.067h0.016c0.035,0.033,0.119,0.067,0.119,0.083v0.017l0.166,0.169
				c0.27,0.269,0.555,0.571,0.84,0.923c1.16,1.427,2.301,3.09,3.395,4.737c1.09,1.662,2.166,3.359,3.24,5.071l6.332,10.346
				c2.117,3.459,4.283,6.885,6.467,10.33c2.166,3.442,4.432,6.818,6.734,10.193c2.301,3.359,4.635,6.718,7.121,9.977
				c2.469,3.257,5.021,6.482,7.775,9.574c2.586,2.888,5.324,5.709,8.48,8.178c0,0.134-0.016,0.252-0.031,0.403
				c-0.051,0.42-0.17,0.907-0.305,1.378c-0.133,0.436-0.285,0.873-0.451,1.31l-5.979,8.112l-4.771,6.565l-2.064,2.89
				c-1.244-0.941-2.604-1.698-3.949-2.436c-1.846-1.025-3.744-1.949-5.625-2.872c-3.795-1.848-7.643-3.51-11.488-5.173
				l-11.588-4.872c-3.848-1.594-7.709-3.19-11.453-4.904c-1.85-0.873-3.746-1.729-5.359-2.703c-0.186-0.118-0.369-0.236-0.537-0.353
				l0.018-0.018c0.268-0.369,0.57-0.754,0.873-1.125c1.26-1.529,2.688-3.023,4.08-4.535c1.428-1.51,2.871-2.988,4.334-4.466
				l8.75-8.936c2.922-2.974,5.877-5.946,8.834-8.885l2.771-2.737l-3.779,0.083c-4.029,0.083-7.895,0.689-11.723,1.343l-11.438,2.066
				c-3.795,0.622-7.607,1.26-11.42,1.443c-1.883,0.085-3.797,0.085-5.559-0.285c-0.875-0.184-1.715-0.487-2.27-0.974
				c-0.535-0.487-0.756-1.142-0.688-1.931c0.051-0.336,0.102-0.958,0.219-1.311c0.1-0.42,0.234-0.84,0.385-1.292
				c0.287-0.874,0.639-1.747,1.025-2.604c0.789-1.729,1.68-3.408,2.619-5.071c1.865-3.343,3.914-6.583,6.049-9.775
				c2.131-3.208,4.35-6.347,6.6-9.472C92.625,210.49,94.773,207.484,97.006,204.561z M32.279,237.699
				c0.168-0.589,0.369-1.176,0.537-1.747l0.773-1.679l0.939-1.58c0.352-0.52,0.738-1.007,1.092-1.511
				c0.789-0.958,1.596-1.916,2.486-2.805c0.873-0.907,1.83-1.73,2.787-2.554c0.957-0.839,1.947-1.612,2.973-2.385
				c1.043-0.74,2.066-1.494,3.123-2.199c1.041-0.756,2.15-1.412,3.209-2.134l3.258-2.083c2.168-1.376,4.4-2.687,6.684-3.946
				c1.125-0.638,2.27-1.243,3.428-1.849c1.143-0.62,2.334-1.158,3.51-1.712c1.158-0.555,2.367-1.042,3.578-1.545
				c1.158-0.487,2.35-0.924,3.525-1.344h-0.066l0.168-0.034c-0.033,0.017-0.066,0.017-0.102,0.034
				c2.334,0.017,4.637,0.067,6.971,0.167l4.938,0.218c-1.074,1.243-2.133,2.486-3.174,3.746l-4.064,4.955
				c0.15-0.051,0.285-0.085,0.438-0.134l-0.758,0.52l0.32-0.386c-2.268,0.688-4.484,1.411-6.701,2.149
				c-2.369,0.756-4.719,1.579-7.07,2.436c-2.334,0.874-4.67,1.73-7.004,2.621l-6.836,2.921l-0.1,0.051
				c-0.305,0.017-0.605,0.135-0.857,0.336c-0.018,0.016-0.051,0.051-0.117,0.1l-5.727,2.536l-3.41,1.747
				c-1.092,0.656-2.199,1.26-3.242,2l-1.561,1.125c-0.521,0.403-0.992,0.84-1.496,1.26c-0.906,0.823-1.746,1.73-2.469,2.788
				C32.279,237.748,32.279,237.731,32.279,237.699z M31.977,241.292c0.234-0.907,0.789-1.73,1.377-2.485
				c0.738-0.874,1.629-1.663,2.588-2.352c0.486-0.336,0.955-0.689,1.477-1.007l1.563-0.891c1.041-0.589,2.166-1.042,3.225-1.596
				l0.051-0.017c-3.309,2.923-7.055,6.533-10.027,10.11c-0.117-0.554-0.168-1.125-0.252-1.661V241.292z M284.205,314.922
				l-268.789,3.746V300.31l1.092-2.787c8.113-9.39,13.42-48.706,13.639-50.385c0.016-0.085,0.016-0.153,0.016-0.236l2.486-0.033
				c0.504,0,0.992-0.236,1.309-0.638c5.863-7.39,16.09-15.553,18.039-17.081c0.018,0,0.018,0,0.018-0.018l0.502-0.184l6.92-2.721
				c2.301-0.84,4.604-1.73,6.904-2.586c2.301-0.907,4.584-1.831,6.902-2.654c2.318-0.856,4.635-1.73,6.953-2.52l0.486-0.167
				l0.254-0.354l4.045-5.591c0.488-0.64,0.941-1.311,1.395-1.966c0.756-0.486,1.664-0.991,2.639-1.478
				c-2.654,4.099-5.225,8.247-7.658,12.48c-1.934,3.375-3.848,6.767-5.561,10.279c-0.855,1.763-1.68,3.542-2.385,5.391
				c-0.354,0.923-0.705,1.847-0.99,2.821c-0.135,0.471-0.27,0.974-0.369,1.512c-0.135,0.57-0.152,0.905-0.221,1.545
				c-0.1,1.125,0.387,2.501,1.361,3.257c0.939,0.756,1.998,1.092,3.008,1.294c2.031,0.402,4.012,0.353,5.977,0.251
				c3.914-0.234,7.76-0.756,11.59-1.327c3.846-0.504,7.658-1.109,11.488-1.478c2.436-0.234,4.887-0.471,7.305-0.538
				c-2.148,1.881-4.283,3.763-6.414,5.66c-1.58,1.394-3.125,2.805-4.654,4.25c-1.527,1.445-3.055,2.889-4.566,4.366
				c-2.973,3.006-5.945,5.929-8.699,9.339c-0.354,0.437-0.689,0.891-1.043,1.378c-0.168,0.251-0.336,0.503-0.521,0.805
				c-0.15,0.286-0.352,0.571-0.57,1.26l-0.033,0.102v0.049l-0.018,0.018c-0.066,0.318-0.033,0.167-0.049,0.285
				c-0.051,0.386-0.018,0.755,0.049,1.04c0.17,0.572,0.387,0.874,0.555,1.109c0.371,0.487,0.656,0.705,0.941,0.958
				c0.555,0.437,1.059,0.74,1.561,1.042c2,1.142,3.93,1.998,5.895,2.838c7.844,3.242,15.756,5.945,23.648,8.717l11.824,4.148
				c1.965,0.705,3.912,1.445,5.828,2.25c1.359,0.605,2.771,1.16,4.064,1.881L138.121,299c-3.123,4.417-6.314,8.8-9.371,13.267
				l-0.521,0.74l0.84-0.369c4.787-2.1,9.859-3.813,14.83-5.644l14.949-5.442c4.986-1.831,9.992-3.594,14.963-5.475l14.898-5.609
				c4.953-1.898,9.924-3.795,14.863-5.762c4.938-1.998,9.842-3.979,14.779-6.18c1.26-0.555,2.451-1.091,3.795-1.863
				c0.17-0.102,0.336-0.202,0.555-0.336l0.152-0.102c0.049-0.033,0.084-0.049,0.25-0.184c0.287-0.218,0.539-0.487,0.74-0.74
				l0.084-0.1c0,0,0.016,0,0.016-0.018c0,0,0-0.017,0.018-0.033v-0.017c0.051-0.085,0.135-0.236,0.285-0.538
				c0.051-0.151,0.102-0.32,0.135-0.504c0.033-0.169,0.051-0.336,0.066-0.521c0-0.151,0-0.218-0.016-0.334
				c-0.018-0.202-0.051-0.42-0.1-0.589c-0.152-0.538-0.32-0.856-0.455-1.109c-0.57-0.939-1.059-1.461-1.545-2.032
				c-1.949-2.148-3.914-3.93-5.895-5.744c-3.947-3.628-8.029-7.02-11.975-10.513c-1.965-1.747-3.93-3.51-5.795-5.291
				c-0.486-0.469-0.975-0.957-1.445-1.443l0.891,0.016c1.275,0.084,2.586,0.167,3.879,0.269l7.879,0.738
				c5.24,0.538,10.496,1.16,15.752,1.814l7.895,0.941l3.93,0.503l1.965,0.269l0.99,0.134c0.17,0.017,0.572,0.033,0.859,0.033
				c0.369-0.084,0.721-0.118,1.074-0.369c0.721-0.437,0.973-1.092,1.156-1.596c0.119-0.487,0.17-0.924,0.186-1.343
				c0-0.789-0.1-1.529-0.217-2.234c-0.254-1.395-0.639-2.721-1.059-4.014c-0.855-2.57-1.865-5.073-2.955-7.509
				c-1.125-2.434-2.285-4.853-3.529-7.221c-0.621-1.176-1.275-2.351-1.965-3.51l-0.451-0.756c0.066,0.067,0.135,0.134,0.184,0.169
				l0.453,0.334c0.285,0.202,0.588,0.455,0.873,0.622c2.336,1.563,4.652,2.939,6.986,4.301c1.178,0.705,2.369,1.327,3.563,1.998
				c1.176,0.638,2.352,1.311,3.561,1.916c4.803,2.501,9.641,4.904,14.545,7.171l0.855,0.403c0,0.067,0.033,0.118,0.066,0.184
				c0.504,0.925,4.703,8.516,9.658,10.649v0.504c0,0.083,0,0.184,0.016,0.269c1.193,7.373,7.223,42.677,14.275,49.444
				L284.205,314.922z"/>
			<path fill="#333334" d="M275.221,244.937c-0.018-0.318-0.119-0.604-0.254-0.823c-0.789-1.411-1.98-2.2-3.123-3.006
				c-1.176-0.772-2.334-1.443-3.492-2.149c-0.186-0.118-0.387-0.236-0.57-0.336c-0.707-0.437-1.395-0.856-2.1-1.26
				c-0.02,0-0.02,0-0.02,0c-0.25-0.167-0.52-0.32-0.787-0.471c-4.652-2.737-9.355-5.375-14.059-7.994l-7.07-3.879
				c-2.369-1.26-4.754-2.537-6.971-3.897c-0.303-0.169-0.52-0.336-0.789-0.503l-0.369-0.252c-0.135-0.1-0.117-0.1-0.201-0.151
				l-0.084-0.051h-0.018l-0.102-0.134l-0.082-0.083l-0.338-0.386l-0.688-0.756c-0.857-1.009-1.881-1.983-2.854-2.957
				c-1.229-1.209-2.42-2.334-3.646-3.443l3.141,0.42c2.082,0.285,4.199,0.589,6.266,0.958c1.947,1.125,3.879,2.334,5.76,3.594
				c1.916,1.26,3.762,2.637,5.627,3.997c1.848,1.361,3.678,2.739,5.508,4.131c1.814,1.378,3.662,2.739,5.51,4.066
				c3.695,2.687,7.373,5.374,10.781,8.331c1.664,1.478,3.359,3.023,4.469,4.786C275.119,243.459,275.455,244.248,275.221,244.937z"
				/>
			<path fill="#333334" d="M86.09,207.013c-1.074,1.243-2.133,2.486-3.174,3.746l-4.064,4.955c-2.268,0.688-4.484,1.411-6.701,2.149
				c-2.369,0.756-4.719,1.579-7.07,2.436c-2.334,0.874-4.67,1.73-7.004,2.621l-6.836,2.921l-0.1,0.051
				c-0.305,0.017-0.605,0.135-0.857,0.336c-0.018,0.016-0.051,0.051-0.117,0.1l-5.727,2.536l-3.41,1.747
				c-1.092,0.656-2.199,1.26-3.242,2l-1.561,1.125c-0.521,0.403-0.992,0.84-1.496,1.26c-0.906,0.823-1.746,1.73-2.469,2.788
				c0.018-0.035,0.018-0.051,0.018-0.083c0.168-0.589,0.369-1.176,0.537-1.747l0.773-1.679l0.939-1.58
				c0.352-0.52,0.738-1.007,1.092-1.511c0.789-0.958,1.596-1.916,2.486-2.805c0.873-0.907,1.83-1.73,2.787-2.554
				c0.957-0.839,1.947-1.612,2.973-2.385c1.043-0.74,2.066-1.494,3.123-2.199c1.041-0.756,2.15-1.412,3.209-2.134l3.258-2.083
				c2.168-1.376,4.4-2.687,6.684-3.946c1.125-0.638,2.27-1.243,3.428-1.849c1.143-0.62,2.334-1.158,3.51-1.712
				c1.158-0.555,2.367-1.042,3.578-1.545c1.158-0.487,2.35-0.924,3.525-1.344c2.334,0.017,4.637,0.067,6.971,0.167L86.09,207.013z"
				/>
			<path fill="#333334" d="M154.395,274.63c0,0.134-0.016,0.252-0.031,0.403c-0.051,0.42-0.17,0.907-0.305,1.378
				c-0.133,0.436-0.285,0.873-0.451,1.31l-5.979,8.112l-4.771,6.565l-2.064,2.89c-1.244-0.941-2.604-1.698-3.949-2.436
				c-1.846-1.025-3.744-1.949-5.625-2.872c-3.795-1.848-7.643-3.51-11.488-5.173l-11.588-4.872
				c-3.848-1.594-7.709-3.19-11.453-4.904c-1.85-0.873-3.746-1.729-5.359-2.703c-0.186-0.118-0.369-0.236-0.537-0.353l0.018-0.018
				c0.268-0.369,0.57-0.754,0.873-1.125c1.26-1.529,2.688-3.023,4.08-4.535c1.428-1.51,2.871-2.988,4.334-4.466l8.75-8.936
				c2.922-2.974,5.877-5.946,8.834-8.885l2.771-2.737l-3.779,0.083c-4.029,0.083-7.895,0.689-11.723,1.343l-11.438,2.066
				c-3.795,0.622-7.607,1.26-11.42,1.443c-1.883,0.085-3.797,0.085-5.559-0.285c-0.875-0.184-1.715-0.487-2.27-0.974
				c-0.535-0.487-0.756-1.142-0.688-1.931c0.051-0.336,0.102-0.958,0.219-1.311c0.1-0.42,0.234-0.84,0.385-1.292
				c0.287-0.874,0.639-1.747,1.025-2.604c0.789-1.729,1.68-3.408,2.619-5.071c1.865-3.343,3.914-6.583,6.049-9.775
				c2.131-3.208,4.35-6.347,6.6-9.472c2.15-3.006,4.299-6.013,6.531-8.936c0,0,0-0.017,0.018-0.017
				c0.168-0.083,0.42-0.185,0.605-0.234c0.352-0.102,0.721-0.202,1.107-0.236c0.758-0.1,1.545-0.067,2.318,0.084
				c0.789,0.152,1.596,0.371,2.369,0.74l0.166,0.067l0.119,0.067h0.016c0.035,0.033,0.119,0.067,0.119,0.083v0.017l0.166,0.169
				c0.27,0.269,0.555,0.571,0.84,0.923c1.16,1.427,2.301,3.09,3.395,4.737c1.09,1.662,2.166,3.359,3.24,5.071l6.332,10.346
				c2.117,3.459,4.283,6.885,6.467,10.33c2.166,3.442,4.432,6.818,6.734,10.193c2.301,3.359,4.635,6.718,7.121,9.977
				c2.469,3.257,5.021,6.482,7.775,9.574C148.5,269.34,151.238,272.161,154.395,274.63z"/>
			<path fill="#333334" d="M240.957,247.825c-0.033,0.202-0.049,0.387-0.084,0.521l-0.973-0.185l-1.965-0.385l-3.914-0.724
				l-7.859-1.394c-5.24-0.873-10.498-1.68-15.789-2.417c-2.635-0.369-5.273-0.74-7.943-1.007c-1.344-0.134-2.688-0.252-4.047-0.354
				l-2.066-0.117c-0.738-0.016-1.461-0.016-2.25,0.017c-0.555,0.067-1.125,0.185-1.664,0.32c-0.016,0-0.334,0.167-0.469,0.218
				l-0.035,0.033l-0.051,0.034c-0.1,0.067-0.318,0.235-0.451,0.386c-0.707,0.772-0.707,1.243-0.789,1.763
				c-0.02,0.772,0.166,1.243,0.285,1.528c0.268,0.638,0.504,0.991,0.756,1.343c0.234,0.353,0.469,0.656,0.705,0.941
				c0.939,1.158,1.898,2.132,2.854,3.106c1.916,1.949,3.881,3.763,5.846,5.577l11.756,10.699c1.814,1.645,3.645,3.343,5.174,5.022
				c-0.605,0.318-1.244,0.62-1.865,0.907c-4.734,2.216-9.623,4.282-14.494,6.331l-14.629,6.198l-14.66,6.213
				c-4.889,2.067-9.742,4.217-14.611,6.333c-4.855,2.132-9.742,4.215-14.563,6.449l-7.24,3.359c-1.98,0.958-3.945,1.898-5.877,2.99
				c3.291-3.711,6.5-7.49,9.725-11.252c1.762-2.049,3.492-4.132,5.223-6.215l0.807-0.974l0.018-0.016l0.016-0.017l0.033-0.035
				l4.301-5.222c1.479-1.814,2.955-3.645,4.434-5.458l0.016-0.018c1.932-2.385,3.846-4.77,5.744-7.187
				c3.359-4.25,6.736-8.499,10.012-12.814c3.273-4.317,6.584-8.617,9.74-13.05c0.789-1.093,1.563-2.234,2.352-3.359
				c0.789-1.092,1.563-2.234,2.301-3.426c0.369-0.622,0.738-1.125,1.107-1.83l1.025-2.049c0.555-1.21,1.041-2.554,1.645-3.662
				l1.73-3.494l1.883-3.559c1.242-2.387,2.586-4.737,3.861-7.105c2.504-4.484,5.039-8.969,7.625-13.402
				c4.77,1.26,9.49,2.939,14.023,4.988c2.385,1.108,4.705,2.317,6.92,3.695c2.166,1.443,4.215,3.055,5.861,4.971l1.109,1.527
				c0.336,0.538,0.672,1.127,0.99,1.698c0.623,1.141,1.244,2.317,1.814,3.493c1.176,2.351,2.25,4.753,3.209,7.206
				c0.939,2.452,1.813,4.92,2.502,7.423c0.334,1.242,0.639,2.501,0.789,3.712C240.941,246.7,240.975,247.305,240.957,247.825z"/>
			<path fill="#38889A" d="M194.148,217.813c-0.301,0.436-0.586,0.889-0.871,1.343c-1.445,2.301-2.924,4.568-4.318,6.902
				l-2.115,3.511l-1.73,3.023c-2.838,0.923-5.744,1.663-8.631,2.385c-3.344,0.84-6.734,1.494-10.111,2.083
				c-3.393,0.587-6.803,0.991-10.195,1.192c-3.408,0.167-6.801,0.218-10.16-0.085c-3.359-0.251-6.668-0.821-9.826-1.863
				c-3.141-1.009-6.113-2.52-8.682-4.586l-0.018-0.017l-5.172-8.145l-4.484-6.919c0.771,0.436,1.561,0.839,2.367,1.225
				c1.578,0.756,3.174,1.512,4.803,2.15c3.26,1.327,6.617,2.419,10.01,3.327c1.697,0.453,3.426,0.839,5.156,1.208
				c1.713,0.353,3.459,0.654,5.207,0.891c1.746,0.234,3.512,0.453,5.273,0.587c1.748,0.151,3.527,0.185,5.291,0.234
				c1.764,0,3.527-0.033,5.291-0.151c1.762-0.1,3.525-0.336,5.271-0.538c1.748-0.267,3.479-0.503,5.209-0.873
				c1.729-0.302,3.441-0.74,5.139-1.142c1.695-0.471,3.408-0.874,5.072-1.394c1.68-0.521,3.359-0.991,5.004-1.612
				c1.664-0.538,3.291-1.176,4.92-1.797C192.623,218.452,193.395,218.148,194.148,217.813z"/>
			<path fill="#2F7482" d="M183.854,235.045c-0.301,0.638-0.586,1.26-0.889,1.897l-0.117,0.218
				c-0.035,0.067-0.035,0.118-0.051,0.134c0,0-0.018,0-0.018,0.017v0.017l-0.033,0.051l-0.051,0.083l-0.201,0.336l-0.387,0.688
				c-0.27,0.471-0.723,1.075-1.059,1.596c-1.443,2.167-3.057,4.382-4.602,6.549l-9.572,13.067l-9.338,12.664l-0.219-0.186
				c-2.924-2.501-5.559-5.491-8.045-8.581c-2.504-3.09-4.871-6.315-7.17-9.606c-2.27-3.31-4.553-6.618-6.754-9.994l-3.996-6.249
				c1.227,0.656,2.469,1.21,3.746,1.68c3.424,1.278,7.02,1.983,10.596,2.335c3.594,0.302,7.189,0.269,10.732-0.067
				c3.545-0.32,7.055-0.875,10.516-1.58C172.736,238.907,178.379,237.195,183.854,235.045z"/>
			<g>
				<ellipse fill="#B3B3B3" cx="200.633" cy="270.821" rx="8.336" ry="5.46"/>
				<path fill="#000100" d="M208.969,270.821c0,0-0.012,0.171-0.034,0.491c-0.046,0.316-0.143,0.786-0.429,1.317
					c-0.272,0.534-0.729,1.122-1.373,1.661c-0.643,0.542-1.473,1.022-2.434,1.414c-0.963,0.387-2.069,0.663-3.262,0.773
					c-0.602,0.05-1.219,0.072-1.837,0.043c-0.64-0.037-1.284-0.099-1.931-0.243c-1.296-0.257-2.613-0.767-3.764-1.633
					c-1.13-0.871-2.098-2.188-2.107-3.861l0.042-0.511c0.026-0.184,0.083-0.397,0.129-0.592c0.118-0.378,0.264-0.728,0.463-1.051
					c0.386-0.65,0.903-1.191,1.472-1.631c1.151-0.866,2.468-1.378,3.765-1.634c2.594-0.526,5.104-0.199,7.031,0.575
					c1.937,0.761,3.276,1.994,3.806,3.076c0.286,0.531,0.383,1.001,0.429,1.317C208.957,270.65,208.969,270.821,208.969,270.821z
					 M208.969,270.821c0,0-0.015-0.17-0.041-0.49c-0.05-0.314-0.153-0.781-0.444-1.305c-0.277-0.527-0.738-1.109-1.402-1.61
					c-0.656-0.505-1.487-0.961-2.457-1.27c-1.921-0.629-4.38-0.767-6.79-0.104c-1.198,0.329-2.374,0.884-3.356,1.672
					c-0.954,0.831-1.69,1.853-1.683,3.144c0.002,0.515,0.172,1.157,0.478,1.666c0.307,0.524,0.727,0.994,1.203,1.403
					c0.983,0.789,2.158,1.346,3.357,1.674c0.597,0.176,1.209,0.276,1.798,0.352c0.613,0.07,1.205,0.089,1.779,0.08
					c1.156-0.029,2.248-0.222,3.215-0.537c0.969-0.308,1.8-0.765,2.457-1.27c0.663-0.501,1.124-1.083,1.401-1.61
					c0.291-0.523,0.395-0.99,0.444-1.305C208.954,270.992,208.969,270.821,208.969,270.821z"/>
			</g>
			<g>
				<ellipse fill="#B3B3B3" cx="106.484" cy="269.007" rx="9.176" ry="6.011"/>
				<path fill="#000100" d="M115.66,269.007c0,0-0.014,0.188-0.038,0.54c-0.05,0.348-0.157,0.865-0.472,1.449
					c-0.3,0.588-0.804,1.235-1.514,1.826c-0.707,0.595-1.62,1.123-2.679,1.55c-1.061,0.423-2.277,0.722-3.589,0.839
					c-0.66,0.053-1.339,0.075-2.019,0.041c-0.702-0.042-1.41-0.113-2.119-0.273c-1.421-0.287-2.864-0.85-4.122-1.799
					c-1.235-0.938-2.288-2.435-2.3-4.171l0.047-0.602c0.028-0.201,0.091-0.43,0.14-0.643c0.129-0.412,0.286-0.792,0.504-1.146
					c0.42-0.709,0.984-1.301,1.606-1.784c1.259-0.95,2.7-1.515,4.123-1.801c2.846-0.586,5.605-0.236,7.728,0.608
					c1.059,0.427,1.972,0.956,2.68,1.55c0.71,0.591,1.213,1.239,1.514,1.826c0.314,0.583,0.422,1.101,0.472,1.448
					C115.646,268.819,115.66,269.007,115.66,269.007z M115.66,269.007c0,0-0.016-0.188-0.045-0.54
					c-0.055-0.346-0.168-0.86-0.488-1.437c-0.305-0.581-0.813-1.222-1.542-1.774c-0.722-0.558-1.637-1.061-2.704-1.404
					c-2.115-0.7-4.824-0.86-7.486-0.137c-1.324,0.359-2.625,0.967-3.716,1.839c-1.058,0.897-1.883,2.099-1.87,3.455
					c-0.018,1.343,0.815,2.565,1.87,3.456c1.091,0.872,2.392,1.483,3.716,1.84c0.66,0.193,1.335,0.301,1.986,0.382
					c0.676,0.076,1.328,0.093,1.961,0.082c1.275-0.036,2.479-0.253,3.541-0.603c1.067-0.343,1.981-0.848,2.703-1.406
					c0.729-0.553,1.237-1.195,1.541-1.775c0.32-0.577,0.434-1.091,0.488-1.438C115.645,269.195,115.66,269.007,115.66,269.007z"/>
			</g>
			<g>
				
					<ellipse transform="matrix(0.9025 -0.4307 0.4307 0.9025 -93.2453 60.4711)" fill="#B3B3B3" cx="86.918" cy="236.153" rx="8.15" ry="5.339"/>
				<path fill="#000100" d="M94.273,232.642c0,0,0.062,0.156,0.176,0.448c0.094,0.297,0.206,0.753,0.178,1.342
					c-0.012,1.179-0.673,2.831-2.061,4.32c-0.687,0.749-1.547,1.458-2.553,2.06c-0.51,0.298-1.045,0.578-1.603,0.813
					c-0.581,0.238-1.176,0.455-1.808,0.601c-1.252,0.322-2.631,0.426-4.014,0.147c-1.358-0.279-2.794-1.085-3.478-2.492
					l-0.192-0.505c-0.055-0.174-0.095-0.387-0.137-0.579c-0.055-0.385-0.074-0.754-0.034-1.125c0.065-0.738,0.298-1.433,0.614-2.062
					c0.652-1.251,1.602-2.255,2.639-3.028c2.067-1.557,4.42-2.325,6.448-2.453c1.013-0.058,1.947,0.016,2.742,0.225
					c0.796,0.205,1.446,0.531,1.912,0.887c0.476,0.348,0.759,0.722,0.932,0.982C94.191,232.497,94.273,232.642,94.273,232.642z
					 M94.273,232.642c0,0-0.084-0.145-0.243-0.415c-0.176-0.257-0.464-0.625-0.941-0.964c-0.467-0.348-1.118-0.668-1.915-0.83
					c-0.792-0.169-1.718-0.222-2.702-0.085c-1.96,0.255-4.187,1.171-6.032,2.772c-0.918,0.795-1.719,1.781-2.253,2.889
					c-0.496,1.119-0.694,2.377-0.173,3.439c0.491,1.063,1.606,1.717,2.783,2.027c1.197,0.282,2.467,0.277,3.662,0.063
					c0.601-0.095,1.183-0.264,1.733-0.444c0.571-0.196,1.102-0.428,1.604-0.677c1.009-0.511,1.892-1.14,2.611-1.824
					c0.727-0.68,1.268-1.432,1.634-2.154c0.375-0.721,0.537-1.429,0.56-2.01c0.036-0.585-0.068-1.04-0.157-1.338
					C94.332,232.799,94.273,232.642,94.273,232.642z"/>
			</g>
			<g>
				
					<ellipse transform="matrix(0.9447 0.3281 -0.3281 0.9447 91.4083 -62.4103)" fill="#B3B3B3" cx="230.683" cy="239.721" rx="6.259" ry="4.101"/>
				<path fill="#000100" d="M236.596,241.774c0,0-0.05,0.118-0.145,0.34c-0.109,0.213-0.293,0.524-0.626,0.831
					c-0.644,0.639-1.894,1.19-3.46,1.269c-0.781,0.046-1.639-0.022-2.521-0.229c-0.443-0.109-0.892-0.242-1.325-0.41
					c-0.452-0.181-0.899-0.381-1.33-0.641c-0.87-0.497-1.697-1.183-2.317-2.098c-0.604-0.912-0.985-2.115-0.561-3.368l0.156-0.352
					c0.066-0.128,0.164-0.275,0.249-0.409c0.187-0.25,0.382-0.468,0.61-0.654c0.448-0.378,0.963-0.639,1.486-0.811
					c1.054-0.333,2.129-0.361,3.12-0.21c1.985,0.29,3.684,1.163,4.855,2.205c1.182,1.033,1.819,2.241,1.928,3.141
					c0.07,0.447,0.022,0.805-0.023,1.04C236.63,241.65,236.596,241.774,236.596,241.774z M236.596,241.774
					c0,0,0.031-0.125,0.091-0.358c0.042-0.235,0.083-0.592,0.005-1.035c-0.113-0.892-0.813-2.071-2.043-2.972
					c-1.213-0.902-2.926-1.58-4.783-1.681c-0.922-0.049-1.878,0.065-2.746,0.38c-0.861,0.361-1.59,0.864-1.892,1.757
					c-0.112,0.326-0.156,0.812-0.067,1.227c0.084,0.43,0.258,0.854,0.485,1.254c0.486,0.786,1.164,1.47,1.92,2.002
					c0.373,0.274,0.776,0.5,1.168,0.7c0.416,0.206,0.827,0.368,1.231,0.507c0.819,0.273,1.637,0.414,2.397,0.438
					c1.522,0.053,2.803-0.438,3.445-1.068c0.336-0.299,0.524-0.604,0.638-0.814C236.543,241.892,236.596,241.774,236.596,241.774z"
					/>
			</g>
			<g>
				<path fill="#B3B3B3" d="M243.871,218.642c-0.59,1.258-3.438,1.167-6.365-0.202c-2.928-1.368-4.826-3.494-4.24-4.75
					c0.588-1.256,3.438-1.166,6.365,0.204C242.559,215.26,244.455,217.385,243.871,218.642z"/>
				<path fill="#000100" d="M243.917,218.66l-0.003,0.008c0,0-0.043,0.096-0.164,0.262c-0.134,0.175-0.384,0.36-0.743,0.51
					c-0.724,0.292-1.854,0.381-3.166,0.183c-0.657-0.095-1.36-0.266-2.069-0.541c-0.36-0.133-0.724-0.3-1.06-0.471
					c-0.364-0.188-0.723-0.39-1.074-0.612c-0.691-0.468-1.376-1.012-1.957-1.707c-0.289-0.348-0.554-0.736-0.743-1.192
					c-0.183-0.444-0.291-1.034-0.035-1.579c0.115-0.18,0.102-0.187,0.225-0.326c0.106-0.117,0.226-0.235,0.335-0.295
					c0.221-0.155,0.46-0.246,0.691-0.308c0.467-0.125,0.927-0.149,1.37-0.13c0.887,0.045,1.721,0.244,2.5,0.498
					c1.555,0.515,2.887,1.291,3.893,2.118c1.002,0.826,1.693,1.688,1.971,2.402c0.136,0.357,0.156,0.668,0.119,0.874
					C243.963,218.557,243.918,218.658,243.917,218.66z M243.825,218.62c-0.021,0.009,0.246-0.398-0.032-1.102
					c-0.246-0.699-1.01-1.501-2.053-2.203c-1.049-0.698-2.383-1.362-3.888-1.799c-0.751-0.209-1.55-0.36-2.345-0.364
					c-0.766-0.01-1.657,0.194-1.88,0.708c-0.204,0.513,0.243,1.267,0.761,1.813c0.537,0.563,1.169,1.046,1.815,1.454
					c0.321,0.213,0.645,0.403,0.961,0.578c0.335,0.168,0.663,0.333,0.981,0.493c0.643,0.297,1.262,0.558,1.852,0.758
					c1.174,0.389,2.252,0.524,2.948,0.309c0.348-0.097,0.583-0.27,0.706-0.403C243.771,218.719,243.822,218.626,243.825,218.62z"/>
			</g>
			<g>
				<path fill="#B3B3B3" d="M78.398,211.051c0.318,1.352-1.969,3.047-5.113,3.793c-3.145,0.747-5.953,0.259-6.275-1.089
					c-0.318-1.35,1.973-3.049,5.115-3.794C75.27,209.214,78.076,209.703,78.398,211.051z"/>
				<path fill="#000100" d="M78.445,211.037l0.003,0.009c0,0,0.026,0.102,0.034,0.307c0.004,0.221-0.078,0.521-0.266,0.861
					c-0.387,0.677-1.218,1.45-2.369,2.109c-0.574,0.333-1.231,0.637-1.958,0.861c-0.364,0.119-0.753,0.213-1.122,0.289
					c-0.402,0.078-0.809,0.143-1.223,0.188c-0.832,0.063-1.706,0.061-2.594-0.123c-0.442-0.093-0.891-0.233-1.322-0.473
					c-0.419-0.234-0.87-0.63-1.008-1.216c-0.021-0.213-0.036-0.209-0.026-0.396c0.011-0.159,0.031-0.325,0.08-0.439
					c0.076-0.259,0.208-0.478,0.352-0.67c0.289-0.388,0.634-0.692,0.992-0.953c0.723-0.516,1.501-0.877,2.269-1.163
					c1.539-0.563,3.065-0.781,4.367-0.757c1.299,0.025,2.376,0.272,3.036,0.659c0.328,0.196,0.538,0.428,0.637,0.612
					C78.418,210.928,78.445,211.034,78.445,211.037z M78.349,211.063c-0.011,0.021-0.054-0.464-0.709-0.844
					c-0.627-0.395-1.724-0.549-2.978-0.453c-1.255,0.104-2.714,0.412-4.164,1.004c-0.719,0.302-1.438,0.68-2.064,1.17
					c-0.606,0.468-1.178,1.182-1.035,1.723c0.16,0.529,0.979,0.842,1.723,0.949c0.771,0.108,1.566,0.094,2.326,0.012
					c0.383-0.033,0.756-0.084,1.111-0.144c0.367-0.076,0.727-0.15,1.076-0.223c0.688-0.166,1.336-0.346,1.922-0.555
					c1.161-0.424,2.092-0.987,2.503-1.588c0.213-0.291,0.289-0.573,0.304-0.754C78.368,211.174,78.351,211.07,78.349,211.063z"/>
			</g>
		</g>
		<path fill="#000100" d="M91.877,84.937c-0.014-0.051-0.047-0.085-0.08-0.121l0.004,0.269
			C91.82,85.037,91.857,84.988,91.877,84.937z"/>
	</g>
</g>
</svg>
