<?xml version="1.0" encoding="utf-8"?>
<!-- Generator: Adobe Illustrator 16.0.0, SVG Export Plug-In . SVG Version: 6.00 Build 0)  -->
<!DOCTYPE svg PUBLIC "-//W3C//DTD SVG 1.1//EN" "http://www.w3.org/Graphics/SVG/1.1/DTD/svg11.dtd">
<svg version="1.1" id="Capa_1" xmlns="http://www.w3.org/2000/svg" xmlns:xlink="http://www.w3.org/1999/xlink" x="0px" y="0px"
	 width="300px" height="300px" viewBox="0 0 300 300" enable-background="new 0 0 300 300" xml:space="preserve">
<g>
	<defs>
		<rect id="SVGID_5_" y="-319.999" width="300" height="299.998"/>
	</defs>
	<clipPath id="SVGID_2_">
		<use xlink:href="#SVGID_5_"  overflow="visible"/>
	</clipPath>
	<g clip-path="url(#SVGID_2_)">
		<g>
			<g>
				<path fill="#000100" d="M247.837-179.424c-0.315-0.347-0.695-0.668-1.04-0.996c-0.387-0.318-0.908-0.771-1.21-0.944
					l-0.591-0.396l-0.449-0.284c-0.312-0.18-0.577-0.403-0.866-0.606c-1.112-0.854-2.06-1.871-2.795-3.07
					c-0.718-1.207-1.21-2.595-1.46-4.086c-0.235-1.487-0.308-3.063-0.21-4.659c0.082-1.6,0.345-3.21,0.62-4.834
					c0.27-1.625,0.653-3.249,0.893-4.9c-1.303,3.051-2.746,6.065-3.553,9.419c-0.416,1.667-0.698,3.413-0.666,5.221
					c0.02,1.805,0.342,3.671,1.053,5.447c0.729,1.762,1.821,3.428,3.199,4.748c0.348,0.321,0.686,0.668,1.056,0.955l0.552,0.447
					c0.013,0.028,0.275,0.239,0.399,0.35c0.378,0.298,0.43,0.449,0.666,0.671c0.22,0.275,0.453,0.512,0.659,0.809
					c1.726,2.281,2.949,5.112,3.799,7.938c1.656,5.736,1.23,11.806-1.19,16.903c-0.634,1.266-1.313,2.513-2.162,3.67
					c-0.81,1.176-1.771,2.264-2.765,3.321l-1.592,1.518c-0.567,0.474-1.111,0.971-1.695,1.434l-1.795,1.342l-1.164,0.777
					c-0.978,0.09-2.424-0.04-3.907-0.439c-1.771-0.456-3.631-1.15-5.472-1.964c-3.713-1.594-7.387-3.64-11.008-5.791
					c-3.628-2.152-7.181-4.496-10.717-6.886c-3.514-2.414-7.007-4.893-10.406-7.466c-1.681-1.289-3.415-2.573-4.965-3.876
					l-0.92-0.802l-1.081-1.204c-0.769-0.838-1.55-1.647-2.34-2.446c-3.151-3.205-6.616-6.072-10.27-8.682
					c-3.641-2.619-7.643-4.789-11.85-6.387c-3.075-1.103-6.345-1.837-9.572-1.875c0.082-0.083,0.147-0.177,0.236-0.256
					c0.748-0.807,1.61-1.517,2.428-2.209c0.843-0.661,1.659-1.291,2.397-1.824c1.555-1.094,2.59-1.822,2.59-1.822
					s-1.354-0.341-3.321,0.048c-1.967,0.321-4.548,1.443-6.487,3.451c-0.493,0.483-0.935,1.019-1.313,1.591
					c-0.423,0.533-0.698,1.158-0.984,1.735c-0.312,0.565-0.445,1.19-0.616,1.747c-0.188,0.556-0.229,1.115-0.272,1.622
					c-0.141,0.998-0.012,1.845,0.084,2.421c0.097,0.577,0.186,0.896,0.186,0.896s0.193-0.294,0.474-0.788
					c0.136-0.249,0.307-0.543,0.464-0.881c0.154-0.337,0.434-0.682,0.635-1.074c0.225-0.387,0.454-0.802,0.755-1.2
					c0.293-0.403,0.52-0.857,0.873-1.256c0.329-0.41,0.618-0.856,0.998-1.25c0.072-0.086,0.156-0.163,0.229-0.248
					c3.249,0.686,6.288,1.986,9.093,3.615c3.679,2.057,6.956,4.743,10.087,7.548c3.121,2.829,5.947,5.984,8.663,9.183
					c0.669,0.808,1.327,1.624,1.957,2.446l0.983,1.313c0.609,0.723,0.952,1.04,1.393,1.489c1.658,1.624,3.275,3.104,4.967,4.55
					c6.723,5.753,13.76,11.058,21.321,15.819c3.788,2.37,7.722,4.564,11.966,6.452c0.82,0.351,1.667,0.672,2.52,0.99
					c-0.391,0.569-0.859,1.16-1.47,1.74c-1.354,1.35-3.428,2.476-5.928,3.439c-1.256,0.471-2.65,0.874-4.13,1.219
					c-0.757,0.143-1.446,0.341-2.279,0.495c-0.413,0.079-0.83,0.159-1.253,0.239l-0.637,0.122l-0.406,0.032
					c-1.273,0.07-2.942-0.188-4.626-0.587c-1.699-0.403-3.493-0.907-5.323-1.519c-3.668-1.204-7.526-2.716-11.493-4.354
					c-3.968-1.648-8.042-3.454-12.175-5.324c-4.119-1.893-8.306-3.83-12.444-5.86c-4.159-1.986-8.272-4.067-12.283-6.136
					c-1.996-1.05-3.966-2.103-5.87-3.159c-1.878-1.051-3.777-2.181-5.242-3.214c-0.128-0.087-0.254-0.186-0.365-0.274v-0.002
					c-0.233-1.256-0.551-2.402-0.925-3.513c-0.738-2.216-1.644-4.271-2.693-6.182c-1.058-1.906-2.228-3.679-3.507-5.281
					c-0.63-0.782-1.345-1.575-2.042-2.313c-0.326-0.32-0.651-0.635-0.971-0.946l-0.377-0.374c-0.104-0.082-0.189-0.184-0.268-0.294
					c-0.702-0.815-1.071-2.144-1.199-3.507c-0.155-1.371-0.09-2.791,0.07-4.126c0.352-2.679,0.929-5.071,1.479-7.016
					c1.129-3.895,2.001-6.103,2.001-6.103s-0.375,0.458-1.01,1.366c-0.62,0.915-1.555,2.257-2.558,4.084
					c-1.009,1.824-2.189,4.091-3.095,6.962c-0.456,1.438-0.857,3.026-1.007,4.849c-0.118,1.793-0.003,3.946,1.19,6.104
					c0.142,0.27,0.302,0.531,0.495,0.779l0.479,0.647c0.272,0.356,0.546,0.714,0.823,1.076c0.458,0.669,0.9,1.327,1.352,2.09
					c0.897,1.479,1.722,3.073,2.416,4.774c0.702,1.692,1.312,3.485,1.727,5.319c0.207,0.911,0.388,1.84,0.479,2.707
					c0.036,0.225,0.032,0.419,0.054,0.629l0.005,0.078l0.004,0.038l0.057,0.4l0.009,0.051l0.047,0.215
					c0.066,0.272,0.195,0.616,0.287,0.805c0.261,0.54,0.48,0.822,0.666,1.068c0.726,0.887,1.207,1.266,1.726,1.724
					c1.759,1.47,3.451,2.578,5.187,3.691c-0.874,1.1-2.1,2.688-3.596,4.754c-1.545,2.127-3.382,4.741-5.386,7.809
					c-1.969,3.087-4.262,6.544-6.463,10.479c-1.118,1.959-2.349,3.97-3.51,6.108c-1.162,2.137-2.301,4.381-3.508,6.67
					c-2.403,4.586-4.706,9.539-7.081,14.67c-1.096,2.605-2.207,5.255-3.334,7.937c-0.56,1.343-1.122,2.694-1.688,4.055
					c-0.541,1.367-1.018,2.769-1.532,4.161c-1.007,2.794-2.023,5.612-3.042,8.439c-1.039,2.823-1.813,5.747-2.731,8.622
					c-0.857,2.896-1.714,5.79-2.568,8.675c-0.707,2.925-1.412,5.838-2.112,8.729c-0.663,2.897-1.456,5.74-1.936,8.619
					c-0.504,2.871-1,5.707-1.489,8.497c-0.236,1.396-0.469,2.78-0.702,4.149c-0.239,1.37-0.479,2.725-0.58,4.088
					c-0.272,2.712-0.542,5.364-0.803,7.947c-0.254,2.579-0.5,5.087-0.739,7.513c-0.125,2.438-0.135,4.801-0.203,7.061
					c-0.111,4.521-0.214,8.656-0.138,12.321c0.189,3.67,0.445,6.86,0.636,9.482c0.394,5.242,0.717,8.214,0.717,8.214
					s0.408-2.996,0.953-8.197c0.266-2.6,0.61-5.75,0.905-9.354c0.516-3.584,1.096-7.627,1.729-12.037
					c0.322-2.199,0.593-4.494,0.984-6.853c0.441-2.352,0.897-4.784,1.364-7.284c0.463-2.494,0.936-5.058,1.421-7.679
					c0.478-2.618,1.176-5.257,1.77-7.958c0.605-2.696,1.221-5.438,1.844-8.216c0.277-1.394,0.672-2.771,1.058-4.157
					c0.371-1.392,0.741-2.789,1.115-4.191c0.738-2.806,1.482-5.634,2.23-8.473c0.856-2.81,1.716-5.631,2.575-8.451
					c0.876-2.816,1.604-5.679,2.598-8.445c0.938-2.785,1.873-5.561,2.8-8.314c1.773-5.535,3.951-10.831,5.766-16.071
					c1.014-2.582,2.009-5.119,2.985-7.603c0.961-2.492,1.876-4.944,2.897-7.273c1.993-4.683,3.794-9.159,5.624-13.218
					c1.769-4.091,3.5-7.789,4.981-11.107c1.564-3.269,2.868-6.167,4.02-8.511c1.114-2.278,1.991-4.072,2.604-5.325
					c0.082,0.051,0.161,0.103,0.243,0.155c1.963,1.248,3.969,2.428,6.01,3.569c4.064,2.311,8.272,4.453,12.513,6.532
					c4.263,2.034,8.555,3.997,12.86,5.766c4.294,1.791,8.588,3.409,12.816,4.822c4.228,1.415,8.394,2.614,12.472,3.484
					c2.044,0.415,4.058,0.786,6.089,0.962c2.037,0.157,4.041,0.247,6.242-0.202c3.763-1.087,6.722-2.395,9.352-3.976
					c2.592-1.547,4.622-3.396,5.81-5.262c0.574-0.848,0.941-1.666,1.197-2.417c1.054,0.365,2.133,0.705,3.268,0.987
					c2.438,0.553,5.13,1.084,8.463,0.29l0.709-0.169l0.521-0.367l2.201-1.556c0.722-0.541,1.423-1.121,2.132-1.683
					c1.391-1.174,2.726-2.436,3.969-3.798c1.218-1.399,2.382-2.851,3.386-4.44c1.033-1.563,1.896-3.254,2.614-5.001
					c1.391-3.51,2.188-7.298,2.093-11.036c-0.032-3.741-0.81-7.394-2.09-10.799C252.298-173.539,250.441-176.695,247.837-179.424z
					 M139.585-154.924l-0.009-0.063l-0.02-0.123c-0.013-0.08-0.026-0.157-0.037-0.239c0.005,0.019,0.011,0.039,0.015,0.056
					c0.032,0.164,0.027,0.152,0.021,0.118l-0.012-0.049C139.527-155.317,139.634-154.584,139.585-154.924z"/>
				<path fill="#000100" d="M75.637-211.111c0.014-0.118,0.026-0.215,0.04-0.313c0.22-0.347,0.437-0.695,0.659-1.03
					c1.456-2.288,2.819-4.43,4.081-6.411c1.314-1.945,2.525-3.731,3.618-5.346c2.24-3.187,3.993-5.719,5.281-7.367
					c1.259-1.676,1.98-2.534,1.98-2.534s-0.834,0.746-2.322,2.232c-0.761,0.729-1.666,1.658-2.709,2.771
					c-1.042,1.111-2.29,2.359-3.545,3.867c-1.285,1.487-2.709,3.136-4.259,4.931c-1.5,1.833-3.058,3.865-4.76,6.016
					c-1.734,2.131-3.405,4.516-5.223,6.997c-1.784,2.503-3.729,5.098-5.537,7.943c-1.852,2.822-3.782,5.763-5.778,8.806
					c-1.962,3.067-3.782,6.355-5.769,9.677c-4.053,6.604-7.722,13.886-11.654,21.357c-1.929,3.755-3.674,7.672-5.561,11.585
					c-1.822,3.939-3.845,7.856-5.455,11.981c-1.689,4.095-3.392,8.222-5.099,12.363c-0.854,2.073-1.711,4.147-2.567,6.226
					l-2.322,6.331c-1.499,4.238-3.002,8.478-4.494,12.701c-0.729,2.117-1.537,4.204-2.191,6.333
					c-0.659,2.127-1.315,4.249-1.968,6.362c-1.325,4.22-2.582,8.425-3.809,12.583c-0.616,2.076-1.23,4.142-1.84,6.191
					c-0.53,2.071-1.057,4.128-1.58,6.167c-0.661,2.563-1.297,5.093-1.922,7.604l-0.156,0.082c0,0,0.04,0.063,0.099,0.152
					c-1.342,5.392-2.607,10.658-3.821,15.725c-1.554,7.572-2.908,14.748-4.156,21.361c-0.62,3.305-1.215,6.472-1.781,9.484
					c-0.427,3.028-0.831,5.9-1.21,8.6c-0.77,5.395-1.351,10.115-1.851,13.999c-0.517,3.88-0.828,6.945-1.081,9.028
					c-0.242,2.087-0.37,3.198-0.37,3.198s0.282-1.082,0.814-3.112c0.521-2.034,1.342-5.005,2.269-8.808
					c0.945-3.799,2.117-8.409,3.361-13.715c0.636-2.649,1.316-5.469,2.033-8.44c0.799-2.94,1.639-6.033,2.516-9.259
					c1.747-6.449,3.637-13.425,5.515-20.821c0.147-0.501,0.305-1.016,0.454-1.518c0.081,0.12,0.151,0.254,0.234,0.367
					c0.456,0.64,1.014,1.13,1.52,1.479c0.261,0.162,0.527,0.27,0.742,0.381c0.21,0.124,0.438,0.134,0.603,0.186
					C6.997-34.644,7.188-34.6,7.188-34.6s-0.171-0.092-0.469-0.254c-0.142-0.092-0.338-0.147-0.502-0.321
					c-0.168-0.158-0.373-0.309-0.558-0.511c-0.354-0.43-0.697-0.959-0.932-1.599c-0.235-0.637-0.41-1.337-0.484-2.065
					c-0.002-0.011-0.002-0.021-0.002-0.032c0.653-2.18,1.315-4.385,1.988-6.625c0.886,0.912,1.82,1.836,2.87,2.66
					c0.613,0.511,1.257,0.986,1.936,1.399c0.637,0.459,1.354,0.789,2.022,1.127c0.654,0.364,1.393,0.517,2.025,0.759
					c0.663,0.183,1.323,0.231,1.902,0.338c0.594,0.036,1.146-0.032,1.621-0.042c0.481,0.021,0.877-0.178,1.208-0.241
					c0.655-0.181,1.028-0.282,1.028-0.282s-0.384,0.051-1.054,0.14c-0.335,0.02-0.729,0.16-1.196,0.073
					c-0.462-0.056-0.984-0.059-1.531-0.167c-0.542-0.181-1.137-0.304-1.725-0.555c-0.565-0.316-1.205-0.529-1.771-0.956
					c-0.575-0.4-1.182-0.779-1.72-1.292c-0.569-0.463-1.103-0.984-1.611-1.537c-1.039-1.072-1.941-2.28-2.765-3.416
					c-0.157-0.233-0.292-0.451-0.443-0.68c0.588-1.968,1.175-3.959,1.759-5.97c0.201,0.318,0.411,0.636,0.641,0.944
					c0.479,0.675,1.059,1.294,1.657,1.798c0.597,0.51,1.255,0.854,1.828,1.072c0.292,0.096,0.578,0.135,0.813,0.19
					c0.233,0.072,0.456,0.026,0.627,0.036c0.343-0.005,0.538-0.008,0.538-0.008s-0.188-0.05-0.519-0.135
					c-0.157-0.054-0.36-0.063-0.561-0.191c-0.204-0.113-0.438-0.21-0.666-0.363c-0.446-0.331-0.907-0.764-1.286-1.33
					c-0.382-0.559-0.718-1.198-0.966-1.888c-0.523-1.356-0.786-2.817-0.917-3.905c-0.012-0.09-0.017-0.16-0.026-0.244
					c0.584-1.999,1.171-4.017,1.764-6.047c0.669-2.008,1.343-4.028,2.021-6.063c1.365-4.064,2.733-8.181,4.052-12.349
					c0.669-2.079,1.342-4.169,2.014-6.266c0.67-2.096,1.491-4.145,2.23-6.228c1.522-4.15,3.048-8.318,4.573-12.486l2.232-6.269
					c0.821-2.057,1.644-4.111,2.463-6.163c0.979-2.451,1.949-4.878,2.922-7.313c0.321,0.424,0.646,0.849,1,1.289
					c0.975,1.141,2.032,2.336,3.237,3.394c0.588,0.543,1.204,1.054,1.857,1.504c0.611,0.494,1.309,0.861,1.958,1.235
					c0.633,0.398,1.363,0.591,1.981,0.869c0.652,0.217,1.309,0.304,1.883,0.439c0.59,0.069,1.145,0.03,1.62,0.046
					c0.479,0.048,0.884-0.128,1.219-0.175c0.663-0.143,1.042-0.225,1.042-0.225s-0.386,0.029-1.06,0.082
					c-0.335,0.001-0.735,0.119-1.197,0.008c-0.46-0.08-0.979-0.111-1.522-0.249c-0.528-0.21-1.118-0.366-1.691-0.649
					c-0.548-0.347-1.176-0.594-1.717-1.05c-0.553-0.432-1.139-0.844-1.646-1.386c-0.543-0.492-1.048-1.042-1.524-1.622
					c-0.979-1.127-1.815-2.382-2.574-3.562c-0.639-1.064-1.192-2.063-1.655-2.981c0.253-0.63,0.509-1.271,0.761-1.901
					c0.455-1.188,0.945-2.359,1.447-3.521c0.184,0.286,0.362,0.573,0.563,0.851c0.562,0.808,1.242,1.547,1.945,2.152
					c0.332,0.319,0.748,0.536,1.084,0.782c0.364,0.217,0.75,0.355,1.076,0.51c0.347,0.118,0.685,0.167,0.966,0.236
					c0.279,0.089,0.545,0.038,0.748,0.051c0.41,0,0.645-0.002,0.645-0.002s-0.228-0.051-0.625-0.141
					c-0.193-0.06-0.44-0.061-0.686-0.207c-0.249-0.128-0.537-0.236-0.819-0.41c-0.265-0.213-0.567-0.403-0.84-0.662
					c-0.25-0.295-0.555-0.54-0.781-0.894c-0.487-0.663-0.925-1.426-1.253-2.249c-0.374-0.871-0.651-1.776-0.864-2.634
					c0.768-1.771,1.53-3.533,2.291-5.288c0.275,0.602,0.596,1.185,0.963,1.688c0.458,0.64,1.014,1.13,1.519,1.479
					c0.261,0.162,0.528,0.27,0.743,0.381c0.21,0.124,0.439,0.134,0.603,0.186c0.333,0.075,0.522,0.119,0.522,0.119
					s-0.17-0.092-0.469-0.254c-0.143-0.092-0.338-0.147-0.502-0.321c-0.169-0.158-0.374-0.309-0.558-0.511
					c-0.354-0.43-0.698-0.959-0.932-1.599c-0.236-0.637-0.41-1.337-0.485-2.065c-0.092-0.718-0.113-1.444-0.095-2.13
					c1.32-3.064,2.61-6.118,4.002-9.063c1.789-3.751,3.604-7.414,5.281-11.052c1.642-3.657,3.45-7.126,5.212-10.508
					c1.762-3.379,3.421-6.704,5.127-9.859c1.735-3.143,3.412-6.18,5.021-9.095c0.009-0.013,0.015-0.026,0.021-0.039
					c0.157,0.538,0.335,1.084,0.561,1.622c0.304,0.77,0.717,1.511,1.178,2.142c0.458,0.64,1.014,1.13,1.519,1.479
					c0.263,0.164,0.528,0.27,0.745,0.381c0.21,0.125,0.437,0.135,0.601,0.186c0.333,0.075,0.522,0.119,0.522,0.119
					s-0.17-0.092-0.471-0.254c-0.141-0.092-0.336-0.147-0.5-0.321c-0.169-0.157-0.372-0.309-0.56-0.511
					c-0.353-0.43-0.695-0.959-0.93-1.599c-0.234-0.637-0.408-1.337-0.483-2.065c-0.184-1.441-0.089-2.922,0.044-4.01
					c0.063-0.545,0.142-0.994,0.198-1.301c0.015-0.068,0.023-0.104,0.033-0.16c0.806-1.334,1.604-2.631,2.349-3.92
					c0.312-0.527,0.615-1.047,0.918-1.563c0.098,0.743,0.214,1.521,0.354,2.334c0.297,1.468,0.644,3.026,1.185,4.536
					c0.249,0.76,0.541,1.505,0.896,2.215c0.295,0.728,0.729,1.389,1.113,2.03c0.362,0.656,0.907,1.178,1.314,1.721
					c0.462,0.505,0.997,0.898,1.43,1.297c0.485,0.347,0.987,0.581,1.396,0.825c0.396,0.274,0.835,0.316,1.153,0.438
					c0.647,0.196,1.019,0.308,1.019,0.308s-0.353-0.16-0.966-0.442c-0.296-0.161-0.702-0.251-1.053-0.572
					c-0.361-0.292-0.801-0.573-1.209-0.957c-0.361-0.439-0.801-0.86-1.165-1.387c-0.312-0.569-0.739-1.09-0.992-1.75
					c-0.275-0.646-0.587-1.29-0.77-2.011c-0.235-0.694-0.411-1.419-0.546-2.157c-0.31-1.461-0.433-2.964-0.524-4.363
					c-0.05-1.408-0.053-2.721,0.008-3.846C75.475-209.535,75.566-210.467,75.637-211.111z"/>
			</g>
		</g>
	</g>
</g>
<g>
	<defs>
		<rect id="SVGID_23_" width="300" height="300"/>
	</defs>
	<clipPath id="SVGID_4_">
		<use xlink:href="#SVGID_23_"  overflow="visible"/>
	</clipPath>
	<g clip-path="url(#SVGID_4_)">
		<path fill="#BAD9D3" d="M300,0H0v270.717c0.292-1.192,0.576-2.365,0.876-3.57c-0.059-0.091-0.099-0.153-0.099-0.153l0.156-0.081
			c0.625-2.512,1.261-5.041,1.922-7.604c0.523-2.038,1.05-4.095,1.58-6.167c0.61-2.05,1.224-4.115,1.84-6.191
			c1.227-4.157,2.483-8.363,3.808-12.583c0.653-2.112,1.309-4.235,1.968-6.362c0.654-2.129,1.463-4.215,2.191-6.333
			c1.492-4.223,2.995-8.463,4.494-12.701l2.322-6.331c0.856-2.078,1.712-4.152,2.567-6.226c1.708-4.142,3.41-8.269,5.099-12.363
			c1.611-4.125,3.633-8.042,5.455-11.981c1.886-3.913,3.631-7.83,5.56-11.585c3.933-7.472,7.602-14.754,11.655-21.357
			c1.986-3.321,3.807-6.61,5.768-9.677c1.996-3.043,3.927-5.983,5.778-8.807c1.808-2.846,3.753-5.44,5.537-7.943
			c1.817-2.481,3.489-4.866,5.222-6.996c1.703-2.15,3.261-4.183,4.76-6.017c1.55-1.794,2.974-3.442,4.26-4.93
			c1.254-1.508,2.502-2.756,3.544-3.868c1.043-1.111,1.948-2.042,2.709-2.77c0.978-0.978,5.553-6.9,8.581-10.854
			c-0.298,0.29-0.459,0.449-0.459,0.449s1.086-1.473,3.171-4.002c0.003-0.004,0.006-0.01,0.013-0.019
			c-0.001,0.004-0.005,0.007-0.006,0.009c0.005-0.005,0.026-0.035,0.026-0.035s-0.012,0.016-0.02,0.026
			c0.912-1.105,1.995-2.391,3.292-3.879c4.281-4.896,10.622-11.722,18.957-19.199c4.166-3.739,8.798-7.683,14.035-11.478
			c5.262-3.781,10.894-7.66,17.788-10.486c0.918-0.384,1.736-0.669,2.554-0.952c0.874-0.274,1.753-0.55,2.634-0.827
			c1.721-0.539,3.479-1.012,5.248-1.48c3.542-0.941,7.196-1.68,10.916-2.211c7.435-1.081,15.175-1.385,22.865-0.517
			c7.671,0.941,15.265,3.035,22.16,6.39c6.933,3.285,13.039,7.927,18.079,13.149c5.078,5.212,8.954,11.162,11.76,17.147
			c2.834,5.984,4.501,12.085,5.175,17.809c0.697,5.732,0.326,11.083-0.979,15.667c-0.154,0.585-0.338,1.077-0.502,1.608
			c-0.232,0.601-0.425,1.098-0.655,1.628c-0.497,1.023-1.05,1.982-1.726,2.791c-1.315,1.661-2.824,2.762-4.045,3.78
			c-1.236,1.016-2.228,1.996-3.001,2.954c-0.748,0.966-1.315,1.875-1.679,2.646c-0.319,0.592-0.513,1.071-0.669,1.467
			c-1.369,3.085-2.429,9.675-2.65,11c-0.275,1.624-0.538,3.234-0.62,4.834c-0.097,1.596-0.026,3.172,0.212,4.659
			c0.248,1.491,0.739,2.879,1.458,4.086c0.736,1.199,1.685,2.216,2.796,3.07c0.289,0.203,0.555,0.427,0.866,0.606l0.45,0.284
			l0.59,0.396c0.302,0.174,0.823,0.626,1.211,0.944c0.344,0.328,0.725,0.649,1.039,0.996c2.604,2.729,4.462,5.885,5.771,9.291
			c1.279,3.405,2.057,7.058,2.088,10.799c0.095,3.738-0.7,7.526-2.091,11.036c-0.719,1.747-1.583,3.438-2.615,5.001
			c-1.003,1.59-2.17,3.041-3.385,4.44c-1.245,1.362-2.58,2.624-3.969,3.798c-0.709,0.562-1.411,1.142-2.133,1.684l-2.202,1.555
			l-0.522,0.367l-0.706,0.169c-3.335,0.794-6.028,0.263-8.465-0.29c-1.136-0.282-2.215-0.622-3.268-0.987
			c-0.256,0.751-0.623,1.569-1.197,2.417c-1.188,1.867-3.218,3.715-5.81,5.262c-2.631,1.581-5.59,2.889-9.352,3.976
			c-2.2,0.449-4.206,0.359-6.243,0.202c-2.028-0.176-4.044-0.546-6.088-0.961c-4.077-0.871-8.243-2.07-12.472-3.485
			c-4.229-1.412-8.522-3.031-12.816-4.822c-4.305-1.769-8.598-3.731-12.86-5.766c-4.239-2.079-8.448-4.222-12.513-6.532
			c-2.04-1.142-4.046-2.321-6.009-3.569c-0.082-0.052-0.161-0.104-0.243-0.155c-0.614,1.253-1.491,3.047-2.604,5.325
			c-1.152,2.344-2.456,5.242-4.021,8.511c-1.481,3.318-3.213,7.017-4.981,11.107c-1.831,4.06-3.631,8.535-5.624,13.218
			c-1.022,2.329-1.937,4.781-2.898,7.274c-0.976,2.482-1.972,5.021-2.985,7.602c-1.814,5.24-3.992,10.536-5.765,16.072
			c-0.927,2.754-1.861,5.528-2.8,8.313c-0.994,2.767-1.722,5.629-2.598,8.445c-0.86,2.821-1.719,5.643-2.575,8.452
			c-0.748,2.839-1.493,5.666-2.23,8.473c-0.374,1.402-0.745,2.8-1.116,4.19c-0.385,1.386-0.78,2.764-1.058,4.158
			c-0.623,2.776-1.238,5.519-1.844,8.215c-0.495,2.251-1.036,4.452-1.489,6.64H300V0z"/>
		<path fill="#000100" d="M220.229,103.507c0,0,5.562-4.287,6.892-3.01c1.332,1.282-3.25,11.456-5.798,11.697
			C218.81,112.433,210.625,110.937,220.229,103.507z"/>
		<path fill="#000100" d="M236.894,111.728c0,0,0.577-4.392-0.413-3.931c-0.991,0.466-4.716,8.45-4.137,9.328
			C232.914,117.996,235.885,119.332,236.894,111.728z"/>
		<path fill="#000100" d="M178.445,114.55c-5.055-4.143-15.29-8.586-13.32-18.653c0.943-4.815-1.234-7.849-2.901-8.926
			c-3.165-2.044-1.049-6.377,5.964-9.257c4.858-2.942,30.891-4.25,25.454,21.335C192.337,104.192,185.559,120.381,178.445,114.55z"
			/>
		<path fill="#FFFFFF" d="M183.307,98.979c-1.545,1.264-3.688-1.126-6.57-4.579c-2.877-3.452-5.484-5.371-3.874-6.561
			c1.031-0.761,6.314-2.008,8.938,0.229C185.322,91.069,188.381,94.83,183.307,98.979z"/>
		<path fill="#000100" d="M196.703,143.039c0,0,0.193-0.461,0.479-1.272c0.098-0.432,0.416-0.843,0.649-1.325
			c0.21-0.479,0.633-0.975,1-1.527c0.352-0.56,0.938-1.048,1.385-1.64c0.595-0.502,1.115-1.093,1.791-1.595
			c0.324-0.258,0.656-0.52,0.99-0.785c0.364-0.233,0.725-0.471,1.079-0.727c0.719-0.492,1.503-0.934,2.273-1.371
			c1.571-0.852,3.212-1.565,4.798-2.145c0.802-0.234,1.576-0.518,2.327-0.705c0.755-0.141,1.476-0.382,2.15-0.447
			c0.677-0.102,1.309-0.219,1.871-0.225c0.562-0.021,1.079-0.108,1.486-0.058c0.831,0.031,1.348,0.027,1.348,0.027
			s-0.406-0.259-1.192-0.677c-0.389-0.234-0.896-0.391-1.49-0.569c-0.594-0.217-1.279-0.345-2.044-0.428
			c-0.768-0.146-1.591-0.12-2.477-0.107c-0.879,0.036-1.806,0.145-2.749,0.332c-0.922,0.239-1.916,0.411-2.844,0.807
			c-0.963,0.312-1.873,0.787-2.792,1.245c-0.882,0.52-1.772,1.04-2.565,1.678c-0.813,0.608-1.54,1.299-2.201,2.014
			c-0.715,0.65-1.197,1.508-1.731,2.203c-0.428,0.801-0.883,1.506-1.108,2.27c-0.26,0.743-0.489,1.404-0.533,2.077
			c-0.081,0.643-0.166,1.184-0.081,1.603C196.618,142.547,196.703,143.039,196.703,143.039z"/>
		<path fill="#000100" d="M142.677,74.031c1.037-1.797,2.457-3.505,4.051-5.019c3.216-3.01,6.98-5.524,11.044-7.06l0.029-0.011
			l0.397-0.205c0.932-0.478,2.549-0.914,4.084-1.224c1.568-0.318,3.208-0.53,4.859-0.676c3.312-0.277,6.678-0.292,10.004-0.033
			c1.666,0.105,3.316,0.331,4.956,0.581c1.631,0.293,3.261,0.589,4.839,1.033c1.594,0.408,3.126,0.953,4.647,1.511
			c1.489,0.616,2.966,1.277,4.32,2.107c1.397,0.78,2.635,1.757,3.843,2.762c1.146,1.06,2.292,2.15,3.197,3.437
			c0.974,1.236,1.716,2.642,2.402,4.085l0.868,2.167c0.15,0.54,0.177,0.564,0.229,0.943c0.054,0.316,0.065,0.657,0.063,1.012
			c-0.013,1.427-0.454,3.053-0.942,4.699l-1.535,5.104c-0.978,3.471-1.537,7.216-0.926,10.748c0.19-1.776,0.593-3.483,1.129-5.13
			c0.531-1.653,1.263-3.22,2.001-4.791l2.382-4.748c0.773-1.644,1.536-3.384,1.886-5.485c0.079-0.524,0.136-1.069,0.13-1.635
			c0.024-0.504-0.097-1.354-0.151-1.675c-0.254-1.094-0.454-1.919-0.756-2.877c-0.651-1.822-1.412-3.641-2.469-5.301
			c-0.989-1.707-2.262-3.225-3.597-4.673c-1.422-1.348-2.913-2.644-4.547-3.695c-1.604-1.106-3.313-2.001-5.045-2.831
			c-1.745-0.782-3.527-1.484-5.349-1.996c-3.626-1.108-7.339-1.731-11.055-2.032c-3.718-0.314-7.446-0.242-11.172,0.13
			c-1.865,0.219-3.729,0.512-5.611,0.948c-1.902,0.468-3.734,0.982-5.895,2.235l0.426-0.215c-4.8,2.153-9.119,5.189-12.55,9.103
			c-1.726,1.947-3.257,4.093-4.419,6.564c-0.577,1.241-1.046,2.586-1.227,4.118c-0.171,1.481-0.033,3.444,1.276,4.998
			c0.338,0.368,0.633,0.681,1.109,0.978c0.203,0.129,0.497,0.313,0.636,0.37l0.417,0.172l0.507,0.204l0.366,0.138
			c0.253,0.082,0.473,0.21,0.712,0.312c0.928,0.446,1.773,1.021,2.533,1.716c1.525,1.388,2.584,3.372,3.341,5.55
			c0.763,2.18,1.33,4.523,2.022,6.859c0.693,2.313,1.63,4.71,3.308,6.476c-1.292-2.059-1.741-4.406-2.078-6.75
			c-0.348-2.35-0.498-4.765-1.036-7.21c-0.521-2.426-1.43-4.984-3.223-7.106c-0.877-1.062-1.966-1.957-3.137-2.667
			c-0.297-0.169-0.587-0.364-0.894-0.504l-0.458-0.226l-0.229-0.112l-0.056-0.027l-0.029-0.015l-0.015-0.007
			c0.052,0.023-0.136-0.061,0.113,0.049l-0.098-0.054l-0.394-0.22c-0.128-0.075-0.064-0.092-0.112-0.123
			c-0.033-0.024-0.141-0.179-0.19-0.258c-0.213-0.36-0.266-1.01-0.063-1.863C141.765,75.849,142.171,74.927,142.677,74.031z"/>
		<g>
			<g id="XMLID_9_">
				<g>
					<path fill="#000100" d="M126.798,201.565l-1.463-0.322c0.244-0.082,0.504-0.165,0.75-0.23
						C126.327,201.186,126.571,201.375,126.798,201.565z"/>
					<path fill="#000100" d="M117.941,226.318l1.308,0.833l-0.788-0.069C118.278,226.834,118.111,226.585,117.941,226.318z"/>
					<polygon fill="#C1282E" points="103.508,198.652 103.475,198.657 103.456,198.643 103.489,198.639 					"/>
					<polygon fill="#C1282E" points="103.421,198.63 103.456,198.643 103.439,198.645 					"/>
					<path fill="#000100" d="M103.421,198.63l0.019,0.015c-0.017,0.002-0.017,0.002-0.036-0.013L103.421,198.63z"/>
					<path fill="#000100" d="M101.559,196.359c0.129,0.086,0.242,0.173,0.374,0.274l-0.892-0.226L101.559,196.359z"/>
					<path fill="#000100" d="M100.842,223.097c-0.239,0.25-0.497,0.485-0.759,0.688l-0.883-0.159L100.842,223.097z"/>
					<path fill="#C1282E" d="M67.04,172.774c0.25,0.104,0.638,0.359,0.946,0.523c1.282,0.769,2.623,1.463,3.87,2.354
						c2.546,1.659,4.994,3.482,7.442,5.307c2.432,1.825,4.821,3.724,7.211,5.622c4.736,3.854,9.383,7.804,14.016,11.771l0.321,0.265
						l0.59-0.024l0.587-0.04l0.283-0.036l0.396,0.052l0.668,0.068l0.033-0.005c0.019,0.015,0.019,0.015,0.036,0.013l0.017-0.002
						l0.019,0.015l0.033-0.005l0.069,0.009l0.194,0.06l0.383,0.087l3.097,0.658l6.191,1.3l6.222,1.279l1.542,0.278
						c0.489,0.125,1.127,0.214,1.444,0.309c0.402,0.102,0.779,0.274,1.142,0.465c0.361,0.175,0.682,0.439,1.003,0.703l0.682,0.574
						l0.781-0.251l16.417-5.258l4.123-1.267c1.368-0.427,2.736-0.854,4.108-1.247l4.129-1.216l4.098-1.061
						c1.371-0.274,2.905-0.587,4.185-0.782c0.614-0.095,1.173,0.037,1.68,0.295c0.494,0.293,0.861,0.789,1.185,1.34
						c0.57,1.164,0.798,2.558,0.872,3.953c0.077,1.412,0.017,2.808-0.14,4.25c-0.338,2.818-0.983,5.609-1.874,8.346
						c-0.471,1.363-0.998,2.683-1.629,3.981c-0.329,0.616-0.672,1.253-1.09,1.83c-0.422,0.544-0.809,1.101-1.498,1.272
						c-0.399,0.051-0.736,0.33-0.895,0.689c-0.144,0.34-0.201,0.686-0.259,1.031c-0.065,0.686-0.051,1.344-0.03,2.035
						c0.066,1.329,0.187,2.685,0.284,3.993c0.183,2.651,0.274,5.383-0.284,7.925c-0.28,1.271-0.786,2.486-1.596,3.452
						c-0.773,0.978-1.897,1.594-3.097,1.881c-0.606,0.161-1.21,0.204-1.814,0.246l-1.017-0.007l-0.241-0.037l-0.219,0.011
						l-0.498-0.056c-1.3-0.106-2.611-0.296-3.909-0.521c-5.182-0.953-10.195-2.706-14.848-5.098
						c-1.157-0.581-2.289-1.234-3.39-1.907c-1.086-0.692-2.16-1.42-3.174-2.206c-1.011-0.77-1.962-1.597-2.82-2.487
						c-0.876-0.905-1.574-1.866-2.191-2.872l-0.447-0.722l-0.84-0.08l-1.271-0.145l-1.059-0.205l-2.479-0.465l-4.951-0.999
						l-9.908-1.913l-0.936-0.17l-0.705,0.716c-1.772,1.781-4.443,3.017-7.184,3.837c-2.753,0.855-5.671,1.343-8.614,1.631
						c-2.947,0.254-5.922,0.291-8.893,0.091c-2.946-0.135-5.919-0.623-8.774-1.243c-0.717-0.181-1.413-0.33-2.132-0.526
						l-2.199-0.653c-1.259-0.45-2.533-1.018-3.432-1.835c-0.932-0.813-1.548-1.802-1.758-3.062c-0.22-1.208-0.089-2.579,0.209-3.971
						c0.648-2.773,1.949-5.478,3.245-8.215c0.636-1.4,1.342-2.776,1.85-4.381c0.116-0.421,0.23-0.859,0.263-1.405l0.018-0.392
						c-0.002-0.151-0.04-0.316-0.08-0.497c0.04-0.226-0.484-1.022-0.643-1.07l-0.115-0.104l-0.054-0.027l-0.021-0.031l-0.203-0.127
						c-0.006-0.05-0.006-0.05-0.023-0.048c-0.031,0.021-0.102-0.14-0.158-0.183c-0.13-0.221-0.266-0.491-0.355-0.802
						c-0.772-2.628-0.766-5.794-0.614-8.742c0.181-2.985,0.594-6.018,1.365-8.891c0.392-1.455,0.89-2.872,1.557-4.158
						c0.667-1.286,1.538-2.564,2.714-3.171c0.558-0.273,1.235-0.409,1.831-0.248C66.299,172.411,66.702,172.647,67.04,172.774z"/>
					<polygon fill="#000100" points="58.664,200.53 58.666,200.547 58.647,200.532 58.631,200.534 58.628,200.518 58.646,200.516 
						58.662,200.513 					"/>
					<path fill="#000100" d="M58.57,200.457c0.019,0.015,0.038,0.029,0.073,0.042c0,0-0.017,0.002,0.002,0.017l-0.017,0.002
						l-0.037-0.029l-0.019-0.015l-0.019-0.015L58.57,200.457z"/>
					<path fill="#000100" d="M58.783,200.667C58.802,200.682,58.818,200.68,58.783,200.667c-0.021-0.031-0.021-0.031-0.04-0.046
						l-0.056-0.043l-0.019-0.015c0,0,0,0,0.019,0.015c0,0,0.002,0.017,0.004,0.033C58.712,200.643,58.766,200.669,58.783,200.667z
						 M87.322,185.514c4.798,3.541,9.539,7.157,14.237,10.846l-0.519,0.049l0.892,0.226c-0.131-0.102-0.244-0.188-0.374-0.274
						l0.467-0.059l0.485-0.044l0.392,0.018l0.802,0.051l0.883,0.159l3.127,0.502l6.245,1.056l6.251,1.106l1.559,0.276
						c0.54,0.118,0.95,0.151,1.631,0.319c0.646,0.155,1.24,0.436,1.82,0.734c0.309,0.164,0.584,0.333,0.863,0.534
						c-0.246,0.065-0.506,0.148-0.75,0.23l1.463,0.322c-0.228-0.19-0.472-0.38-0.713-0.553c2.486-0.822,4.995-1.597,7.509-2.337
						c2.755-0.84,5.533-1.631,8.329-2.407c2.784-0.742,5.587-1.469,8.403-2.096l4.245-0.977l4.314-0.816
						c1.462-0.219,2.776-0.401,4.347-0.566c0.825-0.036,1.717,0.189,2.468,0.637c0.738,0.481,1.221,1.217,1.567,1.951
						c0.623,1.445,0.75,2.986,0.75,4.459c-0.017,1.476-0.173,2.917-0.415,4.353c-0.434,2.865-1.196,5.67-2.171,8.4
						c-0.486,1.382-1.03,2.703-1.694,4.006c-0.326,0.634-0.705,1.258-1.116,1.885c-0.235,0.284-0.451,0.582-0.743,0.822
						c-0.254,0.27-0.666,0.49-0.994,0.565l-0.036-0.012c-0.546,0.103-0.764,0.79-0.816,1.44c-0.054,0.65-0.04,1.292-0.006,1.965
						c0.083,1.326,0.237,2.678,0.354,4.001c0.219,2.664,0.443,5.378-0.043,8.098c-0.269,1.354-0.708,2.696-1.559,3.87
						c-0.832,1.188-2.135,1.997-3.501,2.44c-0.683,0.222-1.418,0.298-2.133,0.405l-1.01,0.043l-0.252,0.015l-0.292-0.031
						l-0.508-0.003c-1.358-0.031-2.711-0.148-4.067-0.299c-5.416-0.652-10.742-2.078-15.778-4.286
						c-1.255-0.552-2.485-1.175-3.705-1.851c-1.186-0.68-2.394-1.391-3.53-2.212c-1.139-0.838-2.248-1.713-3.272-2.718
						c-0.828-0.793-1.585-1.695-2.268-2.676l0.788,0.069l-1.308-0.833c0.169,0.267,0.336,0.516,0.52,0.764l-0.479-0.041
						l-0.069-0.009l-0.256-0.018l-0.156-0.031l-0.296-0.064l-0.625-0.124l-2.495-0.446l-4.955-0.897l-9.048-1.666
						c0.262-0.203,0.521-0.438,0.759-0.688l-1.643,0.529l0.883,0.159c-2.405,2.132-5.224,3.268-7.977,4.123
						c-3.098,0.934-6.233,1.448-9.384,1.694c-3.137,0.228-6.293,0.169-9.42-0.062c-3.125-0.215-6.209-0.772-9.297-1.5
						c-0.769-0.19-1.573-0.394-2.313-0.621l-2.186-0.689c-1.611-0.558-3.177-1.291-4.535-2.524s-2.331-3.04-2.575-4.838
						c-0.259-1.778-0.003-3.504,0.389-5.094c0.852-3.172,2.31-5.963,3.71-8.68c0.692-1.356,1.436-2.704,1.9-3.981
						c0.114-0.302,0.193-0.617,0.216-0.84l0.029-0.173c-0.019-0.015-0.025-0.064-0.008-0.066l0.017-0.002l0.019,0.015l-0.002-0.017
						l-0.002-0.018l-0.017,0.003c-0.019-0.015-0.002-0.017-0.002-0.017c-0.035-0.013-0.054-0.027-0.073-0.042
						c-0.094-0.073-0.188-0.146-0.3-0.233c-0.3-0.232-0.363-0.462-0.542-0.676c-0.247-0.477-0.418-0.896-0.521-1.306
						c-0.465-1.668-0.513-3.253-0.54-4.807c-0.013-1.573,0.079-3.125,0.223-4.667c0.32-3.088,0.845-6.167,1.774-9.129
						c0.471-1.498,1.015-2.955,1.75-4.369c0.756-1.382,1.677-2.802,3.27-3.596c0.797-0.389,1.705-0.571,2.616-0.331
						c0.5,0.072,0.777,0.258,1.148,0.38c0.434,0.216,0.694,0.403,1.042,0.613c1.322,0.814,2.683,1.54,3.935,2.465l3.797,2.584
						l3.727,2.695C82.411,181.886,84.891,183.688,87.322,185.514z M100.525,198.353c-4.632-3.968-9.279-7.918-14.016-11.771
						c-2.39-1.898-4.78-3.797-7.211-5.622c-2.448-1.824-4.896-3.647-7.442-5.307c-1.247-0.892-2.587-1.586-3.87-2.354
						c-0.309-0.164-0.696-0.42-0.946-0.523c-0.338-0.127-0.74-0.363-1.009-0.347c-0.596-0.161-1.273-0.025-1.831,0.248
						c-1.176,0.606-2.047,1.885-2.714,3.171c-0.667,1.286-1.165,2.703-1.557,4.158c-0.771,2.873-1.184,5.905-1.365,8.891
						c-0.152,2.948-0.158,6.114,0.614,8.742c0.09,0.311,0.226,0.581,0.355,0.802c0.056,0.043,0.127,0.204,0.158,0.183
						c0.017-0.002,0.017-0.002,0.023,0.048l0.203,0.127l0.021,0.031l0.054,0.027l0.115,0.104c0.159,0.048,0.683,0.845,0.643,1.07
						c0.04,0.181,0.078,0.346,0.08,0.497l-0.018,0.392c-0.033,0.546-0.146,0.984-0.263,1.405c-0.508,1.604-1.214,2.98-1.85,4.381
						c-1.296,2.737-2.596,5.441-3.245,8.215c-0.298,1.392-0.429,2.763-0.209,3.971c0.21,1.26,0.826,2.248,1.758,3.062
						c0.899,0.817,2.173,1.385,3.432,1.835l2.199,0.653c0.719,0.196,1.415,0.346,2.132,0.526c2.854,0.62,5.828,1.108,8.774,1.243
						c2.971,0.2,5.946,0.163,8.893-0.091c2.943-0.288,5.861-0.775,8.614-1.631c2.74-0.82,5.411-2.056,7.184-3.837l0.705-0.716
						l0.936,0.17l9.908,1.913l4.951,0.999l2.479,0.465l1.059,0.205l1.271,0.145l0.84,0.08l0.447,0.722
						c0.618,1.006,1.315,1.967,2.191,2.872c0.857,0.891,1.809,1.718,2.82,2.487c1.014,0.786,2.087,1.514,3.174,2.206
						c1.101,0.673,2.233,1.326,3.39,1.907c4.653,2.392,9.666,4.145,14.848,5.098c1.298,0.226,2.609,0.415,3.909,0.521l0.498,0.056
						l0.219-0.011l0.241,0.037l1.017,0.007c0.604-0.042,1.208-0.085,1.814-0.246c1.199-0.287,2.323-0.903,3.097-1.881
						c0.81-0.966,1.315-2.181,1.596-3.452c0.559-2.542,0.467-5.273,0.284-7.925c-0.098-1.309-0.218-2.664-0.284-3.993
						c-0.021-0.691-0.035-1.35,0.03-2.035c0.058-0.346,0.115-0.691,0.259-1.031c0.158-0.359,0.495-0.639,0.895-0.689
						c0.689-0.172,1.076-0.729,1.498-1.272c0.418-0.577,0.761-1.214,1.09-1.83c0.631-1.299,1.158-2.618,1.629-3.981
						c0.891-2.736,1.536-5.527,1.874-8.346c0.156-1.442,0.217-2.838,0.14-4.25c-0.074-1.396-0.302-2.789-0.872-3.953
						c-0.323-0.551-0.69-1.047-1.185-1.34c-0.507-0.258-1.065-0.39-1.68-0.295c-1.279,0.195-2.813,0.508-4.185,0.782l-4.098,1.061
						l-4.129,1.216c-1.372,0.394-2.74,0.82-4.108,1.247l-4.123,1.267l-16.417,5.258l-0.781,0.251l-0.682-0.574
						c-0.321-0.264-0.642-0.528-1.003-0.703c-0.363-0.19-0.74-0.363-1.142-0.465c-0.317-0.095-0.955-0.184-1.444-0.309l-1.542-0.278
						l-6.222-1.279l-6.191-1.3l-3.097-0.658l-0.383-0.087l-0.194-0.06l-0.069-0.009l-0.019-0.014l-0.033,0.004l-0.035-0.013
						l-0.017,0.002l-0.033,0.005l-0.668-0.068l-0.396-0.052l-0.283,0.036l-0.587,0.04l-0.59,0.024L100.525,198.353z"/>
				</g>
			</g>
			<path fill="#FFFFFF" d="M95.869,205.73c0-0.001-1.301-0.087-3.182-0.529c-0.928-0.229-2.024-0.521-3.156-0.938
				c-1.124-0.442-2.299-0.975-3.447-1.553c-2.311-1.136-4.527-2.495-5.965-3.806c-0.387-0.295-0.669-0.652-0.948-0.922
				c-0.284-0.271-0.497-0.539-0.654-0.779c-0.338-0.444-0.526-0.705-0.526-0.705l0.085-0.061c0,0,0.21,0.239,0.579,0.658
				c0.174,0.213,0.4,0.454,0.702,0.696c0.3,0.246,0.597,0.566,0.996,0.823c1.516,1.137,3.748,2.348,6.086,3.312
				c1.166,0.491,2.367,0.895,3.48,1.295c1.104,0.426,2.139,0.829,3.026,1.171c1.77,0.708,2.949,1.229,2.952,1.229L95.869,205.73z"/>
			<path fill="#FFFFFF" d="M93.61,208.035c0,0-0.394,0.19-0.974,0.272c-0.289,0.024-0.623,0.088-0.978-0.005
				c-0.356-0.094-0.727-0.243-1.094-0.371c-1.498-0.473-2.918-1.026-2.918-1.025l0.031-0.102c0,0.002,1.54,0.096,3.008,0.279
				c0.371,0.031,0.74,0.051,1.079,0.111c0.343,0.097,0.668,0.188,0.94,0.27c0.554,0.199,0.912,0.464,0.912,0.464L93.61,208.035z"/>
			<path fill="#FFFFFF" d="M94.907,210.336c0,0-0.868,0.651-2.304,1.366c-0.727,0.338-1.576,0.731-2.533,1.033
				c-0.962,0.284-2.002,0.535-3.055,0.724c-1.046,0.222-2.109,0.359-3.11,0.449c-1.002,0.087-1.944,0.072-2.744,0.005
				c-0.797-0.1-1.463-0.185-1.904-0.343c-0.449-0.131-0.702-0.208-0.702-0.208l0.033-0.099c0,0,0.257,0.043,0.712,0.13
				c0.436,0.108,1.101,0.128,1.878,0.146c1.564-0.015,3.631-0.343,5.641-0.91c1.003-0.277,1.983-0.64,2.913-0.949
				c0.93-0.299,1.811-0.538,2.563-0.77c1.519-0.432,2.567-0.672,2.567-0.672L94.907,210.336z"/>
			<path fill="#000100" d="M124.563,212.872c0,0,0.088,0.939,0.121,2.363c0.051,1.424-0.065,3.323-0.41,5.25
				c-0.169,0.961-0.379,1.95-0.776,2.853c-0.274,0.432-0.478,0.859-0.854,1.195c-0.351,0.347-0.672,0.661-1.11,0.845
				c-0.2,0.104-0.394,0.184-0.578,0.258c-0.213,0.029-0.4,0.067-0.582,0.073c-0.359,0.051-0.656,0.019-0.891-0.1
				c-0.467-0.159-0.676-0.29-0.676-0.29l0.036-0.212c0,0,0.264-0.118,0.617-0.251c0.18-0.046,0.366-0.177,0.54-0.336
				c0.094-0.082,0.188-0.143,0.277-0.205c0.085-0.11,0.161-0.229,0.249-0.325c0.184-0.169,0.317-0.469,0.491-0.731
				c0.166-0.257,0.302-0.628,0.495-0.933c0.361-0.683,0.812-1.44,1.117-2.29c0.622-1.687,1.002-3.51,1.308-4.873
				c0.287-1.369,0.413-2.296,0.413-2.296L124.563,212.872z"/>
			<path fill="#000100" d="M99.825,200.707c0,0-0.04,0.946-0.184,2.344c-0.147,1.397-0.369,3.251-0.651,5.083
				c-0.263,1.837-0.581,3.664-0.73,5.038c-0.054,0.69-0.113,1.26-0.088,1.66c0.047,0.394,0.088,0.638,0.088,0.638
				s-0.126-0.196-0.292-0.595c-0.111-0.402-0.269-0.994-0.308-1.711c-0.11-1.431-0.005-3.325,0.271-5.188
				c0.275-1.86,0.731-3.688,1.125-5.039C99.454,201.581,99.825,200.707,99.825,200.707z"/>
			<path fill="#FFFFFF" d="M130.72,212.588c0,0,1.189-0.271,2.981-0.529c0.897-0.115,1.937-0.258,3.049-0.367
				c1.124-0.082,2.317-0.168,3.51-0.25c1.201-0.083,2.376-0.287,3.497-0.425c1.105-0.143,2.119-0.399,3.009-0.554
				c0.882-0.163,1.57-0.468,2.075-0.601c0.502-0.162,0.791-0.253,0.791-0.253l0.042,0.099c0,0-0.277,0.113-0.761,0.318
				c-0.494,0.182-1.177,0.551-2.048,0.799c-0.874,0.232-1.888,0.587-2.998,0.804c-1.116,0.211-2.298,0.498-3.496,0.657
				c-1.195,0.198-2.388,0.407-3.52,0.516c-1.127,0.106-2.189,0.104-3.095,0.103c-1.811-0.029-3.029-0.208-3.029-0.208
				L130.72,212.588z"/>
			<path fill="#FFFFFF" d="M130.274,218.911c0,0,0.395,0.633,0.892,1.567c0.235,0.479,0.543,1.006,0.815,1.592
				c0.279,0.588,0.549,1.233,0.902,1.823c0.345,0.605,0.771,1.144,1.22,1.6c0.453,0.457,0.941,0.789,1.406,1.029
				c0.231,0.103,0.464,0.159,0.664,0.233c0.199,0.09,0.386,0.063,0.54,0.09c0.305,0.031,0.484,0.048,0.484,0.048l0.008,0.108
				c0,0-0.18,0.01-0.502,0.026c-0.156-0.007-0.361,0.046-0.576-0.009c-0.223-0.044-0.484-0.073-0.751-0.147
				c-0.535-0.181-1.14-0.462-1.681-0.917c-0.544-0.436-1.076-0.979-1.514-1.574c-0.473-0.586-0.871-1.209-1.201-1.824
				c-0.292-0.628-0.476-1.249-0.61-1.782c-0.244-1.078-0.2-1.839-0.2-1.839L130.274,218.911z"/>
			<path fill="#FFFFFF" d="M130.722,216.37c0,0,0.397-0.02,0.871,0.067c0.231,0.061,0.503,0.115,0.766,0.231
				c0.248,0.15,0.512,0.312,0.774,0.473c0.548,0.302,1.119,0.5,1.564,0.646c0.441,0.092,0.77,0.127,0.77,0.127l0.015,0.104
				c0,0-0.315,0.079-0.818,0.143c-0.509,0.03-1.185-0.054-1.829-0.221c-0.321-0.077-0.663-0.139-0.948-0.261
				c-0.282-0.134-0.51-0.327-0.695-0.499c-0.368-0.356-0.52-0.719-0.52-0.719L130.722,216.37z"/>
		</g>
		<path fill="#000100" d="M139.556,164.825c0.006,0.034,0.011,0.046-0.021-0.118c-0.003-0.017-0.01-0.037-0.015-0.056
			c0.011,0.082,0.024,0.159,0.038,0.239l0.015,0.087c-0.018-0.119-0.036-0.244-0.028-0.201L139.556,164.825z"/>
		<path fill="#000100" d="M139.585,165.076c0.021,0.145,0.013,0.092,0-0.007V165.076z"/>
		<g>
			<path fill="#000100" d="M220.229,103.507c0,0,5.562-4.287,6.892-3.01c1.332,1.282-3.25,11.456-5.798,11.697
				C218.81,112.433,210.625,110.937,220.229,103.507z"/>
			<path fill="#000100" d="M236.894,111.728c0,0,0.577-4.392-0.413-3.931c-0.991,0.466-4.716,8.45-4.137,9.328
				C232.914,117.996,235.885,119.332,236.894,111.728z"/>
			<path fill="#000100" d="M178.445,114.55c-5.055-4.143-15.29-8.586-13.32-18.653c0.943-4.815-1.234-7.849-2.901-8.926
				c-3.165-2.044-1.049-6.377,5.964-9.257c4.858-2.942,30.891-4.25,25.454,21.335C192.337,104.192,185.559,120.381,178.445,114.55z"
				/>
			<path fill="#FFFFFF" d="M183.307,98.979c-1.545,1.264-3.688-1.126-6.57-4.579c-2.877-3.452-5.484-5.371-3.874-6.561
				c1.031-0.761,6.314-2.008,8.938,0.229C185.322,91.069,188.381,94.83,183.307,98.979z"/>
			<g>
				<path fill="#000100" d="M247.838,140.576c-0.314-0.347-0.695-0.668-1.039-0.996c-0.388-0.318-0.909-0.771-1.211-0.944
					l-0.59-0.396l-0.45-0.284c-0.312-0.18-0.577-0.403-0.866-0.606c-1.111-0.854-2.06-1.871-2.796-3.07
					c-0.719-1.207-1.21-2.595-1.458-4.086c-0.238-1.487-0.309-3.063-0.212-4.659c0.082-1.6,0.345-3.21,0.62-4.834
					c0.271-1.625,0.654-3.249,0.893-4.9c-1.301,3.051-2.746,6.065-3.553,9.419c-0.415,1.667-0.699,3.413-0.666,5.221
					c0.02,1.805,0.343,3.671,1.055,5.447c0.729,1.762,1.818,3.428,3.196,4.748c0.348,0.321,0.686,0.668,1.059,0.954l0.549,0.448
					c0.015,0.028,0.275,0.239,0.402,0.35c0.377,0.298,0.428,0.449,0.666,0.671c0.218,0.275,0.452,0.512,0.659,0.809
					c1.724,2.281,2.949,5.112,3.799,7.938c1.656,5.737,1.229,11.807-1.191,16.904c-0.633,1.266-1.313,2.513-2.161,3.67
					c-0.811,1.177-1.773,2.264-2.766,3.321l-1.593,1.518c-0.567,0.474-1.112,0.971-1.694,1.434l-1.796,1.342l-1.164,0.777
					c-0.978,0.09-2.425-0.04-3.905-0.439c-1.773-0.456-3.632-1.15-5.474-1.964c-3.713-1.594-7.386-3.64-11.007-5.791
					c-3.63-2.152-7.183-4.496-10.717-6.886c-3.515-2.414-7.009-4.893-10.407-7.466c-1.681-1.289-3.414-2.573-4.964-3.876
					l-0.921-0.802l-1.08-1.204c-0.77-0.838-1.551-1.648-2.341-2.446c-3.15-3.205-6.616-6.072-10.269-8.682
					c-3.642-2.619-7.644-4.789-11.851-6.387c-3.075-1.103-6.344-1.837-9.572-1.875c0.082-0.084,0.147-0.177,0.236-0.256
					c0.748-0.807,1.61-1.517,2.428-2.209c0.843-0.661,1.66-1.291,2.397-1.824c1.555-1.094,2.59-1.822,2.59-1.822
					s-1.353-0.341-3.321,0.048c-1.966,0.321-4.548,1.443-6.486,3.451c-0.494,0.483-0.935,1.019-1.314,1.591
					c-0.423,0.533-0.699,1.158-0.984,1.735c-0.312,0.565-0.446,1.19-0.617,1.746c-0.187,0.557-0.23,1.115-0.272,1.622
					c-0.141,0.999-0.011,1.846,0.083,2.421c0.097,0.578,0.186,0.896,0.186,0.896s0.193-0.293,0.474-0.787
					c0.136-0.249,0.307-0.543,0.464-0.881c0.154-0.338,0.433-0.682,0.635-1.074c0.225-0.387,0.455-0.802,0.754-1.2
					c0.294-0.403,0.52-0.857,0.873-1.257c0.329-0.409,0.618-0.855,0.998-1.249c0.072-0.086,0.156-0.163,0.229-0.248
					c3.249,0.686,6.288,1.986,9.093,3.615c3.679,2.057,6.956,4.743,10.087,7.548c3.121,2.829,5.947,5.984,8.663,9.183
					c0.67,0.808,1.327,1.624,1.957,2.445l0.984,1.314c0.608,0.723,0.951,1.04,1.393,1.489c1.658,1.624,3.275,3.104,4.966,4.55
					c6.724,5.754,13.761,11.058,21.32,15.819c3.789,2.37,7.722,4.564,11.967,6.452c0.82,0.351,1.668,0.672,2.52,0.99
					c-0.391,0.569-0.859,1.16-1.468,1.74c-1.355,1.351-3.43,2.476-5.928,3.439c-1.258,0.471-2.652,0.874-4.132,1.219
					c-0.756,0.143-1.446,0.341-2.279,0.495c-0.414,0.079-0.83,0.159-1.252,0.239l-0.637,0.122l-0.408,0.032
					c-1.271,0.071-2.942-0.188-4.625-0.587c-1.699-0.403-3.493-0.907-5.322-1.519c-3.669-1.204-7.526-2.716-11.494-4.354
					c-3.968-1.648-8.042-3.454-12.175-5.324c-4.118-1.893-8.306-3.83-12.444-5.86c-4.159-1.986-8.272-4.067-12.283-6.136
					c-1.996-1.05-3.966-2.103-5.87-3.159c-1.878-1.051-3.777-2.181-5.242-3.214c-0.128-0.087-0.254-0.186-0.366-0.274v-0.002
					c-0.233-1.256-0.551-2.402-0.925-3.513c-0.738-2.216-1.644-4.271-2.693-6.182c-1.058-1.906-2.228-3.679-3.507-5.281
					c-0.63-0.782-1.345-1.575-2.042-2.313c-0.326-0.32-0.651-0.635-0.971-0.946l-0.377-0.374c-0.104-0.082-0.188-0.185-0.268-0.294
					c-0.702-0.815-1.071-2.144-1.199-3.507c-0.156-1.371-0.09-2.791,0.07-4.126c0.351-2.679,0.929-5.072,1.479-7.016
					c1.128-3.896,2.001-6.103,2.001-6.103s-0.375,0.457-1.01,1.366c-0.62,0.915-1.555,2.257-2.557,4.084
					c-1.008,1.823-2.189,4.09-3.095,6.962c-0.456,1.438-0.858,3.026-1.007,4.849c-0.118,1.793-0.003,3.946,1.191,6.104
					c0.141,0.27,0.302,0.531,0.496,0.779l0.479,0.647c0.272,0.356,0.546,0.714,0.823,1.076c0.458,0.669,0.901,1.327,1.352,2.09
					c0.897,1.479,1.722,3.073,2.416,4.774c0.702,1.692,1.313,3.485,1.727,5.318c0.207,0.912,0.387,1.841,0.479,2.708
					c0.036,0.225,0.033,0.419,0.054,0.629l0.005,0.078l0.003,0.038l0.057,0.4l0.008,0.051l0.048,0.215
					c0.065,0.272,0.195,0.616,0.287,0.805c0.261,0.54,0.481,0.822,0.666,1.068c0.725,0.887,1.207,1.266,1.726,1.724
					c1.758,1.47,3.451,2.578,5.186,3.691c-0.874,1.1-2.1,2.688-3.595,4.754c-1.545,2.127-3.382,4.741-5.386,7.809
					c-1.968,3.087-4.261,6.544-6.462,10.479c-1.119,1.959-2.349,3.97-3.51,6.108c-1.163,2.137-2.301,4.381-3.508,6.67
					c-2.403,4.586-4.706,9.54-7.081,14.67c-1.096,2.606-2.208,5.255-3.334,7.937c-0.559,1.344-1.122,2.695-1.688,4.055
					c-0.542,1.368-1.017,2.769-1.532,4.161c-1.007,2.795-2.024,5.612-3.042,8.44c-1.039,2.822-1.813,5.747-2.731,8.622
					c-0.858,2.895-1.714,5.79-2.569,8.675c-0.707,2.924-1.412,5.837-2.112,8.729c-0.663,2.898-1.457,5.74-1.936,8.619
					c-0.503,2.872-1,5.708-1.489,8.498c-0.236,1.396-0.469,2.779-0.702,4.149c-0.24,1.369-0.479,2.724-0.581,4.087
					c-0.272,2.713-0.542,5.365-0.802,7.948c-0.254,2.578-0.5,5.086-0.74,7.512c-0.125,2.438-0.134,4.801-0.203,7.062
					c-0.112,4.521-0.213,8.656-0.138,12.32c0.19,3.671,0.446,6.86,0.636,9.483c0.394,5.242,0.717,8.214,0.717,8.214
					s0.408-2.996,0.953-8.197c0.266-2.6,0.61-5.751,0.905-9.354c0.515-3.584,1.096-7.627,1.729-12.037
					c0.321-2.2,0.592-4.494,0.984-6.853c0.441-2.353,0.897-4.785,1.365-7.284c0.462-2.495,0.935-5.059,1.42-7.68
					c0.478-2.617,1.176-5.256,1.77-7.958c0.605-2.696,1.221-5.438,1.844-8.215c0.277-1.395,0.672-2.772,1.058-4.158
					c0.371-1.391,0.742-2.788,1.116-4.19c0.738-2.807,1.482-5.634,2.23-8.473c0.856-2.81,1.715-5.631,2.575-8.452
					c0.875-2.816,1.604-5.679,2.598-8.445c0.938-2.785,1.873-5.56,2.8-8.313c1.773-5.536,3.951-10.832,5.765-16.072
					c1.014-2.581,2.009-5.119,2.985-7.602c0.961-2.493,1.876-4.945,2.898-7.274c1.993-4.683,3.793-9.158,5.624-13.218
					c1.768-4.091,3.5-7.789,4.981-11.107c1.565-3.269,2.869-6.167,4.021-8.511c1.113-2.278,1.991-4.072,2.604-5.325
					c0.082,0.051,0.161,0.104,0.243,0.155c1.963,1.248,3.969,2.428,6.009,3.569c4.064,2.311,8.273,4.453,12.513,6.532
					c4.263,2.034,8.556,3.997,12.86,5.766c4.294,1.791,8.588,3.41,12.816,4.822c4.229,1.415,8.395,2.614,12.472,3.485
					c2.044,0.415,4.06,0.785,6.088,0.961c2.037,0.157,4.043,0.247,6.243-0.202c3.762-1.087,6.721-2.395,9.352-3.976
					c2.592-1.547,4.622-3.395,5.81-5.262c0.574-0.848,0.941-1.666,1.197-2.417c1.053,0.365,2.132,0.705,3.268,0.987
					c2.437,0.553,5.13,1.084,8.465,0.29l0.706-0.169l0.522-0.367l2.202-1.555c0.722-0.542,1.424-1.122,2.133-1.684
					c1.389-1.174,2.724-2.436,3.969-3.798c1.215-1.399,2.382-2.851,3.385-4.44c1.032-1.563,1.896-3.254,2.615-5.001
					c1.391-3.51,2.186-7.298,2.091-11.036c-0.031-3.741-0.809-7.394-2.088-10.799C252.3,146.461,250.441,143.305,247.838,140.576z
					 M139.585,165.076l-0.008-0.063l-0.02-0.123c-0.013-0.08-0.026-0.157-0.038-0.239c0.005,0.019,0.011,0.039,0.015,0.056
					c0.033,0.164,0.028,0.152,0.021,0.118l-0.012-0.049C139.528,164.683,139.634,165.416,139.585,165.076z"/>
				<path fill="#000100" d="M196.703,143.039c0,0,0.193-0.461,0.479-1.272c0.098-0.432,0.416-0.843,0.649-1.325
					c0.21-0.479,0.633-0.975,1-1.527c0.352-0.56,0.938-1.048,1.385-1.64c0.595-0.502,1.115-1.093,1.791-1.595
					c0.324-0.258,0.656-0.52,0.99-0.785c0.364-0.233,0.725-0.471,1.079-0.727c0.719-0.492,1.503-0.934,2.273-1.371
					c1.571-0.852,3.212-1.565,4.798-2.145c0.802-0.234,1.576-0.518,2.327-0.705c0.755-0.141,1.476-0.382,2.15-0.447
					c0.677-0.102,1.309-0.219,1.871-0.225c0.562-0.021,1.079-0.108,1.486-0.058c0.831,0.031,1.348,0.027,1.348,0.027
					s-0.406-0.259-1.192-0.677c-0.389-0.234-0.896-0.391-1.49-0.569c-0.594-0.217-1.279-0.345-2.044-0.428
					c-0.768-0.146-1.591-0.12-2.477-0.107c-0.879,0.036-1.806,0.145-2.749,0.332c-0.922,0.239-1.916,0.411-2.844,0.807
					c-0.963,0.312-1.873,0.787-2.792,1.245c-0.882,0.52-1.772,1.04-2.565,1.678c-0.813,0.608-1.54,1.299-2.201,2.014
					c-0.715,0.65-1.197,1.508-1.731,2.203c-0.428,0.801-0.883,1.506-1.108,2.27c-0.26,0.743-0.489,1.404-0.533,2.077
					c-0.081,0.643-0.166,1.184-0.081,1.603C196.618,142.547,196.703,143.039,196.703,143.039z"/>
				<path fill="#000100" d="M142.677,74.031c1.037-1.797,2.457-3.505,4.051-5.019c3.216-3.01,6.98-5.524,11.044-7.06l0.029-0.011
					l0.397-0.205c0.932-0.478,2.549-0.914,4.084-1.224c1.568-0.318,3.208-0.53,4.859-0.676c3.312-0.277,6.678-0.292,10.004-0.033
					c1.666,0.105,3.316,0.331,4.956,0.581c1.631,0.293,3.261,0.589,4.839,1.033c1.594,0.408,3.126,0.953,4.647,1.511
					c1.489,0.616,2.966,1.277,4.32,2.107c1.397,0.78,2.635,1.757,3.843,2.762c1.146,1.06,2.292,2.15,3.197,3.437
					c0.974,1.236,1.716,2.642,2.402,4.085l0.868,2.167c0.15,0.54,0.177,0.564,0.229,0.943c0.054,0.316,0.065,0.657,0.063,1.012
					c-0.013,1.427-0.454,3.053-0.942,4.699l-1.535,5.104c-0.978,3.471-1.537,7.216-0.926,10.748c0.19-1.776,0.593-3.483,1.129-5.13
					c0.531-1.653,1.263-3.22,2.001-4.791l2.382-4.748c0.773-1.644,1.536-3.384,1.886-5.485c0.079-0.524,0.136-1.069,0.13-1.635
					c0.024-0.504-0.097-1.354-0.151-1.675c-0.254-1.094-0.454-1.919-0.756-2.877c-0.651-1.822-1.412-3.641-2.469-5.301
					c-0.989-1.707-2.262-3.225-3.597-4.673c-1.422-1.348-2.913-2.644-4.547-3.695c-1.604-1.106-3.313-2.001-5.045-2.831
					c-1.745-0.782-3.527-1.484-5.349-1.996c-3.626-1.108-7.339-1.731-11.055-2.032c-3.718-0.314-7.446-0.242-11.172,0.13
					c-1.865,0.219-3.729,0.512-5.611,0.948c-1.902,0.468-3.734,0.982-5.895,2.235l0.426-0.215c-4.8,2.153-9.119,5.189-12.55,9.103
					c-1.726,1.947-3.257,4.093-4.419,6.564c-0.577,1.241-1.046,2.586-1.227,4.118c-0.171,1.481-0.033,3.444,1.276,4.998
					c0.338,0.368,0.633,0.681,1.109,0.978c0.203,0.129,0.497,0.313,0.636,0.37l0.417,0.172l0.507,0.204l0.366,0.138
					c0.253,0.082,0.473,0.21,0.712,0.312c0.928,0.446,1.773,1.021,2.533,1.716c1.525,1.388,2.584,3.372,3.341,5.55
					c0.763,2.18,1.33,4.523,2.022,6.859c0.693,2.313,1.63,4.71,3.308,6.476c-1.292-2.059-1.741-4.406-2.078-6.75
					c-0.348-2.35-0.498-4.765-1.036-7.21c-0.521-2.426-1.43-4.984-3.223-7.106c-0.877-1.062-1.966-1.957-3.137-2.667
					c-0.297-0.169-0.587-0.364-0.894-0.504l-0.458-0.226l-0.229-0.112l-0.056-0.027l-0.029-0.015l-0.015-0.007
					c0.052,0.023-0.136-0.061,0.113,0.049l-0.098-0.054l-0.394-0.22c-0.128-0.075-0.064-0.092-0.112-0.123
					c-0.033-0.024-0.141-0.179-0.19-0.258c-0.213-0.36-0.266-1.01-0.063-1.863C141.765,75.849,142.171,74.927,142.677,74.031z"/>
				<path fill="#000100" d="M124.986,53.563c4.366-3.364,9.189-6.877,14.418-10.318c5.224-3.382,10.996-6.773,17.026-9.073
					c0.689-0.271,1.522-0.534,2.369-0.799c0.8-0.222,1.605-0.444,2.414-0.669c1.656-0.464,3.344-0.858,5.038-1.248
					c3.393-0.772,6.856-1.366,10.347-1.855c6.986-0.941,14.166-1.133,21.188-0.264c7.02,0.789,13.908,2.614,20.16,5.573
					c6.244,2.944,11.952,6.813,16.667,11.456c4.725,4.624,8.597,9.838,11.477,15.224c2.862,5.395,4.822,10.912,5.849,16.157
					c1.001,5.235,1.112,10.241,0.342,14.445c-0.081,0.517-0.231,1.084-0.342,1.608c-0.143,0.476-0.282,0.945-0.42,1.404
					c-0.351,0.904-0.72,1.767-1.217,2.522c-0.948,1.54-2.235,2.747-3.375,3.934c-2.382,2.33-3.563,4.789-4.107,6.436
					c-0.309,0.828-0.446,1.477-0.558,1.912c-0.108,0.437-0.166,0.661-0.166,0.661s0.087-0.215,0.255-0.631
					c0.167-0.415,0.396-1.049,0.805-1.805c0.363-0.771,0.931-1.68,1.679-2.646c0.773-0.958,1.765-1.938,3.001-2.954
					c1.221-1.019,2.729-2.119,4.045-3.78c0.676-0.809,1.229-1.768,1.726-2.791c0.23-0.53,0.423-1.027,0.655-1.628
					c0.164-0.531,0.348-1.023,0.502-1.608c1.306-4.584,1.677-9.935,0.979-15.667c-0.674-5.724-2.341-11.824-5.175-17.809
					c-2.806-5.985-6.682-11.936-11.76-17.147c-5.04-5.223-11.146-9.864-18.079-13.149c-6.896-3.354-14.489-5.448-22.16-6.39
					c-7.69-0.868-15.431-0.564-22.865,0.517c-3.72,0.531-7.374,1.27-10.916,2.211c-1.77,0.469-3.527,0.941-5.248,1.48
					c-0.881,0.277-1.76,0.553-2.634,0.827c-0.817,0.283-1.636,0.568-2.554,0.952c-6.894,2.826-12.526,6.705-17.788,10.486
					c-5.237,3.795-9.869,7.738-14.035,11.478c-8.335,7.478-14.676,14.304-18.957,19.199c-4.277,4.902-6.476,7.899-6.476,7.899
					s2.639-2.616,7.425-6.97C109.311,66.396,116.275,60.323,124.986,53.563z"/>
				<path fill="#000100" d="M75.637,108.888c0.013-0.118,0.026-0.215,0.04-0.313c0.22-0.346,0.436-0.695,0.659-1.029
					c1.457-2.288,2.819-4.431,4.081-6.411c1.315-1.945,2.526-3.731,3.618-5.346c2.241-3.187,3.994-5.719,5.281-7.367
					c1.26-1.677,1.981-2.534,1.981-2.534s-0.835,0.746-2.322,2.232c-0.761,0.728-1.667,1.658-2.709,2.77
					c-1.042,1.112-2.29,2.36-3.544,3.868c-1.286,1.487-2.709,3.136-4.26,4.93c-1.499,1.834-3.057,3.866-4.76,6.017
					c-1.733,2.13-3.405,4.515-5.222,6.996c-1.784,2.503-3.729,5.098-5.537,7.943c-1.852,2.823-3.782,5.764-5.778,8.807
					c-1.961,3.066-3.782,6.355-5.768,9.677c-4.053,6.604-7.722,13.886-11.655,21.357c-1.929,3.755-3.674,7.672-5.56,11.585
					c-1.822,3.939-3.844,7.856-5.455,11.981c-1.689,4.095-3.392,8.222-5.099,12.363c-0.854,2.073-1.711,4.147-2.567,6.226
					l-2.322,6.331c-1.5,4.238-3.002,8.479-4.494,12.701c-0.729,2.118-1.537,4.204-2.191,6.333c-0.659,2.127-1.315,4.25-1.968,6.362
					c-1.325,4.22-2.582,8.426-3.808,12.583c-0.617,2.076-1.23,4.142-1.84,6.191c-0.53,2.072-1.056,4.129-1.58,6.167
					c-0.661,2.563-1.297,5.093-1.922,7.604l-0.156,0.081c0,0,0.04,0.063,0.099,0.153c-1.342,5.391-2.608,10.657-3.822,15.724
					c-1.553,7.573-2.908,14.748-4.156,21.361c-0.62,3.305-1.215,6.472-1.781,9.485c-0.427,3.027-0.832,5.899-1.21,8.6
					c-0.77,5.394-1.35,10.114-1.85,13.998c-0.517,3.881-0.829,6.946-1.081,9.029c-0.243,2.086-0.371,3.198-0.371,3.198
					s0.282-1.083,0.815-3.113c0.52-2.033,1.342-5.004,2.269-8.808c0.945-3.799,2.117-8.409,3.36-13.715
					c0.637-2.648,1.317-5.468,2.034-8.44c0.799-2.94,1.638-6.032,2.516-9.259c1.747-6.448,3.636-13.424,5.515-20.821
					c0.147-0.5,0.305-1.016,0.454-1.517c0.08,0.119,0.151,0.254,0.234,0.367c0.456,0.64,1.014,1.13,1.519,1.479
					c0.261,0.162,0.528,0.269,0.743,0.38c0.21,0.125,0.438,0.135,0.602,0.186c0.332,0.075,0.521,0.12,0.521,0.12
					s-0.17-0.092-0.469-0.255c-0.141-0.092-0.338-0.147-0.502-0.321c-0.167-0.157-0.373-0.309-0.558-0.51
					c-0.354-0.43-0.697-0.96-0.932-1.6c-0.235-0.636-0.41-1.337-0.484-2.064c-0.002-0.012-0.002-0.021-0.002-0.033
					c0.653-2.18,1.315-4.384,1.988-6.624c0.886,0.911,1.82,1.835,2.87,2.66c0.613,0.51,1.256,0.985,1.936,1.398
					c0.636,0.46,1.354,0.789,2.022,1.127c0.655,0.364,1.393,0.517,2.026,0.76c0.663,0.182,1.323,0.231,1.902,0.338
					c0.594,0.036,1.145-0.033,1.621-0.043c0.482,0.021,0.877-0.177,1.208-0.241c0.655-0.18,1.029-0.282,1.029-0.282
					s-0.384,0.051-1.055,0.14c-0.334,0.02-0.729,0.161-1.196,0.074c-0.462-0.056-0.984-0.06-1.532-0.168
					c-0.542-0.18-1.137-0.303-1.724-0.554c-0.565-0.316-1.206-0.53-1.771-0.956c-0.575-0.4-1.182-0.779-1.72-1.293
					c-0.569-0.462-1.102-0.984-1.611-1.537c-1.04-1.072-1.942-2.279-2.765-3.416c-0.157-0.233-0.292-0.451-0.443-0.679
					c0.587-1.969,1.174-3.96,1.758-5.971c0.202,0.318,0.412,0.637,0.641,0.945c0.479,0.674,1.058,1.294,1.657,1.797
					c0.597,0.511,1.255,0.854,1.829,1.073c0.292,0.095,0.578,0.135,0.813,0.19c0.233,0.072,0.456,0.025,0.627,0.036
					c0.343-0.005,0.538-0.009,0.538-0.009s-0.187-0.049-0.518-0.135c-0.158-0.054-0.361-0.062-0.561-0.191
					c-0.204-0.113-0.438-0.21-0.666-0.362c-0.446-0.331-0.907-0.765-1.286-1.33c-0.382-0.56-0.719-1.199-0.966-1.888
					c-0.523-1.356-0.786-2.818-0.917-3.905c-0.012-0.091-0.017-0.161-0.026-0.245c0.584-1.999,1.171-4.017,1.763-6.047
					c0.669-2.008,1.343-4.028,2.022-6.062c1.365-4.064,2.733-8.182,4.051-12.349c0.669-2.08,1.342-4.17,2.014-6.266
					c0.669-2.097,1.491-4.145,2.23-6.228c1.522-4.151,3.048-8.319,4.573-12.487l2.232-6.269c0.822-2.057,1.644-4.111,2.463-6.163
					c0.979-2.45,1.949-4.878,2.921-7.313c0.321,0.424,0.646,0.849,1,1.29c0.974,1.14,2.032,2.335,3.237,3.394
					c0.587,0.542,1.204,1.053,1.857,1.504c0.612,0.493,1.309,0.86,1.958,1.234c0.633,0.398,1.363,0.591,1.981,0.869
					c0.653,0.217,1.309,0.304,1.883,0.44c0.59,0.068,1.145,0.029,1.62,0.046c0.479,0.047,0.884-0.128,1.219-0.176
					c0.663-0.143,1.042-0.225,1.042-0.225s-0.385,0.029-1.06,0.082c-0.334,0.001-0.735,0.119-1.197,0.008
					c-0.459-0.08-0.979-0.111-1.522-0.249c-0.528-0.21-1.119-0.366-1.691-0.649c-0.548-0.347-1.176-0.594-1.717-1.05
					c-0.553-0.432-1.139-0.843-1.647-1.386c-0.543-0.492-1.048-1.042-1.523-1.622c-0.979-1.127-1.816-2.382-2.575-3.562
					c-0.638-1.064-1.192-2.063-1.655-2.981c0.252-0.63,0.508-1.271,0.761-1.901c0.455-1.188,0.945-2.359,1.447-3.521
					c0.184,0.286,0.362,0.573,0.564,0.851c0.561,0.808,1.242,1.547,1.945,2.152c0.332,0.319,0.748,0.536,1.084,0.782
					c0.364,0.217,0.75,0.355,1.076,0.51c0.346,0.118,0.684,0.168,0.966,0.236c0.279,0.089,0.544,0.038,0.748,0.051
					c0.41,0,0.645-0.002,0.645-0.002s-0.228-0.051-0.625-0.141c-0.194-0.059-0.441-0.061-0.686-0.207
					c-0.25-0.128-0.538-0.235-0.82-0.409c-0.264-0.214-0.567-0.404-0.84-0.663c-0.249-0.295-0.554-0.54-0.781-0.894
					c-0.487-0.663-0.925-1.426-1.253-2.249c-0.374-0.871-0.651-1.776-0.864-2.634c0.768-1.771,1.53-3.533,2.291-5.288
					c0.276,0.602,0.596,1.185,0.963,1.688c0.458,0.64,1.014,1.13,1.519,1.479c0.261,0.162,0.528,0.27,0.743,0.381
					c0.21,0.124,0.439,0.135,0.602,0.186c0.333,0.075,0.523,0.119,0.523,0.119s-0.171-0.092-0.469-0.254
					c-0.143-0.092-0.338-0.147-0.502-0.321c-0.169-0.158-0.374-0.309-0.558-0.511c-0.354-0.43-0.699-0.959-0.932-1.599
					c-0.236-0.637-0.41-1.337-0.485-2.065c-0.092-0.718-0.113-1.444-0.095-2.13c1.32-3.064,2.611-6.118,4.002-9.063
					c1.79-3.751,3.605-7.414,5.281-11.052c1.642-3.657,3.451-7.126,5.212-10.509c1.762-3.378,3.421-6.703,5.127-9.858
					c1.735-3.143,3.412-6.181,5.021-9.095c0.008-0.014,0.015-0.026,0.021-0.039c0.157,0.538,0.334,1.084,0.561,1.622
					c0.303,0.769,0.717,1.511,1.178,2.142c0.458,0.64,1.013,1.13,1.519,1.479c0.262,0.164,0.528,0.269,0.745,0.381
					c0.21,0.124,0.437,0.134,0.601,0.185c0.333,0.076,0.523,0.12,0.523,0.12s-0.17-0.092-0.471-0.254
					c-0.141-0.092-0.336-0.147-0.5-0.321c-0.169-0.158-0.372-0.309-0.559-0.511c-0.353-0.43-0.695-0.959-0.93-1.599
					c-0.234-0.637-0.408-1.337-0.483-2.065c-0.184-1.441-0.089-2.923,0.044-4.01c0.063-0.545,0.141-0.994,0.199-1.301
					c0.015-0.069,0.023-0.105,0.033-0.161c0.805-1.333,1.604-2.631,2.349-3.92c0.312-0.526,0.615-1.046,0.918-1.563
					c0.097,0.743,0.213,1.521,0.354,2.334c0.296,1.468,0.643,3.025,1.184,4.536c0.249,0.76,0.541,1.504,0.896,2.215
					c0.295,0.728,0.728,1.389,1.114,2.03c0.362,0.656,0.907,1.178,1.313,1.721c0.462,0.505,0.998,0.898,1.43,1.297
					c0.485,0.346,0.987,0.581,1.396,0.825c0.395,0.273,0.834,0.316,1.153,0.438c0.648,0.197,1.019,0.309,1.019,0.309
					s-0.353-0.161-0.966-0.442c-0.295-0.161-0.702-0.251-1.053-0.573c-0.361-0.292-0.8-0.572-1.208-0.956
					c-0.361-0.439-0.801-0.86-1.165-1.388c-0.312-0.568-0.74-1.089-0.993-1.75c-0.275-0.646-0.587-1.289-0.769-2.011
					c-0.236-0.693-0.412-1.418-0.546-2.156c-0.31-1.462-0.433-2.964-0.524-4.363c-0.049-1.408-0.053-2.721,0.008-3.846
					C75.475,110.464,75.567,109.532,75.637,108.888z"/>
			</g>
		</g>
		<g>
			<g id="XMLID_8_">
				<g>
					<path fill="#000100" d="M126.798,201.565l-1.463-0.322c0.244-0.082,0.504-0.165,0.75-0.23
						C126.327,201.186,126.571,201.375,126.798,201.565z"/>
					<path fill="#000100" d="M117.941,226.318l1.308,0.833l-0.788-0.069C118.278,226.834,118.111,226.585,117.941,226.318z"/>
					<polygon fill="#C1282E" points="103.508,198.652 103.475,198.657 103.456,198.643 103.489,198.639 					"/>
					<polygon fill="#C1282E" points="103.421,198.63 103.456,198.643 103.439,198.645 					"/>
					<path fill="#000100" d="M103.421,198.63l0.019,0.015c-0.017,0.002-0.017,0.002-0.036-0.013L103.421,198.63z"/>
					<path fill="#000100" d="M101.559,196.359c0.129,0.086,0.242,0.173,0.374,0.274l-0.892-0.226L101.559,196.359z"/>
					<path fill="#000100" d="M100.842,223.097c-0.239,0.25-0.497,0.485-0.759,0.688l-0.883-0.159L100.842,223.097z"/>
					<path fill="#C1282E" d="M103.404,198.632c0.019,0.015,0.019,0.015,0.036,0.013l0.017-0.002l0.019,0.015l0.033-0.005
						l0.069,0.009l0.194,0.06l0.383,0.087l3.097,0.658l6.191,1.3l6.222,1.279l1.542,0.278c0.489,0.125,1.127,0.214,1.444,0.309
						c0.402,0.102,0.779,0.274,1.142,0.465c0.361,0.175,0.682,0.439,1.003,0.703l0.682,0.574l0.781-0.251l16.417-5.258l4.123-1.267
						c1.368-0.427,2.736-0.854,4.108-1.247l4.129-1.216l4.098-1.061c1.371-0.274,2.905-0.587,4.185-0.782
						c0.614-0.095,1.173,0.037,1.68,0.295c0.494,0.293,0.861,0.789,1.185,1.34c0.57,1.164,0.798,2.558,0.872,3.953
						c0.077,1.412,0.017,2.808-0.14,4.25c-0.338,2.818-0.983,5.609-1.874,8.346c-0.471,1.363-0.998,2.683-1.629,3.981
						c-0.329,0.616-0.672,1.253-1.09,1.83c-0.422,0.544-0.809,1.101-1.498,1.272c-0.399,0.051-0.736,0.33-0.895,0.689
						c-0.144,0.34-0.201,0.686-0.259,1.031c-0.065,0.686-0.051,1.344-0.03,2.035c0.066,1.329,0.187,2.685,0.284,3.993
						c0.183,2.651,0.274,5.383-0.284,7.925c-0.28,1.271-0.786,2.486-1.596,3.452c-0.773,0.978-1.897,1.594-3.097,1.881
						c-0.606,0.161-1.21,0.204-1.814,0.246l-1.017-0.007l-0.241-0.037l-0.219,0.011l-0.498-0.056
						c-1.3-0.106-2.611-0.296-3.909-0.521c-5.182-0.953-10.195-2.706-14.848-5.098c-1.157-0.581-2.289-1.234-3.39-1.907
						c-1.086-0.692-2.16-1.42-3.174-2.206c-1.011-0.77-1.962-1.597-2.82-2.487c-0.876-0.905-1.574-1.866-2.191-2.872l-0.447-0.722
						l-0.84-0.08l-1.271-0.145l-1.059-0.205l-2.479-0.465l-4.951-0.999l-9.908-1.913l-0.936-0.17l-0.705,0.716
						c-1.772,1.781-4.443,3.017-7.184,3.837c-2.753,0.855-5.671,1.343-8.614,1.631c-2.947,0.254-5.922,0.291-8.893,0.091
						c-2.946-0.135-5.919-0.623-8.774-1.243c-0.717-0.181-1.413-0.33-2.132-0.526l-2.199-0.653c-1.259-0.45-2.533-1.018-3.432-1.835
						c-0.932-0.813-1.548-1.802-1.758-3.062c-0.22-1.208-0.089-2.579,0.209-3.971c0.648-2.773,1.949-5.478,3.245-8.215
						c0.636-1.4,1.342-2.776,1.85-4.381c0.116-0.421,0.23-0.859,0.263-1.405l0.018-0.392c-0.002-0.151-0.04-0.316-0.08-0.497
						c0.04-0.226-0.484-1.022-0.643-1.07l-0.115-0.104l-0.054-0.027l-0.021-0.031l-0.203-0.127c-0.006-0.05-0.006-0.05-0.023-0.048
						c-0.031,0.021-0.102-0.14-0.158-0.183c-0.13-0.221-0.266-0.491-0.355-0.802c-0.772-2.628-0.766-5.794-0.614-8.742
						c0.181-2.985,0.594-6.018,1.365-8.891c0.392-1.455,0.89-2.872,1.557-4.158c0.667-1.286,1.538-2.564,2.714-3.171
						c0.558-0.273,1.235-0.409,1.831-0.248c0.269-0.017,0.671,0.22,1.009,0.347c0.25,0.104,0.638,0.359,0.946,0.523
						c1.282,0.769,2.623,1.463,3.87,2.354c2.546,1.659,4.994,3.482,7.442,5.307c2.432,1.825,4.821,3.724,7.211,5.622
						c4.736,3.854,9.383,7.804,14.016,11.771l0.321,0.265l0.59-0.024l0.587-0.04l0.283-0.036l0.396,0.052l0.668,0.068
						L103.404,198.632z"/>
					<polygon fill="#000100" points="58.664,200.53 58.666,200.547 58.647,200.532 58.631,200.534 58.628,200.518 58.646,200.516 
						58.662,200.513 					"/>
					<path fill="#000100" d="M58.572,200.474l-0.019-0.015l0.017-0.002c0.019,0.015,0.038,0.029,0.073,0.042
						c0,0-0.017,0.002,0.002,0.017l-0.017,0.002l-0.037-0.029L58.572,200.474z"/>
					<path fill="#000100" d="M58.691,200.611c0.021,0.031,0.075,0.058,0.092,0.056c0.019,0.015,0.035,0.013,0,0
						c-0.021-0.031-0.021-0.031-0.04-0.046l-0.056-0.043l-0.019-0.015c0,0,0,0,0.019,0.015
						C58.687,200.578,58.689,200.595,58.691,200.611z M55.455,214.919c-0.298,1.392-0.429,2.763-0.209,3.971
						c0.21,1.26,0.826,2.248,1.758,3.062c0.899,0.817,2.173,1.385,3.432,1.835l2.199,0.653c0.719,0.196,1.415,0.346,2.132,0.526
						c2.854,0.62,5.828,1.108,8.774,1.243c2.971,0.2,5.946,0.163,8.893-0.091c2.943-0.288,5.861-0.775,8.614-1.631
						c2.74-0.82,5.411-2.056,7.184-3.837l0.705-0.716l0.936,0.17l9.908,1.913l4.951,0.999l2.479,0.465l1.059,0.205l1.271,0.145
						l0.84,0.08l0.447,0.722c0.618,1.006,1.315,1.967,2.191,2.872c0.857,0.891,1.809,1.718,2.82,2.487
						c1.014,0.786,2.087,1.514,3.174,2.206c1.101,0.673,2.233,1.326,3.39,1.907c4.653,2.392,9.666,4.145,14.848,5.098
						c1.298,0.226,2.609,0.415,3.909,0.521l0.498,0.056l0.219-0.011l0.241,0.037l1.017,0.007c0.604-0.042,1.208-0.085,1.814-0.246
						c1.199-0.287,2.323-0.903,3.097-1.881c0.81-0.966,1.315-2.181,1.596-3.452c0.559-2.542,0.467-5.273,0.284-7.925
						c-0.098-1.309-0.218-2.664-0.284-3.993c-0.021-0.691-0.035-1.35,0.03-2.035c0.058-0.346,0.115-0.691,0.259-1.031
						c0.158-0.359,0.495-0.639,0.895-0.689c0.689-0.172,1.076-0.729,1.498-1.272c0.418-0.577,0.761-1.214,1.09-1.83
						c0.631-1.299,1.158-2.618,1.629-3.981c0.891-2.736,1.536-5.527,1.874-8.346c0.156-1.442,0.217-2.838,0.14-4.25
						c-0.074-1.396-0.302-2.789-0.872-3.953c-0.323-0.551-0.69-1.047-1.185-1.34c-0.507-0.258-1.065-0.39-1.68-0.295
						c-1.279,0.195-2.813,0.508-4.185,0.782l-4.098,1.061l-4.129,1.216c-1.372,0.394-2.74,0.82-4.108,1.247l-4.123,1.267
						l-16.417,5.258l-0.781,0.251l-0.682-0.574c-0.321-0.264-0.642-0.528-1.003-0.703c-0.363-0.19-0.74-0.363-1.142-0.465
						c-0.317-0.095-0.955-0.184-1.444-0.309l-1.542-0.278l-6.222-1.279l-6.191-1.3l-3.097-0.658l-0.383-0.087l-0.194-0.06
						l-0.069-0.009l-0.019-0.014l-0.033,0.004l-0.035-0.013l-0.017,0.002l-0.033,0.005l-0.668-0.068l-0.396-0.052l-0.283,0.036
						l-0.587,0.04l-0.59,0.024l-0.321-0.265c-4.632-3.968-9.279-7.918-14.016-11.771c-2.39-1.898-4.78-3.797-7.211-5.622
						c-2.448-1.824-4.896-3.647-7.442-5.307c-1.247-0.892-2.587-1.586-3.87-2.354c-0.309-0.164-0.696-0.42-0.946-0.523
						c-0.338-0.127-0.74-0.363-1.009-0.347c-0.596-0.161-1.273-0.025-1.831,0.248c-1.176,0.606-2.047,1.885-2.714,3.171
						c-0.667,1.286-1.165,2.703-1.557,4.158c-0.771,2.873-1.184,5.905-1.365,8.891c-0.152,2.948-0.158,6.114,0.614,8.742
						c0.09,0.311,0.226,0.581,0.355,0.802c0.056,0.043,0.127,0.204,0.158,0.183c0.017-0.002,0.017-0.002,0.023,0.048l0.203,0.127
						l0.021,0.031l0.054,0.027l0.115,0.104c0.159,0.048,0.683,0.845,0.643,1.07c0.04,0.181,0.078,0.346,0.08,0.497l-0.018,0.392
						c-0.033,0.546-0.146,0.984-0.263,1.405c-0.508,1.604-1.214,2.98-1.85,4.381C57.404,209.441,56.104,212.146,55.455,214.919z
						 M52.395,219.368c-0.259-1.778-0.003-3.504,0.389-5.094c0.852-3.172,2.31-5.963,3.71-8.68c0.692-1.356,1.436-2.704,1.9-3.981
						c0.114-0.302,0.193-0.617,0.216-0.84l0.029-0.173c-0.019-0.015-0.025-0.064-0.008-0.066l0.017-0.002l0.019,0.015l-0.002-0.017
						l-0.002-0.018l-0.017,0.003c-0.019-0.015-0.002-0.017-0.002-0.017c-0.035-0.013-0.054-0.027-0.073-0.042
						c-0.094-0.073-0.188-0.146-0.3-0.233c-0.3-0.232-0.363-0.462-0.542-0.676c-0.247-0.477-0.418-0.896-0.521-1.306
						c-0.465-1.668-0.513-3.253-0.54-4.807c-0.013-1.573,0.079-3.125,0.223-4.667c0.32-3.088,0.845-6.167,1.774-9.129
						c0.471-1.498,1.015-2.955,1.75-4.369c0.756-1.382,1.677-2.802,3.27-3.596c0.797-0.389,1.705-0.571,2.616-0.331
						c0.5,0.072,0.777,0.258,1.148,0.38c0.434,0.216,0.694,0.403,1.042,0.613c1.322,0.814,2.683,1.54,3.935,2.465l3.797,2.584
						l3.727,2.695c2.462,1.805,4.942,3.607,7.374,5.433c4.798,3.541,9.539,7.157,14.237,10.846l-0.519,0.049l0.892,0.226
						c-0.131-0.102-0.244-0.188-0.374-0.274l0.467-0.059l0.485-0.044l0.392,0.018l0.802,0.051l0.883,0.159l3.127,0.502l6.245,1.056
						l6.251,1.106l1.559,0.276c0.54,0.118,0.95,0.151,1.631,0.319c0.646,0.155,1.24,0.436,1.82,0.734
						c0.309,0.164,0.584,0.333,0.863,0.534c-0.246,0.065-0.506,0.148-0.75,0.23l1.463,0.322c-0.228-0.19-0.472-0.38-0.713-0.553
						c2.486-0.822,4.995-1.597,7.509-2.337c2.755-0.84,5.533-1.631,8.329-2.407c2.784-0.742,5.587-1.469,8.403-2.096l4.245-0.977
						l4.314-0.816c1.462-0.219,2.776-0.401,4.347-0.566c0.825-0.036,1.717,0.189,2.468,0.637c0.738,0.481,1.221,1.217,1.567,1.951
						c0.623,1.445,0.75,2.986,0.75,4.459c-0.017,1.476-0.173,2.917-0.415,4.353c-0.434,2.865-1.196,5.67-2.171,8.4
						c-0.486,1.382-1.03,2.703-1.694,4.006c-0.326,0.634-0.705,1.258-1.116,1.885c-0.235,0.284-0.451,0.582-0.743,0.822
						c-0.254,0.27-0.666,0.49-0.994,0.565l-0.036-0.012c-0.546,0.103-0.764,0.79-0.816,1.44c-0.054,0.65-0.04,1.292-0.006,1.965
						c0.083,1.326,0.237,2.678,0.354,4.001c0.219,2.664,0.443,5.378-0.043,8.098c-0.269,1.354-0.708,2.696-1.559,3.87
						c-0.832,1.188-2.135,1.997-3.501,2.44c-0.683,0.222-1.418,0.298-2.133,0.405l-1.01,0.043l-0.252,0.015l-0.292-0.031
						l-0.508-0.003c-1.358-0.031-2.711-0.148-4.067-0.299c-5.416-0.652-10.742-2.078-15.778-4.286
						c-1.255-0.552-2.485-1.175-3.705-1.851c-1.186-0.68-2.394-1.391-3.53-2.212c-1.139-0.838-2.248-1.713-3.272-2.718
						c-0.828-0.793-1.585-1.695-2.268-2.676l0.788,0.069l-1.308-0.833c0.169,0.267,0.336,0.516,0.52,0.764l-0.479-0.041
						l-0.069-0.009l-0.256-0.018l-0.156-0.031l-0.296-0.064l-0.625-0.124l-2.495-0.446l-4.955-0.897l-9.048-1.666
						c0.262-0.203,0.521-0.438,0.759-0.688l-1.643,0.529l0.883,0.159c-2.405,2.132-5.224,3.268-7.977,4.123
						c-3.098,0.934-6.233,1.448-9.384,1.694c-3.137,0.228-6.293,0.169-9.42-0.062c-3.125-0.215-6.209-0.772-9.297-1.5
						c-0.769-0.19-1.573-0.394-2.313-0.621l-2.186-0.689c-1.611-0.558-3.177-1.291-4.535-2.524S52.639,221.166,52.395,219.368z"/>
				</g>
			</g>
			<path fill="#FFFFFF" d="M95.869,205.73c0-0.001-1.301-0.087-3.182-0.529c-0.928-0.229-2.024-0.521-3.156-0.938
				c-1.124-0.442-2.299-0.975-3.447-1.553c-2.311-1.136-4.527-2.495-5.965-3.806c-0.387-0.295-0.669-0.652-0.948-0.922
				c-0.284-0.271-0.497-0.539-0.654-0.779c-0.338-0.444-0.526-0.705-0.526-0.705l0.085-0.061c0,0,0.21,0.239,0.579,0.658
				c0.174,0.213,0.4,0.454,0.702,0.696c0.3,0.246,0.597,0.566,0.996,0.823c1.516,1.137,3.748,2.348,6.086,3.312
				c1.166,0.491,2.367,0.895,3.48,1.295c1.104,0.426,2.139,0.829,3.026,1.171c1.77,0.708,2.949,1.229,2.952,1.229L95.869,205.73z"/>
			<path fill="#FFFFFF" d="M93.61,208.035c0,0-0.394,0.19-0.974,0.272c-0.289,0.024-0.623,0.088-0.978-0.005
				c-0.356-0.094-0.727-0.243-1.094-0.371c-1.498-0.473-2.918-1.026-2.918-1.025l0.031-0.102c0,0.002,1.54,0.096,3.008,0.279
				c0.371,0.031,0.74,0.051,1.079,0.111c0.343,0.097,0.668,0.188,0.94,0.27c0.554,0.199,0.912,0.464,0.912,0.464L93.61,208.035z"/>
			<path fill="#FFFFFF" d="M94.907,210.336c0,0-0.868,0.651-2.304,1.366c-0.727,0.338-1.576,0.731-2.533,1.033
				c-0.962,0.284-2.002,0.535-3.055,0.724c-1.046,0.222-2.109,0.359-3.11,0.449c-1.002,0.087-1.944,0.072-2.744,0.005
				c-0.797-0.1-1.463-0.185-1.904-0.343c-0.449-0.131-0.702-0.208-0.702-0.208l0.033-0.099c0,0,0.257,0.043,0.712,0.13
				c0.436,0.108,1.101,0.128,1.878,0.146c1.564-0.015,3.631-0.343,5.641-0.91c1.003-0.277,1.983-0.64,2.913-0.949
				c0.93-0.299,1.811-0.538,2.563-0.77c1.519-0.432,2.567-0.672,2.567-0.672L94.907,210.336z"/>
			<path fill="#000100" d="M124.563,212.872c0,0,0.088,0.939,0.121,2.363c0.051,1.424-0.065,3.323-0.41,5.25
				c-0.169,0.961-0.379,1.95-0.776,2.853c-0.274,0.432-0.478,0.859-0.854,1.195c-0.351,0.347-0.672,0.661-1.11,0.845
				c-0.2,0.104-0.394,0.184-0.578,0.258c-0.213,0.029-0.4,0.067-0.582,0.073c-0.359,0.051-0.656,0.019-0.891-0.1
				c-0.467-0.159-0.676-0.29-0.676-0.29l0.036-0.212c0,0,0.264-0.118,0.617-0.251c0.18-0.046,0.366-0.177,0.54-0.336
				c0.094-0.082,0.188-0.143,0.277-0.205c0.085-0.11,0.161-0.229,0.249-0.325c0.184-0.169,0.317-0.469,0.491-0.731
				c0.166-0.257,0.302-0.628,0.495-0.933c0.361-0.683,0.812-1.44,1.117-2.29c0.622-1.687,1.002-3.51,1.308-4.873
				c0.287-1.369,0.413-2.296,0.413-2.296L124.563,212.872z"/>
			<path fill="#000100" d="M99.825,200.707c0,0-0.04,0.946-0.184,2.344c-0.147,1.397-0.369,3.251-0.651,5.083
				c-0.263,1.837-0.581,3.664-0.73,5.038c-0.054,0.69-0.113,1.26-0.088,1.66c0.047,0.394,0.088,0.638,0.088,0.638
				s-0.126-0.196-0.292-0.595c-0.111-0.402-0.269-0.994-0.308-1.711c-0.11-1.431-0.005-3.325,0.271-5.188
				c0.275-1.86,0.731-3.688,1.125-5.039C99.454,201.581,99.825,200.707,99.825,200.707z"/>
			<path fill="#FFFFFF" d="M130.72,212.588c0,0,1.189-0.271,2.981-0.529c0.897-0.115,1.937-0.258,3.049-0.367
				c1.124-0.082,2.317-0.168,3.51-0.25c1.201-0.083,2.376-0.287,3.497-0.425c1.105-0.143,2.119-0.399,3.009-0.554
				c0.882-0.163,1.57-0.468,2.075-0.601c0.502-0.162,0.791-0.253,0.791-0.253l0.042,0.099c0,0-0.277,0.113-0.761,0.318
				c-0.494,0.182-1.177,0.551-2.048,0.799c-0.874,0.232-1.888,0.587-2.998,0.804c-1.116,0.211-2.298,0.498-3.496,0.657
				c-1.195,0.198-2.388,0.407-3.52,0.516c-1.127,0.106-2.189,0.104-3.095,0.103c-1.811-0.029-3.029-0.208-3.029-0.208
				L130.72,212.588z"/>
			<path fill="#FFFFFF" d="M130.274,218.911c0,0,0.395,0.633,0.892,1.567c0.235,0.479,0.543,1.006,0.815,1.592
				c0.279,0.588,0.549,1.233,0.902,1.823c0.345,0.605,0.771,1.144,1.22,1.6c0.453,0.457,0.941,0.789,1.406,1.029
				c0.231,0.103,0.464,0.159,0.664,0.233c0.199,0.09,0.386,0.063,0.54,0.09c0.305,0.031,0.484,0.048,0.484,0.048l0.008,0.108
				c0,0-0.18,0.01-0.502,0.026c-0.156-0.007-0.361,0.046-0.576-0.009c-0.223-0.044-0.484-0.073-0.751-0.147
				c-0.535-0.181-1.14-0.462-1.681-0.917c-0.544-0.436-1.076-0.979-1.514-1.574c-0.473-0.586-0.871-1.209-1.201-1.824
				c-0.292-0.628-0.476-1.249-0.61-1.782c-0.244-1.078-0.2-1.839-0.2-1.839L130.274,218.911z"/>
			<path fill="#FFFFFF" d="M130.722,216.37c0,0,0.397-0.02,0.871,0.067c0.231,0.061,0.503,0.115,0.766,0.231
				c0.248,0.15,0.512,0.312,0.774,0.473c0.548,0.302,1.119,0.5,1.564,0.646c0.441,0.092,0.77,0.127,0.77,0.127l0.015,0.104
				c0,0-0.315,0.079-0.818,0.143c-0.509,0.03-1.185-0.054-1.829-0.221c-0.321-0.077-0.663-0.139-0.948-0.261
				c-0.282-0.134-0.51-0.327-0.695-0.499c-0.368-0.356-0.52-0.719-0.52-0.719L130.722,216.37z"/>
		</g>
		<g>
			
				<linearGradient id="SVGID_6_" gradientUnits="userSpaceOnUse" x1="266.3252" y1="497.4316" x2="274.7744" y2="497.4316" gradientTransform="matrix(0.7101 0.7041 -0.7041 0.7101 400.6407 -524.704)">
				<stop  offset="0" style="stop-color:#D26F31"/>
				<stop  offset="0.1426" style="stop-color:#D4772F"/>
				<stop  offset="0.3788" style="stop-color:#DA8B27"/>
				<stop  offset="0.5521" style="stop-color:#E09D1B"/>
				<stop  offset="0.8652" style="stop-color:#E5C51C"/>
				<stop  offset="0.9944" style="stop-color:#BF7022"/>
			</linearGradient>
			<path fill="url(#SVGID_6_)" d="M237.444,24.227c1.107,1.071,6.161-0.345,6.161-0.345l1.628-6.101
				c0.798,0.215,1.683,0.006,2.307-0.622c0.928-0.937,0.923-2.448-0.014-3.377c-0.935-0.927-2.446-0.922-3.373,0.015
				c-0.639,0.642-0.837,1.554-0.594,2.363l-5.952,1.771C237.607,17.932,236.314,23.13,237.444,24.227z"/>
			<path fill="#000100" d="M237.174,24.485c-1.21-1.197-0.159-5.747,0.065-6.644c0.031-0.132,0.132-0.236,0.26-0.272l5.614-1.673
				c-0.133-0.858,0.146-1.738,0.769-2.367c1.073-1.08,2.826-1.087,3.909-0.015c1.082,1.073,1.091,2.826,0.018,3.909
				c-0.605,0.609-1.46,0.9-2.305,0.797l-1.531,5.755c-0.036,0.132-0.137,0.233-0.265,0.268c-0.879,0.249-5.322,1.419-6.524,0.254
				C237.184,24.496,237.176,24.487,237.174,24.485z M237.922,18.23c-0.488,2.064-0.861,5.081-0.217,5.721l-0.266,0.268l0.271-0.266
				c0.632,0.616,3.576,0.16,5.587-0.378l1.567-5.888c0.057-0.202,0.265-0.323,0.463-0.268c0.697,0.184,1.441-0.018,1.947-0.526
				c0.777-0.787,0.773-2.063-0.015-2.844c-0.786-0.779-2.061-0.772-2.841,0.013c-0.519,0.523-0.709,1.284-0.499,1.986
				c0.059,0.202-0.054,0.412-0.253,0.473L237.922,18.23z"/>
			
				<linearGradient id="SVGID_8_" gradientUnits="userSpaceOnUse" x1="290.7246" y1="497.4307" x2="299.1748" y2="497.4307" gradientTransform="matrix(0.7101 0.7041 -0.7041 0.7101 400.6407 -524.704)">
				<stop  offset="0" style="stop-color:#D26F31"/>
				<stop  offset="0.1426" style="stop-color:#D4772F"/>
				<stop  offset="0.3788" style="stop-color:#DA8B27"/>
				<stop  offset="0.5521" style="stop-color:#E09D1B"/>
				<stop  offset="0.8652" style="stop-color:#E5C51C"/>
				<stop  offset="0.9944" style="stop-color:#BF7022"/>
			</linearGradient>
			<path fill="url(#SVGID_8_)" d="M254.637,41.274c1.107,1.122,6.295-0.212,6.295-0.212l1.723-5.968
				c0.81,0.232,1.72,0.029,2.356-0.612c0.929-0.935,0.922-2.448-0.015-3.377s-2.445-0.919-3.374,0.015
				c-0.625,0.63-0.825,1.519-0.606,2.313l-6.084,1.68C254.932,35.112,253.556,40.176,254.637,41.274z"/>
			<path fill="#000100" d="M254.379,41.55c0,0-0.006-0.008-0.008-0.01c-1.176-1.194-0.043-5.646,0.195-6.527
				c0.034-0.128,0.135-0.23,0.266-0.266l5.744-1.583c-0.11-0.843,0.172-1.701,0.775-2.312c1.074-1.08,2.826-1.087,3.91-0.015
				c1.082,1.073,1.092,2.828,0.018,3.91c-0.621,0.628-1.5,0.914-2.361,0.789l-1.622,5.631c-0.038,0.126-0.143,0.228-0.271,0.261
				C260.128,41.658,255.59,42.747,254.379,41.55z M255.238,35.417c-0.521,2.018-0.951,4.965-0.329,5.594l-0.266,0.271l0.267-0.271
				c0.646,0.64,3.658,0.241,5.72-0.262l1.66-5.761c0.059-0.2,0.269-0.314,0.469-0.259c0.705,0.206,1.466,0.006,1.984-0.514
				c0.779-0.787,0.774-2.062-0.012-2.844c-0.787-0.779-2.063-0.772-2.842,0.013c-0.505,0.509-0.7,1.255-0.511,1.948
				c0.055,0.202-0.063,0.41-0.264,0.465L255.238,35.417z"/>
			
				<linearGradient id="SVGID_10_" gradientUnits="userSpaceOnUse" x1="255.7412" y1="497.6162" x2="309.7568" y2="497.6162" gradientTransform="matrix(0.7101 0.7041 -0.7041 0.7101 400.6407 -524.704)">
				<stop  offset="0" style="stop-color:#D26F31"/>
				<stop  offset="0.1426" style="stop-color:#D4772F"/>
				<stop  offset="0.3788" style="stop-color:#DA8B27"/>
				<stop  offset="0.5521" style="stop-color:#E09D1B"/>
				<stop  offset="0.8652" style="stop-color:#E5C51C"/>
				<stop  offset="0.9944" style="stop-color:#BF7022"/>
			</linearGradient>
			<path fill="url(#SVGID_10_)" d="M271.427,40.065c-0.441-1.02-0.251-2.242,0.579-3.078c1.086-1.095,2.855-1.103,3.951-0.017
				c1.098,1.087,1.103,2.855,0.017,3.951c-1.088,1.098-2.855,1.105-3.953,0.018c0,0-15.216,11.515-19.821,12.252l-13.324-13.213
				l-13.328-13.215c0.702-4.61,12.09-19.924,12.09-19.924c-1.098-1.088-1.105-2.854-0.017-3.953
				c1.084-1.093,2.853-1.101,3.951-0.015c1.096,1.087,1.103,2.857,0.017,3.952c-0.827,0.835-2.051,1.035-3.072,0.605l-0.074,0.272
				c-0.614,2.076-4.488,15.641-1.953,18.151c2.819,2.798,21.103-5.902,21.103-5.902l0.029-0.019
				c-0.872-1.379-0.714-3.225,0.483-4.434c1.393-1.405,3.661-1.413,5.065-0.02c1.403,1.393,1.414,3.658,0.021,5.063
				c-1.196,1.207-3.041,1.383-4.427,0.524l-0.019,0.03c0,0-8.547,18.353-5.728,21.149c2.502,2.479,15.708-1.371,18.049-2.081
				L271.427,40.065z"/>
			<path fill="#000100" d="M251.934,53.461l-26.652-26.428c-0.084-0.087-0.126-0.205-0.106-0.328
				c0.667-4.374,10.446-17.771,11.973-19.841c-1.019-1.24-0.949-3.079,0.204-4.243c1.231-1.242,3.244-1.247,4.485-0.017
				c1.241,1.231,1.252,3.244,0.02,4.486c-0.818,0.823-1.991,1.126-3.085,0.826c-1.68,5.721-3.956,15.747-2.018,17.669
				c1.899,1.885,13.074-2.393,20.342-5.818c-0.747-1.506-0.466-3.316,0.739-4.534c1.537-1.548,4.05-1.558,5.6-0.021
				c1.55,1.535,1.56,4.048,0.022,5.598c-1.207,1.215-3.013,1.511-4.526,0.778c-3.364,7.296-7.548,18.505-5.647,20.391
				c1.694,1.678,10.082,0.121,17.651-2.168c-0.31-1.093-0.015-2.267,0.804-3.09c1.232-1.243,3.243-1.25,4.482-0.019
				c1.242,1.232,1.254,3.244,0.021,4.484c-1.154,1.164-2.991,1.245-4.243,0.239c-2.055,1.545-15.368,11.437-19.739,12.139
				C252.139,53.585,252.02,53.546,251.934,53.461z M225.952,26.635l26.372,26.15c4.676-0.984,19.321-12.034,19.469-12.148
				c0.152-0.11,0.36-0.099,0.495,0.034c0.944,0.939,2.479,0.93,3.418-0.015c0.938-0.946,0.93-2.48-0.017-3.418
				c-0.944-0.938-2.479-0.932-3.416,0.015c-0.699,0.705-0.895,1.75-0.502,2.66c0.044,0.102,0.041,0.215-0.005,0.312
				c-0.048,0.099-0.132,0.172-0.238,0.203l-0.355,0.102c-3.669,1.109-15.848,4.537-18.421,1.986
				c-2.924-2.899,4.765-19.678,5.65-21.581c0.007-0.013,0.014-0.027,0.023-0.039l0.018-0.028c0.11-0.177,0.343-0.23,0.519-0.121
				c1.272,0.791,2.901,0.598,3.959-0.471c1.245-1.253,1.235-3.285-0.018-4.526c-1.253-1.245-3.285-1.235-4.53,0.02
				c-1.057,1.066-1.235,2.693-0.435,3.961c0.054,0.085,0.07,0.19,0.049,0.288c-0.024,0.098-0.085,0.185-0.17,0.238l-0.03,0.015
				c-0.01,0.009-0.024,0.015-0.036,0.021c-1.894,0.902-18.605,8.729-21.53,5.829c-2.591-2.566,0.768-14.83,1.858-18.527l0.074-0.263
				c0.026-0.106,0.099-0.193,0.198-0.24c0.097-0.048,0.212-0.05,0.312-0.007c0.917,0.384,1.959,0.179,2.659-0.525
				c0.935-0.946,0.93-2.481-0.017-3.418c-0.946-0.939-2.479-0.933-3.417,0.014c-0.939,0.946-0.935,2.479,0.012,3.418
				c0.135,0.133,0.149,0.343,0.038,0.492C237.827,7.217,226.898,21.952,225.952,26.635z"/>
			
				<linearGradient id="SVGID_12_" gradientUnits="userSpaceOnUse" x1="263.8457" y1="517.041" x2="301.9346" y2="517.041" gradientTransform="matrix(0.7101 0.7041 -0.7041 0.7101 400.6407 -524.704)">
				<stop  offset="0" style="stop-color:#D26F31"/>
				<stop  offset="0.1426" style="stop-color:#D4772F"/>
				<stop  offset="0.3788" style="stop-color:#DA8B27"/>
				<stop  offset="0.5521" style="stop-color:#E09D1B"/>
				<stop  offset="0.8652" style="stop-color:#E5C51C"/>
				<stop  offset="0.9944" style="stop-color:#BF7022"/>
			</linearGradient>
			<path fill="url(#SVGID_12_)" d="M249.568,56.44c-0.302,0.308-0.797,0.311-1.104,0.007l-25.938-25.723
				c-0.307-0.303-0.309-0.795-0.003-1.104l2.796-2.821c0.304-0.307,0.796-0.308,1.103-0.005l25.938,25.723
				c0.306,0.304,0.309,0.797,0.004,1.103L249.568,56.44z"/>
			<path fill="#000100" d="M248.199,56.713l-25.938-25.719c-0.453-0.451-0.456-1.186-0.007-1.639l2.797-2.821
				c0.449-0.454,1.185-0.457,1.639-0.005l25.938,25.72c0.454,0.449,0.457,1.186,0.006,1.637l-2.796,2.822
				C249.389,57.162,248.651,57.166,248.199,56.713z M226.159,27.064c-0.158-0.158-0.415-0.158-0.573,0.001l-2.796,2.821
				c-0.154,0.154-0.156,0.413,0.003,0.572l25.938,25.72c0.157,0.155,0.415,0.155,0.571-0.004l2.796-2.82
				c0.157-0.158,0.156-0.414-0.002-0.569L226.159,27.064z"/>
		</g>
	</g>
</g>
</svg>
