<?xml version="1.0" encoding="utf-8"?>
<!-- Generator: Adobe Illustrator 16.0.0, SVG Export Plug-In . SVG Version: 6.00 Build 0)  -->
<!DOCTYPE svg PUBLIC "-//W3C//DTD SVG 1.1//EN" "http://www.w3.org/Graphics/SVG/1.1/DTD/svg11.dtd">
<svg version="1.1" id="Capa_1" xmlns="http://www.w3.org/2000/svg" xmlns:xlink="http://www.w3.org/1999/xlink" x="0px" y="0px"
	 width="300px" height="300px" viewBox="0 0 300 300" enable-background="new 0 0 300 300" xml:space="preserve">
<g>
	<defs>
		<rect id="SVGID_9_" y="-320" width="300" height="299.999"/>
	</defs>
	<clipPath id="SVGID_2_">
		<use xlink:href="#SVGID_9_"  overflow="visible"/>
	</clipPath>
	<g clip-path="url(#SVGID_2_)">
		<path fill="#C63235" d="M65.105,7.952c-0.943-11.227-1.111-23.744-1.111-23.744c39.08-6.378,33.9-77.979,33.9-77.979
			c10.355-1.274,27.072-6.214,27.072-6.214s0.498,40.185,26.838,46.434c7.533,1.785,27.074-5.869,25.424-46.434
			c0,0,9.654,8.673,26.838,7.91c0,0-6.59,69.65,29.664,77.304c0,0,1.648,16.07,0,23.98L65.105,7.952z"/>
		<path fill="#000100" d="M233.73,10.889c-0.004,0-0.01,0-0.014,0L65.092,9.632c-0.93-0.007-1.701-0.679-1.775-1.548
			c-0.936-11.153-1.115-23.728-1.117-23.854c-0.01-0.825,0.619-1.534,1.486-1.676c37.061-6.049,32.469-75.509,32.418-76.211
			c-0.064-0.884,0.617-1.663,1.557-1.778c10.084-1.242,26.6-6.103,26.768-6.151c0.533-0.159,1.127-0.07,1.59,0.241
			c0.463,0.31,0.736,0.809,0.744,1.34c0.006,0.389,0.795,38.968,25.484,44.825c0.518,0.123,1.098,0.186,1.73,0.186
			c1.697,0,6.146-0.492,10.844-5.057c5.369-5.219,11.57-16.374,10.615-39.87c-0.027-0.684,0.391-1.315,1.059-1.596
			c0.666-0.284,1.447-0.154,1.977,0.32c0.084,0.076,9.453,8.171,25.51,7.445c0.549-0.041,1.021,0.166,1.381,0.515
			c0.357,0.349,0.539,0.828,0.492,1.311c-0.064,0.682-6.037,68.276,28.271,75.517c0.758,0.159,1.318,0.756,1.393,1.478
			c0.066,0.666,1.656,16.406-0.025,24.463C235.326,10.319,234.59,10.889,233.73,10.889z M66.771,6.286l165.438,1.231
			c0.967-6.604,0.156-17.39-0.156-20.949c-33.039-8.424-30.723-65.535-29.926-76.917c-0.063,0-0.127,0-0.193,0
			c-11.035,0-18.807-3.669-22.82-6.168c0.252,22.301-6.141,33.385-11.709,38.796c-3.979,3.868-8.873,6.085-13.428,6.085
			c-0.928,0-1.809-0.097-2.611-0.287c-23.998-5.693-27.572-37.042-28.104-45.815c-4.617,1.302-15.369,4.207-23.484,5.407
			c0.541,10.743,1.902,70.426-33.961,77.914C65.887-11.055,66.121-2.157,66.771,6.286z"/>
	</g>
	<g clip-path="url(#SVGID_2_)">
		<g>
			<g>
				<path fill="#222221" d="M147.801-30.63l-20.582,64.208h-17.77l20.594-64.417h-19.385v-10.496h37.143V-30.63z"/>
			</g>
			<g>
				<path fill="#FFFFFF" d="M129.213,36.313h-23.506l20.594-64.42H107.93v-15.957h42.604l-0.137,14.274L129.213,36.313z
					 M113.189,30.848h12.041l19.84-61.903v-7.548h-31.682v5.04h20.387L113.189,30.848z"/>
			</g>
			<g>
				<path fill="#000100" d="M128.215,34.946H107.58l20.592-64.418h-18.879v-13.229h39.867l-0.064,12.493L128.215,34.946z
					 M111.316,32.214h14.904l20.209-63.058v-9.125h-34.406v7.766h19.883L111.316,32.214z"/>
			</g>
		</g>
		<g>
			<path fill="#222221" d="M154.676,2.183h15.104v17.763c0,1.849,0.992,2.771,2.982,2.771c1.982,0,2.973-0.922,2.973-2.771V2.593
				c0-1.974-0.49-3.326-1.49-4.042c-0.992-0.717-2.844-1.074-5.564-1.074v-8.464c4.709,0,7.055-1.463,7.055-4.384v-13.266
				c0-1.494-0.99-2.25-2.973-2.25c-2.061,0-3.084,0.756-3.084,2.25v13.792h-14.576v-13.907c0-8.838,6.121-13.26,18.359-13.26
				c4.91,0,9.18,1.064,12.836,3.187c3.648,2.124,5.486,5.485,5.486,10.074v10.297c0,5.995-2.848,10.016-8.525,12.068
				c5.854,1.714,8.779,6.341,8.779,13.9v11.125c0,10.417-6.186,15.624-18.551,15.624c-12.533,0-18.811-4.734-18.811-14.208V2.183z"
				/>
		</g>
		<g>
			<path fill="#FFFFFF" d="M173.486,36.993c-17.795,0-21.537-9.216-21.537-16.939V-0.55h14.004v-11.563h-13.584v-16.639
				c0-7.287,3.662-15.991,21.092-15.991c5.375,0,10.154,1.197,14.209,3.556c4.475,2.606,6.844,6.903,6.844,12.436v10.297
				c0,5.145-1.865,9.206-5.424,11.995c3.137,2.453,5.678,6.686,5.678,13.974v11.125C194.768,27.011,191.08,36.993,173.486,36.993z
				 M157.408,4.908v15.146c0,4.93,1.666,11.478,16.078,11.478c14.184,0,15.82-7.354,15.82-12.894V7.513
				c0-8.317-3.891-10.426-6.813-11.275l-8.031-2.353l7.867-2.841c4.582-1.658,6.723-4.671,6.723-9.5v-10.297
				c0-3.625-1.314-6.078-4.131-7.715c-3.203-1.871-7.063-2.819-11.461-2.819c-14.01,0-15.635,6.015-15.635,10.535v11.176h9.119
				v-11.062c0-2.406,1.527-4.981,5.816-4.981c4.217,0,5.707,2.682,5.707,4.981v13.266c0,1.891-0.75,6.015-7.059,6.933v3.326
				c1.941,0.212,3.385,0.694,4.436,1.452c1.738,1.241,2.623,3.351,2.623,6.254v17.353c0,3.338-2.24,5.494-5.707,5.494
				c-3.469,0-5.715-2.156-5.715-5.494V4.908H157.408z M172.512,19.977c0.135,0.013,0.363,0.018,0.492,0c0-0.015,0-0.02,0-0.031
				V2.593c0-1.452-0.34-1.815-0.34-1.821c-0.012-0.006-0.053-0.035-0.152-0.075v19.249
				C172.512,19.957,172.512,19.962,172.512,19.977z M172.402-28.144v13.792c0.602-0.369,0.602-0.809,0.602-1.02v-12.785
				C172.83-28.162,172.572-28.162,172.402-28.144z"/>
		</g>
		<g>
			<path fill="#000100" d="M173.486,35.628c-13.379,0-20.174-5.246-20.174-15.574V0.814h17.834v19.131
				c0,0.954,0.242,1.404,1.615,1.404c1.369,0,1.609-0.45,1.609-1.404V2.593c0-1.035-0.158-2.385-0.916-2.932
				c-0.43-0.303-1.605-0.812-4.775-0.812h-1.365v-11.202h1.365c5.691,0,5.691-2.189,5.691-3.02v-13.266c0-0.395,0-0.884-1.609-0.884
				c-1.723,0-1.723,0.533-1.723,0.884v15.157h-17.311v-15.271c0-9.705,6.645-14.619,19.732-14.619c5.131,0,9.678,1.132,13.523,3.366
				c4.082,2.378,6.156,6.166,6.156,11.253v10.297c0,5.478-2.174,9.495-6.479,12c4.477,2.477,6.74,7.157,6.74,13.969v11.125
				C193.402,26.39,189.945,35.628,173.486,35.628z M156.049,3.546v16.508c0,8.644,5.707,12.844,17.438,12.844
				c11.564,0,17.191-4.661,17.191-14.26V7.513c0-6.938-2.555-11.056-7.807-12.586l-4.008-1.178l3.93-1.421
				c5.131-1.847,7.617-5.375,7.617-10.784v-10.297c0-4.1-1.57-7.011-4.803-8.893c-3.416-1.988-7.504-3-12.146-3
				c-11.436,0-16.996,3.889-16.996,11.893v12.541h11.848v-12.426c0-1.084,0.439-3.615,4.449-3.615c4.027,0,4.34,2.77,4.34,3.615
				v13.266c0,2.444-1.27,5.321-7.057,5.706v5.814c2.332,0.108,3.941,0.533,4.998,1.296c1.365,0.976,2.059,2.711,2.059,5.148v17.353
				c0,2.59-1.627,4.14-4.34,4.14c-2.721,0-4.348-1.55-4.348-4.14V3.546H156.049z"/>
		</g>
	</g>
</g>
<g>
	<defs>
		<rect id="SVGID_35_" width="300" height="300"/>
	</defs>
	<clipPath id="SVGID_4_">
		<use xlink:href="#SVGID_35_"  overflow="visible"/>
	</clipPath>
	<g clip-path="url(#SVGID_4_)">
		<path fill="none" stroke="#000100" stroke-miterlimit="10" d="M100.369,231.238"/>
		<path fill="#BAD9D3" d="M300,0H0v300h32.129c0.111-0.438,0.238-0.873,0.348-1.313c1.308-5.332,2.495-10.703,3.464-16.06
			c0.451-2.664,0.914-5.394,1.043-7.892c0.009-0.302,0.017-0.604,0.005-0.869l-0.018-0.31l-0.055-0.435
			c-0.133-0.864-0.152-1.622-0.175-2.396c-0.026-1.523,0.108-2.983,0.269-4.432c0.352-2.887,0.875-5.721,1.675-8.491
			c0.811-2.762,1.74-5.499,2.976-8.124c1.219-2.629,2.656-5.178,4.361-7.574c1.741-2.388,3.675-4.602,6.083-6.539
			c0.632-0.531,1.159-0.864,1.731-1.28c0.736-0.471,1.283-0.824,1.947-1.211c1.284-0.729,2.613-1.361,3.964-1.9
			c2.695-1.103,5.486-1.822,8.273-2.369c2.791-0.538,5.595-0.864,8.391-1.064c2.797-0.203,5.587-0.292,8.372-0.3
			c2.784-0.029,5.563,0.061,8.342,0.161c2.724,0.129,5.425,0.271,8.179,0.536c3.077-0.342,6.154-0.73,9.228-1.134
			c3.084-0.41,6.17-0.789,9.261-1.132l2.317-0.221l1.159-0.112l0.48-0.046c0.105-0.073,0.268-0.187,0.384-0.29l0.801-0.684
			c0.543-0.485,1.091-1.002,1.635-1.527c2.138-2.04,4.299-4.149,6.391-6.283c0.217-0.359,0.433-0.72,0.602-1.125
			c0.176-0.461,0.33-0.941,0.427-1.457c0.097-0.515,0.172-1.048,0.184-1.604c0.041-0.546,0.008-1.119-0.026-1.689
			c-0.155-2.298-0.72-4.69-1.501-7.026c-0.662-2.133-1.535-4.222-2.446-6.31c-1.571-0.22-3.142-0.47-4.706-0.835
			c-4.642-0.989-9.261-2.604-13.575-5.014c-4.271-2.451-8.188-5.807-10.97-9.913c-2.817-4.086-4.417-8.773-5.069-13.361
			c-0.664-4.61-0.422-9.168,0.312-13.542c0.765-4.375,2.009-8.59,3.63-12.631c0.813-2.018,1.697-3.999,2.641-5.947
			c0.92-1.955,2.016-3.837,3.096-5.701c1.078-1.873,2.271-3.681,3.512-5.452c0.883-1.274,1.831-2.505,2.813-3.71
			c-0.055-0.268-0.12-0.528-0.166-0.797c-0.257-1.578-0.48-3.13-0.482-4.846v-1.29l0.087-1.136l0.045-0.565
			c0.016-0.14-0.002-0.092,0.042-0.382l0.055-0.299l0.227-1.194c0.124-0.8,0.343-1.594,0.575-2.39c0.192-0.8,0.5-1.588,0.809-2.373
			c0.605-1.578,1.465-3.111,2.516-4.558c1.086-1.434,2.464-2.7,3.999-3.771c1.575-1.021,3.302-1.809,5.088-2.345
			c0.499-0.145,1.004-0.225,1.507-0.333c-0.168-0.686-0.348-1.38-0.532-2.056c-0.386-1.48-0.82-2.953-1.296-4.413
			c-0.965-2.915-2.066-5.78-3.277-8.593c-0.613-1.399-1.263-2.788-1.97-4.145c-0.693-1.365-1.431-2.707-2.18-4.035
			c-0.746-1.332-1.569-2.619-2.394-3.903c-0.87-1.257-1.729-2.52-2.678-3.719c-0.912-1.224-1.873-2.407-2.86-3.575l-1.519-1.716
			c-0.527-0.558-1.081-1.086-1.593-1.654c-1.048-1.112-2.162-2.177-3.304-3.204c-1.161-1.013-2.315-2.035-3.546-2.979
			c-1.188-0.999-2.511-1.832-3.771-2.757c-1.325-0.834-2.619-1.734-4.023-2.469c-1.363-0.807-2.793-1.501-4.24-2.184
			c-1.379-0.693-2.849-1.205-4.29-1.797c-2.752-0.142-7.658,2.347-9.687,4.526c-0.917,1.528-1.44,3.564-2.082,5.496
			c-0.631,1.965-1.316,3.966-2.376,5.899c-2.179,4.011-6.37,6.556-10.745,7.788c-2.217,0.599-4.556,0.872-6.908,0.674
			c-2.344-0.179-4.748-0.82-6.823-2.137c-2.078-1.306-3.698-3.297-4.579-5.488c-0.446-1.04-0.754-2.395-0.896-3.3
			c-0.173-1.217-0.253-2.245-0.248-3.386c-0.007-4.474,1.42-8.832,3.462-12.718c2.085-3.891,4.759-7.405,7.697-10.59
			c1.463-1.602,2.979-3.142,4.491-4.624l1.128-1.099c0.389-0.371,0.883-0.794,1.322-1.186c0.912-0.778,1.851-1.484,2.812-2.138
			c3.846-2.598,7.961-4.566,12.212-6.152c4.25-1.581,8.643-2.749,13.099-3.58c4.455-0.833,8.977-1.342,13.51-1.412
			c1.127-0.056,2.307-0.005,3.456-0.009c1.173,0,2.317,0.021,3.369,0.099l3.354,0.197c1.16,0.119,2.326,0.225,3.464,0.447
			c4.581,0.774,9.046,1.99,13.205,3.781c4.195,1.707,8.112,3.882,11.779,6.31c3.659,2.443,7.076,5.156,10.19,8.122
			c1.578,1.459,3.031,3.035,4.45,4.623c1.405,1.59,2.755,3.21,3.942,4.965c2.298,2.201,6.932,7.015,8.583,8.678
			c0.883,0.946,1.803,1.865,2.645,2.851c0.87,0.963,1.707,1.955,2.518,2.971c3.269,4.055,5.927,8.468,8.689,12.728
			c2.713,4.294,5.43,8.563,8.268,12.773c2.609,3.893,5.218,7.786,7.878,11.655c2.513,0.584,5.03,1.258,7.466,2.279
			c2.81,1.146,5.506,2.67,7.932,4.571c2.423,1.901,4.528,4.209,6.169,6.729c1.654,2.52,2.873,5.221,3.797,7.932
			c1.863,5.434,2.524,10.899,3.297,16.106c0.766,5.194,1.55,10.28,3.467,14.56c0.225,0.576,0.487,0.971,0.717,1.451
			c0.2,0.438,0.676,1.101,1.001,1.641l2.199,3.307c1.497,2.317,2.96,4.666,4.29,7.164c1.308,2.525,2.625,5.043,3.29,8.383
			c0.148,0.843,0.235,1.776,0.166,2.761c-0.049,0.956-0.351,2.025-0.442,2.417c-0.012,0.079-0.019,0.104-0.024,0.128l0.006,0.017
			l0.028,0.051l0.256,0.485l0.481,0.956c1.249,2.536,2.268,5.138,3.151,7.81c0.864,2.678,1.56,5.434,1.916,8.316
			c0.329,2.877,0.382,5.915-0.497,9.022c-0.774,3.104-2.982,6.202-5.962,8.035l-0.523,0.323l-0.297,0.061
			c-0.3,1.103-0.645,2.247-1.101,3.471c-0.684,1.902-1.59,3.924-2.746,5.991c-1.197,2.044-2.58,4.182-4.379,6.164
			c-1.824,1.953-3.874,3.913-6.363,5.463c-2.502,1.511-5.24,2.823-8.173,3.603c-0.724,0.184-1.454,0.344-2.187,0.485
			c1.082,0.032,2.265,0.1,3.558,0.239c2.107,0.197,4.466,0.594,7.017,1.183c2.537,0.621,5.294,1.412,8.005,2.791
			c2.71,1.378,5.384,3.225,7.896,5.372c2.51,2.137,4.979,4.479,6.948,7.389c1.919,2.814,3.676,5.95,4.945,9.257
			c1.306,3.312,1.978,6.807,2.445,10.233c0.435,3.433,0.647,6.831,0.534,10.092c-0.088,3.228-0.502,6.452-0.81,9.144l-0.051,0.615
			c0.056,0.362,0.111,0.717,0.175,0.989c0.135,0.647,0.268,1.287,0.397,1.915c0.313,1.325,0.616,2.605,0.907,3.835
			c0.759,3.248,1.432,6.145,1.978,8.583H300V0z"/>
		<g>
			<path fill="#000100" d="M141.66,221.533c0,0,0.65,0.999,1.521,2.503c0.882,1.498,1.987,3.507,3.175,5.433
				c0.305,0.473,0.584,0.968,0.9,1.419c0.333,0.435,0.588,0.932,0.924,1.325c0.623,0.831,1.231,1.599,1.847,2.139
				c0.294,0.3,0.582,0.541,0.869,0.713c0.279,0.19,0.521,0.391,0.755,0.456c0.469,0.209,0.736,0.328,0.736,0.328
				s-0.284,0.014-0.823-0.005c-0.282,0.017-0.588-0.08-0.945-0.198c-0.182-0.06-0.375-0.123-0.579-0.188
				c-0.184-0.102-0.375-0.21-0.577-0.323c-0.42-0.212-0.83-0.499-1.224-0.847c-0.426-0.319-0.812-0.708-1.195-1.128
				c-0.789-0.823-1.467-1.814-2.117-2.813c-0.599-1.028-1.162-2.071-1.59-3.093c-0.439-1.016-0.79-1.986-1.036-2.836
				C141.783,222.726,141.66,221.533,141.66,221.533z"/>
			<path fill="#000100" d="M147.045,113.631c0,0-15.995-6.054-21.255,5.37c0,0,4.313-2.812,5.993-1.699
				c1.683,1.11-15.895,22.512,10.534,25.706c24.019,1.112,15.833-5.002,15.696-6.669c0,0,2.954-0.693,4.699,0.835
				C164.46,138.699,162.771,120.106,147.045,113.631z"/>
			<path fill="#FFFFFF" d="M137.28,121.216c3.47-1.075,9.575-0.678,12.324,3.785c5.025,8.166-0.403,8.023-4.408,7.827
				C137.64,132.464,134.199,122.172,137.28,121.216z"/>
			<path fill="#000100" d="M214.74,169.459c0,0-4.271,7.555-6.295,1.127c-2.024-6.432-5.112-20.142-5.112-20.142
				S216.476,167.11,214.74,169.459z"/>
			<g>
				<path fill="#000100" d="M255.51,303.441c-0.604-2.925-1.566-7.076-2.723-12.024c-0.291-1.229-0.594-2.51-0.907-3.835
					c-0.13-0.628-0.263-1.268-0.397-1.915c-0.063-0.272-0.119-0.627-0.175-0.989l0.051-0.615c0.308-2.691,0.722-5.916,0.81-9.144
					c0.113-3.261-0.1-6.659-0.534-10.092c-0.468-3.427-1.14-6.922-2.445-10.233c-1.27-3.307-3.026-6.442-4.945-9.257
					c-1.97-2.909-4.438-5.252-6.948-7.389c-2.512-2.147-5.186-3.994-7.896-5.372c-2.711-1.379-5.468-2.17-8.005-2.791
					c-2.551-0.589-4.909-0.985-7.017-1.183c-1.293-0.14-2.476-0.207-3.558-0.239c0.732-0.142,1.463-0.302,2.187-0.485
					c2.933-0.779,5.671-2.092,8.173-3.603c2.489-1.55,4.539-3.51,6.363-5.463c1.799-1.982,3.182-4.12,4.379-6.164
					c1.156-2.067,2.063-4.089,2.746-5.991c0.456-1.224,0.801-2.368,1.101-3.471l0.297-0.061l0.523-0.323
					c2.979-1.833,5.188-4.932,5.962-8.035c0.879-3.107,0.826-6.146,0.497-9.022c-0.356-2.883-1.052-5.639-1.916-8.316
					c-0.884-2.672-1.902-5.273-3.151-7.81l-0.481-0.956l-0.256-0.485l-0.028-0.051l-0.006-0.017
					c0.006-0.024,0.013-0.049,0.024-0.128c0.092-0.392,0.394-1.461,0.442-2.417c0.069-0.984-0.018-1.918-0.166-2.761
					c-0.665-3.34-1.982-5.857-3.29-8.383c-1.33-2.498-2.793-4.847-4.29-7.164l-2.199-3.307c-0.325-0.54-0.801-1.202-1.001-1.641
					c-0.229-0.48-0.492-0.875-0.717-1.451c-1.917-4.279-2.701-9.365-3.467-14.56c-0.772-5.207-1.434-10.673-3.297-16.106
					c-0.924-2.711-2.143-5.412-3.797-7.932c-1.641-2.521-3.746-4.828-6.169-6.729c-2.426-1.901-5.122-3.425-7.932-4.571
					c-2.436-1.021-4.953-1.695-7.466-2.279c-2.66-3.869-5.269-7.763-7.878-11.655c-2.838-4.21-5.555-8.479-8.268-12.773
					c-2.763-4.26-5.421-8.673-8.689-12.728c-0.811-1.016-1.647-2.008-2.518-2.971c-0.842-0.985-1.762-1.904-2.645-2.851
					c-1.827-1.84-3.684-3.638-5.604-5.381c1.6,2.008,3.217,3.993,4.742,6.037c0.739,1.035,1.542,2.025,2.242,3.08
					c0.731,1.03,1.425,2.083,2.088,3.151c2.67,4.251,4.893,8.746,7.203,13.273c2.336,4.506,4.76,8.993,7.268,13.43
					c2.479,4.456,5.16,8.801,7.799,13.167l0.526,0.872l1.264,0.349c2.545,0.7,5.07,1.448,7.362,2.545
					c2.288,1.091,4.438,2.339,6.283,3.893c3.736,3.071,6.129,7.282,7.548,11.98c1.416,4.713,2.078,9.818,2.782,15.087
					c0.744,5.262,1.43,10.807,3.813,16.351c0.259,0.671,0.687,1.435,1.053,2.15c0.392,0.766,0.72,1.195,1.082,1.812l2.301,3.407
					c1.452,2.191,2.856,4.403,4.073,6.628c1.2,2.189,2.314,4.528,2.683,6.408c0.089,0.459,0.12,0.853,0.101,1.19
					c-0.019,0.369-0.077,0.589-0.287,1.489c-0.095,0.441-0.208,1.107-0.164,1.832c0.019,0.365,0.074,0.715,0.154,1.055
					c0.038,0.17,0.104,0.377,0.166,0.561l0.098,0.279l0.056,0.133l0.099,0.229l0.207,0.42l0.056,0.097l0.213,0.4l0.432,0.833
					c2.271,4.517,4.186,9.334,4.94,14.081c0.358,2.354,0.423,4.712-0.092,6.747c-0.455,1.933-1.445,3.447-2.915,4.62
					c-2.716,0.688-5.537,1.317-8.328,1.887c-3.038,0.613-6.089,1.169-9.152,1.644c-6.113,0.998-12.283,1.731-18.442,1.864
					c-3.071,0.056-6.15,0.012-9.16-0.367c-3.003-0.371-5.979-1.041-8.576-2.346c-2.59-1.277-4.686-3.421-5.402-6.185
					c-0.782-2.747-0.356-5.766,0.444-8.616c-1.158,2.728-2.059,5.722-1.607,8.836c0.231,1.542,0.859,3.063,1.817,4.383
					c0.958,1.323,2.226,2.434,3.616,3.324c2.803,1.783,6.012,2.723,9.182,3.396c3.19,0.657,6.416,0.998,9.636,1.154
					c6.441,0.269,12.846-0.082,19.2-0.71c3.174-0.342,6.332-0.77,9.479-1.257c2.177-0.341,4.332-0.722,6.499-1.128
					c-0.294,0.549-0.584,1.094-0.914,1.668c-0.953,1.671-2.122,3.394-3.369,5.171c-1.316,1.737-2.817,3.461-4.471,5.104
					c-1.694,1.612-3.615,3.059-5.677,4.316c-2.1,1.189-4.345,2.218-6.756,2.797c-2.388,0.621-4.874,0.984-7.376,1l-1.869,0.021
					c-0.627-0.039-1.25-0.078-1.868-0.116c-0.618-0.048-1.238-0.065-1.852-0.135c-0.613-0.095-1.222-0.19-1.824-0.28
					c-0.605-0.095-1.207-0.188-1.803-0.28c-0.585-0.145-1.171-0.277-1.755-0.396c-1.161-0.256-2.317-0.454-3.404-0.812
					c-1.104-0.318-2.177-0.627-3.215-0.924c-1.027-0.349-2.021-0.686-2.978-1.009c-1.927-0.616-3.64-1.345-5.195-1.924
					c-1.559-0.579-2.898-1.138-3.997-1.612c-2.213-0.928-3.523-1.415-3.523-1.415s1.042,0.867,2.951,2.308
					c0.952,0.724,2.107,1.615,3.546,2.479c1.419,0.892,2.986,1.975,4.866,2.892c0.928,0.485,1.896,0.99,2.896,1.517
					c1.05,0.443,2.135,0.899,3.251,1.371c1.106,0.504,2.317,0.863,3.541,1.278c0.611,0.21,1.234,0.408,1.868,0.599
					c0.65,0.147,1.307,0.295,1.968,0.444c0.668,0.15,1.337,0.299,2.011,0.447c0.684,0.125,1.388,0.197,2.088,0.299
					c0.705,0.09,1.416,0.181,2.127,0.271c0.726,0.021,1.455,0.039,2.188,0.06l-0.019,0.251c0,0,1.654,0.549,4.506,1.372
					c1.416,0.41,3.135,0.909,5.107,1.479c1.955,0.589,4.156,1.211,6.518,1.974c2.344,0.763,4.883,1.588,7.57,2.462
					c2.663,0.877,5.569,1.722,8.279,3.23c2.716,1.468,5.171,3.709,6.688,6.526c1.591,2.877,2.429,6.095,2.948,9.334
					c0.523,3.232,0.897,6.476,1.044,9.703c0.141,3.229,0.054,6.418,0,9.521c-0.04,3.139-0.173,6.051-0.103,9.191
					c0.019,0.389,0.021,0.882,0.158,1.55c0.082,0.345,0.165,0.688,0.288,1.103c0.236,0.823,0.47,1.444,0.696,2.125
					c0.474,1.306,0.93,2.567,1.369,3.777c3.667,9.568,6.766,15.687,6.764,15.687l0.479-0.157
					C256.415,308.057,256.119,306.365,255.51,303.441z"/>
				<path fill="#000100" d="M155.723,201.205c-2.03-1.845-4.154-3.657-6.502-5.35c0.489-0.294,0.938-0.628,1.424-0.909
					c0.734-0.527,1.352-1.145,2.006-1.7c0.596-0.598,1.088-1.247,1.6-1.842c0.533-0.583,0.905-1.226,1.294-1.811
					c0.377-0.588,0.736-1.144,1.067-1.655c1.139-2.138,1.834-3.561,1.834-3.561l-0.321-0.178c0,0-1.078,1.212-2.602,3.029
					c-0.423,0.42-0.881,0.874-1.363,1.355c-0.493,0.464-0.942,1.019-1.533,1.453c-0.571,0.454-1.132,0.952-1.726,1.405
					c-0.635,0.382-1.241,0.838-1.886,1.168c-0.67,0.244-1.311,0.635-1.967,0.662c-0.321,0.035-0.633,0.142-0.929,0.138
					c-0.271-0.018-0.529,0.004-0.783,0.023c-0.058-0.033-0.115-0.065-0.174-0.099c-1.37-0.746-2.876-1.361-4.462-1.886
					c-0.059-0.019-0.126-0.035-0.188-0.045l-0.49-0.068c-0.448-0.064-0.883-0.149-1.328-0.217c-0.002-0.003-0.019-0.012-0.019-0.012
					l-0.012,0.005c-1.648-0.246-3.297-0.495-4.914-0.802c-2.053-0.425-4.087-0.884-6.054-1.45c-1.989-0.529-3.872-1.244-5.727-1.956
					c-1.839-0.748-3.571-1.632-5.215-2.595c-3.264-1.95-6.01-4.402-8.079-7.302c-2.045-2.92-3.42-6.297-4.158-9.939
					c-0.742-3.638-0.9-7.507-0.654-11.424c0.233-3.923,0.896-7.893,1.732-11.871c0.418-1.991,0.915-3.981,1.473-5.962
					c0.577-1.976,1.108-3.981,1.76-5.957c1.016-3.115,2.112-6.239,3.285-9.362c0.204,0.891,0.419,1.77,0.642,2.631
					c0.379,1.473,0.736,2.913,1.021,4.359c0.285,1.437,0.545,2.884,0.584,4.338c0.077,1.457-0.008,2.921-0.205,4.396l-0.442,2.205
					l-0.659,2.185l1.197-2.001c0.336-0.699,0.677-1.407,0.971-2.134c0.515-1.472,0.975-3.002,1.139-4.569
					c0.228-1.568,0.225-3.149,0.185-4.718c-0.09-1.558-0.261-3.103-0.438-4.606c-0.184-1.515-0.323-2.985-0.461-4.436
					c-0.095-1.427-0.147-2.898-0.015-4.205l0.087-0.976l0.195-1.117l0.1-0.562c0.012-0.049,0.046-0.283,0.034-0.18l0.066-0.258
					l0.254-1.028c0.146-0.694,0.372-1.352,0.602-2.008c0.199-0.669,0.489-1.289,0.77-1.907c0.558-1.245,1.287-2.365,2.103-3.377
					c0.838-0.996,1.784-1.856,2.848-2.572c1.092-0.674,2.289-1.202,3.575-1.569c1.296-0.351,2.679-0.524,4.089-0.589
					c2.834-0.146,5.812,0.22,8.73,0.915c1.465,0.34,2.913,0.779,4.356,1.243c1.42,0.455,2.909,1.006,4.178,1.562l0.196,0.089
					c0.166,0.072,0.342,0.128,0.526,0.162c1.322,0.261,2.621-0.536,2.896-1.781c0.773-3.471,0.407-6.808-0.37-9.901
					c-0.787-3.1-1.923-6.032-3.321-8.824c-1.371-2.798-2.956-5.475-4.697-8.045c-1.734-2.573-3.623-5.045-5.696-7.364
					c2.79,5.45,5.289,10.973,7.244,16.567c0.92,2.812,1.749,5.624,2.169,8.434c0.098,0.702,0.182,1.4,0.229,2.095
					c0.032,0.688,0.085,1.379,0.065,2.052c0.003,0.309-0.041,0.604-0.06,0.905c-0.5-0.205-0.997-0.415-1.514-0.61
					c-1.571-0.592-3.193-1.072-4.843-1.497c-1.65-0.419-3.335-0.762-5.066-0.972c-1.624-0.196-3.282-0.31-4.972-0.257
					c-0.08-0.772-0.174-1.539-0.279-2.316c-0.232-1.599-0.544-3.187-0.886-4.768c-0.682-3.162-1.567-6.293-2.701-9.355
					c-1.128-3.059-2.385-6.1-3.961-9.008c-0.764-1.463-1.613-2.89-2.472-4.313c-0.903-1.399-1.804-2.803-2.805-4.149
					c-0.958-1.376-2.081-2.646-3.174-3.927c-1.123-1.263-2.27-2.513-3.521-3.669c-1.244-1.163-2.551-2.27-3.891-3.333
					c-0.685-0.517-1.354-1.046-2.051-1.547l-2.155-1.417c-1.423-0.952-2.953-1.768-4.458-2.59c-1.561-0.739-3.076-1.536-4.69-2.151
					c-1.573-0.688-3.2-1.245-4.827-1.784c-0.727-0.255-1.468-0.466-2.209-0.675c-0.141-0.097-0.3-0.174-0.478-0.218
					c0,0-0.584-0.145-1.535-0.354c-0.231-0.065-0.469-0.126-0.698-0.196l-0.178-0.053l-0.077-0.005
					c-0.102-0.009-0.175-0.005-0.269-0.009c-1.53-0.316-3.517-0.695-5.522-0.974c-1.042-0.157-2.101-0.236-3.073-0.352
					c-0.988-0.068-1.911-0.088-2.693-0.128c-0.791,0.004-1.447,0.071-1.902,0.089c-0.455,0.026-0.712,0.041-0.712,0.041
					s0.259,0.026,0.713,0.072c0.454,0.053,1.099,0.089,1.862,0.205c0.761,0.16,1.646,0.321,2.581,0.538
					c0.932,0.262,1.927,0.5,2.905,0.81c0.613,0.186,1.212,0.381,1.799,0.579c-0.989,0.381-1.89,0.844-2.797,1.329
					c-0.995,0.594-1.987,1.188-2.789,1.828l-1.339,0.992c-0.591,0.489-0.956,1.034-1.253,1.552
					c-1.115,2.083-1.554,4.067-2.165,6.015c-0.592,1.938-1.186,3.853-2.126,5.537c-1.842,3.285-5.509,5.604-9.418,6.505
					c-3.884,0.941-8.277,0.541-11.198-1.646c-1.448-1.071-2.464-2.532-2.993-4.189c-0.275-0.882-0.384-1.531-0.489-2.648
					c-0.038-0.807-0.039-1.819,0.07-2.713c0.376-3.686,1.921-7.212,4.047-10.43c2.098-3.247,4.791-6.196,7.651-9.041
					c1.437-1.422,2.952-2.793,4.5-4.184l1.171-1.06l1.06-0.889c0.707-0.566,1.479-1.119,2.29-1.632
					c3.259-2.065,6.964-3.73,10.802-5.034c3.848-1.304,7.852-2.25,11.911-2.888c1.009-0.186,2.032-0.306,3.058-0.42
					c1.02-0.118,2.037-0.26,3.07-0.311c2.05-0.203,4.109-0.297,6.173-0.354c3.922-0.047,8.421,0.112,12.257,0.605
					c3.982,0.454,7.899,1.47,11.783,2.695c1.94,0.618,3.853,1.345,5.737,2.145c1.909,0.765,3.775,1.638,5.626,2.561
					c3.703,1.842,7.302,3.937,10.821,6.2c3.523,2.26,6.956,4.71,10.241,7.359l0.569-0.449c-1.189-1.762-2.546-3.388-3.956-4.983
					c-1.419-1.588-2.872-3.164-4.45-4.623c-3.114-2.966-6.531-5.679-10.19-8.122c-3.667-2.428-7.584-4.603-11.779-6.31
					c-4.159-1.791-8.624-3.007-13.205-3.781c-1.138-0.223-2.304-0.328-3.464-0.447l-3.354-0.197
					c-1.052-0.077-2.196-0.099-3.369-0.099c-1.149,0.004-2.329-0.047-3.456,0.009c-4.533,0.07-9.055,0.579-13.51,1.412
					c-4.456,0.831-8.849,1.999-13.099,3.58c-4.251,1.586-8.366,3.555-12.212,6.152c-0.961,0.653-1.899,1.359-2.812,2.138
					c-0.439,0.392-0.934,0.814-1.322,1.186l-1.128,1.099c-1.513,1.482-3.028,3.022-4.491,4.624
					c-2.938,3.185-5.612,6.699-7.697,10.59c-2.042,3.886-3.469,8.244-3.462,12.718c-0.005,1.141,0.075,2.169,0.248,3.386
					c0.143,0.905,0.45,2.26,0.896,3.3c0.881,2.191,2.501,4.183,4.579,5.488c2.075,1.316,4.479,1.958,6.823,2.137
					c2.353,0.198,4.691-0.075,6.908-0.674c4.375-1.232,8.566-3.777,10.745-7.788c1.06-1.934,1.745-3.935,2.376-5.899
					c0.642-1.932,1.165-3.968,2.082-5.496c2.028-2.18,6.935-4.668,9.687-4.526c1.441,0.592,2.911,1.104,4.29,1.797
					c1.447,0.683,2.877,1.377,4.24,2.184c1.404,0.734,2.698,1.635,4.023,2.469c1.26,0.925,2.583,1.758,3.771,2.757
					c1.23,0.944,2.385,1.967,3.546,2.979c1.142,1.027,2.256,2.092,3.304,3.204c0.512,0.568,1.065,1.097,1.593,1.654l1.519,1.716
					c0.987,1.168,1.948,2.352,2.86,3.575c0.948,1.199,1.808,2.462,2.678,3.719c0.824,1.284,1.647,2.571,2.394,3.903
					c0.749,1.328,1.486,2.67,2.18,4.035c0.707,1.356,1.356,2.745,1.97,4.145c1.211,2.813,2.313,5.678,3.277,8.593
					c0.476,1.46,0.91,2.933,1.296,4.413c0.185,0.676,0.364,1.37,0.532,2.056c-0.503,0.108-1.008,0.188-1.507,0.333
					c-1.786,0.536-3.513,1.323-5.088,2.345c-1.535,1.071-2.913,2.338-3.999,3.771c-1.051,1.446-1.91,2.979-2.516,4.558
					c-0.309,0.785-0.616,1.573-0.809,2.373c-0.232,0.796-0.451,1.59-0.575,2.39l-0.227,1.194l-0.055,0.299
					c-0.044,0.29-0.026,0.242-0.042,0.382l-0.045,0.565l-0.087,1.136v1.29c0.002,1.716,0.226,3.268,0.482,4.846
					c0.046,0.269,0.111,0.529,0.166,0.797c-0.982,1.205-1.931,2.436-2.813,3.71c-1.241,1.771-2.434,3.579-3.512,5.452
					c-1.08,1.864-2.176,3.746-3.096,5.701c-0.943,1.948-1.827,3.93-2.641,5.947c-1.621,4.041-2.865,8.256-3.63,12.631
					c-0.733,4.374-0.976,8.932-0.312,13.542c0.652,4.588,2.252,9.275,5.069,13.361c2.782,4.106,6.698,7.462,10.97,9.913
					c4.314,2.409,8.934,4.024,13.575,5.014c1.564,0.365,3.135,0.615,4.706,0.835c0.911,2.088,1.784,4.177,2.446,6.31
					c0.781,2.336,1.346,4.729,1.501,7.026c0.034,0.57,0.067,1.144,0.026,1.689c-0.012,0.556-0.087,1.089-0.184,1.604
					c-0.097,0.516-0.251,0.996-0.427,1.457c-0.169,0.405-0.385,0.766-0.602,1.125c-2.092,2.134-4.253,4.243-6.391,6.283
					c-0.544,0.525-1.092,1.042-1.635,1.527l-0.801,0.684c-0.116,0.104-0.278,0.217-0.384,0.29l-0.48,0.046l-1.159,0.112
					l-2.317,0.221c-3.091,0.343-6.177,0.722-9.261,1.132c-3.073,0.403-6.15,0.792-9.228,1.134c-2.754-0.265-5.455-0.407-8.179-0.536
					c-2.779-0.101-5.558-0.19-8.342-0.161c-2.785,0.008-5.575,0.097-8.372,0.3c-2.796,0.2-5.6,0.526-8.391,1.064
					c-2.787,0.547-5.578,1.267-8.273,2.369c-1.351,0.539-2.68,1.172-3.964,1.9c-0.664,0.387-1.211,0.74-1.947,1.211
					c-0.572,0.416-1.1,0.749-1.731,1.28c-2.408,1.938-4.342,4.151-6.083,6.539c-1.705,2.396-3.143,4.945-4.361,7.574
					c-1.235,2.625-2.165,5.362-2.976,8.124c-0.8,2.771-1.323,5.604-1.675,8.491c-0.16,1.448-0.295,2.908-0.269,4.432
					c0.022,0.774,0.042,1.532,0.175,2.396l0.055,0.435l0.018,0.31c0.012,0.266,0.004,0.567-0.005,0.869
					c-0.129,2.498-0.592,5.228-1.043,7.892c-0.969,5.356-2.156,10.728-3.464,16.06c-0.662,2.664-1.354,5.322-2.109,7.96
					c-0.384,1.317-0.795,2.624-1.265,3.902c-0.239,0.636-0.485,1.27-0.763,1.879c-0.141,0.304-0.292,0.599-0.462,0.873
					c-0.159,0.266-0.4,0.526-0.536,0.561v0.506c0.573-0.053,0.81-0.397,1.074-0.649c0.246-0.277,0.462-0.568,0.667-0.863
					c0.408-0.589,0.76-1.2,1.091-1.822c0.661-1.241,1.258-2.506,1.83-3.78c1.155-2.546,2.172-5.141,3.121-7.758
					c1.899-5.237,3.569-10.545,4.94-15.983c0.685-2.737,1.313-5.438,1.627-8.45c0.033-0.386,0.064-0.774,0.071-1.199
					c0.006-0.193,0.004-0.449-0.011-0.725l-0.04-0.597c-0.047-0.507-0.025-1.134,0-1.739c0.08-1.238,0.203-2.532,0.406-3.819
					c0.382-2.589,1.053-5.16,1.75-7.706c0.71-2.545,1.615-5.031,2.631-7.451c1.004-2.427,2.223-4.743,3.611-6.925
					c1.397-2.145,3.049-4.2,4.871-5.822c0.395-0.396,1.003-0.853,1.521-1.282c0.417-0.287,1.003-0.727,1.515-1.063
					c1.087-0.684,2.194-1.361,3.367-1.945c2.338-1.172,4.815-2.176,7.385-2.963c2.57-0.794,5.22-1.409,7.906-1.865
					c2.688-0.456,5.414-0.729,8.149-0.859c2.736-0.105,5.485-0.133,8.221,0.058c2.73,0.149,5.484,0.462,8.14,0.942l0.064,0.014
					l0.146-0.003c3.108-0.053,6.218-0.057,9.329-0.045c3.111,0.017,6.222,0.002,9.33-0.049l2.328-0.074l1.163-0.036l0.582-0.018
					l0.292-0.01l0.072-0.002l0.036-0.002l0.183-0.02l0.042-0.008l0.087-0.017c0.199-0.036,0.521-0.141,0.601-0.182
					c0.847-0.399,1.074-0.655,1.476-0.94l0.979-0.814c0.623-0.542,1.211-1.083,1.791-1.628c2.295-2.195,4.409-4.478,6.553-6.776
					l0.157-0.169l0.082-0.137c0.422-0.691,0.765-1.419,1.017-2.168c0.238-0.748,0.415-1.502,0.507-2.252
					c0.094-0.745,0.14-1.489,0.112-2.211c0-0.729-0.084-1.434-0.173-2.131c-0.411-2.784-1.343-5.325-2.416-7.741
					c-0.785-1.676-1.678-3.273-2.621-4.834c1.014,0.105,2.026,0.195,3.038,0.281l3.236,0.146c0.419,0.097,0.845,0.186,1.269,0.315
					c0.576,0.198,1.168,0.317,1.752,0.563c1.178,0.42,2.349,0.943,3.535,1.515c2.376,1.125,4.729,2.491,7.054,3.947
					c2.38,1.402,4.716,2.928,7.123,4.388c2.409,1.456,4.851,2.906,7.425,4.137l-5.714-6.024
					C159.715,205.115,157.755,203.157,155.723,201.205z"/>
				<path fill="#000100" d="M172.952,131.762c0.564,2.412,0.929,4.914,1.281,7.417c0.341,2.508,0.633,5.031,0.848,7.534
					c0.12,1.255,0.236,2.505,0.352,3.735c0.083,1.225,0.165,2.436,0.247,3.626c0.142,2.387,0.352,4.692,0.531,6.884
					c0.118,1.094,0.158,2.158,0.181,3.191c0.043,1.032,0.082,2.029,0.121,2.987c0.086,1.92,0.164,3.68,0.233,5.24
					c0.024,1.563,0.048,2.926,0.065,4.048c0.029,1.123,0.054,2.016,0.041,2.619c0,0.606,0,0.928,0,0.928s0.069-0.314,0.2-0.908
					c0.131-0.592,0.335-1.456,0.49-2.577c0.171-1.121,0.377-2.481,0.617-4.043c0.201-1.567,0.326-3.337,0.476-5.271
					c0.108-1.936,0.405-4.038,0.336-6.259c0-2.22,0.02-4.566-0.036-6.994c-0.027-2.438-0.059-4.931-0.282-7.461
					c-0.174-2.539-0.428-5.131-0.739-7.721c-0.397-2.584-0.827-5.171-1.457-7.69c-0.556-2.529-1.408-4.963-2.262-7.292
					c-0.436-1.163-0.938-2.284-1.422-3.382c-0.519-1.083-1.089-2.117-1.609-3.135c-1.126-1.997-2.294-3.828-3.515-5.427
					c-1.142-1.644-2.429-2.992-3.495-4.217c-1.158-1.158-2.144-2.18-3.031-2.951c-1.799-1.521-2.839-2.352-2.839-2.352
					s0.832,1.023,2.286,2.813c0.727,0.888,1.491,2.051,2.454,3.301c0.459,0.643,0.888,1.367,1.368,2.105
					c0.483,0.736,0.995,1.504,1.444,2.356c0.981,1.652,1.887,3.516,2.821,5.483c0.876,1.996,1.687,4.133,2.435,6.375
					C171.817,126.978,172.421,129.339,172.952,131.762z"/>
			</g>
		</g>
		<g>
			<path fill="#C63235" d="M65.105,327.953c-0.942-11.227-1.111-23.744-1.111-23.744c39.08-6.379,33.9-77.979,33.9-77.979
				c10.355-1.274,27.072-6.215,27.072-6.215s0.498,40.186,26.838,46.435c7.533,1.784,27.073-5.868,25.424-46.435
				c0,0,9.653,8.673,26.838,7.91c0,0-6.589,69.651,29.665,77.304c0,0,1.648,16.07,0,23.98L65.105,327.953z"/>
			<path fill="#000100" d="M233.731,330.889c-0.005,0-0.01,0-0.015,0l-168.626-1.256c-0.93-0.007-1.7-0.68-1.774-1.549
				c-0.937-11.152-1.115-23.728-1.117-23.854c-0.01-0.825,0.619-1.534,1.486-1.677c37.061-6.049,32.469-75.509,32.418-76.211
				c-0.064-0.885,0.618-1.663,1.556-1.778c10.086-1.241,26.601-6.103,26.768-6.15c0.535-0.159,1.128-0.07,1.591,0.241
				c0.463,0.31,0.736,0.809,0.745,1.34c0.005,0.389,0.794,38.969,25.482,44.825c0.519,0.123,1.099,0.186,1.732,0.186
				c1.696,0,6.146-0.492,10.843-5.057c5.368-5.219,11.569-16.374,10.615-39.87c-0.028-0.685,0.391-1.315,1.058-1.597
				c0.666-0.283,1.448-0.153,1.979,0.32c0.083,0.075,9.452,8.171,25.509,7.444c0.55-0.041,1.021,0.166,1.381,0.516
				c0.357,0.349,0.538,0.828,0.492,1.311c-0.063,0.682-6.037,68.275,28.271,75.517c0.758,0.159,1.318,0.757,1.393,1.479
				c0.067,0.666,1.656,16.406-0.024,24.463C235.327,330.32,234.589,330.889,233.731,330.889z M66.771,326.287l165.438,1.231
				c0.968-6.604,0.156-17.391-0.155-20.95c-33.039-8.424-30.724-65.535-29.927-76.916c-0.063,0-0.128,0-0.193,0
				c-11.035,0-18.806-3.669-22.819-6.169c0.251,22.302-6.143,33.386-11.709,38.797c-3.979,3.867-8.873,6.085-13.428,6.085
				c-0.929,0-1.81-0.098-2.613-0.287c-23.997-5.693-27.57-37.043-28.102-45.816c-4.619,1.303-15.37,4.207-23.485,5.407
				c0.541,10.743,1.902,70.427-33.961,77.914C65.887,308.945,66.121,317.843,66.771,326.287z"/>
		</g>
		<g>
			<g>
				<g>
					<path fill="#222221" d="M147.801,289.37l-20.582,64.209h-17.77l20.594-64.417h-19.385v-10.495h37.143V289.37z"/>
				</g>
				<g>
					<path fill="#FFFFFF" d="M129.213,356.313h-23.505l20.594-64.42H107.93v-15.957h42.604l-0.137,14.274L129.213,356.313z
						 M113.188,350.848h12.042l19.839-61.902v-7.548h-31.681v5.04h20.387L113.188,350.848z"/>
				</g>
				<g>
					<path fill="#000100" d="M128.216,354.946h-20.637l20.592-64.418h-18.878v-13.229h39.867l-0.063,12.493L128.216,354.946z
						 M111.317,352.214h14.903l20.209-63.057v-9.126h-34.406v7.766h19.883L111.317,352.214z"/>
				</g>
			</g>
			<g>
				<path fill="#222221" d="M154.676,322.183h15.103v17.764c0,1.848,0.992,2.77,2.983,2.77c1.983,0,2.973-0.922,2.973-2.77v-17.354
					c0-1.973-0.49-3.326-1.489-4.041c-0.993-0.717-2.845-1.074-5.565-1.074v-8.465c4.709,0,7.055-1.463,7.055-4.384v-13.266
					c0-1.494-0.989-2.251-2.973-2.251c-2.06,0-3.085,0.757-3.085,2.251v13.792h-14.576v-13.907c0-8.839,6.123-13.261,18.36-13.261
					c4.91,0,9.18,1.064,12.836,3.188c3.649,2.124,5.486,5.484,5.486,10.073v10.297c0,5.995-2.848,10.017-8.525,12.068
					c5.854,1.714,8.779,6.341,8.779,13.9v11.125c0,10.417-6.186,15.624-18.55,15.624c-12.534,0-18.812-4.735-18.812-14.209V322.183z
					"/>
			</g>
			<g>
				<path fill="#FFFFFF" d="M173.487,356.993c-17.796,0-21.537-9.216-21.537-16.939V319.45h14.004v-11.563H152.37v-16.64
					c0-7.287,3.661-15.991,21.091-15.991c5.375,0,10.154,1.197,14.209,3.556c4.476,2.606,6.844,6.903,6.844,12.436v10.297
					c0,5.146-1.865,9.206-5.424,11.994c3.138,2.454,5.678,6.686,5.678,13.975v11.125
					C194.768,347.012,191.079,356.993,173.487,356.993z M157.408,324.909v15.145c0,4.931,1.665,11.479,16.079,11.479
					c14.183,0,15.819-7.354,15.819-12.894v-11.125c0-8.317-3.891-10.427-6.812-11.276l-8.032-2.352l7.868-2.841
					c4.581-1.658,6.721-4.671,6.721-9.5v-10.297c0-3.625-1.313-6.078-4.13-7.715c-3.203-1.872-7.063-2.819-11.461-2.819
					c-14.011,0-15.634,6.014-15.634,10.534v11.176h9.117v-11.061c0-2.406,1.528-4.981,5.817-4.981c4.217,0,5.706,2.682,5.706,4.981
					v13.266c0,1.891-0.749,6.014-7.058,6.933v3.326c1.94,0.212,3.384,0.693,4.436,1.451c1.738,1.242,2.622,3.352,2.622,6.254v17.354
					c0,3.337-2.24,5.494-5.706,5.494c-3.469,0-5.714-2.157-5.714-5.494v-15.037H157.408z M172.513,339.977
					c0.133,0.014,0.362,0.019,0.49,0c0-0.015,0-0.02,0-0.03v-17.354c0-1.451-0.339-1.815-0.339-1.82
					c-0.012-0.007-0.053-0.036-0.151-0.075v19.249C172.513,339.957,172.513,339.962,172.513,339.977z M172.402,291.856v13.792
					c0.601-0.369,0.601-0.809,0.601-1.02v-12.785C172.831,291.839,172.572,291.839,172.402,291.856z"/>
			</g>
			<g>
				<path fill="#000100" d="M173.487,355.629c-13.379,0-20.174-5.247-20.174-15.575v-19.238h17.833v19.131
					c0,0.954,0.243,1.403,1.615,1.403c1.37,0,1.609-0.449,1.609-1.403v-17.354c0-1.034-0.157-2.385-0.915-2.931
					c-0.43-0.304-1.606-0.812-4.776-0.812h-1.364v-11.202h1.364c5.691,0,5.691-2.19,5.691-3.02v-13.266c0-0.396,0-0.885-1.609-0.885
					c-1.724,0-1.724,0.533-1.724,0.885v15.156h-17.31v-15.271c0-9.705,6.644-14.618,19.732-14.618c5.13,0,9.679,1.132,13.524,3.365
					c4.081,2.378,6.155,6.165,6.155,11.253v10.297c0,5.479-2.173,9.495-6.479,11.999c4.477,2.478,6.739,7.158,6.739,13.97v11.125
					C193.401,346.39,189.946,355.629,173.487,355.629z M156.049,323.546v16.508c0,8.644,5.706,12.845,17.438,12.845
					c11.563,0,17.19-4.661,17.19-14.26v-11.125c0-6.938-2.554-11.057-7.806-12.587l-4.009-1.178l3.93-1.42
					c5.131-1.847,7.617-5.375,7.617-10.784v-10.297c0-4.101-1.569-7.012-4.803-8.893c-3.416-1.988-7.504-3-12.146-3
					c-11.436,0-16.995,3.889-16.995,11.893v12.541h11.847v-12.426c0-1.084,0.439-3.615,4.449-3.615c4.027,0,4.34,2.771,4.34,3.615
					v13.266c0,2.443-1.27,5.32-7.056,5.706v5.813c2.331,0.108,3.939,0.533,4.997,1.296c1.365,0.977,2.059,2.712,2.059,5.148v17.354
					c0,2.59-1.627,4.14-4.34,4.14c-2.721,0-4.348-1.55-4.348-4.14v-16.4H156.049z"/>
			</g>
		</g>
		<g>
			
				<linearGradient id="SVGID_6_" gradientUnits="userSpaceOnUse" x1="166.8184" y1="49.9824" x2="184.5117" y2="49.9824" gradientTransform="matrix(0.9974 -0.0717 0.0717 0.9974 -47.6633 11.2578)">
				<stop  offset="0" style="stop-color:#D26F31"/>
				<stop  offset="0.1426" style="stop-color:#D4772F"/>
				<stop  offset="0.3788" style="stop-color:#DA8B27"/>
				<stop  offset="0.5521" style="stop-color:#E09D1B"/>
				<stop  offset="0.8652" style="stop-color:#E5C51C"/>
				<stop  offset="0.9944" style="stop-color:#BF7022"/>
			</linearGradient>
			<path fill="url(#SVGID_6_)" d="M132.419,63.647c3.218-0.269,7.942-10.188,7.942-10.188l-7.381-10.964
				c1.435-0.965,2.329-2.649,2.194-4.501c-0.197-2.752-2.59-4.824-5.344-4.625c-2.752,0.198-4.825,2.59-4.627,5.342
				c0.136,1.886,1.304,3.452,2.911,4.188l-5.402,11.83C122.713,54.729,129.133,63.922,132.419,63.647z"/>
			<path fill="#000100" d="M132.457,64.434c-3.56,0.256-9.281-7.665-10.391-9.254c-0.164-0.229-0.19-0.526-0.073-0.781l5.096-11.156
				c-1.538-0.976-2.542-2.629-2.675-4.474c-0.229-3.183,2.176-5.957,5.359-6.186c3.186-0.229,5.962,2.172,6.19,5.354
				c0.129,1.796-0.593,3.541-1.918,4.729l6.968,10.352c0.157,0.232,0.179,0.527,0.058,0.782c-0.822,1.724-5.095,10.344-8.585,10.633
				C132.483,64.432,132.462,64.434,132.457,64.434z M123.62,54.642c2.585,3.613,6.831,8.354,8.724,8.219l0.056,0.787l-0.046-0.789
				c1.844-0.152,5.177-5.419,7.097-9.334l-7.124-10.584c-0.243-0.367-0.148-0.855,0.215-1.097c1.246-0.845,1.953-2.297,1.847-3.794
				c-0.168-2.311-2.185-4.06-4.501-3.894c-2.313,0.166-4.06,2.187-3.894,4.497c0.11,1.537,1.048,2.887,2.45,3.526
				c0.396,0.182,0.572,0.649,0.391,1.048L123.62,54.642z"/>
			
				<linearGradient id="SVGID_8_" gradientUnits="userSpaceOnUse" x1="217.9043" y1="49.9824" x2="235.5957" y2="49.9824" gradientTransform="matrix(0.9974 -0.0717 0.0717 0.9974 -47.6633 11.2578)">
				<stop  offset="0" style="stop-color:#D26F31"/>
				<stop  offset="0.1426" style="stop-color:#D4772F"/>
				<stop  offset="0.3788" style="stop-color:#DA8B27"/>
				<stop  offset="0.5521" style="stop-color:#E09D1B"/>
				<stop  offset="0.8652" style="stop-color:#E5C51C"/>
				<stop  offset="0.9944" style="stop-color:#BF7022"/>
			</linearGradient>
			<path fill="url(#SVGID_8_)" d="M182.985,60.01c3.288-0.198,8.328-10.215,8.328-10.215l-7.041-10.937
				c1.484-0.956,2.418-2.675,2.283-4.562c-0.198-2.75-2.597-4.821-5.347-4.623c-2.752,0.198-4.822,2.59-4.625,5.342
				c0.133,1.852,1.26,3.391,2.814,4.14l-5.731,11.909C173.667,51.064,179.759,60.205,182.985,60.01z"/>
			<path fill="#000100" d="M183.058,60.794c-0.002,0-0.021,0.002-0.026,0.002c-3.502,0.215-8.964-7.706-10.023-9.295
				c-0.155-0.234-0.177-0.528-0.056-0.782l5.416-11.24c-1.479-0.987-2.445-2.614-2.575-4.407c-0.228-3.182,2.175-5.955,5.358-6.185
				c3.186-0.229,5.964,2.173,6.191,5.354c0.133,1.846-0.623,3.627-2.006,4.811l6.642,10.313c0.153,0.233,0.167,0.531,0.041,0.782
				C191.146,51.88,186.615,60.538,183.058,60.794z M174.572,50.999c2.464,3.6,6.517,8.335,8.365,8.222l0.064,0.787l-0.058-0.788
				c1.896-0.137,5.417-5.436,7.458-9.382l-6.792-10.55c-0.24-0.369-0.132-0.857,0.235-1.094c1.293-0.833,2.029-2.303,1.92-3.84
				c-0.168-2.311-2.186-4.061-4.501-3.894c-2.313,0.166-4.06,2.187-3.894,4.497c0.108,1.498,1.017,2.831,2.373,3.49
				c0.392,0.188,0.556,0.658,0.369,1.055L174.572,50.999z"/>
			
				<linearGradient id="SVGID_10_" gradientUnits="userSpaceOnUse" x1="144.6592" y1="50.3711" x2="257.7529" y2="50.3711" gradientTransform="matrix(0.9974 -0.0717 0.0717 0.9974 -47.6633 11.2578)">
				<stop  offset="0" style="stop-color:#D26F31"/>
				<stop  offset="0.1426" style="stop-color:#D4772F"/>
				<stop  offset="0.3788" style="stop-color:#DA8B27"/>
				<stop  offset="0.5521" style="stop-color:#E09D1B"/>
				<stop  offset="0.8652" style="stop-color:#E5C51C"/>
				<stop  offset="0.9944" style="stop-color:#BF7022"/>
			</linearGradient>
			<path fill="url(#SVGID_10_)" d="M204.189,31.87c-2.206-0.707-3.878-2.693-4.055-5.153c-0.231-3.22,2.192-6.021,5.416-6.253
				c3.224-0.232,6.025,2.194,6.257,5.414c0.231,3.224-2.193,6.024-5.418,6.256c0,0-2.794,39.854-7.969,48.137l-39.188,2.818
				l-39.193,2.819c-6.306-7.456-14.777-46.5-14.777-46.5c-3.225,0.232-6.024-2.191-6.257-5.416c-0.231-3.22,2.194-6.022,5.419-6.254
				c3.223-0.233,6.023,2.194,6.255,5.414c0.178,2.459-1.193,4.663-3.276,5.68l0.326,0.49c2.434,3.827,18.486,28.616,25.94,28.08
				c8.291-0.598,19.746-41.412,19.746-41.412l0.013-0.071c-3.377-0.522-6.066-3.317-6.321-6.867
				c-0.298-4.131,2.812-7.719,6.943-8.016c4.128-0.297,7.717,2.809,8.014,6.94c0.256,3.549-2.006,6.699-5.27,7.701l0.02,0.067
				c0,0,17.176,38.757,25.472,38.16c7.355-0.53,19.467-26.661,21.572-31.328L204.189,31.87z"/>
			<path fill="#000100" d="M198.479,81.058l-78.383,5.639c-0.25,0.019-0.496-0.083-0.66-0.28
				c-5.988-7.075-13.646-40.942-14.807-46.206c-3.357-0.104-6.164-2.74-6.41-6.162c-0.263-3.651,2.495-6.836,6.147-7.099
				s6.839,2.495,7.102,6.146c0.174,2.423-0.963,4.691-2.942,6.005c6.712,10.526,19.385,27.924,25.088,27.514
				c5.59-0.402,14.229-23.912,18.832-40.094c-3.4-0.896-5.871-3.833-6.129-7.41c-0.328-4.56,3.116-8.533,7.676-8.861
				c4.555-0.328,8.532,3.112,8.86,7.672c0.257,3.577-1.769,6.838-5.003,8.211c6.871,15.356,18.788,37.388,24.378,36.985
				c4.981-0.357,14.075-15.732,20.889-30.82c-2.15-1.019-3.597-3.1-3.772-5.522c-0.262-3.65,2.495-6.836,6.15-7.099
				c3.651-0.262,6.837,2.495,7.101,6.146c0.246,3.421-2.155,6.433-5.465,7.017c-0.396,5.374-3.126,39.99-8.04,47.85
				C198.955,80.905,198.728,81.04,198.479,81.058z M120.396,85.091l77.555-5.578c4.889-8.732,7.625-47.044,7.649-47.435
				c0.031-0.389,0.345-0.704,0.733-0.731c2.784-0.2,4.886-2.629,4.686-5.413c-0.2-2.781-2.628-4.884-5.411-4.684
				c-2.785,0.201-4.886,2.629-4.686,5.411c0.149,2.074,1.528,3.821,3.508,4.454c0.219,0.07,0.393,0.233,0.482,0.437
				c0.09,0.212,0.089,0.447-0.005,0.654l-0.333,0.707c-3.302,7.31-14.668,31.238-22.233,31.781
				c-8.598,0.62-24.472-34.61-26.251-38.627c-0.017-0.031-0.024-0.062-0.034-0.091l-0.02-0.068
				c-0.127-0.417,0.106-0.858,0.522-0.984c3.002-0.922,4.94-3.756,4.714-6.891c-0.266-3.69-3.481-6.475-7.167-6.211
				c-3.688,0.266-6.474,3.482-6.208,7.172c0.227,3.135,2.549,5.664,5.65,6.146c0.208,0.031,0.396,0.147,0.519,0.314
				c0.124,0.174,0.177,0.387,0.141,0.597l-0.014,0.067c-0.003,0.029-0.013,0.058-0.018,0.086
				c-1.188,4.229-11.854,41.369-20.449,41.987c-7.623,0.548-22.336-21.635-26.664-28.446l-0.316-0.478
				c-0.127-0.188-0.164-0.42-0.105-0.645c0.061-0.218,0.212-0.403,0.417-0.504c1.87-0.91,2.98-2.837,2.831-4.912
				c-0.2-2.78-2.626-4.883-5.409-4.683s-4.885,2.628-4.685,5.409c0.2,2.783,2.628,4.886,5.411,4.687
				c0.392-0.028,0.744,0.237,0.828,0.618C106.118,39.623,114.311,77.149,120.396,85.091z"/>
			
				<linearGradient id="SVGID_12_" gradientUnits="userSpaceOnUse" x1="161.6289" y1="91.04" x2="241.376" y2="91.04" gradientTransform="matrix(0.9974 -0.0717 0.0717 0.9974 -47.6633 11.2578)">
				<stop  offset="0" style="stop-color:#D26F31"/>
				<stop  offset="0.1426" style="stop-color:#D4772F"/>
				<stop  offset="0.3788" style="stop-color:#DA8B27"/>
				<stop  offset="0.5521" style="stop-color:#E09D1B"/>
				<stop  offset="0.8652" style="stop-color:#E5C51C"/>
				<stop  offset="0.9944" style="stop-color:#BF7022"/>
			</linearGradient>
			<path fill="url(#SVGID_12_)" d="M199.921,88.89c0.064,0.902-0.611,1.687-1.51,1.75l-76.282,5.488
				c-0.905,0.063-1.686-0.613-1.75-1.516l-0.597-8.296c-0.064-0.9,0.609-1.68,1.515-1.745l76.282-5.486
				c0.9-0.065,1.68,0.61,1.745,1.511L199.921,88.89z"/>
			<path fill="#000100" d="M198.467,91.427l-76.282,5.488c-1.337,0.095-2.499-0.914-2.597-2.245l-0.597-8.296
				c-0.095-1.334,0.91-2.498,2.249-2.595l76.281-5.486c1.334-0.097,2.498,0.911,2.595,2.245l0.596,8.296
				C200.809,90.167,199.8,91.332,198.467,91.427z M121.354,85.358c-0.469,0.033-0.821,0.437-0.787,0.902l0.597,8.294
				c0.033,0.464,0.44,0.816,0.907,0.782l76.282-5.486c0.462-0.034,0.813-0.441,0.78-0.903l-0.597-8.296
				c-0.033-0.465-0.438-0.813-0.902-0.781L121.354,85.358z"/>
		</g>
	</g>
</g>
</svg>
