<?xml version="1.0" encoding="utf-8"?>
<!-- Generator: Adobe Illustrator 16.0.0, SVG Export Plug-In . SVG Version: 6.00 Build 0)  -->
<!DOCTYPE svg PUBLIC "-//W3C//DTD SVG 1.1//EN" "http://www.w3.org/Graphics/SVG/1.1/DTD/svg11.dtd">
<svg version="1.1" id="Capa_1" xmlns="http://www.w3.org/2000/svg" xmlns:xlink="http://www.w3.org/1999/xlink" x="0px" y="0px"
	 width="300px" height="300px" viewBox="0 0 300 300" enable-background="new 0 0 300 300" xml:space="preserve">
<pattern  x="-320" width="45.033" height="44.192" patternUnits="userSpaceOnUse" id="Nueva_muestra_de_motivo_4" viewBox="0 -44.192 45.033 44.192" overflow="visible">
	<g>
		<polygon fill="none" points="0,0 45.033,0 45.033,-44.192 0,-44.192 		"/>
		<polygon fill="#C63337" points="45.033,0 0,0 0,-44.192 45.033,-44.192 		"/>
		<g>
			<polygon fill="#D5793C" points="5.433,-32.542 11.752,-32.542 11.752,-38.861 5.433,-38.861 			"/>
			<polygon fill="#D5793C" points="13.115,-32.542 19.435,-32.542 19.435,-38.861 13.115,-38.861 			"/>
			<polygon fill="#D5793C" points="5.433,-24.831 11.752,-24.831 11.752,-31.15 5.433,-31.15 			"/>
			<polygon fill="#D5793C" points="13.115,-24.831 19.435,-24.831 19.435,-31.15 13.115,-31.15 			"/>
		</g>
		<g>
			<polygon fill="#D5793C" points="25.599,-32.542 31.918,-32.542 31.918,-38.861 25.599,-38.861 			"/>
			<polygon fill="#D5793C" points="33.281,-32.542 39.601,-32.542 39.601,-38.861 33.281,-38.861 			"/>
			<polygon fill="#D5793C" points="25.599,-24.831 31.918,-24.831 31.918,-31.15 25.599,-31.15 			"/>
			<polygon fill="#D5793C" points="33.281,-24.831 39.601,-24.831 39.601,-31.15 33.281,-31.15 			"/>
		</g>
		<g>
			<polygon fill="#D5793C" points="5.433,-13.042 11.752,-13.042 11.752,-19.361 5.433,-19.361 			"/>
			<polygon fill="#D5793C" points="13.115,-13.042 19.435,-13.042 19.435,-19.361 13.115,-19.361 			"/>
			<polygon fill="#D5793C" points="5.433,-5.331 11.752,-5.331 11.752,-11.65 5.433,-11.65 			"/>
			<polygon fill="#D5793C" points="13.115,-5.331 19.435,-5.331 19.435,-11.65 13.115,-11.65 			"/>
		</g>
		<g>
			<polygon fill="#D5793C" points="25.599,-13.042 31.918,-13.042 31.918,-19.361 25.599,-19.361 			"/>
			<polygon fill="#D5793C" points="33.281,-13.042 39.601,-13.042 39.601,-19.361 33.281,-19.361 			"/>
			<polygon fill="#D5793C" points="25.599,-5.331 31.918,-5.331 31.918,-11.65 25.599,-11.65 			"/>
			<polygon fill="#D5793C" points="33.281,-5.331 39.601,-5.331 39.601,-11.65 33.281,-11.65 			"/>
		</g>
	</g>
</pattern>
<g>
	<defs>
		<rect id="SVGID_3_" width="300" height="300"/>
	</defs>
	<clipPath id="SVGID_2_">
		<use xlink:href="#SVGID_3_"  overflow="visible"/>
	</clipPath>
	<g clip-path="url(#SVGID_2_)">
		<path fill="#BAD9D3" d="M0,0v300h300V0H0z M269.511,63.179c-0.067,0.487-0.186,0.84-0.287,1.158
			c-0.436,1.277-0.922,2.117-1.427,3.006c-1.981,3.427-4.265,6.282-6.616,9.138c-1.159,1.378-2.47,2.872-3.595,4.081
			c-1.244,1.444-2.1,2.569-3.14,4.048c-2.034,2.82-3.982,5.811-5.862,8.833l-5.644,9.138l-2.821,4.603
			c-0.638,0.974-1.208,1.981-1.881,2.988c0.487,1.412,0.823,2.755,1.158,4.131c0.705,2.958,1.275,5.997,1.73,9.054
			c0.471,3.056,0.805,6.13,0.957,9.237c0.101,3.123,0.202,6.215-0.939,9.59c-0.22,0.622-0.521,1.276-0.941,1.931
			c0.102,0.135,0.184,0.285,0.285,0.438c0.471,0.754,0.907,1.511,1.311,2.267c0.42,0.756,0.74,1.545,1.091,2.284
			c0.437,0.975,0.823,1.931,1.142,2.821c0.269-0.017,0.555-0.033,0.893-0.051c1.108-0.033,2.099,0.521,2.67,1.378l0.15,0.218
			c0.689,1.042,1.293,1.981,1.898,2.99c0.589,0.99,1.159,1.981,1.714,2.99c1.125,1.997,2.181,4.046,3.139,6.146
			c1.965,4.166,3.645,8.499,4.955,13c0.654,2.25,1.176,4.551,1.596,6.903c0.403,2.334,0.705,4.719,0.772,7.154
			c0.067,1.209,0.035,2.452-0.018,3.679c-0.05,1.225-0.151,2.469-0.335,3.712c-0.201,1.225-0.403,2.468-0.756,3.693
			c-0.285,1.227-0.724,2.436-1.159,3.645c-0.738,2.066-3.005,3.141-5.071,2.419c-0.151-0.067-0.286-0.118-0.437-0.186l-0.086-0.049
			l-2.972-1.496l-1.142-0.555c-0.99,1.025-2.066,2.118-3.293,3.243c-1.611,1.478-3.359,3.09-5.424,4.601
			c-1.025,0.774-2.082,1.547-3.26,2.301c-1.125,0.724-2.568,1.462-3.761,2.083c-2.603,1.294-5.374,2.25-8.297,2.872
			c-2.905,0.622-5.911,0.84-8.884,0.958c-1.102,0.036-2.199,0.029-3.296,0.022l-0.706,7.878l-22.272,16.835l-28.267,12.929
			l-0.312-0.104l-56.221-18.55l-4.67-28.06c-0.044-0.082-0.1-0.152-0.143-0.236c-0.479-1.071-0.842-2.253-0.9-3.48
			c-0.045-1.217,0.113-2.432,0.483-3.527c0.362-1.095,0.9-2.07,1.47-2.939c1.076-1.581,2.324-2.783,3.507-3.697
			c-0.658,0.03-1.318,0.036-1.991-0.013c-0.318-0.033-0.638-0.151-0.873-0.353c-0.471-0.388-0.823-0.705-1.193-1.059
			c-0.386-0.353-0.722-0.722-1.057-1.092c-0.672-0.756-1.312-1.528-1.883-2.334c-0.587-0.807-1.125-1.663-1.627-2.52
			c-0.488-0.874-0.941-1.763-1.328-2.67c-0.235-0.454-0.386-0.941-0.571-1.395c-0.167-0.471-0.353-0.941-0.487-1.41
			c-0.302-0.958-0.57-1.932-0.756-2.906c-0.234-0.975-0.318-1.965-0.469-2.956c-0.051-0.336-0.069-0.688-0.086-1.041
			c-1.341-0.051-2.702-0.067-4.029-0.067c-0.958,0-1.983,0.051-2.957,0.084l-0.755,0.017l-0.302,0.018l-0.354,0.017l-1.459,0.135
			c-1.981,0.185-3.982,0.368-6.014,0.471c-2.05,0.116-4.08,0.184-6.281-0.019c-0.555-0.049-1.108-0.116-1.73-0.234
			c-0.605-0.135-1.241-0.27-2.064-0.722c-0.236-0.151-0.42-0.236-0.706-0.487c-0.319-0.253-0.705-0.79-0.705-0.823l-0.051-0.067
			l-0.034-0.051l-0.184-0.369v-0.017l-0.017-0.034l-0.085-0.218l-0.168-0.471c-0.186-0.62-0.336-1.26-0.403-1.863
			c-0.302-2.469,0.067-4.702,0.555-6.785c0.503-2.1,1.176-4.064,1.881-5.962c0.639-1.747,1.344-3.494,1.831-5.057
			c0-0.017,0-0.033-0.017-0.05c-0.035-0.102-0.101-0.236-0.219-0.387c-0.185-0.302-0.604-0.638-1.041-0.958l-0.772-0.469
			l-0.873-0.403c-0.64-0.219-1.26-0.487-1.982-0.654c-0.689-0.186-1.376-0.371-2.117-0.487c-0.722-0.151-1.46-0.27-2.182-0.337
			c-0.74-0.102-1.445-0.201-2.285-0.252l-2.436-0.168c-2.014-0.201-3.628-0.654-5.324-1.192c-0.839-0.285-1.663-0.589-2.552-0.99
			c-0.22-0.102-0.471-0.236-0.705-0.353c-0.285-0.169-0.758-0.454-0.823-0.521l-0.437-0.336l-0.438-0.286
			c-0.654-0.42-1.58-0.99-2.469-1.981c-0.941-0.974-1.578-2.603-1.612-3.997c-0.034-1.394,0.302-2.486,0.638-3.493
			c0.202-0.471,0.404-0.939,0.604-1.378l0.689-1.26c0.051-0.083,0.102-0.15,0.15-0.234l0.086-0.102
			c1.712-2.148,3.408-4.383,4.987-6.616c0.789-1.125,1.563-2.25,2.252-3.375c0.469-0.757,0.938-1.58,1.276-2.269
			c-0.186-0.135-0.371-0.251-0.555-0.369c-1.076-0.673-2.285-1.327-3.478-1.933l-0.891-0.452l-0.116-0.051l-0.285-0.151
			l-0.236-0.134l-0.469-0.27l-1.849-1.074l-3.712-2.183c-1.227-0.757-2.452-1.513-3.677-2.336c-1.243-0.821-2.438-1.594-3.813-2.805
			c-0.285-0.234-0.992-0.956-1.311-1.545c-0.302-0.555-0.604-1.176-0.755-1.998c-0.152-0.79-0.134-1.73,0.117-2.519
			c0.218-0.772,0.57-1.429,0.906-1.898c0.706-1.009,1.361-1.579,1.981-2.134l1.73-1.444l6.282-5.476l3.66-3.224
			c-2.554-2.401-5.055-4.854-7.507-7.491c-0.823-0.891-1.63-1.798-2.452-2.821c-0.403-0.503-0.805-1.041-1.225-1.729
			c-0.118-0.202-0.22-0.337-0.338-0.588c-0.116-0.252-0.217-0.353-0.42-0.992c-0.065-0.218-0.151-0.62-0.167-0.705l-0.033-0.218
			l-0.034-0.453V78.73l0.018-0.15v-0.302c0.05-0.84,0.184-1.73,0.521-2.654c0.319-0.907,0.839-1.83,1.51-2.586
			c1.378-1.546,3.108-2.269,4.586-2.705l0.184-0.033l0.069-0.018c1.395-0.285,2.87-0.622,4.28-0.956
			c1.447-0.353,2.857-0.724,4.252-1.144c1.376-0.401,2.735-0.855,3.962-1.359c0.253-0.102,0.522-0.218,0.757-0.336l-0.504-0.856
			l-2.033-3.241c-1.377-2.201-2.805-4.418-4.199-6.736c-0.688-1.157-1.359-2.35-2.014-3.66c-0.318-0.673-0.64-1.344-0.942-2.251
			l-0.117-0.387l-0.133-0.555l-0.052-0.267l-0.016-0.118v-0.135l-0.017-0.051c0-0.084-0.034-0.336-0.017-0.353
			c-0.068-1.058,0.335-2.15,0.806-2.855c1.009-1.411,2.048-1.914,2.904-2.334c0.874-0.42,1.68-0.654,2.47-0.84
			c1.578-0.386,3.058-0.52,4.518-0.587c2.923-0.118,5.728,0.15,8.499,0.621c0.654,0.117,1.443,0.268,2.049,0.402l1.897,0.42
			c1.158,0.252,2.301,0.42,3.257,0.454c0.304,0,0.607-0.017,0.808-0.034c0.017-0.353,0-0.89-0.05-1.511
			c-0.052-0.639-0.117-1.361-0.117-2.201l0.016-0.722l0.033-0.521c0.017-0.151,0.034-0.437,0.034-0.738
			c0.017-1.26-0.018-2.704,0.202-4.333c0.134-0.84,0.302-1.713,0.738-2.737c0.235-0.521,0.537-1.059,0.99-1.612
			c0.473-0.538,1.076-1.076,1.813-1.411c1.479-0.739,2.939-0.638,3.948-0.42c0.99,0.185,2.1,0.671,2.536,0.89l3.609,1.864
			c1.161,0.588,2.286,1.16,3.412,1.714c2.267,1.074,4.533,2.032,6.699,2.569c1.059,0.252,2.1,0.387,2.905,0.319
			c0.203,0,0.387-0.034,0.554-0.067c0.169-0.051,0.338-0.084,0.338-0.084s0.066-0.034,0.135-0.051
			c0.017-0.016,0.017-0.034,0.033-0.051c0.469-0.756,1.074-2.048,1.798-3.308c0.368-0.639,0.788-1.327,1.394-2.049
			c0.62-0.688,1.376-1.596,2.972-2.117c0.168-0.067,0.504-0.135,0.755-0.167l0.203-0.033h0.2l0.051-0.019h0.353l0.354,0.035
			l0.335,0.049l0.236,0.051c0.334,0.067,0.587,0.151,0.805,0.219c0.234,0.085,0.42,0.169,0.622,0.252
			c0.754,0.318,1.377,0.639,1.997,0.958l3.478,1.88c2.233,1.21,4.484,2.368,6.635,3.107c1.041,0.337,2.134,0.605,2.888,0.571
			c0.388,0.017,0.656-0.051,0.807-0.118c0.066-0.017,0.05-0.017,0,0.018c-0.016,0.033-0.068,0.101,0.118-0.066l0.151-0.118h0.017
			l0.049-0.051l0.034-0.033c0.017-0.017,0.035-0.034,0.051-0.034v-0.017c0.017-0.017,0.033-0.017,0.033-0.017l0.353-0.336
			c1.26-1.142,3.039-2.133,4.972-2.368c1.932-0.235,3.729,0.169,5.189,0.739c2.938,1.142,5.14,2.754,7.341,4.231
			c2.182,1.496,4.181,2.889,6.38,4.083c0.538,0.317,1.093,0.604,1.614,0.872c0.167,0.084,0.352,0.167,0.521,0.253
			c0.016-0.019,0.034-0.035,0.051-0.051c0.974-0.875,2.115-1.243,2.955-1.395c0.907-0.167,1.663-0.202,2.486-0.202
			c0.571,0,1.595,0.017,2.435,0.219c1.729,0.387,3.191,1.176,4.435,2.066c2.484,1.814,4.265,3.98,5.911,6.129
			c0.823,1.076,1.596,2.167,2.352,3.208c0.755,1.025,1.529,2.1,2.184,2.789c0.017,0.016,0.051,0.051,0.067,0.067
			c0.672-0.101,1.275-0.135,1.897-0.168c1.41-0.051,2.805,0,4.198,0.133c1.411,0.135,2.823,0.354,4.299,0.823
			c0.74,0.236,1.513,0.538,2.303,1.059c0.42,0.285,0.755,0.521,1.226,1.092c0.32,0.403,0.202,0.27,0.454,0.673l0.251,0.487
			c0.521,1.023,1.009,2.014,1.494,2.972c0.202-0.202,0.42-0.387,0.64-0.587c3.005-2.42,6.314-3.932,10.024-4.805
			c0.941-0.201,1.916-0.353,3.092-0.369c0.605,0.017,1.26,0.017,2.251,0.335c0.536,0.22,1.159,0.42,1.948,1.294
			c0.369,0.437,0.705,1.025,0.821,1.646c0.086,0.319,0.118,0.604,0.102,0.857c0.017,0.251-0.016,0.587-0.049,0.756
			c-0.253,1.059-0.287,0.905-0.371,1.158l-0.218,0.571l-0.487,1.176l-0.941,2.25l-3.71,8.801c-0.135,0.353-0.285,0.722-0.438,1.074
			c1.209,0.689,2.352,1.597,3.242,2.756c0.975,1.241,1.61,2.703,1.931,4.164c0.671,2.923,0.202,5.778,0.1,8.18
			c0,0.32-0.016,0.437,0.035,0.823c0,0,0.034,0.202,0.134,0.369c0.202,0.387,0.571,0.823,0.975,1.243
			c0.84,0.823,1.83,1.612,2.855,2.334c1.494,1.058,3.058,2.05,4.668,2.956c0.605-0.722,1.21-1.443,1.83-2.165l7.004-8.214
			l7.138-8.097c2.403-2.719,4.753-5.391,7.29-8.061c1.344-1.344,2.502-2.754,4.115-4.048c1.529-1.242,3.074-2.334,4.668-3.376
			c3.225-2.048,6.534-3.896,10.514-5.071c1.009-0.285,2.066-0.538,3.259-0.656c1.176-0.1,2.537-0.134,4.132,0.438
			c0.403,0.184,0.807,0.334,1.192,0.604l0.304,0.201l0.15,0.103c0.269,0.234,0.386,0.353,0.437,0.401l0.032,0.034
			c0.069,0.084-0.032-0.083,0.371,0.437c0.253,0.369,0.504,0.924,0.57,1.227c0.118,0.437,0.168,0.956,0.151,1.226
			C269.595,62.708,269.562,62.961,269.511,63.179z"/>
		<path fill="#FFFFFF" d="M157.391,119.544l23.652-39.469l8.539-15.815l11.756-6.018l3.359,2.798l-5.458,12.737l-3.222,11.195
			l-1.817,9.799l-2.1,11.757l-2.099,6.576l-0.981,6.439l-2.088,8.817C186.933,128.361,175.901,134.917,157.391,119.544z"/>
		<polygon fill="#FFFFFF" points="236.677,144.473 238.986,128.711 236.677,113.49 236.047,110.608 231.849,112.336 
			228.175,119.158 223.451,124.407 221.466,126.114 220.128,127.366 218.385,128.75 216.15,130.494 212.935,133.531 213.469,135.05 
			216.464,137.642 223.344,140.813 228.079,143.003 		"/>
		<path fill="#FFFFFF" d="M198.098,120.975l29.762-32.362l14.276-16.795l12.806-8.397l9.657-1.68v5.249l-9.447,11.336
			l-15.745,27.292l-5.879,4.991l-4.724,7.501c0,0-5.294,6.831-7.63,8.859c-1.679,1.46-15.77,0.178-18.238-0.923
			C202.936,126.046,198.113,122.726,198.098,120.975z"/>
		<g id="XMLID_4_">
			<g>
				<path fill="url(#Nueva_muestra_de_motivo_4)" d="M246.837,305.208h-23.564c0.309-13.184-6.305-65.971-8.066-77.459
					c5.192,3.543,18.28,13.352,21.958,24.034c2.194,6.399,3.461,14.578,4.682,22.505
					C243.175,282.887,244.442,299.648,246.837,305.208z"/>
				<path fill="#413833" d="M211.792,235.575c0.371-0.923,0.726-1.847,1.051-2.788c2.349,15.737,7.695,61.419,7.355,72.42h-22.019
					c-0.263-14.276-3.06-43.516-4.002-50.049c0.649-0.286,1.298-0.588,1.947-0.907c1.189-0.655,2.364-1.36,3.461-2.183
					c1.097-0.823,2.164-1.696,3.152-2.67c1.004-0.94,1.932-1.982,2.813-3.04c0.88-1.075,1.668-2.234,2.426-3.393
					c0.742-1.176,1.437-2.385,2.086-3.611C210.694,238.128,211.266,236.852,211.792,235.575z"/>
				<path fill="url(#Nueva_muestra_de_motivo_4)" d="M174.768,232.149l4.729-0.353c1.916-0.201,3.801-0.537,5.702-0.722l2.813-0.571
					c0.231-0.05,0.463-0.101,0.695-0.134c0.71-0.135,1.421-0.235,2.117-0.471l2.797-0.755c0.927-0.235,1.823-0.622,2.75-0.941
					c0.912-0.319,1.823-0.638,2.704-1.091c0.881-0.42,1.808-0.773,2.658-1.26l2.581-1.512c0.819-0.588,1.653-1.159,2.472-1.78
					c0.757-0.688,1.576-1.31,2.303-2.065c0.71-0.739,1.452-1.478,2.086-2.335c0.324-0.403,0.633-0.806,0.942-1.243
					c-0.108,0.622-0.216,1.276-0.309,1.881c-0.448,2.52-1.066,5.022-1.792,7.457c-0.742,2.452-1.591,4.837-2.611,7.122
					c-0.51,1.142-1.082,2.233-1.638,3.342c-0.587,1.092-1.19,2.15-1.854,3.174c-0.665,1.008-1.36,1.999-2.102,2.939
					s-1.499,1.864-2.333,2.687c-0.804,0.856-1.685,1.629-2.596,2.352c-0.896,0.739-1.87,1.343-2.843,1.999
					c-0.989,0.554-1.993,1.125-3.059,1.545c-0.525,0.252-1.066,0.454-1.607,0.622c-0.556,0.168-1.082,0.403-1.653,0.538
					l-1.684,0.437c-0.556,0.118-1.128,0.185-1.7,0.302c-0.649,0.134-1.298,0.185-1.962,0.235c-0.093-1.209-0.232-2.418-0.386-3.611
					c-0.232-1.831-0.557-3.661-0.958-5.492c-0.417-1.814-0.943-3.611-1.654-5.341c-0.371-0.856-0.788-1.713-1.329-2.486
					c-0.263-0.386-0.572-0.756-0.927-1.058c-0.34-0.336-0.772-0.604-1.144-0.756h-0.015c-0.093-0.05-0.216-0.017-0.278,0.084
					l-1.483-0.437L174.768,232.149z"/>
				<path fill="#000100" d="M154.495,267.385c-0.247-2.317-0.401-4.635-0.603-6.953c-0.201-2.318-0.324-4.652-0.479-6.97
					c-0.077-0.924,0.464-1.747,1.236-2.016l0.139-0.05c1.73-0.604,3.477-1.159,5.223-1.713l0.68-0.218
					c0.232-0.067,0.448-0.151,0.68-0.218c1.777-0.571,3.569-1.142,5.362-1.663c0.093-0.454,0.186-0.739,0.278-1.125
					c0.216-0.806,0.433-1.629,0.68-2.401c0.463-1.562,0.974-3.09,1.53-4.602c1.066-3.057,2.225-6.029,3.399-9.036l0.031-0.101
					c0.201-0.521,0.68-0.823,1.159-0.789l5.594,0.252c0.942,0,1.87-0.084,2.797-0.134c0.942-0.051,1.87-0.101,2.797-0.185
					l2.766-0.47c0.232-0.05,0.464-0.084,0.695-0.118l0.248,1.495c-0.232,0.033-0.464,0.084-0.695,0.134l-2.813,0.571
					c-1.9,0.185-3.786,0.521-5.702,0.722l-4.729,0.353l-0.572,2.301l-1.561,6.197l-1.144,4.636
					c-0.216,0.772-0.355,1.511-0.525,2.267c-0.062,0.353-0.201,0.806-0.216,1.042c-0.031,0.285-0.093,0.554-0.139,0.823
					l-0.108,0.504c-0.17,0.806-0.727,1.411-1.406,1.629c-2.194,0.689-4.419,1.327-6.629,1.948c-1.762,0.504-3.508,1.025-5.269,1.478
					c0.015,1.764,0.046,3.527,0.031,5.308c-0.031,2.334-0.016,4.652-0.077,6.986c-0.078,4.669-0.248,9.338-0.572,14.007
					c0,0.134-0.124,0.235-0.248,0.235c-0.108-0.017-0.201-0.101-0.216-0.219C155.438,276.656,154.928,272.021,154.495,267.385z"/>
				<path fill="url(#Nueva_muestra_de_motivo_4)" d="M172.636,240.647l1.561-6.197l1.483,0.437
					c-0.077,0.118-0.046,0.269,0.062,0.353c0.371,0.269,0.633,0.537,0.865,0.873c0.247,0.319,0.448,0.688,0.618,1.075
					c0.371,0.755,0.633,1.595,0.834,2.435c0.417,1.696,0.633,3.46,0.803,5.24c0.17,1.763,0.232,3.561,0.278,5.341
					s0.046,3.594-0.016,5.324l-0.016,0.084c0,0.974,0.727,1.764,1.623,1.764h0.078c1.282,0,2.58,0.118,3.878-0.017
					c0.649-0.051,1.298-0.084,1.947-0.168l1.947-0.302c0.649-0.084,1.283-0.319,1.932-0.471c0.232-0.05,0.464-0.117,0.695-0.185
					c0.989,6.987,3.616,35.27,3.878,48.975h-73.969c-0.34-6.248-1.684-37.403-4.311-49.999l0.927,0.487
					c1.73,0.823,3.492,1.579,5.3,2.167c1.792,0.671,3.647,1.058,5.47,1.528c1.839,0.336,3.678,0.705,5.532,0.839
					c1.854,0.235,3.693,0.336,5.547,0.353c1.839,0.05,3.678-0.101,5.501-0.151h0.247c1.252-0.118,2.194-1.293,2.102-2.653
					l-0.093-1.243l-0.046-1.31c-0.031-0.873-0.031-1.747,0-2.62c0.078-1.763,0.201-3.51,0.51-5.223
					c0.324-1.679,0.726-3.376,1.452-4.887c0.696-1.528,1.731-2.872,3.137-3.83l0.015-0.017c0.108-0.067,0.17-0.235,0.124-0.37
					c-0.031-0.151-0.154-0.252-0.293-0.252l-0.216-3.359c0.819-0.05,1.653-0.101,2.472-0.185c0.927,2.317,1.87,4.669,2.75,7.003
					c0.525,1.394,1.082,2.788,1.561,4.182c0.231,0.705,0.494,1.411,0.71,2.116c0.201,0.638,0.355,1.226,0.495,1.897
					c-1.746,0.555-3.492,1.109-5.223,1.713l-0.139,0.05c-0.772,0.269-1.313,1.092-1.236,2.016c0.155,2.317,0.278,4.652,0.479,6.97
					c0.201,2.318,0.355,4.636,0.603,6.953c0.433,4.636,0.943,9.271,1.623,13.906c0.016,0.118,0.108,0.202,0.216,0.219
					c0.124,0,0.248-0.101,0.248-0.235c0.324-4.669,0.494-9.338,0.572-14.007c0.062-2.334,0.046-4.652,0.077-6.986
					c0.015-1.78-0.016-3.544-0.031-5.308c1.761-0.453,3.507-0.974,5.269-1.478c2.209-0.621,4.435-1.259,6.629-1.948
					c0.68-0.218,1.236-0.823,1.406-1.629l0.108-0.504c0.046-0.269,0.108-0.538,0.139-0.823c0.016-0.235,0.154-0.689,0.216-1.042
					c0.17-0.756,0.309-1.495,0.525-2.267L172.636,240.647z"/>
				<path fill="url(#Nueva_muestra_de_motivo_4)" d="M149.689,239.27c-0.773,0.554-1.453,1.259-2.055,2.015
					c-1.19,1.545-2.086,3.326-2.75,5.156c-0.665,1.831-1.174,3.729-1.499,5.643c-0.17,0.958-0.325,1.915-0.433,2.889l-0.016,0.151
					c-1.02-0.067-2.024-0.168-3.028-0.319c-1.7-0.252-3.399-0.437-5.068-0.806c-1.685-0.285-3.307-0.806-4.945-1.192
					c-1.607-0.537-3.245-0.991-4.79-1.646c-1.592-0.554-3.106-1.327-4.636-2.032l-2.225-1.175l-2.163-1.31
					c-1.422-0.924-2.828-1.864-4.157-2.939c-0.695-0.504-1.329-1.075-1.962-1.646c-0.665-0.554-1.283-1.159-1.885-1.763
					c-0.633-0.588-1.221-1.226-1.792-1.881c-0.603-0.621-1.159-1.31-1.715-1.981c-1.112-1.36-2.132-2.805-3.121-4.283
					c-0.989-1.478-1.87-3.057-2.75-4.619c-0.865-1.596-1.684-3.225-2.426-4.888c-1.515-3.342-2.766-6.886-3.585-10.48
					c-0.093-0.437-0.186-0.924-0.248-1.276c-0.077-0.538-0.093-0.604-0.031-0.94c0.139-0.638,0.495-1.344,1.004-2.083
					c0.726-1.007,1.607-1.981,2.55-2.855c0.34,1.058,0.772,2.032,1.236,3.023c0.155,0.336,0.325,0.689,0.51,1.025
					c0.541,1.075,1.159,2.116,1.792,3.157c1.684,2.67,3.646,5.139,5.825,7.39c1.097,1.108,2.225,2.183,3.415,3.208
					c1.174,1.024,2.411,1.948,3.678,2.855c1.282,0.873,2.58,1.729,3.94,2.452c1.329,0.773,2.704,1.445,4.11,2.066
					c1.406,0.588,2.813,1.176,4.265,1.612c1.422,0.504,2.89,0.84,4.342,1.226c1.468,0.336,2.936,0.588,4.419,0.874
					c1.468,0.202,2.951,0.42,4.419,0.571c1.483,0.118,2.967,0.269,4.435,0.302c1.483,0.034,2.951,0.151,4.435,0.118
					c1.468-0.067,2.952-0.067,4.419-0.151c0.278-0.017,0.541-0.034,0.819-0.067l0.216,3.359c-0.031,0-0.046,0-0.077,0.017
					C151.296,238.296,150.446,238.699,149.689,239.27z"/>
				<path fill="#000100" d="M157.137,231.914c0.834,2.922,1.561,5.861,2.225,8.834c0.34,1.478,0.618,2.973,0.881,4.484
					c0.124,0.756,0.247,1.512,0.324,2.301c0.078,0.621,0.124,1.293,0.124,1.931l-0.68,0.218c-0.139-0.671-0.293-1.259-0.495-1.897
					c-0.216-0.706-0.479-1.411-0.71-2.116c-0.479-1.394-1.036-2.788-1.561-4.182c-0.88-2.334-1.823-4.686-2.75-7.003
					c-0.819,0.084-1.653,0.134-2.472,0.185c-0.278,0.034-0.541,0.05-0.819,0.067c-1.468,0.084-2.951,0.084-4.419,0.151
					c-1.483,0.034-2.951-0.084-4.435-0.118c-1.468-0.033-2.952-0.185-4.435-0.302c-1.468-0.151-2.951-0.369-4.419-0.571
					c-1.483-0.286-2.952-0.538-4.419-0.874c-1.453-0.386-2.92-0.722-4.342-1.226c-1.452-0.437-2.858-1.024-4.265-1.612
					c-1.406-0.621-2.781-1.293-4.11-2.066c-1.36-0.722-2.658-1.579-3.94-2.452c-1.267-0.907-2.503-1.831-3.678-2.855
					c-1.19-1.024-2.318-2.099-3.415-3.208c-2.179-2.251-4.141-4.72-5.825-7.39c-0.634-1.041-1.252-2.083-1.792-3.157l1.638-0.941
					c0.51,0.991,1.097,1.948,1.73,2.855c0.834,1.226,1.808,2.334,2.797,3.393c0.51,0.538,1.036,1.041,1.561,1.545
					c0.556,0.454,1.097,0.94,1.668,1.377c1.128,0.89,2.318,1.713,3.539,2.435c1.221,0.739,2.473,1.394,3.74,2.016
					c1.282,0.588,2.565,1.159,3.878,1.663c1.298,0.538,2.642,0.94,3.956,1.411c1.329,0.42,2.658,0.857,4.018,1.209
					c1.329,0.42,2.688,0.739,4.048,1.092c2.72,0.688,5.486,1.243,8.282,1.696c1.391,0.218,2.782,0.487,4.188,0.655l4.234,0.487
					c1.421,0.151,2.843,0.319,4.265,0.42c1.421,0.084,2.843,0.218,4.28,0.353l0.263,0.017
					C156.442,230.789,156.967,231.275,157.137,231.914z"/>
				<path fill="url(#Nueva_muestra_de_motivo_4)" d="M83.199,226.354c3.971,8.465,10.43,63.502,9.766,78.853H42.343
					c0.85-3.158,1.437-17.668,1.885-28.501l0.093-1.915c0.186-3.729,4.064-26.133,12.037-37.251
					c5.393-7.524,14.123-10.043,20.319-10.833c0.155-0.034,0.309-0.05,0.464-0.067C79.892,226.304,82.086,226.304,83.199,226.354z"
					/>
				<path fill="#413833" d="M85.408,223.835c-0.015-0.033-0.031-0.05-0.046-0.084c-0.031-0.05-0.078-0.117-0.124-0.168
					c-0.371-0.571-0.788-1.024-1.174-1.36c1.391-0.185,3.013-0.269,4.775-0.269c1.066,0,1.993,0.034,2.688,0.067
					c0.201,0.806,0.433,1.612,0.665,2.401c0.541,1.915,1.283,3.779,2.024,5.626c0.772,1.848,1.668,3.628,2.642,5.375
					c0.989,1.73,2.055,3.426,3.214,5.039c0.572,0.806,1.159,1.612,1.808,2.368c0.618,0.772,1.236,1.545,1.916,2.267
					c0.665,0.739,1.344,1.461,2.055,2.133c0.711,0.688,1.421,1.377,2.179,1.999c1.468,1.31,3.044,2.502,4.667,3.577
					c0.139,0.084,0.278,0.168,0.417,0.269c2.951,10.766,4.527,45.145,4.898,52.132H96.055
					C96.642,289.084,90.152,231.511,85.408,223.835z"/>
				<path fill="#000100" d="M85.408,223.835c4.744,7.676,11.234,65.249,10.646,81.373h21.958
					c-0.371-6.987-1.947-41.366-4.898-52.132c-0.139-0.101-0.278-0.185-0.417-0.269c-1.623-1.075-3.199-2.267-4.667-3.577
					c-0.757-0.622-1.468-1.31-2.179-1.999c-0.711-0.672-1.391-1.394-2.055-2.133c-0.68-0.722-1.298-1.495-1.916-2.267
					c-0.649-0.756-1.236-1.562-1.808-2.368c-1.159-1.612-2.225-3.309-3.214-5.039c-0.974-1.747-1.87-3.527-2.642-5.375
					c-0.742-1.848-1.483-3.712-2.024-5.626c-0.232-0.789-0.463-1.595-0.665-2.401c-0.695-0.034-1.623-0.067-2.688-0.067
					c-1.762,0-3.384,0.084-4.775,0.269c0.386,0.336,0.804,0.79,1.174,1.36c0.046,0.051,0.093,0.118,0.124,0.168
					C85.377,223.785,85.393,223.802,85.408,223.835z M44.229,276.706c-0.448,10.833-1.035,25.344-1.885,28.501h50.621
					c0.665-15.351-5.794-70.388-9.766-78.853c-1.112-0.05-3.307-0.05-6.057,0.286c-0.155,0.017-0.309,0.033-0.464,0.067
					c-6.196,0.79-14.927,3.309-20.319,10.833c-7.973,11.118-11.852,33.523-12.037,37.251L44.229,276.706z M194.176,255.158
					c0.943,6.533,3.74,35.773,4.002,50.049h22.019c0.34-11.001-5.006-56.684-7.355-72.42c-0.325,0.94-0.68,1.864-1.051,2.788
					c-0.525,1.277-1.097,2.553-1.731,3.779c-0.649,1.226-1.344,2.435-2.086,3.611c-0.757,1.159-1.545,2.318-2.426,3.393
					c-0.881,1.058-1.808,2.1-2.813,3.04c-0.989,0.974-2.055,1.847-3.152,2.67c-1.097,0.823-2.271,1.528-3.461,2.183
					C195.474,254.57,194.825,254.873,194.176,255.158z M237.164,251.782c-3.677-10.682-16.766-20.49-21.958-24.034
					c1.762,11.488,8.375,64.275,8.066,77.459h23.564c-2.395-5.559-3.662-22.321-4.991-30.92
					C240.625,266.36,239.358,258.181,237.164,251.782z M179.373,239.102c0.711,1.73,1.236,3.527,1.654,5.341
					c0.401,1.831,0.726,3.661,0.958,5.492c0.154,1.193,0.293,2.402,0.386,3.611c0.665-0.051,1.313-0.101,1.962-0.235
					c0.572-0.118,1.144-0.185,1.7-0.302l1.684-0.437c0.572-0.135,1.097-0.37,1.653-0.538c0.541-0.168,1.082-0.37,1.607-0.622
					c1.066-0.42,2.07-0.991,3.059-1.545c0.974-0.655,1.947-1.26,2.843-1.999c0.912-0.722,1.792-1.495,2.596-2.352
					c0.834-0.823,1.591-1.747,2.333-2.687s1.437-1.932,2.102-2.939c0.665-1.024,1.267-2.083,1.854-3.174
					c0.556-1.108,1.128-2.2,1.638-3.342c1.02-2.284,1.87-4.669,2.611-7.122c0.727-2.435,1.345-4.938,1.792-7.457
					c0.093-0.604,0.201-1.259,0.309-1.881c-0.309,0.437-0.618,0.84-0.942,1.243c-0.634,0.857-1.375,1.596-2.086,2.335
					c-0.727,0.755-1.545,1.377-2.303,2.065c-0.819,0.622-1.653,1.192-2.472,1.78l-2.581,1.512c-0.85,0.487-1.777,0.84-2.658,1.26
					c-0.881,0.453-1.792,0.772-2.704,1.091c-0.927,0.319-1.823,0.706-2.75,0.941l-2.797,0.755c-0.695,0.235-1.406,0.336-2.117,0.471
					l-0.248-1.495c0.695-0.117,1.375-0.235,2.055-0.47l2.689-0.789c0.912-0.235,1.746-0.706,2.611-1.042
					c0.865-0.353,1.73-0.706,2.534-1.192c0.819-0.487,1.653-0.89,2.426-1.444s1.545-1.075,2.271-1.663
					c0.711-0.639,1.421-1.243,2.102-1.881c0.618-0.706,1.298-1.344,1.87-2.099c0.572-0.739,1.159-1.461,1.638-2.284
					c0.51-0.756,0.927-1.596,1.344-2.418c0.371-0.79,0.757-1.747,0.912-2.402c0.263-1.058,1.267-1.696,2.256-1.411
					c0.201,0.05,0.402,0.151,0.556,0.269c0.525,0.386,0.788,0.638,1.113,1.024c0.309,0.353,0.587,0.756,0.803,1.209
					c0.217,0.403,0.433,0.991,0.557,1.612c0.077,0.336,0.046,0.386,0.093,0.588l0.015,0.252l0.016,0.05v0.034l0.016,0.251v0.185
					c-0.062,1.612-0.186,2.889-0.371,4.299c-0.201,1.428-0.433,2.855-0.726,4.266c3.585,2.301,20.289,13.57,24.816,26.788
					c2.302,6.701,3.585,15.048,4.836,23.127c1.499,9.708,2.92,18.878,5.841,23.665c0.325,0.504,0.355,9.741,0.078,10.278
					c-0.263,0.554-0.788,0.89-1.36,0.89H39.5c-0.85,0-1.545-0.756-1.545-1.679c0-0.739,0.448-9.943,1.066-10.161
					c0.665-1.142,1.53-5.677,2.132-20.171l0.078-1.932c0.201-4.064,4.141-27.242,12.686-39.166
					c5.826-8.112,14.803-11.018,21.479-12.009c0.17-0.588,0.463-1.142,0.881-1.629c1.823-2.133,6.042-3.225,12.563-3.225
					c0.695,0,1.344,0.017,1.9,0.034c-0.386-1.965-0.695-3.947-0.896-5.962c-0.031-0.521-0.077-0.974-0.108-1.596
					c-0.046-0.42-0.015-1.327,0.216-1.931c0.402-1.209,1.082-2.1,1.7-2.872c1.298-1.545,2.72-2.771,4.234-3.964
					c0.448-0.336,1.066-0.235,1.375,0.252c0.077,0.118,0.124,0.235,0.154,0.37l0.016,0.034c0.278,1.343,0.819,2.805,1.421,4.148
					c0.155,0.336,0.325,0.671,0.495,1.007l-1.638,0.941c-0.186-0.336-0.355-0.689-0.51-1.025c-0.463-0.991-0.896-1.965-1.236-3.023
					c-0.943,0.874-1.824,1.848-2.55,2.855c-0.51,0.739-0.865,1.445-1.004,2.083c-0.062,0.336-0.046,0.403,0.031,0.94
					c0.062,0.353,0.155,0.84,0.248,1.276c0.819,3.594,2.07,7.138,3.585,10.48c0.742,1.663,1.561,3.292,2.426,4.888
					c0.881,1.562,1.762,3.141,2.75,4.619c0.989,1.478,2.009,2.922,3.121,4.283c0.557,0.672,1.113,1.36,1.715,1.981
					c0.572,0.655,1.159,1.293,1.792,1.881c0.603,0.604,1.221,1.209,1.885,1.763c0.633,0.571,1.267,1.142,1.962,1.646
					c1.329,1.075,2.735,2.016,4.157,2.939l2.163,1.31l2.225,1.175c1.53,0.706,3.044,1.478,4.636,2.032
					c1.545,0.655,3.183,1.109,4.79,1.646c1.638,0.386,3.26,0.907,4.945,1.192c1.669,0.37,3.369,0.554,5.068,0.806
					c1.004,0.151,2.009,0.252,3.028,0.319l0.016-0.151c0.108-0.974,0.263-1.931,0.433-2.889c0.325-1.915,0.834-3.813,1.499-5.643
					c0.664-1.831,1.561-3.611,2.75-5.156c0.603-0.756,1.282-1.461,2.055-2.015c0.757-0.571,1.607-0.974,2.472-1.226
					c0.031-0.017,0.046-0.017,0.077-0.017c0.139,0,0.263,0.101,0.293,0.252c0.046,0.134-0.015,0.302-0.124,0.37l-0.015,0.017
					c-1.406,0.958-2.441,2.301-3.137,3.83c-0.726,1.511-1.128,3.208-1.452,4.887c-0.309,1.713-0.433,3.46-0.51,5.223
					c-0.031,0.874-0.031,1.747,0,2.62l0.046,1.31l0.093,1.243c0.093,1.36-0.85,2.536-2.102,2.653h-0.247
					c-1.823,0.05-3.662,0.202-5.501,0.151c-1.854-0.017-3.693-0.118-5.547-0.353c-1.854-0.134-3.693-0.503-5.532-0.839
					c-1.823-0.471-3.678-0.857-5.47-1.528c-1.808-0.588-3.569-1.344-5.3-2.167l-0.927-0.487c2.627,12.596,3.971,43.751,4.311,49.999
					h73.969c-0.263-13.705-2.889-41.988-3.878-48.975c-0.231,0.067-0.463,0.134-0.695,0.185c-0.649,0.151-1.282,0.387-1.932,0.471
					l-1.947,0.302c-0.649,0.084-1.298,0.117-1.947,0.168c-1.298,0.134-2.596,0.017-3.878,0.017h-0.078
					c-0.896,0-1.623-0.79-1.623-1.764l0.016-0.084c0.062-1.729,0.062-3.543,0.016-5.324s-0.108-3.578-0.278-5.341
					c-0.17-1.78-0.386-3.544-0.803-5.24c-0.201-0.84-0.464-1.68-0.834-2.435c-0.17-0.387-0.371-0.756-0.618-1.075
					c-0.232-0.336-0.495-0.604-0.865-0.873c-0.108-0.084-0.139-0.235-0.062-0.353c0.062-0.101,0.186-0.134,0.278-0.084h0.015
					c0.371,0.151,0.804,0.42,1.144,0.756c0.355,0.302,0.665,0.672,0.927,1.058C178.584,237.389,179.002,238.246,179.373,239.102z"/>
			</g>
		</g>
		<path fill="#808080" stroke="#000100" stroke-width="0.5" stroke-miterlimit="10" d="M116.353,278.438H96.841
			c-3.667,0-6.653,3.346-6.653,7.458v0.43c0,4.111,2.986,7.457,6.653,7.457h19.512c3.669,0,6.654-3.346,6.654-7.457v-0.43
			C123.007,281.784,120.021,278.438,116.353,278.438z M120.398,286.326c0,2.504-1.813,4.535-4.046,4.535H96.841
			c-2.233,0-4.046-2.031-4.046-4.535v-0.43c0-2.505,1.813-4.534,4.046-4.534h19.512c2.233,0,4.046,2.029,4.046,4.534V286.326z"/>
		<path fill="#808080" stroke="#000100" stroke-width="0.5" stroke-miterlimit="10" d="M218.335,278.438h-19.51
			c-3.667,0-6.653,3.346-6.653,7.458v0.43c0,4.111,2.986,7.457,6.653,7.457h19.51c3.671,0,6.656-3.346,6.656-7.457v-0.43
			C224.991,281.784,222.006,278.438,218.335,278.438z M222.383,286.326c0,2.504-1.813,4.535-4.048,4.535h-19.51
			c-2.233,0-4.046-2.031-4.046-4.535v-0.43c0-2.505,1.813-4.534,4.046-4.534h19.51c2.235,0,4.048,2.029,4.048,4.534V286.326z"/>
		<ellipse fill="#4E4D4D" cx="163.062" cy="263.985" rx="3.464" ry="4.845"/>
		<g>
			<path fill="#000100" d="M166.526,263.992c0,0,0,0.398-0.07,1.087c-0.069,0.342-0.12,0.765-0.277,1.226
				c-0.058,0.239-0.153,0.479-0.279,0.722c-0.106,0.254-0.246,0.507-0.425,0.753c-0.324,0.512-0.85,0.992-1.545,1.207
				c-0.195,0.036-0.313,0.109-0.591,0.109l-0.49-0.022c-0.341-0.072-0.859-0.231-1.151-0.482c-0.712-0.451-1.239-1.188-1.567-1.999
				c-0.393-0.802-0.468-1.714-0.532-2.6c0.05-0.536,0.03-0.782,0.139-1.288c0.082-0.471,0.198-0.922,0.39-1.313
				c0.328-0.812,0.854-1.552,1.568-2.003c0.669-0.467,1.555-0.654,2.219-0.396c0.291,0.054,0.681,0.31,0.932,0.493
				c0.236,0.241,0.482,0.443,0.632,0.719c0.181,0.246,0.316,0.5,0.423,0.755c0.128,0.242,0.222,0.481,0.279,0.722
				c0.157,0.461,0.208,0.882,0.277,1.224C166.526,263.594,166.526,263.992,166.526,263.992z M166.526,263.992
				c0,0-0.015-0.4-0.11-1.081c-0.078-0.336-0.141-0.756-0.355-1.18c-0.077-0.225-0.195-0.442-0.342-0.657
				c-0.119-0.233-0.298-0.435-0.496-0.62c-0.397-0.406-0.856-0.664-1.406-0.717c-0.569-0.089-1.076,0.188-1.48,0.599
				c-0.412,0.407-0.702,1.006-0.896,1.639c-0.107,0.323-0.161,0.637-0.215,0.943c-0.074,0.262-0.055,0.823-0.086,1.074
				c0.019,1.362,0.371,2.814,1.192,3.66c0.219,0.251,0.371,0.322,0.639,0.478l0.477,0.126c0.043,0.019,0.238-0.005,0.353-0.001
				c0.533-0.041,1.052-0.326,1.424-0.724c0.2-0.186,0.377-0.387,0.497-0.621c0.146-0.214,0.263-0.434,0.341-0.656
				c0.214-0.427,0.274-0.845,0.354-1.18C166.512,264.391,166.526,263.992,166.526,263.992z"/>
		</g>
		<path fill="#FFFFFF" d="M157.391,119.544l23.652-39.469l8.539-15.815l11.756-6.018l3.359,2.798l-5.458,12.737l-3.222,11.195
			l-1.817,9.799l-2.1,11.757l-2.099,6.576l-0.981,6.439l-2.088,8.817C186.933,128.361,175.901,134.917,157.391,119.544z"/>
		<path fill="#000100" d="M206.939,161.46c1.56-1.074,6.307-3.736,9.644-2.262c3.784,1.671-1.859,8.337-4.618,7.285
			c-3.623-1.381-8.386-1.33-9.098-1.12C201.148,165.872,205.778,162.26,206.939,161.46z"/>
		<g>
			<path fill="#000100" d="M180.671,142.928c-7.455-3.55-25.752-10.357-33.031,0c-7.277,10.357,8.119,21.511,11.757,23.072
				c0,0-4.199-6.556-3.638-9.915c0,0,7.277,7.695,14.835,4.758c3.292-1.279,10.079-8.415,4.758-13.305c0,0,3.5-2.232,10.917,0
				C188.86,148.317,183.198,144.132,180.671,142.928z"/>
			<path fill="#FFFFFF" d="M160.097,144.537c-3.31-0.443-3.855,1.461-3.855,3.971c0,2.852,3.234,6.525,7.21,6.525
				s8.287-4.985,6.933-7.495C168.808,144.617,163.006,144.926,160.097,144.537z"/>
		</g>
		<path fill="#000100" d="M79.144,85.853c0,0,5.64,3.301,13.686,8.784c4.04,2.721,8.685,5.983,13.592,9.567
			c1.226,0.896,2.472,1.811,3.731,2.733c0.688,0.514,1.122,0.809,1.808,1.235c0.663,0.43,1.328,0.863,1.994,1.298
			c2.71,1.796,5.493,3.665,8.055,6.233c1.216,1.352,2.551,2.79,3.161,5.292c0.282,1.246,0.099,2.891-0.644,4.07
			c-0.71,1.206-1.652,1.929-2.521,2.483c-1.763,1.087-3.462,1.564-5.114,1.957c-1.648,0.375-3.252,0.608-4.82,0.787
			c-1.567,0.17-3.095,0.303-4.591,0.346c-1.356,0.038-2.86,0.154-4.228,0.225c-2.78,0.179-5.415,0.29-7.849,0.381
			c-9.729,0.41-16.261,0.234-16.261,0.234s6.355-1.519,15.959-3.123c2.401-0.415,5.001-0.848,7.758-1.246
			c1.404-0.2,2.739-0.437,4.297-0.623c1.418-0.185,2.864-0.343,4.304-0.594c1.438-0.243,2.884-0.538,4.265-0.934
			c1.358-0.407,2.716-0.902,3.664-1.513c0.466-0.3,0.794-0.633,0.884-0.833c0.104-0.2,0.101-0.264,0.052-0.59
			c-0.137-0.678-0.96-1.849-1.945-2.826c-1.979-2.071-4.554-3.925-7.125-5.684c-0.663-0.447-1.318-0.892-1.975-1.335
			c-0.639-0.438-1.47-1.077-2.005-1.537c-1.21-0.992-2.402-1.971-3.577-2.936c-4.692-3.86-9.004-7.55-12.644-10.785
			C83.743,90.492,79.144,85.853,79.144,85.853z"/>
		<path fill="#000100" d="M133.649,54.405c-0.002,0,3.293,5.493,7.601,14.017c1.069,2.136,2.26,4.436,3.421,6.91
			c1.165,2.476,2.457,5.059,3.654,7.798c0.603,1.372,1.214,2.77,1.834,4.182c0.305,0.724,0.608,1.452,0.915,2.184
			c0.151,0.374,0.302,0.722,0.459,1.195l0.229,0.671l0.155,0.572c0.811,3.111,1.591,6.411,1.431,10.113
			c-0.115,1.83-0.466,3.954-1.999,5.87c-0.755,0.938-1.819,1.694-2.912,2.112c-1.096,0.43-2.178,0.563-3.177,0.579
			c-3.966-0.08-6.983-1.461-9.8-2.821c-2.798-1.405-5.304-2.969-7.569-4.446c-2.283-1.511-4.47-2.895-6.43-4.274
			c-3.944-2.716-7.144-5.137-9.289-6.957c-1.089-0.884-1.897-1.644-2.436-2.175c-0.545-0.519-0.834-0.796-0.834-0.796
			s0.354,0.188,1.021,0.54c0.656,0.359,1.634,0.852,2.877,1.481c2.486,1.239,6.039,3.011,10.3,5.138
			c2.143,1.042,4.412,2.261,6.852,3.489c2.465,1.241,4.886,2.677,7.487,3.792c2.559,1.089,5.399,2.148,7.732,2.109
			c1.167-0.046,1.858-0.352,2.292-0.921c0.466-0.583,0.809-1.729,0.901-3.035c0.175-2.664-0.398-5.667-1.128-8.593l-0.143-0.56
			l-0.135-0.441c-0.068-0.271-0.201-0.645-0.323-0.997c-0.256-0.712-0.508-1.422-0.761-2.126c-0.535-1.425-1.064-2.832-1.584-4.217
			c-1.083-2.762-2.034-5.479-3.002-8.03c-0.973-2.548-1.813-4.992-2.624-7.236C135.447,60.551,133.649,54.405,133.649,54.405z"/>
		<path fill="#000100" d="M98.178,144.219c0,0,0.9-0.405,2.488-1.023c1.588-0.62,3.864-1.468,6.609-2.38
			c2.736-0.943,5.964-1.911,9.372-2.979c1.728-0.504,3.447-1.064,5.188-1.609c0.48-0.13,0.752-0.287,1.114-0.423l1.574-0.605
			c-0.169,0.012,0.915-0.248,1.607-0.053c0.427,0.091,0.533,0.173,0.725,0.261c0.181,0.094,0.356,0.197,0.521,0.309
			c0.521,0.394,0.873,0.82,1.083,1.142c0.483,0.707,0.697,1.279,0.93,1.868c0.75,2.276,0.94,4.369,0.934,6.459
			c-0.014,2.075-0.287,4.096-0.758,6.001c-0.951,3.809-2.803,7.142-4.998,9.382c-1.053,1.156-2.207,2.02-3.265,2.675
			c-1.05,0.673-2.044,1.104-2.864,1.402c-0.813,0.323-1.484,0.468-1.936,0.569c-0.449,0.097-0.69,0.147-0.69,0.147
			s0.198-0.144,0.572-0.413c0.384-0.246,0.914-0.651,1.559-1.174c0.647-0.516,1.374-1.208,2.136-2.022
			c0.751-0.827,1.512-1.816,2.204-2.959c0.688-1.146,1.296-2.449,1.813-3.867c0.499-1.428,0.847-2.99,1.086-4.617
			c0.233-1.632,0.309-3.34,0.253-5.05c-0.08-1.687-0.307-3.471-0.791-4.844c-0.111-0.305-0.254-0.638-0.321-0.72
			c-0.039-0.091-0.027-0.014,0.125,0.077c0.063,0.052,0.135,0.097,0.212,0.129c0.087,0.031,0.095,0.036,0.398,0.128
			c0.454,0.174,1.295-0.18,0.903-0.049l-0.172,0.051c0.21-0.087-0.496,0.207,0.462-0.195l-0.026,0.01l-0.051,0.02l-0.1,0.041
			l-0.408,0.161l-0.818,0.305c-0.535,0.188-1.132,0.427-1.575,0.519c-1.896,0.504-3.766,0.946-5.548,1.27
			c-1.79,0.374-3.531,0.616-5.179,0.867c-1.64,0.276-3.208,0.443-4.654,0.601c-2.887,0.336-5.317,0.473-7.023,0.543
			C99.164,144.241,98.178,144.219,98.178,144.219z"/>
		<polygon fill="#FFFFFF" points="236.677,144.473 238.986,128.711 236.677,113.49 236.047,110.608 231.849,112.336 
			228.175,119.158 223.451,124.407 221.466,126.114 220.128,127.366 218.385,128.75 216.15,130.494 212.935,133.531 213.469,135.05 
			216.464,137.642 223.344,140.813 228.079,143.003 		"/>
		<path fill="#FFFFFF" d="M198.098,120.975l29.762-32.362l14.276-16.795l12.806-8.397l9.657-1.68v5.249l-9.447,11.336
			l-15.745,27.292l-5.879,4.991l-4.724,7.501c0,0-5.294,6.831-7.63,8.859c-1.679,1.46-15.77,0.178-18.238-0.923
			C202.936,126.046,198.113,122.726,198.098,120.975z"/>
		<path fill="#C7B299" d="M203.155,191.484c0,0-2.267-3.963,1.105-6.81c3.376-2.848,8.627-7.166,11.158-7.743
			c2.53-0.578,7.612-0.982,8.593-3.782c0.978-2.8,11.055-15.116,11.055-15.116l8.118-3l4.76,4.819l6.157,14.695l4.478,16.937
			l-2.237,12.177l-1.961,1.538l-27.292-12.035L203.155,191.484z"/>
		<path fill="#C7B299" d="M203.155,191.484c0,0-5.596,1.12-9.936,16.795v7.697l4.968,3.64l13.365,1.399l14.407-2.239l14.984-5.6
			l5.74-4.758l4.059-5.739l-32.896-10.164L203.155,191.484z"/>
		<path fill="#000100" d="M269.443,61.13c-0.066-0.303-0.317-0.857-0.57-1.227c-0.403-0.52-0.302-0.353-0.371-0.437l-0.032-0.034
			c-0.051-0.049-0.168-0.167-0.437-0.401l-0.15-0.103l-0.304-0.201c-0.386-0.27-0.789-0.42-1.192-0.604
			c-1.595-0.572-2.956-0.538-4.132-0.438c-1.192,0.118-2.25,0.371-3.259,0.656c-3.979,1.176-7.289,3.023-10.514,5.071
			c-1.594,1.042-3.139,2.134-4.668,3.376c-1.613,1.294-2.771,2.704-4.115,4.048c-2.537,2.67-4.887,5.342-7.29,8.061l-7.138,8.097
			l-7.004,8.214c-0.62,0.722-1.225,1.443-1.83,2.165c-1.61-0.906-3.174-1.898-4.668-2.956c-1.025-0.722-2.016-1.511-2.855-2.334
			c-0.403-0.42-0.772-0.856-0.975-1.243c-0.1-0.167-0.134-0.369-0.134-0.369c-0.051-0.387-0.035-0.503-0.035-0.823
			c0.103-2.401,0.571-5.257-0.1-8.18c-0.32-1.461-0.956-2.923-1.931-4.164c-0.891-1.159-2.033-2.066-3.242-2.756
			c0.152-0.353,0.303-0.722,0.438-1.074l3.71-8.801l0.941-2.25l0.487-1.176l0.218-0.571c0.084-0.253,0.118-0.1,0.371-1.158
			c0.033-0.169,0.065-0.505,0.049-0.756c0.017-0.253-0.016-0.538-0.102-0.857c-0.116-0.62-0.452-1.209-0.821-1.646
			c-0.789-0.874-1.412-1.074-1.948-1.294c-0.991-0.318-1.646-0.318-2.251-0.335c-1.176,0.017-2.15,0.168-3.092,0.369
			c-3.71,0.873-7.02,2.385-10.024,4.805c-0.22,0.2-0.438,0.385-0.64,0.587c-0.485-0.958-0.974-1.948-1.494-2.972l-0.251-0.487
			c-0.252-0.403-0.134-0.27-0.454-0.673c-0.471-0.57-0.806-0.807-1.226-1.092c-0.79-0.521-1.563-0.822-2.303-1.059
			c-1.476-0.469-2.888-0.688-4.299-0.823c-1.394-0.133-2.788-0.184-4.198-0.133c-0.622,0.033-1.226,0.067-1.897,0.168
			c-0.017-0.017-0.051-0.052-0.067-0.067c-0.654-0.689-1.429-1.764-2.184-2.789c-0.756-1.041-1.528-2.132-2.352-3.208
			c-1.646-2.148-3.427-4.314-5.911-6.129c-1.243-0.891-2.705-1.68-4.435-2.066c-0.84-0.202-1.863-0.219-2.435-0.219
			c-0.823,0-1.579,0.035-2.486,0.202c-0.84,0.151-1.981,0.52-2.955,1.395c-0.017,0.016-0.035,0.032-0.051,0.051
			c-0.169-0.086-0.354-0.169-0.521-0.253c-0.521-0.269-1.076-0.555-1.614-0.872c-2.199-1.194-4.198-2.587-6.38-4.083
			c-2.201-1.478-4.402-3.09-7.341-4.231c-1.46-0.57-3.258-0.975-5.189-0.739c-1.933,0.235-3.712,1.227-4.972,2.368l-0.353,0.336
			c0,0-0.017,0-0.033,0.017v0.017c-0.016,0-0.034,0.018-0.051,0.034l-0.034,0.033l-0.049,0.051h-0.017l-0.151,0.118
			c-0.187,0.167-0.134,0.1-0.118,0.066c0.05-0.034,0.066-0.034,0-0.018c-0.15,0.067-0.419,0.135-0.807,0.118
			c-0.754,0.034-1.847-0.234-2.888-0.571c-2.15-0.739-4.401-1.897-6.635-3.107l-3.478-1.88c-0.62-0.319-1.243-0.64-1.997-0.958
			c-0.202-0.083-0.388-0.167-0.622-0.252c-0.218-0.067-0.471-0.151-0.805-0.219l-0.236-0.051l-0.335-0.049l-0.354-0.035h-0.353
			l-0.051,0.019h-0.2l-0.203,0.033c-0.251,0.032-0.587,0.1-0.755,0.167c-1.596,0.521-2.352,1.429-2.972,2.117
			c-0.605,0.722-1.025,1.41-1.394,2.049c-0.724,1.26-1.329,2.552-1.798,3.308c-0.017,0.017-0.017,0.035-0.033,0.051
			c-0.068,0.017-0.135,0.051-0.135,0.051s-0.169,0.033-0.338,0.084c-0.167,0.033-0.351,0.067-0.554,0.067
			c-0.806,0.067-1.847-0.067-2.905-0.319c-2.166-0.537-4.433-1.495-6.699-2.569c-1.126-0.554-2.251-1.126-3.412-1.714l-3.609-1.864
			c-0.437-0.219-1.546-0.705-2.536-0.89c-1.009-0.218-2.469-0.319-3.948,0.42c-0.737,0.335-1.341,0.873-1.813,1.411
			c-0.453,0.554-0.755,1.091-0.99,1.612c-0.437,1.024-0.604,1.897-0.738,2.737c-0.22,1.629-0.186,3.073-0.202,4.333
			c0,0.302-0.018,0.587-0.034,0.738l-0.033,0.521l-0.016,0.722c0,0.84,0.065,1.563,0.117,2.201c0.05,0.621,0.066,1.158,0.05,1.511
			c-0.2,0.018-0.504,0.034-0.808,0.034c-0.956-0.034-2.099-0.202-3.257-0.454l-1.897-0.42c-0.605-0.135-1.395-0.285-2.049-0.402
			c-2.771-0.471-5.576-0.739-8.499-0.621c-1.46,0.067-2.939,0.201-4.518,0.587c-0.79,0.186-1.596,0.42-2.47,0.84
			c-0.856,0.42-1.896,0.923-2.904,2.334c-0.471,0.705-0.874,1.798-0.806,2.855c-0.018,0.017,0.017,0.269,0.017,0.353l0.017,0.051
			v0.135l0.016,0.118l0.052,0.267l0.133,0.555l0.117,0.387c0.303,0.907,0.624,1.578,0.942,2.251c0.654,1.311,1.326,2.503,2.014,3.66
			c1.395,2.318,2.822,4.535,4.199,6.736l2.033,3.241l0.504,0.856c-0.234,0.118-0.504,0.234-0.757,0.336
			c-1.227,0.504-2.586,0.958-3.962,1.359c-1.395,0.42-2.805,0.791-4.252,1.144c-1.41,0.334-2.886,0.671-4.28,0.956L39.819,70.3
			l-0.184,0.033c-1.478,0.437-3.208,1.159-4.586,2.705c-0.671,0.756-1.19,1.679-1.51,2.586c-0.337,0.924-0.471,1.814-0.521,2.654
			v0.302l-0.018,0.15v0.118l0.034,0.453l0.033,0.218c0.016,0.085,0.102,0.487,0.167,0.705c0.203,0.64,0.304,0.74,0.42,0.992
			c0.118,0.251,0.22,0.386,0.338,0.588c0.42,0.688,0.821,1.227,1.225,1.729c0.822,1.023,1.629,1.931,2.452,2.821
			c2.452,2.638,4.953,5.09,7.507,7.491l-3.66,3.224l-6.282,5.476l-1.73,1.444c-0.62,0.555-1.275,1.125-1.981,2.134
			c-0.336,0.47-0.688,1.126-0.906,1.898c-0.251,0.788-0.27,1.729-0.117,2.519c0.151,0.822,0.453,1.443,0.755,1.998
			c0.318,0.589,1.025,1.311,1.311,1.545c1.376,1.211,2.57,1.983,3.813,2.805c1.225,0.823,2.45,1.579,3.677,2.336l3.712,2.183
			l1.849,1.074l0.469,0.27l0.236,0.134l0.285,0.151l0.116,0.051l0.891,0.452c1.192,0.605,2.401,1.26,3.478,1.933
			c0.184,0.118,0.369,0.234,0.555,0.369c-0.338,0.688-0.808,1.512-1.276,2.269c-0.688,1.125-1.463,2.25-2.252,3.375
			c-1.579,2.233-3.275,4.468-4.987,6.616l-0.086,0.102c-0.049,0.084-0.1,0.151-0.15,0.234l-0.689,1.26
			c-0.199,0.438-0.401,0.907-0.604,1.378c-0.336,1.007-0.672,2.1-0.638,3.493c0.034,1.395,0.671,3.023,1.612,3.997
			c0.889,0.991,1.814,1.562,2.469,1.981l0.438,0.286l0.437,0.336c0.065,0.067,0.538,0.353,0.823,0.521
			c0.234,0.116,0.485,0.251,0.705,0.353c0.889,0.401,1.713,0.705,2.552,0.99c1.696,0.538,3.311,0.991,5.324,1.192l2.436,0.168
			c0.84,0.051,1.545,0.15,2.285,0.252c0.722,0.067,1.46,0.186,2.182,0.337c0.741,0.116,1.428,0.302,2.117,0.487
			c0.723,0.167,1.343,0.436,1.982,0.654l0.873,0.403l0.772,0.469c0.437,0.32,0.856,0.656,1.041,0.958
			c0.118,0.15,0.184,0.285,0.219,0.387c0.017,0.017,0.017,0.033,0.017,0.05c-0.487,1.563-1.192,3.31-1.831,5.057
			c-0.705,1.897-1.378,3.862-1.881,5.962c-0.487,2.083-0.856,4.316-0.555,6.785c0.067,0.604,0.218,1.243,0.403,1.863l0.168,0.471
			l0.085,0.218l0.017,0.034v0.017l0.184,0.369l0.034,0.051l0.051,0.067c0,0.033,0.386,0.57,0.705,0.823
			c0.286,0.251,0.47,0.336,0.706,0.487c0.823,0.452,1.459,0.587,2.064,0.722c0.622,0.118,1.176,0.186,1.73,0.234
			c2.201,0.202,4.231,0.135,6.281,0.019c2.031-0.103,4.032-0.286,6.014-0.471l1.459-0.135l0.354-0.017l0.302-0.018l0.755-0.017
			c0.974-0.033,1.999-0.084,2.957-0.084c1.327,0,2.688,0.017,4.029,0.067c0.017,0.353,0.035,0.705,0.086,1.041
			c0.15,0.991,0.234,1.981,0.469,2.956c0.186,0.975,0.454,1.948,0.756,2.906c0.135,0.469,0.32,0.939,0.487,1.41
			c0.186,0.453,0.336,0.94,0.571,1.395c0.387,0.907,0.84,1.796,1.328,2.67c0.502,0.856,1.04,1.713,1.627,2.52
			c0.571,0.806,1.211,1.578,1.883,2.334c0.335,0.37,0.671,0.739,1.057,1.092c0.37,0.354,0.723,0.671,1.193,1.059
			c0.235,0.201,0.555,0.319,0.873,0.353c0.673,0.049,1.333,0.043,1.991,0.013c-1.183,0.914-2.431,2.116-3.507,3.697
			c-0.569,0.869-1.107,1.845-1.47,2.939c-0.37,1.096-0.528,2.311-0.483,3.527c0.059,1.228,0.421,2.409,0.9,3.48
			c0.523,1.042,1.195,1.96,1.917,2.72c0.695,0.797,1.496,1.396,2.245,1.94c0.757,0.536,1.505,0.973,2.223,1.309
			c0.689,0.386,1.375,0.623,1.967,0.853c0.582,0.246,1.122,0.388,1.562,0.507c0.879,0.236,1.388,0.338,1.388,0.338
			s-0.389-0.359-1.078-0.93c-0.693-0.558-1.659-1.385-2.754-2.363c-0.556-0.484-1.104-1.048-1.679-1.622
			c-0.553-0.596-1.104-1.238-1.595-1.916c-0.521-0.668-0.869-1.432-1.222-2.168c-0.26-0.767-0.504-1.534-0.521-2.334
			c-0.038-0.794,0.044-1.604,0.249-2.411c0.233-0.801,0.5-1.614,0.894-2.372c0.41-0.744,0.799-1.5,1.267-2.175
			c0.461-0.672,0.913-1.32,1.363-1.902c0.409-0.526,0.797-1.005,1.157-1.443c0.352-0.063,0.704-0.13,1.049-0.207
			c1.862-0.438,3.644-1.06,5.356-1.765c1.73-0.705,3.394-1.526,5.006-2.417c0.604-0.32,1.192-0.656,1.763-1.009
			c-0.503,1.697-0.874,3.645-0.805,5.829c0.032,1.461,0.269,3.022,0.823,4.584c0.52,1.579,1.427,3.09,2.568,4.451
			c2.417,2.771,5.375,4.45,8.414,6.013c3.057,1.529,6.298,2.805,9.641,3.896c3.343,1.093,6.785,1.983,10.261,2.721
			c3.493,0.706,7.005,1.295,10.497,1.612c3.493,0.371,6.954,0.506,10.329,0.404c3.376-0.084,6.652-0.487,9.743-1.177
			c3.106-0.671,6.013-1.729,8.463-3.324c0.724-0.454,1.394-0.975,1.982-1.528c0.588,0.587,1.26,1.058,1.931,1.478
			c1.276,0.789,2.621,1.343,3.999,1.813c2.754,0.94,5.642,1.395,8.581,1.68c2.939,0.253,5.911,0.302,8.902,0.202
			c2.973-0.118,5.979-0.336,8.884-0.958c2.923-0.622,5.694-1.578,8.297-2.872c1.192-0.621,2.636-1.359,3.761-2.083
			c1.178-0.754,2.234-1.526,3.26-2.301c2.064-1.511,3.813-3.123,5.424-4.601c1.227-1.125,2.303-2.218,3.293-3.243l1.142,0.555
			l2.972,1.496l0.086,0.049c0.15,0.067,0.285,0.118,0.437,0.186c2.066,0.722,4.333-0.353,5.071-2.419
			c0.436-1.209,0.874-2.418,1.159-3.645c0.353-1.226,0.555-2.469,0.756-3.693c0.184-1.243,0.285-2.487,0.335-3.712
			c0.053-1.227,0.085-2.47,0.018-3.679c-0.067-2.436-0.369-4.82-0.772-7.154c-0.42-2.353-0.941-4.653-1.596-6.903
			c-1.311-4.501-2.99-8.834-4.955-13c-0.958-2.1-2.014-4.148-3.139-6.146c-0.555-1.009-1.125-2-1.714-2.99
			c-0.605-1.009-1.209-1.948-1.898-2.99l-0.15-0.218c-0.571-0.856-1.562-1.411-2.67-1.378c-0.338,0.018-0.624,0.034-0.893,0.051
			c-0.318-0.891-0.705-1.847-1.142-2.821c-0.351-0.739-0.671-1.528-1.091-2.284c-0.403-0.756-0.84-1.513-1.311-2.267
			c-0.102-0.153-0.184-0.304-0.285-0.438c0.42-0.654,0.722-1.309,0.941-1.931c1.142-3.375,1.04-6.467,0.939-9.59
			c-0.152-3.107-0.486-6.182-0.957-9.237c-0.455-3.057-1.025-6.096-1.73-9.054c-0.335-1.376-0.671-2.719-1.158-4.131
			c0.673-1.007,1.243-2.015,1.881-2.988l2.821-4.603l5.644-9.138c1.88-3.022,3.828-6.013,5.862-8.833
			c1.04-1.479,1.896-2.604,3.14-4.048c1.125-1.209,2.436-2.703,3.595-4.081c2.352-2.855,4.635-5.711,6.616-9.138
			c0.505-0.889,0.991-1.729,1.427-3.006c0.102-0.318,0.22-0.671,0.287-1.158c0.051-0.218,0.084-0.471,0.084-0.823
			C269.611,62.086,269.562,61.566,269.443,61.13z M256.377,72.65c-1.074,1.429-2.082,2.705-3.325,4.183
			c-1.06,1.311-2.335,3.09-3.293,4.603c-1.981,3.141-3.744,6.314-5.475,9.506c-1.729,3.174-3.393,6.382-4.988,9.623l-2.402,4.82
			c-0.402,0.789-0.787,1.596-1.207,2.385c-0.151,0-0.286,0.017-0.403,0.051c-0.437,0.1-0.74,0.269-0.975,0.42
			c-0.925,0.621-1.378,1.226-1.882,1.847c-0.957,1.243-1.697,2.486-2.368,3.746c-0.638,1.226-1.225,2.301-1.914,3.392
			c-0.034,0.035-0.051,0.084-0.085,0.118l-0.873,1.311c-1.092,1.562-2.233,2.988-3.358,4.299c-2.956,3.41-5.895,5.862-7.978,7.507
			c-1.023,0.84-1.863,1.479-2.385,1.983c-0.521,0.487-0.738,0.872-0.738,0.872v0.017c0-0.032-0.338,0.555,0.065,1.311
			c0.354,0.722,1.142,1.478,2.15,2.385c1.025,0.891,2.351,1.897,3.896,2.99c1.563,1.091,3.358,2.283,5.426,3.426
			c2.083,1.125,4.418,2.216,7.223,2.889c1.427,0.336,2.887,0.621,4.921,0.336c0.387-0.067,0.772-0.15,1.227-0.336
			c0.017,0,0.017,0.017,0.017,0.017c0.905,1.41,1.796,2.822,2.653,4.149c0.42,0.654,0.822,1.276,1.226,1.863
			c-0.27,0.051-0.536,0.118-0.789,0.186c-1.294,0.336-2.536,0.805-3.729,1.359c-2.401,1.092-4.603,2.587-6.433,4.417
			c-1.847,1.813-3.376,3.881-4.55,6.098c-1.178,2.184-1.983,4.518-2.554,6.835c0,0.017,0,0.017,0,0.034
			c-0.772,1.897-2,3.526-3.93,4.468c-0.992,0.469-2.118,0.772-3.275,1.007l-1.798,0.353c-0.302,0.067-0.604,0.151-0.889,0.27
			c-0.286,0.118-0.589,0.302-0.74,0.57c0.471-0.403,1.108-0.353,1.68-0.353l1.813,0.084c1.226,0.084,2.502,0.034,3.796-0.285
			c1.277-0.318,2.554-0.907,3.628-1.78c1.091-0.857,1.931-1.965,2.636-3.107l0.085-0.219c0.453-0.99,0.941-1.981,1.479-2.904
			c0.554-0.941,1.125-1.832,1.763-2.688c1.227-1.695,2.704-3.174,4.316-4.382c1.629-1.193,3.408-2.1,5.275-2.739
			c0.922-0.302,1.879-0.536,2.837-0.688c0.234-0.034,0.47-0.085,0.706-0.118l0.554,1.108c0.487,0.957,0.958,1.931,1.411,2.905
			c0.906,1.948,1.763,3.93,2.568,5.912c0.823,1.981,1.546,3.997,2.233,6.014c0.705,1.997,1.313,4.029,1.849,6.08
			c0.52,2.031,1.009,4.063,1.327,6.112c0.184,1.025,0.302,2.032,0.42,3.058c0.102,1.007,0.201,2.032,0.236,3.022
			c0.065,1.007,0.049,2.016,0.032,3.007l-0.085,1.478l-0.151,1.461c-0.065,0.47-0.116,0.924-0.2,1.395l-1.965-0.84
			c-2.15-0.891-4.333-1.73-6.534-2.537c-4.398-1.612-8.866-3.023-13.42-4.199c-4.533-1.192-9.187-2.049-13.889-2.586
			c-1.192-0.133-2.368-0.2-3.561-0.251s-2.385-0.067-3.577-0.017c-1.176,0.017-2.385,0.1-3.561,0.251
			c-1.009,0.134-2,0.319-2.974,0.554c-0.033-0.066-0.05-0.134-0.082-0.184c-0.135-0.269-0.253-0.538-0.354-0.823
			c-0.2-0.57-0.335-1.143-0.351-1.746c0-0.286,0.016-0.589,0.065-0.891c0.017-0.151,0.085-0.286,0.118-0.437
			c0.049-0.135,0.083-0.285,0.167-0.42c0.118-0.285,0.285-0.555,0.489-0.807c0.167-0.27,0.42-0.47,0.636-0.722
			c-0.269,0.185-0.57,0.319-0.823,0.554c-0.268,0.202-0.502,0.437-0.722,0.722c-0.118,0.135-0.2,0.27-0.285,0.437
			c-0.084,0.152-0.184,0.304-0.253,0.454c-0.134,0.337-0.232,0.673-0.318,1.025c-0.134,0.705-0.134,1.427-0.049,2.132
			c0.049,0.353,0.116,0.705,0.217,1.042c0.102,0.353,0.186,0.672,0.37,1.058c0.118,0.269,0.369,0.454,0.689,0.437h0.184
			c1.125-0.033,2.233,0,3.343,0.085c1.108,0.116,2.217,0.2,3.326,0.386c1.091,0.15,2.199,0.369,3.29,0.605
			c1.092,0.234,2.168,0.536,3.259,0.788c4.352,1.093,8.583,2.62,12.798,4.183c4.216,1.612,8.382,3.359,12.513,5.189l4.417,2.032
			c-0.738,0.487-1.528,0.99-2.335,1.513c-1.78,1.125-3.727,2.317-5.761,3.475c-1.04,0.555-2.1,1.144-3.174,1.629
			c-0.538,0.27-1.074,0.505-1.612,0.724c-0.269,0.1-0.538,0.234-0.807,0.318l-0.905,0.303c-2.336,0.738-4.854,1.428-7.391,2.1
			c-2.57,0.654-5.189,1.359-7.895,1.796c-5.357,0.891-10.951,0.958-15.77-0.032c-1.865-0.388-3.661-1.042-4.839-1.981
			c-0.317-0.236-0.57-0.487-0.788-0.772c-0.268-0.32-0.437-0.656-0.553-1.025c-0.019-0.102-0.053-0.202-0.069-0.285
			c0-0.034-0.017-0.118-0.017-0.118l-0.017-0.218c-0.016-0.186-0.032-0.369-0.032-0.555c-0.019-0.101-0.019-0.202-0.019-0.302
			c-0.034-0.958,0.067-2.083,0.186-3.074c0.184-1.41,0.453-2.737,0.755-3.947c0.085-0.335,0.169-0.654,0.252-0.956
			c0.521-1.916,1.109-3.545,1.612-4.837c0.438-1.144,0.858-2.016,1.16-2.604c0.302-0.588,0.469-0.89,0.469-0.89l-0.555-0.387
			c0,0-0.216,0.304-0.619,0.856c-0.388,0.554-0.941,1.394-1.562,2.503c-1.243,2.201-2.823,5.492-3.966,9.791
			c-0.251,1.109-0.502,2.201-0.62,3.528c-0.033,0.318-0.033,0.587-0.051,0.889l-0.017,0.219v0.336
			c0.017,0.202,0.017,0.403,0.051,0.589c0.049,0.369,0.135,0.738,0.251,1.091c-0.571,0.403-1.209,0.756-1.914,1.076
			c-2.116,0.905-4.67,1.427-7.424,1.763c-2.771,0.285-5.777,0.285-8.884,0.151c-6.215-0.286-12.9-1.244-19.483-2.621
			c-6.567-1.376-13.116-3.157-18.81-5.44c-2.805-1.176-5.561-2.452-7.224-4.031c-1.763-1.646-2.82-3.745-3.24-5.997
			c-0.403-2.25-0.27-4.5,0.032-6.498c0.053-0.287,0.102-0.572,0.151-0.84c0-0.018,0.018-0.018,0.018-0.034
			c0.067-0.453,0.169-0.907,0.27-1.327c0-0.017,0-0.017,0-0.033c0.234-1.092,0.52-2.066,0.789-2.938
			c0.823-2.621,1.528-4.183,1.646-4.419c-0.236,0.236-1.378,1.496-2.855,3.864c-0.504,0.822-1.042,1.764-1.547,2.854h-0.017
			c-1.427,0.907-2.955,1.766-4.517,2.52c-1.562,0.774-3.176,1.479-4.803,2.083c-3.057,1.109-6.298,1.897-9.29,1.696
			c-0.167-0.168-0.367-0.353-0.536-0.521c-0.303-0.302-0.589-0.638-0.874-0.957c-0.555-0.655-1.091-1.344-1.578-2.065
			c-0.486-0.722-0.925-1.478-1.345-2.233c-0.42-0.772-0.787-1.562-1.106-2.369c-0.186-0.385-0.304-0.805-0.455-1.225
			c-0.134-0.403-0.302-0.808-0.403-1.243c-0.234-0.823-0.452-1.68-0.587-2.536c-0.184-0.84-0.234-1.714-0.335-2.586
			c-0.068-0.438-0.034-0.875-0.068-1.311l-0.033-1.311v-0.051c-0.032-1.023-0.84-1.863-1.881-1.931
			c-2.016-0.135-4.03-0.186-6.097-0.236c-1.007-0.017-1.981,0.018-2.99,0.018l-0.739,0.017l-0.822,0.017l-1.51,0.084
			c-1.983,0.102-3.948,0.201-5.879,0.236c-1.932,0.032-3.864,0.016-5.627-0.186c-0.438-0.051-0.858-0.118-1.209-0.202
			c-0.169-0.032-0.32-0.083-0.454-0.116c-0.067-0.32-0.151-0.64-0.186-0.992c-0.167-1.494,0.118-3.258,0.57-5.004
			c0.455-1.764,1.109-3.545,1.814-5.358c0.724-1.814,1.512-3.594,2.201-5.728l0.017-0.033c0.032-0.067,0.051-0.134,0.051-0.201
			c0.116-0.772,0.067-0.991,0.051-1.427c-0.069-0.354-0.118-0.724-0.236-1.042c-0.2-0.673-0.485-1.26-0.84-1.763
			c-0.688-1.076-1.528-1.766-2.368-2.403c-0.42-0.285-0.856-0.555-1.276-0.806l-1.292-0.638c-0.856-0.336-1.73-0.705-2.587-0.925
			c-0.857-0.251-1.714-0.504-2.554-0.654c-0.84-0.186-1.696-0.353-2.568-0.453c-0.874-0.135-1.748-0.269-2.52-0.319l-2.368-0.219
			c-1.194-0.134-2.687-0.554-4.048-1.007c-0.673-0.236-1.361-0.505-1.932-0.772c-0.151-0.067-0.253-0.135-0.369-0.186
			c-0.051-0.051,0.051,0.051-0.186-0.134l-0.05-0.035h-0.016l-0.019-0.017c-0.034-0.016-0.051-0.032-0.051-0.032l-0.049-0.051
			l-0.354-0.253l-0.57-0.401c-0.689-0.438-1.109-0.772-1.276-0.991c-0.167-0.201-0.118-0.169-0.151-0.387
			c-0.016-0.234,0.102-0.705,0.286-1.209l0.37-0.823l0.403-0.705c1.796-2.184,3.492-4.385,5.138-6.667
			c0.857-1.177,1.697-2.385,2.502-3.645c0.808-1.327,1.598-2.503,2.285-4.419c0.152-0.536,0.369-1.023,0.336-2.199
			c-0.032-0.302-0.067-0.654-0.236-1.108c-0.032-0.135-0.25-0.605-0.469-0.891l-0.186-0.219l-0.034-0.049l-0.251-0.253l-0.017-0.017
			l-0.034-0.034l-0.065-0.049l-0.135-0.118l-0.269-0.219c-0.371-0.319-0.722-0.589-1.042-0.79c-0.336-0.234-0.672-0.487-0.992-0.671
			c-1.309-0.856-2.602-1.545-3.913-2.25l-0.991-0.521l-0.737-0.42l-1.814-1.074l-3.561-2.167c-1.176-0.74-2.334-1.478-3.459-2.25
			c-1.025-0.689-2.1-1.462-2.839-2.1c0.168-0.186,0.419-0.42,0.688-0.656l1.528-1.276l6.533-5.625l6.349-5.577
			c0.084-0.067,0.169-0.15,0.251-0.234c0.589-0.621,0.874-1.429,0.874-2.218c0-0.891-0.353-1.763-1.058-2.419
			c-3.326-3.09-6.686-6.314-9.708-9.59c-0.756-0.821-1.478-1.646-2.116-2.452c-0.285-0.386-0.57-0.754-0.756-1.058v-0.017
			c0.067-0.504,0.202-0.756,0.353-0.923c0.152-0.202,0.589-0.455,1.226-0.656c1.547-0.318,3.024-0.639,4.521-0.991
			c1.51-0.369,3.021-0.772,4.549-1.209c1.529-0.452,3.058-0.939,4.636-1.579c0.807-0.318,1.598-0.688,2.486-1.192
			c0.437-0.251,0.907-0.57,1.427-1.007c0.505-0.521,1.211-1.025,1.696-2.552c0.187-0.589,0.203-1.228-0.017-1.832l-0.017-0.033
			c-0.387-1.159-0.738-1.73-1.092-2.401c-0.352-0.656-0.706-1.227-1.057-1.813l-2.116-3.394c-1.412-2.216-2.822-4.383-4.133-6.55
			c-0.654-1.075-1.276-2.149-1.779-3.191c-0.101-0.186-0.186-0.387-0.27-0.57c0.234-0.084,0.487-0.169,0.772-0.236
			c0.958-0.234,2.1-0.369,3.241-0.42c2.301-0.101,4.721,0.102,7.105,0.505c0.62,0.101,1.125,0.202,1.797,0.353l1.931,0.42
			c1.395,0.285,2.823,0.521,4.484,0.571c0.857,0,1.747-0.035,2.839-0.32c1.059-0.269,2.503-0.975,3.425-2.317
			c0.909-1.311,1.06-2.619,1.127-3.543c0.034-0.941-0.034-1.714-0.084-2.386c-0.051-0.655-0.102-1.242-0.102-1.713v-0.234
			l0.033-0.471c0.034-0.487,0.034-0.856,0.052-1.209c0-1.361-0.018-2.52,0.117-3.477c0.034-0.286,0.083-0.538,0.15-0.722
			c0.169,0.049,0.386,0.116,0.858,0.334l3.375,1.697c1.175,0.588,2.385,1.175,3.611,1.764c2.467,1.125,5.021,2.218,7.96,2.904
			c1.461,0.32,3.056,0.573,4.854,0.42c0.454-0.049,0.908-0.116,1.377-0.218c0.471-0.116,0.926-0.251,1.529-0.504
			c0.334-0.15,0.387-0.185,0.554-0.269l0.103-0.067l0.065-0.017c0.302-0.167,0.186-0.118,0.302-0.186
			c0.269-0.167,0.454-0.334,0.605-0.469c0.621-0.589,0.857-1.009,1.126-1.394c0.89-1.462,1.325-2.57,1.913-3.577
			c0.269-0.487,0.538-0.926,0.773-1.211l0.017-0.017c0.437,0.169,0.975,0.42,1.496,0.689l3.441,1.813
			c2.352,1.226,4.787,2.469,7.592,3.41c1.429,0.42,2.921,0.84,4.787,0.821c0.906-0.016,1.947-0.167,3.005-0.621
			c0.236-0.101,0.538-0.251,0.856-0.47c0.32-0.185,0.64-0.436,0.688-0.486l0.522-0.471l0.252-0.235
			c0.671-0.604,1.293-0.906,1.948-1.024c0.671-0.101,1.527,0,2.502,0.353c1.948,0.688,4.099,2.1,6.247,3.493
			c2.134,1.411,4.484,2.956,6.903,4.216c0.589,0.319,1.192,0.638,1.849,0.941c0.705,0.302,1.26,0.621,2.52,0.889
			c0.367,0.051,0.771,0.118,1.427-0.017c0.62-0.084,1.343-0.52,1.663-0.856c0.62-0.654,0.587-0.688,0.636-0.705
			c0,0,0.135-0.135,0.555-0.218c0.387-0.084,0.941-0.135,1.41-0.135c0.742,0,1.027-0.017,1.464,0.084
			c0.839,0.15,1.745,0.57,2.637,1.192c1.778,1.227,3.441,3.073,5.004,5.021c0.789,0.991,1.546,2.017,2.334,3.074
			c0.823,1.058,1.562,2.115,2.756,3.292c0.318,0.285,0.671,0.621,1.276,0.956c0.334,0.152,0.672,0.336,1.343,0.42
			c0.202,0.018,0.521,0,0.605-0.017l0.318-0.049l0.15-0.035c0.489-0.1,1.093-0.15,1.68-0.201c1.194-0.084,2.419-0.084,3.611,0
			c2.302,0.134,5.056,0.722,5.257,1.746c0.724,1.344,1.478,2.789,2.285,4.216c-0.086,0.102-0.168,0.218-0.253,0.319
			c-1.058,1.344-2.014,2.705-2.955,4.081c-3.712,5.475-6.869,11.169-9.877,16.93c-1.511,2.872-2.939,5.778-4.298,8.75
			c-0.236,0.504-0.454,1.009-0.688,1.512c-0.403-0.823-0.858-1.663-1.313-2.519c-0.62-1.144-1.225-2.336-1.912-3.51
			c-0.673-1.177-1.361-2.385-2.066-3.577c-0.722-1.194-1.445-2.369-2.15-3.528c-0.705-1.176-1.478-2.267-2.167-3.359
			c-1.427-2.183-2.82-4.164-4.064-5.827c-2.282-3.124-4.08-5.141-4.35-5.426c0.103,0.304,1.023,2.872,2.687,6.416
			c0.891,1.898,1.965,4.064,3.192,6.366c0.621,1.125,1.227,2.334,1.932,3.51c0.671,1.176,1.36,2.385,2.049,3.577
			c0.722,1.176,1.445,2.352,2.167,3.527c0.705,1.158,1.459,2.268,2.165,3.359c0.874,1.327,1.748,2.603,2.571,3.761
			c-0.688,1.462-1.378,2.906-2.134,4.333c-1.429,2.823-2.939,5.609-4.567,8.349c-1.614,2.737-3.275,5.475-4.99,8.146l-0.117,0.15
			c-0.318,0.504-0.251,1.16,0.168,1.596c0.689,0.673,1.311,1.209,2,1.764c0.672,0.554,1.378,1.076,2.083,1.562
			c1.427,0.992,2.938,1.832,4.5,2.569c0.772,0.388,1.562,0.689,2.369,1.009c0.805,0.268,1.61,0.555,2.45,0.738
			c0.823,0.219,1.663,0.388,2.52,0.487c0.823,0.169,1.663,0.135,2.502,0.202c-0.805-0.219-1.645-0.354-2.434-0.622
			c-0.79-0.234-1.562-0.52-2.319-0.856c-0.385-0.15-0.754-0.336-1.125-0.521c-0.351-0.175-0.703-0.323-1.057-0.512l3.173-8.707
			l-4.646,7.857c-0.232-0.141-0.466-0.278-0.695-0.435c-0.594-0.391-1.171-0.807-1.741-1.233l7.956-17.413l-10.33,15.468
			c-0.52-0.469-1.031-0.946-1.526-1.439c-0.27-0.286-0.555-0.571-0.808-0.856c1.831-2.252,3.579-4.535,5.24-6.887
			c1.914-2.638,3.729-5.341,5.442-8.129c0.454-0.739,0.891-1.494,1.327-2.25c0.252-0.455,0.52-0.907,0.772-1.378
			c0.923-1.646,1.813-3.309,2.687-4.888l4.719-8.279c1.613-2.754,3.242-5.475,4.956-8.163c1.696-2.67,3.359-5.356,5.155-7.91
			c0.538-0.757,1.091-1.511,1.629-2.251c0.37-0.487,0.739-0.974,1.108-1.427c0.453-0.555,0.925-1.108,1.395-1.612
			c0.486-0.555,0.974-1.025,1.41-1.394c1.696-1.395,3.913-2.554,6.098-3.243l-0.185,0.438c-1.192,2.904-2.353,5.844-3.427,8.85
			c-0.032,0.067-0.051,0.151-0.085,0.219c-0.402,1.143-0.787,2.284-1.175,3.442c-0.656,1.982-1.26,4.031-1.695,6.281
			c-0.102,0.42-0.151,0.958-0.22,1.429l-0.135,1.142l-0.335,2.199l-0.823,4.721l-1.747,9.472l-1.679,9.49
			c-0.589,3.157-1.074,6.349-1.629,9.522c-0.538,3.106-1.007,6.247-1.496,9.355c-0.318,0.219-0.688,0.453-1.074,0.638v-5.878
			l-0.978,6.246c-0.152,0.051-0.29,0.126-0.451,0.169c-0.974,0.285-2.03,0.336-3.09,0.185c1.009,0.337,2.1,0.471,3.191,0.354
			c0.555-0.052,1.093-0.151,1.631-0.302c0.536-0.169,1.04-0.354,1.578-0.656c0.083-0.05,0.167-0.135,0.201-0.234l0.017-0.084
			c0.975-3.074,1.965-6.147,2.872-9.237c0.925-3.09,1.881-6.164,2.737-9.271c1.763-6.197,3.477-12.395,5.038-18.677l1.16-4.719
			c0.184-0.823,0.387-1.73,0.538-2.535l0.199-1.244c0.069-0.319,0.086-0.587,0.186-0.939c0.32-1.394,0.789-2.855,1.311-4.333
			c1.68,1.007,2.854,2.501,3.343,4.434c0.62,2.183,0.351,4.618,0.318,7.423c0,0.32,0.049,0.856,0.083,1.125
			c0.118,0.638,0.304,1.058,0.538,1.445c0.455,0.756,0.975,1.275,1.494,1.779c1.06,0.975,2.167,1.764,3.294,2.503
			c1.492,0.975,3.005,1.847,4.566,2.67c-1.207,1.429-2.401,2.855-3.576,4.301c-2.284,2.786-4.602,5.542-6.853,8.363
			c-0.436,0.554-0.891,1.125-1.345,1.68c-0.049-0.118-0.118-0.251-0.2-0.369c-0.252-0.455-0.488-0.975-0.758-1.513
			c-0.232-0.57-0.604-1.091-0.855-1.746c-0.27-0.622-0.571-1.26-0.738-1.966c-0.186-0.688-0.437-1.359-0.555-2.083
			c-0.15-0.705-0.285-1.392-0.437-2.064c-0.22-1.361-0.436-2.653-0.604-3.763c-0.219-2.218-0.437-3.712-0.437-3.712l-0.336-0.016
			c0,0-0.185,1.494-0.42,3.762c-0.067,1.142-0.135,2.469-0.168,3.914c0.033,0.722,0.05,1.46,0.084,2.216
			c0,0.772,0.15,1.545,0.234,2.317c0.067,0.79,0.236,1.579,0.387,2.368c0.101,0.789,0.404,1.563,0.689,2.285
			c0.351,0.722,0.771,1.394,1.309,1.965c0.27,0.285,0.555,0.554,0.823,0.789c0.017,0.016,0.033,0.016,0.05,0.034
			c-1.158,1.443-2.316,2.888-3.441,4.35l-0.085,0.118c-0.118,0.167-0.168,0.386-0.118,0.587c0.085,0.318,0.169,0.538,0.269,0.772
			c0.086,0.234,0.203,0.453,0.32,0.673c0.251,0.42,0.52,0.821,0.84,1.192c0.621,0.738,1.359,1.359,2.166,1.83
			c0.42,0.218,0.84,0.437,1.276,0.587c0.42,0.186,0.872,0.286,1.311,0.404c0.891,0.201,1.779,0.285,2.67,0.317
			c-0.874-0.184-1.747-0.42-2.535-0.754c-0.156-0.072-0.309-0.143-0.461-0.214l2.165-2.728l-2.848,2.36
			c-0.005-0.003-0.01-0.005-0.017-0.008c-0.369-0.202-0.705-0.469-1.04-0.705c-0.319-0.271-0.613-0.553-0.881-0.852l8.38-9.43
			l-9.129,8.435c-0.234-0.354-0.403-0.724-0.538-1.076c-0.065-0.2-0.135-0.386-0.184-0.571c0-0.032-0.017-0.049-0.017-0.083
			c1.427-1.36,2.854-2.737,4.265-4.132c0.488-0.487,0.974-0.958,1.479-1.461c0.57-0.538,1.142-1.109,1.712-1.664
			c2.587-2.501,5.09-5.087,7.644-7.625c1.292-1.275,2.585-2.586,3.86-3.879l1.529-1.579c0.722-0.738,1.444-1.478,2.168-2.216
			l7.523-7.727l14.864-15.501c1.207-1.176,2.367-2.536,3.61-3.461c1.26-1.023,2.67-1.981,4.099-2.889
			c2.854-1.763,5.928-3.358,8.834-4.282c0.369-0.118,0.722-0.218,1.074-0.285C260.406,67.159,258.409,69.98,256.377,72.65z
			 M235.45,141.562c-0.219,0.051-0.487,0.084-0.789,0.1c-0.366,0-0.782-0.027-1.216-0.065c1.406-4.787,0.922-13.654,0.922-13.654
			s-0.229,8.508-3.098,13.346c-1.222-0.21-2.423-0.449-3.608-0.722c1.359-2.231,2.392-6.455,2.392-6.455s-1.399,4.21-3.56,6.184
			c-0.297-0.072-0.611-0.138-0.902-0.21c-2.15-0.538-4.131-1.144-5.844-1.781c-1.695-0.654-3.141-1.344-4.233-2.032
			c-1.106-0.671-1.847-1.395-2.183-1.931c-0.318-0.504-0.151-0.739-0.167-0.756c0.016-0.017,0.134-0.32,0.636-0.808
			c0.506-0.486,1.278-1.174,2.336-1.98c1.058-0.806,2.336-1.78,3.812-2.889c1.479-1.125,3.159-2.403,4.904-3.913
			c0.925-0.808,1.866-1.68,2.788-2.638l2.419-2.788c0.823-1.042,1.612-2.267,2.302-3.427c0.672-1.106,1.443-2.25,2.301-3.206
			c0.186-0.22,0.386-0.438,0.587-0.622c0.186,0.671,0.353,1.395,0.504,2.133c0.102,0.503,0.203,1.024,0.285,1.545
			c0.505,2.89,0.874,5.861,1.125,8.817c0.236,2.974,0.371,5.945,0.27,8.817c-0.101,2.301-0.335,4.653-0.823,6.534l-0.101,0.318
			c0,0.034,0,0.067-0.017,0.102c-0.083,0.285-0.169,0.536-0.251,0.789c-0.187,0.487-0.403,0.872-0.554,1.074
			c-0.019,0.017-0.035,0.051-0.035,0.051l-0.018,0.017h-0.017l-0.049,0.051c0.017-0.017,0.017-0.034,0.032-0.051
			C235.568,141.527,235.518,141.545,235.45,141.562z"/>
	</g>
</g>
</svg>
