<?xml version="1.0" encoding="utf-8"?>
<!-- Generator: Adobe Illustrator 16.0.0, SVG Export Plug-In . SVG Version: 6.00 Build 0)  -->
<!DOCTYPE svg PUBLIC "-//W3C//DTD SVG 1.1//EN" "http://www.w3.org/Graphics/SVG/1.1/DTD/svg11.dtd">
<svg version="1.1" id="Capa_1" xmlns="http://www.w3.org/2000/svg" xmlns:xlink="http://www.w3.org/1999/xlink" x="0px" y="0px"
	 width="300px" height="300px" viewBox="0 0 300 300" enable-background="new 0 0 300 300" xml:space="preserve">
<g>
	<defs>
		<rect id="SVGID_9_" y="0" width="300" height="299.999"/>
	</defs>
	<clipPath id="SVGID_2_">
		<use xlink:href="#SVGID_9_"  overflow="visible"/>
	</clipPath>
	<path clip-path="url(#SVGID_2_)" fill="none" stroke="#000100" stroke-miterlimit="10" d="M100.369,231.238"/>
	<path clip-path="url(#SVGID_2_)" fill="#BAD9D3" d="M300,0H0V300h32.129c0.111-0.438,0.238-0.873,0.348-1.312
		c1.309-5.332,2.496-10.704,3.465-16.061c0.451-2.664,0.914-5.393,1.043-7.891c0.008-0.302,0.016-0.604,0.004-0.869l-0.018-0.31
		l-0.055-0.435c-0.133-0.864-0.152-1.622-0.174-2.396c-0.027-1.523,0.107-2.983,0.268-4.432c0.352-2.887,0.875-5.721,1.676-8.491
		c0.811-2.762,1.74-5.5,2.975-8.124c1.219-2.629,2.656-5.178,4.361-7.574c1.742-2.388,3.676-4.602,6.084-6.539
		c0.631-0.531,1.158-0.864,1.73-1.281c0.736-0.471,1.283-0.824,1.947-1.21c1.285-0.729,2.613-1.361,3.965-1.901
		c2.695-1.103,5.486-1.822,8.273-2.369c2.791-0.538,5.594-0.864,8.391-1.064c2.797-0.203,5.586-0.292,8.371-0.3
		c2.785-0.029,5.563,0.061,8.342,0.161c2.725,0.129,5.426,0.272,8.18,0.536c3.076-0.341,6.152-0.73,9.227-1.133
		c3.084-0.41,6.17-0.789,9.26-1.132l2.318-0.221l1.16-0.112l0.48-0.046c0.104-0.074,0.268-0.187,0.383-0.29l0.801-0.684
		c0.543-0.485,1.09-1.002,1.635-1.527c2.137-2.041,4.299-4.15,6.391-6.284c0.217-0.359,0.434-0.72,0.602-1.125
		c0.176-0.461,0.33-0.941,0.426-1.457c0.098-0.515,0.174-1.048,0.186-1.604c0.041-0.546,0.008-1.119-0.027-1.689
		c-0.156-2.298-0.721-4.69-1.5-7.026c-0.664-2.132-1.535-4.222-2.447-6.31c-1.572-0.22-3.141-0.469-4.705-0.835
		c-4.643-0.989-9.262-2.604-13.576-5.014c-4.271-2.45-8.188-5.806-10.969-9.913c-2.818-4.085-4.418-8.773-5.07-13.361
		c-0.664-4.61-0.422-9.168,0.313-13.542c0.764-4.374,2.008-8.589,3.629-12.631c0.813-2.017,1.697-3.999,2.641-5.947
		c0.92-1.955,2.016-3.836,3.096-5.701c1.078-1.873,2.271-3.68,3.512-5.452c0.883-1.274,1.83-2.504,2.813-3.71
		c-0.053-0.268-0.119-0.528-0.164-0.797c-0.258-1.578-0.48-3.129-0.482-4.845v-1.291l0.086-1.135l0.045-0.566
		c0.016-0.139-0.002-0.092,0.043-0.382l0.053-0.298l0.227-1.194c0.125-0.8,0.344-1.594,0.576-2.39
		c0.191-0.801,0.5-1.588,0.809-2.374c0.605-1.578,1.465-3.111,2.516-4.558c1.086-1.433,2.465-2.699,4-3.771
		c1.574-1.022,3.301-1.809,5.088-2.345c0.498-0.145,1.002-0.225,1.506-0.333c-0.168-0.686-0.348-1.379-0.533-2.055
		c-0.385-1.481-0.82-2.954-1.295-4.414c-0.965-2.915-2.066-5.78-3.277-8.593c-0.613-1.399-1.264-2.788-1.969-4.145
		c-0.695-1.365-1.432-2.707-2.18-4.035c-0.748-1.332-1.57-2.62-2.395-3.904c-0.871-1.256-1.73-2.519-2.678-3.718
		c-0.912-1.224-1.873-2.408-2.861-3.575l-1.518-1.716c-0.527-0.558-1.082-1.086-1.594-1.655c-1.047-1.112-2.16-2.177-3.303-3.203
		c-1.16-1.014-2.316-2.036-3.545-2.98c-1.188-0.999-2.512-1.832-3.771-2.757c-1.324-0.833-2.619-1.734-4.023-2.469
		c-1.363-0.807-2.793-1.5-4.24-2.183c-1.379-0.694-2.848-1.206-4.289-1.798c-2.754-0.141-7.658,2.347-9.688,4.527
		c-0.916,1.529-1.439,3.564-2.082,5.496c-0.631,1.965-1.316,3.966-2.375,5.899c-2.18,4.01-6.371,6.556-10.746,7.788
		c-2.217,0.599-4.557,0.873-6.908,0.674c-2.344-0.179-4.748-0.82-6.822-2.137c-2.078-1.306-3.699-3.297-4.58-5.488
		c-0.445-1.04-0.754-2.395-0.896-3.3c-0.172-1.217-0.252-2.245-0.248-3.385c-0.006-4.474,1.42-8.832,3.463-12.718
		c2.084-3.89,4.758-7.405,7.697-10.59c1.463-1.601,2.979-3.141,4.49-4.624l1.129-1.099c0.389-0.371,0.883-0.794,1.322-1.186
		c0.912-0.777,1.85-1.484,2.811-2.137c3.846-2.598,7.961-4.566,12.213-6.152c4.25-1.581,8.641-2.749,13.098-3.58
		c4.455-0.833,8.977-1.342,13.51-1.412c1.127-0.056,2.307-0.005,3.457-0.008c1.172,0,2.316,0.021,3.367,0.098l3.355,0.197
		c1.158,0.12,2.324,0.225,3.463,0.448c4.582,0.774,9.045,1.99,13.205,3.781c4.195,1.708,8.113,3.882,11.779,6.31
		c3.66,2.444,7.076,5.157,10.191,8.122c1.576,1.46,3.029,3.036,4.449,4.624c1.406,1.589,2.756,3.21,3.943,4.965
		c2.297,2.201,6.93,7.015,8.582,8.678c0.883,0.947,1.803,1.865,2.645,2.851c0.871,0.963,1.707,1.955,2.518,2.971
		c3.268,4.054,5.928,8.468,8.689,12.728c2.713,4.293,5.43,8.563,8.268,12.773c2.609,3.892,5.217,7.786,7.877,11.655
		c2.514,0.584,5.031,1.258,7.467,2.28c2.809,1.146,5.506,2.67,7.932,4.571c2.422,1.901,4.529,4.209,6.168,6.729
		c1.656,2.52,2.875,5.221,3.797,7.932c1.863,5.434,2.525,10.898,3.297,16.106c0.766,5.194,1.551,10.28,3.467,14.56
		c0.225,0.576,0.488,0.971,0.717,1.452c0.201,0.438,0.676,1.101,1.002,1.64l2.199,3.307c1.496,2.317,2.961,4.666,4.291,7.164
		c1.307,2.526,2.623,5.043,3.289,8.383c0.148,0.843,0.234,1.776,0.166,2.76c-0.049,0.956-0.352,2.025-0.443,2.417
		c-0.012,0.079-0.018,0.104-0.023,0.128l0.006,0.017l0.027,0.051l0.256,0.485l0.482,0.957c1.248,2.536,2.268,5.137,3.15,7.809
		c0.865,2.678,1.561,5.434,1.916,8.317c0.33,2.877,0.383,5.915-0.496,9.022c-0.775,3.104-2.982,6.202-5.963,8.035l-0.523,0.323
		l-0.297,0.061c-0.299,1.103-0.645,2.247-1.1,3.471c-0.684,1.902-1.59,3.923-2.746,5.991c-1.197,2.044-2.58,4.181-4.379,6.164
		c-1.824,1.953-3.875,3.913-6.363,5.463c-2.502,1.511-5.24,2.823-8.174,3.602c-0.723,0.184-1.453,0.344-2.186,0.485
		c1.082,0.033,2.264,0.1,3.557,0.24c2.107,0.197,4.467,0.594,7.018,1.182c2.537,0.622,5.293,1.413,8.006,2.792
		c2.709,1.378,5.383,3.225,7.895,5.372c2.51,2.137,4.979,4.479,6.947,7.389c1.92,2.814,3.676,5.95,4.945,9.257
		c1.307,3.312,1.979,6.807,2.445,10.233c0.436,3.433,0.648,6.831,0.535,10.092c-0.088,3.228-0.502,6.452-0.811,9.144l-0.051,0.615
		c0.057,0.362,0.111,0.717,0.176,0.989c0.135,0.647,0.268,1.287,0.396,1.916c0.314,1.325,0.617,2.604,0.908,3.834
		c0.758,3.248,1.432,6.144,1.977,8.583H300V0z"/>
	<g clip-path="url(#SVGID_2_)">
		<path fill="#000100" d="M141.66,221.533c0,0,0.65,0.999,1.52,2.503c0.883,1.498,1.988,3.507,3.176,5.432
			c0.305,0.473,0.584,0.968,0.9,1.419c0.334,0.435,0.588,0.932,0.924,1.325c0.623,0.832,1.232,1.599,1.846,2.139
			c0.295,0.3,0.584,0.541,0.871,0.713c0.277,0.19,0.52,0.391,0.754,0.456c0.469,0.208,0.736,0.328,0.736,0.328
			s-0.283,0.013-0.824-0.005c-0.281,0.016-0.586-0.081-0.943-0.199c-0.184-0.059-0.377-0.123-0.58-0.188
			c-0.184-0.102-0.375-0.21-0.576-0.323c-0.42-0.211-0.83-0.499-1.225-0.846c-0.426-0.32-0.813-0.708-1.195-1.128
			c-0.789-0.823-1.467-1.814-2.117-2.813c-0.6-1.028-1.162-2.071-1.59-3.093c-0.439-1.015-0.791-1.986-1.037-2.836
			C141.783,222.726,141.66,221.533,141.66,221.533z"/>
		<path fill="#000100" d="M147.045,113.631c0,0-15.996-6.054-21.256,5.37c0,0,4.314-2.812,5.994-1.699
			c1.682,1.11-15.895,22.511,10.535,25.706c24.018,1.112,15.832-5.002,15.695-6.668c0,0,2.953-0.694,4.699,0.834
			C164.459,138.699,162.771,120.107,147.045,113.631z"/>
		<path fill="#FFFFFF" d="M137.281,121.215c3.469-1.074,9.574-0.677,12.324,3.786c5.025,8.166-0.404,8.023-4.41,7.827
			C137.641,132.463,134.199,122.172,137.281,121.215z"/>
		<path fill="#000100" d="M214.74,169.458c0,0-4.271,7.555-6.295,1.127c-2.023-6.431-5.113-20.141-5.113-20.141
			S216.475,167.11,214.74,169.458z"/>
		<g>
			<path fill="#000100" d="M255.51,303.44c-0.604-2.924-1.566-7.076-2.723-12.024c-0.291-1.23-0.594-2.509-0.908-3.834
				c-0.129-0.628-0.262-1.268-0.396-1.916c-0.064-0.272-0.119-0.627-0.176-0.989l0.051-0.615c0.309-2.691,0.723-5.916,0.811-9.144
				c0.113-3.261-0.1-6.659-0.535-10.092c-0.467-3.426-1.139-6.921-2.445-10.233c-1.27-3.307-3.025-6.442-4.945-9.257
				c-1.969-2.91-4.438-5.252-6.947-7.389c-2.512-2.147-5.186-3.994-7.895-5.372c-2.713-1.379-5.469-2.17-8.006-2.792
				c-2.551-0.588-4.91-0.985-7.018-1.182c-1.293-0.14-2.475-0.207-3.557-0.24c0.732-0.141,1.463-0.302,2.186-0.485
				c2.934-0.779,5.672-2.091,8.174-3.602c2.488-1.55,4.539-3.51,6.363-5.463c1.799-1.983,3.182-4.12,4.379-6.164
				c1.156-2.068,2.063-4.089,2.746-5.991c0.455-1.224,0.801-2.368,1.1-3.471l0.297-0.061l0.523-0.323
				c2.98-1.833,5.188-4.932,5.963-8.035c0.879-3.108,0.826-6.146,0.496-9.022c-0.355-2.883-1.051-5.639-1.916-8.317
				c-0.883-2.672-1.902-5.273-3.15-7.809l-0.482-0.957l-0.256-0.485l-0.027-0.051l-0.006-0.017c0.006-0.024,0.012-0.049,0.023-0.128
				c0.092-0.392,0.395-1.461,0.443-2.417c0.068-0.984-0.018-1.917-0.166-2.76c-0.666-3.339-1.982-5.857-3.289-8.383
				c-1.33-2.498-2.795-4.847-4.291-7.164l-2.199-3.307c-0.326-0.54-0.801-1.202-1.002-1.64c-0.229-0.48-0.492-0.876-0.717-1.452
				c-1.916-4.279-2.701-9.365-3.467-14.56c-0.771-5.208-1.434-10.672-3.297-16.106c-0.922-2.711-2.141-5.413-3.797-7.932
				c-1.639-2.521-3.746-4.829-6.168-6.729c-2.426-1.901-5.123-3.424-7.932-4.571c-2.436-1.022-4.953-1.696-7.467-2.28
				c-2.66-3.869-5.268-7.763-7.877-11.655c-2.838-4.21-5.555-8.48-8.268-12.773c-2.762-4.26-5.422-8.673-8.689-12.728
				c-0.811-1.016-1.646-2.008-2.518-2.971c-0.842-0.985-1.762-1.904-2.645-2.851c-1.826-1.84-3.684-3.638-5.604-5.381
				c1.598,2.008,3.215,3.994,4.74,6.038c0.74,1.035,1.543,2.025,2.242,3.08c0.732,1.03,1.426,2.083,2.088,3.151
				c2.67,4.251,4.893,8.747,7.203,13.273c2.336,4.506,4.76,8.993,7.268,13.43c2.48,4.457,5.16,8.801,7.799,13.167l0.527,0.873
				l1.264,0.348c2.545,0.701,5.07,1.448,7.361,2.546c2.289,1.09,4.439,2.339,6.283,3.892c3.736,3.072,6.131,7.282,7.549,11.981
				c1.416,4.712,2.078,9.818,2.781,15.086c0.744,5.262,1.43,10.807,3.814,16.351c0.258,0.671,0.686,1.436,1.053,2.15
				c0.391,0.766,0.719,1.196,1.082,1.813l2.301,3.407c1.451,2.191,2.855,4.403,4.072,6.627c1.201,2.19,2.314,4.529,2.684,6.408
				c0.088,0.459,0.119,0.853,0.1,1.191c-0.018,0.369-0.076,0.589-0.287,1.489c-0.094,0.441-0.207,1.107-0.164,1.832
				c0.02,0.366,0.074,0.715,0.154,1.055c0.039,0.17,0.105,0.377,0.166,0.561l0.1,0.279l0.055,0.133l0.098,0.23l0.207,0.42
				l0.057,0.097l0.213,0.4l0.432,0.833c2.271,4.517,4.186,9.334,4.939,14.081c0.359,2.355,0.424,4.712-0.092,6.748
				c-0.453,1.932-1.445,3.448-2.914,4.62c-2.717,0.688-5.537,1.317-8.328,1.886c-3.039,0.613-6.09,1.169-9.152,1.644
				c-6.113,0.999-12.283,1.732-18.441,1.865c-3.072,0.056-6.15,0.012-9.16-0.367c-3.004-0.371-5.98-1.042-8.576-2.346
				c-2.59-1.277-4.688-3.421-5.404-6.185c-0.781-2.747-0.355-5.765,0.445-8.616c-1.158,2.728-2.059,5.721-1.607,8.836
				c0.23,1.542,0.859,3.063,1.816,4.382c0.959,1.324,2.227,2.434,3.617,3.325c2.803,1.783,6.012,2.723,9.182,3.395
				c3.189,0.658,6.416,0.999,9.637,1.154c6.439,0.269,12.846-0.082,19.199-0.71c3.174-0.341,6.332-0.769,9.48-1.256
				c2.176-0.341,4.33-0.722,6.498-1.128c-0.295,0.549-0.584,1.094-0.914,1.668c-0.953,1.671-2.123,3.394-3.369,5.171
				c-1.316,1.737-2.818,3.461-4.471,5.104c-1.695,1.612-3.615,3.059-5.678,4.317c-2.098,1.189-4.344,2.218-6.754,2.796
				c-2.389,0.622-4.875,0.984-7.377,1l-1.869,0.021c-0.627-0.04-1.25-0.079-1.869-0.116c-0.617-0.048-1.238-0.066-1.852-0.135
				c-0.613-0.095-1.221-0.19-1.824-0.28c-0.604-0.095-1.207-0.188-1.801-0.281c-0.586-0.144-1.172-0.277-1.756-0.395
				c-1.162-0.256-2.318-0.455-3.404-0.812c-1.104-0.318-2.178-0.626-3.215-0.923c-1.027-0.349-2.021-0.686-2.977-1.009
				c-1.928-0.617-3.641-1.345-5.197-1.924s-2.898-1.138-3.996-1.612c-2.213-0.928-3.523-1.416-3.523-1.416s1.041,0.868,2.951,2.308
				c0.953,0.723,2.107,1.615,3.545,2.478c1.42,0.892,2.986,1.975,4.867,2.892c0.928,0.485,1.896,0.991,2.896,1.517
				c1.049,0.443,2.135,0.899,3.25,1.371c1.107,0.503,2.318,0.863,3.541,1.278c0.611,0.21,1.236,0.408,1.869,0.599
				c0.65,0.147,1.307,0.295,1.967,0.444c0.668,0.151,1.338,0.298,2.012,0.448c0.684,0.125,1.387,0.197,2.088,0.299
				c0.705,0.09,1.416,0.18,2.127,0.271c0.725,0.021,1.455,0.039,2.188,0.059l-0.018,0.251c0,0,1.654,0.549,4.506,1.373
				c1.416,0.41,3.135,0.909,5.107,1.479c1.955,0.589,4.156,1.21,6.518,1.973c2.344,0.763,4.883,1.587,7.57,2.462
				c2.662,0.877,5.568,1.722,8.279,3.231c2.715,1.468,5.17,3.708,6.688,6.526c1.592,2.876,2.43,6.095,2.949,9.334
				c0.523,3.232,0.896,6.475,1.043,9.703c0.141,3.229,0.055,6.418,0,9.521c-0.039,3.139-0.172,6.05-0.102,9.191
				c0.018,0.389,0.021,0.882,0.158,1.55c0.082,0.344,0.166,0.689,0.289,1.102c0.234,0.823,0.469,1.445,0.695,2.126
				c0.473,1.305,0.93,2.566,1.369,3.777c3.666,9.569,6.766,15.687,6.764,15.687l0.479-0.158
				C256.414,308.056,256.119,306.365,255.51,303.44z"/>
			<path fill="#000100" d="M155.723,201.206c-2.031-1.845-4.154-3.658-6.502-5.351c0.488-0.293,0.938-0.628,1.424-0.908
				c0.734-0.528,1.352-1.145,2.006-1.701c0.596-0.597,1.088-1.247,1.6-1.842c0.533-0.582,0.904-1.225,1.293-1.811
				c0.379-0.587,0.736-1.144,1.068-1.655c1.139-2.137,1.834-3.561,1.834-3.561l-0.322-0.177c0,0-1.076,1.212-2.602,3.029
				c-0.422,0.42-0.879,0.875-1.361,1.355c-0.494,0.464-0.943,1.019-1.535,1.453c-0.57,0.454-1.131,0.953-1.725,1.406
				c-0.635,0.382-1.242,0.838-1.887,1.167c-0.668,0.245-1.311,0.635-1.967,0.663c-0.32,0.035-0.633,0.141-0.928,0.138
				c-0.271-0.018-0.529,0.003-0.783,0.023c-0.059-0.033-0.115-0.066-0.174-0.099c-1.369-0.746-2.875-1.361-4.461-1.886
				c-0.061-0.018-0.127-0.034-0.189-0.044l-0.49-0.069c-0.447-0.064-0.883-0.149-1.328-0.216c-0.002-0.003-0.018-0.012-0.018-0.012
				l-0.012,0.005c-1.648-0.246-3.297-0.495-4.914-0.802c-2.055-0.425-4.088-0.884-6.055-1.45c-1.988-0.53-3.871-1.245-5.727-1.957
				c-1.84-0.748-3.57-1.632-5.215-2.595c-3.264-1.95-6.01-4.402-8.078-7.302c-2.047-2.919-3.42-6.296-4.158-9.939
				c-0.744-3.638-0.9-7.507-0.654-11.423c0.232-3.923,0.895-7.893,1.732-11.872c0.418-1.991,0.914-3.98,1.473-5.962
				c0.576-1.975,1.107-3.98,1.76-5.957c1.014-3.115,2.111-6.239,3.285-9.362c0.203,0.891,0.418,1.77,0.641,2.631
				c0.379,1.473,0.736,2.913,1.021,4.359c0.285,1.437,0.545,2.883,0.584,4.338c0.078,1.456-0.008,2.921-0.205,4.396l-0.443,2.204
				l-0.658,2.185l1.197-2.001c0.336-0.699,0.678-1.407,0.971-2.134c0.516-1.471,0.975-3.001,1.139-4.569
				c0.229-1.568,0.225-3.149,0.186-4.717c-0.09-1.558-0.262-3.104-0.439-4.607c-0.184-1.514-0.322-2.985-0.459-4.435
				c-0.096-1.427-0.148-2.898-0.016-4.205l0.086-0.976l0.195-1.117l0.102-0.561c0.012-0.049,0.045-0.284,0.033-0.18l0.066-0.258
				l0.254-1.028c0.146-0.694,0.373-1.352,0.602-2.007c0.199-0.669,0.488-1.29,0.77-1.908c0.559-1.245,1.287-2.365,2.104-3.377
				c0.838-0.996,1.783-1.857,2.846-2.572c1.094-0.674,2.291-1.202,3.576-1.57c1.295-0.351,2.678-0.525,4.09-0.589
				c2.834-0.146,5.811,0.22,8.73,0.916c1.465,0.339,2.912,0.779,4.355,1.243c1.42,0.454,2.91,1.005,4.178,1.562l0.197,0.088
				c0.164,0.072,0.34,0.128,0.525,0.163c1.322,0.261,2.621-0.537,2.896-1.781c0.773-3.471,0.406-6.809-0.371-9.902
				c-0.787-3.1-1.922-6.032-3.32-8.824c-1.371-2.798-2.955-5.475-4.697-8.045c-1.734-2.573-3.623-5.045-5.697-7.364
				c2.791,5.45,5.291,10.973,7.246,16.567c0.92,2.812,1.748,5.624,2.168,8.434c0.098,0.702,0.182,1.401,0.229,2.095
				c0.033,0.689,0.086,1.379,0.066,2.052c0.004,0.308-0.041,0.604-0.059,0.905c-0.5-0.205-0.998-0.415-1.514-0.61
				c-1.572-0.592-3.193-1.073-4.844-1.498c-1.65-0.418-3.334-0.761-5.066-0.971c-1.625-0.197-3.283-0.31-4.973-0.257
				c-0.08-0.772-0.174-1.539-0.277-2.316c-0.234-1.599-0.545-3.187-0.887-4.768c-0.682-3.162-1.568-6.293-2.701-9.355
				c-1.129-3.059-2.385-6.1-3.961-9.007c-0.764-1.463-1.613-2.89-2.471-4.313c-0.904-1.399-1.805-2.803-2.805-4.15
				c-0.959-1.376-2.082-2.646-3.174-3.926c-1.123-1.263-2.27-2.513-3.521-3.669c-1.244-1.163-2.551-2.27-3.891-3.333
				c-0.684-0.517-1.354-1.046-2.051-1.546l-2.154-1.417c-1.424-0.953-2.955-1.768-4.459-2.59c-1.561-0.739-3.076-1.537-4.689-2.152
				c-1.574-0.687-3.201-1.245-4.828-1.784c-0.727-0.254-1.467-0.466-2.209-0.674c-0.141-0.097-0.301-0.174-0.477-0.218
				c0,0-0.584-0.144-1.535-0.354c-0.232-0.065-0.469-0.126-0.699-0.197l-0.178-0.053l-0.076-0.005
				c-0.102-0.008-0.176-0.005-0.27-0.008c-1.529-0.316-3.516-0.695-5.521-0.974c-1.043-0.157-2.102-0.236-3.074-0.351
				c-0.988-0.069-1.91-0.088-2.693-0.128c-0.791,0.003-1.447,0.071-1.902,0.089c-0.455,0.026-0.713,0.041-0.713,0.041
				s0.26,0.026,0.715,0.072c0.453,0.052,1.098,0.088,1.861,0.205c0.762,0.161,1.646,0.322,2.582,0.538
				c0.932,0.263,1.926,0.5,2.904,0.811c0.613,0.185,1.211,0.38,1.799,0.579c-0.988,0.381-1.889,0.843-2.797,1.329
				c-0.994,0.594-1.986,1.189-2.789,1.829l-1.338,0.993c-0.592,0.489-0.957,1.033-1.254,1.551c-1.115,2.083-1.553,4.068-2.164,6.015
				c-0.594,1.937-1.188,3.853-2.127,5.537c-1.842,3.285-5.508,5.604-9.418,6.505c-3.883,0.941-8.277,0.541-11.197-1.647
				c-1.449-1.071-2.465-2.532-2.994-4.189c-0.275-0.882-0.385-1.532-0.488-2.649c-0.039-0.807-0.039-1.819,0.07-2.712
				c0.375-3.686,1.92-7.212,4.047-10.43c2.098-3.248,4.789-6.197,7.65-9.041c1.438-1.422,2.953-2.793,4.5-4.184l1.172-1.06
				l1.059-0.889c0.707-0.565,1.48-1.118,2.291-1.632c3.258-2.065,6.963-3.729,10.801-5.034c3.848-1.304,7.852-2.25,11.912-2.888
				c1.008-0.185,2.031-0.305,3.057-0.42c1.02-0.118,2.037-0.259,3.07-0.31c2.051-0.203,4.109-0.297,6.174-0.354
				c3.922-0.048,8.42,0.111,12.256,0.605c3.982,0.455,7.898,1.47,11.783,2.695c1.939,0.618,3.854,1.345,5.736,2.146
				c1.91,0.764,3.777,1.637,5.627,2.56c3.703,1.842,7.301,3.937,10.822,6.2c3.521,2.26,6.955,4.71,10.24,7.359l0.568-0.449
				c-1.188-1.762-2.545-3.387-3.955-4.983c-1.42-1.587-2.873-3.164-4.449-4.624c-3.115-2.965-6.531-5.678-10.191-8.122
				c-3.666-2.427-7.584-4.602-11.779-6.31c-4.16-1.791-8.623-3.006-13.205-3.781c-1.139-0.223-2.305-0.328-3.463-0.448l-3.355-0.197
				c-1.051-0.077-2.195-0.098-3.367-0.098c-1.15,0.003-2.33-0.048-3.457,0.008c-4.533,0.07-9.055,0.579-13.51,1.412
				c-4.457,0.832-8.848,1.999-13.098,3.58c-4.252,1.586-8.367,3.554-12.213,6.152c-0.961,0.653-1.898,1.36-2.811,2.137
				c-0.439,0.392-0.934,0.815-1.322,1.186l-1.129,1.099c-1.512,1.483-3.027,3.023-4.49,4.624c-2.939,3.185-5.613,6.7-7.697,10.59
				c-2.043,3.886-3.469,8.244-3.463,12.718c-0.004,1.14,0.076,2.168,0.248,3.385c0.143,0.905,0.451,2.26,0.896,3.3
				c0.881,2.191,2.502,4.182,4.58,5.488c2.074,1.317,4.479,1.958,6.822,2.137c2.352,0.198,4.691-0.076,6.908-0.674
				c4.375-1.232,8.566-3.777,10.746-7.788c1.059-1.934,1.744-3.935,2.375-5.899c0.643-1.932,1.166-3.967,2.082-5.496
				c2.029-2.18,6.934-4.668,9.688-4.527c1.441,0.592,2.91,1.104,4.289,1.798c1.447,0.682,2.877,1.376,4.24,2.183
				c1.404,0.735,2.699,1.635,4.023,2.469c1.26,0.925,2.584,1.758,3.771,2.757c1.229,0.945,2.385,1.967,3.545,2.98
				c1.143,1.026,2.256,2.091,3.303,3.203c0.512,0.569,1.066,1.097,1.594,1.655l1.518,1.716c0.988,1.167,1.949,2.352,2.861,3.575
				c0.947,1.199,1.807,2.462,2.678,3.718c0.824,1.284,1.646,2.572,2.395,3.904c0.748,1.328,1.484,2.67,2.18,4.035
				c0.705,1.356,1.355,2.746,1.969,4.145c1.211,2.813,2.313,5.678,3.277,8.593c0.475,1.459,0.91,2.933,1.295,4.414
				c0.186,0.676,0.365,1.37,0.533,2.055c-0.504,0.108-1.008,0.188-1.506,0.333c-1.787,0.536-3.514,1.323-5.088,2.345
				c-1.535,1.071-2.914,2.337-4,3.771c-1.051,1.447-1.91,2.98-2.516,4.558c-0.309,0.786-0.617,1.573-0.809,2.374
				c-0.232,0.795-0.451,1.589-0.576,2.39l-0.227,1.194l-0.053,0.298c-0.045,0.291-0.027,0.243-0.043,0.382l-0.045,0.566
				l-0.086,1.135v1.291c0.002,1.716,0.225,3.267,0.482,4.845c0.045,0.269,0.111,0.529,0.164,0.797
				c-0.982,1.206-1.93,2.436-2.813,3.71c-1.24,1.771-2.434,3.579-3.512,5.452c-1.08,1.865-2.176,3.746-3.096,5.701
				c-0.943,1.949-1.828,3.93-2.641,5.947c-1.621,4.042-2.865,8.257-3.629,12.631c-0.734,4.375-0.977,8.932-0.313,13.542
				c0.652,4.588,2.252,9.275,5.07,13.361c2.781,4.107,6.697,7.463,10.969,9.913c4.314,2.409,8.934,4.025,13.576,5.014
				c1.564,0.366,3.133,0.615,4.705,0.835c0.912,2.088,1.783,4.178,2.447,6.31c0.779,2.336,1.344,4.729,1.5,7.026
				c0.035,0.571,0.068,1.144,0.027,1.689c-0.012,0.556-0.088,1.089-0.186,1.604c-0.096,0.515-0.25,0.996-0.426,1.457
				c-0.168,0.405-0.385,0.766-0.602,1.125c-2.092,2.134-4.254,4.243-6.391,6.284c-0.545,0.525-1.092,1.042-1.635,1.527l-0.801,0.684
				c-0.115,0.103-0.279,0.216-0.383,0.29l-0.48,0.046l-1.16,0.112l-2.318,0.221c-3.09,0.343-6.176,0.722-9.26,1.132
				c-3.074,0.403-6.15,0.792-9.227,1.133c-2.754-0.264-5.455-0.407-8.18-0.536c-2.779-0.1-5.557-0.19-8.342-0.161
				c-2.785,0.008-5.574,0.097-8.371,0.3c-2.797,0.2-5.6,0.526-8.391,1.064c-2.787,0.546-5.578,1.266-8.273,2.369
				c-1.352,0.54-2.68,1.172-3.965,1.901c-0.664,0.387-1.211,0.74-1.947,1.21c-0.572,0.417-1.1,0.75-1.73,1.281
				c-2.408,1.937-4.342,4.151-6.084,6.539c-1.705,2.396-3.143,4.945-4.361,7.574c-1.234,2.625-2.164,5.362-2.975,8.124
				c-0.801,2.77-1.324,5.604-1.676,8.491c-0.16,1.448-0.295,2.908-0.268,4.432c0.021,0.774,0.041,1.532,0.174,2.396l0.055,0.435
				l0.018,0.31c0.012,0.266,0.004,0.567-0.004,0.869c-0.129,2.498-0.592,5.227-1.043,7.891c-0.969,5.357-2.156,10.729-3.465,16.061
				c-0.662,2.664-1.354,5.322-2.109,7.959c-0.383,1.317-0.795,2.625-1.264,3.902c-0.24,0.637-0.486,1.27-0.764,1.88
				c-0.141,0.304-0.291,0.599-0.461,0.872c-0.16,0.266-0.4,0.526-0.537,0.562v0.505c0.574-0.053,0.811-0.396,1.074-0.649
				c0.246-0.277,0.463-0.567,0.668-0.862c0.408-0.589,0.76-1.201,1.09-1.822c0.662-1.242,1.258-2.506,1.83-3.781
				c1.156-2.546,2.172-5.141,3.121-7.758c1.9-5.237,3.57-10.544,4.941-15.983c0.684-2.737,1.313-5.439,1.627-8.45
				c0.033-0.385,0.064-0.774,0.07-1.199c0.006-0.194,0.004-0.45-0.01-0.725l-0.041-0.597c-0.047-0.507-0.025-1.133,0-1.738
				c0.08-1.238,0.203-2.533,0.406-3.82c0.383-2.588,1.053-5.16,1.75-7.706c0.711-2.545,1.615-5.032,2.631-7.451
				c1.004-2.427,2.223-4.743,3.611-6.925c1.398-2.145,3.049-4.2,4.871-5.822c0.395-0.396,1.002-0.853,1.521-1.283
				c0.416-0.287,1.002-0.727,1.514-1.063c1.088-0.684,2.193-1.361,3.367-1.945c2.338-1.172,4.814-2.176,7.385-2.963
				c2.57-0.794,5.219-1.409,7.906-1.865c2.688-0.456,5.414-0.73,8.15-0.86c2.734-0.105,5.484-0.133,8.221,0.058
				c2.73,0.149,5.484,0.462,8.139,0.943l0.064,0.013l0.146-0.003c3.107-0.053,6.217-0.056,9.328-0.044
				c3.111,0.016,6.221,0.001,9.33-0.049l2.328-0.074l1.164-0.036l0.582-0.018l0.291-0.01l0.072-0.001l0.037-0.002l0.182-0.02
				l0.043-0.008l0.086-0.016c0.199-0.036,0.52-0.141,0.602-0.182c0.846-0.399,1.074-0.655,1.475-0.94l0.98-0.815
				c0.623-0.541,1.209-1.082,1.791-1.627c2.293-2.196,4.408-4.478,6.551-6.777l0.158-0.169l0.082-0.136
				c0.422-0.692,0.764-1.418,1.018-2.168c0.236-0.748,0.414-1.502,0.506-2.251c0.094-0.745,0.141-1.489,0.111-2.211
				c0-0.729-0.084-1.434-0.172-2.131c-0.412-2.785-1.344-5.325-2.416-7.741c-0.785-1.676-1.678-3.274-2.621-4.833
				c1.014,0.105,2.025,0.195,3.037,0.28l3.236,0.146c0.42,0.097,0.846,0.186,1.27,0.315c0.576,0.198,1.168,0.318,1.752,0.564
				c1.178,0.42,2.35,0.943,3.535,1.514c2.377,1.125,4.729,2.491,7.055,3.948c2.379,1.402,4.715,2.928,7.123,4.387
				c2.408,1.457,4.85,2.907,7.424,4.137l-5.713-6.024C159.715,205.115,157.754,203.157,155.723,201.206z"/>
			<path fill="#000100" d="M172.953,131.762c0.563,2.413,0.928,4.914,1.279,7.417c0.342,2.508,0.635,5.032,0.85,7.535
				c0.119,1.254,0.234,2.504,0.35,3.734c0.084,1.225,0.166,2.436,0.248,3.626c0.141,2.386,0.352,4.692,0.531,6.884
				c0.119,1.094,0.158,2.158,0.182,3.191c0.041,1.032,0.08,2.029,0.121,2.987c0.084,1.92,0.164,3.681,0.232,5.24
				c0.023,1.563,0.047,2.926,0.064,4.048c0.031,1.124,0.055,2.016,0.041,2.62c0,0.606,0,0.928,0,0.928s0.07-0.315,0.201-0.909
				c0.131-0.592,0.334-1.457,0.49-2.577c0.17-1.122,0.377-2.481,0.617-4.043c0.201-1.568,0.326-3.338,0.475-5.271
				c0.109-1.936,0.406-4.038,0.336-6.259c0-2.219,0.021-4.566-0.035-6.994c-0.027-2.437-0.059-4.93-0.281-7.461
				c-0.174-2.539-0.43-5.13-0.74-7.72c-0.396-2.585-0.826-5.171-1.457-7.69c-0.557-2.529-1.408-4.963-2.262-7.292
				c-0.436-1.163-0.938-2.285-1.422-3.382c-0.518-1.083-1.09-2.117-1.609-3.134c-1.127-1.998-2.295-3.828-3.514-5.427
				c-1.143-1.644-2.43-2.992-3.496-4.217c-1.158-1.158-2.143-2.18-3.031-2.951c-1.799-1.521-2.838-2.352-2.838-2.352
				s0.83,1.023,2.285,2.813c0.727,0.887,1.492,2.05,2.455,3.3c0.459,0.643,0.887,1.368,1.367,2.106
				c0.484,0.736,0.996,1.504,1.445,2.357c0.98,1.652,1.885,3.515,2.82,5.483c0.875,1.996,1.686,4.133,2.434,6.375
				C171.816,126.977,172.42,129.339,172.953,131.762z"/>
		</g>
	</g>
	<g clip-path="url(#SVGID_2_)">
		<path fill="#C63235" d="M65.105,327.952c-0.943-11.227-1.111-23.744-1.111-23.744c39.08-6.378,33.9-77.979,33.9-77.979
			c10.355-1.274,27.072-6.214,27.072-6.214s0.498,40.185,26.838,46.434c7.533,1.785,27.074-5.869,25.424-46.434
			c0,0,9.654,8.673,26.838,7.91c0,0-6.59,69.65,29.664,77.304c0,0,1.648,16.07,0,23.98L65.105,327.952z"/>
		<path fill="#000100" d="M233.73,330.889c-0.004,0-0.01,0-0.014,0l-168.625-1.257c-0.93-0.007-1.701-0.679-1.775-1.548
			c-0.936-11.153-1.115-23.728-1.117-23.854c-0.01-0.825,0.619-1.534,1.486-1.676c37.061-6.049,32.469-75.509,32.418-76.211
			c-0.064-0.884,0.617-1.663,1.557-1.778c10.084-1.242,26.6-6.103,26.768-6.151c0.533-0.159,1.127-0.07,1.59,0.241
			c0.463,0.31,0.736,0.809,0.744,1.34c0.006,0.389,0.795,38.968,25.484,44.825c0.518,0.123,1.098,0.186,1.73,0.186
			c1.697,0,6.146-0.492,10.844-5.057c5.369-5.219,11.57-16.374,10.615-39.87c-0.027-0.684,0.391-1.315,1.059-1.596
			c0.666-0.284,1.447-0.154,1.977,0.32c0.084,0.076,9.453,8.171,25.51,7.445c0.549-0.041,1.021,0.166,1.381,0.515
			c0.357,0.349,0.539,0.828,0.492,1.311c-0.064,0.682-6.037,68.276,28.271,75.517c0.758,0.159,1.318,0.756,1.393,1.478
			c0.066,0.666,1.656,16.406-0.025,24.463C235.326,330.319,234.59,330.889,233.73,330.889z M66.771,326.286l165.438,1.231
			c0.967-6.604,0.156-17.39-0.156-20.949c-33.039-8.424-30.723-65.535-29.926-76.917c-0.063,0-0.127,0-0.193,0
			c-11.035,0-18.807-3.669-22.82-6.168c0.252,22.301-6.141,33.385-11.709,38.796c-3.979,3.868-8.873,6.085-13.428,6.085
			c-0.928,0-1.809-0.097-2.611-0.287c-23.998-5.693-27.572-37.042-28.104-45.815c-4.617,1.302-15.369,4.207-23.484,5.407
			c0.541,10.743,1.902,70.426-33.961,77.914C65.887,308.945,66.121,317.843,66.771,326.286z"/>
	</g>
	<g clip-path="url(#SVGID_2_)">
		<g>
			<g>
				<path fill="#222221" d="M147.801,289.37l-20.582,64.208h-17.77l20.594-64.417h-19.385v-10.496h37.143V289.37z"/>
			</g>
			<g>
				<path fill="#FFFFFF" d="M129.213,356.313h-23.506l20.594-64.42H107.93v-15.957h42.604l-0.137,14.274L129.213,356.313z
					 M113.189,350.848h12.041l19.84-61.903v-7.548h-31.682v5.04h20.387L113.189,350.848z"/>
			</g>
			<g>
				<path fill="#000100" d="M128.215,354.946H107.58l20.592-64.418h-18.879v-13.229h39.867l-0.064,12.493L128.215,354.946z
					 M111.316,352.214h14.904l20.209-63.058v-9.125h-34.406v7.766h19.883L111.316,352.214z"/>
			</g>
		</g>
		<g>
			<path fill="#222221" d="M154.676,322.183h15.104v17.763c0,1.849,0.992,2.771,2.982,2.771c1.982,0,2.973-0.922,2.973-2.771
				v-17.353c0-1.974-0.49-3.326-1.49-4.042c-0.992-0.717-2.844-1.074-5.564-1.074v-8.464c4.709,0,7.055-1.463,7.055-4.384v-13.266
				c0-1.494-0.99-2.25-2.973-2.25c-2.061,0-3.084,0.756-3.084,2.25v13.792h-14.576v-13.907c0-8.838,6.121-13.26,18.359-13.26
				c4.91,0,9.18,1.064,12.836,3.187c3.648,2.124,5.486,5.485,5.486,10.074v10.297c0,5.995-2.848,10.016-8.525,12.068
				c5.854,1.714,8.779,6.341,8.779,13.9v11.125c0,10.417-6.186,15.624-18.551,15.624c-12.533,0-18.811-4.734-18.811-14.208V322.183z
				"/>
		</g>
		<g>
			<path fill="#FFFFFF" d="M173.486,356.993c-17.795,0-21.537-9.216-21.537-16.939V319.45h14.004v-11.563h-13.584v-16.639
				c0-7.287,3.662-15.991,21.092-15.991c5.375,0,10.154,1.197,14.209,3.556c4.475,2.606,6.844,6.903,6.844,12.436v10.297
				c0,5.145-1.865,9.206-5.424,11.995c3.137,2.453,5.678,6.686,5.678,13.974v11.125C194.768,347.011,191.08,356.993,173.486,356.993
				z M157.408,324.908v15.146c0,4.93,1.666,11.478,16.078,11.478c14.184,0,15.82-7.354,15.82-12.894v-11.125
				c0-8.317-3.891-10.426-6.813-11.275l-8.031-2.353l7.867-2.841c4.582-1.658,6.723-4.671,6.723-9.5v-10.297
				c0-3.625-1.314-6.078-4.131-7.715c-3.203-1.871-7.063-2.819-11.461-2.819c-14.01,0-15.635,6.015-15.635,10.535v11.176h9.119
				v-11.062c0-2.406,1.527-4.981,5.816-4.981c4.217,0,5.707,2.682,5.707,4.981v13.266c0,1.891-0.75,6.015-7.059,6.933v3.326
				c1.941,0.212,3.385,0.694,4.436,1.452c1.738,1.241,2.623,3.351,2.623,6.254v17.353c0,3.338-2.24,5.494-5.707,5.494
				c-3.469,0-5.715-2.156-5.715-5.494v-15.037H157.408z M172.512,339.977c0.135,0.013,0.363,0.018,0.492,0c0-0.015,0-0.02,0-0.031
				v-17.353c0-1.452-0.34-1.815-0.34-1.821c-0.012-0.006-0.053-0.035-0.152-0.075v19.249
				C172.512,339.957,172.512,339.962,172.512,339.977z M172.402,291.856v13.792c0.602-0.369,0.602-0.809,0.602-1.02v-12.785
				C172.83,291.838,172.572,291.838,172.402,291.856z"/>
		</g>
		<g>
			<path fill="#000100" d="M173.486,355.628c-13.379,0-20.174-5.246-20.174-15.574v-19.239h17.834v19.131
				c0,0.954,0.242,1.404,1.615,1.404c1.369,0,1.609-0.45,1.609-1.404v-17.353c0-1.035-0.158-2.385-0.916-2.932
				c-0.43-0.303-1.605-0.812-4.775-0.812h-1.365v-11.202h1.365c5.691,0,5.691-2.189,5.691-3.02v-13.266c0-0.395,0-0.884-1.609-0.884
				c-1.723,0-1.723,0.533-1.723,0.884v15.157h-17.311v-15.271c0-9.705,6.645-14.619,19.732-14.619c5.131,0,9.678,1.132,13.523,3.366
				c4.082,2.378,6.156,6.166,6.156,11.253v10.297c0,5.478-2.174,9.495-6.479,12c4.477,2.477,6.74,7.157,6.74,13.969v11.125
				C193.402,346.39,189.945,355.628,173.486,355.628z M156.049,323.546v16.508c0,8.644,5.707,12.844,17.438,12.844
				c11.564,0,17.191-4.661,17.191-14.26v-11.125c0-6.938-2.555-11.056-7.807-12.586l-4.008-1.178l3.93-1.421
				c5.131-1.847,7.617-5.375,7.617-10.784v-10.297c0-4.1-1.57-7.011-4.803-8.893c-3.416-1.988-7.504-3-12.146-3
				c-11.436,0-16.996,3.889-16.996,11.893v12.541h11.848v-12.426c0-1.084,0.439-3.615,4.449-3.615c4.027,0,4.34,2.77,4.34,3.615
				v13.266c0,2.444-1.27,5.321-7.057,5.706v5.814c2.332,0.108,3.941,0.533,4.998,1.296c1.365,0.976,2.059,2.711,2.059,5.148v17.353
				c0,2.59-1.627,4.14-4.34,4.14c-2.721,0-4.348-1.55-4.348-4.14v-16.399H156.049z"/>
		</g>
	</g>
</g>
</svg>
